<?xml version="1.0" encoding="UTF-8"?>
<svg xmlns="http://www.w3.org/2000/svg" version="1.1" viewBox="0 0 90.709 90.709">
  <!-- Generator: Adobe Illustrator 29.1.0, SVG Export Plug-In . SVG Version: 2.1.0 Build 142)  -->
  <g id="Grundfläche">
    <rect x="0" y="0" width="90.709" height="90.709" fill="none"/>
  </g>
  <g id="Flächige_Fülung">
    <rect x="2.834" y="17.008" width="85.04" height="56.693" fill="#fff"/>
  </g>
  <g id="Takt_Zeichen__x28_umgewandelt_x29_">
    <path d="M2.125,16.3v58.11h86.457V16.3H2.125ZM87.165,71.575L46.772,17.717h40.393v53.858ZM86.457,72.993H4.251L45.354,18.189l41.102,54.803ZM43.937,17.717L3.543,71.575V17.717h40.394ZM45.354,67.323c8.206,0,14.882-6.676,14.882-14.881s-6.676-14.882-14.882-14.882-14.882,6.676-14.882,14.882,6.676,14.881,14.882,14.881ZM44.645,65.869c-3.177-.167-6.061-1.434-8.282-3.435l8.282-8.283v11.718ZM46.063,54.152l8.283,8.283c-2.222,2-5.105,3.268-8.283,3.435v-11.718ZM47.065,53.15h11.718c-.167,3.178-1.434,6.061-3.435,8.283l-8.283-8.283ZM47.065,51.733l8.283-8.283c2.001,2.222,3.269,5.105,3.435,8.283h-11.718ZM46.063,50.73v-11.718c3.178.167,6.061,1.434,8.283,3.435l-8.283,8.283ZM44.645,50.73l-8.283-8.283c2.222-2.001,5.105-3.269,8.283-3.436v11.718ZM43.644,51.733h-11.718c.167-3.178,1.434-6.062,3.435-8.283l8.283,8.283ZM43.644,53.15l-8.283,8.283c-2.001-2.222-3.268-5.105-3.435-8.283h11.718Z"/>
    <path d="M35.433,9.921c0,2.348-1.904,4.252-4.252,4.252-2.348,0-4.252-1.904-4.252-4.252,0-2.348,1.904-4.252,4.252-4.252,2.348,0,4.252,1.904,4.252,4.252ZM59.528,5.669c-2.348,0-4.252,1.904-4.252,4.252,0,2.348,1.904,4.252,4.252,4.252,2.348,0,4.252-1.904,4.252-4.252s-1.904-4.252-4.252-4.252ZM45.354,5.669c-2.348,0-4.252,1.904-4.252,4.252,0,2.348,1.904,4.252,4.252,4.252,2.348,0,4.252-1.904,4.252-4.252s-1.904-4.252-4.252-4.252Z"/>
  </g>
  <g id="Takt._Zeichen__x28_Typo_x29_">
    <g>
      <path d="M12.039,24.453h-2.543l-.156,1.859c2.171.192,3.046,1.115,3.046,2.591,0,1.463-.971,2.422-2.662,2.422-1.283,0-1.859-.647-2.111-.887l.492-1.008c.24.276.792.84,1.583.84.936,0,1.439-.468,1.439-1.211,0-1.211-.875-1.739-2.998-1.775l.324-3.898h3.586v1.067Z"/>
      <path d="M16.036,31.325c-1.499,0-2.471-1.223-2.471-4.042,0-2.843,1.079-4.042,2.567-4.042,1.499,0,2.471,1.224,2.471,4.042,0,2.842-1.08,4.042-2.567,4.042ZM16.084,24.297c-.756,0-1.271.792-1.271,2.986,0,2.23.516,2.986,1.271,2.986s1.271-.756,1.271-2.986c0-2.195-.516-2.986-1.271-2.986Z"/>
    </g>
  </g>
</svg>