<?xml version="1.0" encoding="UTF-8"?>
<svg xmlns="http://www.w3.org/2000/svg" version="1.1" viewBox="0 0 90.709 90.709">
  <!-- Generator: Adobe Illustrator 29.1.0, SVG Export Plug-In . SVG Version: 2.1.0 Build 142)  -->
  <g id="Grundfläche">
    <rect x="0" y="0" width="90.709" height="90.709" fill="none"/>
  </g>
  <g id="Flächige_Fülung">
    <rect x="2.834" y="17.008" width="85.04" height="56.693" fill="#fff"/>
  </g>
  <g id="Takt_Zeichen__x28_umgewandelt_x29_">
    <path d="M2.126,16.3v58.11h86.457V16.3H2.126ZM87.165,71.575L46.772,17.717h40.393v53.858ZM86.457,72.993H4.252L45.355,18.189l41.102,54.803ZM43.937,17.717L3.543,71.575V17.717h40.394Z"/>
    <path d="M63.779,9.921c0,2.348-1.904,4.252-4.252,4.252-2.348,0-4.252-1.904-4.252-4.252s1.904-4.252,4.252-4.252c2.348,0,4.252,1.904,4.252,4.252ZM31.181,5.669c-2.348,0-4.252,1.904-4.252,4.252s1.904,4.252,4.252,4.252c2.348,0,4.252-1.904,4.252-4.252s-1.904-4.252-4.252-4.252Z"/>
  </g>
  <g id="Takt._Zeichen__x28_Typo_x29_">
    <g>
      <path d="M10.924,30.186h1.679v.995h-4.582v-.995h1.691v-5.589l-1.619.575-.264-.959,2.195-.828h.899v6.8Z"/>
      <path d="M16.036,31.325c-1.499,0-2.471-1.223-2.471-4.042,0-2.843,1.079-4.042,2.567-4.042,1.499,0,2.471,1.224,2.471,4.042,0,2.842-1.08,4.042-2.567,4.042ZM16.084,24.297c-.756,0-1.271.792-1.271,2.986,0,2.23.516,2.986,1.271,2.986s1.271-.756,1.271-2.986c0-2.195-.516-2.986-1.271-2.986Z"/>
      <path d="M22.036,31.325c-1.499,0-2.471-1.223-2.471-4.042,0-2.843,1.079-4.042,2.567-4.042,1.499,0,2.471,1.224,2.471,4.042,0,2.842-1.08,4.042-2.567,4.042ZM22.084,24.297c-.756,0-1.271.792-1.271,2.986,0,2.23.516,2.986,1.271,2.986s1.271-.756,1.271-2.986c0-2.195-.516-2.986-1.271-2.986Z"/>
    </g>
    <g>
      <path d="M40.024,61.303c-.216-.168-.72-.563-1.499-.563-.864,0-1.271.384-1.271.875,0,.587.264.9,1.115,1.427l.804.492c1.043.648,1.631,1.319,1.631,2.387,0,1.211-.912,2.254-2.747,2.254-1.319,0-1.979-.539-2.255-.768l.444-1.139c.264.264.9.768,1.787.768.995,0,1.451-.444,1.451-.948,0-.636-.312-.959-1.092-1.475l-.815-.54c-1.115-.743-1.619-1.307-1.619-2.435,0-1.115.959-2.027,2.507-2.027,1.176,0,1.739.444,1.979.624l-.42,1.067Z"/>
      <path d="M46.959,60.823h-3.31v2.495h3.046v1.08h-3.046v2.566h3.67l-.084,1.067h-4.881v-8.275h4.689l-.084,1.067Z"/>
      <path d="M54.638,67.407c-.252.216-1.02.768-2.519.768-2.183,0-3.802-1.151-3.802-4.317,0-2.962,2.027-4.246,4.054-4.246,1.391,0,2.087.576,2.303.744l-.444,1.02c-.192-.168-.78-.66-1.823-.66-1.439,0-2.71.899-2.71,3.142,0,2.255.936,3.214,2.591,3.214.42,0,.792-.072,1.103-.168v-2.111h-1.487v-1.067h2.735v3.682Z"/>
    </g>
  </g>
</svg>