<?xml version="1.0" encoding="UTF-8"?>
<svg xmlns="http://www.w3.org/2000/svg" version="1.1" viewBox="0 0 90.709 90.709">
  <!-- Generator: Adobe Illustrator 29.1.0, SVG Export Plug-In . SVG Version: 2.1.0 Build 142)  -->
  <g id="Grundfläche">
    <rect x="0" y="0" width="90.709" height="90.709" fill="none"/>
  </g>
  <g id="Flächige_Fülung">
    <rect x="2.834" y="17.008" width="85.04" height="56.693" fill="#fff"/>
  </g>
  <g id="Takt_Zeichen__x28_umgewandelt_x29_">
    <path d="M2.126,16.3v58.11h86.457V16.3H2.126ZM3.78,65.197L45.355,18.079l41.574,47.118H3.78ZM87.165,63.323L46.925,17.717h40.24v45.606ZM43.784,17.717L3.543,63.323V17.717h40.241ZM45.354,31.89c-8.206,0-14.882,6.676-14.882,14.882s6.676,14.881,14.882,14.881c5.646,0,10.737-3.143,13.286-8.203l.319-.633-12.027-6.045,12.027-6.046-.319-.633c-2.549-5.06-7.64-8.203-13.286-8.203ZM45.036,46.139v1.267l12.003,6.033c-2.399,4.211-6.814,6.798-11.685,6.798-7.424,0-13.464-6.04-13.464-13.464s6.04-13.465,13.464-13.465c4.871,0,9.286,2.587,11.685,6.798l-12.003,6.034Z"/>
    <path d="M63.779,9.921c0,2.348-1.904,4.252-4.252,4.252-2.348,0-4.252-1.904-4.252-4.252s1.904-4.252,4.252-4.252c2.348,0,4.252,1.904,4.252,4.252ZM31.181,5.669c-2.348,0-4.252,1.904-4.252,4.252s1.904,4.252,4.252,4.252c2.348,0,4.252-1.904,4.252-4.252s-1.904-4.252-4.252-4.252Z"/>
  </g>
  <g id="Takt._Zeichen__x28_Typo_x29_">
    <g>
      <path d="M9.353,30.161v.024h3.022v.995h-4.51l-.084-.803c2.603-2.794,3.202-3.466,3.202-4.713,0-.876-.408-1.379-1.247-1.379-.876,0-1.403.516-1.619.744l-.468-.852c.276-.288.983-.936,2.255-.936,1.499,0,2.327.875,2.327,2.267,0,1.583-.948,2.711-2.878,4.653Z"/>
      <path d="M18.039,24.453h-2.543l-.156,1.859c2.171.192,3.046,1.115,3.046,2.591,0,1.463-.971,2.422-2.662,2.422-1.283,0-1.859-.647-2.111-.887l.492-1.008c.24.276.792.84,1.583.84.936,0,1.439-.468,1.439-1.211,0-1.211-.875-1.739-2.998-1.775l.324-3.898h3.586v1.067Z"/>
      <path d="M22.036,31.325c-1.499,0-2.471-1.223-2.471-4.042,0-2.843,1.079-4.042,2.567-4.042,1.499,0,2.471,1.224,2.471,4.042,0,2.842-1.08,4.042-2.567,4.042ZM22.084,24.297c-.756,0-1.271.792-1.271,2.986,0,2.23.516,2.986,1.271,2.986s1.271-.756,1.271-2.986c0-2.195-.516-2.986-1.271-2.986Z"/>
    </g>
  </g>
</svg>