<?xml version="1.0" encoding="UTF-8"?>
<svg xmlns="http://www.w3.org/2000/svg" version="1.1" viewBox="0 0 90.709 90.709">
  <!-- Generator: Adobe Illustrator 29.1.0, SVG Export Plug-In . SVG Version: 2.1.0 Build 142)  -->
  <g id="Grundfläche">
    <rect x="0" y="0" width="90.709" height="90.709" fill="none"/>
  </g>
  <g id="Flächige_Fülung">
    <rect x="2.834" y="17.008" width="85.04" height="56.693" fill="#fff"/>
  </g>
  <g id="Takt_Zeichen__x28_umgewandelt_x29_">
    <path d="M2.125,74.41h86.457V16.3H2.125v58.11ZM3.543,46.063h41.103v26.93H3.543v-26.93ZM46.063,72.993v-26.93h19.842v10.63h1.417v-10.63h19.842v26.93h-41.102ZM87.165,44.646h-19.842v-10.63h-1.417v10.63h-19.842v-26.929h41.102v26.929ZM44.645,17.717v26.929H3.543v-26.929h41.103Z"/>
    <path d="M63.779,9.921c0,2.348-1.904,4.252-4.252,4.252-2.348,0-4.252-1.904-4.252-4.252s1.904-4.252,4.252-4.252c2.348,0,4.252,1.904,4.252,4.252ZM31.181,5.669c-2.348,0-4.252,1.904-4.252,4.252s1.904,4.252,4.252,4.252c2.348,0,4.252-1.904,4.252-4.252s-1.904-4.252-4.252-4.252Z"/>
  </g>
  <g id="Takt._Zeichen__x28_Typo_x29_">
    <g>
      <path d="M11.836,24.453c-.216-.168-.72-.563-1.5-.563-.863,0-1.271.384-1.271.875,0,.588.264.9,1.115,1.428l.804.491c1.043.648,1.631,1.319,1.631,2.387,0,1.212-.912,2.255-2.747,2.255-1.319,0-1.979-.54-2.254-.768l.443-1.139c.264.264.9.768,1.787.768.996,0,1.451-.444,1.451-.948,0-.636-.312-.959-1.091-1.475l-.815-.54c-1.116-.744-1.619-1.308-1.619-2.435,0-1.115.959-2.027,2.506-2.027,1.176,0,1.739.444,1.979.624l-.419,1.067Z"/>
      <path d="M18.771,23.973h-3.31v2.494h3.046v1.08h-3.046v2.567h3.67l-.084,1.067h-4.881v-8.275h4.689l-.084,1.067Z"/>
      <path d="M26.45,30.557c-.252.216-1.02.768-2.519.768-2.183,0-3.802-1.151-3.802-4.317,0-2.962,2.027-4.246,4.054-4.246,1.391,0,2.087.576,2.303.744l-.444,1.02c-.192-.168-.779-.66-1.823-.66-1.439,0-2.71.899-2.71,3.143,0,2.255.936,3.214,2.59,3.214.42,0,.792-.072,1.104-.168v-2.11h-1.487v-1.067h2.735v3.682Z"/>
    </g>
  </g>
</svg>