<?xml version="1.0" encoding="UTF-8"?>
<svg xmlns="http://www.w3.org/2000/svg" version="1.1" viewBox="0 0 90.709 90.709">
  <!-- Generator: Adobe Illustrator 29.1.0, SVG Export Plug-In . SVG Version: 2.1.0 Build 142)  -->
  <g id="Grundfläche">
    <rect x="0" width="90.709" height="90.709" fill="none"/>
  </g>
  <g id="Flächige_Fülung">
    <path d="M45.355,22.678c-17.008,0-31.181-2.582-42.52-6.378v57.402h85.04V16.3c-11.339,3.794-25.512,6.378-42.52,6.378Z" fill="#fff"/>
  </g>
  <g id="Takt_Zeichen__x28_umgewandelt_x29_">
    <path d="M84.313,74.41h4.27V15.315s-.934.312-.934.312c-12.575,4.208-26.805,6.341-42.295,6.341S15.628,19.835,3.059,15.628l-.934-.312v59.095h4.27c-1.728,1.293-2.853,3.35-2.853,5.669,0,3.908,3.179,7.086,7.087,7.086s7.087-3.179,7.087-7.086c0-2.319-1.125-4.375-2.852-5.669h60.98c-1.728,1.293-2.853,3.35-2.853,5.669,0,3.908,3.179,7.086,7.087,7.086s7.087-3.179,7.087-7.086c0-2.319-1.125-4.375-2.852-5.669ZM87.166,71.743L46.847,23.361c14.682-.131,28.241-2.163,40.319-6.082v54.464ZM43.862,23.361L3.543,71.743V17.28c12.072,3.919,25.632,5.95,40.319,6.081ZM16.299,80.079c0,3.126-2.543,5.669-5.669,5.669s-5.669-2.543-5.669-5.669,2.538-5.664,5.66-5.669h.019c3.121.005,5.659,2.546,5.659,5.669ZM4.347,72.993L45.354,23.784l41.008,49.209H4.347ZM80.078,85.748c-3.126,0-5.669-2.543-5.669-5.669s2.538-5.664,5.66-5.669h.019c3.121.005,5.659,2.546,5.659,5.669s-2.543,5.669-5.669,5.669Z"/>
  </g>
  <g id="Takt._Zeichen__x28_Typo_x29_">
    <g>
      <path d="M7.69,27.985v.018c.666.126,1.296.612,1.296,1.468,0,.999-.738,1.71-2.485,1.71h-1.468v-6.212h1.386c1.756,0,2.395.622,2.395,1.612,0,.882-.549,1.224-1.125,1.404ZM6.421,25.752h-.414v1.909h.405c.954,0,1.404-.378,1.404-1.026,0-.531-.396-.882-1.395-.882ZM6.556,28.444h-.549v1.944h.495c1.044,0,1.467-.342,1.467-.99,0-.612-.513-.954-1.413-.954Z"/>
      <path d="M14.081,25.77h-1.873v5.411h-.972v-5.411h-1.882v-.801h4.79l-.063.801Z"/>
      <path d="M17.168,28.003l2.395,3.178h-1.206l-1.98-2.728h-.504v2.728h-.972v-6.212h.972v2.674h.522l1.918-2.674h1.089l-2.233,3.034Z"/>
      <path d="M21.559,31.289c-1.08,0-1.918-.72-1.918-2.287,0-1.557.954-2.278,2.008-2.278,1.08,0,1.908.702,1.908,2.278,0,1.548-.954,2.287-1.999,2.287ZM21.604,27.517c-.585,0-1.026.45-1.026,1.485,0,1.044.441,1.495,1.026,1.495.594,0,1.017-.459,1.017-1.495,0-1.044-.441-1.485-1.017-1.485Z"/>
      <path d="M25.249,27.319h.018c.171-.207.567-.595,1.279-.595.513,0,.891.207,1.116.621.225-.252.657-.621,1.341-.621.972,0,1.468.585,1.468,1.738v2.719h-.909v-2.575c0-.766-.27-1.089-.819-1.089-.432,0-.72.225-.891.387.027.171.045.36.045.558v2.719h-.909v-2.575c0-.766-.216-1.089-.711-1.089-.486,0-.792.225-.954.396v3.268h-.918v-4.348h.846v.486Z"/>
      <path d="M32.989,31.271c-.81,0-1.233-.252-1.503-.433v-6.014l.918-.072v2.467h.018c.198-.216.603-.495,1.251-.495.936,0,1.567.738,1.567,2.089,0,1.792-.99,2.458-2.251,2.458ZM33.295,27.517c-.432,0-.729.216-.891.378v2.466c.108.072.261.162.567.162.819,0,1.323-.414,1.323-1.593,0-.963-.387-1.414-1-1.414Z"/>
      <path d="M36.553,25.924c-.333,0-.576-.226-.576-.576,0-.36.243-.585.576-.585s.585.225.585.585c0,.351-.252.576-.585.576ZM37.012,31.181h-.918v-4.348h.918v4.348Z"/>
    </g>
  </g>
</svg>