<?xml version="1.0" encoding="UTF-8"?>
<svg xmlns="http://www.w3.org/2000/svg" version="1.1" viewBox="0 0 90.709 90.709">
  <!-- Generator: Adobe Illustrator 29.1.0, SVG Export Plug-In . SVG Version: 2.1.0 Build 142)  -->
  <g id="Grundfläche">
    <rect x="0" y="0" width="90.709" height="90.709" fill="none"/>
  </g>
  <g id="Flächige_Fülung">
    <path d="M45.355,22.678c-17.008,0-31.181-2.582-42.52-6.378v57.402h85.04V16.3c-11.339,3.794-25.512,6.378-42.52,6.378Z" fill="#fff"/>
  </g>
  <g id="Takt_Zeichen__x28_umgewandelt_x29_">
    <g>
      <polygon points="44.646 25.087 46.063 25.087 46.063 23.386 45.354 23.386 44.646 23.386 44.646 25.087"/>
      <path d="M84.313,74.41h4.27V15.315s-.934.312-.934.312c-12.575,4.208-26.805,6.341-42.295,6.341S15.628,19.835,3.059,15.628l-.934-.312v59.095h4.27c-1.727,1.293-2.852,3.35-2.852,5.669,0,3.908,3.179,7.086,7.087,7.086s7.087-3.179,7.087-7.086c0-2.319-1.125-4.375-2.852-5.669h60.98c-1.727,1.293-2.852,3.35-2.852,5.669,0,3.908,3.179,7.086,7.087,7.086s7.087-3.179,7.087-7.086c0-2.319-1.125-4.375-2.852-5.669ZM45.354,23.386c15.261,0,29.322-2.054,41.811-6.107v27.367s-41.103,0-41.103,0v-9.921h-1.417v9.921H3.543v-27.366c12.483,4.052,26.544,6.106,41.811,6.106ZM16.299,80.079c0,3.126-2.543,5.669-5.669,5.669s-5.669-2.543-5.669-5.669,2.538-5.664,5.66-5.669h.019c3.122.005,5.66,2.546,5.66,5.669ZM3.543,72.993v-26.93h41.102v26.93H3.543ZM46.063,72.993v-26.93h41.103v26.93s-41.103,0-41.103,0ZM80.078,85.748c-3.126,0-5.669-2.543-5.669-5.669s2.538-5.664,5.66-5.669h.019c3.122.005,5.66,2.546,5.66,5.669s-2.543,5.669-5.669,5.669Z"/>
    </g>
  </g>
  <g id="Takt._Zeichen__x28_Typo_x29_">
    <g>
      <path d="M14.426,35.433h-1.151l-3.826-5.841h-.024v5.841h-1.295v-8.275h1.164l3.814,5.805h.024v-5.805h1.295v8.275Z"/>
      <path d="M19.504,32.255h-3.286v-.983h3.286v.983Z"/>
      <path d="M24.316,31.199l3.19,4.233h-1.607l-2.639-3.634h-.672v3.634h-1.295v-8.275h1.295v3.562h.696l2.554-3.562h1.451l-2.974,4.042Z"/>
      <path d="M34.142,28.225h-2.494v7.208h-1.295v-7.208h-2.506v-1.067h6.38l-.084,1.067Z"/>
      <path d="M42.758,35.433h-1.104l-1.811-6.165h-.024l-1.823,6.165h-1.091l-2.243-8.275h1.392l1.463,6.213h.024l1.751-6.213h1.223l1.691,6.213h.024l1.5-6.213h1.307l-2.278,8.275Z"/>
      <path d="M52.155,31.175v.024c.887.168,1.727.815,1.727,1.955,0,1.332-.983,2.279-3.311,2.279h-1.955v-8.275h1.847c2.339,0,3.19.827,3.19,2.146,0,1.176-.731,1.631-1.499,1.871ZM50.465,28.201h-.552v2.542h.54c1.271,0,1.871-.504,1.871-1.367,0-.708-.527-1.175-1.858-1.175ZM50.644,31.787h-.731v2.59h.659c1.392,0,1.955-.456,1.955-1.319,0-.815-.684-1.271-1.883-1.271Z"/>
    </g>
  </g>
</svg>