<?xml version="1.0" encoding="UTF-8"?>
<svg xmlns="http://www.w3.org/2000/svg" version="1.1" viewBox="0 0 90.709 90.709">
  <!-- Generator: Adobe Illustrator 29.1.0, SVG Export Plug-In . SVG Version: 2.1.0 Build 142)  -->
  <g id="Grundfläche">
    <rect x="0" y="0" width="90.709" height="90.709" fill="none"/>
  </g>
  <g id="Flächige_Fülung">
    <circle cx="45.356" cy="45.354" r="34.016" fill="#fff"/>
  </g>
  <g id="Takt_Zeichen__x28_umgewandelt_x29_">
    <path d="M45.355,10.63c-19.147,0-34.724,15.577-34.724,34.724s15.577,34.725,34.724,34.725,34.725-15.577,34.725-34.725S64.503,10.63,45.355,10.63ZM78.645,44.646h-32.582V12.065c17.803.375,32.207,14.778,32.582,32.581ZM44.646,12.065v32.581H12.067c.375-17.802,14.778-32.206,32.579-32.581ZM12.067,46.063h32.579v32.581c-17.801-.375-32.204-14.779-32.579-32.581ZM46.063,78.644v-32.581h32.582c-.375,17.802-14.779,32.207-32.582,32.581Z"/>
  </g>
  <g id="Takt._Zeichen__x28_Typo_x29_">
    <g>
      <path d="M10.066,10.732c0,2.387-1.055,3.586-3.166,3.586s-3.094-1.08-3.094-3.586v-4.833h1.295v4.87c0,1.715.624,2.447,1.859,2.447,1.271,0,1.859-.696,1.859-2.447v-4.87h1.247v4.833Z"/>
      <path d="M18.43,14.174h-1.295v-3.634h-3.754v3.634h-1.295V5.899h1.295v3.562h3.754v-3.562h1.295v8.275Z"/>
      <path d="M24.227,7.446c-.216-.168-.719-.564-1.499-.564-.864,0-1.271.384-1.271.876,0,.587.264.899,1.115,1.427l.804.492c1.043.647,1.631,1.319,1.631,2.387,0,1.211-.912,2.254-2.747,2.254-1.319,0-1.979-.54-2.255-.768l.444-1.139c.264.264.899.768,1.787.768.995,0,1.451-.444,1.451-.947,0-.636-.312-.96-1.091-1.476l-.816-.54c-1.115-.744-1.619-1.307-1.619-2.435,0-1.115.959-2.026,2.507-2.026,1.175,0,1.739.443,1.979.624l-.42,1.067Z"/>
    </g>
  </g>
</svg>