<?xml version="1.0" encoding="UTF-8"?>
<svg xmlns="http://www.w3.org/2000/svg" version="1.1" viewBox="0 0 90.709 90.709">
  <!-- Generator: Adobe Illustrator 29.1.0, SVG Export Plug-In . SVG Version: 2.1.0 Build 142)  -->
  <g id="Grundfläche">
    <rect x="0" y="0" width="90.709" height="90.709" fill="none"/>
  </g>
  <g id="Flächige_Fülung">
    <circle cx="45.356" cy="45.354" r="34.016" fill="#fff"/>
  </g>
  <g id="Takt_Zeichen__x28_umgewandelt_x29_">
    <path d="M45.356,10.63c-19.147,0-34.724,15.577-34.724,34.724s15.577,34.725,34.724,34.725,34.725-15.577,34.725-34.725S64.503,10.63,45.356,10.63ZM12.049,45.354c0-18.128,14.559-32.909,32.597-33.29v18.408h-17.442l5.877-5.877-1.002-1.002-7.588,7.588,7.588,7.587,1.002-1.002-5.877-5.877h17.442v30.047l-19.06,10.203c-8.205-6.073-13.537-15.817-13.537-26.786ZM26.883,73.054l18.471-9.888,18.472,9.888c-5.29,3.539-11.643,5.608-18.471,5.608s-13.182-2.069-18.472-5.608ZM65.124,72.14l-19.061-10.203v-30.047h17.442l-5.877,5.877,1.002,1.002,7.588-7.587-7.588-7.588-1.002,1.002,5.877,5.877h-17.442V12.065c18.039.379,32.6,15.161,32.6,33.29,0,10.969-5.332,20.714-13.539,26.786Z"/>
  </g>
</svg>