<?xml version="1.0" encoding="UTF-8"?>
<svg xmlns="http://www.w3.org/2000/svg" version="1.1" viewBox="0 0 90.709 90.709">
  <!-- Generator: Adobe Illustrator 29.1.0, SVG Export Plug-In . SVG Version: 2.1.0 Build 142)  -->
  <g id="Grundfläche">
    <rect x="0" y="0" width="90.709" height="90.709" fill="none"/>
  </g>
  <g id="Flächige_Fülung">
    <circle cx="45.356" cy="45.354" r="34.016" fill="#fff"/>
  </g>
  <g id="Takt_Zeichen__x28_umgewandelt_x29_">
    <path d="M45.355,10.63c-19.147,0-34.724,15.577-34.724,34.724s15.577,34.725,34.724,34.725,34.725-15.577,34.725-34.725S64.503,10.63,45.355,10.63ZM78.645,44.646h-32.582v-15.591h14.607l-5.877,5.877,1.002,1.002,7.588-7.588-7.588-7.587-1.002,1.002,5.877,5.877h-14.607v-15.573c17.803.375,32.207,14.778,32.582,32.581ZM44.646,12.065v15.573h-14.607l5.877-5.877-1.002-1.002-7.588,7.587,7.588,7.588,1.002-1.002-5.877-5.877h14.607v15.591H12.067c.375-17.802,14.778-32.206,32.579-32.581ZM12.067,46.063h32.579v32.581c-17.801-.375-32.204-14.779-32.579-32.581ZM46.063,78.644v-32.581h32.582c-.375,17.802-14.779,32.207-32.582,32.581Z"/>
  </g>
</svg>