<?xml version="1.0" encoding="UTF-8"?>
<svg xmlns="http://www.w3.org/2000/svg" version="1.1" viewBox="0 0 90.709 90.709">
  <!-- Generator: Adobe Illustrator 29.1.0, SVG Export Plug-In . SVG Version: 2.1.0 Build 142)  -->
  <g id="Grundfläche">
    <rect x="0" y="0" width="90.709" height="90.709" fill="none"/>
  </g>
  <g id="Flächige_Fülung">
    <circle cx="45.356" cy="45.354" r="34.016" fill="#fff"/>
  </g>
  <g id="Takt_Zeichen__x28_umgewandelt_x29_">
    <path d="M68.74,26.221h-.994l-.133.056c-4.783,2.028-13.143,4.196-22.259,4.196s-17.476-2.168-22.258-4.196l-.133-.056h-.995v28.346h46.771v-28.346ZM67.323,40.394h-21.26v-8.514c8.541-.103,16.381-2.03,21.26-3.954v12.468ZM44.646,31.88v8.514h-21.26v-12.468c4.879,1.923,12.719,3.851,21.26,3.954ZM23.385,41.811h21.26v11.339h-21.26v-11.339ZM46.063,53.15v-11.339h21.26v11.339h-21.26ZM45.356,10.63c-19.147,0-34.724,15.577-34.724,34.724s15.577,34.725,34.724,34.725,34.724-15.577,34.724-34.725S64.503,10.63,45.356,10.63ZM45.356,78.662c-18.366,0-33.307-14.942-33.307-33.308S26.99,12.047,45.356,12.047s33.307,14.941,33.307,33.307-14.941,33.308-33.307,33.308ZM69.034,62.362l-6.171,6.17-1.002-1.002,4.459-4.46H24.388l4.46,4.46-1.002,1.002-6.171-6.17,6.171-6.17,1.002,1.002-4.46,4.459h41.933l-4.459-4.459,1.002-1.002,6.171,6.17Z"/>
  </g>
</svg>