<?xml version="1.0" encoding="UTF-8"?>
<svg xmlns="http://www.w3.org/2000/svg" version="1.1" viewBox="0 0 90.709 90.709">
  <!-- Generator: Adobe Illustrator 29.1.0, SVG Export Plug-In . SVG Version: 2.1.0 Build 142)  -->
  <g id="Grundfläche">
    <rect x="0" width="90.709" height="90.709" fill="none"/>
  </g>
  <g id="Flächige_Fülung">
    <rect x="2.834" y="17.008" width="85.04" height="56.693" fill="#fa1919"/>
  </g>
  <g id="Takt_Zeichen__x28_umgewandelt_x29_">
    <path d="M2.125,74.409h86.457V16.299H2.125v58.11ZM5.175,72.992l45.194-30.129,10.074,10.079,1.002-1.002-9.874-9.879,35.593-23.729v54.66H5.175ZM85.534,17.716l-34.984,23.323-4.194-4.196,8.546-8.551c0,.019-.006.036-.006.054,0,2.735,2.225,4.96,4.961,4.96s4.961-2.225,4.961-4.96-2.225-4.96-4.961-4.96c-1.368,0-2.608.556-3.506,1.455l-10.997,11-10.996-11.001s-2.14-1.453-3.508-1.453c-2.735,0-4.961,2.225-4.961,4.96s2.225,4.96,4.961,4.96,4.961-2.225,4.961-4.96c0-.019-.005-.036-.005-.054l8.546,8.551-15.09,15.097,1.002,1.002,15.089-15.097,3.993,3.995L3.543,72.377V17.716h81.991Z"/>
    <circle cx="45.354" cy="9.921" r="4.252"/>
    <circle cx="59.528" cy="9.921" r="4.252"/>
    <path d="M31.181,14.173c2.348,0,4.252-1.904,4.252-4.252s-1.904-4.252-4.252-4.252-4.252,1.904-4.252,4.252,1.904,4.252,4.252,4.252Z"/>
  </g>
  <g id="Takt._Zeichen__x28_Typo_x29_">
    <g>
      <path d="M38.726,68.031l-1.38-4.101h-4.621l-1.38,4.101h-2.201l5.141-13.803h1.7l5.121,13.803h-2.38ZM35.066,57.029h-.04l-1.78,5.301h3.601l-1.78-5.301Z"/>
      <path d="M51.007,56.009h-4.161v12.022h-2.16v-12.022h-4.181v-1.78h10.642l-.14,1.78Z"/>
      <path d="M53.225,68.031v-13.803h7.822l-.14,1.78h-5.521v4.561h5.101v1.781h-5.101v5.681h-2.16Z"/>
    </g>
  </g>
</svg>