<?xml version="1.0" encoding="UTF-8"?>
<svg xmlns="http://www.w3.org/2000/svg" version="1.1" viewBox="0 0 90.709 90.709">
  <!-- Generator: Adobe Illustrator 29.1.0, SVG Export Plug-In . SVG Version: 2.1.0 Build 142)  -->
  <g id="Grundfläche">
    <rect x="0" width="90.709" height="90.709" fill="none"/>
  </g>
  <g id="Flächige_Fülung">
    <rect x="2.834" y="17.008" width="85.04" height="56.693" fill="#fa1919"/>
  </g>
  <g id="Takt_Zeichen__x28_umgewandelt_x29_">
    <path d="M2.125,74.409h86.457V16.299H2.125v58.11ZM3.543,17.716h83.622v55.276H3.543V17.716ZM69.653,34.016c0,3.517-2.861,6.377-6.378,6.377s-6.378-2.861-6.378-6.377c0-.227.013-.451.036-.672l-10.577,10.583,17.924,17.935-1.002,1.002-17.924-17.934-17.924,17.934-1.002-1.002,17.925-17.935-10.577-10.583c.023.221.036.445.036.672,0,3.517-2.861,6.377-6.378,6.377s-6.378-2.861-6.378-6.377,2.861-6.378,6.378-6.378c1.759,0,4.51,1.868,4.51,1.868l13.411,13.418,13.413-13.416c1.155-1.155,2.75-1.87,4.508-1.87,3.517,0,6.378,2.861,6.378,6.378Z"/>
    <path d="M45.354,14.173c2.348,0,4.252-1.904,4.252-4.252s-1.904-4.252-4.252-4.252-4.252,1.904-4.252,4.252,1.904,4.252,4.252,4.252Z"/>
    <path d="M59.528,14.173c2.348,0,4.252-1.904,4.252-4.252s-1.904-4.252-4.252-4.252-4.252,1.904-4.252,4.252,1.904,4.252,4.252,4.252Z"/>
    <circle cx="31.181" cy="9.921" r="4.252"/>
  </g>
</svg>