<?xml version="1.0" encoding="UTF-8"?>
<svg xmlns="http://www.w3.org/2000/svg" version="1.1" viewBox="0 0 90.709 90.709">
  <!-- Generator: Adobe Illustrator 29.1.0, SVG Export Plug-In . SVG Version: 2.1.0 Build 142)  -->
  <g id="Grundfläche">
    <rect x="0" width="90.709" height="90.709" fill="none"/>
  </g>
  <g id="Flächige_Fülung">
    <rect x="2.835" y="17.008" width="85.04" height="56.693" fill="#fa1919"/>
  </g>
  <g id="Takt_Zeichen__x28_umgewandelt_x29_">
    <path d="M2.126,74.409h86.457V16.299H2.126v58.11ZM3.543,46.063h55.691l26.929,26.93H3.543v-26.93ZM61.238,46.063h25.927v25.927l-25.927-25.927ZM87.165,44.646h-25.927l25.927-25.927v25.927ZM86.163,17.716l-26.929,26.929H3.543v-26.929h82.62Z"/>
    <circle cx="59.528" cy="9.921" r="4.252"/>
    <path d="M31.181,14.173c2.348,0,4.252-1.904,4.252-4.252s-1.904-4.252-4.252-4.252-4.252,1.904-4.252,4.252,1.904,4.252,4.252,4.252Z"/>
  </g>
</svg>