<?xml version="1.0" encoding="UTF-8"?>
<svg xmlns="http://www.w3.org/2000/svg" version="1.1" viewBox="0 0 90.709 90.709">
  <!-- Generator: Adobe Illustrator 29.1.0, SVG Export Plug-In . SVG Version: 2.1.0 Build 142)  -->
  <g id="Grundfläche">
    <rect x="0" width="90.709" height="90.709" fill="none"/>
  </g>
  <g id="Flächige_Fülung">
    <rect x="2.834" y="25.512" width="85.04" height="56.693" fill="#fa1919"/>
  </g>
  <g id="Takt_Zeichen__x28_umgewandelt_x29_">
    <path d="M2.126,82.913h86.457V24.803H2.126v58.11ZM3.543,26.22h83.622v55.276H3.543V26.22ZM69.653,39.685c0,3.517-2.861,6.378-6.378,6.378s-6.378-2.861-6.378-6.378c0-.227.013-.451.036-.672l-10.577,10.583,19.549,19.559v-9.627h1.417v12.047h-12.047v-1.417h9.629l-19.55-19.56-19.55,19.56h9.629v1.417h-12.047v-12.047h1.417v9.627l19.549-19.559-10.577-10.582c.023.221.036.445.036.672,0,3.517-2.861,6.378-6.378,6.378s-6.378-2.861-6.378-6.378,2.861-6.377,6.378-6.377c1.758,0,4.51,1.868,4.51,1.868l13.411,13.418,13.413-13.415c1.155-1.155,2.749-1.87,4.508-1.87,3.517,0,6.378,2.861,6.378,6.377Z"/>
    <path d="M45.354,11.338c2.348,0,4.252-1.904,4.252-4.252s-1.904-4.252-4.252-4.252-4.252,1.904-4.252,4.252,1.904,4.252,4.252,4.252Z"/>
    <circle cx="45.354" cy="18.425" r="4.252"/>
  </g>
  <g id="Takt._Zeichen__x28_Typo_x29_">
    <path d="M44.535,68.979h-.98v4.721h-2.16v-13.803h3.24c3.941,0,5.701,1.581,5.701,4.341,0,2.901-1.94,4.741-5.801,4.741ZM44.635,61.678h-1.08v5.501h.98c2.42,0,3.521-1.04,3.521-2.861,0-1.72-1.06-2.64-3.421-2.64Z"/>
  </g>
</svg>