<?xml version="1.0" encoding="UTF-8"?>
<svg xmlns="http://www.w3.org/2000/svg" version="1.1" viewBox="0 0 90.709 90.709">
  <!-- Generator: Adobe Illustrator 29.1.0, SVG Export Plug-In . SVG Version: 2.1.0 Build 142)  -->
  <g id="Grundfläche">
    <rect x="0" y="0" width="90.709" height="90.709" fill="none"/>
  </g>
  <g id="Flächige_Fülung">
    <path d="M45.355,22.678c-17.008,0-31.181-2.582-42.52-6.378v57.402h85.04V16.3c-11.339,3.794-25.512,6.378-42.52,6.378Z" fill="#fa1919"/>
  </g>
  <g id="Takt_Zeichen__x28_umgewandelt_x29_">
    <path d="M88.583,15.316l-.934.312c-12.575,4.208-26.805,6.341-42.295,6.341S15.629,19.836,3.06,15.628l-.934-.312v59.095h4.268c-1.727,1.294-2.852,3.349-2.852,5.668,0,3.908,3.179,7.086,7.087,7.086s7.087-3.179,7.087-7.086c0-2.319-1.125-4.375-2.852-5.668h26.255c-1.727,1.294-2.852,3.349-2.852,5.668,0,3.908,3.179,7.086,7.087,7.086s7.087-3.179,7.087-7.086c0-2.319-1.125-4.375-2.852-5.668h26.255c-1.727,1.294-2.852,3.349-2.852,5.668,0,3.908,3.179,7.086,7.087,7.086s7.087-3.179,7.087-7.086c0-2.319-1.125-4.375-2.852-5.668h4.27V15.316ZM87.166,71.99l-25.928-25.928h25.928v25.928ZM87.166,44.646h-25.928l25.927-25.927v25.927ZM45.355,23.386c14.937,0,28.714-1.981,41.003-5.865l-27.124,27.124H3.544v-27.366c12.483,4.052,26.544,6.106,41.811,6.106ZM16.299,80.079c0,3.126-2.543,5.669-5.669,5.669s-5.669-2.543-5.669-5.669,2.533-5.658,5.65-5.668h.039c3.117.011,5.65,2.549,5.65,5.668ZM51.023,80.079c0,3.126-2.543,5.669-5.669,5.669s-5.669-2.543-5.669-5.669,2.533-5.658,5.65-5.668h.039c3.117.011,5.65,2.549,5.65,5.668ZM85.748,80.079c0,3.126-2.543,5.669-5.669,5.669s-5.669-2.543-5.669-5.669,2.533-5.658,5.65-5.668h.039c3.117.011,5.65,2.549,5.65,5.668ZM3.544,72.993v-26.931h55.69l26.931,26.931H3.544Z"/>
  </g>
  <g id="Takt._Zeichen__x28_Typo_x29_">
    <g>
      <path d="M9.425,25.74v7.208h3.406l-.084,1.067h-4.617v-8.275h1.295Z"/>
      <path d="M14.094,34.016v-8.275h4.689l-.084,1.067h-3.31v2.734h3.058v1.068h-3.058v3.406h-1.295Z"/>
      <path d="M24.077,32.996v.024h3.022v.995h-4.51l-.084-.803c2.603-2.794,3.202-3.466,3.202-4.713,0-.876-.408-1.379-1.247-1.379-.876,0-1.403.516-1.619.744l-.468-.852c.276-.288.983-.936,2.255-.936,1.499,0,2.327.875,2.327,2.267,0,1.583-.948,2.711-2.878,4.653Z"/>
      <path d="M30.76,34.16c-1.499,0-2.471-1.223-2.471-4.042,0-2.843,1.079-4.042,2.567-4.042,1.499,0,2.471,1.224,2.471,4.042,0,2.842-1.08,4.042-2.567,4.042ZM30.808,27.132c-.756,0-1.271.792-1.271,2.986,0,2.23.516,2.986,1.271,2.986s1.271-.756,1.271-2.986c0-2.195-.516-2.986-1.271-2.986Z"/>
      <path d="M40.491,29.782l3.19,4.233h-1.607l-2.639-3.634h-.672v3.634h-1.295v-8.275h1.295v3.562h.696l2.554-3.562h1.451l-2.974,4.042Z"/>
      <path d="M46.888,30.73h.372v-.336c0-.887-.372-1.271-1.08-1.271-.696,0-1.175.348-1.403.54l-.408-.827c.288-.252.924-.756,2.051-.756,1.319,0,2.027.744,2.027,2.339v2.23c0,.576.048,1.115.084,1.367h-1.139c-.012-.168-.036-.384-.036-.636h-.024c-.204.336-.635.78-1.511.78-.948,0-1.595-.684-1.595-1.691,0-1.199,1.163-1.739,2.663-1.739ZM47.26,32.697v-1.175l-.444.023c-.948.048-1.415.276-1.415.828,0,.491.336.803.732.803.612,0,.936-.264,1.127-.48Z"/>
      <path d="M52.996,29.219h-1.415v2.698c0,.875.228,1.188.816,1.188.3,0,.54-.096.648-.144l.108.936c-.108.06-.444.251-1.067.251-1.211,0-1.727-.623-1.727-2.099v-2.83h-.792v-.84l.792-.144.144-1.619h1.079v1.607h1.547l-.132.996Z"/>
      <path d="M58.191,27.288c-.216-.168-.72-.564-1.499-.564-.864,0-1.271.384-1.271.876,0,.587.264.899,1.115,1.427l.804.492c1.043.647,1.631,1.319,1.631,2.387,0,1.211-.912,2.254-2.747,2.254-1.319,0-1.979-.54-2.255-.768l.444-1.139c.264.264.9.768,1.787.768.995,0,1.451-.444,1.451-.947,0-.636-.312-.96-1.092-1.476l-.815-.54c-1.115-.744-1.619-1.307-1.619-2.435,0-1.115.959-2.026,2.507-2.026,1.176,0,1.739.443,1.979.624l-.42,1.067Z"/>
    </g>
  </g>
</svg>