<?xml version="1.0" encoding="UTF-8"?>
<svg xmlns="http://www.w3.org/2000/svg" version="1.1" viewBox="0 0 90.709 90.709">
  <!-- Generator: Adobe Illustrator 29.1.0, SVG Export Plug-In . SVG Version: 2.1.0 Build 142)  -->
  <g id="Grundfläche">
    <rect x="0" width="90.709" height="90.709" fill="none"/>
  </g>
  <g id="Flächige_Fülung">
    <path d="M45.355,22.678c-17.008,0-31.181-2.582-42.52-6.378v57.402h85.04V16.3c-11.339,3.794-25.512,6.378-42.52,6.378Z" fill="#fa1919"/>
  </g>
  <g id="Takt_Zeichen__x28_umgewandelt_x29_">
    <path d="M67.53,47.273l7.294,7.294H23.314c-.347-2.398-2.397-4.252-4.889-4.252-2.735,0-4.961,2.225-4.961,4.96s2.225,4.96,4.961,4.96c2.493,0,4.542-1.854,4.889-4.252h51.51l-7.294,7.294,1.002,1.002,9.005-9.005-9.005-9.005-1.002,1.002ZM18.425,58.819c-1.954,0-3.543-1.59-3.543-3.543s1.589-3.543,3.543-3.543,3.543,1.59,3.543,3.543-1.59,3.543-3.543,3.543ZM14.49,43.153l-.634-1.268c2.016-1.008,3.3-2.425,4.541-3.795,2.13-2.352,4.333-4.783,9.949-4.783,4.545,0,6.812,2.267,9.005,4.459,2.08,2.08,4.045,4.045,8.005,4.045s5.925-1.965,8.005-4.045c2.193-2.192,4.46-4.459,9.005-4.459,5.616,0,7.819,2.432,9.949,4.783,1.241,1.37,2.525,2.788,4.541,3.795l-.634,1.268c-2.254-1.126-3.628-2.644-4.958-4.112-2.099-2.316-3.911-4.317-8.899-4.317-3.958,0-5.923,1.964-8.003,4.044-2.193,2.192-4.46,4.459-9.007,4.459s-6.814-2.267-9.007-4.46c-2.08-2.08-4.044-4.044-8.003-4.044-4.988,0-6.8,2.001-8.899,4.317-1.329,1.468-2.704,2.985-4.958,4.112ZM84.313,74.41h4.27V15.316s-.934.312-.934.312c-12.575,4.208-26.805,6.341-42.295,6.341S15.629,19.836,3.06,15.628l-.934-.312v59.095h4.268c-1.727,1.294-2.852,3.349-2.852,5.668,0,3.908,3.179,7.086,7.087,7.086s7.087-3.179,7.087-7.086c0-2.319-1.125-4.375-2.852-5.668h26.255c-1.727,1.293-2.852,3.349-2.852,5.668,0,3.908,3.179,7.086,7.087,7.086s7.087-3.179,7.087-7.086c0-2.319-1.125-4.375-2.852-5.668h26.255c-1.727,1.294-2.852,3.349-2.852,5.668,0,3.908,3.179,7.086,7.087,7.086s7.087-3.179,7.087-7.086c0-2.319-1.125-4.375-2.852-5.668ZM16.299,80.079c0,3.126-2.543,5.669-5.669,5.669s-5.669-2.543-5.669-5.669,2.533-5.658,5.65-5.668h.039c3.117.011,5.65,2.549,5.65,5.668ZM51.023,80.079c0,3.126-2.543,5.669-5.669,5.669s-5.669-2.543-5.669-5.669,2.534-5.658,5.651-5.668h.036c3.118.01,5.651,2.549,5.651,5.668ZM3.544,72.993V17.28c12.483,4.052,26.544,6.106,41.811,6.106s29.322-2.054,41.811-6.107v55.714s-83.622,0-83.622,0ZM80.078,85.748c-3.126,0-5.669-2.543-5.669-5.669s2.533-5.658,5.65-5.668h.039c3.117.011,5.65,2.549,5.65,5.668s-2.543,5.669-5.669,5.669Z"/>
  </g>
</svg>