<?xml version="1.0" encoding="UTF-8"?>
<svg xmlns="http://www.w3.org/2000/svg" version="1.1" viewBox="0 0 90.709 90.709">
  <!-- Generator: Adobe Illustrator 29.1.0, SVG Export Plug-In . SVG Version: 2.1.0 Build 142)  -->
  <g id="Grundfläche">
    <rect x="0" y="0" width="90.709" height="90.709" fill="none"/>
  </g>
  <g id="Flächige_Fülung">
    <path d="M45.355,22.678c-17.008,0-31.181-2.582-42.52-6.378v57.402h85.04V16.3c-11.339,3.794-25.512,6.378-42.52,6.378Z" fill="#fa1919"/>
  </g>
  <g id="Takt_Zeichen__x28_umgewandelt_x29_">
    <path d="M88.583,15.316l-.934.312c-12.575,4.208-26.805,6.341-42.295,6.341S15.629,19.836,3.06,15.628l-.934-.312v59.095h4.268c-1.727,1.294-2.852,3.349-2.852,5.668,0,3.908,3.179,7.086,7.087,7.086s7.087-3.179,7.087-7.086c0-2.319-1.125-4.375-2.852-5.668h60.979c-1.727,1.294-2.852,3.349-2.852,5.668,0,3.908,3.179,7.086,7.087,7.086s7.087-3.179,7.087-7.086c0-2.319-1.125-4.375-2.852-5.668h4.27V15.316ZM87.166,71.99l-25.928-25.928h25.928v25.928ZM87.166,44.646h-25.928l25.927-25.927v25.927ZM45.355,23.386c14.937,0,28.714-1.981,41.003-5.865l-27.124,27.124H3.544v-27.366c12.483,4.052,26.544,6.106,41.811,6.106ZM16.299,80.079c0,3.126-2.543,5.669-5.669,5.669s-5.669-2.543-5.669-5.669,2.533-5.658,5.65-5.668h.039c3.117.011,5.65,2.549,5.65,5.668ZM85.748,80.079c0,3.126-2.543,5.669-5.669,5.669s-5.669-2.543-5.669-5.669,2.533-5.658,5.65-5.668h.039c3.117.011,5.65,2.549,5.65,5.668ZM3.544,72.993v-26.931h55.69l26.931,26.931H3.544Z"/>
  </g>
  <g id="Takt._Zeichen__x28_Typo_x29_">
    <g>
      <path d="M13.635,28.225h-2.495v7.208h-1.295v-7.208h-2.507v-1.067h6.38l-.084,1.067Z"/>
      <path d="M18.676,28.705c-.216-.168-.72-.564-1.499-.564-.864,0-1.271.384-1.271.876,0,.587.264.899,1.115,1.427l.804.492c1.043.647,1.631,1.319,1.631,2.387,0,1.211-.912,2.254-2.747,2.254-1.319,0-1.979-.54-2.255-.768l.444-1.139c.264.264.9.768,1.787.768.995,0,1.451-.444,1.451-.947,0-.636-.312-.96-1.092-1.476l-.815-.54c-1.115-.744-1.619-1.307-1.619-2.435,0-1.115.959-2.026,2.507-2.026,1.176,0,1.739.443,1.979.624l-.42,1.067Z"/>
      <path d="M21.005,35.433v-8.275h4.689l-.084,1.067h-3.31v2.734h3.058v1.068h-3.058v3.406h-1.295Z"/>
      <path d="M30.136,32.255h-3.286v-.983h3.286v.983Z"/>
      <path d="M39.002,35.433h-1.104l-1.811-6.164h-.024l-1.823,6.164h-1.091l-2.243-8.275h1.391l1.463,6.213h.024l1.751-6.213h1.223l1.691,6.213h.024l1.499-6.213h1.307l-2.279,8.275Z"/>
    </g>
  </g>
</svg>