<?xml version="1.0" encoding="UTF-8"?>
<svg xmlns="http://www.w3.org/2000/svg" version="1.1" viewBox="0 0 90.709 90.709">
  <!-- Generator: Adobe Illustrator 29.1.0, SVG Export Plug-In . SVG Version: 2.1.0 Build 142)  -->
  <g id="Grundfläche">
    <rect x="0" width="90.709" height="90.709" fill="none"/>
  </g>
  <g id="Flächige_Fülung">
    <path d="M45.355,22.678c-17.008,0-31.181-2.582-42.52-6.378v57.402h85.04V16.3c-11.339,3.794-25.512,6.378-42.52,6.378Z" fill="#fa1919"/>
  </g>
  <g id="Takt_Zeichen__x28_umgewandelt_x29_">
    <path d="M45.354,31.89c-8.988,0-16.299,7.312-16.299,16.299s7.312,16.299,16.299,16.299,16.299-7.312,16.299-16.299-7.312-16.299-16.299-16.299ZM46.063,33.343c3.568.169,6.804,1.594,9.284,3.851l-9.284,9.284v-13.135ZM44.646,46.478l-9.284-9.284c2.48-2.256,5.716-3.681,9.284-3.851v13.135ZM43.644,47.481h-13.135c.169-3.568,1.594-6.804,3.851-9.285l9.285,9.285ZM43.643,48.898l-9.284,9.284c-2.256-2.48-3.681-5.717-3.851-9.284h13.135ZM44.646,49.9v13.135c-3.568-.169-6.804-1.594-9.284-3.851l9.284-9.285ZM46.063,49.9l9.284,9.285c-2.48,2.256-5.717,3.681-9.284,3.851v-13.135ZM47.065,48.898h13.135c-.169,3.568-1.594,6.804-3.851,9.284l-9.284-9.284ZM47.065,47.481l9.285-9.285c2.256,2.48,3.681,5.717,3.851,9.285h-13.135ZM84.313,74.41h4.27V15.316s-.934.312-.934.312c-12.575,4.208-26.805,6.341-42.295,6.341S15.629,19.836,3.06,15.628l-.934-.312v59.095h4.268c-1.727,1.294-2.852,3.349-2.852,5.668,0,3.908,3.179,7.086,7.087,7.086s7.087-3.179,7.087-7.086c0-2.319-1.125-4.375-2.852-5.668h60.979c-1.727,1.294-2.852,3.349-2.852,5.668,0,3.908,3.179,7.086,7.087,7.086s7.087-3.179,7.087-7.086c0-2.319-1.125-4.375-2.852-5.668ZM16.299,80.079c0,3.126-2.543,5.669-5.669,5.669s-5.669-2.543-5.669-5.669,2.533-5.658,5.65-5.668h.039c3.117.011,5.65,2.549,5.65,5.668ZM3.544,72.993V17.28c12.483,4.052,26.544,6.106,41.811,6.106s29.322-2.054,41.811-6.107v55.714s-83.622,0-83.622,0ZM80.078,85.748c-3.126,0-5.669-2.543-5.669-5.669s2.533-5.658,5.65-5.668h.039c3.117.011,5.65,2.549,5.65,5.668s-2.543,5.669-5.669,5.669Z"/>
  </g>
  <g id="Takt._Zeichen__x28_Typo_x29_">
    <path d="M9.125,35.577c-.78,0-1.175-.156-1.331-.251l.216-1.056c.144.084.42.228,1.067.228,1.283,0,2.111-.743,2.207-2.435-.384.264-.9.468-1.583.468-1.331,0-2.183-.947-2.183-2.446,0-1.728,1.127-2.591,2.447-2.591,1.487,0,2.579,1.067,2.579,3.934,0,2.999-1.583,4.15-3.418,4.15ZM11.296,31.152c-.036-1.883-.636-2.615-1.451-2.615-.612,0-1.127.444-1.127,1.475,0,.924.396,1.511,1.295,1.511.576,0,.984-.156,1.283-.372Z"/>
  </g>
</svg>