<?xml version="1.0" encoding="UTF-8"?>
<svg xmlns="http://www.w3.org/2000/svg" version="1.1" viewBox="0 0 90.709 90.709">
  <!-- Generator: Adobe Illustrator 29.1.0, SVG Export Plug-In . SVG Version: 2.1.0 Build 142)  -->
  <g id="Grundfläche">
    <rect x="0" width="90.709" height="90.709" fill="none"/>
  </g>
  <g id="Flächige_Fülung">
    <path d="M49.606,22.678c-15.307,0-28.063-2.582-38.268-6.378v57.402h76.536V16.3c-10.205,3.794-22.961,6.378-38.268,6.378Z" fill="#fa1919"/>
  </g>
  <g id="Takt_Zeichen__x28_umgewandelt_x29_">
    <path d="M88.583,15.28l-.956.355c-11.304,4.203-24.096,6.333-38.021,6.333s-26.723-2.131-38.021-6.333l-.956-.355v25.114H2.126v4.252h8.504v29.764h34.743c-1.728,1.293-2.854,3.35-2.854,5.67,0,3.908,3.179,7.086,7.086,7.086s7.087-3.179,7.087-7.086c0-2.32-1.125-4.376-2.854-5.67h34.743V15.28ZM55.276,80.08c0,3.126-2.543,5.669-5.67,5.669s-5.669-2.543-5.669-5.669,2.543-5.669,5.669-5.669,5.67,2.543,5.67,5.669ZM63.954,46.063h23.212v25.792l-23.212-25.792ZM87.166,44.646h-23.212l23.212-25.791v25.791ZM49.606,23.386c13.406,0,25.777-1.969,36.819-5.827l-24.378,27.087H12.047v-27.333c11.22,4.03,23.85,6.073,37.559,6.073ZM3.543,43.229v-1.418h7.087v1.418H3.543ZM12.047,46.063h50l24.237,26.93H12.047v-26.93Z"/>
  </g>
</svg>