<?xml version="1.0" encoding="UTF-8"?>
<svg xmlns="http://www.w3.org/2000/svg" version="1.1" viewBox="0 0 90.709 90.709">
  <!-- Generator: Adobe Illustrator 29.1.0, SVG Export Plug-In . SVG Version: 2.1.0 Build 142)  -->
  <g id="Grundfläche">
    <rect x="0" y="0" width="90.709" height="90.709" fill="none"/>
  </g>
  <g id="Flächige_Fülung">
    <path d="M45.355,22.678c-17.008,0-31.181-2.582-42.52-6.378v57.402h85.04V16.3c-11.339,3.794-25.512,6.378-42.52,6.378Z" fill="#fa1919"/>
  </g>
  <g id="Takt_Zeichen__x28_umgewandelt_x29_">
    <path d="M88.583,15.316l-.934.312c-12.575,4.208-26.805,6.341-42.295,6.341S15.629,19.836,3.06,15.628l-.934-.312v59.095h4.268c-1.727,1.294-2.852,3.349-2.852,5.668,0,3.908,3.179,7.086,7.087,7.086s7.087-3.179,7.087-7.086c0-2.319-1.125-4.375-2.852-5.668h60.979c-1.727,1.294-2.852,3.349-2.852,5.668,0,3.908,3.179,7.086,7.087,7.086s7.087-3.179,7.087-7.086c0-2.319-1.125-4.375-2.852-5.668h4.27V15.316ZM16.299,80.079c0,3.126-2.543,5.669-5.669,5.669s-5.669-2.543-5.669-5.669,2.533-5.658,5.65-5.668h.039c3.117.011,5.65,2.549,5.65,5.668ZM85.748,80.079c0,3.126-2.543,5.669-5.669,5.669s-5.669-2.543-5.669-5.669,2.533-5.658,5.65-5.668h.039c3.117.011,5.65,2.549,5.65,5.668ZM3.544,72.993V28.347h83.622v44.647s-83.622,0-83.622,0Z"/>
  </g>
  <g id="Takt._Zeichen__x28_Typo_x29_">
    <g>
      <path d="M12.735,33.894h-3.31v2.495h3.046v1.08h-3.046v2.566h3.67l-.084,1.067h-4.881v-8.275h4.689l-.084,1.067Z"/>
      <path d="M15.905,32.826v7.208h3.406l-.084,1.067h-4.617v-8.275h1.295Z"/>
      <path d="M27.074,41.102h-1.104l-1.811-6.165h-.024l-1.823,6.165h-1.091l-2.243-8.275h1.391l1.463,6.213h.024l1.751-6.213h1.223l1.691,6.213h.024l1.499-6.213h1.307l-2.279,8.275Z"/>
      <path d="M35.728,40.107h1.679v.995h-4.582v-.995h1.691v-5.589l-1.619.576-.264-.959,2.195-.828h.899v6.801Z"/>
    </g>
  </g>
</svg>