<?xml version="1.0" encoding="UTF-8"?>
<svg xmlns="http://www.w3.org/2000/svg" version="1.1" viewBox="0 0 90.709 90.709">
  <!-- Generator: Adobe Illustrator 29.1.0, SVG Export Plug-In . SVG Version: 2.1.0 Build 142)  -->
  <g id="Grundfläche">
    <rect x="0" y="0" width="90.709" height="90.709" fill="none"/>
  </g>
  <g id="Flächige_Fülung">
    <path d="M45.355,22.678c-17.008,0-31.181-2.582-42.52-6.378v57.402h85.04V16.3c-11.339,3.794-25.512,6.378-42.52,6.378Z" fill="#fa1919"/>
  </g>
  <g id="Takt_Zeichen__x28_umgewandelt_x29_">
    <path d="M88.583,15.316l-.934.312c-12.575,4.208-26.805,6.341-42.295,6.341S15.629,19.836,3.06,15.628l-.934-.312v59.095h4.268c-1.727,1.294-2.852,3.349-2.852,5.668,0,3.908,3.179,7.086,7.087,7.086s7.087-3.179,7.087-7.086c0-2.319-1.125-4.375-2.852-5.668h60.979c-1.727,1.294-2.852,3.349-2.852,5.668,0,3.908,3.179,7.086,7.087,7.086s7.087-3.179,7.087-7.086c0-2.319-1.125-4.375-2.852-5.668h4.27V15.316ZM16.299,80.079c0,3.126-2.543,5.669-5.669,5.669s-5.669-2.543-5.669-5.669,2.533-5.658,5.65-5.668h.039c3.117.011,5.65,2.549,5.65,5.668ZM85.748,80.079c0,3.126-2.543,5.669-5.669,5.669s-5.669-2.543-5.669-5.669,2.533-5.658,5.65-5.668h.039c3.117.011,5.65,2.549,5.65,5.668ZM3.544,72.993V28.347h83.622v44.647s-83.622,0-83.622,0Z"/>
  </g>
  <g id="Takt._Zeichen__x28_Typo_x29_">
    <g>
      <path d="M11.152,36.868l3.19,4.233h-1.607l-2.639-3.634h-.672v3.634h-1.295v-8.275h1.295v3.562h.696l2.554-3.562h1.451l-2.974,4.042Z"/>
      <path d="M17.452,35.177c.492,0,.84.12,1.055.24v-2.783l1.211-.12v8.587h-1.115v-.647h-.024c-.144.216-.552.791-1.655.791-1.283,0-2.231-1.019-2.231-2.962,0-2.147,1.355-3.106,2.758-3.106ZM18.508,39.662v-3.202c-.192-.132-.48-.252-.923-.252-.984,0-1.631.6-1.631,2.003,0,1.439.6,1.979,1.367,1.979.648,0,1.007-.312,1.187-.528Z"/>
      <path d="M23.644,41.245c-1.439,0-2.554-.959-2.554-3.046,0-2.075,1.271-3.034,2.675-3.034,1.439,0,2.542.936,2.542,3.034,0,2.062-1.271,3.046-2.663,3.046ZM23.704,36.22c-.78,0-1.367.6-1.367,1.979,0,1.391.588,1.991,1.367,1.991.792,0,1.355-.612,1.355-1.991,0-1.392-.588-1.979-1.355-1.979Z"/>
      <path d="M34.789,41.102h-1.104l-1.811-6.165h-.024l-1.823,6.165h-1.091l-2.243-8.275h1.391l1.463,6.213h.024l1.751-6.213h1.223l1.691,6.213h.024l1.499-6.213h1.307l-2.279,8.275Z"/>
    </g>
  </g>
</svg>