<?xml version="1.0" encoding="UTF-8"?>
<svg xmlns="http://www.w3.org/2000/svg" version="1.1" viewBox="0 0 90.709 90.709">
  <!-- Generator: Adobe Illustrator 29.1.0, SVG Export Plug-In . SVG Version: 2.1.0 Build 142)  -->
  <g id="Grundfläche">
    <rect x="0" y="0" width="90.709" height="90.709" fill="none"/>
  </g>
  <g id="Flächige_Fülung">
    <path d="M74.599,72.906l-25.386-4.231c-2.522-.42-5.11-.122-7.47.862l-24.543,10.226c-3.301,1.375-7.102-.039-8.702-3.237l-3.471-6.943c-1.31-2.619-.796-5.782,1.274-7.853l9.211-9.212c.957-.957,1.494-2.255,1.494-3.608v-22.028c0-2.577,1.456-4.933,3.761-6.085l20.41-10.205c2.706-1.353,5.786-1.766,8.753-1.172l32.473,6.495c3.18.636,5.469,3.428,5.469,6.671v9.659c0,2.782-1.694,5.283-4.276,6.317l-7.316,2.926c-1.502.601-2.373,2.176-2.083,3.767l4.307,23.688c.421,2.317-1.583,4.351-3.906,3.964Z" fill="#fff"/>
  </g>
  <g id="Takt_Zeichen__x28_umgewandelt_x29_">
    <path d="M14.604,80.991c-2.771,0-5.433-1.538-6.739-4.149l-3.471-6.943c-1.448-2.896-.883-6.381,1.407-8.671l9.211-9.211c.83-.83,1.287-1.933,1.287-3.107v-22.028c0-2.864,1.591-5.438,4.153-6.719l20.41-10.205c2.833-1.417,6.103-1.855,9.209-1.233l32.473,6.495c3.499.7,6.039,3.798,6.039,7.366v9.659c0,3.09-1.854,5.827-4.722,6.975l-7.316,2.926c-1.184.474-1.877,1.728-1.649,2.982l4.307,23.688c.243,1.334-.164,2.654-1.116,3.62-.952.966-2.266,1.392-3.603,1.169l-25.386-4.231c-2.393-.398-4.842-.116-7.081.817l-24.543,10.226c-.935.389-1.908.574-2.869.574ZM47.278,9.866c-1.997,0-3.987.461-5.782,1.359l-20.41,10.205c-2.078,1.039-3.369,3.128-3.369,5.451v22.028c0,1.552-.604,3.011-1.702,4.109l-9.211,9.211c-1.858,1.858-2.317,4.685-1.142,7.035l3.471,6.943c1.427,2.853,4.851,4.127,7.795,2.9l24.543-10.226c2.485-1.036,5.202-1.349,7.859-.906l25.386,4.231c.876.146,1.737-.133,2.361-.766.624-.633.89-1.498.731-2.372l-4.307-23.688c-.348-1.914.711-3.829,2.517-4.552l7.316-2.926c2.327-.931,3.831-3.152,3.831-5.659v-9.659c0-2.895-2.06-5.408-4.899-5.976l-32.473-6.495c-.83-.166-1.673-.248-2.515-.248Z"/>
  </g>
</svg>