<?xml version="1.0" encoding="UTF-8"?>
<svg xmlns="http://www.w3.org/2000/svg" version="1.1" viewBox="0 0 90.709 90.709">
  <!-- Generator: Adobe Illustrator 29.1.0, SVG Export Plug-In . SVG Version: 2.1.0 Build 142)  -->
  <g id="Grundfläche">
    <rect x="0" y="0" width="90.709" height="90.709" fill="#fff"/>
  </g>
  <g id="Takt_Zeichen__x28_umgewandelt_x29_">
    <path d="M45.354,85.748c-10.867,0-20.103-7.996-21.706-18.688-10.691-1.603-18.687-10.839-18.687-21.706s7.996-20.103,18.687-21.706c1.603-10.692,10.839-18.688,21.706-18.688s20.103,7.996,21.706,18.688c10.692,1.603,18.688,10.839,18.688,21.706s-7.996,20.103-18.688,21.706c-1.603,10.692-10.839,18.688-21.706,18.688ZM45.354,6.378c-10.336,0-19.095,7.733-20.374,17.987l-.068.547-.547.068c-10.254,1.279-17.987,10.038-17.987,20.374s7.733,19.095,17.987,20.374l.547.068.068.547c1.279,10.254,10.038,17.987,20.374,17.987s19.095-7.733,20.374-17.987l.068-.547.547-.068c10.254-1.279,17.987-10.038,17.987-20.374s-7.733-19.095-17.987-20.374l-.547-.068-.068-.547c-1.279-10.254-10.038-17.987-20.374-17.987Z"/>
  </g>
</svg>