<?xml version="1.0" encoding="UTF-8"?>
<svg xmlns="http://www.w3.org/2000/svg" version="1.1" viewBox="0 0 136.063 90.709">
  <!-- Generator: Adobe Illustrator 29.1.0, SVG Export Plug-In . SVG Version: 2.1.0 Build 142)  -->
  <g id="Grundfläche">
    <rect x="0" y="0" width="136.063" height="90.709" fill="#fff"/>
  </g>
  <g id="Takt_Zeichen__x28_umgewandelt_x29_">
    <path d="M133.906,73.492c-1.644-5.342-3.522-10.3-5.618-14.899.195-.138.384-.284.552-.452.792-.79,1.246-1.886,1.246-3.006s-.454-2.215-1.246-3.006c-.79-.792-1.886-1.246-3.006-1.246-.452,0-.895.092-1.321.233-2.464-4.379-5.177-8.342-8.131-11.899,1.281-1.626,1.23-3.98-.232-5.533h0c-1.461-1.552-3.805-1.748-5.506-.57-3.585-3.36-7.461-6.224-11.633-8.579.611-1.982-.289-4.162-2.217-5.083-1.933-.923-4.199-.245-5.353,1.486-4.373-1.715-9.017-2.957-13.933-3.721-.088-2.079-1.677-3.836-3.807-4.048h0c-2.136-.213-4.044,1.201-4.536,3.231-1.307-.06-2.625-.101-3.966-.101-3.59,0-7.047.167-10.38.49-.582-1.997-2.542-3.325-4.661-3.024-2.125.301-3.658,2.124-3.656,4.209-4.92.948-9.515,2.298-13.78,4.049-1.163-1.754-3.46-2.43-5.4-1.477-1.945.955-2.815,3.194-2.129,5.191-4.208,2.45-8.021,5.374-11.433,8.771-1.758-1.171-4.145-.898-5.561.742h0c-.696.805-1.036,1.796-1.035,2.783,0,1.016.386,2.013,1.096,2.809-2.255,3.013-4.275,6.302-6.056,9.864l1.268.634c1.732-3.464,3.697-6.662,5.89-9.595.64.355,1.347.537,2.053.537,1.192,0,2.378-.498,3.219-1.471h0c.696-.805,1.037-1.797,1.036-2.783,0-.905-.292-1.803-.856-2.551,3.304-3.278,6.993-6.105,11.061-8.478.815,1.029,2.047,1.618,3.327,1.618.629,0,1.268-.14,1.871-.436,1.835-.901,2.729-2.948,2.248-4.854,4.155-1.704,8.633-3.02,13.426-3.948.59,1.693,2.197,2.85,4.006,2.85.199,0,.4-.014.602-.043h0c2.048-.29,3.532-1.997,3.636-3.987,3.278-.317,6.68-.482,10.213-.482,1.301,0,2.581.039,3.85.097.192,1.978,1.755,3.613,3.808,3.817.143.014.286.021.427.021,1.882,0,3.527-1.245,4.063-3.018,4.758.747,9.258,1.952,13.497,3.613-.489,1.926.428,3.991,2.29,4.88.59.282,1.213.415,1.827.415,1.321,0,2.59-.625,3.402-1.713,4.026,2.282,7.773,5.049,11.242,8.289-1.166,1.619-1.065,3.886.353,5.393.837.889,1.966,1.338,3.098,1.338.787,0,1.576-.218,2.268-.656,2.878,3.467,5.522,7.329,7.927,11.591-.144.111-.292.216-.421.345-.792.791-1.246,1.887-1.246,3.006s.454,2.216,1.246,3.006c.79.792,1.886,1.246,3.006,1.246.277,0,.557-.028.831-.083.115-.023.225-.071.339-.103,2.069,4.538,3.925,9.432,5.548,14.708l1.354-.417Z" fill="#14a01e"/>
  </g>
</svg>