<?xml version="1.0" encoding="UTF-8"?>
<svg xmlns="http://www.w3.org/2000/svg" version="1.1" viewBox="0 0 136.063 90.709">
  <!-- Generator: Adobe Illustrator 29.1.0, SVG Export Plug-In . SVG Version: 2.1.0 Build 142)  -->
  <g id="Grundfläche">
    <rect x="0" y="0" width="136.063" height="90.709" fill="#fff"/>
  </g>
  <g id="Takt_Zeichen__x28_umgewandelt_x29_">
    <path d="M133.491,66.142l-.262-.658-.21-.527h0l-.052-.132c-3.68,1.467-6.935,2.319-9.813,2.574l-.311-5.705-1.415.077.311,5.71c-2.558.049-4.792-.422-6.728-1.416-.849-.436-1.628-.966-2.349-1.578l3.921-4.146-1.03-.974-3.921,4.147c-2.114-2.205-3.662-5.203-4.931-8.645l5.388-1.907-.473-1.336-5.391,1.908c-1.04-3.072-1.899-6.448-2.758-9.907l5.551-1.376-.341-1.375-5.552,1.376c-.842-3.399-1.7-6.814-2.744-10.044l5.416-1.823-.452-1.343-5.413,1.822c-1.218-3.517-2.7-6.764-4.668-9.476l4.495-3.498-.871-1.119-4.493,3.496c-2.269-2.743-5.146-4.813-8.915-5.872l1.368-5.547-1.376-.339-1.37,5.552c-1.452-.297-3.02-.461-4.733-.461-2.158,0-4.108.233-5.9.651l-1.463-5.53-1.37.362,1.466,5.543c-3.624,1.09-6.568,2.975-9.185,5.299l-3.889-4.206-1.041.962,3.891,4.208c-2.152,2.061-4.117,4.389-6.114,6.766-.281.334-.563.67-.847,1.007l-4.36-3.701-.917,1.081,4.36,3.702c-2.14,2.507-4.421,5.03-7.094,7.371l-3.699-4.372-1.082.916,3.701,4.374c-2.457,2.021-5.251,3.876-8.559,5.426l-2.346-5.245-1.294.579,2.345,5.243c-2.848,1.216-6.057,2.214-9.743,2.907l-.999-5.659-1.396.247.998,5.65c-3.069.499-6.444.799-10.194.852l-.042-5.742-1.417.01.042,5.733c-3.178-.007-6.596-.175-10.316-.547l-.014.141h0l-.056.564-.071.705c34.136,3.418,45.198-9.75,54.086-20.328,6.109-7.27,11.385-13.548,22.52-13.548,15.55,0,19.085,14.276,22.504,28.082,2.599,10.496,5.054,20.41,12.488,24.227,2.047,1.051,4.374,1.578,7.008,1.578,3.481,0,7.499-.919,12.121-2.762Z" fill="#fa1919"/>
  </g>
</svg>