<?xml version="1.0" encoding="UTF-8"?>
<svg xmlns="http://www.w3.org/2000/svg" version="1.1" viewBox="0 0 136.063 90.709">
  <!-- Generator: Adobe Illustrator 29.1.0, SVG Export Plug-In . SVG Version: 2.1.0 Build 142)  -->
  <g id="Grundfläche">
    <rect x="0" y="0" width="136.063" height="90.709" fill="#fff"/>
  </g>
  <g id="Takt_Zeichen__x28_umgewandelt_x29_">
    <rect x="2.835" y="44.646" width="42.52" height="1.417"/>
    <rect x="90.709" y="44.646" width="42.52" height="1.417"/>
  </g>
  <g id="Takt._Zeichen__x28_Typo_x29_">
    <g>
      <path d="M62.572,45.65c0,3.547-1.548,5.348-4.646,5.348-3.061,0-4.573-1.584-4.573-5.348v-7.292h1.566v7.31c0,2.827,1.062,3.979,3.115,3.979s3.025-1.098,3.025-3.979v-7.31h1.513v7.292Z"/>
      <path d="M72.579,39.654h-5.204v4.213h4.771v1.296h-4.771v4.321h5.689l-.108,1.296h-7.148v-12.424h6.878l-.108,1.296Z"/>
      <path d="M82.839,50.781l-1.369-3.979h-4.447l-1.368,3.979h-1.603l4.645-12.424h1.243l4.646,12.424h-1.747ZM79.291,40.41h-.036l-1.819,5.204h3.637l-1.783-5.204Z"/>
    </g>
  </g>
</svg>