<?xml version="1.0" encoding="UTF-8"?>
<svg xmlns="http://www.w3.org/2000/svg" version="1.1" viewBox="0 0 90.709 90.709">
  <!-- Generator: Adobe Illustrator 29.1.0, SVG Export Plug-In . SVG Version: 2.1.0 Build 142)  -->
  <g id="Grundfläche">
    <rect x="0" y="0" width="90.709" height="90.709" fill="#fff"/>
  </g>
  <g id="Takt_Zeichen__x28_umgewandelt_x29_">
    <rect width="90.709" height="90.709" fill="#b4783c"/>
  </g>
  <g id="Takt._Zeichen__x28_Typo_x29_">
    <g>
      <path d="M62.902,72.978v.036c1.477.27,2.611,1.296,2.611,2.989,0,1.945-1.44,3.367-4.861,3.367h-2.809v-12.424h2.647c3.385,0,4.663,1.242,4.663,3.169,0,1.765-1.044,2.485-2.251,2.863ZM60.489,68.242h-1.08v4.213h1.062c2.071,0,3.061-.828,3.061-2.287,0-1.134-.882-1.927-3.043-1.927ZM60.759,73.752h-1.35v4.321h1.242c2.287,0,3.187-.756,3.187-2.179,0-1.368-1.135-2.143-3.079-2.143Z"/>
      <path d="M75.935,79.37h-1.188l-1.729-4.807h-.036l-1.873,4.807h-1.224l-3.115-8.643h1.549l2.233,6.77h.036l1.818-4.627-.774-2.143h1.549l2.232,6.77h.036l2.215-6.77h1.386l-3.115,8.643Z"/>
    </g>
  </g>
</svg>