<?xml version="1.0" encoding="UTF-8"?>
<svg xmlns="http://www.w3.org/2000/svg" version="1.1" viewBox="0 0 90.709 90.709">
  <!-- Generator: Adobe Illustrator 29.1.0, SVG Export Plug-In . SVG Version: 2.1.0 Build 142)  -->
  <g id="Grundfläche">
    <rect x="0" width="90.709" height="90.709" fill="#fff"/>
  </g>
  <g id="Takt_Zeichen__x28_umgewandelt_x29_">
    <path d="M88.442,88.441h-2.693v-1.134h1.559v-1.559h1.134v2.693ZM83.565,87.308h-4.367v1.134h4.367v-1.134ZM77.015,87.308h-4.367v1.134h4.367v-1.134ZM70.464,87.308h-4.367v1.134h4.367v-1.134ZM63.914,87.308h-4.367v1.134h4.367v-1.134ZM57.364,87.308h-4.367v1.134h4.367v-1.134ZM50.813,87.308h-4.367v1.134h4.367v-1.134ZM44.263,87.308h-4.367v1.134h4.367v-1.134ZM37.712,87.308h-4.367v1.134h4.367v-1.134ZM31.162,87.308h-4.367v1.134h4.367v-1.134ZM24.612,87.308h-4.367v1.134h4.367v-1.134ZM18.061,87.308h-4.367v1.134h4.367v-1.134ZM11.511,87.308h-4.367v1.134h4.367v-1.134ZM4.96,87.308h-1.559v-1.559h-1.134v2.693h2.693v-1.134ZM3.401,79.198h-1.134v4.367h1.134v-4.367ZM3.401,72.648h-1.134v4.367h1.134v-4.367ZM3.401,66.097h-1.134v4.367h1.134v-4.367ZM3.401,59.547h-1.134v4.367h1.134v-4.367ZM3.401,52.996h-1.134v4.367h1.134v-4.367ZM3.401,46.446h-1.134v4.367h1.134v-4.367ZM3.401,39.896h-1.134v4.367h1.134v-4.367ZM3.401,33.345h-1.134v4.367h1.134v-4.367ZM3.401,26.795h-1.134v4.367h1.134v-4.367ZM3.401,20.244h-1.134v4.367h1.134v-4.367ZM3.401,13.694h-1.134v4.367h1.134v-4.367ZM3.401,7.143h-1.134v4.367h1.134v-4.367ZM3.401,3.401h1.559v-1.134h-2.693v2.693h1.134v-1.559ZM83.565,2.267h-4.367v1.134h4.367v-1.134ZM77.015,2.267h-4.367v1.134h4.367v-1.134ZM70.465,2.267h-4.367v1.134h4.367v-1.134ZM63.914,2.267h-4.367v1.134h4.367v-1.134ZM57.364,2.267h-4.367v1.134h4.367v-1.134ZM50.813,2.267h-4.367v1.134h4.367v-1.134ZM44.263,2.267h-4.367v1.134h4.367v-1.134ZM37.712,2.267h-4.367v1.134h4.367v-1.134ZM31.162,2.267h-4.367v1.134h4.367v-1.134ZM24.612,2.267h-4.367v1.134h4.367v-1.134ZM18.061,2.267h-4.367v1.134h4.367v-1.134ZM11.511,2.267h-4.367v1.134h4.367v-1.134ZM88.442,2.267h-2.693v1.134h1.559v1.559h1.134v-2.693ZM88.442,79.198h-1.134v4.367h1.134v-4.367ZM88.442,72.648h-1.134v4.367h1.134v-4.367ZM88.442,66.097h-1.134v4.367h1.134v-4.367ZM88.442,59.547h-1.134v4.367h1.134v-4.367ZM88.442,52.997h-1.134v4.367h1.134v-4.367ZM88.442,46.446h-1.134v4.367h1.134v-4.367ZM88.442,39.896h-1.134v4.367h1.134v-4.367ZM88.442,33.345h-1.134v4.367h1.134v-4.367ZM88.442,26.795h-1.134v4.367h1.134v-4.367ZM88.442,20.244h-1.134v4.367h1.134v-4.367ZM88.442,13.694h-1.134v4.367h1.134v-4.367ZM88.442,7.144h-1.134v4.367h1.134v-4.367ZM47.287,18.11l-1.503-1.503-.223-.166h-.47l-1.669,1.669.802.802,1.131-1.131,1.131,1.131.802-.802ZM49.544,70.341l-.802-.802-3.024,3.024.802.802,3.024-3.024ZM44.991,72.564l-3.024-3.024-.802.802,3.024,3.024.802-.802ZM54.08,65.805l-.802-.802-3.024,3.024.802.802,3.024-3.024ZM40.455,68.027l-3.024-3.024-.802.802,3.024,3.024.802-.802ZM58.617,61.268l-.802-.802-3.024,3.024.802.802,3.024-3.024ZM35.918,63.491l-3.024-3.024-.802.802,3.024,3.024.802-.802ZM63.153,56.732l-.802-.802-3.024,3.024.802.802,3.024-3.024ZM31.382,58.955l-3.024-3.024-.802.802,3.024,3.024.802-.802ZM67.69,52.196l-.802-.802-3.024,3.024.802.802,3.024-3.024ZM26.845,54.418l-3.024-3.024-.802.802,3.024,3.024.802-.802ZM72.226,47.659l-.802-.802-3.024,3.024.802.802,3.024-3.024ZM22.309,49.882l-3.024-3.024-.802.802,3.024,3.024.802-.802ZM74.102,45.784l.166-.223v-.47l-2.787-2.787-.802.802,2.621,2.621.009-.009.429.429.364-.364ZM17.4,45.718l.009.009,2.621-2.621-.802-.802-2.621,2.621-.166.223v.47l.53.53.429-.429ZM69.969,40.792l-3.024-3.024-.802.802,3.024,3.024.802-.802ZM24.566,38.57l-.802-.802-3.024,3.024.802.802,3.024-3.024ZM29.103,34.033l-.802-.802-3.024,3.024.802.802,3.024-3.024ZM65.433,36.256l-3.024-3.024-.802.802,3.024,3.024.802-.802ZM33.639,29.497l-.802-.802-3.024,3.024.802.802,3.024-3.024ZM60.896,31.72l-3.024-3.024-.802.802,3.024,3.024.802-.802ZM38.175,24.961l-.802-.802-3.024,3.024.802.802,3.024-3.024ZM56.36,27.183l-3.024-3.024-.802.802,3.024,3.024.802-.802ZM51.824,22.647l-3.024-3.024-.802.802,3.024,3.024.802-.802ZM42.712,20.424l-.802-.802-3.024,3.024.802.802,3.024-3.024ZM49.634,73.953l-.167-1.122c-1.352.201-2.736.302-4.113.302h-.026l.026,1.134c1.433,0,2.873-.106,4.28-.315ZM43.253,73.055c-1.38-.103-2.761-.311-4.103-.617l-.252,1.105c1.397.319,2.834.535,4.271.642l.084-1.131ZM55.891,72.287l-.414-1.056c-1.286.504-2.622.914-3.969,1.218l.25,1.106c1.403-.317,2.793-.744,4.133-1.269ZM37.145,71.901c-1.318-.407-2.616-.918-3.861-1.519l-.493,1.021c1.295.626,2.648,1.158,4.02,1.582l.334-1.083ZM61.616,69.264l-.638-.937c-1.144.779-2.354,1.477-3.596,2.074l.492,1.022c1.293-.622,2.552-1.349,3.742-2.159ZM31.451,69.41c-1.193-.691-2.345-1.479-3.425-2.342l-.708.886c1.124.898,2.323,1.718,3.564,2.437l.568-.981ZM66.525,65.047l-.83-.772c-.941,1.011-1.965,1.96-3.045,2.82l.707.887c1.124-.895,2.19-1.882,3.169-2.934ZM26.453,65.712c-1.012-.939-1.962-1.963-2.823-3.042l-.886.708c.896,1.123,1.885,2.188,2.938,3.166l.771-.831ZM70.378,59.849l-.98-.569c-.693,1.193-1.482,2.345-2.345,3.423l.885.708c.898-1.122,1.719-2.32,2.44-3.562ZM22.396,60.999c-.779-1.141-1.479-2.35-2.078-3.594l-1.021.493c.624,1.294,1.352,2.552,2.163,3.74l.937-.639ZM72.977,53.924l-1.083-.335c-.408,1.318-.92,2.616-1.523,3.86l1.021.494c.627-1.294,1.161-2.646,1.585-4.018ZM19.487,55.501c-.505-1.286-.916-2.621-1.222-3.968l-1.105.251c.319,1.403.747,2.793,1.272,4.132l1.056-.415ZM74.185,47.567l-1.131-.085c-.104,1.379-.313,2.76-.621,4.102l1.105.253c.321-1.398.538-2.835.646-4.27ZM17.881,49.493c-.203-1.361-.306-2.753-.306-4.142v-.097l-1.134-.008v.109c0,1.441.107,2.89.318,4.306l1.122-.167ZM74.268,45.354c0-1.423-.104-2.854-.311-4.253l-1.122.165c.198,1.344.298,2.72.298,4.096l.357.028.777-.036ZM18.288,39.075l-1.105-.255c-.323,1.396-.542,2.833-.654,4.269l1.13.088c.107-1.38.319-2.76.629-4.101ZM73.562,38.977c-.316-1.403-.741-2.794-1.264-4.134l-1.056.413c.502,1.287.911,2.623,1.215,3.97l1.106-.249ZM20.361,33.214l-1.02-.496c-.629,1.293-1.165,2.644-1.593,4.015l1.083.338c.411-1.317.926-2.614,1.53-3.857ZM71.436,32.859c-.621-1.294-1.347-2.554-2.156-3.744l-.938.638c.778,1.143,1.474,2.354,2.072,3.597l1.022-.491ZM23.689,27.966l-.884-.71c-.901,1.121-1.724,2.318-2.447,3.558l.979.571c.695-1.192,1.486-2.342,2.351-3.418ZM67.998,27.373c-.894-1.124-1.88-2.191-2.932-3.172l-.773.829c1.01.942,1.958,1.968,2.817,3.048l.888-.706ZM28.099,23.582l-.705-.888c-1.126.894-2.194,1.879-3.174,2.929l.829.774c.942-1.009,1.969-1.956,3.051-2.815ZM63.432,22.788c-1.122-.9-2.32-1.722-3.56-2.443l-.57.98c1.191.693,2.342,1.483,3.42,2.348l.709-.884ZM33.373,20.284l-.49-1.023c-1.296.62-2.556,1.344-3.746,2.153l.637.938c1.143-.776,2.354-1.472,3.599-2.068ZM57.966,19.329c-1.294-.628-2.646-1.163-4.017-1.589l-.336,1.083c1.317.41,2.615.923,3.858,1.527l.495-1.02ZM39.251,18.247l-.248-1.106c-1.404.315-2.795.739-4.135,1.26l.411,1.057c1.287-.501,2.623-.908,3.972-1.211ZM51.863,17.177c-1.397-.322-2.834-.54-4.27-.65l-.086,1.13c1.38.106,2.76.316,4.102.625l.254-1.105ZM45.349,17.575h.084s-.079-1.134-.079-1.134c-1.416,0-2.837.103-4.227.307l.165,1.122c1.335-.196,2.701-.295,4.057-.295ZM87.874,73.134h-2.126v1.134h2.126v-1.134ZM83.565,73.134h-4.367v1.134h4.367v-1.134ZM77.015,73.134h-4.367v1.134h4.367v-1.134ZM70.464,73.134h-4.367v1.134h4.367v-1.134ZM63.914,73.134h-4.367v1.134h4.367v-1.134ZM57.364,73.134h-4.367v1.134h4.367v-1.134ZM50.813,73.134h-4.367v1.134h4.367v-1.134ZM44.263,73.134h-4.367v1.134h4.367v-1.134ZM37.712,73.134h-4.367v1.134h4.367v-1.134ZM31.162,73.134h-4.367v1.134h4.367v-1.134ZM24.612,73.134h-4.367v1.134h4.367v-1.134ZM18.061,73.134h-4.367v1.134h4.367v-1.134ZM11.511,73.134h-4.367v1.134h4.367v-1.134ZM4.96,73.134h-2.126v1.134h2.126v-1.134Z" fill="#bebebe"/>
    <rect x="2.268" y="16.441" width="86.174" height="6.803"/>
  </g>
</svg>