<?xml version="1.0" encoding="UTF-8"?>
<svg xmlns="http://www.w3.org/2000/svg" version="1.1" viewBox="0 0 90.709 90.709">
  <!-- Generator: Adobe Illustrator 29.1.0, SVG Export Plug-In . SVG Version: 2.1.0 Build 142)  -->
  <g id="Grundfläche">
    <rect x="0" width="90.709" height="90.709" fill="#fff"/>
  </g>
  <g id="Takt_Zeichen__x28_umgewandelt_x29_">
    <polygon points="84.578 40.223 45.354 6.602 6.131 40.223 5.208 39.147 45.354 4.736 85.5 39.147 84.578 40.223"/>
    <path d="M45.38,85.606h-.026c-1.433,0-2.873-.106-4.28-.315l.167-1.122c1.352.201,2.736.302,4.113.302l.026,1.134ZM47.54,85.525l-.084-1.131c1.38-.103,2.761-.311,4.103-.617l.252,1.105c-1.397.319-2.834.535-4.271.642ZM38.95,84.895c-1.403-.317-2.793-.744-4.133-1.269l.414-1.056c1.286.504,2.622.914,3.969,1.218l-.25,1.106ZM53.898,84.323l-.334-1.083c1.318-.407,2.616-.918,3.861-1.519l.493,1.021c-1.295.626-2.648,1.158-4.02,1.582ZM32.835,82.763c-1.293-.622-2.552-1.349-3.742-2.159l.638-.937c1.144.779,2.354,1.477,3.596,2.074l-.492,1.022ZM59.826,81.729l-.568-.981c1.193-.691,2.345-1.479,3.425-2.342l.708.886c-1.124.898-2.323,1.718-3.564,2.437ZM27.352,79.32c-1.124-.895-2.19-1.882-3.169-2.934l.83-.772c.941,1.011,1.965,1.96,3.045,2.82l-.707.887ZM65.027,77.882l-.771-.831c1.012-.939,1.962-1.963,2.823-3.042l.886.708c-.896,1.123-1.885,2.188-2.938,3.166ZM22.771,74.75c-.898-1.122-1.719-2.32-2.44-3.562l.98-.569c.693,1.193,1.482,2.345,2.345,3.423l-.885.708ZM69.249,72.977l-.937-.639c.779-1.141,1.479-2.35,2.078-3.594l1.021.493c-.624,1.294-1.352,2.552-2.163,3.74ZM19.317,69.281c-.627-1.294-1.161-2.646-1.585-4.018l1.083-.335c.408,1.318.92,2.616,1.523,3.86l-1.021.494ZM72.278,67.254l-1.056-.415c.505-1.286.916-2.621,1.222-3.968l1.105.251c-.319,1.403-.747,2.793-1.272,4.132ZM17.17,63.176c-.321-1.398-.538-2.835-.646-4.27l1.131-.085c.104,1.379.313,2.76.621,4.102l-1.105.253ZM73.949,60.999l-1.122-.167c.203-1.361.306-2.753.306-4.138l1.134-.109v.113c0,1.437-.107,2.886-.318,4.302ZM16.44,56.745v-.061c0-1.415.105-2.846.311-4.245l1.122.165c-.198,1.344-.298,2.72-.298,4.088l-1.134.052ZM73.049,54.515c-.107-1.38-.319-2.76-.629-4.101l1.105-.255c.323,1.396.542,2.833.654,4.269l-1.13.088ZM18.252,50.564l-1.106-.249c.316-1.403.741-2.794,1.264-4.134l1.056.413c-.502,1.287-.911,2.623-1.215,3.97ZM71.878,48.41c-.411-1.317-.926-2.614-1.53-3.857l1.02-.496c.629,1.293,1.165,2.644,1.593,4.015l-1.083.338ZM20.295,44.688l-1.022-.491c.621-1.294,1.347-2.554,2.156-3.744l.938.638c-.778,1.143-1.474,2.354-2.072,3.597ZM69.371,42.723c-.695-1.192-1.486-2.342-2.351-3.418l.884-.71c.901,1.121,1.724,2.318,2.447,3.558l-.979.571ZM23.598,39.418l-.888-.706c.894-1.124,1.88-2.191,2.932-3.172l.773.829c-1.01.942-1.958,1.968-2.817,3.048ZM65.66,37.736c-.942-1.009-1.969-1.956-3.051-2.815l.705-.888c1.126.894,2.194,1.879,3.174,2.929l-.829.774ZM27.986,35.011l-.709-.884c1.122-.9,2.32-1.722,3.56-2.443l.57.98c-1.191.693-2.342,1.483-3.42,2.348ZM60.935,33.691c-1.143-.776-2.354-1.472-3.599-2.068l.49-1.023c1.296.62,2.556,1.344,3.746,2.153l-.637.938ZM33.237,31.688l-.495-1.02c1.294-.628,2.646-1.163,4.017-1.589l.336,1.083c-1.317.41-2.615.923-3.858,1.527ZM55.429,30.797c-1.287-.501-2.623-.908-3.972-1.211l.248-1.106c1.404.315,2.795.739,4.135,1.26l-.411,1.057ZM39.1,29.62l-.254-1.105c1.397-.322,2.834-.54,4.27-.65l.086,1.13c-1.38.106-2.76.316-4.102.625ZM49.416,29.208c-1.335-.196-2.701-.295-4.062-.295l-.053-.765.048-.369c1.421,0,2.843.103,4.232.307l-.165,1.122Z" fill="#bebebe"/>
  </g>
</svg>