<?xml version="1.0" encoding="UTF-8"?>
<svg xmlns="http://www.w3.org/2000/svg" version="1.1" viewBox="0 0 90.709 90.709">
  <!-- Generator: Adobe Illustrator 29.1.0, SVG Export Plug-In . SVG Version: 2.1.0 Build 142)  -->
  <g id="Grundfläche">
    <rect x="0" y="0" width="90.709" height="90.709" fill="#fff"/>
  </g>
  <g id="Takt_Zeichen__x28_umgewandelt_x29_">
    <path d="M62.362,80.079c-6.695,0-12.741-2.827-17.008-7.351-4.267,4.524-10.313,7.351-17.008,7.351-4.944,0-9.674-1.529-13.677-4.422l.83-1.149c3.761,2.717,8.203,4.153,12.847,4.153,6.334,0,12.05-2.694,16.063-6.997-3.391-4.059-5.434-9.281-5.434-14.971,0-1.002.063-1.989.186-2.958-8.527-2.343-15.119-9.404-16.785-18.187-9.222,2.607-15.999,11.099-15.999,21.145,0,.737.038,1.485.112,2.224l-1.41.142c-.079-.786-.119-1.582-.119-2.366,0-10.753,7.293-19.833,17.194-22.554-.123-.969-.186-1.956-.186-2.958,0-9.184,5.417-17.556,13.8-21.33l.582,1.292c-7.875,3.545-12.964,11.41-12.964,20.037,0,.887.053,1.762.156,2.622,1.551-.325,3.159-.496,4.805-.496,6.695,0,12.741,2.827,17.008,7.351,4.267-4.524,10.313-7.351,17.008-7.351,1.646,0,3.254.171,4.805.496.103-.86.156-1.735.156-2.622,0-8.627-5.089-16.492-12.964-20.037l.582-1.292c8.383,3.773,13.8,12.146,13.8,21.33,0,1.002-.063,1.989-.186,2.958,9.901,2.72,17.194,11.801,17.194,22.554,0,.786-.04,1.583-.119,2.366l-1.41-.142c.074-.737.112-1.485.112-2.224,0-10.046-6.777-18.538-15.999-21.145-1.666,8.783-8.259,15.844-16.785,18.187.123.969.186,1.956.186,2.958,0,5.69-2.043,10.912-5.434,14.971,4.013,4.303,9.729,6.997,16.063,6.997,4.644,0,9.087-1.436,12.847-4.153l.83,1.149c-4.004,2.893-8.734,4.422-13.677,4.422ZM40.549,54.071c-.103.86-.156,1.735-.156,2.622,0,5.265,1.861,10.102,4.96,13.89,3.1-3.788,4.961-8.625,4.961-13.89,0-.887-.053-1.762-.156-2.622-3.103.65-6.508.65-9.61,0ZM40.763,52.667c2.962.632,6.219.632,9.182,0-.687-3.695-2.301-7.065-4.591-9.865-2.29,2.799-3.904,6.17-4.591,9.865ZM23.755,35.207c1.531,8.234,7.669,14.869,15.63,17.119.755-3.982,2.523-7.609,5.025-10.604-4.013-4.303-9.729-6.997-16.063-6.997-1.574,0-3.11.166-4.591.482ZM46.299,41.721c2.502,2.995,4.269,6.622,5.025,10.604,7.961-2.25,14.099-8.885,15.63-17.119-1.481-.316-3.017-.482-4.591-.482-6.334,0-12.05,2.694-16.063,6.997Z"/>
  </g>
</svg>