<?xml version="1.0" encoding="UTF-8"?>
<svg xmlns="http://www.w3.org/2000/svg" version="1.1" viewBox="0 0 90.709 90.709">
  <!-- Generator: Adobe Illustrator 29.1.0, SVG Export Plug-In . SVG Version: 2.1.0 Build 142)  -->
  <g id="Grundfläche">
    <rect x="0" y="0" width="90.709" height="90.709" fill="#fff"/>
  </g>
  <g id="Takt_Zeichen__x28_umgewandelt_x29_">
    <path d="M71.172,78.203l-1.713-9.937,1.396-.241,1.363,7.906c7.822-8.31,12.114-19.114,12.114-30.577,0-11.925-4.644-23.137-13.076-31.569l1.002-1.002c8.7,8.7,13.491,20.267,13.491,32.571,0,11.645-4.292,22.631-12.128,31.15l7.337-.817.157,1.409-9.943,1.107ZM19.538,78.203l-9.942-1.107.157-1.409,7.336.817c-7.836-8.519-12.128-19.505-12.128-31.15,0-12.304,4.792-23.871,13.491-32.571l1.002,1.002c-8.433,8.432-13.076,19.644-13.076,31.569,0,11.463,4.292,22.267,12.114,30.577l1.364-7.906,1.396.241-1.713,9.937ZM68.74,62.362h-1.417v-3.118c0-4.984-2.528-7.512-7.512-7.512h-3.827v2.126h-1.417v-2.126h-31.89v-1.417h31.89v-4.252h-3.543v-1.417h8.504v1.417h-3.543v4.252h3.827c5.758,0,8.929,3.171,8.929,8.929v3.118ZM45.356,37.559c-4.76,0-7.075-2.536-9.118-4.774-1.827-2.002-3.406-3.73-6.475-3.73-3.852,0-5.351,2.196-6.938,4.521-1.098,1.608-2.233,3.271-4.171,3.944l-.465-1.339c1.496-.519,2.408-1.856,3.465-3.404,1.644-2.409,3.508-5.14,8.108-5.14,3.694,0,5.64,2.131,7.522,4.192,2.024,2.217,3.937,4.312,8.071,4.312s6.047-2.094,8.071-4.312c1.882-2.061,3.827-4.192,7.522-4.192,4.601,0,6.464,2.73,8.108,5.14,1.056,1.548,1.969,2.885,3.465,3.404l-.465,1.339c-1.938-.673-3.073-2.336-4.171-3.944-1.587-2.325-3.085-4.521-6.938-4.521-3.069,0-4.647,1.729-6.475,3.73-2.043,2.238-4.358,4.774-9.118,4.774Z"/>
  </g>
</svg>