<?xml version="1.0" encoding="UTF-8"?>
<svg xmlns="http://www.w3.org/2000/svg" version="1.1" viewBox="0 0 90.709 90.709">
  <!-- Generator: Adobe Illustrator 29.1.0, SVG Export Plug-In . SVG Version: 2.1.0 Build 142)  -->
  <g id="Grundfläche">
    <rect x="0" y="0" width="90.709" height="90.709" fill="#fff"/>
  </g>
  <g id="Takt_Zeichen__x28_umgewandelt_x29_">
    <path d="M88.056,30.449l-.365-1.37-11.247,2.999c2.222-1.95,3.635-4.802,3.635-7.984,0-5.861-4.769-10.63-10.63-10.63-3.531,0-6.657,1.738-8.591,4.396l-15.504,21.702-15.504-21.702c-1.934-2.658-5.06-4.396-8.591-4.396-5.861,0-10.63,4.769-10.63,10.63s4.769,10.63,10.63,10.63,10.63-4.769,10.63-10.63c0-.35-.019-.695-.052-1.036l12.538,17.572L2.652,51.756l.365,1.37,40.333-10.756-24.085,33.754,1.154.823,24.935-34.945,24.935,34.945,1.154-.823-24.725-34.651,41.339-11.024ZM58.871,23.058c-.033.341-.052.686-.052,1.036,0,5.134,3.658,9.428,8.505,10.416l-20.53,5.475,12.078-16.927Z"/>
  </g>
</svg>