<?xml version="1.0" encoding="UTF-8"?>
<svg xmlns="http://www.w3.org/2000/svg" version="1.1" viewBox="0 0 90.709 90.709">
  <!-- Generator: Adobe Illustrator 29.1.0, SVG Export Plug-In . SVG Version: 2.1.0 Build 142)  -->
  <g id="Grundfläche">
    <rect x="0" y="0" width="90.709" height="90.709" fill="#fff"/>
  </g>
  <g id="Flächige_Fülung">
    <polygon points="2.835 79.37 45.354 8.504 87.874 79.37 2.835 79.37" fill="#fff"/>
  </g>
  <g id="Takt_Zeichen__x28_umgewandelt_x29_">
    <path d="M87.874,80.079H2.835l-.608-1.073L45.354,7.127l43.127,71.879-.608,1.073ZM4.086,78.661h82.536L45.354,9.881,4.086,78.661Z" fill="#fa1919"/>
  </g>
  <g id="Takt._Zeichen__x28_Typo_x29_">
    <path d="M45.897,39.956c4.439,0,6.639,1.959,7.279,2.52l-1.56,3.319c-.72-.68-2.52-2.16-5.599-2.16-4.719,0-8.719,2.88-8.719,10.398,0,7.719,3.16,10.798,8.279,10.798,3.439,0,5.279-1.48,6.119-2.16l1.2,3.159c-.84.72-3.04,2.68-7.959,2.68-7.278,0-12.238-4.199-12.238-14.318s6.679-14.238,13.198-14.238Z" fill="#fa1919"/>
  </g>
</svg>