<?xml version="1.0" encoding="UTF-8"?>
<svg xmlns="http://www.w3.org/2000/svg" version="1.1" viewBox="0 0 90.709 90.709">
  <!-- Generator: Adobe Illustrator 29.1.0, SVG Export Plug-In . SVG Version: 2.1.0 Build 142)  -->
  <g id="Grundfläche">
    <rect x="0" y="0" width="90.709" height="90.709" fill="#fff"/>
  </g>
  <g id="Takt_Zeichen__x28_umgewandelt_x29_">
    <path d="M52.441,45.385c0-3.914-3.173-7.087-7.087-7.087s-7.087,3.173-7.087,7.087,3.173,7.087,7.087,7.087,7.087-3.173,7.087-7.087ZM32.6,45.358l-24.096.008s0-.008,0-.012c0-13.643,7.419-25.545,18.438-31.915l12.056,20.897c-3.814,2.199-6.388,6.306-6.398,11.022ZM51.744,56.413l12.044,20.845c-5.423,3.14-11.715,4.947-18.433,4.947s-13.01-1.807-18.433-4.947l12.044-20.845c1.88,1.092,4.059,1.727,6.39,1.727s4.509-.635,6.39-1.727ZM82.205,45.354s0,.008,0,.012l-24.096-.008c-.01-4.716-2.584-8.823-6.398-11.022l12.056-20.897c11.018,6.371,18.438,18.273,18.438,31.915Z"/>
  </g>
</svg>