<?xml version="1.0" encoding="UTF-8"?>
<svg xmlns="http://www.w3.org/2000/svg" version="1.1" viewBox="0 0 90.709 90.709">
  <!-- Generator: Adobe Illustrator 29.1.0, SVG Export Plug-In . SVG Version: 2.1.0 Build 142)  -->
  <g id="Grundfläche">
    <rect x="0" width="90.709" height="90.709" fill="#fff"/>
  </g>
  <g id="Takt_Zeichen__x28_umgewandelt_x29_">
    <path d="M51.642,77.244h-1.237L25.035,14.882h-10.862v-1.417h11.815l25.035,61.538,25.035-61.538h11.815v1.417h-10.862l-25.37,62.362ZM19.842,74.41c-11.259,0-17.717-4.391-17.717-12.047s6.458-12.047,17.717-12.047,17.717,4.391,17.717,12.047-6.458,12.047-17.717,12.047ZM19.842,51.732c-10.511,0-16.3,3.775-16.3,10.63s5.789,10.63,16.3,10.63,16.299-3.775,16.299-10.63-5.789-10.63-16.299-10.63ZM26.22,67.323c-2.735,0-4.961-2.225-4.961-4.96s2.225-4.96,4.961-4.96,4.961,2.225,4.961,4.96-2.225,4.96-4.961,4.96ZM26.22,58.819c-1.954,0-3.543,1.59-3.543,3.543s1.589,3.543,3.543,3.543,3.543-1.59,3.543-3.543-1.589-3.543-3.543-3.543ZM13.464,67.323c-2.735,0-4.961-2.225-4.961-4.96s2.225-4.96,4.961-4.96,4.961,2.225,4.961,4.96-2.225,4.96-4.961,4.96ZM13.464,58.819c-1.954,0-3.543,1.59-3.543,3.543s1.589,3.543,3.543,3.543,3.543-1.59,3.543-3.543-1.589-3.543-3.543-3.543Z"/>
  </g>
</svg>