<?xml version="1.0" encoding="UTF-8"?>
<svg xmlns="http://www.w3.org/2000/svg" version="1.1" viewBox="0 0 90.709 90.709">
  <!-- Generator: Adobe Illustrator 29.1.0, SVG Export Plug-In . SVG Version: 2.1.0 Build 142)  -->
  <g id="Grundfläche">
    <rect x="0" width="90.709" height="90.709" fill="#fff"/>
  </g>
  <g id="Takt_Zeichen__x28_umgewandelt_x29_">
    <path d="M51.642,77.244h-1.237L25.035,14.882h-10.862v-1.417h11.815l25.035,61.538,25.035-61.538h11.815v1.417h-10.862l-25.37,62.362ZM34.724,76.535h-1.417c0-5.234-.964-10.538-2.788-15.339l-2.216-5.83-2.191,4.87h-1.269l-2.27-7.568-2.131,4.734-1.269-.002-2.289-7.631-5.017,10.292-4.844,2.301,5.025,2.387v11.786h-1.417v-10.891l-5.669-2.693v-1.179l5.85-2.779,5.613-11.514h1.254l2.271,7.568,2.13-4.733h1.269l2.27,7.568,2.13-4.733h1.23l2.867,7.543c1.885,4.96,2.881,10.438,2.881,15.842Z"/>
  </g>
</svg>