<?xml version="1.0" encoding="UTF-8"?>
<svg xmlns="http://www.w3.org/2000/svg" version="1.1" viewBox="0 0 90.709 90.709">
  <!-- Generator: Adobe Illustrator 29.1.0, SVG Export Plug-In . SVG Version: 2.1.0 Build 142)  -->
  <g id="Grundfläche">
    <rect x="0" width="90.709" height="90.709" fill="#fff"/>
  </g>
  <g id="Takt_Zeichen__x28_umgewandelt_x29_">
    <path d="M28.346,80.078c-1.574,0-3.087-.587-4.252-1.631-1.165,1.044-2.677,1.631-4.252,1.631h-.006c-1.585-.001-3.081-.577-4.25-1.627-1.164,1.042-2.675,1.627-4.248,1.627-3.517,0-6.378-2.861-6.378-6.377,0-.987.225-1.949.657-2.822-2.118-1.076-3.492-3.265-3.492-5.682s1.374-4.608,3.493-5.684c-.421-.851-.658-1.809-.658-2.821,0-3.517,2.861-6.377,6.378-6.377,1.574,0,3.087.587,4.252,1.631,1.165-1.044,2.677-1.631,4.252-1.631s3.087.587,4.252,1.631c1.165-1.044,2.677-1.631,4.252-1.631,3.517,0,6.378,2.861,6.378,6.377,0,.987-.225,1.948-.657,2.822,2.118,1.076,3.492,3.265,3.492,5.683s-1.374,4.607-3.493,5.683c.421.851.658,1.809.658,2.821,0,3.517-2.861,6.377-6.378,6.377ZM24.095,76.37l.532.604c.945,1.072,2.301,1.688,3.72,1.688,2.735,0,4.961-2.225,4.961-4.96s-2.225-4.961-4.961-4.961c-1.325,0-2.571.516-3.508,1.453l-1.002-1.002c1.204-1.205,2.806-1.868,4.51-1.868,1.994,0,3.777.919,4.948,2.357,1.722-.811,2.848-2.554,2.848-4.483,0-2.101-1.335-3.981-3.321-4.677l-.865-.303.511-.761c.55-.818.841-1.773.841-2.763,0-2.735-2.225-4.96-4.961-4.96-1.42,0-2.776.615-3.72,1.688l-.532.604-.532-.604c-.944-1.072-2.3-1.688-3.72-1.688s-2.776.615-3.72,1.688l-.532.604-.532-.604c-.945-1.072-2.301-1.688-3.72-1.688-2.735,0-4.961,2.225-4.961,4.96s2.225,4.961,4.961,4.961c1.325,0,2.571-.516,3.508-1.453l1.002,1.002c-1.205,1.205-2.806,1.868-4.51,1.868-1.994,0-3.777-.919-4.948-2.357-1.722.811-2.848,2.554-2.848,4.483,0,2.101,1.335,3.98,3.321,4.677l.865.304-.511.761c-.55.818-.841,1.773-.841,2.763,0,2.735,2.225,4.96,4.961,4.96,1.222,0,2.397-.456,3.302-1.267-.764-1.072-1.177-2.351-1.177-3.694h1.417c0,1.135.378,2.211,1.075,3.085l.165.188c.944,1.071,2.298,1.686,3.716,1.688h.004c1.42,0,2.776-.615,3.72-1.688l.532-.604ZM51.642,77.244h-1.237L25.035,14.882h-10.862v-1.417h11.815l25.035,61.538,25.035-61.538h11.815v1.417h-10.862l-25.37,62.362Z"/>
  </g>
</svg>