<?xml version="1.0" encoding="UTF-8"?>
<svg xmlns="http://www.w3.org/2000/svg" version="1.1" viewBox="0 0 90.709 90.709">
  <!-- Generator: Adobe Illustrator 29.1.0, SVG Export Plug-In . SVG Version: 2.1.0 Build 142)  -->
  <g id="Grundfläche">
    <rect x="0" width="90.709" height="90.709" fill="#fff"/>
  </g>
  <g id="Takt_Zeichen__x28_umgewandelt_x29_">
    <path d="M51.642,77.244h-1.237L25.035,14.882h-10.862v-1.417h11.815l25.035,61.538,25.035-61.538h11.815v1.417h-10.862l-25.37,62.362ZM31.181,77.244h-6.378v-1.218l.13-.184c2.735-3.864,4.122-7.923,4.122-12.063,0-5.683-4.073-9.213-10.63-9.213s-10.629,3.53-10.629,9.213c0,4.14,1.387,8.199,4.122,12.063l.13.184v1.218h-6.378v-1.417h4.522c-2.531-3.859-3.813-7.907-3.813-12.047,0-6.458,4.729-10.63,12.047-10.63s12.047,4.172,12.047,10.63c0,4.14-1.282,8.188-3.813,12.047h4.522v1.417Z"/>
  </g>
</svg>