<?xml version="1.0" encoding="UTF-8"?>
<svg xmlns="http://www.w3.org/2000/svg" version="1.1" viewBox="0 0 90.709 90.709">
  <!-- Generator: Adobe Illustrator 29.1.0, SVG Export Plug-In . SVG Version: 2.1.0 Build 142)  -->
  <g id="Grundfläche">
    <rect x="0" width="90.709" height="90.709" fill="#fff"/>
  </g>
  <g id="Takt_Zeichen__x28_umgewandelt_x29_">
    <path d="M46.063,85.039h-1.417v-16.31c-12.333-.369-22.298-10.333-22.667-22.666H5.669v-1.417h16.31c.369-12.333,10.333-22.298,22.667-22.666V5.669h1.417v16.31c12.333.369,22.298,10.333,22.667,22.666h16.31v1.417h-16.31c-.369,12.333-10.333,22.298-22.667,22.666v16.31ZM30.337,61.374c3.77,3.537,8.786,5.761,14.309,5.937v-20.247l-14.309,14.309ZM46.063,47.065v20.246c5.523-.176,10.539-2.4,14.309-5.937l-14.309-14.309ZM47.065,46.063l14.309,14.309c3.537-3.771,5.761-8.786,5.938-14.309h-20.247ZM23.397,46.063c.176,5.523,2.401,10.539,5.938,14.309l14.309-14.309h-20.246ZM47.065,44.646h20.247c-.176-5.523-2.401-10.539-5.938-14.309l-14.309,14.309ZM23.397,44.646h20.246l-14.309-14.309c-3.537,3.77-5.761,8.786-5.938,14.309ZM30.337,29.335l14.309,14.309v-20.247c-5.523.176-10.539,2.401-14.309,5.937ZM46.063,23.397v20.246l14.309-14.309c-3.77-3.537-8.786-5.761-14.309-5.937Z"/>
  </g>
</svg>