<?xml version="1.0" encoding="UTF-8"?>
<svg xmlns="http://www.w3.org/2000/svg" version="1.1" viewBox="0 0 90.709 90.709">
  <!-- Generator: Adobe Illustrator 29.1.0, SVG Export Plug-In . SVG Version: 2.1.0 Build 142)  -->
  <g id="Grundfläche">
    <rect x="0" width="90.709" height="90.709" fill="#fff"/>
  </g>
  <g id="Takt_Zeichen__x28_umgewandelt_x29_">
    <path d="M56.593,74.52l-37.964-13.656c-1.157-.416-2.368-.627-3.598-.627H4.96v-29.764h10.07c1.23,0,2.44-.211,3.598-.627l37.964-13.656.809.809v56.713l-.809.809ZM12.047,58.819h2.983c1.395,0,2.766.239,4.078.711l36.876,13.265V17.914l-36.876,13.265c-1.312.472-2.684.711-4.078.711h-2.983v26.929ZM6.378,58.819h4.252v-26.929h-4.252v26.929ZM72.19,74.246l-.906-1.09c8.292-6.896,13.047-17.029,13.047-27.802s-4.755-20.906-13.047-27.802l.906-1.09c8.616,7.166,13.558,17.696,13.558,28.891s-4.942,21.726-13.558,28.891ZM69.302,67.129l-.975-1.029c5.667-5.365,8.917-12.927,8.917-20.745s-3.25-15.38-8.917-20.745l.975-1.029c5.948,5.632,9.36,13.568,9.36,21.775s-3.412,16.143-9.36,21.775ZM66.445,59.971l-1.106-.887c3.152-3.932,4.818-8.68,4.818-13.73s-1.666-9.798-4.818-13.73l1.106-.887c3.308,4.126,5.13,9.317,5.13,14.617s-1.822,10.49-5.13,14.617Z"/>
  </g>
</svg>