<?xml version="1.0" encoding="UTF-8"?>
<svg xmlns="http://www.w3.org/2000/svg" version="1.1" viewBox="0 0 90.709 90.709">
  <!-- Generator: Adobe Illustrator 29.1.0, SVG Export Plug-In . SVG Version: 2.1.0 Build 142)  -->
  <g id="Grundfläche">
    <rect x="0" y="0" width="90.709" height="90.709" fill="#fff"/>
  </g>
  <g id="Takt_Zeichen__x28_umgewandelt_x29_">
    <path d="M29.055,85.039h-1.417V22.677c0-8.206,6.676-14.882,14.882-14.882,7.975,0,14.505,6.306,14.866,14.193,6.322.36,11.354,5.617,11.354,12.027,0,6.643-5.405,12.047-12.047,12.047s-12.047-5.405-12.047-12.047c0-6.399,5.015-11.649,11.321-12.025-.358-7.107-6.253-12.778-13.447-12.778-7.424,0-13.464,6.04-13.464,13.465v62.362ZM56.693,23.386c-5.861,0-10.63,4.768-10.63,10.63s4.769,10.63,10.63,10.63,10.63-4.769,10.63-10.63-4.769-10.63-10.63-10.63Z"/>
  </g>
</svg>