<?xml version="1.0" encoding="UTF-8"?>
<svg xmlns="http://www.w3.org/2000/svg" version="1.1" viewBox="0 0 90.709 90.709">
  <!-- Generator: Adobe Illustrator 29.1.0, SVG Export Plug-In . SVG Version: 2.1.0 Build 142)  -->
  <g id="Grundfläche">
    <rect x="0" y="0" width="90.709" height="90.709" fill="#fff"/>
  </g>
  <g id="Takt_Zeichen__x28_umgewandelt_x29_">
    <path d="M37.074,82.878l-.448-1.345,4.252-1.418c2.042-.681,3.768-3.618,3.768-6.415v-4.971c-9.818-.293-18.135-6.668-21.305-15.477l-4.727,1.536c-3.24,1.053-7.208.108-8.843-2.107l-2.662-3.606,1.14-.842,2.663,3.606c1.279,1.732,4.606,2.465,7.265,1.601l4.726-1.535c-.607-2.079-.933-4.277-.933-6.55,0-7.511,3.558-14.205,9.078-18.487l-2.927-4.029c-2.003-2.757-2.33-6.822-.729-9.062l2.606-3.646,1.153.824-2.606,3.646c-1.252,1.751-.921,5.142.722,7.405l2.927,4.028c3.751-2.564,8.284-4.064,13.162-4.064s9.41,1.5,13.162,4.064l2.927-4.028c2.002-2.757,5.768-4.324,8.393-3.494l4.273,1.352-.428,1.351-4.273-1.352c-2.053-.648-5.175.713-6.818,2.976l-2.927,4.029c5.52,4.281,9.078,10.976,9.078,18.487,0,2.273-.326,4.471-.933,6.55l4.725,1.535c3.241,1.053,5.895,4.15,5.916,6.903l.035,4.482-1.417.011-.035-4.482c-.017-2.153-2.277-4.701-4.937-5.565l-4.726-1.536c-3.17,8.81-11.487,15.184-21.305,15.478v4.971c0,3.408-2.125,6.889-4.736,7.76l-4.252,1.418ZM45.354,23.386c-12.113,0-21.969,9.855-21.969,21.968s9.855,21.969,21.969,21.969,21.969-9.855,21.969-21.969-9.855-21.968-21.969-21.968Z"/>
  </g>
</svg>