<?xml version="1.0" encoding="UTF-8"?>
<svg xmlns="http://www.w3.org/2000/svg" version="1.1" viewBox="0 0 90.709 90.709">
  <!-- Generator: Adobe Illustrator 29.1.0, SVG Export Plug-In . SVG Version: 2.1.0 Build 142)  -->
  <g id="Grundfläche">
    <rect x="0" y="0" width="90.709" height="90.709" fill="#fff"/>
  </g>
  <g id="Takt_Zeichen__x28_umgewandelt_x29_">
    <path d="M76.535,60.236H12.756c-2.735,0-4.96-2.225-4.96-4.961v-.709h-.709c-2.735,0-4.96-2.225-4.96-4.961v-8.504c0-2.735,2.225-4.961,4.96-4.961h.709v-.708c0-2.735,2.225-4.961,4.96-4.961h22.677c2.735,0,4.96,2.225,4.96,4.961v.708h36.142c6.643,0,12.047,5.405,12.047,12.047s-5.404,12.047-12.047,12.047ZM38.901,58.819h37.634c5.861,0,10.63-4.769,10.63-10.63s-4.769-10.63-10.63-10.63h-36.142v17.717c0,1.387-.572,2.642-1.492,3.543ZM12.756,31.89c-1.954,0-3.543,1.589-3.543,3.543v19.843c0,1.954,1.59,3.543,3.543,3.543h22.677c1.954,0,3.543-1.589,3.543-3.543v-19.843c0-1.954-1.59-3.543-3.543-3.543H12.756ZM7.087,37.559c-1.954,0-3.543,1.589-3.543,3.543v8.504c0,1.954,1.59,3.543,3.543,3.543h.709v-15.59h-.709Z"/>
  </g>
</svg>