<?xml version="1.0" encoding="UTF-8"?>
<svg xmlns="http://www.w3.org/2000/svg" version="1.1" viewBox="0 0 90.709 90.709">
  <!-- Generator: Adobe Illustrator 29.1.0, SVG Export Plug-In . SVG Version: 2.1.0 Build 142)  -->
  <g id="Grundfläche">
    <rect x="0" y="0" width="90.709" height="90.709" fill="#fff"/>
  </g>
  <g id="Takt_Zeichen__x28_umgewandelt_x29_">
    <path d="M46.063,85.039h-1.417v-28.347h1.417v28.347ZM65.954,64.905l-.323-1.38,6.153-1.442-13.049-7.457c-3.314-1.894-7.083-2.894-10.899-2.894h-30.828v-1.417h30.828c4.063,0,8.075,1.065,11.603,3.081l13.201,7.543-1.434-6.12,1.38-.323,1.967,8.394-8.598,2.015ZM47.836,40.394h-30.828v-1.417h30.828c3.817,0,7.586-1.001,10.899-2.894l13.049-7.457-6.153-1.442.323-1.38,8.598,2.015-1.967,8.394-1.38-.323,1.434-6.12-13.201,7.543c-3.527,2.016-7.54,3.081-11.603,3.081ZM46.063,34.016h-1.417V5.669h1.417v28.347Z"/>
  </g>
</svg>