<?xml version="1.0" encoding="UTF-8"?>
<svg xmlns="http://www.w3.org/2000/svg" version="1.1" viewBox="0 0 90.709 90.709">
  <!-- Generator: Adobe Illustrator 29.1.0, SVG Export Plug-In . SVG Version: 2.1.0 Build 142)  -->
  <g id="Grundfläche">
    <rect x="0" width="90.709" height="90.709" fill="#fff"/>
  </g>
  <g id="Takt_Zeichen__x28_umgewandelt_x29_">
    <path d="M45.354,85.748c-22.273,0-40.394-18.121-40.394-40.394S23.081,4.96,45.354,4.96s40.394,18.121,40.394,40.394-18.121,40.394-40.394,40.394ZM46.063,47.065v37.259c10.212-.182,19.477-4.313,26.333-10.926l-26.333-26.333ZM18.312,73.398c6.856,6.613,16.121,10.743,26.333,10.926v-37.259l-26.333,26.333ZM47.065,46.063l26.333,26.333c6.613-6.856,10.743-16.121,10.926-26.333h-37.259ZM6.384,46.063c.182,10.212,4.313,19.477,10.926,26.333l26.333-26.333H6.384ZM47.065,44.645h37.259c-.182-10.212-4.313-19.477-10.926-26.333l-26.333,26.333ZM6.384,44.645h37.259l-26.333-26.333c-6.613,6.856-10.743,16.121-10.926,26.333ZM46.063,6.384v37.259l26.333-26.333c-6.856-6.613-16.121-10.743-26.333-10.926ZM18.312,17.31l26.333,26.333V6.384c-10.212.182-19.477,4.313-26.333,10.926Z"/>
  </g>
</svg>