<?xml version="1.0" encoding="UTF-8"?>
<svg xmlns="http://www.w3.org/2000/svg" version="1.1" viewBox="0 0 90.709 90.709">
  <!-- Generator: Adobe Illustrator 29.1.0, SVG Export Plug-In . SVG Version: 2.1.0 Build 142)  -->
  <g id="Grundfläche">
    <rect x="0" width="90.709" height="90.709" fill="#fff"/>
  </g>
  <g id="Takt_Zeichen__x28_umgewandelt_x29_">
    <path d="M82.913,71.575H8.504v-1.417h72.992V19.843s1.417,0,1.417,0v51.732ZM45.356,37.559c-4.608,0-6.878-3.027-9.073-5.953-2.077-2.77-4.039-5.385-7.937-5.385-4.723,0-6.604,2.821-8.594,5.807-1.389,2.084-2.826,4.239-5.262,5.457l-.634-1.268c2.099-1.05,3.371-2.957,4.716-4.975,2.11-3.165,4.292-6.438,9.774-6.438,4.606,0,6.876,3.026,9.071,5.952,2.078,2.77,4.041,5.386,7.939,5.386s5.861-2.616,7.939-5.386c2.195-2.926,4.465-5.952,9.071-5.952,5.482,0,7.664,3.273,9.774,6.438,1.346,2.019,2.617,3.926,4.716,4.975l-.634,1.268c-2.436-1.218-3.873-3.373-5.262-5.457-1.991-2.987-3.871-5.807-8.594-5.807-3.897,0-5.86,2.616-7.937,5.385-2.196,2.927-4.466,5.953-9.073,5.953Z"/>
  </g>
</svg>