<?xml version="1.0" encoding="UTF-8"?>
<svg xmlns="http://www.w3.org/2000/svg" version="1.1" viewBox="0 0 90.709 90.709">
  <!-- Generator: Adobe Illustrator 29.1.0, SVG Export Plug-In . SVG Version: 2.1.0 Build 142)  -->
  <g id="Grundfläche">
    <rect x="0" width="90.709" height="90.709" fill="#fff"/>
  </g>
  <g id="Takt_Zeichen__x28_umgewandelt_x29_">
    <path d="M82.205,16.299H8.503c-1.954,0-3.543,1.59-3.543,3.543v45.354c0,1.954,1.59,3.543,3.543,3.543h36.142v7.086h-10.63v1.417h22.677v-1.417h-10.63v-7.086h36.142c1.954,0,3.543-1.59,3.543-3.543V19.842c0-1.954-1.59-3.543-3.543-3.543ZM84.331,65.197c0,1.172-.954,2.126-2.126,2.126H8.503c-1.172,0-2.126-.954-2.126-2.126V19.842c0-1.172.954-2.126,2.126-2.126h73.702c1.172,0,2.126.954,2.126,2.126v45.354ZM42.52,39.685h5.669v19.843h-5.669v-19.843ZM49.606,29.764c0,2.348-1.904,4.252-4.252,4.252s-4.252-1.904-4.252-4.252,1.904-4.252,4.252-4.252,4.252,1.904,4.252,4.252Z"/>
  </g>
</svg>