<?xml version="1.0" encoding="UTF-8"?>
<svg xmlns="http://www.w3.org/2000/svg" version="1.1" viewBox="0 0 90.709 90.709">
  <!-- Generator: Adobe Illustrator 29.1.0, SVG Export Plug-In . SVG Version: 2.1.0 Build 142)  -->
  <g id="Grundfläche">
    <rect x="0" width="90.709" height="90.709" fill="#fff"/>
  </g>
  <g id="Takt_Zeichen__x28_umgewandelt_x29_">
    <path d="M63.78,71.575H26.929c-1.172,0-2.126-.954-2.126-2.126V23.386h-4.96v-1.417h51.023v1.417h-4.96v46.063c0,1.172-.954,2.126-2.126,2.126ZM26.22,23.386v46.063c0,.391.318.709.709.709h36.851c.391,0,.708-.318.708-.709V23.386H26.22ZM55.984,65.199l-.095-36.851,1.417-.004.095,36.851-1.417.004ZM34.724,65.199l-1.417-.004.095-36.851,1.417.004-.095,36.851ZM46.063,65.197h-1.417V28.346h1.417v36.851ZM56.693,17.717h-19.843v-1.417h19.843v1.417Z"/>
  </g>
</svg>