<?xml version="1.0" encoding="UTF-8"?>
<svg xmlns="http://www.w3.org/2000/svg" version="1.1" viewBox="0 0 90.709 90.709">
  <!-- Generator: Adobe Illustrator 29.1.0, SVG Export Plug-In . SVG Version: 2.1.0 Build 142)  -->
  <g id="Grundfläche">
    <rect x="0" width="90.709" height="90.709" fill="#fff"/>
  </g>
  <g id="Takt_Zeichen__x28_umgewandelt_x29_">
    <path d="M43.178,63.071h-1.227l-10.77-32.636-10.77,32.636h-1.227l-5.71-34.609,1.398-.23,5.181,31.401,10.558-31.995h1.082l10.615,31.994,5.181-31.401,1.398.23-5.71,34.609ZM65.196,61.654c-7.252,0-10.63-5.179-10.63-16.299s3.378-16.299,10.63-16.299c3.683,0,6.47,1.857,7.848,5.229l1.312-.536c-1.587-3.883-4.925-6.11-9.16-6.11-8.106,0-12.047,5.795-12.047,17.716s3.941,17.716,12.047,17.716c4.235,0,7.573-2.227,9.16-6.109l-1.312-.536c-1.378,3.372-4.165,5.229-7.848,5.229Z"/>
  </g>
</svg>