<?xml version="1.0" encoding="UTF-8"?>
<svg xmlns="http://www.w3.org/2000/svg" version="1.1" viewBox="0 0 90.709 90.709">
  <!-- Generator: Adobe Illustrator 29.1.0, SVG Export Plug-In . SVG Version: 2.1.0 Build 142)  -->
  <g id="Grundfläche">
    <rect x="0" width="90.709" height="90.709" fill="#fff"/>
  </g>
  <g id="Takt_Zeichen__x28_umgewandelt_x29_">
    <path d="M45.354,80.078c-19.147,0-34.724-15.577-34.724-34.724S26.207,10.63,45.354,10.63c12.826,0,24.561,7.032,30.625,18.351l.335.625-29.438,15.748,29.438,15.748-.335.625c-6.064,11.319-17.799,18.351-30.625,18.351ZM45.354,12.047c-18.366,0-33.307,14.941-33.307,33.307s14.941,33.307,33.307,33.307c12.066,0,23.125-6.489,29.034-16.981l-29.35-15.701v-1.25l29.35-15.701c-5.909-10.493-16.968-16.981-29.034-16.981Z"/>
  </g>
</svg>