<?xml version="1.0" encoding="UTF-8"?>
<svg xmlns="http://www.w3.org/2000/svg" version="1.1" viewBox="0 0 90.709 90.709">
  <!-- Generator: Adobe Illustrator 29.1.0, SVG Export Plug-In . SVG Version: 2.1.0 Build 142)  -->
  <g id="Grundfläche">
    <rect x="0" width="90.709" height="90.709" fill="#fff"/>
  </g>
  <g id="Takt_Zeichen__x28_umgewandelt_x29_">
    <path d="M63.071,85.039h-1.417V22.677c0-7.424-6.04-13.465-13.464-13.465-7.194,0-13.088,5.671-13.447,12.777,6.306.373,11.321,5.561,11.321,11.884v.851h-24.095v-.851c0-6.334,5.033-11.53,11.354-11.886.361-7.888,6.891-14.193,14.866-14.193,8.206,0,14.882,6.676,14.882,14.882v62.362ZM23.401,33.307h21.229c-.299-5.521-4.946-9.922-10.615-9.922s-10.316,4.401-10.615,9.922ZM43.228,48.189h-1.417v-9.921h1.417v9.921ZM34.724,48.189h-1.417v-9.921h1.417v9.921ZM26.22,48.189h-1.417v-9.921h1.417v9.921Z"/>
  </g>
</svg>