<?xml version="1.0" encoding="UTF-8"?>
<svg xmlns="http://www.w3.org/2000/svg" version="1.1" viewBox="0 0 90.709 90.709">
  <!-- Generator: Adobe Illustrator 29.1.0, SVG Export Plug-In . SVG Version: 2.1.0 Build 142)  -->
  <g id="Grundfläche">
    <rect x="0" width="90.709" height="90.709" fill="#fff"/>
  </g>
  <g id="Flächige_Fülung">
    <path d="M45.354,22.678c-17.008,0-31.181-2.582-42.52-6.378v57.402h85.04V16.3c-11.339,3.794-25.512,6.378-42.52,6.378Z" fill="#fff"/>
  </g>
  <g id="Takt_Zeichen__x28_umgewandelt_x29_">
    <path d="M84.312,74.41h4.271V15.315s-.934.312-.934.312c-12.575,4.208-26.805,6.341-42.295,6.341S15.628,19.835,3.06,15.628l-.934-.312v59.095h4.272c-1.728,1.293-2.854,3.35-2.854,5.67,0,3.908,3.179,7.086,7.087,7.086s7.087-3.179,7.087-7.086c0-2.32-1.125-4.376-2.854-5.67h7.125c-1.728,1.293-2.854,3.35-2.854,5.67,0,3.908,3.179,7.086,7.087,7.086s7.087-3.179,7.087-7.086c0-2.32-1.125-4.376-2.854-5.67h29.801c-1.728,1.293-2.854,3.35-2.854,5.67,0,3.908,3.179,7.086,7.087,7.086s7.087-3.179,7.087-7.086c0-2.32-1.125-4.376-2.854-5.67h7.125c-1.728,1.293-2.854,3.35-2.854,5.67,0,3.908,3.179,7.086,7.087,7.086s7.087-3.179,7.087-7.086c0-2.32-1.125-4.376-2.854-5.67ZM16.3,80.08c0,3.126-2.543,5.669-5.669,5.669s-5.669-2.543-5.669-5.669,2.543-5.669,5.669-5.669,5.669,2.543,5.669,5.669ZM31.891,80.08c0,3.126-2.543,5.669-5.669,5.669s-5.669-2.543-5.669-5.669,2.543-5.669,5.669-5.669,5.669,2.543,5.669,5.669ZM70.157,80.08c0,3.126-2.543,5.669-5.669,5.669s-5.669-2.543-5.669-5.669,2.543-5.669,5.669-5.669,5.669,2.543,5.669,5.669ZM3.543,17.279c12.483,4.052,26.544,6.106,41.811,6.106s29.322-2.054,41.811-6.107v55.714s-83.622,0-83.622,0V17.279ZM80.079,85.749c-3.126,0-5.669-2.543-5.669-5.669s2.543-5.669,5.669-5.669,5.669,2.543,5.669,5.669-2.543,5.669-5.669,5.669Z"/>
  </g>
</svg>