<?xml version="1.0" encoding="UTF-8"?>
<svg xmlns="http://www.w3.org/2000/svg" version="1.1" viewBox="0 0 90.709 90.709">
  <!-- Generator: Adobe Illustrator 29.1.0, SVG Export Plug-In . SVG Version: 2.1.0 Build 142)  -->
  <g id="Grundfläche">
    <rect x="0" width="90.709" height="90.709" fill="#fff"/>
  </g>
  <g id="Flächige_Fülung">
    <rect x="8.504" y="22.677" width="79.37" height="48.189" fill="#fff"/>
  </g>
  <g id="Takt_Zeichen__x28_umgewandelt_x29_">
    <path d="M3.543,17.008h-1.417v57.401h4.273c-1.729,1.293-2.855,3.35-2.855,5.671,0,3.908,3.179,7.086,7.087,7.086s7.087-3.179,7.087-7.086c0-2.32-1.126-4.377-2.855-5.671h60.985c-1.729,1.293-2.855,3.35-2.855,5.671,0,3.908,3.179,7.086,7.087,7.086s7.087-3.179,7.087-7.086c0-2.32-1.126-4.377-2.855-5.671h4.271v-1.417H3.543V17.008ZM16.3,80.08c0,3.126-2.543,5.669-5.669,5.669s-5.669-2.543-5.669-5.669,2.543-5.669,5.669-5.669,5.669,2.543,5.669,5.669ZM85.749,80.08c0,3.126-2.543,5.669-5.669,5.669s-5.669-2.543-5.669-5.669,2.543-5.669,5.669-5.669,5.669,2.543,5.669,5.669ZM82.771,16.866c-2.964,0-5.412,2.232-5.763,5.102H19.37c-.351-2.87-2.8-5.102-5.764-5.102-3.204,0-5.811,2.606-5.811,5.811v48.897h80.788V22.677c0-3.204-2.607-5.811-5.812-5.811ZM82.771,18.283c2.18,0,3.98,1.6,4.322,3.685h-8.644c.341-2.085,2.142-3.685,4.322-3.685ZM13.606,18.283c2.18,0,3.981,1.6,4.322,3.685h-8.644c.341-2.085,2.142-3.685,4.322-3.685ZM9.212,70.157V23.385h77.953v46.772s-77.953,0-77.953,0Z"/>
  </g>
</svg>