<?xml version="1.0" encoding="UTF-8"?>
<svg xmlns="http://www.w3.org/2000/svg" version="1.1" viewBox="0 0 90.709 90.709">
  <!-- Generator: Adobe Illustrator 29.1.0, SVG Export Plug-In . SVG Version: 2.1.0 Build 142)  -->
  <g id="Grundfläche">
    <rect x="0" width="90.709" height="90.709" fill="#fff"/>
  </g>
  <g id="Flächige_Fülung">
    <rect x="2.835" y="22.677" width="85.04" height="51.024" fill="#fff"/>
  </g>
  <g id="Takt_Zeichen__x28_umgewandelt_x29_">
    <path d="M88.583,22.677c0-3.204-2.607-5.811-5.811-5.811-2.964,0-5.412,2.232-5.763,5.102H13.7c-.351-2.87-2.8-5.102-5.763-5.102-3.204,0-5.811,2.606-5.811,5.811v51.732s43.229,0,43.229,0h43.229V22.677ZM82.772,18.283c2.18,0,3.98,1.6,4.322,3.685h-8.644c.341-2.085,2.142-3.685,4.322-3.685ZM7.937,18.283c2.18,0,3.98,1.6,4.322,3.685H3.615c.341-2.085,2.142-3.685,4.322-3.685ZM45.354,72.992H3.543c0-5.697,0-43.934,0-49.607h83.622c0,5.667,0,43.91,0,49.607h-41.811Z"/>
  </g>
</svg>