<?xml version="1.0" encoding="UTF-8"?>
<svg xmlns="http://www.w3.org/2000/svg" version="1.1" viewBox="0 0 90.709 90.709">
  <!-- Generator: Adobe Illustrator 29.1.0, SVG Export Plug-In . SVG Version: 2.1.0 Build 142)  -->
  <g id="Grundfläche">
    <rect x="0" width="90.709" height="90.709" fill="#fff"/>
  </g>
  <g id="Flächige_Fülung">
    <path d="M11.338,17.008v53.858h76.536V17.008c-8.504,2.835-22.679,5.669-38.269,5.669s-29.763-2.835-38.267-5.669Z" fill="#fff"/>
  </g>
  <g id="Takt_Zeichen__x28_umgewandelt_x29_">
    <path d="M3.543,17.008h-1.417v57.401h4.273c-1.729,1.293-2.855,3.35-2.855,5.671,0,3.908,3.179,7.086,7.087,7.086s7.087-3.179,7.087-7.086c0-2.32-1.126-4.377-2.855-5.671h60.985c-1.729,1.293-2.855,3.35-2.855,5.671,0,3.908,3.179,7.086,7.087,7.086s7.087-3.179,7.087-7.086c0-2.32-1.126-4.377-2.855-5.671h4.271v-1.417H3.543V17.008ZM16.3,80.08c0,3.126-2.543,5.669-5.669,5.669s-5.669-2.543-5.669-5.669,2.543-5.669,5.669-5.669,5.669,2.543,5.669,5.669ZM85.749,80.08c0,3.126-2.543,5.669-5.669,5.669s-5.669-2.543-5.669-5.669,2.543-5.669,5.669-5.669,5.669,2.543,5.669,5.669ZM87.65,16.336c-3.964,1.321-18.424,5.633-38.044,5.633-15.692,0-29.866-2.909-37.898-5.632l-.369-.037c-3.517,0-6.378,2.861-6.378,6.377,0,3.277,2.485,5.985,5.669,6.339v42.559h77.953V16.025l-.933.311ZM10.63,27.587c-2.401-.345-4.252-2.416-4.252-4.91s1.851-4.565,4.252-4.91v9.82ZM87.165,70.157H12.047V17.943c8.258,2.68,22.198,5.443,37.558,5.443,18.524,0,32.521-3.809,37.56-5.402v52.174Z"/>
  </g>
</svg>