<?xml version="1.0" encoding="UTF-8"?>
<svg xmlns="http://www.w3.org/2000/svg" version="1.1" viewBox="0 0 90.709 90.709">
  <!-- Generator: Adobe Illustrator 29.1.0, SVG Export Plug-In . SVG Version: 2.1.0 Build 142)  -->
  <g id="Grundfläche">
    <rect x="0" width="90.709" height="90.709" fill="#fff"/>
  </g>
  <g id="Flächige_Fülung">
    <path d="M11.338,73.701h76.536V16.3c-10.205,3.794-22.961,6.378-38.268,6.378s-26.929-2.241-38.268-5.67v56.693Z" fill="#fff"/>
  </g>
  <g id="Takt_Zeichen__x28_umgewandelt_x29_">
    <path d="M88.583,74.41H10.63V29.016c-3.185-.354-5.669-3.062-5.669-6.339,0-3.517,2.861-6.377,6.378-6.377l.205.03c13.073,3.953,24.456,5.639,38.062,5.639,13.925,0,26.717-2.131,38.021-6.333l.956-.355v59.13ZM12.047,72.993h75.118V17.313c-11.226,4.03-23.856,6.073-37.559,6.073-13.435,0-24.727-1.627-37.559-5.426v55.033ZM10.63,17.767c-2.401.345-4.252,2.415-4.252,4.91s1.851,4.565,4.252,4.91v-9.82Z"/>
  </g>
</svg>