<?xml version="1.0" encoding="UTF-8"?>
<svg xmlns="http://www.w3.org/2000/svg" version="1.1" viewBox="0 0 90.709 90.709">
  <!-- Generator: Adobe Illustrator 29.1.0, SVG Export Plug-In . SVG Version: 2.1.0 Build 142)  -->
  <g id="Grundfläche">
    <rect x="0" width="90.709" height="90.709" fill="#fff"/>
  </g>
  <g id="Takt_Zeichen__x28_umgewandelt_x29_">
    <path d="M48.69,33.514l11.84,11.84-11.84,11.84-1.002-1.002,10.129-10.129H5.669v-1.417h52.148l-10.129-10.129,1.002-1.002ZM85.748,45.354c0,6.643-5.405,12.047-12.047,12.047s-12.047-5.404-12.047-12.047,5.405-12.047,12.047-12.047,12.047,5.404,12.047,12.047ZM84.331,45.354c0-5.861-4.769-10.63-10.63-10.63s-10.63,4.769-10.63,10.63,4.769,10.63,10.63,10.63,10.63-4.769,10.63-10.63Z"/>
  </g>
</svg>