<?xml version="1.0" encoding="UTF-8"?>
<svg xmlns="http://www.w3.org/2000/svg" version="1.1" viewBox="0 0 90.709 90.709">
  <!-- Generator: Adobe Illustrator 29.1.0, SVG Export Plug-In . SVG Version: 2.1.0 Build 142)  -->
  <g id="Grundfläche">
    <rect x="0" width="90.709" height="90.709" fill="#fff"/>
  </g>
  <g id="Takt_Zeichen__x28_umgewandelt_x29_">
    <path d="M65.197,45.354c0-6.262,5.076-11.339,11.339-11.339,6.262,0,11.339,5.076,11.339,11.339,0,6.262-5.076,11.339-11.339,11.339-6.262,0-11.339-5.076-11.339-11.339ZM45.354,56.693c6.262,0,11.339-5.076,11.339-11.339,0-6.262-5.076-11.339-11.339-11.339s-11.339,5.076-11.339,11.339c0,6.262,5.076,11.339,11.339,11.339ZM14.173,56.693c6.262,0,11.339-5.076,11.339-11.339,0-6.262-5.076-11.339-11.339-11.339s-11.339,5.076-11.339,11.339,5.076,11.339,11.339,11.339Z"/>
  </g>
</svg>