<?xml version="1.0" encoding="UTF-8"?>
<svg xmlns="http://www.w3.org/2000/svg" version="1.1" viewBox="0 0 90.709 90.709">
  <!-- Generator: Adobe Illustrator 29.1.0, SVG Export Plug-In . SVG Version: 2.1.0 Build 142)  -->
  <g id="Grundfläche">
    <rect x="0" width="90.709" height="90.709" fill="#fff"/>
  </g>
  <g id="Flächige_Fülung">
    <polygon points="2.835 79.37 45.354 8.504 87.874 79.37 2.835 79.37" fill="#fff"/>
  </g>
  <g id="Takt_Zeichen__x28_umgewandelt_x29_">
    <path d="M45.354,41.811c-3.857,0-7.364,1.487-10.01,3.902l-3.68-3.429-.966,1.037,3.645,3.396c-2.396,2.643-3.87,6.136-3.87,9.975,0,8.206,6.676,14.881,14.882,14.881s14.882-6.676,14.882-14.881c0-3.84-1.474-7.333-3.87-9.975l3.645-3.396-.966-1.037-3.68,3.429c-2.647-2.415-6.154-3.902-10.01-3.902ZM45.354,70.157c-7.424,0-13.464-6.04-13.464-13.464s6.04-13.465,13.464-13.465,13.465,6.041,13.465,13.465-6.04,13.464-13.465,13.464ZM45.354,7.127L2.227,79.005l.608,1.073h85.039l.608-1.073L45.354,7.127ZM4.086,78.661L45.354,9.882l41.268,68.78H4.086ZM53.858,56.693c0,4.697-3.807,8.504-8.504,8.504s-8.504-3.807-8.504-8.504,3.807-8.504,8.504-8.504,8.504,3.807,8.504,8.504Z" fill="#fa1919"/>
  </g>
</svg>