<?xml version="1.0" encoding="UTF-8"?>
<svg xmlns="http://www.w3.org/2000/svg" version="1.1" viewBox="0 0 90.709 90.709">
  <!-- Generator: Adobe Illustrator 29.1.0, SVG Export Plug-In . SVG Version: 2.1.0 Build 142)  -->
  <g id="Grundfläche">
    <rect x="0" y="0" width="90.709" height="90.709" fill="#fff"/>
  </g>
  <g id="Flächige_Fülung">
    <rect x="19.297" y="19.297" width="52.114" height="52.114" transform="translate(45.354 -18.786) rotate(45)" fill="#fff"/>
  </g>
  <g id="Takt_Zeichen__x28_umgewandelt_x29_">
    <path d="M45.354,7.502L7.502,45.354l37.853,37.853,37.853-37.853L45.354,7.502ZM46.063,10.215l35.139,35.139-35.139,35.139V10.215ZM44.646,10.215v70.279L9.506,45.354,44.646,10.215Z"/>
  </g>
  <g id="Takt._Zeichen__x28_Typo_x29_">
    <g>
      <path d="M8.9,72.797h-1.66v-1.561h5.481v1.561h-1.66v10.682h1.7v1.561h-5.581v-1.561h1.72v-10.682Z"/>
      <path d="M16.3,72.797h-1.66v-1.561h5.481v1.561h-1.66v10.682h1.7v1.561h-5.581v-1.561h1.72v-10.682Z"/>
    </g>
  </g>
</svg>