<?xml version="1.0" encoding="UTF-8"?>
<svg xmlns="http://www.w3.org/2000/svg" version="1.1" viewBox="0 0 90.709 90.709">
  <!-- Generator: Adobe Illustrator 29.1.0, SVG Export Plug-In . SVG Version: 2.1.0 Build 142)  -->
  <g id="Grundfläche">
    <rect x="0" width="90.709" height="90.709" fill="#fff"/>
  </g>
  <g id="Takt_Zeichen__x28_umgewandelt_x29_">
    <path d="M30.016,40.33l-8.756,5.055,8.756,5.055-.708,1.228-8.756-5.055v10.111h-1.417v-10.111l-8.757,5.055-.708-1.228,8.756-5.055-8.756-5.055.708-1.228,8.757,5.056v-10.111h1.417v10.111l8.756-5.055.708,1.228ZM81.04,40.33l-.708-1.228-8.757,5.056v-10.111h-1.417v10.111l-8.756-5.055-.708,1.228,8.756,5.055-8.756,5.055.708,1.228,8.756-5.055v10.111h1.417v-10.111l8.757,5.055.708-1.228-8.756-5.055,8.756-5.055ZM54.82,39.102l-8.757,5.056v-10.111h-1.417v10.111l-8.756-5.055-.708,1.228,8.756,5.055-8.756,5.055.708,1.228,8.756-5.055v10.111h1.417v-10.111l8.757,5.055.708-1.228-8.756-5.055,8.756-5.055-.708-1.228Z"/>
  </g>
</svg>