<?xml version="1.0" encoding="UTF-8"?>
<svg xmlns="http://www.w3.org/2000/svg" version="1.1" viewBox="0 0 90.709 90.709">
  <!-- Generator: Adobe Illustrator 29.1.0, SVG Export Plug-In . SVG Version: 2.1.0 Build 142)  -->
  <g id="Grundfläche">
    <rect x="0" width="90.709" height="90.709" fill="#fff"/>
  </g>
  <g id="Flächige_Fülung">
    <polyline points="45.353 76.535 8.504 39.685 45.354 2.835 82.205 39.685 45.353 76.535" fill="#fff"/>
  </g>
  <g id="Takt_Zeichen__x28_umgewandelt_x29_">
    <path d="M85.758,76.535l-.01-.01v-11.329h-1.417v9.912l-10.414-10.413-1.002,1.002,10.129,10.129h-35.981l36.143-36.142L45.354,1.833,7.502,39.685l36.14,36.142H8.504v1.417h36.555l.294.294.294-.294h37.398l-10.129,10.129,1.002,1.002,10.413-10.412v9.911h1.417v-11.328l.01-.01ZM45.354,3.837l35.848,35.848-35.85,35.849L9.506,39.685,45.354,3.837Z"/>
  </g>
</svg>