<?xml version="1.0" encoding="UTF-8"?>
<svg xmlns="http://www.w3.org/2000/svg" version="1.1" viewBox="0 0 102.047 90.709">
  <!-- Generator: Adobe Illustrator 29.1.0, SVG Export Plug-In . SVG Version: 2.1.0 Build 142)  -->
  <g id="Grundfläche">
    <rect x="11.339" width="90.709" height="90.709" fill="#fff"/>
  </g>
  <g id="Flächige_Fülung">
    <rect x="50.822" y="25.31" width="40.088" height="40.088" transform="translate(52.827 -36.826) rotate(45)" fill="#fff"/>
  </g>
  <g id="Takt_Zeichen__x28_umgewandelt_x29_">
    <path d="M21.474,49.606c0,4.764-3.738,8.221-8.887,8.221s-8.455-2.17-9.859-6.45l2.155-.707c1.094,3.335,3.542,4.889,7.704,4.889,3.959,0,6.619-2.393,6.619-5.953,0-3.95-2.754-5.953-8.186-5.953l-.095-2.264c2.348-.198,7.808-1.174,7.808-5.957,0-3.449-2.585-5.953-6.147-5.953-3.511,0-5.552,1.084-6.823,3.625l-2.028-1.015c1.665-3.328,4.477-4.878,8.851-4.878,4.797,0,8.415,3.534,8.415,8.221,0,3.042-1.6,5.412-4.457,6.826,4.172,1.602,4.929,5.054,4.929,7.347ZM31.181,55.559c-.703,0-1.276.572-1.276,1.276s.572,1.275,1.276,1.275,1.275-.572,1.275-1.275-.572-1.276-1.275-1.276ZM31.181,27.213c-3.757,0-6.482,1.642-8.101,4.879l2.028,1.014c1.237-2.473,3.166-3.625,6.072-3.625,2.963,0,5.953,1.622,5.953,5.244,0,2.646-1.98,3.788-5.24,5.354-2.858,1.372-6.098,2.927-6.098,6.694,0,2.97,2.416,5.386,5.386,5.386,2.499,0,4.538-1.376,5.321-3.591l-2.138-.756c-.46,1.302-1.65,2.079-3.183,2.079-1.719,0-3.118-1.399-3.118-3.118,0-2.182,1.818-3.212,4.812-4.649,3.059-1.469,6.527-3.133,6.527-7.398,0-4.353-3.457-7.512-8.22-7.512ZM70.866,16.206l29.148,29.148-29.148,29.148-29.148-29.148,29.148-29.148ZM70.299,18.377l-26.978,26.978,26.978,26.978V18.377ZM71.433,72.332l26.978-26.978-26.978-26.978v53.956Z"/>
  </g>
</svg>