<?xml version="1.0" encoding="UTF-8"?>
<svg xmlns="http://www.w3.org/2000/svg" version="1.1" viewBox="0 0 90.709 90.709">
  <!-- Generator: Adobe Illustrator 29.1.0, SVG Export Plug-In . SVG Version: 2.1.0 Build 142)  -->
  <g id="Grundfläche">
    <rect x="0" width="90.709" height="90.709" fill="#fff"/>
  </g>
  <g id="Takt_Zeichen__x28_umgewandelt_x29_">
    <path d="M85.943,33.829l-1.002-1.002-11.525,11.525-13.029-13.029,11.525-11.525-1.002-1.002-11.525,11.525-13.029-13.029,11.525-11.525-1.002-1.002-11.525,11.525-11.525-11.525-1.002,1.002,11.525,11.525-13.029,13.029-11.525-11.525-1.002,1.002,11.525,11.525-13.029,13.029-11.525-11.525-1.002,1.002,11.525,11.525-11.525,11.525,1.002,1.002,11.525-11.525,13.029,13.029-11.525,11.525,1.002,1.002,11.525-11.525,13.029,13.029-11.525,11.525,1.002,1.002,11.525-11.525,11.525,11.525,1.002-1.002-11.525-11.525,13.029-13.029,11.525,11.525,1.002-1.002-11.525-11.525,13.029-13.029,11.525,11.525,1.002-1.002-11.525-11.525,11.525-11.525ZM45.354,18.295l13.029,13.029-13.029,13.029-13.029-13.029,13.029-13.029ZM18.295,45.354l13.029-13.029,13.029,13.029-13.029,13.029-13.029-13.029ZM45.354,72.414l-13.029-13.029,13.029-13.029,13.029,13.029-13.029,13.029ZM59.385,58.383l-13.029-13.029,13.029-13.029,13.029,13.029-13.029,13.029Z" fill="#fa1919"/>
  </g>
</svg>