<?xml version="1.0" encoding="UTF-8"?>
<svg xmlns="http://www.w3.org/2000/svg" version="1.1" viewBox="0 0 90.709 90.709">
  <!-- Generator: Adobe Illustrator 29.1.0, SVG Export Plug-In . SVG Version: 2.1.0 Build 142)  -->
  <g id="Grundfläche">
    <rect x="0" width="90.709" height="90.709" fill="#fff"/>
  </g>
  <g id="Flächige_Fülung">
    <polygon points="21.26 70.866 53.858 17.008 86.457 70.866 21.26 70.866" fill="#fff"/>
  </g>
  <g id="Takt_Zeichen__x28_umgewandelt_x29_">
    <path d="M86.457,71.574H21.26l-.606-1.076L53.858,15.639l33.205,54.859-.606,1.076ZM22.517,70.157h62.682l-31.341-51.781-31.341,51.781ZM14.173,55.134c-.938,0-1.701.763-1.701,1.701s.763,1.701,1.701,1.701,1.701-.763,1.701-1.701-.763-1.701-1.701-1.701ZM19.494,48.567l-2.138-.756c-.46,1.302-1.65,2.079-3.183,2.079-1.719,0-3.118-1.399-3.118-3.118,0-2.182,1.818-3.212,4.812-4.649,3.059-1.469,6.527-3.133,6.527-7.398,0-4.353-3.457-7.512-8.221-7.512-3.757,0-6.482,1.642-8.101,4.879l2.028,1.014c1.237-2.473,3.166-3.625,6.072-3.625,2.963,0,5.953,1.622,5.953,5.244,0,2.646-1.98,3.788-5.24,5.354-2.858,1.372-6.098,2.927-6.098,6.694,0,2.97,2.416,5.386,5.386,5.386,2.499,0,4.538-1.376,5.321-3.591Z" fill="#fa1919"/>
  </g>
</svg>