<?xml version="1.0" encoding="UTF-8"?>
<svg xmlns="http://www.w3.org/2000/svg" version="1.1" viewBox="0 0 90.709 90.709">
  <!-- Generator: Adobe Illustrator 29.1.0, SVG Export Plug-In . SVG Version: 2.1.0 Build 142)  -->
  <g id="Grundfläche">
    <rect x="0" width="90.709" height="90.709" fill="#fff"/>
  </g>
  <g id="Flächige_Fülung">
    <rect x="11.339" y="11.339" width="34.016" height="34.016" fill="#14a01e"/>
    <polygon points="45.355 11.339 79.37 11.339 79.37 79.37 11.339 79.37 11.339 45.354 45.355 45.354 45.355 11.339" fill="#fa1919"/>
    <circle cx="45.354" cy="45.354" r="14.173" fill="#fff"/>
  </g>
  <g id="Takt_Zeichen__x28_umgewandelt_x29_">
    <path d="M80.078,80.078H10.63V10.63h69.448v69.448ZM12.047,78.661h66.614V12.047h-32.598v18.442c7.878.372,14.173,6.897,14.173,14.865,0,8.206-6.676,14.882-14.882,14.882-7.969,0-14.495-6.295-14.865-14.173H12.047v32.599ZM45.354,31.889c-7.424,0-13.465,6.041-13.465,13.465s6.041,13.465,13.465,13.465,13.465-6.041,13.465-13.465-6.041-13.465-13.465-13.465ZM12.047,44.646h18.442c.36-7.644,6.513-13.797,14.157-14.157V12.047H12.047v32.599Z"/>
  </g>
  <g id="Takt._Zeichen__x28_Typo_x29_">
    <path d="M46.356,44.949v.04c1.42.38,2.601,1.24,2.601,3.221,0,2.161-1.541,3.621-4.141,3.621-1.94,0-3.081-1.04-3.46-1.5l.84-1.581c.36.42,1.121,1.32,2.541,1.32,1.4,0,2.161-.64,2.161-1.8,0-1.541-1.14-2.341-3.141-2.341h-.6l-.12-1.6h.64c2.101,0,3-1.041,3-2.46,0-1-.62-1.78-1.8-1.78-1.2,0-2.041.64-2.42,1.04l-.74-1.36c.48-.5,1.661-1.42,3.541-1.42,2.04,0,3.4,1.201,3.4,3.321,0,1.8-1,2.761-2.3,3.281Z"/>
  </g>
</svg>