<?xml version="1.0" encoding="UTF-8"?>
<svg xmlns="http://www.w3.org/2000/svg" version="1.1" viewBox="0 0 90.709 90.709">
  <!-- Generator: Adobe Illustrator 29.1.0, SVG Export Plug-In . SVG Version: 2.1.0 Build 142)  -->
  <g id="Grundfläche">
    <rect x="0" width="90.709" height="90.709" fill="#fff"/>
  </g>
  <g id="Flächige_Fülung">
    <rect x="19.297" y="19.297" width="52.115" height="52.114" transform="translate(-18.786 45.353) rotate(-44.999)" fill="#fff"/>
  </g>
  <g id="Takt_Zeichen__x28_umgewandelt_x29_">
    <path d="M19.842,82.913c-3.517,0-6.378-2.861-6.378-6.378s2.861-6.378,6.378-6.378,6.378,2.861,6.378,6.378-2.861,6.378-6.378,6.378ZM19.842,71.574c-2.736,0-4.961,2.226-4.961,4.961s2.226,4.961,4.961,4.961,4.961-2.226,4.961-4.961-2.226-4.961-4.961-4.961ZM70.866,82.913c-3.517,0-6.378-2.861-6.378-6.378s2.861-6.378,6.378-6.378,6.378,2.861,6.378,6.378-2.861,6.378-6.378,6.378ZM70.866,71.574c-2.735,0-4.961,2.226-4.961,4.961s2.226,4.961,4.961,4.961,4.961-2.226,4.961-4.961-2.226-4.961-4.961-4.961ZM45.353,83.207L7.502,45.354,45.354,7.502l37.853,37.852-37.854,37.853ZM9.506,45.354l35.847,35.848,35.849-35.848L45.354,9.506,9.506,45.354Z"/>
  </g>
</svg>