<?xml version="1.0" encoding="UTF-8"?>
<svg xmlns="http://www.w3.org/2000/svg" version="1.1" viewBox="0 0 90.709 90.709">
  <!-- Generator: Adobe Illustrator 29.1.0, SVG Export Plug-In . SVG Version: 2.1.0 Build 142)  -->
  <g id="Grundfläche">
    <rect x="0" width="90.709" height="90.709" fill="#fff"/>
  </g>
  <g id="Flächige_Fülung">
    <rect x="19.297" y="19.297" width="52.114" height="52.114" transform="translate(45.354 -18.786) rotate(45)" fill="#fff"/>
  </g>
  <g id="Takt_Zeichen__x28_umgewandelt_x29_">
    <path d="M83.207,45.354L45.354,7.502,7.502,45.354l15.102,15.103-9.084,21.471,1.306.553,8.86-20.942,21.668,21.668,21.668-21.668,8.86,20.942,1.306-.553-9.084-21.471,15.103-15.103ZM67.508,59.049L47.423,11.575l33.78,33.78-13.694,13.694ZM9.506,45.354L43.286,11.575l-20.085,47.474-13.694-13.694ZM45.354,81.202l-21.072-21.072L45.354,10.324l21.072,49.807-21.072,21.072Z"/>
  </g>
</svg>