<?xml version="1.0" encoding="UTF-8"?>
<svg xmlns="http://www.w3.org/2000/svg" version="1.1" viewBox="0 0 90.709 90.709">
  <!-- Generator: Adobe Illustrator 29.1.0, SVG Export Plug-In . SVG Version: 2.1.0 Build 142)  -->
  <g id="Grundfläche">
    <rect x="0" y="0" width="90.709" height="90.709" fill="#fff"/>
  </g>
  <g id="Flächige_Fülung">
    <polygon points="2.835 79.37 45.354 8.504 87.874 79.37 2.835 79.37" fill="#fff"/>
  </g>
  <g id="Takt_Zeichen__x28_umgewandelt_x29_">
    <path d="M87.874,80.078H2.835l-.608-1.073L45.354,7.127l43.127,71.878-.608,1.073ZM4.086,78.661h82.536L45.354,9.882,4.086,78.661ZM42.53,61.635c-1.699-.979-2.845-2.81-2.845-4.911,0-.019.003-.037.003-.056l-12.691-.056c.47,6.529,4.328,12.111,9.838,14.992l5.696-9.969ZM42.514,51.822c.836-.486,1.804-.768,2.841-.768s2.005.283,2.841.768l7.045-12.078c-2.859-1.823-6.244-2.894-9.886-2.894s-7.028,1.071-9.886,2.894l7.045,12.078ZM51.021,56.668c0,.019.003.037.003.056,0,2.102-1.146,3.932-2.845,4.911l5.696,9.969c5.51-2.881,9.368-8.463,9.838-14.992l-12.691.056ZM48.189,56.723c0-1.566-1.269-2.835-2.835-2.835s-2.835,1.269-2.835,2.835,1.269,2.835,2.835,2.835,2.835-1.269,2.835-2.835Z" fill="#fa1919"/>
  </g>
</svg>