<?xml version="1.0" encoding="UTF-8"?>
<svg xmlns="http://www.w3.org/2000/svg" version="1.1" viewBox="0 0 90.709 90.709">
  <!-- Generator: Adobe Illustrator 29.1.0, SVG Export Plug-In . SVG Version: 2.1.0 Build 142)  -->
  <g id="Grundfläche">
    <rect x="0" width="90.709" height="90.709" fill="#fff"/>
  </g>
  <g id="Takt_Zeichen__x28_umgewandelt_x29_">
    <path d="M9.188,82.389l-1.369-.368,3.316-12.317,1.369.368-3.316,12.317ZM14.715,61.86l-1.369-.368,3.316-12.317,1.369.368-3.316,12.317ZM20.242,41.331l-1.369-.368,3.316-12.317,1.369.368-3.316,12.317ZM25.769,20.802l-1.369-.368,3.262-12.115,1.369.368-3.262,12.115ZM36.117,82.389l-1.369-.368,3.316-12.317,1.369.368-3.316,12.317ZM41.644,61.86l-1.369-.368,3.316-12.317,1.369.368-3.316,12.317ZM47.171,41.331l-1.369-.368,3.316-12.317,1.369.368-3.316,12.317ZM52.698,20.802l-1.369-.368,3.262-12.115,1.369.368-3.262,12.115ZM63.046,82.389l-1.369-.368,3.316-12.317,1.369.368-3.316,12.317ZM68.573,61.86l-1.369-.368,3.316-12.317,1.369.368-3.316,12.317ZM74.1,41.331l-1.369-.368,3.316-12.317,1.369.368-3.316,12.317ZM79.627,20.802l-1.369-.368,3.262-12.115,1.369.368-3.262,12.115Z"/>
  </g>
</svg>