<?xml version="1.0" encoding="UTF-8"?>
<svg xmlns="http://www.w3.org/2000/svg" version="1.1" viewBox="0 0 90.709 90.709">
  <!-- Generator: Adobe Illustrator 29.1.0, SVG Export Plug-In . SVG Version: 2.1.0 Build 142)  -->
  <g id="Grundfläche">
    <rect x="0" y="0" width="90.709" height="90.709" fill="#fff"/>
  </g>
  <g id="Flächige_Fülung">
    <polygon points="2.835 79.37 45.354 8.504 87.874 79.37 2.835 79.37" fill="#fff"/>
  </g>
  <g id="Takt_Zeichen__x28_umgewandelt_x29_">
    <path d="M87.874,80.078H2.835l-.608-1.073L45.354,7.127l43.127,71.878-.608,1.073ZM4.086,78.661h82.536L45.354,9.882,4.086,78.661Z" fill="#fa1919"/>
  </g>
  <g id="Takt._Zeichen__x28_Typo_x29_">
    <g>
      <path d="M30.265,53.987c2.221,0,3.321.98,3.641,1.26l-.78,1.661c-.36-.34-1.26-1.081-2.8-1.081-2.361,0-4.361,1.44-4.361,5.201,0,3.861,1.58,5.401,4.141,5.401,1.721,0,2.641-.74,3.061-1.081l.601,1.581c-.42.36-1.521,1.34-3.981,1.34-3.641,0-6.122-2.101-6.122-7.162s3.341-7.122,6.602-7.122Z" fill="#fa1919"/>
      <path d="M41.925,68.03v-5.721c0-1.66-.521-2.42-1.761-2.42-1.06,0-1.78.5-2.181.88v7.261h-2.04v-14.123l2.04-.2v5.621h.04c.42-.46,1.261-1.2,2.781-1.2,2.041,0,3.141,1.32,3.141,3.861v6.041h-2.021Z" fill="#fa1919"/>
      <path d="M48.663,65.31c0,.98.261,1.26.9,1.26.34,0,.58-.08.7-.12l.12,1.42c-.14.1-.66.34-1.48.34-1.42,0-2.26-.66-2.26-2.681v-11.623l2.02-.2v11.603Z" fill="#fa1919"/>
      <path d="M55.844,68.27c-2.4,0-4.261-1.601-4.261-5.081,0-3.461,2.12-5.061,4.461-5.061,2.4,0,4.241,1.56,4.241,5.061,0,3.44-2.121,5.081-4.441,5.081ZM55.944,59.888c-1.3,0-2.281,1-2.281,3.301,0,2.32.98,3.321,2.281,3.321,1.32,0,2.26-1.021,2.26-3.321,0-2.321-.98-3.301-2.26-3.301Z" fill="#fa1919"/>
      <path d="M67.604,60.109c-.1-.06-.36-.16-.82-.16-1.2,0-1.88.64-2.18,1.2v6.881h-2.041v-9.662h1.88v1.38h.04c.36-.78,1.02-1.56,2.44-1.56.4,0,.7.08.84.12l-.16,1.801Z" fill="#fa1919"/>
    </g>
  </g>
</svg>