<?xml version="1.0" encoding="UTF-8"?>
<svg xmlns="http://www.w3.org/2000/svg" version="1.1" viewBox="0 0 90.709 90.709">
  <!-- Generator: Adobe Illustrator 29.1.0, SVG Export Plug-In . SVG Version: 2.1.0 Build 142)  -->
  <g id="Grundfläche">
    <rect x="0" width="90.709" height="90.709" fill="#fff"/>
  </g>
  <g id="Takt_Zeichen__x28_umgewandelt_x29_">
    <g>
      <polygon points="25.481 40.556 10.993 44.179 20.683 21.539 19.38 20.981 9.128 44.934 9.951 45.9 24.458 42.273 12.829 70.261 10.593 63.555 9.249 64.004 12.298 73.151 22.871 70.131 22.482 68.767 13.974 71.198 26.308 41.516 25.481 40.556"/>
      <polygon points="52.41 40.556 37.922 44.179 47.612 21.539 46.309 20.981 36.057 44.934 36.88 45.9 51.387 42.273 39.758 70.261 37.522 63.555 36.178 64.004 39.227 73.151 49.801 70.131 49.411 68.767 40.903 71.198 53.237 41.516 52.41 40.556"/>
      <polygon points="69.249 71.198 81.583 41.516 80.757 40.556 66.268 44.179 75.959 21.539 74.655 20.981 64.403 44.934 65.227 45.9 79.734 42.273 68.104 70.261 65.869 63.555 64.524 64.004 67.574 73.151 78.147 70.131 77.758 68.767 69.249 71.198"/>
    </g>
  </g>
</svg>