<?xml version="1.0" encoding="UTF-8"?>
<svg xmlns="http://www.w3.org/2000/svg" version="1.1" viewBox="0 0 90.709 90.709">
  <!-- Generator: Adobe Illustrator 29.1.0, SVG Export Plug-In . SVG Version: 2.1.0 Build 142)  -->
  <g id="Grundfläche">
    <rect x="0" y="0" width="90.709" height="90.709" fill="#fff"/>
  </g>
  <g id="Flächige_Fülung">
    <rect x="19.297" y="19.297" width="52.114" height="52.114" transform="translate(45.354 -18.786) rotate(45)" fill="#fff"/>
  </g>
  <g id="Takt_Zeichen__x28_umgewandelt_x29_">
    <path d="M45.354,83.207L7.502,45.354,45.354,7.502l37.853,37.852-37.853,37.853ZM9.506,45.354l35.848,35.848,35.848-35.848L45.354,9.506,9.506,45.354Z"/>
  </g>
  <g id="Takt._Zeichen__x28_Typo_x29_">
    <path d="M78.387,12.741v.04c1.48.28,2.881,1.36,2.881,3.261,0,2.221-1.64,3.801-5.521,3.801h-3.26V6.04h3.081c3.901,0,5.321,1.38,5.321,3.581,0,1.96-1.22,2.72-2.5,3.12ZM75.566,7.78h-.92v4.241h.9c2.12,0,3.121-.84,3.121-2.28,0-1.181-.88-1.961-3.101-1.961ZM75.866,13.761h-1.22v4.321h1.1c2.321,0,3.261-.76,3.261-2.201,0-1.36-1.14-2.12-3.141-2.12Z"/>
  </g>
</svg>