<?xml version="1.0" encoding="UTF-8"?>
<svg xmlns="http://www.w3.org/2000/svg" version="1.1" viewBox="0 0 90.709 90.709">
  <!-- Generator: Adobe Illustrator 29.1.0, SVG Export Plug-In . SVG Version: 2.1.0 Build 142)  -->
  <g id="Grundfläche">
    <rect x="0" y="0" width="90.709" height="90.709" fill="#fff"/>
  </g>
  <g id="Flächige_Fülung">
    <rect x="19.297" y="19.297" width="52.114" height="52.114" transform="translate(45.354 -18.786) rotate(45)" fill="#fff"/>
  </g>
  <g id="Takt_Zeichen__x28_umgewandelt_x29_">
    <rect x="59.362" y="11.961" width="27.088" height="1.417" transform="translate(14.42 58.004) rotate(-47.639)"/>
    <rect x="74.496" y="-.407" width="1.417" height="26.154" transform="translate(9.498 51.386) rotate(-40.071)"/>
    <path d="M7.502,45.354l37.853,37.853,37.853-37.853L45.354,7.502,7.502,45.354ZM44.646,10.215v70.279L9.506,45.354,44.646,10.215ZM46.063,80.494V10.215l35.139,35.139-35.139,35.139Z"/>
    <circle cx="85.039" cy="5.669" r="4.252"/>
    <path d="M85.039,10.628c-1.27,0-2.541-.483-3.508-1.451h0c-.937-.937-1.453-2.183-1.453-3.508s.516-2.571,1.453-3.507c.937-.937,2.182-1.453,3.508-1.453s2.571.516,3.508,1.453c.937.937,1.453,2.182,1.453,3.507s-.516,2.571-1.453,3.508c-.967.967-2.238,1.451-3.508,1.451ZM82.534,8.175c1.382,1.381,3.629,1.381,5.011,0,.669-.669,1.038-1.559,1.038-2.506s-.368-1.836-1.038-2.505c-1.339-1.339-3.673-1.339-5.011,0-.669.669-1.038,1.559-1.038,2.505s.369,1.836,1.038,2.506h0Z"/>
    <circle cx="63.78" cy="5.669" r="4.252"/>
    <path d="M63.78,10.628c-1.271,0-2.541-.483-3.508-1.451-.937-.937-1.453-2.183-1.453-3.508s.516-2.571,1.453-3.507c.937-.937,2.182-1.453,3.508-1.453s2.571.516,3.508,1.453c.937.937,1.453,2.182,1.453,3.507s-.516,2.571-1.453,3.508h0c-.967.967-2.238,1.451-3.508,1.451ZM63.78,2.126c-.947,0-1.836.368-2.505,1.038-.669.669-1.038,1.559-1.038,2.505s.369,1.836,1.038,2.506c1.381,1.381,3.629,1.381,5.011,0,.669-.669,1.038-1.559,1.038-2.506s-.368-1.836-1.038-2.505c-.669-.669-1.559-1.038-2.506-1.038Z"/>
  </g>
</svg>