<?xml version="1.0" encoding="UTF-8"?>
<svg xmlns="http://www.w3.org/2000/svg" version="1.1" viewBox="0 0 90.709 90.709">
  <!-- Generator: Adobe Illustrator 29.1.0, SVG Export Plug-In . SVG Version: 2.1.0 Build 142)  -->
  <g id="Grundfläche">
    <rect x="0" y="0" width="90.709" height="90.709" fill="#fff"/>
  </g>
  <g id="Flächige_Fülung">
    <rect x="19.297" y="19.297" width="52.114" height="52.114" transform="translate(45.354 -18.786) rotate(45)" fill="#fff"/>
  </g>
  <g id="Takt_Zeichen__x28_umgewandelt_x29_">
    <path d="M45.354,7.502L7.502,45.354l37.853,37.853,37.853-37.853L45.354,7.502ZM46.063,10.215l35.139,35.139-35.139,35.139V10.215ZM44.646,10.215v70.279L9.506,45.354,44.646,10.215Z"/>
  </g>
  <g id="Takt._Zeichen__x28_Typo_x29_">
    <g>
      <path d="M73.223,7.82h-4.161v12.022h-2.16V7.82h-4.181v-1.78h10.642l-.14,1.78Z"/>
      <path d="M78.582,15.122h-.98v4.721h-2.16V6.04h3.24c3.941,0,5.701,1.58,5.701,4.341,0,2.901-1.94,4.741-5.801,4.741ZM78.682,7.82h-1.08v5.501h.98c2.42,0,3.521-1.04,3.521-2.86,0-1.72-1.06-2.641-3.421-2.641Z"/>
    </g>
  </g>
</svg>