<?xml version="1.0" encoding="UTF-8"?>
<svg xmlns="http://www.w3.org/2000/svg" version="1.1" viewBox="0 0 90.709 90.709">
  <!-- Generator: Adobe Illustrator 29.1.0, SVG Export Plug-In . SVG Version: 2.1.0 Build 142)  -->
  <g id="Grundfläche">
    <rect x="0" width="90.709" height="90.709" fill="#fff"/>
  </g>
  <g id="Takt_Zeichen__x28_umgewandelt_x29_">
    <path d="M78.927,26.814l-1.002-1.002-18.541,18.541-13.029-13.029,18.541-18.541-1.002-1.002-18.541,18.541L26.813,11.781l-1.002,1.002,18.541,18.541-13.029,13.029L12.782,25.812l-1.002,1.002,18.541,18.541-18.541,18.541,1.002,1.002,18.541-18.541,13.029,13.029-18.541,18.541,1.002,1.002,18.541-18.541,18.541,18.541,1.002-1.002-18.541-18.541,13.029-13.029,18.541,18.541,1.002-1.002-18.541-18.541,18.541-18.541ZM45.354,58.383l-13.029-13.029,13.029-13.029,13.029,13.029-13.029,13.029Z" fill="#fa1919"/>
  </g>
</svg>