<?xml version="1.0" encoding="UTF-8"?>
<svg xmlns="http://www.w3.org/2000/svg" version="1.1" viewBox="0 0 102.047 90.709">
  <!-- Generator: Adobe Illustrator 29.1.0, SVG Export Plug-In . SVG Version: 2.1.0 Build 142)  -->
  <g id="Grundfläche">
    <rect x="11.339" width="90.709" height="90.709" fill="#fff"/>
  </g>
  <g id="Flächige_Fülung">
    <rect x="39.484" y="25.31" width="40.088" height="40.088" transform="translate(49.506 -28.808) rotate(45)" fill="#fff"/>
  </g>
  <g id="Takt_Zeichen__x28_umgewandelt_x29_">
    <path d="M19.701,56.835c0,.703-.572,1.275-1.275,1.275s-1.276-.572-1.276-1.275.572-1.276,1.276-1.276,1.275.572,1.275,1.276ZM18.425,27.213c-3.756,0-6.482,1.641-8.101,4.878l2.028,1.015c1.237-2.474,3.167-3.625,6.073-3.625,2.963,0,5.953,1.622,5.953,5.244,0,2.646-1.98,3.788-5.24,5.354-2.858,1.372-6.098,2.927-6.098,6.694,0,2.97,2.416,5.386,5.386,5.386,2.499,0,4.538-1.376,5.321-3.591l-2.138-.756c-.46,1.302-1.65,2.079-3.183,2.079-1.719,0-3.118-1.399-3.118-3.118,0-2.182,1.818-3.212,4.812-4.649,3.059-1.469,6.527-3.133,6.527-7.398,0-4.353-3.457-7.512-8.22-7.512ZM88.676,45.354l-29.148,29.148-29.148-29.148,29.148-29.148,29.148,29.148ZM58.961,18.377l-26.978,26.978,26.978,26.978V18.377ZM60.094,72.332l26.978-26.978-26.978-26.978v53.956Z"/>
  </g>
</svg>