<?xml version="1.0" encoding="UTF-8"?>
<svg xmlns="http://www.w3.org/2000/svg" version="1.1" viewBox="0 0 90.709 90.709">
  <!-- Generator: Adobe Illustrator 29.1.0, SVG Export Plug-In . SVG Version: 2.1.0 Build 142)  -->
  <g id="Grundfläche">
    <rect x="0" width="90.709" height="90.709" fill="#fff"/>
  </g>
  <g id="Flächige_Fülung">
    <rect x="2.835" y="17.008" width="85.04" height="56.693" fill="#fa1919"/>
  </g>
  <g id="Takt_Zeichen__x28_umgewandelt_x29_">
    <path d="M2.126,74.409h86.457V16.299H2.126v58.11ZM3.543,17.716h83.622v55.276H3.543V17.716Z"/>
    <path d="M45.354,14.173c2.348,0,4.252-1.904,4.252-4.252s-1.904-4.252-4.252-4.252-4.252,1.904-4.252,4.252,1.904,4.252,4.252,4.252Z"/>
    <path d="M59.528,14.173c2.348,0,4.252-1.904,4.252-4.252s-1.904-4.252-4.252-4.252-4.252,1.904-4.252,4.252,1.904,4.252,4.252,4.252Z"/>
    <circle cx="31.181" cy="9.921" r="4.252"/>
  </g>
  <g id="Takt._Zeichen__x28_Typo_x29_">
    <g>
      <path d="M7.409,51.024v-13.803h7.822l-.14,1.781h-5.521v4.561h5.101v1.78h-5.101v5.681h-2.16Z"/>
      <path d="M25.991,38.481l-6.541,10.722v.04h7.082l-.14,1.78h-9.762v-1.28l6.661-10.722v-.04h-6.281v-1.761h8.982v1.261Z"/>
      <path d="M33.11,45.722h-5.481v-1.64h5.481v1.64Z"/>
    </g>
  </g>
</svg>