<?xml version="1.0" encoding="UTF-8"?>
<svg xmlns="http://www.w3.org/2000/svg" version="1.1" viewBox="0 0 90.709 90.709">
  <!-- Generator: Adobe Illustrator 29.1.0, SVG Export Plug-In . SVG Version: 2.1.0 Build 142)  -->
  <g id="Grundfläche">
    <rect x="0" width="90.709" height="90.709" fill="#fff"/>
  </g>
  <g id="Flächige_Fülung">
    <rect x="2.834" y="17.008" width="85.04" height="56.693" fill="#fa1919"/>
  </g>
  <g id="Takt_Zeichen__x28_umgewandelt_x29_">
    <path d="M2.125,74.409h86.457V16.299H2.125v58.11ZM3.543,17.716h83.622v55.276H3.543V17.716ZM69.653,31.181c0,3.517-2.861,6.378-6.378,6.378s-6.378-2.861-6.378-6.378c0-.227.013-.451.036-.672l-10.577,10.582,19.549,19.559v-9.627h1.417v12.047h-12.047v-1.417h9.628l-19.55-19.56-19.55,19.56h9.628v1.417h-12.047v-12.047h1.417v9.627l19.549-19.559-10.577-10.583c.023.221.036.445.036.672,0,3.517-2.861,6.378-6.378,6.378s-6.378-2.861-6.378-6.378,2.861-6.377,6.378-6.377c1.758,0,4.51,1.868,4.51,1.868l13.411,13.418,13.413-13.416c1.155-1.155,2.749-1.87,4.508-1.87,3.517,0,6.378,2.861,6.378,6.377Z"/>
    <circle cx="59.528" cy="9.921" r="4.252"/>
    <path d="M31.181,14.173c2.348,0,4.252-1.904,4.252-4.252,0-2.348-1.904-4.252-4.252-4.252s-4.252,1.904-4.252,4.252,1.904,4.252,4.252,4.252Z"/>
  </g>
  <g id="Takt._Zeichen__x28_Typo_x29_">
    <path d="M50.496,64.156c-.42.36-1.7,1.28-4.201,1.28-3.641,0-6.341-1.92-6.341-7.201,0-4.941,3.381-7.082,6.761-7.082,2.32,0,3.481.96,3.841,1.24l-.74,1.701c-.32-.28-1.3-1.1-3.041-1.1-2.4,0-4.521,1.5-4.521,5.241,0,3.761,1.56,5.361,4.321,5.361.7,0,1.32-.12,1.84-.28v-3.521h-2.48v-1.781h4.561v6.142Z"/>
  </g>
</svg>