<?xml version="1.0" encoding="UTF-8"?>
<svg xmlns="http://www.w3.org/2000/svg" version="1.1" viewBox="0 0 90.709 90.709">
  <!-- Generator: Adobe Illustrator 29.1.0, SVG Export Plug-In . SVG Version: 2.1.0 Build 142)  -->
  <g id="Grundfläche">
    <rect x="0" width="90.709" height="90.709" fill="#fff"/>
  </g>
  <g id="Flächige_Fülung">
    <rect x="2.835" y="25.512" width="85.04" height="56.693" fill="#fa1919"/>
  </g>
  <g id="Takt_Zeichen__x28_umgewandelt_x29_">
    <path d="M45.354,11.338c2.348,0,4.252-1.904,4.252-4.252s-1.904-4.252-4.252-4.252-4.252,1.904-4.252,4.252,1.904,4.252,4.252,4.252Z"/>
    <circle cx="45.354" cy="18.425" r="4.252"/>
    <path d="M2.126,82.913h86.457V24.803H2.126v58.11ZM87.166,80.494l-25.927-25.927h25.927v25.927ZM87.166,53.15h-25.927l25.927-25.927v25.927ZM3.543,26.22h82.62l-26.929,26.929H3.543v-26.929ZM3.543,54.567h55.691l26.929,26.93H3.543v-26.93Z"/>
  </g>
</svg>