<?xml version="1.0" encoding="UTF-8"?>
<svg xmlns="http://www.w3.org/2000/svg" version="1.1" viewBox="0 0 90.709 90.709">
  <!-- Generator: Adobe Illustrator 29.1.0, SVG Export Plug-In . SVG Version: 2.1.0 Build 142)  -->
  <g id="Grundfläche">
    <rect x="0" width="90.709" height="90.709" fill="#fff"/>
  </g>
  <g id="Flächige_Fülung">
    <rect x="2.835" y="17.008" width="85.04" height="56.693" fill="#fa1919"/>
  </g>
  <g id="Takt_Zeichen__x28_umgewandelt_x29_">
    <path d="M82.478,31.835l-.545-1.309-16.878,7.033H27.638v5.618c-1.695-.235-2.643-1.313-3.719-2.542-1.262-1.442-2.692-3.076-5.494-3.076s-4.232,1.634-5.494,3.076c-1.217,1.391-2.269,2.593-4.427,2.593v1.417c2.802,0,4.232-1.634,5.494-3.076,1.217-1.391,2.269-2.593,4.427-2.593s3.21,1.202,4.427,2.593c1.149,1.313,2.449,2.771,4.785,3.024v4.254c-1.694-.235-2.643-1.313-3.719-2.542-1.262-1.442-2.692-3.077-5.494-3.077s-4.232,1.634-5.494,3.077c-1.218,1.391-2.269,2.593-4.427,2.593v1.417c2.802,0,4.232-1.634,5.494-3.077,1.217-1.391,2.269-2.593,4.427-2.593s3.21,1.202,4.427,2.593c1.149,1.313,2.45,2.771,4.785,3.024v2.887h37.417l16.878,7.032.545-1.309-16.572-6.905v-13.228l16.572-6.905ZM64.489,51.733H29.055v-12.756h35.433v12.756ZM2.126,74.409h86.457V16.299H2.126v58.11ZM3.543,17.716h83.622v55.276H3.543V17.716Z"/>
    <circle cx="45.354" cy="9.921" r="4.252"/>
    <circle cx="59.528" cy="9.921" r="4.252"/>
    <path d="M31.181,14.173c2.348,0,4.252-1.904,4.252-4.252s-1.904-4.252-4.252-4.252-4.252,1.904-4.252,4.252,1.904,4.252,4.252,4.252Z"/>
  </g>
</svg>