<?xml version="1.0" encoding="UTF-8"?>
<svg xmlns="http://www.w3.org/2000/svg" version="1.1" viewBox="0 0 90.709 90.709">
  <!-- Generator: Adobe Illustrator 29.1.0, SVG Export Plug-In . SVG Version: 2.1.0 Build 142)  -->
  <g id="Grundfläche">
    <rect x="0" width="90.709" height="90.709" fill="#fff"/>
  </g>
  <g id="Flächige_Fülung">
    <path d="M45.355,22.678c-17.008,0-31.181-2.582-42.52-6.378v57.402h85.04V16.3c-11.339,3.794-25.512,6.378-42.52,6.378Z" fill="#fa1919"/>
  </g>
  <g id="Takt_Zeichen__x28_umgewandelt_x29_">
    <path d="M45.354,31.89c-8.988,0-16.299,7.312-16.299,16.299s7.312,16.299,16.299,16.299,16.299-7.312,16.299-16.299-7.312-16.299-16.299-16.299ZM46.063,33.343c3.568.169,6.804,1.594,9.284,3.851l-9.284,9.284v-13.135ZM44.646,46.478l-9.284-9.284c2.48-2.256,5.716-3.681,9.284-3.851v13.135ZM43.644,47.481h-13.135c.169-3.568,1.594-6.804,3.851-9.285l9.285,9.285ZM43.643,48.898l-9.284,9.284c-2.256-2.48-3.681-5.717-3.851-9.284h13.135ZM44.646,49.9v13.135c-3.568-.169-6.804-1.594-9.284-3.851l9.284-9.285ZM46.063,49.9l9.284,9.285c-2.48,2.256-5.717,3.681-9.284,3.851v-13.135ZM47.065,48.898h13.135c-.169,3.568-1.594,6.804-3.851,9.284l-9.284-9.284ZM47.065,47.481l9.285-9.285c2.256,2.48,3.681,5.717,3.851,9.285h-13.135ZM84.313,74.41h4.27V15.316s-.934.312-.934.312c-12.575,4.208-26.805,6.341-42.295,6.341S15.629,19.836,3.06,15.628l-.934-.312v59.095h4.268c-1.727,1.294-2.852,3.349-2.852,5.668,0,3.908,3.179,7.086,7.087,7.086s7.087-3.179,7.087-7.086c0-2.319-1.125-4.375-2.852-5.668h60.979c-1.727,1.294-2.852,3.349-2.852,5.668,0,3.908,3.179,7.086,7.087,7.086s7.087-3.179,7.087-7.086c0-2.319-1.125-4.375-2.852-5.668ZM16.299,80.079c0,3.126-2.543,5.669-5.669,5.669s-5.669-2.543-5.669-5.669,2.533-5.658,5.65-5.668h.039c3.117.011,5.65,2.549,5.65,5.668ZM3.544,72.993V17.28c12.483,4.052,26.544,6.106,41.811,6.106s29.322-2.054,41.811-6.107v55.714s-83.622,0-83.622,0ZM80.078,85.748c-3.126,0-5.669-2.543-5.669-5.669s2.533-5.658,5.65-5.668h.039c3.117.011,5.65,2.549,5.65,5.668s-2.543,5.669-5.669,5.669Z"/>
  </g>
  <g id="Takt._Zeichen__x28_Typo_x29_">
    <g>
      <path d="M16.105,35.433h-1.259v-5.48h-.024l-2.207,5.48h-.996l-2.219-5.48h-.024v5.48h-1.247v-8.275h1.427l2.603,6.44h.024l2.615-6.44h1.307v8.275Z"/>
      <path d="M23.702,28.225h-2.495v7.208h-1.295v-7.208h-2.507v-1.067h6.38l-.084,1.067Z"/>
      <path d="M25.037,35.433v-8.275h4.689l-.084,1.067h-3.31v2.734h3.058v1.068h-3.058v3.406h-1.295Z"/>
    </g>
  </g>
</svg>