<?xml version="1.0" encoding="UTF-8"?>
<svg xmlns="http://www.w3.org/2000/svg" version="1.1" viewBox="0 0 90.709 90.709">
  <!-- Generator: Adobe Illustrator 29.1.0, SVG Export Plug-In . SVG Version: 2.1.0 Build 142)  -->
  <g id="Grundfläche">
    <rect x="0" width="90.709" height="90.709" fill="#fff"/>
  </g>
  <g id="Flächige_Fülung">
    <path d="M49.606,22.678c-15.307,0-28.063-2.582-38.268-6.378v57.402h76.536V16.3c-10.205,3.794-22.961,6.378-38.268,6.378Z" fill="#fa1919"/>
  </g>
  <g id="Takt_Zeichen__x28_umgewandelt_x29_">
    <path d="M50.225,27.274l-7.888,14.168,12.925-2.341.728,1.073-10.406,16.64,6.633-2.211.448,1.345-9.266,3.088-1.574-7.874,1.39-.278,1.067,5.337,9.656-15.44-12.823,2.322-.746-1.042,8.617-15.478,1.238.689ZM88.583,74.41h-34.743c1.728,1.293,2.854,3.35,2.854,5.67,0,3.908-3.179,7.086-7.087,7.086s-7.086-3.179-7.086-7.086c0-2.32,1.125-4.376,2.854-5.67H10.63v-29.764H2.126v-4.252h8.504V15.28l.956.355c11.298,4.203,24.09,6.333,38.021,6.333s26.717-2.131,38.021-6.333l.956-.355v59.13ZM10.63,41.811H3.543v1.418h7.087v-1.418ZM49.606,74.41c-3.126,0-5.669,2.543-5.669,5.669s2.543,5.669,5.669,5.669,5.67-2.543,5.67-5.669-2.543-5.669-5.67-5.669ZM87.166,17.313c-11.226,4.03-23.856,6.073-37.56,6.073s-26.339-2.042-37.559-6.073v47.884h75.119s0-47.884,0-47.884Z"/>
  </g>
  <g id="Takt._Zeichen__x28_Typo_x29_">
    <g>
      <path d="M19.429,34.438h1.679v.995h-4.582v-.995h1.691v-5.589l-1.619.575-.264-.959,2.195-.828h.899v6.8Z"/>
      <path d="M23.857,34.413v.024h3.022v.995h-4.51l-.084-.803c2.603-2.794,3.203-3.466,3.203-4.713,0-.876-.408-1.379-1.248-1.379-.875,0-1.403.516-1.619.744l-.468-.852c.276-.288.983-.936,2.255-.936,1.499,0,2.327.875,2.327,2.267,0,1.583-.947,2.711-2.878,4.653Z"/>
      <path d="M30.541,35.577c-1.499,0-2.471-1.223-2.471-4.042,0-2.843,1.08-4.042,2.567-4.042,1.499,0,2.471,1.224,2.471,4.042,0,2.842-1.08,4.042-2.567,4.042ZM30.589,28.549c-.755,0-1.271.792-1.271,2.986,0,2.23.516,2.986,1.271,2.986s1.271-.756,1.271-2.986c0-2.195-.516-2.986-1.271-2.986Z"/>
    </g>
  </g>
</svg>