<?xml version="1.0" encoding="UTF-8"?>
<svg xmlns="http://www.w3.org/2000/svg" version="1.1" viewBox="0 0 90.709 90.709">
  <!-- Generator: Adobe Illustrator 29.1.0, SVG Export Plug-In . SVG Version: 2.1.0 Build 142)  -->
  <g id="Grundfläche">
    <rect x="0" width="90.709" height="90.709" fill="#fff"/>
  </g>
  <g id="Flächige_Fülung">
    <path d="M45.355,22.678c-17.008,0-31.181-2.582-42.52-6.378v57.402h85.04V16.3c-11.339,3.794-25.512,6.378-42.52,6.378Z" fill="#fa1919"/>
  </g>
  <g id="Takt_Zeichen__x28_umgewandelt_x29_">
    <path d="M81.826,38.268c0-2.735-2.225-4.96-4.961-4.96-1.368,0-2.608.556-3.506,1.454l-10.998,11-10.998-11c-.898-.898-2.138-1.454-3.506-1.454-2.735,0-4.961,2.225-4.961,4.96s2.225,4.96,4.961,4.96,4.961-2.225,4.961-4.96c0-.019-.005-.036-.006-.055l8.164,8.168-17.231,4.811.381,1.365,15.872-4.431-13.729,13.736,1.002,1.002,15.089-15.097,15.089,15.097,1.002-1.002-14.76-14.767,14.65-4.091-.006-.023c2.014-.631,3.489-2.493,3.489-4.712ZM74.505,42.603l-9.686,2.704,7.091-7.095c0,.019-.006.036-.006.055,0,1.876,1.06,3.493,2.6,4.336ZM84.313,74.41h4.27V15.316s-.934.312-.934.312c-12.575,4.208-26.805,6.341-42.295,6.341S15.629,19.836,3.06,15.628l-.934-.312v59.095h4.268c-1.727,1.294-2.852,3.349-2.852,5.668,0,3.908,3.179,7.086,7.087,7.086s7.087-3.179,7.087-7.086c0-2.319-1.125-4.375-2.852-5.668h60.979c-1.727,1.294-2.852,3.349-2.852,5.668,0,3.908,3.179,7.086,7.087,7.086s7.087-3.179,7.087-7.086c0-2.319-1.125-4.375-2.852-5.668ZM16.299,80.079c0,3.126-2.543,5.669-5.669,5.669s-5.669-2.543-5.669-5.669,2.533-5.658,5.65-5.668h.039c3.117.011,5.65,2.549,5.65,5.668ZM3.544,72.993V17.28c12.483,4.052,26.544,6.106,41.811,6.106s29.322-2.054,41.811-6.107v55.714s-83.622,0-83.622,0ZM80.078,85.748c-3.126,0-5.669-2.543-5.669-5.669s2.533-5.658,5.65-5.668h.039c3.117.011,5.65,2.549,5.65,5.668s-2.543,5.669-5.669,5.669Z"/>
  </g>
  <g id="Takt._Zeichen__x28_Typo_x29_">
    <g>
      <path d="M11.692,27.014c1.331,0,1.991.587,2.183.755l-.468.996c-.216-.204-.756-.647-1.679-.647-1.415,0-2.615.863-2.615,3.118,0,2.314.948,3.238,2.483,3.238,1.031,0,1.583-.444,1.835-.648l.36.948c-.252.216-.912.803-2.387.803-2.183,0-3.67-1.259-3.67-4.293s2.003-4.27,3.958-4.27Z"/>
      <path d="M18.856,31.176v.024c.887.168,1.727.815,1.727,1.955,0,1.331-.983,2.278-3.31,2.278h-1.955v-8.275h1.847c2.339,0,3.19.828,3.19,2.147,0,1.175-.731,1.631-1.499,1.871ZM17.165,28.201h-.552v2.542h.54c1.271,0,1.871-.503,1.871-1.367,0-.708-.528-1.175-1.859-1.175ZM17.345,31.787h-.732v2.59h.66c1.391,0,1.955-.456,1.955-1.319,0-.815-.684-1.271-1.883-1.271Z"/>
      <path d="M26.511,35.433l-1.871-3.214c-.192.024-.384.024-.588.024h-.492v3.19h-1.295v-8.275h1.847c2.291,0,3.334.852,3.334,2.435,0,1.08-.504,1.907-1.535,2.339l2.159,3.502h-1.559ZM24.113,28.225h-.552v2.963h.492c1.379,0,2.015-.552,2.015-1.56,0-.959-.612-1.403-1.955-1.403Z"/>
      <path d="M35.666,35.433h-1.151l-3.826-5.841h-.024v5.841h-1.295v-8.275h1.163l3.814,5.805h.024v-5.805h1.295v8.275Z"/>
      <path d="M12.735,39.564h-3.31v2.495h3.046v1.08h-3.046v2.566h3.67l-.084,1.067h-4.881v-8.275h4.689l-.084,1.067Z"/>
      <path d="M17.416,42.022c-.06-.036-.216-.096-.492-.096-.719,0-1.127.384-1.307.719v4.126h-1.223v-5.793h1.127v.828h.024c.216-.468.612-.936,1.463-.936.24,0,.42.048.504.072l-.096,1.08Z"/>
      <path d="M21.232,43.606l2.195,3.166h-1.487l-1.703-2.53h-.456v2.53h-1.223v-8.467l1.223-.12v5.049h.456l1.679-2.255h1.403l-2.087,2.627Z"/>
      <path d="M31.874,46.772h-1.104l-1.811-6.165h-.024l-1.823,6.165h-1.091l-2.243-8.275h1.391l1.463,6.212h.024l1.751-6.212h1.223l1.691,6.212h.024l1.499-6.212h1.307l-2.279,8.275Z"/>
    </g>
  </g>
</svg>