<?xml version="1.0" encoding="UTF-8"?>
<svg xmlns="http://www.w3.org/2000/svg" version="1.1" viewBox="0 0 90.709 90.709">
  <!-- Generator: Adobe Illustrator 29.1.0, SVG Export Plug-In . SVG Version: 2.1.0 Build 142)  -->
  <g id="Grundfläche">
    <rect x="0" width="90.709" height="90.709" fill="#fff"/>
  </g>
  <g id="Flächige_Fülung">
    <path d="M45.355,22.678c-17.008,0-31.181-2.582-42.52-6.378v57.402h85.04V16.3c-11.339,3.794-25.512,6.378-42.52,6.378Z" fill="#fa1919"/>
  </g>
  <g id="Takt_Zeichen__x28_umgewandelt_x29_">
    <path d="M70.365,57.194l4.46,4.459H23.314c-.347-2.398-2.396-4.252-4.889-4.252-2.735,0-4.961,2.225-4.961,4.96s2.225,4.96,4.961,4.96c2.493,0,4.542-1.854,4.889-4.252h51.511l-4.46,4.46,1.002,1.002,6.171-6.17-6.171-6.17-1.002,1.002ZM18.425,65.905c-1.954,0-3.543-1.59-3.543-3.543s1.589-3.543,3.543-3.543,3.543,1.59,3.543,3.543-1.589,3.543-3.543,3.543ZM14.49,51.657l-.634-1.268c2.016-1.008,3.3-2.425,4.541-3.795,2.13-2.352,4.333-4.783,9.949-4.783,4.545,0,6.812,2.267,9.005,4.459,2.08,2.08,4.045,4.045,8.005,4.045s5.925-1.965,8.005-4.045c2.193-2.192,4.46-4.459,9.005-4.459,5.616,0,7.819,2.432,9.949,4.783,1.241,1.37,2.525,2.788,4.541,3.795l-.634,1.268c-2.254-1.126-3.628-2.644-4.958-4.112-2.099-2.316-3.911-4.317-8.899-4.317-3.958,0-5.923,1.964-8.003,4.044-2.193,2.193-4.46,4.46-9.007,4.46s-6.814-2.267-9.007-4.459c-2.08-2.08-4.044-4.044-8.003-4.044-4.988,0-6.8,2.001-8.899,4.317-1.329,1.468-2.704,2.985-4.958,4.112ZM84.313,74.41h4.27V15.316s-.934.312-.934.312c-12.575,4.208-26.805,6.341-42.295,6.341S15.629,19.836,3.06,15.628l-.934-.312v59.095h4.268c-1.727,1.294-2.852,3.349-2.852,5.668,0,3.908,3.179,7.086,7.087,7.086s7.087-3.179,7.087-7.086c0-2.319-1.125-4.375-2.852-5.668h26.255c-1.727,1.293-2.852,3.349-2.852,5.668,0,3.908,3.179,7.086,7.087,7.086s7.087-3.179,7.087-7.086c0-2.319-1.125-4.375-2.852-5.668h26.255c-1.727,1.294-2.852,3.349-2.852,5.668,0,3.908,3.179,7.086,7.087,7.086s7.087-3.179,7.087-7.086c0-2.319-1.125-4.375-2.852-5.668ZM16.299,80.079c0,3.126-2.543,5.669-5.669,5.669s-5.669-2.543-5.669-5.669,2.533-5.658,5.65-5.668h.039c3.117.011,5.65,2.549,5.65,5.668ZM51.023,80.079c0,3.126-2.543,5.669-5.669,5.669s-5.669-2.543-5.669-5.669,2.534-5.658,5.651-5.668h.036c3.118.01,5.651,2.549,5.651,5.668ZM3.544,72.993V17.28c12.483,4.052,26.544,6.106,41.811,6.106s29.322-2.054,41.811-6.107v55.714s-83.622,0-83.622,0ZM80.078,85.748c-3.126,0-5.669-2.543-5.669-5.669s2.533-5.658,5.65-5.668h.039c3.117.011,5.65,2.549,5.65,5.668s-2.543,5.669-5.669,5.669Z"/>
  </g>
  <g id="Takt._Zeichen__x28_Typo_x29_">
    <g>
      <path d="M11.836,28.705c-.216-.168-.72-.564-1.499-.564-.864,0-1.271.384-1.271.876,0,.587.264.899,1.115,1.427l.804.492c1.043.647,1.631,1.319,1.631,2.387,0,1.211-.912,2.254-2.747,2.254-1.319,0-1.979-.54-2.255-.768l.444-1.139c.264.264.9.768,1.787.768.995,0,1.451-.444,1.451-.947,0-.636-.312-.96-1.092-1.476l-.815-.54c-1.115-.744-1.619-1.307-1.619-2.435,0-1.115.959-2.026,2.507-2.026,1.176,0,1.739.443,1.979.624l-.42,1.067Z"/>
      <path d="M21.374,35.433h-1.104l-1.811-6.164h-.024l-1.823,6.164h-1.091l-2.243-8.275h1.391l1.463,6.213h.024l1.751-6.213h1.223l1.691,6.213h.024l1.499-6.213h1.307l-2.279,8.275Z"/>
      <path d="M30.256,31.199l3.19,4.233h-1.607l-2.639-3.634h-.672v3.634h-1.295v-8.275h1.295v3.562h.696l2.554-3.562h1.451l-2.974,4.042Z"/>
      <path d="M36.652,32.147h.372v-.336c0-.887-.372-1.271-1.08-1.271-.696,0-1.175.348-1.403.54l-.408-.827c.288-.252.924-.756,2.051-.756,1.319,0,2.027.744,2.027,2.339v2.23c0,.576.048,1.115.084,1.367h-1.139c-.012-.168-.036-.384-.036-.636h-.024c-.204.336-.635.78-1.511.78-.948,0-1.595-.684-1.595-1.691,0-1.199,1.163-1.739,2.663-1.739ZM37.024,34.114v-1.175l-.444.023c-.948.048-1.415.276-1.415.828,0,.491.336.803.732.803.612,0,.936-.264,1.127-.48Z"/>
      <path d="M42.76,30.636h-1.415v2.698c0,.875.228,1.188.816,1.188.3,0,.54-.096.648-.144l.108.936c-.108.06-.444.251-1.067.251-1.211,0-1.727-.623-1.727-2.099v-2.83h-.792v-.84l.792-.144.144-1.619h1.079v1.607h1.547l-.132.996Z"/>
      <path d="M47.955,28.705c-.216-.168-.72-.564-1.499-.564-.864,0-1.271.384-1.271.876,0,.587.264.899,1.115,1.427l.804.492c1.043.647,1.631,1.319,1.631,2.387,0,1.211-.912,2.254-2.747,2.254-1.319,0-1.979-.54-2.255-.768l.444-1.139c.264.264.9.768,1.787.768.995,0,1.451-.444,1.451-.947,0-.636-.312-.96-1.092-1.476l-.815-.54c-1.115-.744-1.619-1.307-1.619-2.435,0-1.115.959-2.026,2.507-2.026,1.176,0,1.739.443,1.979.624l-.42,1.067Z"/>
    </g>
  </g>
</svg>