<?xml version="1.0" encoding="UTF-8"?>
<svg xmlns="http://www.w3.org/2000/svg" version="1.1" viewBox="0 0 90.709 90.709">
  <!-- Generator: Adobe Illustrator 29.1.0, SVG Export Plug-In . SVG Version: 2.1.0 Build 142)  -->
  <g id="Grundfläche">
    <rect x="0" y="0" width="90.709" height="90.709" fill="#fff"/>
  </g>
  <g id="Flächige_Fülung">
    <path d="M45.355,22.678c-17.008,0-31.181-2.582-42.52-6.378v57.402h85.04V16.3c-11.339,3.794-25.512,6.378-42.52,6.378Z" fill="#fa1919"/>
  </g>
  <g id="Takt_Zeichen__x28_umgewandelt_x29_">
    <path d="M88.583,15.316l-.934.312c-12.575,4.208-26.805,6.341-42.295,6.341S15.629,19.836,3.06,15.628l-.934-.312v59.095h4.268c-1.727,1.294-2.852,3.349-2.852,5.668,0,3.908,3.179,7.086,7.087,7.086s7.087-3.179,7.087-7.086c0-2.319-1.125-4.375-2.852-5.668h60.979c-1.727,1.294-2.852,3.349-2.852,5.668,0,3.908,3.179,7.086,7.087,7.086s7.087-3.179,7.087-7.086c0-2.319-1.125-4.375-2.852-5.668h4.27V15.316ZM87.166,71.99l-25.928-25.928h25.928v25.928ZM87.166,44.646h-25.928l25.927-25.927v25.927ZM45.355,23.386c14.937,0,28.714-1.981,41.003-5.865l-27.124,27.124H3.544v-27.366c12.483,4.052,26.544,6.106,41.811,6.106ZM16.299,80.079c0,3.126-2.543,5.669-5.669,5.669s-5.669-2.543-5.669-5.669,2.533-5.658,5.65-5.668h.039c3.117.011,5.65,2.549,5.65,5.668ZM85.748,80.079c0,3.126-2.543,5.669-5.669,5.669s-5.669-2.543-5.669-5.669,2.533-5.658,5.65-5.668h.039c3.117.011,5.65,2.549,5.65,5.668ZM3.544,72.993v-26.931h55.69l26.931,26.931H3.544Z"/>
  </g>
  <g id="Takt._Zeichen__x28_Typo_x29_">
    <g>
      <path d="M13.635,28.225h-2.495v7.208h-1.295v-7.208h-2.507v-1.067h6.38l-.084,1.067Z"/>
      <path d="M16.265,27.158v7.208h3.406l-.084,1.067h-4.617v-8.275h1.295Z"/>
      <path d="M20.933,35.433v-8.275h4.689l-.084,1.067h-3.31v2.734h3.058v1.068h-3.058v3.406h-1.295Z"/>
      <path d="M32.248,31.451v.024c.851.228,1.559.743,1.559,1.931,0,1.295-.924,2.171-2.483,2.171-1.163,0-1.847-.624-2.075-.899l.504-.948c.216.252.671.792,1.523.792.84,0,1.295-.384,1.295-1.079,0-.924-.684-1.403-1.883-1.403h-.36l-.072-.959h.384c1.259,0,1.799-.624,1.799-1.475,0-.6-.372-1.067-1.08-1.067-.719,0-1.223.384-1.451.624l-.444-.816c.288-.3.996-.852,2.123-.852,1.223,0,2.039.72,2.039,1.991,0,1.079-.6,1.655-1.379,1.967Z"/>
      <path d="M35.993,35.577c-.456,0-.78-.3-.78-.792,0-.479.324-.791.78-.791s.792.312.792.791c0,.492-.336.792-.792.792Z"/>
      <path d="M40.3,35.577c-1.499,0-2.471-1.224-2.471-4.042,0-2.842,1.079-4.042,2.567-4.042,1.499,0,2.47,1.224,2.47,4.042,0,2.843-1.079,4.042-2.566,4.042ZM40.348,28.549c-.756,0-1.271.792-1.271,2.986,0,2.231.516,2.986,1.271,2.986s1.271-.755,1.271-2.986c0-2.194-.516-2.986-1.271-2.986Z"/>
      <path d="M46.3,35.577c-1.499,0-2.471-1.224-2.471-4.042,0-2.842,1.079-4.042,2.567-4.042,1.499,0,2.47,1.224,2.47,4.042,0,2.843-1.079,4.042-2.566,4.042ZM46.348,28.549c-.756,0-1.271.792-1.271,2.986,0,2.231.516,2.986,1.271,2.986s1.271-.755,1.271-2.986c0-2.194-.516-2.986-1.271-2.986Z"/>
      <path d="M52.3,35.577c-1.499,0-2.471-1.224-2.471-4.042,0-2.842,1.079-4.042,2.567-4.042,1.499,0,2.47,1.224,2.47,4.042,0,2.843-1.079,4.042-2.566,4.042ZM52.348,28.549c-.756,0-1.271.792-1.271,2.986,0,2.231.516,2.986,1.271,2.986s1.271-.755,1.271-2.986c0-2.194-.516-2.986-1.271-2.986Z"/>
    </g>
  </g>
</svg>