<?xml version="1.0" encoding="UTF-8"?>
<svg xmlns="http://www.w3.org/2000/svg" version="1.1" viewBox="0 0 90.709 90.709">
  <!-- Generator: Adobe Illustrator 29.1.0, SVG Export Plug-In . SVG Version: 2.1.0 Build 142)  -->
  <g id="Grundfläche">
    <rect x="0" width="90.709" height="90.709" fill="#fff"/>
  </g>
  <g id="Flächige_Fülung">
    <path d="M45.354,66.771c-17.008,0-31.181,2.518-42.52,6.221V17.008h85.04v55.984c-11.339-3.7-25.512-6.22-42.52-6.22Z" fill="#fa1919"/>
  </g>
  <g id="Takt_Zeichen__x28_umgewandelt_x29_">
    <path d="M78.687,72.992H12.022c-3.894,0-7.061,3.185-7.061,7.1s3.167,7.073,7.061,7.073h66.665c3.894,0,7.061-3.173,7.061-7.073s-3.167-7.1-7.061-7.1ZM78.687,85.748H12.022c-3.112,0-5.644-2.538-5.644-5.656s2.532-5.683,5.644-5.683h66.665c3.112,0,5.644,2.549,5.644,5.683s-2.532,5.656-5.644,5.656ZM2.126,16.299v57.669l.928-.303c12.571-4.104,26.803-6.186,42.3-6.186s29.722,2.081,42.3,6.186l.928.303V16.299s-86.456,0-86.456,0ZM61.302,46.063h25.863v24.57s-25.863-24.57-25.863-24.57ZM87.165,44.646h-25.927l25.928-25.927v25.927ZM86.164,17.716l-26.93,26.929H3.543v-26.929h82.621ZM3.543,72.02v-25.957h55.701l27.057,25.704c-12.276-3.777-26.033-5.704-40.947-5.704-15.267,0-29.328,2.004-41.811,5.957ZM45.354,39.685l-19.843-13.606v-3.402l19.843,10.205,19.842-10.205v3.402l-19.842,13.606Z"/>
  </g>
</svg>