<?xml version="1.0" encoding="UTF-8"?>
<svg xmlns="http://www.w3.org/2000/svg" version="1.1" viewBox="0 0 90.709 90.709">
  <!-- Generator: Adobe Illustrator 29.1.0, SVG Export Plug-In . SVG Version: 2.1.0 Build 142)  -->
  <g id="Grundfläche">
    <rect x="0" y="0" width="90.709" height="90.709" fill="#fff"/>
  </g>
  <g id="Flächige_Fülung">
    <path d="M45.355,22.678c-17.008,0-31.181-2.582-42.52-6.378v57.402h85.04V16.3c-11.339,3.794-25.512,6.378-42.52,6.378Z" fill="#fa1919"/>
  </g>
  <g id="Takt_Zeichen__x28_umgewandelt_x29_">
    <g>
      <path d="M84.313,74.41h4.27V15.316s-.934.312-.934.312c-12.575,4.208-26.805,6.341-42.295,6.341S15.629,19.836,3.06,15.628l-.934-.312v59.095h4.268c-1.727,1.294-2.852,3.349-2.852,5.668,0,3.908,3.179,7.086,7.087,7.086s7.087-3.179,7.087-7.086c0-2.319-1.125-4.375-2.852-5.668h60.979c-1.727,1.294-2.852,3.349-2.852,5.668,0,3.908,3.179,7.086,7.087,7.086s7.087-3.179,7.087-7.086c0-2.319-1.125-4.375-2.852-5.668ZM16.299,80.079c0,3.126-2.543,5.669-5.669,5.669s-5.669-2.543-5.669-5.669,2.533-5.658,5.65-5.668h.039c3.117.011,5.65,2.549,5.65,5.668ZM3.544,72.993V17.28c12.483,4.052,26.544,6.106,41.811,6.106s29.322-2.054,41.811-6.107v55.714s-83.622,0-83.622,0ZM80.078,85.748c-3.126,0-5.669-2.543-5.669-5.669s2.533-5.658,5.65-5.668h.039c3.117.011,5.65,2.549,5.65,5.668s-2.543,5.669-5.669,5.669Z"/>
      <path d="M55.984,42.151l-16.779,5.449-11.474,20.08,1.23.703,11.203-19.604,17.089-5.55h11.487v-12.756h-12.756v11.678ZM57.402,31.889h9.921v9.922h-9.921v-9.922Z"/>
    </g>
  </g>
  <g id="Takt._Zeichen__x28_Typo_x29_">
    <g>
      <path d="M14.474,35.431h-1.295v-3.634h-3.754v3.634h-1.295v-8.275h1.295v3.562h3.754v-3.562h1.295v8.275Z"/>
      <path d="M21.363,35.431l-.828-2.459h-2.771l-.827,2.459h-1.319l3.082-8.275h1.02l3.07,8.275h-1.427ZM19.168,28.835h-.024l-1.067,3.179h2.159l-1.067-3.179Z"/>
      <path d="M27.472,31.174v.024c.887.168,1.727.815,1.727,1.955,0,1.332-.983,2.279-3.31,2.279h-1.955v-8.275h1.847c2.339,0,3.19.827,3.19,2.146,0,1.176-.731,1.631-1.499,1.871ZM25.78,28.199h-.552v2.542h.54c1.271,0,1.871-.504,1.871-1.367,0-.708-.528-1.175-1.859-1.175ZM25.96,31.785h-.732v2.59h.66c1.391,0,1.955-.456,1.955-1.319,0-.815-.684-1.271-1.883-1.271Z"/>
    </g>
  </g>
</svg>