<?xml version="1.0" encoding="UTF-8"?>
<svg xmlns="http://www.w3.org/2000/svg" version="1.1" viewBox="0 0 90.709 90.709">
  <!-- Generator: Adobe Illustrator 29.1.0, SVG Export Plug-In . SVG Version: 2.1.0 Build 142)  -->
  <g id="Grundfläche">
    <rect x="0" y="0" width="90.709" height="90.709" fill="#fff"/>
  </g>
  <g id="Flächige_Fülung">
    <path d="M45.355,22.678c-17.008,0-31.181-2.582-42.52-6.378v57.402h85.04V16.3c-11.339,3.794-25.512,6.378-42.52,6.378Z" fill="#fa1919"/>
  </g>
  <g id="Takt_Zeichen__x28_umgewandelt_x29_">
    <path d="M10.63,87.165c-3.907,0-7.087-3.179-7.087-7.086s3.179-7.086,7.087-7.086,7.087,3.179,7.087,7.086-3.179,7.086-7.087,7.086ZM10.63,74.409c-3.126,0-5.669,2.543-5.669,5.669s2.543,5.669,5.669,5.669,5.669-2.543,5.669-5.669-2.543-5.669-5.669-5.669Z"/>
    <path d="M88.584,74.41H2.127V15.316l.934.312c12.569,4.208,26.799,6.341,42.295,6.341s29.719-2.134,42.295-6.341l.934-.312v59.095ZM3.544,72.993h83.622V17.28c-12.489,4.053-26.551,6.107-41.811,6.107s-29.328-2.054-41.811-6.106v55.713ZM80.078,87.165c-3.907,0-7.087-3.179-7.087-7.086s3.179-7.086,7.087-7.086,7.087,3.179,7.087,7.086-3.179,7.086-7.087,7.086ZM80.078,74.409c-3.126,0-5.669,2.543-5.669,5.669s2.543,5.669,5.669,5.669,5.669-2.543,5.669-5.669-2.543-5.669-5.669-5.669ZM53.149,30.472v11.749l-16.563,5.379-11.474,20.08,1.23.703,11.203-19.604,17.089-5.55h11.271v-12.756h-12.756ZM64.488,41.811h-9.921v-9.922h9.921v9.922Z"/>
  </g>
  <g id="Takt._Zeichen__x28_Typo_x29_">
    <g>
      <path d="M13.635,28.223h-2.495v7.208h-1.295v-7.208h-2.507v-1.067h6.38l-.084,1.067Z"/>
      <path d="M20.654,34.807c-.252.216-1.019.768-2.519.768-2.183,0-3.802-1.151-3.802-4.317,0-2.962,2.027-4.246,4.054-4.246,1.391,0,2.087.576,2.303.744l-.444,1.02c-.192-.168-.78-.66-1.823-.66-1.439,0-2.71.899-2.71,3.142,0,2.255.936,3.214,2.591,3.214.42,0,.792-.072,1.104-.168v-2.111h-1.487v-1.067h2.734v3.682Z"/>
      <path d="M30.469,35.431h-1.259v-5.481h-.024l-2.207,5.481h-.996l-2.219-5.481h-.024v5.481h-1.247v-8.275h1.427l2.603,6.44h.024l2.615-6.44h1.307v8.275Z"/>
    </g>
  </g>
</svg>