<?xml version="1.0" encoding="UTF-8"?>
<svg xmlns="http://www.w3.org/2000/svg" version="1.1" viewBox="0 0 90.709 90.709">
  <!-- Generator: Adobe Illustrator 29.1.0, SVG Export Plug-In . SVG Version: 2.1.0 Build 142)  -->
  <g id="Grundfläche">
    <rect x="0" width="90.709" height="90.709" fill="#fff"/>
  </g>
  <g id="Flächige_Fülung">
    <path d="M45.355,22.678c-17.008,0-31.181-2.582-42.52-6.378v57.402h85.04V16.3c-11.339,3.794-25.512,6.378-42.52,6.378Z" fill="#fa1919"/>
  </g>
  <g id="Takt_Zeichen__x28_umgewandelt_x29_">
    <path d="M69.653,36.85c0,3.517-2.861,6.378-6.378,6.378s-6.378-2.861-6.378-6.378c0-.227.013-.451.036-.672l-10.577,10.583,16.715,16.724v-6.792h1.417v9.212h-9.213v-1.417h6.794l-16.715-16.725-16.715,16.725h6.794v1.417h-9.213v-9.212h1.417v6.792l16.715-16.724-10.577-10.583c.023.221.036.445.036.672,0,3.517-2.861,6.378-6.378,6.378s-6.378-2.861-6.378-6.378,2.861-6.378,6.378-6.378c1.758,0,3.211.715,4.366,1.87l13.555,13.416,13.413-13.416c1.155-1.155,2.75-1.87,4.508-1.87,3.517,0,6.378,2.861,6.378,6.378ZM87.165,80.079c0,3.908-3.179,7.086-7.087,7.086s-7.087-3.179-7.087-7.086c0-2.319,1.125-4.375,2.852-5.668h-26.255c1.727,1.293,2.852,3.349,2.852,5.668,0,3.908-3.179,7.086-7.087,7.086s-7.087-3.179-7.087-7.086c0-2.319,1.125-4.375,2.852-5.668H14.865c1.727,1.294,2.852,3.349,2.852,5.668,0,3.908-3.179,7.086-7.087,7.086s-7.087-3.179-7.087-7.086c0-2.319,1.125-4.375,2.852-5.668H2.126V15.316l.934.312c12.569,4.208,26.799,6.341,42.295,6.341s29.719-2.134,42.295-6.341l.934-.312v59.095s-4.27,0-4.27,0c1.727,1.294,2.852,3.349,2.852,5.668ZM10.649,74.41h-.039c-3.117.011-5.65,2.549-5.65,5.668s2.543,5.669,5.669,5.669,5.669-2.543,5.669-5.669-2.533-5.658-5.65-5.668ZM45.372,74.41h-.036c-3.118.01-5.651,2.549-5.651,5.668s2.543,5.669,5.669,5.669,5.669-2.543,5.669-5.669-2.534-5.658-5.651-5.668ZM87.166,72.993V17.279c-12.489,4.053-26.551,6.107-41.811,6.107s-29.328-2.054-41.811-6.106v55.713h83.622ZM85.748,80.079c0-3.119-2.533-5.658-5.65-5.668h-.039c-3.117.011-5.65,2.549-5.65,5.668s2.543,5.669,5.669,5.669,5.669-2.543,5.669-5.669Z"/>
  </g>
  <g id="Takt._Zeichen__x28_Typo_x29_">
    <path d="M45.953,63.311h-.98v4.721h-2.16v-13.803h3.24c3.941,0,5.701,1.58,5.701,4.341,0,2.9-1.94,4.741-5.801,4.741ZM46.053,56.009h-1.08v5.501h.98c2.42,0,3.521-1.04,3.521-2.86,0-1.721-1.06-2.641-3.421-2.641Z"/>
  </g>
</svg>