<?xml version="1.0" encoding="UTF-8"?>
<svg xmlns="http://www.w3.org/2000/svg" version="1.1" viewBox="0 0 90.709 90.709">
  <!-- Generator: Adobe Illustrator 29.1.0, SVG Export Plug-In . SVG Version: 2.1.0 Build 142)  -->
  <g id="Grundfläche">
    <rect x="0" width="90.709" height="90.709" fill="#fff"/>
  </g>
  <g id="Flächige_Fülung">
    <path d="M45.355,22.678c-17.008,0-31.181-2.582-42.52-6.378v57.402h85.04V16.3c-11.339,3.794-25.512,6.378-42.52,6.378Z" fill="#fa1919"/>
  </g>
  <g id="Takt_Zeichen__x28_umgewandelt_x29_">
    <path d="M82.205,47.481v1.417h-17.717v-7.502l-27.136,27.136-1.002-1.002,28.139-28.138v-8.211h1.417v16.3h16.299ZM87.165,80.079c0,3.908-3.179,7.086-7.087,7.086s-7.087-3.179-7.087-7.086c0-2.319,1.125-4.375,2.852-5.669h-26.256c1.727,1.294,2.852,3.35,2.852,5.669,0,3.908-3.179,7.086-7.087,7.086s-7.087-3.179-7.087-7.086c0-2.319,1.125-4.375,2.852-5.669H14.864c1.727,1.294,2.852,3.35,2.852,5.669,0,3.908-3.179,7.086-7.087,7.086s-7.087-3.179-7.087-7.086c0-2.319,1.125-4.375,2.852-5.669H2.126V15.315s.933.312.933.312c12.569,4.208,26.799,6.341,42.295,6.341s29.719-2.134,42.295-6.341l.934-.312v59.095s-4.27,0-4.27,0c1.727,1.294,2.852,3.35,2.852,5.669ZM10.639,74.41h-.019c-3.122.005-5.66,2.546-5.66,5.669s2.543,5.669,5.669,5.669,5.669-2.543,5.669-5.669-2.538-5.664-5.66-5.669ZM45.364,74.41h-.019c-3.122.005-5.66,2.546-5.66,5.669s2.543,5.669,5.669,5.669,5.669-2.543,5.669-5.669-2.538-5.664-5.66-5.669ZM87.166,72.993V17.279c-12.489,4.053-26.551,6.107-41.811,6.107s-29.328-2.054-41.811-6.106v55.713h83.622ZM85.748,80.079c0-3.123-2.538-5.664-5.66-5.669h-.019c-3.122.005-5.66,2.546-5.66,5.669s2.543,5.669,5.669,5.669,5.669-2.543,5.669-5.669Z"/>
  </g>
  <g id="Takt._Zeichen__x28_Typo_x29_">
    <g>
      <path d="M13.635,28.225h-2.495v7.208h-1.295v-7.208h-2.507v-1.067h6.38l-.084,1.067Z"/>
      <path d="M17.835,32.83h-3.25c.072,1.188.672,1.703,1.679,1.703.839,0,1.307-.384,1.463-.516l.312.863c-.18.18-.684.696-1.979.696-1.619,0-2.662-.923-2.662-3.094,0-2.051,1.199-2.986,2.567-2.986,1.223,0,1.979.804,1.979,2.291,0,.443-.048.768-.108,1.043ZM14.573,31.967h2.243c.024-.132.024-.228.024-.336,0-.72-.372-1.151-.984-1.151-.708,0-1.223.516-1.283,1.487Z"/>
      <path d="M20.597,33.802c0,.588.156.756.54.756.204,0,.348-.048.42-.072l.072.852c-.084.06-.396.204-.887.204-.852,0-1.355-.396-1.355-1.607v-6.968l1.211-.12v6.956Z"/>
      <path d="M26.799,32.83h-3.25c.072,1.188.672,1.703,1.679,1.703.839,0,1.307-.384,1.463-.516l.312.863c-.18.18-.684.696-1.979.696-1.619,0-2.662-.923-2.662-3.094,0-2.051,1.199-2.986,2.567-2.986,1.223,0,1.979.804,1.979,2.291,0,.443-.048.768-.108,1.043ZM23.537,31.967h2.243c.024-.132.024-.228.024-.336,0-.72-.372-1.151-.984-1.151-.708,0-1.223.516-1.283,1.487Z"/>
      <path d="M29.561,33.802c0,.588.156.756.54.756.204,0,.348-.048.42-.072l.072.852c-.084.06-.396.204-.887.204-.852,0-1.355-.396-1.355-1.607v-6.968l1.211-.12v6.956Z"/>
      <path d="M33.916,32.147h.372v-.336c0-.887-.372-1.271-1.08-1.271-.696,0-1.175.348-1.403.54l-.408-.827c.288-.252.923-.756,2.051-.756,1.319,0,2.027.744,2.027,2.339v2.23c0,.576.048,1.115.084,1.367h-1.139c-.012-.168-.036-.384-.036-.636h-.024c-.204.336-.635.78-1.511.78-.948,0-1.595-.684-1.595-1.691,0-1.199,1.163-1.739,2.663-1.739ZM34.288,34.114v-1.175l-.444.023c-.948.048-1.415.276-1.415.828,0,.491.336.803.732.803.612,0,.936-.264,1.127-.48Z"/>
      <path d="M39.58,29.508c.492,0,.84.12,1.055.24v-2.782l1.211-.12v8.587h-1.115v-.647h-.024c-.144.216-.552.792-1.655.792-1.283,0-2.231-1.019-2.231-2.962,0-2.146,1.355-3.106,2.758-3.106ZM40.636,33.994v-3.202c-.192-.132-.48-.252-.923-.252-.983,0-1.631.6-1.631,2.003,0,1.439.6,1.979,1.367,1.979.648,0,1.008-.312,1.187-.528Z"/>
      <path d="M47.667,32.83h-3.25c.072,1.188.672,1.703,1.679,1.703.839,0,1.307-.384,1.463-.516l.312.863c-.18.18-.684.696-1.979.696-1.619,0-2.663-.923-2.663-3.094,0-2.051,1.199-2.986,2.566-2.986,1.223,0,1.979.804,1.979,2.291,0,.443-.048.768-.108,1.043ZM44.405,31.967h2.243c.024-.132.024-.228.024-.336,0-.72-.372-1.151-.984-1.151-.708,0-1.223.516-1.283,1.487Z"/>
      <path d="M52.24,30.684c-.06-.036-.216-.096-.492-.096-.719,0-1.127.384-1.307.72v4.125h-1.223v-5.792h1.127v.828h.024c.216-.468.612-.936,1.463-.936.24,0,.42.048.504.072l-.096,1.08Z"/>
    </g>
  </g>
</svg>