<?xml version="1.0" encoding="UTF-8"?>
<svg xmlns="http://www.w3.org/2000/svg" version="1.1" viewBox="0 0 90.709 90.709">
  <!-- Generator: Adobe Illustrator 29.1.0, SVG Export Plug-In . SVG Version: 2.1.0 Build 142)  -->
  <g id="Grundfläche">
    <rect x="0" y="0" width="90.709" height="90.709" fill="#fff"/>
  </g>
  <g id="Flächige_Fülung">
    <path d="M45.355,22.678c-17.008,0-31.181-2.582-42.52-6.378v57.402h85.04V16.3c-11.339,3.794-25.512,6.378-42.52,6.378Z" fill="#fa1919"/>
  </g>
  <g id="Takt_Zeichen__x28_umgewandelt_x29_">
    <path d="M51.732,42.226l-25.304,25.304,1.002,1.002,25.512-25.512h0l-.208.208h11.754v-12.756h-12.756v11.754ZM53.149,31.889h9.922v9.922h-9.922v-9.922ZM84.313,74.41h4.27V15.316s-.934.312-.934.312c-12.575,4.208-26.805,6.341-42.294,6.341S15.629,19.836,3.06,15.628l-.934-.312v59.095h4.268c-1.727,1.294-2.852,3.349-2.852,5.668,0,3.908,3.179,7.086,7.086,7.086s7.086-3.179,7.086-7.086c0-2.319-1.125-4.375-2.851-5.668h60.979c-1.727,1.294-2.852,3.349-2.852,5.668,0,3.908,3.179,7.086,7.086,7.086s7.086-3.179,7.086-7.086c0-2.319-1.125-4.375-2.851-5.668ZM16.299,80.079c0,3.126-2.543,5.669-5.669,5.669s-5.669-2.543-5.669-5.669,2.533-5.658,5.65-5.668h.039c3.117.011,5.65,2.549,5.65,5.668ZM3.544,72.993V17.28c12.483,4.052,26.544,6.106,41.811,6.106s29.322-2.054,41.811-6.107v55.714s-83.622,0-83.622,0ZM80.078,85.748c-3.126,0-5.669-2.543-5.669-5.669s2.533-5.658,5.65-5.668h.039c3.117.011,5.65,2.549,5.65,5.668s-2.543,5.669-5.669,5.669Z"/>
  </g>
  <g id="Takt._Zeichen__x28_Typo_x29_">
    <g>
      <path d="M10.924,34.438h1.679v.996h-4.582v-.996h1.691v-5.589l-1.619.576-.264-.959,2.195-.827h.899v6.8Z"/>
      <path d="M15.353,34.414v.024h3.022v.996h-4.509l-.084-.803c2.603-2.795,3.202-3.467,3.202-4.714,0-.875-.408-1.379-1.247-1.379-.876,0-1.403.516-1.619.743l-.468-.852c.275-.288.983-.936,2.254-.936,1.5,0,2.327.876,2.327,2.267,0,1.583-.947,2.71-2.878,4.653Z"/>
      <path d="M20.49,37.113h-1.055l3.658-10.674h1.043l-3.646,10.674Z"/>
      <path d="M26.525,35.577c-.78,0-1.176-.156-1.332-.252l.216-1.056c.144.084.419.228,1.067.228,1.283,0,2.11-.744,2.207-2.435-.384.264-.9.468-1.583.468-1.331,0-2.183-.948-2.183-2.447,0-1.727,1.127-2.591,2.447-2.591,1.487,0,2.579,1.067,2.579,3.934,0,2.999-1.583,4.15-3.418,4.15ZM28.696,31.152c-.036-1.883-.636-2.614-1.451-2.614-.612,0-1.128.443-1.128,1.475,0,.924.396,1.512,1.295,1.512.576,0,.984-.156,1.284-.372Z"/>
    </g>
  </g>
</svg>