<?xml version="1.0" encoding="UTF-8"?>
<svg xmlns="http://www.w3.org/2000/svg" version="1.1" viewBox="0 0 90.709 90.709">
  <!-- Generator: Adobe Illustrator 29.1.0, SVG Export Plug-In . SVG Version: 2.1.0 Build 142)  -->
  <g id="Grundfläche">
    <rect x="0" y="0" width="90.709" height="90.709" fill="#fff"/>
  </g>
  <g id="Flächige_Fülung">
    <path d="M45.355,22.678c-17.008,0-31.181-2.582-42.52-6.378v57.402h85.04V16.3c-11.339,3.794-25.512,6.378-42.52,6.378Z" fill="#fa1919"/>
  </g>
  <g id="Takt_Zeichen__x28_umgewandelt_x29_">
    <path d="M88.583,15.316l-.934.312c-12.575,4.208-26.805,6.341-42.295,6.341S15.629,19.836,3.06,15.628l-.934-.312v59.095h4.268c-1.727,1.294-2.852,3.349-2.852,5.668,0,3.908,3.179,7.086,7.087,7.086s7.087-3.179,7.087-7.086c0-2.319-1.125-4.375-2.852-5.668h60.979c-1.727,1.294-2.852,3.349-2.852,5.668,0,3.908,3.179,7.086,7.087,7.086s7.087-3.179,7.087-7.086c0-2.319-1.125-4.375-2.852-5.668h4.27V15.316ZM87.166,71.99l-25.928-25.928h25.928v25.928ZM87.166,44.646h-25.928l25.927-25.927v25.927ZM45.355,23.386c14.937,0,28.714-1.981,41.003-5.865l-27.124,27.124H3.544v-27.366c12.483,4.052,26.544,6.106,41.811,6.106ZM16.299,80.079c0,3.126-2.543,5.669-5.669,5.669s-5.669-2.543-5.669-5.669,2.533-5.658,5.65-5.668h.039c3.117.011,5.65,2.549,5.65,5.668ZM85.748,80.079c0,3.126-2.543,5.669-5.669,5.669s-5.669-2.543-5.669-5.669,2.533-5.658,5.65-5.668h.039c3.117.011,5.65,2.549,5.65,5.668ZM3.544,72.993v-26.931h55.69l26.931,26.931H3.544Z"/>
  </g>
  <g id="Takt._Zeichen__x28_Typo_x29_">
    <g>
      <path d="M13.635,28.225h-2.495v7.208h-1.295v-7.208h-2.507v-1.067h6.38l-.084,1.067Z"/>
      <path d="M16.265,27.158v7.208h3.406l-.084,1.067h-4.617v-8.275h1.295Z"/>
      <path d="M20.933,35.433v-8.275h4.689l-.084,1.067h-3.31v2.734h3.058v1.068h-3.058v3.406h-1.295Z"/>
      <path d="M30.917,34.414v.024h3.022v.996h-4.51l-.084-.803c2.603-2.795,3.202-3.467,3.202-4.714,0-.875-.408-1.379-1.247-1.379-.876,0-1.403.516-1.619.743l-.468-.852c.276-.288.983-.936,2.255-.936,1.499,0,2.327.876,2.327,2.267,0,1.583-.948,2.71-2.878,4.653Z"/>
      <path d="M35.993,35.577c-.456,0-.78-.3-.78-.792,0-.479.324-.791.78-.791s.792.312.792.791c0,.492-.336.792-.792.792Z"/>
      <path d="M40.3,35.577c-1.499,0-2.471-1.224-2.471-4.042,0-2.842,1.079-4.042,2.567-4.042,1.499,0,2.47,1.224,2.47,4.042,0,2.843-1.079,4.042-2.566,4.042ZM40.348,28.549c-.756,0-1.271.792-1.271,2.986,0,2.231.516,2.986,1.271,2.986s1.271-.755,1.271-2.986c0-2.194-.516-2.986-1.271-2.986Z"/>
      <path d="M46.3,35.577c-1.499,0-2.471-1.224-2.471-4.042,0-2.842,1.079-4.042,2.567-4.042,1.499,0,2.47,1.224,2.47,4.042,0,2.843-1.079,4.042-2.566,4.042ZM46.348,28.549c-.756,0-1.271.792-1.271,2.986,0,2.231.516,2.986,1.271,2.986s1.271-.755,1.271-2.986c0-2.194-.516-2.986-1.271-2.986Z"/>
      <path d="M52.3,35.577c-1.499,0-2.471-1.224-2.471-4.042,0-2.842,1.079-4.042,2.567-4.042,1.499,0,2.47,1.224,2.47,4.042,0,2.843-1.079,4.042-2.566,4.042ZM52.348,28.549c-.756,0-1.271.792-1.271,2.986,0,2.231.516,2.986,1.271,2.986s1.271-.755,1.271-2.986c0-2.194-.516-2.986-1.271-2.986Z"/>
    </g>
  </g>
</svg>