<?xml version="1.0" encoding="UTF-8"?>
<svg xmlns="http://www.w3.org/2000/svg" version="1.1" viewBox="0 0 90.709 90.709">
  <!-- Generator: Adobe Illustrator 29.1.0, SVG Export Plug-In . SVG Version: 2.1.0 Build 142)  -->
  <g id="Grundfläche">
    <rect x="0" width="90.709" height="90.709" fill="#fff"/>
  </g>
  <g id="Flächige_Fülung">
    <path d="M45.355,22.678c-17.008,0-31.181-2.582-42.52-6.378v57.402h85.04V16.3c-11.339,3.794-25.512,6.378-42.52,6.378Z" fill="#fa1919"/>
  </g>
  <g id="Takt_Zeichen__x28_umgewandelt_x29_">
    <path d="M54.567,68.031h-1.417V30.472h12.756v.708c0,2.735,2.225,4.961,4.961,4.961s4.96-2.226,4.96-4.961h1.417c0,3.517-2.861,6.378-6.378,6.378-3.277,0-5.985-2.485-6.339-5.669h-9.96v36.142ZM87.166,80.078c0,3.908-3.179,7.086-7.087,7.086s-7.087-3.179-7.087-7.086c0-2.319,1.125-4.375,2.852-5.668H14.865c1.727,1.294,2.852,3.349,2.852,5.668,0,3.908-3.179,7.086-7.087,7.086s-7.087-3.179-7.087-7.086c0-2.319,1.125-4.375,2.852-5.668H2.127V15.315l.934.312c12.569,4.208,26.799,6.341,42.295,6.341s29.719-2.134,42.295-6.341l.934-.312v59.095s-4.27,0-4.27,0c1.727,1.294,2.852,3.349,2.852,5.668ZM10.649,74.41h-.039c-3.117.011-5.65,2.549-5.65,5.668s2.543,5.669,5.669,5.669,5.669-2.543,5.669-5.669-2.533-5.658-5.65-5.668ZM87.166,72.993V17.279c-12.489,4.053-26.551,6.107-41.811,6.107s-29.328-2.054-41.811-6.106v55.713h83.622ZM85.748,80.078c0-3.119-2.533-5.658-5.65-5.668h-.039c-3.117.011-5.65,2.549-5.65,5.668s2.543,5.669,5.669,5.669,5.669-2.543,5.669-5.669Z"/>
  </g>
  <g id="Takt._Zeichen__x28_Typo_x29_">
    <g>
      <path d="M8.13,35.433v-8.275h4.689l-.084,1.067h-3.31v2.734h3.058v1.068h-3.058v3.406h-1.295Z"/>
      <path d="M19.599,35.433h-.995l-1.055-2.986h-.024l-1.151,2.986h-1.02l-2.051-5.792h1.307l1.319,4.234h.024l1.115-2.795-.516-1.439h1.247l1.355,4.234h.024l1.295-4.234h1.188l-2.063,5.792Z"/>
      <path d="M25.888,31.199l3.19,4.233h-1.607l-2.639-3.634h-.672v3.634h-1.295v-8.275h1.295v3.562h.696l2.554-3.562h1.451l-2.974,4.042Z"/>
      <path d="M35.248,31.451v.024c.851.228,1.559.744,1.559,1.931,0,1.295-.924,2.17-2.483,2.17-1.163,0-1.847-.624-2.075-.899l.504-.948c.216.252.671.792,1.523.792.84,0,1.295-.384,1.295-1.08,0-.923-.684-1.403-1.883-1.403h-.36l-.072-.96h.384c1.259,0,1.799-.624,1.799-1.475,0-.6-.372-1.067-1.08-1.067-.719,0-1.223.384-1.451.624l-.444-.815c.288-.3.996-.852,2.123-.852,1.223,0,2.039.72,2.039,1.991,0,1.079-.6,1.655-1.379,1.967Z"/>
      <path d="M40.601,35.577c-1.499,0-2.471-1.223-2.471-4.042,0-2.843,1.079-4.042,2.567-4.042,1.499,0,2.471,1.224,2.471,4.042,0,2.842-1.08,4.042-2.567,4.042ZM40.649,28.549c-.756,0-1.271.792-1.271,2.986,0,2.23.516,2.986,1.271,2.986s1.271-.756,1.271-2.986c0-2.195-.516-2.986-1.271-2.986Z"/>
    </g>
  </g>
</svg>