<?xml version="1.0" encoding="UTF-8"?>
<svg xmlns="http://www.w3.org/2000/svg" version="1.1" viewBox="0 0 90.709 90.709">
  <!-- Generator: Adobe Illustrator 29.1.0, SVG Export Plug-In . SVG Version: 2.1.0 Build 142)  -->
  <g id="Grundfläche">
    <rect x="0" width="90.709" height="90.709" fill="#fff"/>
  </g>
  <g id="Flächige_Fülung">
    <path d="M45.355,22.678c-17.008,0-31.181-2.582-42.52-6.378v57.402h85.04V16.3c-11.339,3.794-25.512,6.378-42.52,6.378Z" fill="#fa1919"/>
  </g>
  <g id="Takt_Zeichen__x28_umgewandelt_x29_">
    <path d="M84.313,74.41h4.27V15.316s-.934.312-.934.312c-12.575,4.208-26.805,6.341-42.295,6.341S15.629,19.836,3.06,15.628l-.934-.312v59.095h4.268c-1.727,1.294-2.852,3.349-2.852,5.668,0,3.908,3.179,7.086,7.087,7.086s7.087-3.179,7.087-7.086c0-2.319-1.125-4.375-2.852-5.668h26.255c-1.727,1.293-2.852,3.349-2.852,5.668,0,3.908,3.179,7.086,7.087,7.086s7.087-3.179,7.087-7.086c0-2.319-1.125-4.375-2.852-5.668h26.255c-1.727,1.294-2.852,3.349-2.852,5.668,0,3.908,3.179,7.086,7.087,7.086s7.087-3.179,7.087-7.086c0-2.319-1.125-4.375-2.852-5.668ZM16.299,80.079c0,3.126-2.543,5.669-5.669,5.669s-5.669-2.543-5.669-5.669,2.533-5.658,5.65-5.668h.039c3.117.011,5.65,2.549,5.65,5.668ZM51.023,80.079c0,3.126-2.543,5.669-5.669,5.669s-5.669-2.543-5.669-5.669,2.534-5.658,5.651-5.668h.036c3.118.01,5.651,2.549,5.651,5.668ZM3.544,72.993V17.28c12.483,4.052,26.544,6.106,41.811,6.106s29.322-2.054,41.811-6.107v55.714s-83.622,0-83.622,0ZM80.078,85.748c-3.126,0-5.669-2.543-5.669-5.669s2.533-5.658,5.65-5.668h.039c3.117.011,5.65,2.549,5.65,5.668s-2.543,5.669-5.669,5.669ZM81.826,38.268c0,2.735-2.225,4.96-4.961,4.96s-4.961-2.225-4.961-4.96c0-.019.005-.036.006-.055l-8.547,8.551,13.88,13.886v-6.792h1.417v9.212h-9.213v-1.417h6.794l-13.88-13.887-13.88,13.887h6.794v1.417h-9.213v-9.212h1.417v6.792l13.88-13.886-8.547-8.551c0,.019.006.036.006.055,0,2.735-2.225,4.96-4.961,4.96s-4.961-2.225-4.961-4.96,2.225-4.96,4.961-4.96c1.368,0,2.608.556,3.506,1.454l10.998,11,10.998-11c.898-.898,2.138-1.454,3.506-1.454,2.735,0,4.961,2.225,4.961,4.96Z"/>
  </g>
  <g id="Takt._Zeichen__x28_Typo_x29_">
    <g>
      <path d="M14.042,34.809c-.252.216-1.019.768-2.519.768-2.183,0-3.802-1.151-3.802-4.317,0-2.962,2.027-4.246,4.054-4.246,1.391,0,2.087.575,2.303.743l-.444,1.02c-.192-.168-.78-.659-1.823-.659-1.439,0-2.71.899-2.71,3.142,0,2.254.936,3.214,2.591,3.214.42,0,.792-.072,1.104-.168v-2.111h-1.487v-1.067h2.734v3.682Z"/>
      <path d="M23.162,35.433h-1.104l-1.811-6.164h-.024l-1.823,6.164h-1.091l-2.243-8.275h1.391l1.463,6.213h.024l1.751-6.213h1.223l1.691,6.213h.024l1.499-6.213h1.307l-2.279,8.275Z"/>
      <path d="M8.13,46.772v-8.275h1.835c3.118,0,4.545,1.14,4.545,3.981,0,2.986-1.751,4.294-4.677,4.294h-1.703ZM9.425,39.588v6.093h.408c2.147,0,3.31-.9,3.31-3.203,0-2.146-1.103-2.89-3.178-2.89h-.54Z"/>
      <path d="M20.163,44.169h-3.25c.072,1.188.672,1.703,1.679,1.703.839,0,1.307-.384,1.463-.516l.312.863c-.18.18-.684.696-1.979.696-1.619,0-2.663-.923-2.663-3.094,0-2.051,1.199-2.986,2.566-2.986,1.223,0,1.979.803,1.979,2.291,0,.444-.048.768-.108,1.043ZM16.901,43.306h2.243c.024-.132.024-.228.024-.336,0-.72-.372-1.151-.984-1.151-.708,0-1.223.516-1.283,1.487Z"/>
      <path d="M24.388,43.606l2.195,3.166h-1.487l-1.703-2.53h-.456v2.53h-1.223v-8.467l1.223-.12v5.049h.456l1.679-2.255h1.403l-2.087,2.627Z"/>
      <path d="M29.62,46.916c-1.439,0-2.554-.959-2.554-3.046,0-2.075,1.271-3.034,2.675-3.034,1.439,0,2.542.936,2.542,3.034,0,2.062-1.271,3.046-2.663,3.046ZM29.68,41.89c-.78,0-1.367.6-1.367,1.979,0,1.391.588,1.991,1.367,1.991.792,0,1.355-.612,1.355-1.991,0-1.392-.588-1.979-1.355-1.979Z"/>
      <path d="M37.24,46.772v-3.43c0-.996-.312-1.451-1.055-1.451-.636,0-1.067.3-1.307.528v4.354h-1.223v-5.793h1.127v.647h.024c.228-.275.768-.791,1.739-.791,1.235,0,1.907.791,1.907,2.314v3.622h-1.211Z"/>
    </g>
    <path d="M62.719,62.366h-.588v2.83h-1.295v-8.275h1.943c2.363,0,3.418.947,3.418,2.603,0,1.739-1.163,2.843-3.478,2.843ZM62.779,57.989h-.648v3.298h.588c1.451,0,2.111-.623,2.111-1.715,0-1.031-.635-1.583-2.051-1.583Z"/>
  </g>
</svg>