<?xml version="1.0" encoding="UTF-8"?>
<svg xmlns="http://www.w3.org/2000/svg" version="1.1" viewBox="0 0 90.709 90.709">
  <!-- Generator: Adobe Illustrator 29.1.0, SVG Export Plug-In . SVG Version: 2.1.0 Build 142)  -->
  <g id="Grundfläche">
    <rect x="0" y="0" width="90.709" height="90.709" fill="#fff"/>
  </g>
  <g id="Flächige_Fülung">
    <path d="M45.355,22.678c-17.008,0-31.181-2.582-42.52-6.378v57.402h85.04V16.3c-11.339,3.794-25.512,6.378-42.52,6.378Z" fill="#fa1919"/>
  </g>
  <g id="Takt_Zeichen__x28_umgewandelt_x29_">
    <path d="M84.313,74.41h4.27V15.316s-.934.312-.934.312c-12.575,4.208-26.805,6.341-42.295,6.341S15.629,19.836,3.06,15.628l-.934-.312v59.095h4.268c-1.727,1.294-2.852,3.349-2.852,5.668,0,3.908,3.179,7.086,7.087,7.086s7.087-3.179,7.087-7.086c0-2.319-1.125-4.375-2.852-5.668h60.979c-1.727,1.294-2.852,3.349-2.852,5.668,0,3.908,3.179,7.086,7.087,7.086s7.087-3.179,7.087-7.086c0-2.319-1.125-4.375-2.852-5.668ZM45.355,23.386c15.261,0,29.322-2.054,41.811-6.107v47.917s-83.622,0-83.622,0V17.28c12.483,4.052,26.544,6.106,41.811,6.106ZM16.299,80.079c0,3.126-2.543,5.669-5.669,5.669s-5.669-2.543-5.669-5.669,2.533-5.658,5.65-5.668h.039c3.117.011,5.65,2.549,5.65,5.668ZM80.078,85.748c-3.126,0-5.669-2.543-5.669-5.669s2.533-5.658,5.65-5.668h.039c3.117.011,5.65,2.549,5.65,5.668s-2.543,5.669-5.669,5.669Z"/>
  </g>
  <g id="Takt._Zeichen__x28_Typo_x29_">
    <g>
      <path d="M14.042,34.807c-.252.216-1.019.768-2.519.768-2.183,0-3.802-1.151-3.802-4.317,0-2.962,2.027-4.246,4.054-4.246,1.391,0,2.087.576,2.303.744l-.444,1.02c-.192-.168-.78-.66-1.823-.66-1.439,0-2.71.899-2.71,3.142,0,2.255.936,3.214,2.591,3.214.42,0,.792-.072,1.104-.168v-2.111h-1.487v-1.067h2.734v3.682Z"/>
      <path d="M23.162,35.431h-1.104l-1.811-6.165h-.024l-1.823,6.165h-1.091l-2.243-8.275h1.391l1.463,6.213h.024l1.751-6.213h1.223l1.691,6.213h.024l1.499-6.213h1.307l-2.279,8.275Z"/>
      <path d="M29.476,32.253h-3.286v-.983h3.286v.983Z"/>
      <path d="M32.561,27.156v7.208h3.406l-.084,1.067h-4.617v-8.275h1.295Z"/>
      <path d="M40.024,34.436h1.679v.995h-4.582v-.995h1.691v-5.589l-1.619.576-.264-.959,2.195-.828h.899v6.801Z"/>
    </g>
  </g>
</svg>