<?xml version="1.0" encoding="UTF-8"?>
<svg xmlns="http://www.w3.org/2000/svg" version="1.1" viewBox="0 0 90.709 90.709">
  <!-- Generator: Adobe Illustrator 29.1.0, SVG Export Plug-In . SVG Version: 2.1.0 Build 142)  -->
  <g id="Grundfläche">
    <rect x="0" width="90.709" height="90.709" fill="#fff"/>
  </g>
  <g id="Flächige_Fülung">
    <rect x="2.834" y="17.008" width="85.04" height="56.693" fill="#fa1919"/>
  </g>
  <g id="Takt_Zeichen__x28_umgewandelt_x29_">
    <path d="M2.126,74.409h86.457V16.299H2.126v58.11ZM3.543,72.992V25.512h83.622v47.48H3.543Z"/>
    <path d="M35.433,9.921c0,2.348-1.904,4.252-4.252,4.252-2.348,0-4.252-1.904-4.252-4.252,0-2.348,1.904-4.252,4.252-4.252,2.348,0,4.252,1.904,4.252,4.252ZM59.528,5.669c-2.348,0-4.252,1.904-4.252,4.252s1.904,4.252,4.252,4.252c2.348,0,4.252-1.904,4.252-4.252s-1.904-4.252-4.252-4.252Z"/>
  </g>
  <g id="Takt._Zeichen__x28_Typo_x29_">
    <g>
      <path d="M35.784,46.043v.06c2.22.42,4.32,2.04,4.32,4.89,0,3.33-2.46,5.7-8.28,5.7h-4.89v-20.699h4.62c5.85,0,7.98,2.07,7.98,5.37,0,2.94-1.83,4.08-3.75,4.68ZM31.554,38.603h-1.38v6.36h1.35c3.18,0,4.68-1.26,4.68-3.42,0-1.77-1.32-2.94-4.65-2.94ZM32.004,47.573h-1.83v6.48h1.65c3.48,0,4.89-1.14,4.89-3.3,0-2.04-1.71-3.18-4.71-3.18Z"/>
      <path d="M54.174,50.183h-8.13c.18,2.97,1.68,4.26,4.2,4.26,2.1,0,3.27-.96,3.66-1.29l.78,2.16c-.45.45-1.71,1.74-4.95,1.74-4.05,0-6.66-2.31-6.66-7.74,0-5.13,3-7.47,6.42-7.47,3.06,0,4.95,2.01,4.95,5.729,0,1.11-.12,1.92-.27,2.61ZM46.014,48.023h5.61c.06-.33.06-.57.06-.84,0-1.8-.93-2.88-2.46-2.88-1.77,0-3.06,1.29-3.21,3.72Z"/>
      <path d="M65.604,44.813c-.15-.09-.54-.24-1.23-.24-1.8,0-2.82.96-3.27,1.8v10.32h-3.06v-14.49h2.82v2.07h.06c.54-1.17,1.53-2.34,3.66-2.34.6,0,1.05.12,1.26.18l-.24,2.7Z"/>
    </g>
  </g>
</svg>