<?xml version="1.0" encoding="UTF-8"?>
<svg xmlns="http://www.w3.org/2000/svg" version="1.1" viewBox="0 0 90.709 90.709">
  <!-- Generator: Adobe Illustrator 29.1.0, SVG Export Plug-In . SVG Version: 2.1.0 Build 142)  -->
  <g id="Grundfläche">
    <rect x="0" width="90.709" height="90.709" fill="#fff"/>
  </g>
  <g id="Flächige_Fülung">
    <rect x="2.834" y="17.008" width="85.04" height="56.693" fill="#fafa00"/>
  </g>
  <g id="Takt_Zeichen__x28_umgewandelt_x29_">
    <path d="M2.126,74.409h86.457V16.299H2.126v58.11ZM3.543,72.992V25.512h83.622v47.48H3.543Z"/>
    <path d="M35.433,9.921c0,2.348-1.904,4.252-4.252,4.252-2.348,0-4.252-1.904-4.252-4.252,0-2.348,1.904-4.252,4.252-4.252,2.348,0,4.252,1.904,4.252,4.252ZM59.528,5.669c-2.348,0-4.252,1.904-4.252,4.252s1.904,4.252,4.252,4.252c2.348,0,4.252-1.904,4.252-4.252s-1.904-4.252-4.252-4.252Z"/>
  </g>
  <g id="Takt._Zeichen__x28_Typo_x29_">
    <g>
      <path d="M37.629,38.664h-6.24v18.029h-3.24v-18.029h-6.27v-2.67h15.959l-.21,2.67Z"/>
      <path d="M52.479,38.664h-8.28v6.239h7.62v2.7h-7.62v6.42h9.179l-.21,2.67h-12.209v-20.699h11.729l-.21,2.67Z"/>
      <path d="M60.399,35.994v18.029h8.52l-.21,2.67h-11.55v-20.699h3.24Z"/>
    </g>
  </g>
</svg>