<?xml version="1.0" encoding="UTF-8"?>
<svg xmlns="http://www.w3.org/2000/svg" version="1.1" viewBox="0 0 90.709 90.709">
  <!-- Generator: Adobe Illustrator 29.1.0, SVG Export Plug-In . SVG Version: 2.1.0 Build 142)  -->
  <g id="Grundfläche">
    <rect x="0" width="90.709" height="90.709" fill="#fff"/>
  </g>
  <g id="Flächige_Fülung">
    <rect x="2.834" y="17.008" width="85.04" height="56.693" fill="#fafa00"/>
  </g>
  <g id="Takt_Zeichen__x28_umgewandelt_x29_">
    <path d="M2.126,74.409h86.457V16.299H2.126v58.11ZM3.543,72.992V25.512h83.622v47.48H3.543Z"/>
  </g>
  <g id="Takt._Zeichen__x28_Typo_x29_">
    <g>
      <path d="M34.719,32.994h-8.28v6.24h7.62v2.7h-7.62v6.419h9.18l-.21,2.67h-12.209v-20.699h11.729l-.21,2.67Z"/>
      <path d="M51.399,51.023l-2.07-6.149h-6.93l-2.07,6.149h-3.3l7.71-20.699h2.55l7.68,20.699h-3.57ZM45.909,34.524h-.06l-2.67,7.95h5.4l-2.67-7.95Z"/>
      <path d="M61.059,30.324v18.029h8.52l-.21,2.67h-11.55v-20.699h3.24Z"/>
    </g>
    <g>
      <path d="M40.155,65.197h-1.151l-3.826-5.841h-.024v5.841h-1.295v-8.275h1.164l3.814,5.805h.024v-5.805h1.295v8.275Z"/>
      <path d="M44.224,65.341c-1.439,0-2.554-.959-2.554-3.046,0-2.075,1.271-3.035,2.674-3.035,1.439,0,2.542.936,2.542,3.035,0,2.062-1.271,3.046-2.663,3.046ZM44.284,60.315c-.779,0-1.367.6-1.367,1.979,0,1.391.588,1.991,1.367,1.991.792,0,1.355-.612,1.355-1.991,0-1.392-.588-1.979-1.355-1.979Z"/>
      <path d="M51.28,60.447c-.06-.036-.216-.096-.492-.096-.719,0-1.127.384-1.307.72v4.126h-1.223v-5.793h1.127v.827h.024c.216-.468.611-.935,1.463-.935.24,0,.42.048.504.072l-.096,1.08Z"/>
      <path d="M54.796,59.272c.492,0,.84.12,1.056.24v-2.783l1.211-.12v8.587h-1.116v-.648h-.024c-.144.216-.552.792-1.655.792-1.283,0-2.231-1.02-2.231-2.962,0-2.147,1.355-3.106,2.758-3.106ZM55.852,63.758v-3.202c-.192-.132-.48-.252-.923-.252-.983,0-1.631.6-1.631,2.003,0,1.439.6,1.979,1.367,1.979.648,0,1.008-.312,1.188-.528Z"/>
    </g>
  </g>
</svg>