<?xml version="1.0" encoding="UTF-8"?>
<svg xmlns="http://www.w3.org/2000/svg" version="1.1" viewBox="0 0 90.709 90.709">
  <!-- Generator: Adobe Illustrator 29.1.0, SVG Export Plug-In . SVG Version: 2.1.0 Build 142)  -->
  <g id="Grundfläche">
    <rect x="0" width="90.709" height="90.709" fill="#fff"/>
  </g>
  <g id="Flächige_Fülung">
    <rect x="2.834" y="17.008" width="85.04" height="56.693" fill="#fafa00"/>
  </g>
  <g id="Takt_Zeichen__x28_umgewandelt_x29_">
    <path d="M2.126,74.409h86.457V16.299H2.126v58.11ZM3.543,72.992V25.512h83.622v47.48H3.543Z"/>
  </g>
  <g id="Takt._Zeichen__x28_Typo_x29_">
    <g>
      <path d="M19.254,46.103l7.979,10.59h-4.02l-6.6-9.09h-1.68v9.09h-3.24v-20.699h3.24v8.909h1.74l6.39-8.909h3.63l-7.44,10.109Z"/>
      <path d="M35.244,48.473h.93v-.84c0-2.22-.93-3.18-2.7-3.18-1.74,0-2.94.87-3.51,1.35l-1.02-2.07c.72-.63,2.31-1.89,5.13-1.89,3.3,0,5.07,1.86,5.07,5.85v5.58c0,1.439.12,2.79.21,3.42h-2.85c-.03-.42-.09-.96-.09-1.59h-.06c-.51.84-1.59,1.95-3.78,1.95-2.37,0-3.99-1.71-3.99-4.23,0-3,2.91-4.35,6.66-4.35ZM36.174,53.393v-2.94l-1.11.061c-2.37.12-3.54.689-3.54,2.069,0,1.23.84,2.01,1.83,2.01,1.53,0,2.34-.66,2.82-1.2Z"/>
      <path d="M50.514,44.693h-3.54v6.75c0,2.19.57,2.97,2.04,2.97.75,0,1.35-.24,1.62-.36l.27,2.34c-.27.15-1.11.63-2.67.63-3.03,0-4.32-1.561-4.32-5.25v-7.08h-1.979v-2.1l1.979-.36.36-4.05h2.7v4.02h3.87l-.33,2.49Z"/>
      <path d="M63.504,39.864c-.54-.42-1.8-1.41-3.75-1.41-2.16,0-3.18.96-3.18,2.189,0,1.47.66,2.25,2.79,3.57l2.01,1.229c2.61,1.62,4.08,3.3,4.08,5.97,0,3.03-2.28,5.64-6.87,5.64-3.3,0-4.95-1.35-5.64-1.92l1.11-2.85c.66.66,2.25,1.92,4.47,1.92,2.49,0,3.63-1.11,3.63-2.37,0-1.59-.78-2.399-2.73-3.689l-2.04-1.35c-2.79-1.86-4.05-3.27-4.05-6.089,0-2.79,2.4-5.07,6.27-5.07,2.94,0,4.35,1.11,4.95,1.56l-1.05,2.67Z"/>
      <path d="M72.564,35.994v18.029h8.52l-.21,2.67h-11.55v-20.699h3.24Z"/>
    </g>
  </g>
</svg>