<?xml version="1.0" encoding="UTF-8"?>
<svg xmlns="http://www.w3.org/2000/svg" version="1.1" viewBox="0 0 90.709 90.709">
  <!-- Generator: Adobe Illustrator 29.1.0, SVG Export Plug-In . SVG Version: 2.1.0 Build 142)  -->
  <g id="Grundfläche">
    <rect x="0" width="90.709" height="90.709" fill="#fff"/>
  </g>
  <g id="Flächige_Fülung">
    <rect x="2.834" y="17.008" width="85.04" height="56.693" fill="#fafa00"/>
  </g>
  <g id="Takt_Zeichen__x28_umgewandelt_x29_">
    <path d="M2.126,74.409h86.457V16.299H2.126v58.11ZM3.543,72.992V25.512h83.622v47.48H3.543Z"/>
  </g>
  <g id="Takt._Zeichen__x28_Typo_x29_">
    <g>
      <path d="M28.419,48.083c0,5.97-2.64,8.97-7.92,8.97s-7.74-2.7-7.74-8.97v-12.089h3.24v12.179c0,4.29,1.56,6.12,4.65,6.12,3.18,0,4.65-1.74,4.65-6.12v-12.179h3.12v12.089Z"/>
      <path d="M44.979,38.664h-8.28v6.239h7.62v2.7h-7.62v6.42h9.179l-.21,2.67h-12.209v-20.699h11.729l-.21,2.67Z"/>
      <path d="M61.659,56.693l-2.07-6.15h-6.93l-2.07,6.15h-3.3l7.71-20.699h2.55l7.68,20.699h-3.57ZM56.169,40.194h-.06l-2.67,7.95h5.4l-2.67-7.95Z"/>
      <path d="M71.319,35.994v18.029h8.52l-.21,2.67h-11.55v-20.699h3.24Z"/>
    </g>
  </g>
</svg>