<?xml version="1.0" encoding="UTF-8"?>
<svg xmlns="http://www.w3.org/2000/svg" version="1.1" viewBox="0 0 90.709 90.709">
  <!-- Generator: Adobe Illustrator 29.1.0, SVG Export Plug-In . SVG Version: 2.1.0 Build 142)  -->
  <g id="Grundfläche">
    <rect x="0" width="90.709" height="90.709" fill="#fff"/>
  </g>
  <g id="Flächige_Fülung">
    <circle cx="45.356" cy="51.024" r="34.016" fill="#fafa00"/>
  </g>
  <g id="Takt_Zeichen__x28_umgewandelt_x29_">
    <path d="M82.637,30.619l-.864,1.123L45.354,3.729,8.935,31.742l-.864-1.123L45.354,1.941l37.283,28.679ZM80.08,51.024c0,19.147-15.577,34.724-34.724,34.724S10.631,70.171,10.631,51.024,26.208,16.299,45.356,16.299s34.724,15.577,34.724,34.724ZM78.663,51.024c0-18.366-14.941-33.307-33.307-33.307S12.048,32.658,12.048,51.024s14.942,33.307,33.308,33.307,33.307-14.941,33.307-33.307ZM19.842,59.527l25.511-8.504-25.511-8.504v17.008ZM70.866,59.527v-17.008l-25.512,8.504,25.512,8.504Z"/>
  </g>
</svg>