<?xml version="1.0" encoding="UTF-8"?>
<svg xmlns="http://www.w3.org/2000/svg" version="1.1" viewBox="0 0 90.709 90.709">
  <!-- Generator: Adobe Illustrator 29.1.0, SVG Export Plug-In . SVG Version: 2.1.0 Build 142)  -->
  <g id="Grundfläche">
    <rect x="0" width="90.709" height="90.709" fill="#fff"/>
  </g>
  <g id="Flächige_Fülung">
    <circle cx="45.356" cy="45.354" r="34.016" fill="#fafa00"/>
  </g>
  <g id="Takt_Zeichen__x28_umgewandelt_x29_">
    <path d="M68.74,60.236H21.969v-29.764h.994l.133.056c4.783,2.028,13.142,4.196,22.259,4.196s17.476-2.167,22.259-4.196l.133-.056h.995v29.764ZM23.386,58.819h43.937v-26.641c-5.013,1.976-13.152,3.963-21.969,3.963s-16.955-1.987-21.968-3.963v26.641ZM45.355,80.078c-19.147,0-34.724-15.577-34.724-34.724S26.208,10.63,45.355,10.63s34.725,15.577,34.725,34.724-15.577,34.724-34.725,34.724ZM45.355,12.047c-18.365,0-33.307,14.941-33.307,33.307s14.941,33.307,33.307,33.307,33.307-14.941,33.307-33.307S63.721,12.047,45.355,12.047Z"/>
  </g>
</svg>