<?xml version="1.0" encoding="UTF-8"?>
<svg xmlns="http://www.w3.org/2000/svg" version="1.1" viewBox="0 0 90.709 90.709">
  <!-- Generator: Adobe Illustrator 29.1.0, SVG Export Plug-In . SVG Version: 2.1.0 Build 142)  -->
  <g id="Grundfläche">
    <rect x="0" width="90.709" height="90.709" fill="#fff"/>
  </g>
  <g id="Flächige_Fülung">
    <circle cx="45.356" cy="51.024" r="34.016" fill="#fafa00"/>
  </g>
  <g id="Takt_Zeichen__x28_umgewandelt_x29_">
    <path d="M82.637,30.619l-.864,1.123L45.354,3.729,8.935,31.742l-.864-1.123L45.354,1.941l37.283,28.679ZM80.08,51.024c0,19.147-15.577,34.724-34.724,34.724S10.631,70.171,10.631,51.024,26.208,16.299,45.356,16.299s34.724,15.577,34.724,34.724ZM78.663,51.024c0-8.755-3.4-16.726-8.943-22.677H20.991c-5.543,5.951-8.943,13.922-8.943,22.677,0,18.366,14.942,33.307,33.308,33.307s33.307-14.941,33.307-33.307Z"/>
  </g>
  <g id="Takt._Zeichen__x28_Typo_x29_">
    <g>
      <path d="M31.134,41.663v18.029h8.52l-.21,2.67h-11.55v-20.699h3.24Z"/>
      <path d="M49.224,50.363h-3.54v6.75c0,2.19.57,2.97,2.04,2.97.75,0,1.351-.24,1.62-.36l.27,2.34c-.27.15-1.11.63-2.67.63-3.03,0-4.32-1.56-4.32-5.25v-7.08h-1.979v-2.1l1.979-.36.36-4.05h2.7v4.02h3.87l-.33,2.49Z"/>
      <path d="M62.214,45.533c-.54-.42-1.8-1.41-3.75-1.41-2.16,0-3.18.96-3.18,2.19,0,1.47.66,2.25,2.79,3.569l2.01,1.23c2.61,1.62,4.08,3.3,4.08,5.97,0,3.029-2.28,5.64-6.87,5.64-3.3,0-4.95-1.35-5.64-1.92l1.11-2.85c.66.66,2.25,1.92,4.47,1.92,2.49,0,3.63-1.11,3.63-2.37,0-1.59-.78-2.4-2.73-3.69l-2.04-1.35c-2.79-1.86-4.05-3.27-4.05-6.09,0-2.79,2.4-5.069,6.27-5.069,2.94,0,4.35,1.109,4.95,1.56l-1.05,2.67Z"/>
    </g>
  </g>
</svg>