<?xml version="1.0" encoding="UTF-8"?>
<svg xmlns="http://www.w3.org/2000/svg" version="1.1" viewBox="0 0 90.709 90.709">
  <!-- Generator: Adobe Illustrator 29.1.0, SVG Export Plug-In . SVG Version: 2.1.0 Build 142)  -->
  <g id="Grundfläche">
    <rect x="0" y="0" width="90.709" height="90.709" fill="#fff"/>
  </g>
  <g id="Flächige_Fülung">
    <rect x="19.297" y="19.297" width="52.114" height="52.114" transform="translate(45.354 -18.786) rotate(45)" fill="#fafa00"/>
  </g>
  <g id="Takt_Zeichen__x28_umgewandelt_x29_">
    <path d="M36.445,3.448l-3.847,2.221,3.847,2.221-.708,1.228-3.847-2.221v4.442h-1.417v-4.442l-3.847,2.221-.708-1.228,3.847-2.221-3.847-2.221.708-1.228,3.847,2.221V0h1.417v4.442l3.847-2.221.708,1.228ZM64.792,3.448l-.708-1.228-3.847,2.221V0h-1.417v4.442l-3.847-2.221-.708,1.228,3.847,2.221-3.847,2.221.708,1.228,3.847-2.221v4.442h1.417v-4.442l3.847,2.221.708-1.228-3.847-2.221,3.847-2.221Z"/>
    <path d="M45.354,7.502L7.502,45.354l37.853,37.853,37.853-37.853L45.354,7.502ZM9.506,45.354l22.677-22.677h26.342l22.677,22.677-35.848,35.848L9.506,45.354Z"/>
  </g>
  <g id="Takt._Zeichen__x28_Typo_x29_">
    <g>
      <path d="M73.628,82.204l-.828-2.458h-2.771l-.827,2.458h-1.319l3.082-8.275h1.02l3.07,8.275h-1.427ZM71.433,75.608h-.024l-1.067,3.178h2.159l-1.067-3.178Z"/>
      <path d="M83.083,82.204h-1.104l-1.811-6.164h-.024l-1.823,6.164h-1.091l-2.243-8.275h1.391l1.463,6.213h.024l1.751-6.213h1.223l1.691,6.213h.024l1.499-6.213h1.307l-2.279,8.275Z"/>
    </g>
    <g>
      <path d="M40.207,40.418h-4.161v12.022h-2.161v-12.022h-4.181v-1.78h10.642l-.14,1.78Z"/>
      <path d="M50.107,40.418h-5.521v4.161h5.081v1.8h-5.081v4.281h6.122l-.14,1.78h-8.142v-13.803h7.821l-.14,1.78Z"/>
      <path d="M55.385,38.638v12.022h5.681l-.14,1.78h-7.701v-13.803h2.16Z"/>
    </g>
  </g>
</svg>