<?xml version="1.0" encoding="UTF-8"?>
<svg xmlns="http://www.w3.org/2000/svg" version="1.1" viewBox="0 0 90.709 90.709">
  <!-- Generator: Adobe Illustrator 29.1.0, SVG Export Plug-In . SVG Version: 2.1.0 Build 142)  -->
  <g id="Grundfläche">
    <rect x="0" y="0" width="90.709" height="90.709" fill="#fff"/>
  </g>
  <g id="Flächige_Fülung">
    <rect x="19.297" y="19.297" width="52.114" height="52.114" transform="translate(45.354 -18.786) rotate(45)" fill="#fff"/>
  </g>
  <g id="Takt_Zeichen__x28_umgewandelt_x29_">
    <path d="M45.354,7.502L7.502,45.354l37.852,37.853,37.853-37.853L45.354,7.502ZM57.817,21.968h-24.925l12.462-12.462,12.462,12.462ZM9.506,45.354l21.969-21.969h27.759l21.969,21.969-35.848,35.848L9.506,45.354Z"/>
  </g>
  <g id="Takt._Zeichen__x28_Typo_x29_">
    <g>
      <path d="M36.346,52.441l-3.12-5.361c-.32.04-.641.04-.98.04h-.82v5.321h-2.16v-13.803h3.081c3.821,0,5.561,1.42,5.561,4.061,0,1.801-.84,3.181-2.561,3.901l3.601,5.841h-2.601ZM32.345,40.418h-.92v4.941h.82c2.301,0,3.361-.92,3.361-2.601,0-1.6-1.02-2.34-3.261-2.34Z"/>
      <path d="M46.146,45.379l5.321,7.062h-2.681l-4.401-6.062h-1.12v6.062h-2.16v-13.803h2.16v5.941h1.16l4.261-5.941h2.42l-4.961,6.741Z"/>
      <path d="M59.246,45.339v.04c1.48.28,2.88,1.36,2.88,3.261,0,2.221-1.64,3.801-5.521,3.801h-3.26v-13.803h3.08c3.901,0,5.321,1.38,5.321,3.581,0,1.96-1.22,2.72-2.5,3.121ZM56.425,40.378h-.92v4.241h.9c2.12,0,3.12-.84,3.12-2.28,0-1.18-.88-1.96-3.101-1.96ZM56.725,46.36h-1.22v4.32h1.1c2.321,0,3.261-.76,3.261-2.2,0-1.36-1.14-2.12-3.141-2.12Z"/>
    </g>
    <g>
      <path d="M66.377,82.204v-8.275h1.835c3.118,0,4.545,1.139,4.545,3.981,0,2.986-1.751,4.294-4.677,4.294h-1.703ZM67.672,75.02v6.093h.408c2.147,0,3.31-.899,3.31-3.202,0-2.146-1.103-2.891-3.178-2.891h-.54Z"/>
      <path d="M78.71,82.204l-1.871-3.214c-.192.024-.384.024-.588.024h-.492v3.19h-1.295v-8.275h1.847c2.291,0,3.334.852,3.334,2.435,0,1.079-.503,1.907-1.535,2.338l2.159,3.502h-1.559ZM76.312,74.996h-.552v2.962h.492c1.379,0,2.015-.552,2.015-1.559,0-.959-.611-1.403-1.955-1.403Z"/>
      <path d="M84.591,77.97l3.19,4.234h-1.607l-2.639-3.634h-.671v3.634h-1.295v-8.275h1.295v3.562h.696l2.554-3.562h1.451l-2.974,4.042Z"/>
    </g>
  </g>
</svg>