<?xml version="1.0" encoding="UTF-8"?>
<svg xmlns="http://www.w3.org/2000/svg" version="1.1" viewBox="0 0 90.709 90.709">
  <!-- Generator: Adobe Illustrator 29.1.0, SVG Export Plug-In . SVG Version: 2.1.0 Build 142)  -->
  <g id="Grundfläche">
    <rect x="0" y="0" width="90.709" height="90.709" fill="#fff"/>
  </g>
  <g id="Flächige_Fülung">
    <rect x="19.297" y="19.297" width="52.114" height="52.114" transform="translate(45.354 -18.786) rotate(45)" fill="#fff"/>
  </g>
  <g id="Takt_Zeichen__x28_umgewandelt_x29_">
    <path d="M63.78,7.086c0,2.348-1.904,4.252-4.252,4.252-2.348,0-4.252-1.904-4.252-4.252s1.904-4.252,4.252-4.252c2.348,0,4.252,1.904,4.252,4.252ZM31.181,2.834c-2.348,0-4.252,1.904-4.252,4.252s1.904,4.252,4.252,4.252c2.348,0,4.252-1.904,4.252-4.252,0-2.348-1.904-4.252-4.252-4.252Z"/>
    <path d="M45.354,7.502L7.501,45.354l37.853,37.853,37.853-37.853L45.354,7.502ZM32.184,22.677h26.342l22.677,22.677-17.423,17.423-18.424-18.426-18.426,18.426-17.423-17.423,22.677-22.677ZM27.931,63.779l17.423-17.423,17.423,17.423-17.423,17.423-17.423-17.423Z"/>
  </g>
  <g id="Takt._Zeichen__x28_Typo_x29_">
    <g>
      <path d="M72.259,82.204h-1.259v-5.48h-.024l-2.207,5.48h-.995l-2.219-5.48h-.024v5.48h-1.247v-8.275h1.427l2.603,6.44h.024l2.614-6.44h1.308v8.275Z"/>
      <path d="M80.695,82.204h-1.295v-3.634h-3.754v3.634h-1.295v-8.275h1.295v3.562h3.754v-3.562h1.295v8.275Z"/>
      <path d="M82.787,82.204v-8.275h1.835c3.118,0,4.545,1.14,4.545,3.982,0,2.986-1.751,4.293-4.677,4.293h-1.703ZM84.082,75.021v6.093h.408c2.146,0,3.31-.9,3.31-3.203,0-2.147-1.103-2.89-3.178-2.89h-.54Z"/>
    </g>
  </g>
</svg>