<?xml version="1.0" encoding="UTF-8"?>
<svg xmlns="http://www.w3.org/2000/svg" version="1.1" viewBox="0 0 90.709 90.709">
  <!-- Generator: Adobe Illustrator 29.1.0, SVG Export Plug-In . SVG Version: 2.1.0 Build 142)  -->
  <g id="Grundfläche">
    <rect x="0" y="0" width="90.709" height="90.709" fill="#fff"/>
  </g>
  <g id="Flächige_Fülung">
    <rect x="19.297" y="24.966" width="52.114" height="52.114" transform="translate(49.363 -17.126) rotate(45)" fill="#fa1919"/>
  </g>
  <g id="Takt_Zeichen__x28_umgewandelt_x29_">
    <path d="M45.354,13.171L7.502,51.024l37.853,37.853,37.853-37.853L45.354,13.171ZM58.525,28.347l11.339,11.339-10.63,10.63H10.215l21.969-21.969h26.342ZM61.238,50.315l9.628-9.628,9.628,9.628h-19.256ZM80.494,51.732l-9.628,9.628-9.628-9.628h19.256ZM10.215,51.732h49.019l10.63,10.63-24.51,24.51L10.215,51.732Z"/>
    <path d="M49.606,7.086c0,2.348-1.904,4.252-4.252,4.252-2.348,0-4.252-1.904-4.252-4.252s1.904-4.252,4.252-4.252c2.348,0,4.252,1.904,4.252,4.252ZM59.528,2.834c-2.348,0-4.252,1.904-4.252,4.252,0,2.348,1.904,4.252,4.252,4.252,2.348,0,4.252-1.904,4.252-4.252s-1.904-4.252-4.252-4.252ZM31.181,2.834c-2.348,0-4.252,1.904-4.252,4.252s1.904,4.252,4.252,4.252c2.348,0,4.252-1.904,4.252-4.252,0-2.348-1.904-4.252-4.252-4.252Z"/>
  </g>
</svg>