<?xml version="1.0" encoding="UTF-8"?>
<svg xmlns="http://www.w3.org/2000/svg" version="1.1" viewBox="0 0 90.709 90.709">
  <!-- Generator: Adobe Illustrator 29.1.0, SVG Export Plug-In . SVG Version: 2.1.0 Build 142)  -->
  <g id="Grundfläche">
    <rect x="0" y="0" width="90.709" height="90.709" fill="#fff"/>
  </g>
  <g id="Flächige_Fülung">
    <rect x="19.297" y="19.297" width="52.114" height="52.114" transform="translate(45.354 -18.786) rotate(45)" fill="#fafa00"/>
  </g>
  <g id="Takt_Zeichen__x28_umgewandelt_x29_">
    <path d="M36.445,3.448l-3.847,2.221,3.847,2.221-.708,1.228-3.847-2.221v4.442h-1.417v-4.442l-3.847,2.221-.708-1.228,3.847-2.221-3.847-2.221.708-1.228,3.847,2.221V0h1.417v4.442l3.847-2.221.708,1.228ZM64.792,3.448l-.708-1.228-3.847,2.221V0h-1.417v4.442l-3.847-2.221-.708,1.228,3.847,2.221-3.847,2.221.708,1.228,3.847-2.221v4.442h1.417v-4.442l3.847,2.221.708-1.228-3.847-2.221,3.847-2.221Z"/>
    <path d="M45.354,7.502L7.502,45.354l37.853,37.853,37.853-37.853L45.354,7.502ZM9.506,45.354l22.677-22.677h26.342l22.677,22.677-35.848,35.848L9.506,45.354Z"/>
  </g>
  <g id="Takt._Zeichen__x28_Typo_x29_">
    <g>
      <path d="M31.876,52.681c-3.621,0-6.141-2.46-6.141-7.142s2.601-7.142,6.221-7.142c3.601,0,6.101,2.461,6.101,7.142s-2.581,7.142-6.181,7.142ZM31.916,40.239c-2.42,0-3.881,1.78-3.881,5.301,0,3.461,1.46,5.301,3.881,5.301,2.381,0,3.861-1.84,3.861-5.301,0-3.521-1.48-5.301-3.861-5.301Z"/>
      <path d="M45.536,44.519c-.1-.06-.36-.16-.82-.16-1.2,0-1.881.64-2.181,1.2v6.881h-2.04v-9.662h1.88v1.381h.04c.36-.78,1.02-1.561,2.44-1.561.4,0,.7.08.84.12l-.16,1.8Z"/>
      <path d="M55.416,44.179h-1.32c.28.48.46,1.041.46,1.641,0,2.141-1.66,3.28-3.821,3.28-.3,0-.6-.02-.88-.06-.28.14-.62.42-.62.82,0,.38.26.64.88.64h2.021c2.061,0,3.261.84,3.261,2.581,0,1.9-1.781,3.601-5.241,3.601-2.4,0-3.681-.92-3.681-2.581,0-1.38,1.04-1.98,1.62-2.281v-.06c-.4-.32-.58-.78-.58-1.341,0-1.02.88-1.58,1.16-1.72v-.04c-.98-.5-1.62-1.44-1.62-2.841,0-2.221,1.68-3.281,3.761-3.281.52,0,1.02.1,1.46.24h3.361l-.22,1.4ZM49.095,52.181c-.38.26-.78.7-.78,1.46,0,1.021.7,1.461,2.041,1.461,2.14,0,3.141-.801,3.141-1.741,0-.8-.44-1.12-1.48-1.12h-2.1c-.3,0-.58-.02-.82-.06ZM50.835,44.059c-1,0-1.9.5-1.9,1.761s.9,1.74,1.86,1.74c1,0,1.88-.48,1.88-1.74s-.88-1.761-1.84-1.761Z"/>
      <path d="M59.995,38.638v12.022h5.681l-.14,1.78h-7.701v-13.803h2.16Z"/>
    </g>
  </g>
</svg>