<?xml version="1.0" encoding="UTF-8"?>
<svg xmlns="http://www.w3.org/2000/svg" version="1.1" viewBox="0 0 90.709 90.709">
  <!-- Generator: Adobe Illustrator 29.1.0, SVG Export Plug-In . SVG Version: 2.1.0 Build 142)  -->
  <g id="Grundfläche">
    <rect x="0" y="0" width="90.709" height="90.709" fill="#fff"/>
  </g>
  <g id="Flächige_Fülung">
    <rect x="19.297" y="24.966" width="52.114" height="52.114" transform="translate(49.363 -17.126) rotate(45)" fill="#fff"/>
  </g>
  <g id="Takt_Zeichen__x28_umgewandelt_x29_">
    <path d="M49.606,7.086c0,2.348-1.904,4.252-4.252,4.252-2.348,0-4.252-1.904-4.252-4.252s1.904-4.252,4.252-4.252c2.348,0,4.252,1.904,4.252,4.252ZM59.528,2.834c-2.348,0-4.252,1.904-4.252,4.252s1.904,4.252,4.252,4.252c2.348,0,4.252-1.904,4.252-4.252,0-2.348-1.904-4.252-4.252-4.252ZM31.181,2.834c-2.348,0-4.252,1.904-4.252,4.252s1.904,4.252,4.252,4.252c2.348,0,4.252-1.904,4.252-4.252,0-2.348-1.904-4.252-4.252-4.252Z"/>
    <path d="M45.354,13.171L7.501,51.023l37.853,37.853,37.853-37.853L45.354,13.171ZM32.184,28.346h26.342l22.677,22.677-17.423,17.423-18.424-18.426-18.426,18.426-17.423-17.423,22.677-22.677ZM27.931,69.448l17.423-17.423,17.423,17.423-17.423,17.423-17.423-17.423Z"/>
  </g>
  <g id="Takt._Zeichen__x28_Typo_x29_">
    <g>
      <path d="M72.2,87.873l-.828-2.458h-2.771l-.827,2.458h-1.319l3.082-8.275h1.02l3.07,8.275h-1.427ZM70.006,81.277h-.024l-1.067,3.178h2.159l-1.067-3.178Z"/>
      <path d="M78.477,81.145c-.216-.168-.719-.564-1.499-.564-.863,0-1.271.384-1.271.876,0,.587.264.899,1.115,1.427l.804.492c1.043.647,1.631,1.319,1.631,2.387,0,1.211-.912,2.254-2.747,2.254-1.319,0-1.979-.54-2.255-.768l.444-1.139c.264.264.899.768,1.787.768.996,0,1.451-.444,1.451-.947,0-.636-.312-.96-1.091-1.476l-.815-.54c-1.116-.744-1.619-1.307-1.619-2.435,0-1.115.959-2.026,2.506-2.026,1.175,0,1.739.443,1.979.624l-.42,1.067Z"/>
      <path d="M84.345,83.616v.024c.888.168,1.727.815,1.727,1.955,0,1.331-.983,2.278-3.31,2.278h-1.955v-8.275h1.847c2.338,0,3.19.828,3.19,2.147,0,1.175-.731,1.631-1.499,1.871ZM82.654,80.642h-.552v2.542h.54c1.271,0,1.871-.503,1.871-1.367,0-.708-.528-1.175-1.859-1.175ZM82.834,84.228h-.731v2.59h.66c1.391,0,1.955-.456,1.955-1.319,0-.815-.684-1.271-1.883-1.271Z"/>
    </g>
  </g>
</svg>