<?xml version="1.0" encoding="UTF-8"?>
<svg xmlns="http://www.w3.org/2000/svg" version="1.1" viewBox="0 0 90.709 90.709">
  <!-- Generator: Adobe Illustrator 29.1.0, SVG Export Plug-In . SVG Version: 2.1.0 Build 142)  -->
  <g id="Grundfläche">
    <rect x="0" y="0" width="90.709" height="90.709" fill="#fff"/>
  </g>
  <g id="Flächige_Fülung">
    <rect x="19.297" y="24.966" width="52.114" height="52.114" transform="translate(49.363 -17.126) rotate(45)" fill="#003296"/>
  </g>
  <g id="Takt_Zeichen__x28_umgewandelt_x29_">
    <path d="M45.354,13.171L7.502,51.024l37.853,37.853,37.853-37.853L45.354,13.171ZM9.506,51.024l22.677-22.677h26.342l22.677,22.677-35.848,35.848L9.506,51.024Z"/>
    <path d="M49.606,7.086c0,2.348-1.904,4.252-4.252,4.252-2.348,0-4.252-1.904-4.252-4.252s1.904-4.252,4.252-4.252c2.348,0,4.252,1.904,4.252,4.252ZM59.528,2.834c-2.348,0-4.252,1.904-4.252,4.252,0,2.348,1.904,4.252,4.252,4.252,2.348,0,4.252-1.904,4.252-4.252s-1.904-4.252-4.252-4.252ZM31.181,2.834c-2.348,0-4.252,1.904-4.252,4.252s1.904,4.252,4.252,4.252c2.348,0,4.252-1.904,4.252-4.252,0-2.348-1.904-4.252-4.252-4.252Z"/>
  </g>
  <g id="Takt._Zeichen__x28_Typo_x29_">
    <g>
      <path d="M44.947,46.087h-4.161v12.022h-2.16v-12.022h-4.181v-1.78h10.642l-.14,1.78Z" fill="#fff"/>
      <path d="M55.507,45.567l-6.542,10.722v.04h7.082l-.14,1.78h-9.762v-1.28l6.661-10.722v-.04h-6.281v-1.761h8.982v1.26Z" fill="#fff"/>
    </g>
  </g>
</svg>