<?xml version="1.0" encoding="UTF-8"?>
<svg xmlns="http://www.w3.org/2000/svg" version="1.1" viewBox="0 0 90.709 90.709">
  <!-- Generator: Adobe Illustrator 29.1.0, SVG Export Plug-In . SVG Version: 2.1.0 Build 142)  -->
  <g id="Grundfläche">
    <rect x="0" width="90.709" height="90.709" fill="#fff"/>
  </g>
  <g id="Flächige_Fülung">
    <rect x="24.308" y="37.064" width="42.092" height="42.092" transform="translate(54.374 -15.05) rotate(45)" fill="#fafa00"/>
  </g>
  <g id="Takt_Zeichen__x28_umgewandelt_x29_">
    <path d="M43.532,3.448l-3.847,2.221,3.847,2.221-.708,1.228-3.847-2.221v4.442h-1.417v-4.442l-3.847,2.221-.708-1.228,3.847-2.221-3.847-2.221.708-1.228,3.847,2.221V0h1.417v4.442l3.847-2.221.708,1.228ZM56.996,2.221l-3.847,2.221V0h-1.417v4.442l-3.847-2.221-.708,1.228,3.847,2.221-3.847,2.221.708,1.228,3.847-2.221v4.442h1.417v-4.442l3.847,2.221.708-1.228-3.847-2.221,3.847-2.221-.708-1.228ZM42.823,16.394l-3.847,2.221v-4.442h-1.417v4.442l-3.847-2.221-.708,1.228,3.847,2.221-3.847,2.221.708,1.228,3.847-2.221v4.442h1.417v-4.442l3.847,2.221.708-1.228-3.847-2.221,3.847-2.221-.708-1.228ZM30.067,10.725l-3.847,2.221v-4.442h-1.417v4.442l-3.847-2.221-.708,1.228,3.847,2.221-3.847,2.221.708,1.228,3.847-2.221v4.442h1.417v-4.442l3.847,2.221.708-1.228-3.847-2.221,3.847-2.221-.708-1.228ZM70.461,11.952l-.708-1.228-3.847,2.221v-4.442h-1.417v4.442l-3.847-2.221-.708,1.228,3.847,2.221-3.847,2.221.708,1.228,3.847-2.221v4.442h1.417v-4.442l3.847,2.221.708-1.228-3.847-2.221,3.847-2.221ZM56.996,16.394l-3.847,2.221v-4.442h-1.417v4.442l-3.847-2.221-.708,1.228,3.847,2.221-3.847,2.221.708,1.228,3.847-2.221v4.442h1.417v-4.442l3.847,2.221.708-1.228-3.847-2.221,3.847-2.221-.708-1.228Z"/>
    <path d="M45.354,27.344l-30.766,30.766,30.766,30.767,30.766-30.767-30.766-30.766ZM16.593,58.11l18.425-18.425h20.673l18.425,18.425-28.762,28.762-28.761-28.762Z"/>
  </g>
</svg>