<?xml version="1.0" encoding="UTF-8"?>
<svg xmlns="http://www.w3.org/2000/svg" version="1.1" viewBox="0 0 90.709 90.709">
  <!-- Generator: Adobe Illustrator 29.1.0, SVG Export Plug-In . SVG Version: 2.1.0 Build 142)  -->
  <g id="Grundfläche">
    <rect x="0" width="90.709" height="90.709" fill="#fff"/>
  </g>
  <g id="Flächige_Fülung">
    <rect x="19.297" y="24.966" width="52.114" height="52.114" transform="translate(49.363 -17.126) rotate(45)" fill="#64dc32"/>
  </g>
  <g id="Takt_Zeichen__x28_umgewandelt_x29_">
    <path d="M22.272,3.448l-3.847,2.221,3.847,2.221-.708,1.228-3.847-2.221v4.442h-1.417v-4.442l-3.847,2.221-.708-1.228,3.847-2.221-3.847-2.221.708-1.228,3.847,2.221V0h1.417v4.442l3.847-2.221.708,1.228ZM35.737,2.221l-3.847,2.221V0h-1.417v4.442l-3.847-2.221-.708,1.228,3.847,2.221-3.847,2.221.708,1.228,3.847-2.221v4.442h1.417v-4.442l3.847,2.221.708-1.228-3.847-2.221,3.847-2.221-.708-1.228ZM49.91,2.221l-3.847,2.221V0h-1.417v4.442l-3.847-2.221-.708,1.228,3.847,2.221-3.847,2.221.708,1.228,3.847-2.221v4.442h1.417v-4.442l3.847,2.221.708-1.228-3.847-2.221,3.847-2.221-.708-1.228ZM64.083,2.221l-3.847,2.221V0h-1.417v4.442l-3.847-2.221-.708,1.228,3.847,2.221-3.847,2.221.708,1.228,3.847-2.221v4.442h1.417v-4.442l3.847,2.221.708-1.228-3.847-2.221,3.847-2.221-.708-1.228ZM78.256,2.221l-3.847,2.221V0h-1.417v4.442l-3.847-2.221-.708,1.228,3.847,2.221-3.847,2.221.708,1.228,3.847-2.221v4.442h1.417v-4.442l3.847,2.221.708-1.228-3.847-2.221,3.847-2.221-.708-1.228Z"/>
    <path d="M45.354,13.171L7.502,51.024l37.853,37.853,37.853-37.853L45.354,13.171ZM9.506,51.024l22.677-22.677h26.342l22.677,22.677-35.848,35.848L9.506,51.024Z"/>
  </g>
  <g id="Takt._Zeichen__x28_Typo_x29_">
    <g>
      <path d="M64.915,83.616v.024c.887.168,1.727.815,1.727,1.955,0,1.332-.984,2.279-3.31,2.279h-1.955v-8.275h1.847c2.339,0,3.19.827,3.19,2.146,0,1.175-.731,1.631-1.499,1.871ZM63.224,80.641h-.552v2.543h.54c1.271,0,1.871-.504,1.871-1.367,0-.708-.528-1.176-1.859-1.176ZM63.404,84.227h-.732v2.591h.66c1.391,0,1.955-.456,1.955-1.319,0-.815-.684-1.271-1.883-1.271Z"/>
      <path d="M72.799,87.874h-1.115v-.648h-.024c-.204.24-.672.792-1.727.792-1.223,0-1.871-.768-1.871-2.314v-3.622h1.223v3.418c0,1.031.3,1.463,1.02,1.463.659,0,1.031-.288,1.271-.516v-4.365h1.223v5.793Z"/>
      <path d="M76.556,85.043h-.588v2.831h-1.295v-8.275h1.943c2.363,0,3.418.947,3.418,2.603,0,1.739-1.163,2.842-3.478,2.842ZM76.616,80.666h-.648v3.298h.588c1.451,0,2.111-.624,2.111-1.715,0-1.031-.636-1.583-2.051-1.583Z"/>
      <path d="M83.444,88.017c-1.439,0-2.554-.959-2.554-3.046,0-2.075,1.271-3.035,2.675-3.035,1.439,0,2.542.936,2.542,3.035,0,2.062-1.271,3.046-2.663,3.046ZM83.504,82.992c-.78,0-1.367.6-1.367,1.979,0,1.391.588,1.991,1.367,1.991.792,0,1.355-.612,1.355-1.991,0-1.392-.588-1.979-1.355-1.979Z"/>
      <path d="M88.688,86.242c0,.587.156.755.54.755.204,0,.348-.048.42-.072l.072.852c-.084.06-.396.204-.887.204-.852,0-1.355-.396-1.355-1.607v-6.968l1.211-.12v6.956Z"/>
    </g>
  </g>
</svg>