<?xml version="1.0" encoding="UTF-8"?>
<svg xmlns="http://www.w3.org/2000/svg" version="1.1" viewBox="0 0 90.709 90.709">
  <!-- Generator: Adobe Illustrator 29.1.0, SVG Export Plug-In . SVG Version: 2.1.0 Build 142)  -->
  <g id="Grundfläche">
    <rect x="0" width="90.709" height="90.709" fill="#fff"/>
  </g>
  <g id="Flächige_Fülung">
    <rect x="19.297" y="19.297" width="52.114" height="52.114" transform="translate(45.354 -18.786) rotate(45)" fill="#fafa00"/>
  </g>
  <g id="Takt_Zeichen__x28_umgewandelt_x29_">
    <path d="M36.445,3.448l-3.847,2.221,3.847,2.221-.708,1.228-3.847-2.221v4.442h-1.417v-4.442l-3.847,2.221-.708-1.228,3.847-2.221-3.847-2.221.708-1.228,3.847,2.221V0h1.417v4.442l3.847-2.221.708,1.228ZM64.792,3.448l-.708-1.228-3.847,2.221V0h-1.417v4.442l-3.847-2.221-.708,1.228,3.847,2.221-3.847,2.221.708,1.228,3.847-2.221v4.442h1.417v-4.442l3.847,2.221.708-1.228-3.847-2.221,3.847-2.221Z"/>
    <path d="M45.354,7.502L7.502,45.354l37.853,37.853,37.853-37.853L45.354,7.502ZM9.506,45.354l22.677-22.677h26.342l22.677,22.677-35.848,35.848L9.506,45.354Z"/>
  </g>
  <g id="Takt._Zeichen__x28_Typo_x29_">
    <g>
      <path d="M75.015,75.476c-.216-.168-.72-.563-1.499-.563-.864,0-1.271.384-1.271.875,0,.588.264.9,1.115,1.428l.804.491c1.043.648,1.631,1.319,1.631,2.387,0,1.212-.912,2.255-2.747,2.255-1.319,0-1.979-.54-2.255-.768l.444-1.139c.264.264.9.768,1.787.768.995,0,1.451-.444,1.451-.948,0-.636-.312-.959-1.092-1.475l-.815-.54c-1.115-.744-1.619-1.308-1.619-2.435,0-1.115.959-2.027,2.507-2.027,1.176,0,1.739.444,1.979.624l-.42,1.067Z"/>
      <path d="M82.85,74.997h-2.495v7.208h-1.295v-7.208h-2.507v-1.067h6.38l-.084,1.067Z"/>
    </g>
    <g>
      <path d="M35.875,38.638v12.023h5.681l-.14,1.78h-7.701v-13.803h2.16Z"/>
      <path d="M47.936,44.439h-2.36v4.501c0,1.46.38,1.98,1.36,1.98.5,0,.9-.16,1.08-.24l.18,1.561c-.18.1-.74.42-1.78.42-2.021,0-2.881-1.04-2.881-3.501v-4.721h-1.32v-1.4l1.32-.24.24-2.7h1.8v2.681h2.581l-.22,1.66Z"/>
      <path d="M56.597,41.218c-.36-.28-1.2-.94-2.5-.94-1.44,0-2.121.641-2.121,1.46,0,.98.44,1.5,1.86,2.38l1.34.82c1.74,1.08,2.721,2.201,2.721,3.981,0,2.021-1.521,3.761-4.581,3.761-2.201,0-3.301-.9-3.761-1.28l.74-1.9c.44.44,1.5,1.28,2.98,1.28,1.66,0,2.42-.74,2.42-1.581,0-1.06-.52-1.6-1.82-2.46l-1.36-.9c-1.86-1.24-2.701-2.181-2.701-4.061,0-1.86,1.601-3.38,4.181-3.38,1.96,0,2.9.74,3.301,1.04l-.7,1.78Z"/>
    </g>
  </g>
</svg>