<?xml version="1.0" encoding="UTF-8"?>
<svg xmlns="http://www.w3.org/2000/svg" version="1.1" viewBox="0 0 90.709 90.709">
  <!-- Generator: Adobe Illustrator 29.1.0, SVG Export Plug-In . SVG Version: 2.1.0 Build 142)  -->
  <g id="Grundfläche">
    <rect x="0" width="90.709" height="90.709" fill="#fff"/>
  </g>
  <g id="Flächige_Fülung">
    <rect x="19.297" y="19.297" width="52.114" height="52.114" transform="translate(45.354 -18.786) rotate(45)" fill="#fa1919"/>
  </g>
  <g id="Takt_Zeichen__x28_umgewandelt_x29_">
    <path d="M36.445,3.448l-3.847,2.221,3.847,2.221-.708,1.228-3.847-2.221v4.442h-1.417v-4.442l-3.847,2.221-.708-1.228,3.847-2.221-3.847-2.221.708-1.228,3.847,2.221V0h1.417v4.442l3.847-2.221.708,1.228ZM64.083,2.221l-3.847,2.221V0h-1.417v4.442l-3.847-2.221-.708,1.228,3.847,2.221-3.847,2.221.708,1.228,3.847-2.221v4.442h1.417v-4.442l3.847,2.221.708-1.228-3.847-2.221,3.847-2.221-.708-1.228Z"/>
    <path d="M45.354,7.502L7.502,45.354l37.853,37.853,37.853-37.853L45.354,7.502ZM9.506,45.354l22.677-22.677h26.342l22.677,22.677-35.848,35.848L9.506,45.354Z"/>
  </g>
  <g id="Takt._Zeichen__x28_Typo_x29_">
    <g>
      <path d="M77.281,82.205h-1.259v-5.481h-.024l-2.207,5.481h-.996l-2.219-5.481h-.024v5.481h-1.247v-8.275h1.427l2.603,6.44h.024l2.615-6.44h1.307v8.275Z"/>
      <path d="M83.978,74.997h-3.31v2.494h3.046v1.08h-3.046v2.567h3.67l-.084,1.067h-4.881v-8.275h4.689l-.084,1.067Z"/>
    </g>
    <g>
      <path d="M31.836,45.38l5.321,7.062h-2.68l-4.401-6.062h-1.12v6.062h-2.16v-13.803h2.16v5.941h1.16l4.261-5.941h2.42l-4.961,6.742Z"/>
      <path d="M44.936,45.34v.04c1.48.28,2.88,1.36,2.88,3.261,0,2.22-1.64,3.801-5.521,3.801h-3.261v-13.803h3.081c3.901,0,5.321,1.38,5.321,3.581,0,1.961-1.22,2.721-2.5,3.121ZM42.116,40.379h-.92v4.24h.9c2.121,0,3.121-.84,3.121-2.28,0-1.18-.88-1.96-3.101-1.96ZM42.416,46.36h-1.22v4.321h1.1c2.32,0,3.261-.76,3.261-2.2,0-1.36-1.14-2.121-3.141-2.121Z"/>
      <path d="M63.918,52.441h-2.101v-9.142h-.04l-3.681,9.142h-1.661l-3.701-9.142h-.04v9.142h-2.08v-13.803h2.38l4.341,10.743h.04l4.361-10.743h2.181v13.803Z"/>
    </g>
  </g>
</svg>