<?xml version="1.0" encoding="UTF-8"?>
<svg xmlns="http://www.w3.org/2000/svg" version="1.1" viewBox="0 0 90.709 90.709">
  <!-- Generator: Adobe Illustrator 29.1.0, SVG Export Plug-In . SVG Version: 2.1.0 Build 142)  -->
  <g id="Grundfläche">
    <rect x="0" width="90.709" height="90.709" fill="#fff"/>
  </g>
  <g id="Flächige_Fülung">
    <rect x="2.835" y="17.008" width="85.04" height="56.693" fill="#fff"/>
    <rect x="5.669" y="19.843" width="79.37" height="42.52" fill="#003296"/>
  </g>
  <g id="Takt_Zeichen__x28_umgewandelt_x29_">
    <path d="M88.583,74.409H2.126V16.3h86.457v58.11ZM3.543,72.992h83.622V17.717H3.543v55.276Z"/>
    <path d="M54.567,2.835h4.252v11.339h-4.252V2.835ZM31.89,14.173h4.252V2.835h-4.252v11.339Z"/>
  </g>
  <g id="Takt._Zeichen__x28_Typo_x29_">
    <g>
      <path d="M62.953,52.321h-2.495v7.208h-1.295v-7.208h-2.506v-1.067h6.38l-.084,1.067Z" fill="#fff"/>
      <path d="M70.633,59.529h-1.295v-3.634h-3.754v3.634h-1.295v-8.275h1.295v3.562h3.754v-3.562h1.295v8.275Z" fill="#fff"/>
      <path d="M80.004,59.529h-1.104l-1.811-6.165h-.024l-1.823,6.165h-1.091l-2.243-8.275h1.392l1.463,6.213h.024l1.751-6.213h1.223l1.691,6.213h.024l1.5-6.213h1.307l-2.279,8.275Z" fill="#fff"/>
    </g>
    <g>
      <path d="M28.116,31.297c-.36-.28-1.2-.94-2.5-.94-1.44,0-2.12.64-2.12,1.46,0,.98.44,1.5,1.86,2.38l1.34.82c1.74,1.081,2.72,2.201,2.72,3.981,0,2.021-1.52,3.761-4.581,3.761-2.201,0-3.301-.9-3.761-1.28l.74-1.9c.44.44,1.5,1.28,2.981,1.28,1.66,0,2.42-.74,2.42-1.581,0-1.06-.52-1.6-1.82-2.46l-1.36-.9c-1.86-1.24-2.701-2.181-2.701-4.061,0-1.86,1.6-3.381,4.181-3.381,1.96,0,2.901.74,3.301,1.04l-.7,1.78Z" fill="#fff"/>
      <path d="M35.376,42.8c-.9,2.641-1.84,3.841-3.981,3.841-.54,0-.82-.14-.9-.18v-1.72c.08.04.38.14.76.14,1.3,0,1.88-.62,2.301-1.94l.16-.48-3.561-9.602h2.18l2.321,7.062h.04l2.12-7.062h2l-3.441,9.942Z" fill="#fff"/>
      <path d="M45.416,35.078c-.32-.24-1.04-.8-2.08-.8-.94,0-1.42.38-1.42.86,0,.641.4.94,1.36,1.421l.66.32c1.5.74,2.38,1.56,2.38,3.041,0,1.62-1.16,2.841-3.541,2.841-1.66,0-2.541-.62-2.98-1.021l.68-1.7c.4.4,1.14,1,2.26,1,1.06,0,1.66-.38,1.66-.92,0-.78-.52-1.04-1.56-1.601l-.64-.34c-1.38-.7-2.14-1.521-2.14-2.94,0-1.561,1.38-2.621,3.281-2.621,1.56,0,2.34.62,2.68.9l-.6,1.561Z" fill="#fff"/>
      <path d="M54.736,35.418v.04c1.48.28,2.881,1.36,2.881,3.261,0,2.221-1.64,3.801-5.521,3.801h-3.26v-13.803h3.081c3.901,0,5.321,1.38,5.321,3.581,0,1.96-1.22,2.72-2.5,3.121ZM51.915,30.457h-.92v4.241h.9c2.12,0,3.121-.84,3.121-2.28,0-1.18-.88-1.96-3.101-1.96ZM52.215,36.439h-1.22v4.32h1.1c2.321,0,3.261-.76,3.261-2.2,0-1.36-1.14-2.12-3.141-2.12Z" fill="#fff"/>
      <path d="M67.496,42.52l-3.121-5.361c-.32.04-.64.04-.98.04h-.82v5.321h-2.16v-13.803h3.081c3.821,0,5.561,1.42,5.561,4.061,0,1.801-.84,3.181-2.561,3.901l3.601,5.841h-2.601ZM63.495,30.497h-.92v4.941h.82c2.301,0,3.361-.92,3.361-2.601,0-1.6-1.02-2.34-3.261-2.34Z" fill="#fff"/>
    </g>
  </g>
</svg>