<?xml version="1.0" encoding="UTF-8"?>
<svg xmlns="http://www.w3.org/2000/svg" version="1.1" viewBox="0 0 90.709 90.709">
  <!-- Generator: Adobe Illustrator 29.1.0, SVG Export Plug-In . SVG Version: 2.1.0 Build 142)  -->
  <g id="Grundfläche">
    <rect x="0" width="90.709" height="90.709" fill="#fff"/>
  </g>
  <g id="Flächige_Fülung">
    <rect x="2.835" y="17.008" width="85.04" height="56.693" fill="#fff"/>
    <rect x="5.669" y="19.842" width="79.37" height="51.024" fill="#003296"/>
  </g>
  <g id="Takt_Zeichen__x28_umgewandelt_x29_">
    <path d="M88.583,74.409H2.126V16.3h86.457v58.11ZM3.543,72.992h83.622V17.717H3.543v55.276Z"/>
    <path d="M35.433,9.921c0,2.348-1.904,4.252-4.252,4.252-2.348,0-4.252-1.904-4.252-4.252,0-2.348,1.904-4.252,4.252-4.252,2.348,0,4.252,1.904,4.252,4.252ZM59.528,5.669c-2.348,0-4.252,1.904-4.252,4.252s1.904,4.252,4.252,4.252c2.348,0,4.252-1.904,4.252-4.252s-1.904-4.252-4.252-4.252ZM45.354,5.669c-2.348,0-4.252,1.904-4.252,4.252s1.904,4.252,4.252,4.252c2.348,0,4.252-1.904,4.252-4.252s-1.904-4.252-4.252-4.252Z"/>
  </g>
  <g id="Takt._Zeichen__x28_Typo_x29_">
    <g>
      <path d="M28.646,51.024h-1.7l-5.021-13.803h2.401l3.521,10.722h.04l3.581-10.722h2.2l-5.021,13.803Z" fill="#fff"/>
      <path d="M40.826,51.264c-3.621,0-6.141-2.461-6.141-7.142s2.601-7.142,6.221-7.142c3.601,0,6.101,2.46,6.101,7.142s-2.581,7.142-6.181,7.142ZM40.866,38.821c-2.42,0-3.881,1.781-3.881,5.301,0,3.461,1.46,5.301,3.881,5.301,2.381,0,3.861-1.84,3.861-5.301,0-3.521-1.48-5.301-3.861-5.301Z" fill="#fff"/>
      <path d="M55.986,39.801c-.36-.28-1.2-.94-2.5-.94-1.44,0-2.12.64-2.12,1.46,0,.98.44,1.5,1.86,2.38l1.34.82c1.74,1.081,2.72,2.201,2.72,3.981,0,2.021-1.52,3.761-4.581,3.761-2.201,0-3.301-.9-3.761-1.28l.74-1.9c.44.44,1.5,1.28,2.981,1.28,1.66,0,2.42-.74,2.42-1.581,0-1.06-.52-1.6-1.82-2.46l-1.36-.9c-1.86-1.24-2.701-2.181-2.701-4.061,0-1.86,1.6-3.381,4.181-3.381,1.96,0,2.901.74,3.301,1.04l-.7,1.78Z" fill="#fff"/>
      <path d="M69.047,39.001h-4.161v12.022h-2.16v-12.022h-4.181v-1.78h10.642l-.14,1.78Z" fill="#fff"/>
    </g>
    <g>
      <path d="M62.953,60.823h-2.495v7.208h-1.295v-7.208h-2.507v-1.067h6.38l-.084,1.067Z" fill="#fff"/>
      <path d="M70.633,68.031h-1.295v-3.634h-3.754v3.634h-1.295v-8.275h1.295v3.562h3.754v-3.562h1.295v8.275Z" fill="#fff"/>
      <path d="M80.004,68.031h-1.104l-1.811-6.165h-.024l-1.823,6.165h-1.091l-2.243-8.275h1.391l1.463,6.213h.024l1.751-6.213h1.223l1.691,6.213h.024l1.499-6.213h1.307l-2.279,8.275Z" fill="#fff"/>
    </g>
  </g>
</svg>