<?xml version="1.0" encoding="UTF-8"?>
<svg xmlns="http://www.w3.org/2000/svg" version="1.1" viewBox="0 0 90.709 90.709">
  <!-- Generator: Adobe Illustrator 29.1.0, SVG Export Plug-In . SVG Version: 2.1.0 Build 142)  -->
  <g id="Grundfläche">
    <rect x="0" width="90.709" height="90.709" fill="#fff"/>
  </g>
  <g id="Flächige_Fülung">
    <rect x="2.835" y="17.008" width="85.04" height="56.693" fill="#fff"/>
    <rect x="5.669" y="19.842" width="79.37" height="43.937" fill="#003296"/>
  </g>
  <g id="Takt_Zeichen__x28_umgewandelt_x29_">
    <path d="M88.583,74.409H2.126V16.3h86.457v58.11ZM3.543,72.992h83.623V17.717H3.543v55.276Z"/>
    <circle cx="45.354" cy="9.921" r="4.252"/>
  </g>
  <g id="Takt._Zeichen__x28_Typo_x29_">
    <g>
      <path d="M17.885,27.3v12.023h5.681l-.14,1.78h-7.702v-13.803h2.16Z" fill="#fff"/>
      <path d="M29.085,41.342c-2.4,0-4.261-1.6-4.261-5.081,0-3.46,2.121-5.061,4.461-5.061,2.4,0,4.241,1.56,4.241,5.061,0,3.441-2.12,5.081-4.441,5.081ZM29.185,32.961c-1.3,0-2.28,1-2.28,3.301,0,2.321.98,3.321,2.28,3.321,1.32,0,2.261-1.021,2.261-3.321,0-2.32-.98-3.301-2.261-3.301Z" fill="#fff"/>
      <path d="M43.786,32.841h-1.32c.28.48.46,1.041.46,1.64,0,2.141-1.66,3.281-3.821,3.281-.3,0-.6-.02-.88-.06-.28.14-.62.42-.62.82,0,.38.26.64.88.64h2.021c2.061,0,3.261.84,3.261,2.581,0,1.9-1.78,3.601-5.241,3.601-2.4,0-3.681-.92-3.681-2.58,0-1.381,1.04-1.98,1.621-2.281v-.06c-.4-.32-.581-.78-.581-1.34,0-1.02.88-1.581,1.161-1.72v-.04c-.98-.5-1.621-1.44-1.621-2.841,0-2.22,1.681-3.28,3.761-3.28.521,0,1.021.1,1.46.24h3.361l-.22,1.4ZM37.465,40.842c-.38.26-.78.7-.78,1.46,0,1.02.7,1.46,2.041,1.46,2.141,0,3.141-.8,3.141-1.74,0-.8-.44-1.12-1.48-1.12h-2.1c-.3,0-.58-.021-.82-.061ZM39.205,32.721c-1,0-1.9.5-1.9,1.76s.9,1.74,1.86,1.74c1,0,1.88-.479,1.88-1.74s-.88-1.76-1.84-1.76Z" fill="#fff"/>
      <path d="M51.185,35.801h-5.481v-1.64h5.481v1.64Z" fill="#fff"/>
      <path d="M58.825,41.103h-1.7l-5.021-13.803h2.401l3.521,10.723h.04l3.581-10.723h2.2l-5.021,13.803Z" fill="#fff"/>
      <path d="M75.407,40.062c-.42.36-1.701,1.28-4.201,1.28-3.641,0-6.341-1.92-6.341-7.201,0-4.941,3.381-7.082,6.762-7.082,2.32,0,3.48.96,3.841,1.24l-.74,1.701c-.32-.28-1.3-1.101-3.041-1.101-2.4,0-4.521,1.5-4.521,5.241,0,3.761,1.56,5.361,4.321,5.361.7,0,1.32-.12,1.84-.28v-3.521h-2.48v-1.781h4.561v6.141Z" fill="#fff"/>
    </g>
    <g>
      <path d="M62.953,53.738h-2.495v7.208h-1.295v-7.208h-2.507v-1.067h6.38l-.084,1.067Z" fill="#fff"/>
      <path d="M70.633,60.946h-1.295v-3.634h-3.754v3.634h-1.295v-8.275h1.295v3.562h3.754v-3.562h1.295v8.275Z" fill="#fff"/>
      <path d="M80.004,60.946h-1.104l-1.811-6.165h-.024l-1.823,6.165h-1.091l-2.243-8.275h1.391l1.463,6.212h.024l1.751-6.212h1.223l1.691,6.212h.024l1.499-6.212h1.307l-2.278,8.275Z" fill="#fff"/>
    </g>
  </g>
</svg>