<?xml version="1.0" encoding="UTF-8"?>
<svg xmlns="http://www.w3.org/2000/svg" version="1.1" viewBox="0 0 90.709 90.709">
  <!-- Generator: Adobe Illustrator 29.1.0, SVG Export Plug-In . SVG Version: 2.1.0 Build 142)  -->
  <g id="Grundfläche">
    <rect x="0" y="0" width="90.709" height="90.709" fill="#fff"/>
  </g>
  <g id="Flächige_Fülung">
    <rect x="2.835" y="17.008" width="85.04" height="56.693" fill="#fff"/>
    <rect x="5.669" y="19.842" width="79.37" height="43.937" fill="#003296"/>
  </g>
  <g id="Takt_Zeichen__x28_umgewandelt_x29_">
    <path d="M88.583,74.409H2.126V16.3h86.457v58.11ZM3.543,72.992h83.623V17.717H3.543v55.276Z"/>
    <path d="M49.606,9.921c0,2.348-1.904,4.252-4.252,4.252-2.348,0-4.252-1.904-4.252-4.252s1.904-4.252,4.252-4.252c2.348,0,4.252,1.904,4.252,4.252Z"/>
  </g>
  <g id="Takt._Zeichen__x28_Typo_x29_">
    <g>
      <path d="M45.547,29.08h-4.161v12.022h-2.161v-12.022h-4.181v-1.781h10.642l-.14,1.781Z" fill="#fff"/>
      <path d="M53.946,29.881c-.36-.28-1.2-.94-2.5-.94-1.44,0-2.121.64-2.121,1.46,0,.98.44,1.501,1.86,2.381l1.341.82c1.74,1.08,2.72,2.2,2.72,3.98,0,2.021-1.52,3.761-4.581,3.761-2.201,0-3.3-.9-3.761-1.28l.74-1.9c.44.44,1.5,1.28,2.981,1.28,1.66,0,2.42-.74,2.42-1.58,0-1.061-.52-1.601-1.82-2.46l-1.36-.9c-1.86-1.24-2.7-2.181-2.7-4.062,0-1.86,1.6-3.38,4.181-3.38,1.96,0,2.9.74,3.301,1.041l-.7,1.78Z" fill="#fff"/>
    </g>
    <g>
      <path d="M62.953,53.738h-2.494v7.208h-1.295v-7.208h-2.506v-1.067h6.38l-.084,1.067Z" fill="#fff"/>
      <path d="M70.633,60.946h-1.295v-3.634h-3.754v3.634h-1.295v-8.275h1.295v3.562h3.754v-3.562h1.295v8.275Z" fill="#fff"/>
      <path d="M80.004,60.946h-1.104l-1.811-6.165h-.024l-1.823,6.165h-1.092l-2.243-8.275h1.391l1.463,6.212h.024l1.751-6.212h1.224l1.691,6.212h.024l1.499-6.212h1.308l-2.279,8.275Z" fill="#fff"/>
    </g>
  </g>
</svg>