<?xml version="1.0" encoding="UTF-8"?>
<svg xmlns="http://www.w3.org/2000/svg" version="1.1" viewBox="0 0 90.709 90.709">
  <!-- Generator: Adobe Illustrator 29.1.0, SVG Export Plug-In . SVG Version: 2.1.0 Build 142)  -->
  <g id="Grundfläche">
    <rect x="0" width="90.709" height="90.709" fill="#fff"/>
  </g>
  <g id="Flächige_Fülung">
    <rect x="2.835" y="17.008" width="85.04" height="56.693" fill="#fff"/>
    <rect x="5.669" y="19.842" width="79.37" height="51.024" fill="#003296"/>
  </g>
  <g id="Takt_Zeichen__x28_umgewandelt_x29_">
    <path d="M88.583,74.409H2.126V16.3h86.457v58.11ZM3.543,72.992h83.622V17.717H3.543v55.276Z"/>
    <path d="M35.433,9.921c0,2.348-1.904,4.252-4.252,4.252-2.348,0-4.252-1.904-4.252-4.252,0-2.348,1.904-4.252,4.252-4.252,2.348,0,4.252,1.904,4.252,4.252ZM59.528,5.669c-2.348,0-4.252,1.904-4.252,4.252,0,2.348,1.904,4.252,4.252,4.252,2.348,0,4.252-1.904,4.252-4.252s-1.904-4.252-4.252-4.252ZM45.354,5.669c-2.348,0-4.252,1.904-4.252,4.252,0,2.348,1.904,4.252,4.252,4.252,2.348,0,4.252-1.904,4.252-4.252,0-2.348-1.904-4.252-4.252-4.252Z"/>
  </g>
  <g id="Takt._Zeichen__x28_Typo_x29_">
    <g>
      <path d="M44.947,39.001h-4.161v12.022h-2.16v-12.022h-4.181v-1.78h10.642l-.14,1.78Z" fill="#fff"/>
      <path d="M55.507,38.481l-6.542,10.723v.04h7.082l-.14,1.78h-9.762v-1.28l6.661-10.723v-.04h-6.281v-1.76h8.982v1.26Z" fill="#fff"/>
    </g>
    <g>
      <path d="M62.953,60.823h-2.495v7.208h-1.295v-7.208h-2.506v-1.067h6.38l-.084,1.067Z" fill="#fff"/>
      <path d="M70.633,68.031h-1.295v-3.634h-3.754v3.634h-1.295v-8.275h1.295v3.562h3.754v-3.562h1.295v8.275Z" fill="#fff"/>
      <path d="M80.004,68.031h-1.104l-1.811-6.165h-.024l-1.823,6.165h-1.091l-2.243-8.275h1.392l1.463,6.213h.024l1.751-6.213h1.223l1.691,6.213h.024l1.5-6.213h1.307l-2.279,8.275Z" fill="#fff"/>
    </g>
  </g>
</svg>