<?xml version="1.0" encoding="UTF-8"?>
<svg xmlns="http://www.w3.org/2000/svg" version="1.1" viewBox="0 0 90.709 90.709">
  <!-- Generator: Adobe Illustrator 29.1.0, SVG Export Plug-In . SVG Version: 2.1.0 Build 142)  -->
  <g id="Grundfläche">
    <rect x="0" width="90.709" height="90.709" fill="#fff"/>
  </g>
  <g id="Flächige_Fülung">
    <rect x="2.835" y="17.008" width="85.04" height="56.693" fill="#fff"/>
    <rect x="5.669" y="19.842" width="79.37" height="43.937" fill="#003296"/>
  </g>
  <g id="Takt_Zeichen__x28_umgewandelt_x29_">
    <path d="M88.583,74.409H2.126V16.3h86.457v58.11ZM3.543,72.992h83.622V17.717H3.543v55.276Z"/>
    <circle cx="45.354" cy="9.921" r="4.252"/>
  </g>
  <g id="Takt._Zeichen__x28_Typo_x29_">
    <g>
      <path d="M21.645,27.3v12.023h5.681l-.14,1.78h-7.702v-13.803h2.16Z" fill="#fff"/>
      <path d="M32.846,41.342c-2.401,0-4.261-1.6-4.261-5.081,0-3.46,2.121-5.061,4.461-5.061,2.401,0,4.241,1.56,4.241,5.061,0,3.441-2.12,5.081-4.441,5.081ZM32.946,32.961c-1.3,0-2.281,1-2.281,3.301,0,2.321.98,3.321,2.281,3.321,1.32,0,2.26-1.021,2.26-3.321,0-2.32-.98-3.301-2.26-3.301Z" fill="#fff"/>
      <path d="M47.546,32.841h-1.32c.28.48.46,1.041.46,1.64,0,2.141-1.66,3.281-3.821,3.281-.3,0-.6-.02-.88-.06-.28.14-.62.42-.62.82,0,.38.26.64.88.64h2.021c2.061,0,3.261.84,3.261,2.581,0,1.9-1.781,3.601-5.241,3.601-2.4,0-3.681-.92-3.681-2.58,0-1.381,1.04-1.98,1.62-2.281v-.06c-.4-.32-.58-.78-.58-1.34,0-1.02.88-1.581,1.16-1.72v-.04c-.98-.5-1.62-1.44-1.62-2.841,0-2.22,1.68-3.28,3.761-3.28.52,0,1.02.1,1.46.24h3.361l-.22,1.4ZM41.225,40.842c-.38.26-.78.7-.78,1.46,0,1.02.7,1.46,2.041,1.46,2.14,0,3.141-.8,3.141-1.74,0-.8-.44-1.12-1.48-1.12h-2.1c-.3,0-.58-.021-.82-.061ZM42.965,32.721c-1,0-1.9.5-1.9,1.76s.9,1.74,1.86,1.74c1,0,1.88-.479,1.88-1.74s-.88-1.76-1.84-1.76Z" fill="#fff"/>
      <path d="M54.946,35.801h-5.481v-1.64h5.481v1.64Z" fill="#fff"/>
      <path d="M71.228,41.103h-2.1v-9.142h-.04l-3.681,9.142h-1.66l-3.701-9.142h-.04v9.142h-2.08v-13.803h2.38l4.341,10.743h.04l4.361-10.743h2.18v13.803Z" fill="#fff"/>
    </g>
    <g>
      <path d="M62.953,53.738h-2.495v7.208h-1.295v-7.208h-2.507v-1.067h6.38l-.084,1.067Z" fill="#fff"/>
      <path d="M70.633,60.946h-1.295v-3.634h-3.754v3.634h-1.295v-8.275h1.295v3.562h3.754v-3.562h1.295v8.275Z" fill="#fff"/>
      <path d="M80.004,60.946h-1.104l-1.811-6.165h-.024l-1.823,6.165h-1.091l-2.243-8.275h1.391l1.463,6.212h.024l1.751-6.212h1.223l1.691,6.212h.024l1.499-6.212h1.307l-2.279,8.275Z" fill="#fff"/>
    </g>
  </g>
</svg>