<?xml version="1.0" encoding="UTF-8"?>
<svg xmlns="http://www.w3.org/2000/svg" version="1.1" viewBox="0 0 90.709 90.709">
  <!-- Generator: Adobe Illustrator 29.1.0, SVG Export Plug-In . SVG Version: 2.1.0 Build 142)  -->
  <g id="Grundfläche">
    <rect x="0" width="90.709" height="90.709" fill="#fff"/>
  </g>
  <g id="Flächige_Fülung">
    <rect x="2.835" y="17.008" width="85.04" height="56.693" fill="#fff"/>
    <rect x="5.669" y="26.929" width="79.37" height="43.937" fill="#003296"/>
  </g>
  <g id="Takt_Zeichen__x28_umgewandelt_x29_">
    <path d="M88.583,74.409H2.126V16.3h86.457v58.11ZM3.543,72.992h83.622V17.717H3.543v55.276Z"/>
    <path d="M88.582,74.409H2.125V16.3h86.457v58.11ZM3.542,72.992h83.622V17.717H3.542v55.276Z"/>
    <path d="M31.18,14.173c-2.348,0-4.252-1.904-4.252-4.252,0-2.348,1.904-4.252,4.252-4.252,2.348,0,4.252,1.904,4.252,4.252s-1.904,4.252-4.252,4.252M59.526,14.173c2.348,0,4.252-1.904,4.252-4.252,0-2.348-1.904-4.252-4.252-4.252-2.348,0-4.252,1.904-4.252,4.252,0,2.348,1.904,4.252,4.252,4.252M45.353,14.173c2.348,0,4.252-1.904,4.252-4.252,0-2.348-1.904-4.252-4.252-4.252-2.348,0-4.252,1.904-4.252,4.252,0,2.348,1.904,4.252,4.252,4.252"/>
  </g>
  <g id="Takt._Zeichen__x28_Typo_x29_">
    <g>
      <path d="M21.585,49.606v-13.803h7.821l-.14,1.78h-5.521v4.561h5.101v1.781h-5.101v5.681h-2.16Z" fill="#fff"/>
      <path d="M40.167,37.064l-6.542,10.722v.04h7.082l-.14,1.78h-9.762v-1.28l6.661-10.722v-.04h-6.281v-1.761h8.982v1.26Z" fill="#fff"/>
      <path d="M47.286,44.305h-5.481v-1.641h5.481v1.641Z" fill="#fff"/>
      <path d="M50.265,49.606v-13.803h7.822l-.14,1.78h-5.521v4.561h5.101v1.781h-5.101v5.681h-2.161Z" fill="#fff"/>
      <path d="M65.546,42.545l5.321,7.062h-2.681l-4.401-6.061h-1.12v6.061h-2.161v-13.803h2.161v5.941h1.16l4.261-5.941h2.42l-4.961,6.741Z" fill="#fff"/>
    </g>
    <g>
      <path d="M62.953,60.823h-2.495v7.208h-1.295v-7.208h-2.507v-1.067h6.38l-.084,1.067Z" fill="#fff"/>
      <path d="M70.633,68.031h-1.295v-3.634h-3.754v3.634h-1.295v-8.275h1.295v3.562h3.754v-3.562h1.295v8.275Z" fill="#fff"/>
      <path d="M80.004,68.031h-1.104l-1.811-6.165h-.024l-1.823,6.165h-1.091l-2.243-8.275h1.391l1.463,6.212h.024l1.751-6.212h1.223l1.691,6.212h.024l1.499-6.212h1.307l-2.279,8.275Z" fill="#fff"/>
    </g>
  </g>
</svg>