<?xml version="1.0" encoding="UTF-8"?>
<svg xmlns="http://www.w3.org/2000/svg" version="1.1" viewBox="0 0 90.709 90.709">
  <!-- Generator: Adobe Illustrator 29.1.0, SVG Export Plug-In . SVG Version: 2.1.0 Build 142)  -->
  <g id="Grundfläche">
    <rect x="0" width="90.709" height="90.709" fill="#fff"/>
  </g>
  <g id="Flächige_Fülung">
    <rect x="2.835" y="17.008" width="85.04" height="56.693" fill="#fff"/>
    <rect x="5.669" y="26.929" width="79.37" height="43.937" fill="#003296"/>
  </g>
  <g id="Takt_Zeichen__x28_umgewandelt_x29_">
    <path d="M88.583,74.409H2.126V16.3h86.457v58.11ZM3.544,72.992h83.622V17.717H3.544v55.276Z"/>
  </g>
  <g id="Takt._Zeichen__x28_Typo_x29_">
    <g>
      <path d="M34.956,38.384c-.36-.28-1.2-.94-2.5-.94-1.44,0-2.12.64-2.12,1.46,0,.98.44,1.5,1.86,2.381l1.34.82c1.74,1.081,2.72,2.201,2.72,3.981,0,2.021-1.52,3.761-4.581,3.761-2.2,0-3.301-.9-3.761-1.28l.74-1.9c.44.44,1.5,1.28,2.981,1.28,1.66,0,2.42-.74,2.42-1.58,0-1.061-.52-1.601-1.82-2.461l-1.36-.9c-1.86-1.24-2.701-2.181-2.701-4.061,0-1.86,1.6-3.381,4.181-3.381,1.96,0,2.901.74,3.301,1.041l-.7,1.78Z" fill="#fff"/>
      <path d="M43.156,41.605h-2.36v4.501c0,1.46.38,1.98,1.36,1.98.5,0,.9-.16,1.08-.24l.18,1.561c-.18.1-.74.42-1.781.42-2.02,0-2.881-1.04-2.881-3.5v-4.721h-1.32v-1.4l1.32-.24.24-2.701h1.8v2.68h2.581l-.22,1.661Z" fill="#fff"/>
      <path d="M49.136,44.125h.62v-.56c0-1.48-.62-2.121-1.801-2.121-1.16,0-1.96.581-2.34.9l-.68-1.38c.48-.42,1.54-1.26,3.421-1.26,2.2,0,3.381,1.24,3.381,3.901v3.721c0,.96.08,1.86.14,2.28h-1.9c-.02-.28-.06-.64-.06-1.06h-.04c-.34.56-1.06,1.3-2.521,1.3-1.58,0-2.66-1.14-2.66-2.82,0-2.001,1.94-2.901,4.441-2.901ZM49.756,47.406v-1.96l-.74.04c-1.58.08-2.361.46-2.361,1.38,0,.82.56,1.34,1.22,1.34,1.02,0,1.56-.439,1.88-.8Z" fill="#fff"/>
      <path d="M57.755,49.806c-1.8,0-2.74-.56-3.341-.96v-13.363l2.04-.16v5.481h.04c.44-.48,1.34-1.1,2.781-1.1,2.08,0,3.481,1.64,3.481,4.641,0,3.98-2.2,5.461-5.001,5.461ZM58.436,41.465c-.96,0-1.62.48-1.98.84v5.481c.24.16.58.36,1.26.36,1.821,0,2.941-.92,2.941-3.541,0-2.141-.86-3.141-2.22-3.141Z" fill="#fff"/>
    </g>
    <g>
      <path d="M62.953,60.823h-2.495v7.208h-1.295v-7.208h-2.507v-1.067h6.38l-.084,1.067Z" fill="#fff"/>
      <path d="M70.633,68.031h-1.295v-3.634h-3.754v3.634h-1.295v-8.275h1.295v3.562h3.754v-3.562h1.295v8.275Z" fill="#fff"/>
      <path d="M80.004,68.031h-1.104l-1.811-6.165h-.024l-1.823,6.165h-1.091l-2.243-8.275h1.391l1.463,6.212h.024l1.751-6.212h1.223l1.691,6.212h.024l1.499-6.212h1.307l-2.279,8.275Z" fill="#fff"/>
    </g>
  </g>
</svg>