<?xml version="1.0" encoding="UTF-8"?>
<svg xmlns="http://www.w3.org/2000/svg" version="1.1" viewBox="0 0 90.709 90.709">
  <!-- Generator: Adobe Illustrator 29.1.0, SVG Export Plug-In . SVG Version: 2.1.0 Build 142)  -->
  <g id="Grundfläche">
    <rect x="0" y="0" width="90.709" height="90.709" fill="#fff"/>
  </g>
  <g id="Flächige_Fülung">
    <path d="M45.355,22.678c-17.008,0-31.181-2.582-42.52-6.378v57.402h85.04V16.3c-11.339,3.794-25.512,6.378-42.52,6.378Z" fill="#fff"/>
    <path d="M45.355,25.513c-14.369,0-27.698-1.797-39.685-5.347v50.702h79.37V20.165c-11.993,3.55-25.321,5.348-39.685,5.348Z" fill="#003296"/>
  </g>
  <g id="Takt_Zeichen__x28_umgewandelt_x29_">
    <path d="M84.313,74.41h4.27V15.315s-.934.312-.934.312c-12.575,4.208-26.805,6.341-42.295,6.341S15.628,19.835,3.059,15.628l-.934-.312v59.095h4.27c-1.727,1.294-2.852,3.35-2.852,5.669,0,3.908,3.179,7.086,7.087,7.086s7.087-3.179,7.087-7.086c0-2.319-1.125-4.375-2.852-5.669h26.256c-1.727,1.294-2.852,3.35-2.852,5.669,0,3.908,3.179,7.086,7.087,7.086s7.087-3.179,7.087-7.086c0-2.319-1.125-4.375-2.852-5.669h26.256c-1.727,1.294-2.852,3.35-2.852,5.669,0,3.908,3.179,7.086,7.087,7.086s7.087-3.179,7.087-7.086c0-2.319-1.125-4.375-2.852-5.669ZM16.299,80.079c0,3.126-2.543,5.669-5.669,5.669s-5.669-2.543-5.669-5.669,2.538-5.664,5.66-5.669h.019c3.122.005,5.66,2.546,5.66,5.669ZM51.023,80.079c0,3.126-2.543,5.669-5.669,5.669s-5.669-2.543-5.669-5.669,2.538-5.664,5.66-5.669h.019c3.122.005,5.66,2.546,5.66,5.669ZM3.544,72.993V17.279c12.483,4.052,26.544,6.106,41.811,6.106s29.322-2.054,41.811-6.107v55.714s-83.622,0-83.622,0ZM80.078,85.748c-3.126,0-5.669-2.543-5.669-5.669s2.538-5.664,5.66-5.669h.019c3.122.005,5.66,2.546,5.66,5.669s-2.543,5.669-5.669,5.669Z"/>
  </g>
  <g id="Takt._Zeichen__x28_Typo_x29_">
    <g>
      <path d="M62.953,60.823h-2.495v7.208h-1.295v-7.208h-2.507v-1.067h6.38l-.084,1.067Z" fill="#fff"/>
      <path d="M70.633,68.031h-1.295v-3.634h-3.754v3.634h-1.295v-8.275h1.295v3.562h3.754v-3.562h1.295v8.275Z" fill="#fff"/>
      <path d="M80.004,68.031h-1.104l-1.811-6.165h-.024l-1.823,6.165h-1.091l-2.243-8.275h1.391l1.463,6.212h.024l1.751-6.212h1.223l1.691,6.212h.024l1.499-6.212h1.307l-2.279,8.275Z" fill="#fff"/>
    </g>
    <g>
      <path d="M22.568,51.024h-1.471v-6.401h-.028l-2.577,6.401h-1.163l-2.592-6.401h-.028v6.401h-1.457v-9.666h1.667l3.04,7.522h.028l3.054-7.522h1.527v9.666Z" fill="#fff"/>
      <path d="M29.159,45.127l-2.998,4.706v.028h3.208l-.112,1.163h-4.959v-.869l3.054-4.706v-.028h-2.872v-1.163h4.678v.869Z" fill="#fff"/>
      <path d="M37.981,50.296c-.294.252-1.19.896-2.941.896-2.549,0-4.44-1.345-4.44-5.043,0-3.46,2.367-4.959,4.735-4.959,1.625,0,2.437.673,2.689.869l-.518,1.191c-.224-.196-.911-.771-2.129-.771-1.681,0-3.166,1.05-3.166,3.67,0,2.633,1.093,3.754,3.026,3.754.49,0,.925-.084,1.289-.196v-2.465h-1.737v-1.247h3.194v4.301Z" fill="#fff"/>
      <path d="M48.622,51.024h-1.289l-2.115-7.2h-.028l-2.129,7.2h-1.275l-2.619-9.666h1.625l1.709,7.256h.028l2.045-7.256h1.429l1.975,7.256h.028l1.751-7.256h1.527l-2.661,9.666Z" fill="#fff"/>
      <path d="M56.962,41.358v8.419h3.978l-.098,1.247h-5.393v-9.666h1.513Z" fill="#fff"/>
      <path d="M64.466,51.164c-1.261,0-1.919-.393-2.339-.672v-9.357l1.429-.112v3.838h.028c.308-.336.938-.771,1.947-.771,1.457,0,2.437,1.149,2.437,3.25,0,2.788-1.541,3.824-3.502,3.824ZM64.942,45.322c-.672,0-1.135.336-1.387.588v3.838c.168.112.406.252.883.252,1.275,0,2.059-.645,2.059-2.479,0-1.499-.602-2.199-1.555-2.199Z" fill="#fff"/>
      <path d="M76.088,51.024h-1.163l-1.233-3.488h-.028l-1.345,3.488h-1.191l-2.395-6.766h1.527l1.541,4.945h.028l1.303-3.264-.603-1.681h1.457l1.583,4.945h.028l1.513-4.945h1.387l-2.409,6.766Z" fill="#fff"/>
    </g>
  </g>
</svg>