<?xml version="1.0" encoding="UTF-8"?>
<svg xmlns="http://www.w3.org/2000/svg" version="1.1" viewBox="0 0 90.709 90.709">
  <!-- Generator: Adobe Illustrator 29.1.0, SVG Export Plug-In . SVG Version: 2.1.0 Build 142)  -->
  <g id="Grundfläche">
    <rect x="0" width="90.709" height="90.709" fill="#fff"/>
  </g>
  <g id="Flächige_Fülung">
    <path d="M45.355,22.678c-17.008,0-31.181-2.582-42.52-6.378v57.402h85.04V16.3c-11.339,3.794-25.512,6.378-42.52,6.378Z" fill="#fff"/>
    <rect x="5.67" y="28.346" width="79.37" height="42.521" fill="#003296"/>
  </g>
  <g id="Takt_Zeichen__x28_umgewandelt_x29_">
    <path d="M84.313,74.41h4.27V15.315s-.934.312-.934.312c-12.575,4.208-26.805,6.341-42.295,6.341S15.628,19.835,3.059,15.628l-.934-.312v59.095h4.27c-1.727,1.294-2.852,3.35-2.852,5.669,0,3.908,3.179,7.086,7.087,7.086s7.087-3.179,7.087-7.086c0-2.319-1.125-4.375-2.852-5.669h60.98c-1.727,1.294-2.852,3.35-2.852,5.669,0,3.908,3.179,7.086,7.087,7.086s7.087-3.179,7.087-7.086c0-2.319-1.125-4.375-2.852-5.669ZM16.299,80.079c0,3.126-2.543,5.669-5.669,5.669s-5.669-2.543-5.669-5.669,2.538-5.664,5.66-5.669h.019c3.122.005,5.66,2.546,5.66,5.669ZM3.543,72.993V17.279c12.483,4.052,26.544,6.106,41.811,6.106s29.322-2.054,41.811-6.107v55.714s-83.622,0-83.622,0ZM80.078,85.748c-3.126,0-5.669-2.543-5.669-5.669s2.538-5.664,5.66-5.669h.019c3.122.005,5.66,2.546,5.66,5.669s-2.543,5.669-5.669,5.669Z"/>
  </g>
  <g id="Takt._Zeichen__x28_Typo_x29_">
    <g>
      <path d="M62.953,60.823h-2.495v7.208h-1.295v-7.208h-2.506v-1.067h6.38l-.084,1.067Z" fill="#fff"/>
      <path d="M70.633,68.031h-1.295v-3.634h-3.754v3.634h-1.295v-8.275h1.295v3.562h3.754v-3.562h1.295v8.275Z" fill="#fff"/>
      <path d="M80.004,68.031h-1.104l-1.811-6.165h-.024l-1.823,6.165h-1.091l-2.243-8.275h1.392l1.463,6.212h.024l1.751-6.212h1.223l1.691,6.212h.024l1.5-6.212h1.307l-2.279,8.275Z" fill="#fff"/>
    </g>
    <g>
      <path d="M13.367,49.607v-10.35h5.865l-.105,1.335h-4.14v3.42h3.825v1.335h-3.825v4.26h-1.62Z" fill="#fff"/>
      <path d="M26.507,49.607h-1.395v-.81h-.03c-.255.3-.84.99-2.16.99-1.53,0-2.34-.96-2.34-2.895v-4.53h1.53v4.274c0,1.29.375,1.83,1.275,1.83.825,0,1.29-.36,1.59-.645v-5.46h1.53v7.245ZM22.202,41.147c-.48,0-.84-.345-.84-.855s.36-.87.84-.87.84.36.84.87-.36.855-.84.855ZM24.872,41.147c-.48,0-.855-.345-.855-.855s.375-.87.855-.87.84.36.84.87-.36.855-.84.855Z" fill="#fff"/>
      <path d="M32.627,44.312l3.99,5.294h-2.01l-3.3-4.545h-.84v4.545h-1.62v-10.35h1.62v4.455h.87l3.195-4.455h1.815l-3.72,5.055Z" fill="#fff"/>
      <path d="M40.247,49.787c-1.8,0-3.195-1.2-3.195-3.81,0-2.595,1.59-3.795,3.345-3.795,1.8,0,3.18,1.17,3.18,3.795,0,2.58-1.59,3.81-3.33,3.81ZM40.322,43.502c-.975,0-1.71.75-1.71,2.475,0,1.74.735,2.49,1.71,2.49.99,0,1.695-.765,1.695-2.49,0-1.74-.735-2.475-1.695-2.475Z" fill="#fff"/>
      <path d="M46.697,43.172h.03c.285-.345.945-.99,2.13-.99.855,0,1.485.345,1.86,1.035.375-.42,1.095-1.035,2.235-1.035,1.62,0,2.445.975,2.445,2.895v4.53h-1.515v-4.29c0-1.275-.45-1.815-1.365-1.815-.72,0-1.2.375-1.485.646.045.285.075.6.075.93v4.53h-1.515v-4.29c0-1.275-.36-1.815-1.185-1.815-.81,0-1.32.375-1.59.66v5.445h-1.53v-7.245h1.41v.81Z" fill="#fff"/>
      <path d="M61.397,44.312l3.99,5.294h-2.01l-3.3-4.545h-.84v4.545h-1.62v-10.35h1.62v4.455h.87l3.195-4.455h1.815l-3.72,5.055Z" fill="#fff"/>
      <path d="M75.902,49.607h-1.38l-2.265-7.709h-.03l-2.28,7.709h-1.365l-2.805-10.35h1.74l1.83,7.77h.03l2.19-7.77h1.53l2.115,7.77h.03l1.875-7.77h1.635l-2.85,10.35Z" fill="#fff"/>
    </g>
  </g>
</svg>