<?xml version="1.0" encoding="UTF-8"?>
<svg xmlns="http://www.w3.org/2000/svg" version="1.1" viewBox="0 0 90.709 90.709">
  <!-- Generator: Adobe Illustrator 29.1.0, SVG Export Plug-In . SVG Version: 2.1.0 Build 142)  -->
  <g id="Grundfläche">
    <rect x="0" width="90.709" height="90.709" fill="#fff"/>
  </g>
  <g id="Flächige_Fülung">
    <path d="M45.355,22.678c-17.008,0-31.181-2.582-42.52-6.378v57.402h85.04V16.3c-11.339,3.794-25.512,6.378-42.52,6.378Z" fill="#fff"/>
    <path d="M45.355,25.513c-14.369,0-27.698-1.797-39.685-5.347v50.702h79.37V20.165c-11.993,3.55-25.321,5.348-39.685,5.348Z" fill="#003296"/>
  </g>
  <g id="Takt_Zeichen__x28_umgewandelt_x29_">
    <path d="M84.313,74.41h4.27V15.315s-.934.312-.934.312c-12.575,4.208-26.805,6.341-42.295,6.341S15.628,19.835,3.059,15.628l-.934-.312v59.095h4.27c-1.727,1.293-2.852,3.35-2.852,5.669,0,3.908,3.179,7.086,7.087,7.086,3.668,0,6.694-2.802,7.051-6.378h20.623c.357,3.576,3.382,6.378,7.051,6.378s6.694-2.802,7.051-6.378h20.623c.357,3.576,3.382,6.378,7.051,6.378,3.907,0,7.087-3.179,7.087-7.086,0-2.319-1.125-4.375-2.852-5.669ZM3.544,72.993V17.28c12.483,4.052,26.544,6.106,41.811,6.106s29.322-2.054,41.811-6.107v55.714s-83.622,0-83.622,0ZM49.588,74.41h26.256c-1.549,1.16-2.606,2.935-2.81,4.96h-20.637c-.204-2.026-1.261-3.801-2.81-4.96ZM14.864,74.41h26.256c-1.549,1.16-2.606,2.935-2.81,4.96h-20.637c-.204-2.026-1.261-3.801-2.81-4.96ZM10.63,85.748c-3.126,0-5.669-2.543-5.669-5.669s2.538-5.664,5.66-5.669h.019c3.122.005,5.66,2.546,5.66,5.669s-2.543,5.669-5.669,5.669ZM45.354,85.748c-3.126,0-5.669-2.543-5.669-5.669s2.538-5.664,5.66-5.669h.019c3.122.005,5.66,2.546,5.66,5.669s-2.543,5.669-5.669,5.669ZM80.078,85.748c-3.126,0-5.669-2.543-5.669-5.669s2.538-5.664,5.66-5.669h.019c3.122.005,5.66,2.546,5.66,5.669s-2.543,5.669-5.669,5.669Z"/>
  </g>
  <g id="Takt._Zeichen__x28_Typo_x29_">
    <g>
      <path d="M62.953,60.823h-2.495v7.208h-1.295v-7.208h-2.507v-1.067h6.38l-.084,1.067Z" fill="#fff"/>
      <path d="M70.633,68.031h-1.295v-3.634h-3.754v3.634h-1.295v-8.275h1.295v3.562h3.754v-3.562h1.295v8.275Z" fill="#fff"/>
      <path d="M80.004,68.031h-1.104l-1.811-6.165h-.024l-1.823,6.165h-1.091l-2.243-8.275h1.391l1.463,6.212h.024l1.751-6.212h1.223l1.691,6.212h.024l1.499-6.212h1.307l-2.279,8.275Z" fill="#fff"/>
    </g>
    <g>
      <path d="M38.427,39.001h-5.521v4.161h5.081v1.801h-5.081v4.281h6.121l-.14,1.78h-8.142v-13.803h7.822l-.14,1.781Z" fill="#fff"/>
      <path d="M48.626,51.024l-3.121-5.361c-.32.04-.64.04-.98.04h-.82v5.321h-2.16v-13.803h3.081c3.821,0,5.561,1.421,5.561,4.061,0,1.8-.84,3.181-2.561,3.901l3.601,5.841h-2.601ZM44.625,39.001h-.92v4.941h.82c2.301,0,3.361-.92,3.361-2.601,0-1.601-1.02-2.34-3.261-2.34Z" fill="#fff"/>
      <path d="M59.566,39.801c-.36-.28-1.2-.94-2.5-.94-1.44,0-2.12.64-2.12,1.46,0,.98.44,1.501,1.86,2.381l1.34.82c1.74,1.08,2.72,2.2,2.72,3.98,0,2.021-1.52,3.761-4.581,3.761-2.201,0-3.301-.9-3.761-1.28l.74-1.9c.44.44,1.5,1.28,2.981,1.28,1.66,0,2.42-.74,2.42-1.58,0-1.061-.52-1.601-1.82-2.46l-1.36-.9c-1.86-1.24-2.701-2.181-2.701-4.062,0-1.86,1.6-3.38,4.181-3.38,1.96,0,2.901.74,3.301,1.041l-.7,1.78Z" fill="#fff"/>
    </g>
  </g>
</svg>