<?xml version="1.0" encoding="UTF-8"?>
<svg xmlns="http://www.w3.org/2000/svg" version="1.1" viewBox="0 0 90.709 90.709">
  <!-- Generator: Adobe Illustrator 29.1.0, SVG Export Plug-In . SVG Version: 2.1.0 Build 142)  -->
  <g id="Grundfläche">
    <rect x="0" width="90.709" height="90.709" fill="#fff"/>
  </g>
  <g id="Flächige_Fülung">
    <path d="M45.355,22.678c-17.008,0-31.181-2.582-42.52-6.378v57.402h85.04V16.3c-11.339,3.794-25.512,6.378-42.52,6.378Z" fill="#fff"/>
    <rect x="5.67" y="28.346" width="79.37" height="42.521" fill="#003296"/>
  </g>
  <g id="Takt_Zeichen__x28_umgewandelt_x29_">
    <path d="M84.313,74.41h4.27V15.315s-.934.312-.934.312c-12.575,4.208-26.805,6.341-42.295,6.341S15.628,19.835,3.059,15.628l-.934-.312v59.095h4.27c-1.727,1.294-2.852,3.35-2.852,5.669,0,3.908,3.179,7.086,7.087,7.086s7.087-3.179,7.087-7.086c0-2.319-1.125-4.375-2.852-5.669h26.256c-1.727,1.294-2.852,3.35-2.852,5.669,0,3.908,3.179,7.086,7.087,7.086s7.087-3.179,7.087-7.086c0-2.319-1.125-4.375-2.852-5.669h26.256c-1.727,1.294-2.852,3.35-2.852,5.669,0,3.908,3.179,7.086,7.087,7.086s7.087-3.179,7.087-7.086c0-2.319-1.125-4.375-2.852-5.669ZM16.299,80.079c0,3.126-2.543,5.669-5.669,5.669s-5.669-2.543-5.669-5.669,2.538-5.664,5.66-5.669h.019c3.122.005,5.66,2.546,5.66,5.669ZM51.023,80.079c0,3.126-2.543,5.669-5.669,5.669s-5.669-2.543-5.669-5.669,2.538-5.664,5.66-5.669h.019c3.122.005,5.66,2.546,5.66,5.669ZM3.544,72.993V17.279c12.483,4.052,26.544,6.106,41.811,6.106s29.322-2.054,41.811-6.107v55.714s-83.622,0-83.622,0ZM80.078,85.748c-3.126,0-5.669-2.543-5.669-5.669s2.538-5.664,5.66-5.669h.019c3.122.005,5.66,2.546,5.66,5.669s-2.543,5.669-5.669,5.669Z"/>
  </g>
  <g id="Takt._Zeichen__x28_Typo_x29_">
    <g>
      <path d="M62.953,60.823h-2.495v7.208h-1.295v-7.208h-2.507v-1.067h6.38l-.084,1.067Z" fill="#fff"/>
      <path d="M70.633,68.031h-1.295v-3.634h-3.754v3.634h-1.295v-8.275h1.295v3.562h3.754v-3.562h1.295v8.275Z" fill="#fff"/>
      <path d="M80.004,68.031h-1.104l-1.811-6.165h-.024l-1.823,6.165h-1.091l-2.243-8.275h1.391l1.463,6.212h.024l1.751-6.212h1.223l1.691,6.212h.024l1.499-6.212h1.307l-2.279,8.275Z" fill="#fff"/>
    </g>
    <g>
      <path d="M24.232,51.024v-12.424h7.04l-.126,1.603h-4.969v4.105h4.592v1.603h-4.592v5.114h-1.945Z" fill="#fff"/>
      <path d="M40.002,51.024h-1.675v-.973h-.036c-.306.36-1.008,1.188-2.593,1.188-1.837,0-2.809-1.152-2.809-3.475v-5.438h1.836v5.131c0,1.549.45,2.197,1.531,2.197.99,0,1.549-.432,1.908-.774v-6.554h1.837v8.697ZM34.835,40.869c-.576,0-1.008-.414-1.008-1.026s.432-1.044,1.008-1.044,1.008.432,1.008,1.044-.432,1.026-1.008,1.026ZM38.039,40.869c-.576,0-1.026-.414-1.026-1.026s.45-1.044,1.026-1.044,1.008.432,1.008,1.044-.432,1.026-1.008,1.026Z" fill="#fff"/>
      <path d="M47.345,44.668l4.79,6.356h-2.413l-3.961-5.456h-1.008v5.456h-1.945v-12.424h1.945v5.348h1.044l3.835-5.348h2.179l-4.465,6.067Z" fill="#fff"/>
      <path d="M64.753,51.024h-1.657l-2.719-9.255h-.036l-2.737,9.255h-1.638l-3.367-12.424h2.089l2.197,9.327h.036l2.629-9.327h1.836l2.539,9.327h.036l2.251-9.327h1.963l-3.421,12.424Z" fill="#fff"/>
    </g>
  </g>
</svg>