<?xml version="1.0" encoding="UTF-8"?>
<svg xmlns="http://www.w3.org/2000/svg" version="1.1" viewBox="0 0 90.709 90.709">
  <!-- Generator: Adobe Illustrator 29.1.0, SVG Export Plug-In . SVG Version: 2.1.0 Build 142)  -->
  <g id="Grundfläche">
    <rect x="0" width="90.709" height="90.709" fill="#fff"/>
  </g>
  <g id="Flächige_Fülung">
    <path d="M45.355,22.678c-17.008,0-31.181-2.582-42.52-6.378v57.402h85.04V16.3c-11.339,3.794-25.512,6.378-42.52,6.378Z" fill="#fff"/>
    <path d="M45.355,25.513c-14.369,0-27.698-1.797-39.685-5.347v50.702h79.37V20.165c-11.993,3.55-25.321,5.348-39.685,5.348Z" fill="#003296"/>
  </g>
  <g id="Takt_Zeichen__x28_umgewandelt_x29_">
    <path d="M84.313,74.41h4.27V15.315s-.934.312-.934.312c-12.575,4.208-26.805,6.341-42.295,6.341S15.628,19.835,3.059,15.628l-.934-.312v59.095h4.27c-1.727,1.294-2.852,3.35-2.852,5.669,0,3.908,3.179,7.086,7.087,7.086s7.087-3.179,7.087-7.086c0-2.319-1.125-4.375-2.852-5.669h60.98c-1.727,1.294-2.852,3.35-2.852,5.669,0,3.908,3.179,7.086,7.087,7.086s7.087-3.179,7.087-7.086c0-2.319-1.125-4.375-2.852-5.669ZM16.299,80.079c0,3.126-2.543,5.669-5.669,5.669s-5.669-2.543-5.669-5.669,2.538-5.664,5.66-5.669h.019c3.122.005,5.66,2.546,5.66,5.669ZM3.543,72.993V17.279c12.483,4.052,26.544,6.106,41.811,6.106s29.322-2.054,41.811-6.107v55.714s-83.622,0-83.622,0ZM80.078,85.748c-3.126,0-5.669-2.543-5.669-5.669s2.538-5.664,5.66-5.669h.019c3.122.005,5.66,2.546,5.66,5.669s-2.543,5.669-5.669,5.669Z"/>
  </g>
  <g id="Takt._Zeichen__x28_Typo_x29_">
    <g>
      <path d="M62.953,60.823h-2.495v7.208h-1.295v-7.208h-2.507v-1.067h6.381l-.084,1.067Z" fill="#fff"/>
      <path d="M70.633,68.031h-1.295v-3.634h-3.754v3.634h-1.295v-8.275h1.295v3.562h3.754v-3.562h1.295v8.275Z" fill="#fff"/>
      <path d="M80.004,68.031h-1.104l-1.811-6.165h-.024l-1.823,6.165h-1.091l-2.243-8.275h1.392l1.463,6.213h.024l1.751-6.213h1.223l1.691,6.213h.024l1.5-6.213h1.307l-2.278,8.275Z" fill="#fff"/>
    </g>
    <g>
      <path d="M23.976,39.801c-.36-.28-1.2-.94-2.5-.94-1.44,0-2.121.64-2.121,1.46,0,.98.44,1.5,1.86,2.38l1.34.82c1.74,1.081,2.721,2.201,2.721,3.981,0,2.021-1.521,3.761-4.581,3.761-2.201,0-3.301-.9-3.761-1.28l.74-1.9c.44.44,1.5,1.28,2.98,1.28,1.66,0,2.42-.74,2.42-1.581,0-1.06-.52-1.6-1.82-2.46l-1.36-.9c-1.86-1.24-2.701-2.181-2.701-4.061,0-1.86,1.601-3.381,4.181-3.381,1.961,0,2.901.74,3.301,1.04l-.7,1.78Z" fill="#fff"/>
      <path d="M32.176,43.022h-2.36v4.501c0,1.46.38,1.98,1.36,1.98.5,0,.9-.16,1.08-.24l.18,1.561c-.18.1-.74.42-1.78.42-2.021,0-2.881-1.04-2.881-3.5v-4.721h-1.32v-1.4l1.32-.24.24-2.701h1.801v2.681h2.58l-.22,1.66Z" fill="#fff"/>
      <path d="M38.156,45.542h.62v-.56c0-1.48-.62-2.121-1.8-2.121-1.16,0-1.96.581-2.34.9l-.68-1.38c.48-.42,1.541-1.261,3.42-1.261,2.201,0,3.381,1.24,3.381,3.901v3.721c0,.96.08,1.86.14,2.28h-1.9c-.02-.28-.06-.64-.06-1.061h-.04c-.34.561-1.06,1.301-2.521,1.301-1.58,0-2.661-1.141-2.661-2.821,0-2,1.94-2.901,4.441-2.901ZM38.776,48.823v-1.961l-.74.04c-1.58.08-2.36.46-2.36,1.381,0,.82.561,1.34,1.221,1.34,1.02,0,1.56-.44,1.88-.8Z" fill="#fff"/>
      <path d="M47.276,51.224c-.82,0-1.4-.18-1.761-.36v4.161h-2.04v-13.663h1.88v1.08h.04c.28-.4,1.08-1.32,2.8-1.32,2.221,0,3.661,1.561,3.661,4.841,0,3.581-1.94,5.261-4.581,5.261ZM45.515,43.702v5.401c.34.22.82.42,1.501.42,1.76,0,2.76-.96,2.76-3.441,0-2.28-.9-3.2-2.3-3.2-1.021,0-1.641.48-1.961.82Z" fill="#fff"/>
      <path d="M56.175,48.303c0,.98.26,1.261.9,1.261.34,0,.58-.08.7-.12l.12,1.42c-.141.1-.66.34-1.48.34-1.42,0-2.261-.66-2.261-2.68v-11.623l2.021-.2v11.603Z" fill="#fff"/>
      <path d="M66.516,46.683h-5.421c.12,1.98,1.12,2.841,2.801,2.841,1.4,0,2.18-.641,2.44-.86l.52,1.44c-.3.3-1.14,1.16-3.301,1.16-2.701,0-4.441-1.541-4.441-5.161,0-3.421,2-4.981,4.281-4.981,2.04,0,3.3,1.341,3.3,3.821,0,.74-.08,1.28-.18,1.74ZM61.075,45.242h3.741c.04-.22.04-.38.04-.56,0-1.2-.62-1.92-1.641-1.92-1.18,0-2.04.86-2.14,2.48Z" fill="#fff"/>
      <path d="M74.136,43.102c-.101-.06-.36-.16-.82-.16-1.2,0-1.881.641-2.181,1.2v6.882h-2.04v-9.662h1.88v1.38h.04c.36-.78,1.021-1.56,2.44-1.56.4,0,.7.08.84.12l-.16,1.8Z" fill="#fff"/>
    </g>
  </g>
</svg>