<?xml version="1.0" encoding="UTF-8"?>
<svg xmlns="http://www.w3.org/2000/svg" version="1.1" viewBox="0 0 90.709 90.709">
  <!-- Generator: Adobe Illustrator 29.1.0, SVG Export Plug-In . SVG Version: 2.1.0 Build 142)  -->
  <g id="Grundfläche">
    <rect x="0" width="90.709" height="90.709" fill="#fff"/>
  </g>
  <g id="Flächige_Fülung">
    <path d="M47.48,23.386c-16.157,0-29.622-2.582-40.393-6.378v52.442h80.787V17.008c-10.772,3.794-24.236,6.378-40.394,6.378Z" fill="#fff"/>
    <path d="M47.48,26.221c-13.651,0-26.313-1.656-37.701-5.205v45.6h75.401V21.015c-11.393,3.55-24.055,5.206-37.701,5.206Z" fill="#003296"/>
  </g>
  <g id="Takt_Zeichen__x28_umgewandelt_x29_">
    <path d="M84.312,74.41h4.271V16.007s-.945.333-.945.333c-11.94,4.206-25.451,6.338-40.158,6.338s-28.224-2.132-40.158-6.338l-5.197-.04v58.11h4.273c-1.729,1.293-2.854,3.35-2.854,5.67,0,3.908,3.179,7.086,7.087,7.086s7.087-3.179,7.087-7.086c0-2.32-1.126-4.377-2.854-5.67h60.984c-1.729,1.293-2.854,3.35-2.854,5.67,0,3.908,3.179,7.086,7.087,7.086s7.087-3.179,7.087-7.086c0-2.32-1.126-4.377-2.854-5.67ZM16.3,80.08c0,3.126-2.543,5.669-5.669,5.669s-5.669-2.543-5.669-5.669,2.543-5.669,5.669-5.669,5.669,2.543,5.669,5.669ZM7.796,18.004c11.851,4.042,25.196,6.091,39.685,6.091s27.828-2.049,39.685-6.091v50.738s-79.369,0-79.369,0V18.004ZM3.543,17.717h2.835v52.442h80.787v2.834s-83.622,0-83.622,0V17.717ZM80.079,85.749c-3.126,0-5.669-2.543-5.669-5.669s2.543-5.669,5.669-5.669,5.669,2.543,5.669,5.669-2.543,5.669-5.669,5.669Z"/>
  </g>
  <g id="Takt._Zeichen__x28_Typo_x29_">
    <g>
      <path d="M62.953,56.572h-2.495v7.208h-1.295v-7.208h-2.507v-1.067h6.38l-.084,1.067Z" fill="#fff"/>
      <path d="M70.633,63.78h-1.295v-3.634h-3.754v3.634h-1.295v-8.275h1.295v3.562h3.754v-3.562h1.295v8.275Z" fill="#fff"/>
      <path d="M80.004,63.78h-1.104l-1.811-6.165h-.024l-1.823,6.165h-1.091l-2.243-8.275h1.391l1.463,6.212h.024l1.751-6.212h1.223l1.691,6.212h.024l1.499-6.212h1.307l-2.278,8.275Z" fill="#fff"/>
    </g>
    <g>
      <path d="M29.395,34.386v12.022h5.681l-.14,1.78h-7.702v-13.803h2.161Z" fill="#fff"/>
      <path d="M42.216,41.128l5.321,7.062h-2.681l-4.401-6.062h-1.12v6.062h-2.161v-13.803h2.161v5.941h1.16l4.261-5.941h2.42l-4.961,6.741Z" fill="#fff"/>
      <path d="M61.558,48.189h-1.841l-3.021-10.282h-.04l-3.041,10.282h-1.82l-3.741-13.803h2.32l2.44,10.362h.04l2.921-10.362h2.04l2.821,10.362h.04l2.5-10.362h2.181l-3.801,13.803Z" fill="#fff"/>
    </g>
  </g>
</svg>