<?xml version="1.0" encoding="UTF-8"?>
<svg xmlns="http://www.w3.org/2000/svg" version="1.1" viewBox="0 0 90.709 90.709">
  <!-- Generator: Adobe Illustrator 29.1.0, SVG Export Plug-In . SVG Version: 2.1.0 Build 142)  -->
  <g id="Grundfläche">
    <rect x="0" width="90.709" height="90.709" fill="#fff"/>
  </g>
  <g id="Flächige_Fülung">
    <path d="M45.355,22.678c-17.008,0-31.181-2.582-42.52-6.378v57.402h85.04V16.3c-11.339,3.794-25.512,6.378-42.52,6.378Z" fill="#fff"/>
    <path d="M45.355,25.513c-14.369,0-27.698-1.797-39.685-5.347v50.702h79.37V20.165c-11.993,3.55-25.321,5.348-39.685,5.348Z" fill="#003296"/>
  </g>
  <g id="Takt_Zeichen__x28_umgewandelt_x29_">
    <path d="M84.313,74.41h4.27V15.315s-.934.312-.934.312c-12.575,4.208-26.805,6.341-42.295,6.341S15.628,19.835,3.059,15.628l-.934-.312v59.095h4.27c-1.727,1.294-2.852,3.35-2.852,5.669,0,3.908,3.179,7.086,7.087,7.086s7.087-3.179,7.087-7.086c0-2.319-1.125-4.375-2.852-5.669h26.256c-1.727,1.294-2.852,3.35-2.852,5.669,0,3.908,3.179,7.086,7.087,7.086s7.087-3.179,7.087-7.086c0-2.319-1.125-4.375-2.852-5.669h26.256c-1.727,1.294-2.852,3.35-2.852,5.669,0,3.908,3.179,7.086,7.087,7.086s7.087-3.179,7.087-7.086c0-2.319-1.125-4.375-2.852-5.669ZM16.299,80.079c0,3.126-2.543,5.669-5.669,5.669s-5.669-2.543-5.669-5.669,2.538-5.664,5.66-5.669h.019c3.122.005,5.66,2.546,5.66,5.669ZM51.023,80.079c0,3.126-2.543,5.669-5.669,5.669s-5.669-2.543-5.669-5.669,2.538-5.664,5.66-5.669h.019c3.122.005,5.66,2.546,5.66,5.669ZM3.544,72.993V17.279c12.483,4.052,26.544,6.106,41.811,6.106s29.322-2.054,41.811-6.107v55.714s-83.622,0-83.622,0ZM80.078,85.748c-3.126,0-5.669-2.543-5.669-5.669s2.538-5.664,5.66-5.669h.019c3.122.005,5.66,2.546,5.66,5.669s-2.543,5.669-5.669,5.669Z"/>
  </g>
  <g id="Takt._Zeichen__x28_Typo_x29_">
    <g>
      <path d="M62.953,60.823h-2.494v7.208h-1.295v-7.208h-2.506v-1.067h6.38l-.084,1.067Z" fill="#fff"/>
      <path d="M70.633,68.031h-1.295v-3.634h-3.754v3.634h-1.295v-8.275h1.295v3.562h3.754v-3.562h1.295v8.275Z" fill="#fff"/>
      <path d="M80.004,68.031h-1.104l-1.811-6.165h-.024l-1.823,6.165h-1.092l-2.243-8.275h1.391l1.463,6.212h.024l1.751-6.212h1.224l1.691,6.212h.024l1.499-6.212h1.308l-2.279,8.275Z" fill="#fff"/>
    </g>
    <g>
      <path d="M27.061,51.024h-1.891v-8.229h-.036l-3.313,8.229h-1.495l-3.331-8.229h-.036v8.229h-1.873v-12.423h2.143l3.907,9.668h.036l3.925-9.668h1.962v12.423Z" fill="#fff"/>
      <path d="M33.341,46.091h.559v-.505c0-1.332-.559-1.908-1.621-1.908-1.044,0-1.764.522-2.106.811l-.612-1.243c.433-.378,1.387-1.134,3.079-1.134,1.98,0,3.043,1.116,3.043,3.511v3.35c0,.864.072,1.674.126,2.052h-1.71c-.018-.252-.054-.576-.054-.955h-.036c-.306.504-.954,1.171-2.269,1.171-1.422,0-2.395-1.026-2.395-2.539,0-1.801,1.747-2.61,3.997-2.61ZM33.899,49.043v-1.764l-.667.036c-1.422.072-2.125.415-2.125,1.243,0,.738.504,1.207,1.098,1.207.918,0,1.405-.396,1.693-.721Z" fill="#fff"/>
      <path d="M42.593,44.326c-.288-.216-.936-.721-1.873-.721-.846,0-1.278.342-1.278.774,0,.576.36.847,1.224,1.278l.594.288c1.351.666,2.143,1.404,2.143,2.737,0,1.458-1.044,2.557-3.187,2.557-1.495,0-2.287-.559-2.683-.918l.612-1.531c.36.36,1.026.9,2.035.9.954,0,1.494-.342,1.494-.828,0-.702-.468-.937-1.404-1.44l-.576-.306c-1.242-.63-1.927-1.369-1.927-2.647,0-1.404,1.243-2.358,2.953-2.358,1.404,0,2.106.558,2.413.811l-.54,1.404Z" fill="#fff"/>
      <path d="M49.721,43.821h-2.125v4.051c0,1.314.342,1.782,1.225,1.782.45,0,.81-.144.972-.216l.162,1.404c-.162.09-.666.378-1.603.378-1.818,0-2.593-.936-2.593-3.15v-4.25h-1.188v-1.26l1.188-.216.216-2.431h1.621v2.413h2.323l-.198,1.495Z" fill="#fff"/>
      <path d="M56.489,44.668l4.789,6.356h-2.413l-3.961-5.456h-1.008v5.456h-1.945v-12.423h1.945v5.347h1.044l3.835-5.347h2.178l-4.465,6.067Z" fill="#fff"/>
      <path d="M73.897,51.024h-1.656l-2.719-9.254h-.036l-2.737,9.254h-1.639l-3.367-12.423h2.089l2.197,9.326h.036l2.629-9.326h1.837l2.539,9.326h.036l2.25-9.326h1.963l-3.421,12.423Z" fill="#fff"/>
    </g>
  </g>
</svg>