<?xml version="1.0" encoding="UTF-8"?>
<svg xmlns="http://www.w3.org/2000/svg" version="1.1" viewBox="0 0 90.709 90.709">
  <!-- Generator: Adobe Illustrator 29.1.0, SVG Export Plug-In . SVG Version: 2.1.0 Build 142)  -->
  <g id="Grundfläche">
    <rect x="0" width="90.709" height="90.709" fill="#fff"/>
  </g>
  <g id="Flächige_Fülung">
    <rect x="8.504" y="5.669" width="73.701" height="79.37" fill="#fff"/>
    <rect x="11.339" y="8.504" width="68.031" height="73.701" fill="#003296"/>
  </g>
  <g id="Takt_Zeichen__x28_umgewandelt_x29_">
    <path d="M82.914,85.748H7.795V4.961h75.119v80.787ZM9.213,84.331h72.284V6.378H9.213v77.953Z"/>
  </g>
  <g id="Takt._Zeichen__x28_Typo_x29_">
    <g>
      <path d="M27.927,36.167h-4.161v12.022h-2.16v-12.022h-4.181v-1.781h10.642l-.14,1.781Z" fill="#fff"/>
      <path d="M42.288,48.189h-1.841l-3.021-10.282h-.04l-3.041,10.282h-1.82l-3.741-13.803h2.321l2.44,10.362h.04l2.921-10.362h2.04l2.821,10.362h.04l2.501-10.362h2.18l-3.801,13.803Z" fill="#fff"/>
      <path d="M59.467,48.189l-1.38-4.101h-4.621l-1.38,4.101h-2.201l5.141-13.803h1.7l5.121,13.803h-2.38ZM55.806,37.187h-.04l-1.78,5.301h3.601l-1.78-5.301Z" fill="#fff"/>
      <path d="M71.747,48.189l-1.38-4.101h-4.621l-1.38,4.101h-2.2l5.141-13.803h1.7l5.121,13.803h-2.38ZM68.086,37.187h-.04l-1.78,5.301h3.601l-1.78-5.301Z" fill="#fff"/>
    </g>
    <g>
      <path d="M54.449,72.161h-2.495v7.208h-1.295v-7.208h-2.507v-1.067h6.38l-.084,1.067Z" fill="#fff"/>
      <path d="M62.129,79.369h-1.295v-3.634h-3.754v3.634h-1.295v-8.275h1.295v3.562h3.754v-3.562h1.295v8.275Z" fill="#fff"/>
      <path d="M71.5,79.369h-1.104l-1.811-6.165h-.024l-1.823,6.165h-1.091l-2.243-8.275h1.391l1.463,6.213h.024l1.751-6.213h1.223l1.691,6.213h.024l1.499-6.213h1.307l-2.279,8.275Z" fill="#fff"/>
    </g>
  </g>
</svg>