<?xml version="1.0" encoding="UTF-8"?>
<svg xmlns="http://www.w3.org/2000/svg" version="1.1" viewBox="0 0 90.709 90.709">
  <!-- Generator: Adobe Illustrator 29.1.0, SVG Export Plug-In . SVG Version: 2.1.0 Build 142)  -->
  <g id="Grundfläche">
    <rect x="0" width="90.709" height="90.709" fill="#fff"/>
  </g>
  <g id="Flächige_Fülung">
    <path d="M45.355,22.678c-17.008,0-31.181-2.582-42.52-6.378v57.402h85.04V16.3c-11.339,3.794-25.512,6.378-42.52,6.378Z" fill="#fff"/>
    <path d="M45.355,25.513c-14.369,0-27.698-1.797-39.685-5.347v50.702h79.37V20.165c-11.993,3.55-25.321,5.348-39.685,5.348Z" fill="#003296"/>
  </g>
  <g id="Takt_Zeichen__x28_umgewandelt_x29_">
    <path d="M84.313,74.41h4.27V15.315s-.934.312-.934.312c-12.575,4.208-26.805,6.341-42.295,6.341S15.628,19.835,3.059,15.628l-.934-.312v59.095h4.27c-1.727,1.293-2.852,3.35-2.852,5.669,0,3.908,3.179,7.086,7.087,7.086,3.668,0,6.694-2.802,7.051-6.378h20.623c.357,3.576,3.382,6.378,7.051,6.378s6.694-2.802,7.051-6.378h20.623c.357,3.576,3.382,6.378,7.051,6.378,3.907,0,7.087-3.179,7.087-7.086,0-2.319-1.125-4.375-2.852-5.669ZM3.544,72.993V17.28c12.483,4.052,26.544,6.106,41.811,6.106s29.322-2.054,41.811-6.107v55.714s-83.622,0-83.622,0ZM49.588,74.41h26.256c-1.549,1.16-2.606,2.935-2.81,4.96h-20.637c-.204-2.026-1.261-3.801-2.81-4.96ZM14.864,74.41h26.256c-1.549,1.16-2.606,2.935-2.81,4.96h-20.637c-.204-2.026-1.261-3.801-2.81-4.96ZM10.63,85.748c-3.126,0-5.669-2.543-5.669-5.669s2.538-5.664,5.66-5.669h.019c3.122.005,5.66,2.546,5.66,5.669s-2.543,5.669-5.669,5.669ZM45.354,85.748c-3.126,0-5.669-2.543-5.669-5.669s2.538-5.664,5.66-5.669h.019c3.122.005,5.66,2.546,5.66,5.669s-2.543,5.669-5.669,5.669ZM80.078,85.748c-3.126,0-5.669-2.543-5.669-5.669s2.538-5.664,5.66-5.669h.019c3.122.005,5.66,2.546,5.66,5.669s-2.543,5.669-5.669,5.669Z"/>
  </g>
  <g id="Takt._Zeichen__x28_Typo_x29_">
    <g>
      <path d="M62.953,60.823h-2.495v7.208h-1.295v-7.208h-2.507v-1.067h6.38l-.084,1.067Z" fill="#fff"/>
      <path d="M70.633,68.031h-1.295v-3.634h-3.754v3.634h-1.295v-8.275h1.295v3.562h3.754v-3.562h1.295v8.275Z" fill="#fff"/>
      <path d="M80.004,68.031h-1.104l-1.811-6.165h-.024l-1.823,6.165h-1.091l-2.243-8.275h1.391l1.463,6.212h.024l1.751-6.212h1.223l1.691,6.212h.024l1.499-6.212h1.307l-2.279,8.275Z" fill="#fff"/>
    </g>
    <g>
      <path d="M20.265,51.024l-2.809-4.826c-.288.036-.576.036-.882.036h-.738v4.79h-1.945v-12.423h2.773c3.439,0,5.005,1.278,5.005,3.655,0,1.621-.756,2.863-2.305,3.511l3.241,5.257h-2.341ZM16.664,40.202h-.828v4.448h.738c2.071,0,3.025-.829,3.025-2.341,0-1.44-.918-2.107-2.935-2.107Z" fill="#fff"/>
      <path d="M27.698,46.091h.558v-.505c0-1.332-.558-1.908-1.621-1.908-1.044,0-1.764.522-2.107.811l-.612-1.243c.432-.378,1.386-1.134,3.079-1.134,1.981,0,3.043,1.116,3.043,3.511v3.35c0,.864.072,1.674.126,2.052h-1.71c-.018-.252-.054-.576-.054-.955h-.036c-.306.504-.954,1.171-2.269,1.171-1.423,0-2.395-1.026-2.395-2.539,0-1.801,1.747-2.61,3.997-2.61ZM28.256,49.043v-1.764l-.666.036c-1.422.072-2.125.415-2.125,1.243,0,.738.504,1.207,1.098,1.207.918,0,1.405-.396,1.693-.721Z" fill="#fff"/>
      <path d="M36.194,42.129c.738,0,1.26.181,1.584.36v-4.177l1.819-.181v12.892h-1.675v-.972h-.036c-.216.324-.828,1.188-2.485,1.188-1.927,0-3.349-1.531-3.349-4.447,0-3.224,2.035-4.664,4.141-4.664ZM37.779,48.863v-4.808c-.288-.198-.72-.378-1.386-.378-1.477,0-2.449.9-2.449,3.007,0,2.161.9,2.971,2.052,2.971.972,0,1.512-.468,1.782-.792Z" fill="#fff"/>
      <path d="M43.897,48.575c0,.882.234,1.134.81,1.134.306,0,.522-.072.63-.108l.108,1.278c-.126.09-.594.306-1.332.306-1.279,0-2.035-.594-2.035-2.413v-10.461l1.818-.181v10.443Z" fill="#fff"/>
      <path d="M50.432,46.091h.558v-.505c0-1.332-.558-1.908-1.621-1.908-1.044,0-1.764.522-2.106.811l-.612-1.243c.432-.378,1.386-1.134,3.079-1.134,1.981,0,3.043,1.116,3.043,3.511v3.35c0,.864.072,1.674.126,2.052h-1.71c-.018-.252-.054-.576-.054-.955h-.036c-.306.504-.954,1.171-2.269,1.171-1.422,0-2.395-1.026-2.395-2.539,0-1.801,1.747-2.61,3.997-2.61ZM50.99,49.043v-1.764l-.666.036c-1.422.072-2.125.415-2.125,1.243,0,.738.504,1.207,1.098,1.207.918,0,1.405-.396,1.693-.721Z" fill="#fff"/>
      <path d="M58.928,42.129c.738,0,1.26.181,1.584.36v-4.177l1.819-.181v12.892h-1.675v-.972h-.036c-.216.324-.828,1.188-2.485,1.188-1.927,0-3.349-1.531-3.349-4.447,0-3.224,2.034-4.664,4.141-4.664ZM60.512,48.863v-4.808c-.288-.198-.72-.378-1.386-.378-1.476,0-2.449.9-2.449,3.007,0,2.161.9,2.971,2.053,2.971.972,0,1.512-.468,1.782-.792Z" fill="#fff"/>
      <path d="M71.06,47.116h-4.879c.108,1.783,1.008,2.557,2.521,2.557,1.26,0,1.963-.576,2.197-.774l.468,1.296c-.27.271-1.026,1.045-2.971,1.045-2.431,0-3.997-1.387-3.997-4.646,0-3.079,1.801-4.483,3.853-4.483,1.837,0,2.971,1.206,2.971,3.439,0,.667-.072,1.152-.162,1.566ZM66.163,45.82h3.367c.036-.198.036-.342.036-.504,0-1.081-.558-1.729-1.477-1.729-1.062,0-1.836.774-1.927,2.232Z" fill="#fff"/>
      <path d="M77.918,43.893c-.09-.054-.324-.144-.738-.144-1.08,0-1.693.576-1.963,1.08v6.194h-1.836v-8.697h1.692v1.242h.036c.324-.702.918-1.404,2.197-1.404.36,0,.63.072.756.108l-.144,1.62Z" fill="#fff"/>
    </g>
  </g>
</svg>