<?xml version="1.0" encoding="UTF-8"?>
<svg xmlns="http://www.w3.org/2000/svg" version="1.1" viewBox="0 0 90.709 90.709">
  <!-- Generator: Adobe Illustrator 29.1.0, SVG Export Plug-In . SVG Version: 2.1.0 Build 142)  -->
  <g id="Grundfläche">
    <rect x="0" width="90.709" height="90.709" fill="#fff"/>
  </g>
  <g id="Flächige_Fülung">
    <path d="M49.606,22.678c-15.307,0-28.063-2.582-38.268-6.378v57.402h76.536V16.3c-10.205,3.794-22.961,6.378-38.268,6.378Z" fill="#fff"/>
    <path d="M49.606,25.512c-12.811,0-24.709-1.757-35.433-5.228v50.583h70.867V20.284c-10.729,3.471-22.627,5.228-35.434,5.228Z" fill="#003296"/>
  </g>
  <g id="Takt_Zeichen__x28_umgewandelt_x29_">
    <path d="M88.583,15.28l-.956.355c-11.304,4.203-24.096,6.333-38.021,6.333s-26.723-2.131-38.021-6.333l-.956-.355v25.114H2.126v4.252h8.504v29.764h34.743c-1.728,1.293-2.854,3.35-2.854,5.67,0,3.908,3.179,7.086,7.086,7.086s7.087-3.179,7.087-7.086c0-2.32-1.125-4.376-2.854-5.67h34.743V15.28ZM3.543,43.229v-1.418h7.087v1.418H3.543ZM55.276,80.08c0,3.126-2.543,5.669-5.67,5.669s-5.669-2.543-5.669-5.669,2.543-5.669,5.669-5.669,5.67,2.543,5.67,5.669ZM87.166,72.993H12.047V17.313c11.22,4.03,23.85,6.073,37.559,6.073s26.334-2.043,37.56-6.073v55.68Z"/>
  </g>
  <g id="Takt._Zeichen__x28_Typo_x29_">
    <g>
      <path d="M62.953,60.823h-2.495v7.208h-1.295v-7.208h-2.506v-1.067h6.38l-.084,1.067Z" fill="#fff"/>
      <path d="M70.633,68.031h-1.295v-3.634h-3.754v3.634h-1.295v-8.275h1.295v3.562h3.754v-3.562h1.295v8.275Z" fill="#fff"/>
      <path d="M80.004,68.031h-1.104l-1.811-6.165h-.024l-1.823,6.165h-1.091l-2.243-8.275h1.392l1.463,6.212h.024l1.751-6.212h1.223l1.691,6.212h.024l1.5-6.212h1.307l-2.279,8.275Z" fill="#fff"/>
    </g>
  </g>
</svg>