<?xml version="1.0" encoding="UTF-8"?>
<svg xmlns="http://www.w3.org/2000/svg" version="1.1" viewBox="0 0 90.709 90.709">
  <!-- Generator: Adobe Illustrator 29.1.0, SVG Export Plug-In . SVG Version: 2.1.0 Build 142)  -->
  <g id="Grundfläche">
    <rect x="0" y="0" width="90.709" height="90.709" fill="#fff"/>
  </g>
  <g id="Flächige_Fülung">
    <rect x="2.834" y="17.008" width="85.04" height="56.693" fill="#fff"/>
  </g>
  <g id="Takt_Zeichen__x28_umgewandelt_x29_">
    <path d="M2.125,74.41h86.457V16.3H2.125v58.11ZM3.543,46.063h41.102v26.93H3.543v-26.93ZM46.063,72.993v-26.93h41.102v26.93h-41.102ZM87.165,44.646h-41.102v-26.929h41.102v26.929ZM44.645,17.717v26.929H3.543v-26.929h41.102Z"/>
  </g>
  <g id="Takt._Zeichen__x28_Typo_x29_">
    <g>
      <path d="M12.375,31.181l-1.871-3.214c-.192.024-.384.024-.587.024h-.492v3.19h-1.295v-8.275h1.847c2.291,0,3.334.852,3.334,2.435,0,1.079-.504,1.907-1.535,2.338l2.159,3.502h-1.559ZM9.976,23.973h-.552v2.962h.492c1.379,0,2.015-.552,2.015-1.559,0-.959-.612-1.403-1.955-1.403Z"/>
      <path d="M19.048,28.579h-3.25c.072,1.187.672,1.703,1.679,1.703.839,0,1.307-.384,1.463-.516l.312.864c-.18.18-.684.695-1.979.695-1.619,0-2.663-.923-2.663-3.094,0-2.051,1.199-2.986,2.566-2.986,1.223,0,1.979.804,1.979,2.291,0,.444-.048.768-.108,1.044ZM15.785,27.715h2.243c.024-.132.024-.228.024-.336,0-.719-.372-1.151-.983-1.151-.708,0-1.223.516-1.283,1.487Z"/>
      <path d="M23.512,26.383h-1.415v2.699c0,.875.228,1.188.815,1.188.3,0,.54-.096.648-.144l.108.936c-.108.06-.444.252-1.067.252-1.211,0-1.727-.624-1.727-2.099v-2.831h-.792v-.839l.792-.144.144-1.619h1.08v1.607h1.547l-.132.995Z"/>
      <path d="M27.7,26.383h-1.415v2.699c0,.875.228,1.188.815,1.188.3,0,.54-.096.648-.144l.108.936c-.108.06-.444.252-1.067.252-1.211,0-1.727-.624-1.727-2.099v-2.831h-.792v-.839l.792-.144.144-1.619h1.08v1.607h1.547l-.132.995Z"/>
      <path d="M29.19,31.181v-8.275h1.835c3.118,0,4.545,1.139,4.545,3.981,0,2.986-1.751,4.294-4.677,4.294h-1.703ZM30.485,23.997v6.093h.408c2.146,0,3.31-.899,3.31-3.202,0-2.146-1.104-2.891-3.178-2.891h-.54Z"/>
    </g>
  </g>
</svg>