<?xml version="1.0" encoding="UTF-8"?>
<svg xmlns="http://www.w3.org/2000/svg" version="1.1" viewBox="0 0 90.709 90.709">
  <!-- Generator: Adobe Illustrator 29.1.0, SVG Export Plug-In . SVG Version: 2.1.0 Build 142)  -->
  <g id="Grundfläche">
    <rect x="0" y="0" width="90.709" height="90.709" fill="#fff"/>
  </g>
  <g id="Flächige_Fülung">
    <rect x="2.834" y="17.008" width="85.04" height="56.693" fill="#fff"/>
  </g>
  <g id="Takt_Zeichen__x28_umgewandelt_x29_">
    <path d="M2.126,16.3v58.11h86.457V16.3H2.126ZM87.165,44.646h-41.102v-26.929h41.102v26.929ZM44.645,17.717v26.929H3.543v-26.929h41.102ZM3.543,46.063h41.102v26.93H3.543v-26.93ZM46.063,72.993v-26.93h41.102v26.93h-41.102Z"/>
    <path d="M35.433,9.921c0,2.348-1.904,4.252-4.252,4.252-2.348,0-4.252-1.904-4.252-4.252,0-2.348,1.904-4.252,4.252-4.252,2.348,0,4.252,1.904,4.252,4.252ZM59.528,5.669c-2.348,0-4.252,1.904-4.252,4.252,0,2.348,1.904,4.252,4.252,4.252,2.348,0,4.252-1.904,4.252-4.252s-1.904-4.252-4.252-4.252ZM45.354,5.669c-2.348,0-4.252,1.904-4.252,4.252s1.904,4.252,4.252,4.252c2.348,0,4.252-1.904,4.252-4.252s-1.904-4.252-4.252-4.252Z"/>
  </g>
  <g id="Takt._Zeichen__x28_Typo_x29_">
    <g>
      <path d="M69.111,68.031l-.828-2.458h-2.771l-.827,2.458h-1.319l3.082-8.275h1.02l3.07,8.275h-1.427ZM66.916,61.435h-.024l-1.067,3.178h2.159l-1.067-3.178Z"/>
      <path d="M75.388,61.303c-.216-.168-.72-.564-1.499-.564-.864,0-1.271.384-1.271.875,0,.588.264.899,1.115,1.427l.804.492c1.043.647,1.631,1.319,1.631,2.387,0,1.211-.912,2.255-2.747,2.255-1.319,0-1.979-.54-2.255-.768l.444-1.14c.264.264.9.768,1.787.768.995,0,1.451-.443,1.451-.947,0-.636-.312-.959-1.092-1.476l-.815-.539c-1.115-.744-1.619-1.308-1.619-2.435,0-1.115.959-2.027,2.507-2.027,1.176,0,1.739.444,1.979.624l-.42,1.067Z"/>
      <path d="M81.255,63.774v.023c.887.168,1.727.815,1.727,1.955,0,1.331-.984,2.279-3.31,2.279h-1.955v-8.275h1.847c2.339,0,3.19.828,3.19,2.147,0,1.175-.731,1.631-1.499,1.871ZM79.564,60.8h-.552v2.542h.54c1.271,0,1.871-.503,1.871-1.367,0-.708-.528-1.175-1.859-1.175ZM79.744,64.385h-.732v2.591h.66c1.391,0,1.955-.456,1.955-1.319,0-.815-.684-1.271-1.883-1.271Z"/>
    </g>
  </g>
</svg>