<?xml version="1.0" encoding="UTF-8"?>
<svg xmlns="http://www.w3.org/2000/svg" version="1.1" viewBox="0 0 90.709 90.709">
  <!-- Generator: Adobe Illustrator 29.1.0, SVG Export Plug-In . SVG Version: 2.1.0 Build 142)  -->
  <g id="Grundfläche">
    <rect x="0" y="0" width="90.709" height="90.709" fill="#fff"/>
  </g>
  <g id="Flächige_Fülung">
    <rect x="2.834" y="17.008" width="85.04" height="56.693" fill="#fff"/>
  </g>
  <g id="Takt_Zeichen__x28_umgewandelt_x29_">
    <path d="M2.126,16.3v58.11h86.457V16.3H2.126ZM87.165,44.646h-41.102v-26.929h41.102v26.929ZM44.645,17.717v26.929H3.543v-26.929h41.102ZM3.543,46.063h41.102v26.93H3.543v-26.93ZM46.063,72.993v-26.93h41.102v26.93h-41.102Z"/>
    <circle cx="45.354" cy="9.921" r="4.252"/>
  </g>
  <g id="Takt._Zeichen__x28_Typo_x29_">
    <g>
      <path d="M12.735,23.973h-3.31v2.495h3.046v1.079h-3.046v2.566h3.67l-.084,1.067h-4.881v-8.275h4.689l-.084,1.067Z"/>
      <path d="M17.704,31.181h-1.02l-3.01-8.275h1.439l2.111,6.429h.024l2.147-6.429h1.319l-3.01,8.275Z"/>
      <path d="M27.374,23.973h-2.495v7.208h-1.295v-7.208h-2.507v-1.067h6.38l-.084,1.067Z"/>
    </g>
  </g>
</svg>