<?xml version="1.0" encoding="UTF-8"?>
<svg xmlns="http://www.w3.org/2000/svg" version="1.1" viewBox="0 0 90.709 90.709">
  <!-- Generator: Adobe Illustrator 29.1.0, SVG Export Plug-In . SVG Version: 2.1.0 Build 142)  -->
  <g id="Grundfläche">
    <rect x="0" y="0" width="90.709" height="90.709" fill="#fff"/>
  </g>
  <g id="Flächige_Fülung">
    <rect x="2.834" y="17.008" width="85.04" height="56.693" fill="#fff"/>
  </g>
  <g id="Takt_Zeichen__x28_umgewandelt_x29_">
    <path d="M2.126,16.3v58.11h86.457V16.3H2.126ZM87.165,71.575L46.772,17.717h40.393v53.858ZM86.457,72.993H4.252L45.355,18.189l41.102,54.803ZM43.937,17.717L3.543,71.575V17.717h40.394ZM31.89,68.032v-4.961h26.929v4.961h1.417v-17.008h-1.417v7.207c-2.227-3.237-6.945-5.081-13.465-5.081s-11.237,1.844-13.465,5.081v-7.207h-1.417v17.008h1.417ZM45.354,54.567c7.648,0,12.562,2.634,13.364,7.087h-26.728c.802-4.453,5.716-7.087,13.364-7.087Z"/>
    <path d="M63.779,9.921c0,2.348-1.904,4.252-4.252,4.252-2.348,0-4.252-1.904-4.252-4.252s1.904-4.252,4.252-4.252c2.348,0,4.252,1.904,4.252,4.252ZM31.181,5.669c-2.348,0-4.252,1.904-4.252,4.252s1.904,4.252,4.252,4.252c2.348,0,4.252-1.904,4.252-4.252s-1.904-4.252-4.252-4.252Z"/>
  </g>
  <g id="Takt._Zeichen__x28_Typo_x29_">
    <g>
      <path d="M10.924,30.186h1.679v.995h-4.582v-.995h1.691v-5.589l-1.619.575-.264-.959,2.195-.828h.899v6.8Z"/>
      <path d="M15.353,30.161v.024h3.022v.995h-4.51l-.084-.803c2.603-2.794,3.202-3.466,3.202-4.713,0-.876-.408-1.379-1.247-1.379-.876,0-1.403.516-1.619.744l-.468-.852c.276-.288.983-.936,2.255-.936,1.499,0,2.327.875,2.327,2.267,0,1.583-.948,2.711-2.878,4.653Z"/>
      <path d="M22.036,31.325c-1.499,0-2.471-1.223-2.471-4.042,0-2.843,1.079-4.042,2.567-4.042,1.499,0,2.471,1.224,2.471,4.042,0,2.842-1.08,4.042-2.567,4.042ZM22.084,24.297c-.756,0-1.271.792-1.271,2.986,0,2.23.516,2.986,1.271,2.986s1.271-.756,1.271-2.986c0-2.195-.516-2.986-1.271-2.986Z"/>
    </g>
  </g>
</svg>