<?xml version="1.0" encoding="UTF-8"?>
<svg xmlns="http://www.w3.org/2000/svg" version="1.1" viewBox="0 0 90.709 90.709">
  <!-- Generator: Adobe Illustrator 29.1.0, SVG Export Plug-In . SVG Version: 2.1.0 Build 142)  -->
  <g id="Grundfläche">
    <rect x="0" y="0" width="90.709" height="90.709" fill="#fff"/>
  </g>
  <g id="Flächige_Fülung">
    <rect x="2.834" y="17.008" width="85.04" height="56.693" fill="#fff"/>
  </g>
  <g id="Takt_Zeichen__x28_umgewandelt_x29_">
    <path d="M2.126,16.3v58.11h86.457V16.3H2.126ZM24.449,46.063h20.196v26.93H4.252l20.198-26.93ZM3.543,71.575v-25.512h19.134L3.543,71.575ZM44.645,44.646h-19.133l19.133-25.511v25.511ZM46.063,19.134l19.134,25.512h-19.134v-25.512ZM46.063,46.063h20.197l20.197,26.93h-40.394v-26.93ZM68.031,46.063h19.134v25.512l-19.134-25.512ZM87.165,44.646h-20.197l-20.197-26.929h40.393v26.929ZM43.937,17.717l-20.197,26.929H3.543v-26.929h40.394Z"/>
    <path d="M35.433,9.921c0,2.348-1.904,4.252-4.252,4.252-2.348,0-4.252-1.904-4.252-4.252,0-2.348,1.904-4.252,4.252-4.252,2.348,0,4.252,1.904,4.252,4.252ZM59.528,5.669c-2.348,0-4.252,1.904-4.252,4.252,0,2.348,1.904,4.252,4.252,4.252,2.348,0,4.252-1.904,4.252-4.252s-1.904-4.252-4.252-4.252ZM45.354,5.669c-2.348,0-4.252,1.904-4.252,4.252,0,2.348,1.904,4.252,4.252,4.252,2.348,0,4.252-1.904,4.252-4.252s-1.904-4.252-4.252-4.252Z"/>
  </g>
</svg>