<?xml version="1.0" encoding="UTF-8"?>
<svg xmlns="http://www.w3.org/2000/svg" version="1.1" viewBox="0 0 90.709 90.709">
  <!-- Generator: Adobe Illustrator 29.1.0, SVG Export Plug-In . SVG Version: 2.1.0 Build 142)  -->
  <g id="Grundfläche">
    <rect x="0" y="0" width="90.709" height="90.709" fill="#fff"/>
  </g>
  <g id="Flächige_Fülung">
    <rect x="2.834" y="17.008" width="85.04" height="56.693" fill="#fff"/>
  </g>
  <g id="Takt_Zeichen__x28_umgewandelt_x29_">
    <path d="M2.126,74.41h86.457V16.3H2.126v58.11ZM3.543,46.063h26.966c.362,7.64,6.498,13.775,14.137,14.137v7.123h-10.63v1.417h10.63v4.252H3.543v-26.93ZM44.646,58.783c-3.178-.167-6.061-1.434-8.283-3.435l8.283-8.283v11.718ZM46.063,47.065l8.283,8.283c-2.222,2.001-5.105,3.269-8.283,3.435v-11.718ZM55.348,54.346l-8.283-8.283h11.719c-.167,3.178-1.434,6.061-3.435,8.283ZM47.065,44.646l8.283-8.283c2.001,2.222,3.269,5.105,3.435,8.283h-11.719ZM46.063,43.644v-11.718c3.178.167,6.061,1.434,8.283,3.435l-8.283,8.283ZM44.646,43.644l-8.283-8.283c2.222-2.001,5.105-3.269,8.283-3.435v11.718ZM35.361,36.363l8.283,8.283h-11.719c.167-3.178,1.434-6.062,3.436-8.283ZM43.644,46.063l-8.283,8.283c-2.001-2.222-3.269-5.105-3.435-8.283h11.719ZM46.063,72.993v-4.252h10.63v-1.417h-10.63v-7.123c7.64-.362,13.775-6.498,14.137-14.137h11.375v10.63h1.417v-10.63h14.173v26.93h-41.103ZM87.165,44.646h-14.173v-10.63h-1.417v10.63h-11.375c-.362-7.64-6.498-13.775-14.137-14.137v-12.792h41.103v26.929ZM44.646,17.717v12.792c-7.64.362-13.775,6.498-14.137,14.137H3.543v-26.929h41.103Z"/>
    <path d="M63.779,9.921c0,2.348-1.904,4.252-4.252,4.252-2.348,0-4.252-1.904-4.252-4.252s1.904-4.252,4.252-4.252c2.348,0,4.252,1.904,4.252,4.252ZM31.181,5.669c-2.348,0-4.252,1.904-4.252,4.252s1.904,4.252,4.252,4.252c2.348,0,4.252-1.904,4.252-4.252s-1.904-4.252-4.252-4.252Z"/>
  </g>
</svg>