<?xml version="1.0" encoding="UTF-8"?>
<svg xmlns="http://www.w3.org/2000/svg" version="1.1" viewBox="0 0 90.709 90.709">
  <!-- Generator: Adobe Illustrator 29.1.0, SVG Export Plug-In . SVG Version: 2.1.0 Build 142)  -->
  <g id="Grundfläche">
    <rect x="0" y="0" width="90.709" height="90.709" fill="#fff"/>
  </g>
  <g id="Flächige_Fülung">
    <rect x="2.834" y="17.008" width="85.04" height="56.693" fill="#fff"/>
  </g>
  <g id="Takt_Zeichen__x28_umgewandelt_x29_">
    <path d="M2.125,16.3v58.11h86.457V16.3H2.125ZM87.165,72.993H3.543V17.717h83.622v55.276ZM45.354,31.89c-10.551,0-19.134,8.583-19.134,19.134s8.583,19.134,19.134,19.134,19.134-8.583,19.134-19.134-8.583-19.134-19.134-19.134ZM44.269,33.362l-12.218,29.324c-2.738-3.12-4.413-7.194-4.413-11.662,0-9.403,7.368-17.096,16.631-17.662ZM33.119,63.806l12.236-29.365,12.235,29.365c-3.184,3.049-7.49,4.936-12.236,4.936s-9.052-1.886-12.235-4.935ZM58.658,62.684l-12.218-29.323c9.262.566,16.63,8.259,16.63,17.662,0,4.467-1.675,8.541-4.412,11.661ZM20.278,43.079l-.87-1.119,25.947-20.181,25.947,20.181-.87,1.119-25.077-19.504-25.077,19.504Z"/>
    <rect x="43.229" y="2.835" width="4.252" height="11.339"/>
  </g>
  <g id="Takt._Zeichen__x28_Typo_x29_">
    <g>
      <path d="M12.039,24.453h-2.543l-.156,1.859c2.171.192,3.046,1.115,3.046,2.591,0,1.463-.971,2.422-2.662,2.422-1.283,0-1.859-.647-2.111-.887l.492-1.008c.24.276.792.84,1.583.84.936,0,1.439-.468,1.439-1.211,0-1.211-.875-1.739-2.998-1.775l.324-3.898h3.586v1.067Z"/>
      <path d="M16.036,31.325c-1.499,0-2.471-1.223-2.471-4.042,0-2.843,1.079-4.042,2.567-4.042,1.499,0,2.471,1.224,2.471,4.042,0,2.842-1.08,4.042-2.567,4.042ZM16.084,24.297c-.756,0-1.271.792-1.271,2.986,0,2.23.516,2.986,1.271,2.986s1.271-.756,1.271-2.986c0-2.195-.516-2.986-1.271-2.986Z"/>
      <path d="M22.036,31.325c-1.499,0-2.471-1.223-2.471-4.042,0-2.843,1.079-4.042,2.567-4.042,1.499,0,2.471,1.224,2.471,4.042,0,2.842-1.08,4.042-2.567,4.042ZM22.084,24.297c-.756,0-1.271.792-1.271,2.986,0,2.23.516,2.986,1.271,2.986s1.271-.756,1.271-2.986c0-2.195-.516-2.986-1.271-2.986Z"/>
    </g>
  </g>
</svg>