<?xml version="1.0" encoding="UTF-8"?>
<svg xmlns="http://www.w3.org/2000/svg" version="1.1" viewBox="0 0 90.709 90.709">
  <!-- Generator: Adobe Illustrator 29.1.0, SVG Export Plug-In . SVG Version: 2.1.0 Build 142)  -->
  <g id="Grundfläche">
    <rect x="0" y="0" width="90.709" height="90.709" fill="#fff"/>
  </g>
  <g id="Flächige_Fülung">
    <rect x="2.834" y="17.008" width="85.04" height="56.693" fill="#fff"/>
  </g>
  <g id="Takt_Zeichen__x28_umgewandelt_x29_">
    <rect x="2.835" y="44.646" width="26.929" height="1.417"/>
    <path d="M2.126,74.41h86.457V16.3H2.126v58.11ZM46.063,47.065l9.284,9.285c-2.48,2.256-5.717,3.682-9.284,3.851v-13.135ZM56.35,55.348l-9.285-9.285h13.135c-.169,3.568-1.594,6.805-3.851,9.285ZM47.065,44.646l9.284-9.285c2.256,2.48,3.681,5.717,3.851,9.285h-13.135ZM46.063,43.643v-13.135c3.568.169,6.804,1.595,9.284,3.851l-9.284,9.285ZM44.646,30.508v13.135l-9.284-9.285c2.48-2.256,5.717-3.681,9.284-3.851ZM34.359,35.361l9.284,9.285h-13.135c.169-3.568,1.594-6.804,3.851-9.285ZM43.644,46.063l-9.285,9.285c-2.256-2.48-3.681-5.717-3.851-9.285h13.135ZM44.646,47.065v13.135c-3.568-.169-6.804-1.594-9.284-3.851l9.284-9.285ZM46.063,72.993v-11.375c8.421-.365,15.19-7.134,15.555-15.555h25.547v26.93h-41.102ZM87.165,44.646h-25.547c-.365-8.421-7.134-15.19-15.555-15.555v-11.375h41.102v26.929ZM3.543,17.717h41.102v11.375c-8.658.375-15.59,7.515-15.59,16.263s6.933,15.888,15.59,16.263v11.375H3.543V17.717Z"/>
    <path d="M63.779,9.921c0,2.348-1.904,4.252-4.252,4.252-2.348,0-4.252-1.904-4.252-4.252s1.904-4.252,4.252-4.252c2.348,0,4.252,1.904,4.252,4.252ZM31.181,5.669c-2.348,0-4.252,1.904-4.252,4.252s1.904,4.252,4.252,4.252c2.348,0,4.252-1.904,4.252-4.252s-1.904-4.252-4.252-4.252Z"/>
  </g>
  <g id="Takt._Zeichen__x28_Typo_x29_">
    <g>
      <path d="M10.924,30.186h1.679v.996h-4.582v-.996h1.691v-5.589l-1.619.576-.264-.96,2.195-.827h.899v6.8Z"/>
      <path d="M16.036,31.325c-1.499,0-2.471-1.223-2.471-4.042,0-2.842,1.079-4.042,2.567-4.042,1.499,0,2.471,1.223,2.471,4.042,0,2.843-1.08,4.042-2.567,4.042ZM16.084,24.297c-.756,0-1.271.792-1.271,2.986,0,2.231.516,2.987,1.271,2.987s1.271-.755,1.271-2.987c0-2.194-.516-2.986-1.271-2.986Z"/>
    </g>
  </g>
</svg>