<?xml version="1.0" encoding="UTF-8"?>
<svg xmlns="http://www.w3.org/2000/svg" version="1.1" viewBox="0 0 90.709 90.709">
  <!-- Generator: Adobe Illustrator 29.1.0, SVG Export Plug-In . SVG Version: 2.1.0 Build 142)  -->
  <g id="Grundfläche">
    <rect x="0" y="0" width="90.709" height="90.709" fill="#fff"/>
  </g>
  <g id="Flächige_Fülung">
    <rect x="2.834" y="17.008" width="85.04" height="56.693" fill="#fff"/>
  </g>
  <g id="Takt_Zeichen__x28_umgewandelt_x29_">
    <path d="M2.126,16.3v58.11h86.457V16.3H2.126ZM44.646,17.717v4.96h1.417v-4.96h41.103v26.929h-41.103v-12.756h-1.417v12.756H3.543v-26.929h41.103ZM3.543,46.063h41.103v26.93H3.543v-26.93ZM46.063,72.993v-26.93h41.103v26.93h-41.103Z"/>
    <path d="M63.779,9.921c0,2.348-1.904,4.252-4.252,4.252-2.348,0-4.252-1.904-4.252-4.252s1.904-4.252,4.252-4.252c2.348,0,4.252,1.904,4.252,4.252ZM31.181,5.669c-2.348,0-4.252,1.904-4.252,4.252s1.904,4.252,4.252,4.252c2.348,0,4.252-1.904,4.252-4.252s-1.904-4.252-4.252-4.252Z"/>
  </g>
  <g id="Takt._Zeichen__x28_Typo_x29_">
    <g>
      <path d="M11.484,28.48c0,2.387-1.055,3.586-3.166,3.586s-3.094-1.079-3.094-3.586v-4.833h1.295v4.869c0,1.715.624,2.446,1.859,2.446,1.271,0,1.859-.695,1.859-2.446v-4.869h1.247v4.833ZM7.142,23.035c-.396,0-.684-.239-.684-.647s.288-.659.684-.659c.408,0,.684.251.684.659s-.276.647-.684.647ZM9.541,23.035c-.408,0-.684-.239-.684-.647s.276-.659.684-.659c.396,0,.684.251.684.659s-.288.647-.684.647Z"/>
      <path d="M21.479,31.923h-1.259v-5.481h-.024l-2.207,5.481h-.996l-2.219-5.481h-.024v5.481h-1.248v-8.275h1.427l2.603,6.44h.024l2.615-6.44h1.307v8.275Z"/>
      <path d="M28.368,31.923l-.828-2.459h-2.771l-.827,2.459h-1.319l3.082-8.275h1.02l3.07,8.275h-1.427ZM26.174,25.326h-.024l-1.067,3.178h2.159l-1.067-3.178Z"/>
      <path d="M37.236,31.923h-1.151l-3.826-5.841h-.024v5.841h-1.295v-8.275h1.163l3.814,5.805h.024v-5.805h1.295v8.275Z"/>
      <path d="M42.421,31.923h-1.02l-3.01-8.275h1.439l2.111,6.428h.024l2.147-6.428h1.319l-3.01,8.275Z"/>
      <path d="M49.273,28.744h-3.286v-.983h3.286v.983Z"/>
      <path d="M54.505,25.194c-.216-.168-.719-.563-1.499-.563-.863,0-1.271.384-1.271.875,0,.588.264.9,1.115,1.428l.804.491c1.043.648,1.631,1.319,1.631,2.387,0,1.212-.912,2.255-2.747,2.255-1.319,0-1.979-.54-2.255-.768l.444-1.139c.264.264.899.768,1.787.768.996,0,1.451-.444,1.451-.948,0-.636-.312-.959-1.091-1.475l-.815-.54c-1.116-.744-1.619-1.308-1.619-2.435,0-1.115.959-2.027,2.506-2.027,1.175,0,1.739.444,1.979.624l-.42,1.067Z"/>
    </g>
  </g>
</svg>