<?xml version="1.0" encoding="UTF-8"?>
<svg xmlns="http://www.w3.org/2000/svg" version="1.1" viewBox="0 0 90.709 90.709">
  <!-- Generator: Adobe Illustrator 29.1.0, SVG Export Plug-In . SVG Version: 2.1.0 Build 142)  -->
  <g id="Grundfläche">
    <rect x="0" width="90.709" height="90.709" fill="#fff"/>
  </g>
  <g id="Flächige_Fülung">
    <path d="M45.355,22.678c-17.008,0-31.181-2.582-42.52-6.378v57.402h85.04V16.3c-11.339,3.794-25.512,6.378-42.52,6.378Z" fill="#fff"/>
  </g>
  <g id="Takt_Zeichen__x28_umgewandelt_x29_">
    <path d="M84.313,74.41h4.27V15.315s-.934.312-.934.312c-12.575,4.208-26.805,6.341-42.295,6.341S15.628,19.835,3.059,15.628l-.934-.312v59.095h4.27c-1.727,1.293-2.852,3.35-2.852,5.669,0,3.908,3.179,7.086,7.087,7.086s7.087-3.179,7.087-7.086c0-2.319-1.125-4.375-2.852-5.669h60.98c-1.727,1.293-2.852,3.35-2.852,5.669,0,3.908,3.179,7.086,7.087,7.086s7.087-3.179,7.087-7.086c0-2.319-1.125-4.375-2.852-5.669ZM87.165,44.646h-41.103v-21.272c14.985-.063,28.809-2.105,41.102-6.095v27.367ZM44.645,23.374v21.272H3.543v-27.366c12.288,3.989,26.111,6.031,41.102,6.094ZM16.299,80.079c0,3.126-2.543,5.669-5.669,5.669s-5.669-2.543-5.669-5.669,2.538-5.664,5.66-5.669h.019c3.122.005,5.66,2.546,5.66,5.669ZM3.543,72.993v-26.93h41.102v26.93H3.543ZM46.063,72.993v-26.93h41.103v26.93s-41.103,0-41.103,0ZM80.078,85.748c-3.126,0-5.669-2.543-5.669-5.669s2.538-5.664,5.66-5.669h.019c3.122.005,5.66,2.546,5.66,5.669s-2.543,5.669-5.669,5.669Z"/>
  </g>
  <g id="Takt._Zeichen__x28_Typo_x29_">
    <g>
      <path d="M12.883,32.078c-.21.18-.85.64-2.099.64-1.819,0-3.168-.959-3.168-3.598,0-2.469,1.689-3.538,3.378-3.538,1.159,0,1.739.48,1.919.62l-.37.85c-.16-.14-.65-.55-1.519-.55-1.199,0-2.259.749-2.259,2.618,0,1.879.78,2.679,2.159,2.679.35,0,.66-.06.919-.14v-1.759h-1.239v-.89h2.279v3.068Z"/>
      <path d="M20.482,32.598h-.92l-1.509-5.138h-.02l-1.519,5.138h-.909l-1.869-6.896h1.159l1.219,5.177h.02l1.459-5.177h1.019l1.409,5.177h.02l1.25-5.177h1.089l-1.899,6.896Z"/>
      <path d="M25.744,29.95h-2.739v-.82h2.739v.82Z"/>
      <path d="M30.104,26.991c-.18-.14-.6-.47-1.249-.47-.719,0-1.059.32-1.059.729,0,.49.22.75.929,1.189l.67.41c.869.54,1.359,1.1,1.359,1.989,0,1.009-.76,1.879-2.289,1.879-1.099,0-1.649-.45-1.879-.64l.37-.95c.22.22.75.64,1.489.64.829,0,1.209-.37,1.209-.789,0-.53-.26-.8-.909-1.229l-.68-.45c-.929-.62-1.349-1.089-1.349-2.029,0-.93.8-1.689,2.089-1.689.979,0,1.449.37,1.649.52l-.35.889Z"/>
      <path d="M33.795,29.86h.31v-.28c0-.74-.31-1.06-.9-1.06-.58,0-.979.29-1.169.45l-.34-.69c.24-.21.77-.629,1.709-.629,1.099,0,1.689.619,1.689,1.949v1.859c0,.479.04.93.07,1.14h-.949c-.01-.14-.03-.32-.03-.53h-.02c-.17.28-.53.65-1.259.65-.79,0-1.329-.57-1.329-1.409,0-1,.969-1.449,2.219-1.449ZM34.105,31.499v-.979l-.37.02c-.79.04-1.179.23-1.179.69,0,.409.28.669.61.669.51,0,.78-.22.939-.399Z"/>
      <path d="M39.444,32.598v-2.858c0-.83-.26-1.21-.88-1.21-.53,0-.889.25-1.089.44v3.628h-1.019v-4.828h.939v.54h.02c.19-.229.64-.659,1.449-.659,1.029,0,1.589.659,1.589,1.929v3.019h-1.01Z"/>
      <path d="M11.214,36.991h-2.119l-.13,1.549c1.809.16,2.539.93,2.539,2.159,0,1.22-.81,2.019-2.219,2.019-1.069,0-1.549-.54-1.759-.74l.41-.839c.2.23.66.7,1.319.7.78,0,1.199-.39,1.199-1.01,0-1.009-.729-1.449-2.499-1.479l.27-3.248h2.988v.889Z"/>
      <path d="M14.545,42.718c-1.25,0-2.059-1.019-2.059-3.368,0-2.369.899-3.368,2.139-3.368,1.249,0,2.059,1.02,2.059,3.368,0,2.369-.899,3.368-2.139,3.368ZM14.585,36.861c-.63,0-1.059.66-1.059,2.489,0,1.859.43,2.489,1.059,2.489s1.06-.63,1.06-2.489c0-1.829-.43-2.489-1.06-2.489Z"/>
    </g>
  </g>
</svg>