<?xml version="1.0" encoding="UTF-8"?>
<svg xmlns="http://www.w3.org/2000/svg" version="1.1" viewBox="0 0 90.709 90.709">
  <!-- Generator: Adobe Illustrator 29.1.0, SVG Export Plug-In . SVG Version: 2.1.0 Build 142)  -->
  <g id="Grundfläche">
    <rect x="0" width="90.709" height="90.709" fill="#fff"/>
  </g>
  <g id="Flächige_Fülung">
    <path d="M87.845,59.499H2.863c0-23.467,19.024-42.491,42.491-42.491s42.491,19.024,42.491,42.491Z" fill="#fff"/>
  </g>
  <g id="Takt_Zeichen__x28_umgewandelt_x29_">
    <path d="M45.354,16.3C21.534,16.3,2.155,35.679,2.155,59.499v.708h86.399v-.708c0-23.82-19.379-43.199-43.199-43.199ZM81.735,38.977h-12.994v-8.92l4.459,4.459,1.002-1.002-6.17-6.17-6.17,6.17,1.002,1.002,4.459-4.46v8.92h-21.26v-21.243c15.287.257,28.6,8.755,35.672,21.243ZM44.646,17.734v21.243H8.973c7.072-12.488,20.385-20.986,35.672-21.243ZM8.213,40.394h36.433v9.921h-10.63v1.417h10.63v7.058H3.578c.11-6.62,1.777-12.863,4.635-18.396ZM46.063,58.79v-7.058h10.63v-1.417h-10.63v-9.921h21.26v4.667l-5.963,5.963,6.672,6.672,6.671-6.672-5.963-5.963v-4.667h13.755c2.858,5.533,4.524,11.777,4.635,18.396h-41.067ZM68.032,46.357l4.667,4.667-4.667,4.667-4.667-4.667,4.667-4.667ZM45.354,70.866l19.844-5.669v11.339l-19.844-5.669ZM25.51,65.197l19.844,5.669-19.844,5.669v-11.339Z"/>
  </g>
</svg>