<?xml version="1.0" encoding="UTF-8"?>
<svg xmlns="http://www.w3.org/2000/svg" version="1.1" viewBox="0 0 90.709 90.709">
  <!-- Generator: Adobe Illustrator 29.1.0, SVG Export Plug-In . SVG Version: 2.1.0 Build 142)  -->
  <g id="Grundfläche">
    <rect x="0" width="90.709" height="90.709" fill="#fff"/>
  </g>
  <g id="Flächige_Fülung">
    <path d="M45.355,22.678c-17.008,0-31.181-2.582-42.52-6.378v57.402h85.04V16.3c-11.339,3.794-25.512,6.378-42.52,6.378Z" fill="#fff"/>
  </g>
  <g id="Takt_Zeichen__x28_umgewandelt_x29_">
    <path d="M84.313,74.411h4.27V15.316s-.934.312-.934.312c-12.575,4.208-26.805,6.341-42.294,6.341S15.629,19.836,3.06,15.628l-.934-.312v59.095h4.268c-1.727,1.293-2.852,3.349-2.852,5.668,0,3.908,3.179,7.086,7.086,7.086s7.086-3.179,7.086-7.086c0-2.319-1.125-4.375-2.851-5.668h60.979c-1.727,1.293-2.852,3.349-2.852,5.668,0,3.908,3.179,7.086,7.086,7.086s7.086-3.179,7.086-7.086c0-2.319-1.125-4.375-2.851-5.668ZM5.191,65.198L45.354,23.696l40.164,41.502H5.191ZM87.166,64.863L47,23.358c14.622-.144,28.13-2.173,40.166-6.079v47.583ZM43.709,23.358L3.544,64.862V17.28c12.03,3.905,25.537,5.935,40.165,6.078ZM16.299,80.079c0,3.126-2.543,5.669-5.669,5.669s-5.669-2.543-5.669-5.669,2.533-5.658,5.65-5.668h.039c3.117.01,5.65,2.549,5.65,5.668ZM80.078,85.748c-3.126,0-5.669-2.543-5.669-5.669s2.533-5.658,5.65-5.668h.039c3.117.01,5.65,2.549,5.65,5.668s-2.543,5.669-5.669,5.669ZM60.84,46.904l-.315-.63c-1.817-3.626-5.458-5.879-9.5-5.879-5.861,0-10.63,4.769-10.63,10.63s4.769,10.629,10.63,10.629c3.983,0,7.599-2.203,9.437-5.748l.329-.634-8.202-4.171,8.252-4.196ZM58.85,55.875c-1.676,2.708-4.613,4.362-7.826,4.362-5.08,0-9.213-4.133-9.213-9.212s4.133-9.213,9.213-9.213c3.267,0,6.231,1.699,7.894,4.479l-8.215,4.177v1.264l8.147,4.143ZM39.363,44.118c0,1.14-.679,1.937-1.402,2.371v13.606c0,.688-.502,1.134-1.11,1.134v-20.784c1.448,0,2.512,1.17,2.512,3.673ZM36.851,40.445v20.784c-.608,0-1.11-.447-1.11-1.134v-13.606c-.722-.434-1.402-1.231-1.402-2.371,0-2.502,1.063-3.673,2.512-3.673Z"/>
  </g>
  <g id="Takt._Zeichen__x28_Typo_x29_">
    <g>
      <path d="M12.625,33.391c-.251.216-1.019.768-2.519.768-2.183,0-3.802-1.151-3.802-4.317,0-2.962,2.027-4.246,4.054-4.246,1.391,0,2.087.576,2.303.744l-.444,1.02c-.192-.168-.779-.66-1.823-.66-1.439,0-2.71.899-2.71,3.142,0,2.255.936,3.214,2.59,3.214.42,0,.792-.072,1.104-.168v-2.111h-1.487v-1.067h2.734v3.682Z"/>
      <path d="M19.765,34.015h-.996l-1.055-2.986h-.024l-1.151,2.986h-1.02l-2.051-5.793h1.307l1.319,4.234h.024l1.115-2.794-.516-1.439h1.247l1.355,4.234h.024l1.295-4.234h1.188l-2.063,5.793Z"/>
      <path d="M26.571,29.758v.024c.887.168,1.727.815,1.727,1.955,0,1.332-.984,2.279-3.311,2.279h-1.955v-8.275h1.847c2.339,0,3.19.827,3.19,2.146,0,1.176-.731,1.631-1.499,1.871ZM24.879,26.783h-.552v2.542h.54c1.271,0,1.871-.504,1.871-1.367,0-.708-.527-1.175-1.859-1.175ZM25.059,30.369h-.732v2.59h.66c1.392,0,1.955-.456,1.955-1.319,0-.815-.684-1.271-1.883-1.271Z"/>
      <path d="M35.329,26.807h-2.495v7.208h-1.295v-7.208h-2.506v-1.067h6.38l-.084,1.067Z"/>
    </g>
  </g>
</svg>