<?xml version="1.0" encoding="UTF-8"?>
<svg xmlns="http://www.w3.org/2000/svg" version="1.1" viewBox="0 0 90.709 90.709">
  <!-- Generator: Adobe Illustrator 29.1.0, SVG Export Plug-In . SVG Version: 2.1.0 Build 142)  -->
  <g id="Grundfläche">
    <rect x="0" y="0" width="90.709" height="90.709" fill="#fff"/>
  </g>
  <g id="Flächige_Fülung">
    <polygon points="45.354 11.338 5.669 27.921 5.669 73.701 85.04 73.701 85.04 27.921 45.354 11.338" fill="#fff"/>
  </g>
  <g id="Takt_Zeichen__x28_umgewandelt_x29_">
    <path d="M72.992,48.345c-2.635-4.699-9.749-9.368-27.638-9.368s-25.003,4.668-27.638,9.368v-14.329h-1.417v34.016h1.417v-10.63h55.275v10.63h1.417v-34.016h-1.417v14.329ZM72.992,55.985H17.717v-2.126c0-8.683,9.815-13.464,27.638-13.464s27.638,4.782,27.638,13.464v2.126ZM4.96,27.45v46.959h80.788V27.45L45.354,10.57,4.96,27.45ZM82.522,27.638H8.185l37.169-15.531,37.169,15.531ZM6.377,72.992V29.055h77.953v43.938H6.377Z"/>
  </g>
</svg>