<?xml version="1.0" encoding="UTF-8"?>
<svg xmlns="http://www.w3.org/2000/svg" version="1.1" viewBox="0 0 90.709 90.709">
  <!-- Generator: Adobe Illustrator 29.1.0, SVG Export Plug-In . SVG Version: 2.1.0 Build 142)  -->
  <g id="Grundfläche">
    <rect x="0" y="0" width="90.709" height="90.709" fill="#fff"/>
  </g>
  <g id="Flächige_Fülung">
    <circle cx="45.356" cy="45.354" r="34.016" fill="#fff"/>
  </g>
  <g id="Takt_Zeichen__x28_umgewandelt_x29_">
    <path d="M45.356,10.63c-19.147,0-34.724,15.577-34.724,34.724s15.577,34.725,34.724,34.725,34.724-15.577,34.724-34.725S64.503,10.63,45.356,10.63ZM45.356,78.662c-18.366,0-33.307-14.942-33.307-33.308S26.99,12.047,45.356,12.047s33.307,14.941,33.307,33.307-14.941,33.308-33.307,33.308ZM69.034,62.362l-6.171,6.17-1.002-1.002,4.459-4.46H26.22v4.961h-1.417v-11.338h1.417v4.96h40.1l-4.459-4.459,1.002-1.002,6.171,6.17ZM64.782,35.433l-19.428-19.427-19.428,19.427,19.428,19.427,19.428-19.427ZM46.063,52.148V18.719l16.714,16.715-16.714,16.714ZM44.646,18.719v33.429l-16.714-16.714,16.714-16.715Z"/>
  </g>
</svg>