<?xml version="1.0" encoding="UTF-8"?>
<svg xmlns="http://www.w3.org/2000/svg" version="1.1" viewBox="0 0 90.709 90.709">
  <!-- Generator: Adobe Illustrator 29.1.0, SVG Export Plug-In . SVG Version: 2.1.0 Build 142)  -->
  <g id="Grundfläche">
    <rect x="0" y="0" width="90.709" height="90.709" fill="#fff"/>
  </g>
  <g id="Flächige_Fülung">
    <circle cx="45.356" cy="45.354" r="34.016" fill="#fff"/>
  </g>
  <g id="Takt_Zeichen__x28_umgewandelt_x29_">
    <path d="M45.356,10.63c-19.147,0-34.724,15.577-34.724,34.724s15.577,34.725,34.724,34.725,34.724-15.577,34.724-34.725S64.503,10.63,45.356,10.63ZM78.645,44.646h-17.027c-.365-8.421-7.134-15.19-15.555-15.555V12.065c17.803.374,32.208,14.778,32.582,32.581ZM56.35,35.361c2.256,2.48,3.682,5.717,3.851,9.285h-13.135l9.285-9.285ZM46.063,43.644v-13.136c3.568.169,6.805,1.595,9.285,3.851l-9.285,9.285ZM44.646,43.644l-9.285-9.285c2.48-2.256,5.717-3.682,9.285-3.851v13.136ZM34.359,35.361l9.285,9.285h-13.135c.169-3.568,1.595-6.805,3.851-9.285ZM43.644,46.063l-9.285,9.285c-2.256-2.48-3.682-5.717-3.851-9.285h13.136ZM44.646,47.065v13.135c-3.568-.169-6.804-1.594-9.285-3.851l9.285-9.285ZM46.063,47.065l9.285,9.285c-2.48,2.257-5.717,3.682-9.285,3.851v-13.136ZM56.35,55.348l-9.285-9.285h13.136c-.169,3.568-1.594,6.805-3.851,9.285ZM44.646,12.065v17.026c-8.421.365-15.19,7.134-15.554,15.555H12.067c.375-17.802,14.778-32.206,32.579-32.581ZM12.067,46.063h17.025c.365,8.421,7.134,15.19,15.554,15.555v17.026c-17.802-.375-32.205-14.779-32.579-32.581ZM46.063,78.644v-17.026c8.421-.365,15.19-7.134,15.555-15.555h17.027c-.375,17.803-14.779,32.207-32.582,32.581Z"/>
  </g>
</svg>