<?xml version="1.0" encoding="UTF-8"?>
<svg xmlns="http://www.w3.org/2000/svg" version="1.1" viewBox="0 0 90.709 90.709">
  <!-- Generator: Adobe Illustrator 29.1.0, SVG Export Plug-In . SVG Version: 2.1.0 Build 142)  -->
  <g id="Grundfläche">
    <rect x="0" y="0" width="90.709" height="90.709" fill="#fff"/>
  </g>
  <g id="Flächige_Fülung">
    <circle cx="45.356" cy="45.354" r="34.016" fill="#fff"/>
  </g>
  <g id="Takt_Zeichen__x28_umgewandelt_x29_">
    <path d="M45.355,10.63c-19.147,0-34.724,15.577-34.724,34.724s15.577,34.725,34.724,34.725,34.725-15.577,34.725-34.725S64.503,10.63,45.355,10.63ZM45.355,78.662c-18.365,0-33.307-14.942-33.307-33.308S26.99,12.047,45.355,12.047s33.307,14.941,33.307,33.307-14.941,33.308-33.307,33.308ZM67.613,30.529c-4.783,2.028-13.143,4.196-22.259,4.196s-17.475-2.168-22.259-4.196l-.133-.056h-.994v29.764h46.772v-29.764h-.995l-.133.056ZM67.323,58.819H23.386v-26.641c5.014,1.977,13.153,3.964,21.968,3.964s16.955-1.987,21.969-3.964v26.641Z"/>
  </g>
</svg>