<?xml version="1.0" encoding="UTF-8"?>
<svg xmlns="http://www.w3.org/2000/svg" version="1.1" viewBox="0 0 90.709 90.709">
  <!-- Generator: Adobe Illustrator 29.1.0, SVG Export Plug-In . SVG Version: 2.1.0 Build 142)  -->
  <g id="Grundfläche">
    <rect x="0" y="0" width="90.709" height="90.709" fill="#fff"/>
  </g>
  <g id="Flächige_Fülung">
    <circle cx="45.356" cy="45.354" r="34.016" fill="#fff"/>
  </g>
  <g id="Takt_Zeichen__x28_umgewandelt_x29_">
    <path d="M29.764,54.567c2.735,0,4.961-2.225,4.961-4.96s-2.225-4.96-4.961-4.96-4.961,2.225-4.961,4.96,2.225,4.96,4.961,4.96ZM29.764,46.063c1.954,0,3.543,1.59,3.543,3.543s-1.589,3.543-3.543,3.543-3.543-1.59-3.543-3.543,1.589-3.543,3.543-3.543ZM60.945,44.646c-2.735,0-4.961,2.225-4.961,4.96s2.225,4.96,4.961,4.96,4.961-2.225,4.961-4.96-2.225-4.96-4.961-4.96ZM60.945,53.15c-1.954,0-3.543-1.59-3.543-3.543s1.589-3.543,3.543-3.543,3.543,1.59,3.543,3.543-1.589,3.543-3.543,3.543ZM45.355,10.63c-19.147,0-34.724,15.577-34.724,34.724s15.577,34.725,34.724,34.725,34.725-15.577,34.725-34.725S64.503,10.63,45.355,10.63ZM45.355,78.662c-18.365,0-33.307-14.942-33.307-33.308S26.99,12.047,45.355,12.047s33.307,14.941,33.307,33.307-14.941,33.308-33.307,33.308ZM69.034,62.362l-6.171,6.17-1.002-1.002,4.46-4.46H26.22v4.961h-1.417v-11.338h1.417v4.96h40.1l-4.46-4.459,1.002-1.002,6.171,6.17ZM64.782,35.433l-19.427-19.427-19.427,19.427,19.427,19.427,19.427-19.427ZM45.354,18.011l17.423,17.423-17.423,17.423-17.423-17.423,17.423-17.423Z"/>
  </g>
</svg>