<?xml version="1.0" encoding="UTF-8"?>
<svg xmlns="http://www.w3.org/2000/svg" version="1.1" viewBox="0 0 90.709 90.709">
  <!-- Generator: Adobe Illustrator 29.1.0, SVG Export Plug-In . SVG Version: 2.1.0 Build 142)  -->
  <g id="Grundfläche">
    <rect x="0" y="0" width="90.709" height="90.709" fill="#fff"/>
  </g>
  <g id="Flächige_Fülung">
    <circle cx="45.356" cy="45.354" r="34.016" fill="#fff"/>
  </g>
  <g id="Takt_Zeichen__x28_umgewandelt_x29_">
    <path d="M45.355,10.63c-19.147,0-34.725,15.577-34.725,34.724s15.577,34.725,34.725,34.725,34.724-15.577,34.724-34.725S64.502,10.63,45.355,10.63ZM45.355,78.662c-18.366,0-33.307-14.942-33.307-33.308S26.99,12.047,45.355,12.047s33.307,14.941,33.307,33.307-14.941,33.308-33.307,33.308ZM42.52,39.685h5.669v22.677h-5.669v-22.677ZM49.606,29.764c0,2.348-1.904,4.252-4.252,4.252s-4.252-1.904-4.252-4.252,1.904-4.252,4.252-4.252,4.252,1.904,4.252,4.252Z"/>
  </g>
</svg>