<?xml version="1.0" encoding="UTF-8"?>
<svg xmlns="http://www.w3.org/2000/svg" version="1.1" viewBox="0 0 90.709 90.709">
  <!-- Generator: Adobe Illustrator 29.1.0, SVG Export Plug-In . SVG Version: 2.1.0 Build 142)  -->
  <g id="Grundfläche">
    <rect x="0" width="90.709" height="90.709" fill="#fff"/>
  </g>
  <g id="Flächige_Fülung">
    <rect x="2.834" y="17.008" width="85.04" height="56.693" fill="#fa1919"/>
  </g>
  <g id="Takt_Zeichen__x28_umgewandelt_x29_">
    <circle cx="45.354" cy="9.921" r="4.252"/>
    <path d="M2.125,74.41h86.457V16.3H2.125v58.11ZM87.165,17.717v47.48H3.543V17.717h83.622ZM19.842,50.315v-1.417c4.298,0,7.795-3.497,7.795-7.795s-3.497-7.795-7.795-7.795v-1.417c4.841,0,8.813,3.755,9.177,8.504h32.67c.364-4.749,4.336-8.504,9.177-8.504v1.417c-4.298,0-7.795,3.497-7.795,7.795s3.497,7.795,7.795,7.795v1.417c-4.841,0-8.813-3.755-9.177-8.504H29.019c-.364,4.749-4.336,8.504-9.177,8.504Z"/>
  </g>
</svg>