<?xml version="1.0" encoding="UTF-8"?>
<svg xmlns="http://www.w3.org/2000/svg" version="1.1" viewBox="0 0 90.709 90.709">
  <!-- Generator: Adobe Illustrator 29.1.0, SVG Export Plug-In . SVG Version: 2.1.0 Build 142)  -->
  <g id="Grundfläche">
    <rect x="0" width="90.709" height="90.709" fill="#fff"/>
  </g>
  <g id="Flächige_Fülung">
    <rect x="2.834" y="17.008" width="85.04" height="56.693" fill="#fff"/>
  </g>
  <g id="Takt_Zeichen__x28_umgewandelt_x29_">
    <path d="M35.433,9.921c0,2.348-1.904,4.252-4.252,4.252-2.348,0-4.252-1.904-4.252-4.252,0-2.348,1.904-4.252,4.252-4.252,2.348,0,4.252,1.904,4.252,4.252ZM59.528,5.669c-2.348,0-4.252,1.904-4.252,4.252,0,2.348,1.904,4.252,4.252,4.252,2.348,0,4.252-1.904,4.252-4.252,0-2.348-1.904-4.252-4.252-4.252ZM45.354,5.669c-2.348,0-4.252,1.904-4.252,4.252s1.904,4.252,4.252,4.252c2.348,0,4.252-1.904,4.252-4.252,0-2.348-1.904-4.252-4.252-4.252Z"/>
    <path d="M2.126,74.41h86.457V16.3H2.126v58.11ZM87.165,17.717v47.48H3.543V17.717h83.623ZM45.354,57.401c5.646,0,10.738-3.143,13.286-8.203l.319-.633-12.027-6.045,12.027-6.046-.319-.633c-2.548-5.06-7.64-8.203-13.286-8.203-8.206,0-14.882,6.676-14.882,14.882s6.676,14.881,14.882,14.881ZM45.354,29.055c4.872,0,9.286,2.587,11.685,6.798l-12.003,6.034v1.267l12.003,6.033c-2.399,4.211-6.813,6.798-11.685,6.798-7.424,0-13.465-6.04-13.465-13.464s6.041-13.465,13.465-13.465Z"/>
  </g>
</svg>