<?xml version="1.0" encoding="UTF-8"?>
<svg xmlns="http://www.w3.org/2000/svg" version="1.1" viewBox="0 0 90.709 90.709">
  <!-- Generator: Adobe Illustrator 29.1.0, SVG Export Plug-In . SVG Version: 2.1.0 Build 142)  -->
  <g id="Grundfläche">
    <rect x="0" width="90.709" height="90.709" fill="#fff"/>
  </g>
  <g id="Flächige_Fülung">
    <rect x="2.834" y="17.008" width="85.04" height="56.693" fill="#fa1919"/>
  </g>
  <g id="Takt_Zeichen__x28_umgewandelt_x29_">
    <circle cx="45.354" cy="9.921" r="4.252"/>
    <path d="M2.125,74.41h86.457V16.3H2.125v58.11ZM87.165,17.717v47.48H3.543V17.717h83.622ZM39.483,38.623l-9.011-12.745v-1.075h29.764v1.075l-9.011,12.745c-.595.842-.91,1.833-.91,2.864v18.041h-1.417v-18.041c0-1.326.405-2.6,1.17-3.682l8.191-11.584h-25.809l8.191,11.584c.766,1.083,1.17,2.355,1.17,3.682v18.041h-1.417v-18.041c0-1.032-.315-2.022-.91-2.864Z"/>
  </g>
</svg>