<?xml version="1.0" encoding="UTF-8"?>
<svg xmlns="http://www.w3.org/2000/svg" version="1.1" viewBox="0 0 90.709 90.709">
  <!-- Generator: Adobe Illustrator 29.1.0, SVG Export Plug-In . SVG Version: 2.1.0 Build 142)  -->
  <g id="Grundfläche">
    <rect x="0" y="0" width="90.709" height="90.709" fill="#fff"/>
  </g>
  <g id="Flächige_Fülung">
    <path d="M49.606,22.678c-15.307,0-28.063-2.582-38.268-6.378v57.402h76.536V16.3c-10.205,3.794-22.961,6.378-38.268,6.378Z" fill="#fff"/>
  </g>
  <g id="Takt_Zeichen__x28_umgewandelt_x29_">
    <path d="M24.095,51.732v-1.417c4.298,0,7.795-3.497,7.795-7.795s-3.497-7.795-7.795-7.795v-1.417c4.841,0,8.813,3.755,9.177,8.504h32.67c.364-4.749,4.336-8.504,9.177-8.504v1.417c-4.298,0-7.795,3.497-7.795,7.795s3.497,7.795,7.795,7.795v1.417c-4.841,0-8.813-3.755-9.177-8.504h-32.67c-.364,4.749-4.336,8.504-9.177,8.504ZM88.583,74.41h-34.744c1.728,1.293,2.854,3.35,2.854,5.67,0,3.908-3.179,7.086-7.087,7.086s-7.087-3.179-7.087-7.086c0-2.32,1.125-4.376,2.854-5.67H10.63v-29.764H2.126v-4.252h8.504V15.28l.956.355c11.298,4.203,24.09,6.333,38.021,6.333s26.717-2.131,38.021-6.333l.956-.355v59.13ZM49.606,74.41c-3.126,0-5.669,2.543-5.669,5.669s2.543,5.669,5.669,5.669,5.669-2.543,5.669-5.669-2.543-5.669-5.669-5.669ZM12.047,17.313v47.884h75.118V17.313c-11.225,4.03-23.856,6.073-37.559,6.073s-26.339-2.042-37.559-6.073ZM10.63,43.229v-1.418H3.543v1.418h7.086Z"/>
  </g>
</svg>