<?xml version="1.0" encoding="UTF-8"?>
<svg xmlns="http://www.w3.org/2000/svg" version="1.1" viewBox="0 0 90.709 90.709">
  <!-- Generator: Adobe Illustrator 29.1.0, SVG Export Plug-In . SVG Version: 2.1.0 Build 142)  -->
  <g id="Grundfläche">
    <rect x="0" y="0" width="90.709" height="90.709" fill="#fff"/>
  </g>
  <g id="Flächige_Fülung">
    <path d="M49.606,22.678c-15.307,0-28.063-2.582-38.268-6.378v57.402h76.536V16.3c-10.205,3.794-22.961,6.378-38.268,6.378Z" fill="#fff"/>
  </g>
  <g id="Takt_Zeichen__x28_umgewandelt_x29_">
    <path d="M56.693,58.819c5.647,0,10.738-3.143,13.286-8.203l.319-.633-12.027-6.045,12.027-6.046-.319-.633c-2.548-5.06-7.639-8.203-13.286-8.203-8.206,0-14.882,6.676-14.882,14.882s6.676,14.881,14.882,14.881ZM56.693,30.473c4.872,0,9.286,2.587,11.685,6.798l-12.003,6.034v1.267l12.003,6.033c-2.399,4.211-6.813,6.798-11.685,6.798-7.424,0-13.464-6.04-13.464-13.464s6.04-13.465,13.464-13.465ZM60.218,74.41h28.365V15.28s-.956.355-.956.355c-11.304,4.203-24.096,6.333-38.021,6.333s-26.723-2.131-38.021-6.333l-.956-.355v25.114H2.126v4.252h8.504v29.764h25.531c-1.728,1.293-2.854,3.35-2.854,5.67,0,3.908,3.179,7.086,7.087,7.086s7.087-3.179,7.087-7.086c0-2.32-1.125-4.376-2.854-5.67h7.125c-1.728,1.293-2.854,3.35-2.854,5.67,0,3.908,3.179,7.086,7.087,7.086s7.087-3.179,7.087-7.086c0-2.32-1.125-4.376-2.854-5.67ZM46.063,80.08c0,3.126-2.543,5.669-5.669,5.669s-5.669-2.543-5.669-5.669,2.543-5.669,5.669-5.669,5.669,2.543,5.669,5.669ZM49.606,23.386c13.704,0,26.334-2.043,37.559-6.073v47.884s-75.118,0-75.118,0V17.313c11.22,4.03,23.85,6.073,37.559,6.073ZM3.543,43.229v-1.418h7.086v1.418H3.543ZM55.985,85.749c-3.126,0-5.669-2.543-5.669-5.669s2.543-5.669,5.669-5.669,5.669,2.543,5.669,5.669-2.543,5.669-5.669,5.669ZM29.764,34.016c0-3.509,1.853-5.669,4.252-5.669s4.252,2.161,4.252,5.669c0,1.813-.952,2.895-2.266,3.856-.36.263-.568.687-.568,1.132v17.689c0,.783-.634,1.417-1.417,1.417h0c-.783,0-1.417-.634-1.417-1.417v-17.689c0-.445-.208-.869-.568-1.132-1.314-.961-2.266-2.043-2.266-3.856Z"/>
  </g>
</svg>