<?xml version="1.0" encoding="UTF-8"?>
<svg xmlns="http://www.w3.org/2000/svg" version="1.1" viewBox="0 0 90.709 90.709">
  <!-- Generator: Adobe Illustrator 29.1.0, SVG Export Plug-In . SVG Version: 2.1.0 Build 142)  -->
  <g id="Grundfläche">
    <rect x="0" y="0" width="90.709" height="90.709" fill="#fff"/>
  </g>
  <g id="Flächige_Fülung">
    <circle cx="45.354" cy="45.354" r="34.016" fill="#fa1919"/>
  </g>
  <g id="Takt_Zeichen__x28_umgewandelt_x29_">
    <path d="M45.354,10.63c-19.147,0-34.724,15.577-34.724,34.724s15.577,34.725,34.724,34.725,34.725-15.577,34.725-34.725S64.501,10.63,45.354,10.63ZM69.718,68.031H20.99c-5.542-5.951-8.943-13.922-8.943-22.677,0-18.366,14.941-33.307,33.307-33.307s33.307,14.941,33.307,33.307c0,8.754-3.4,16.726-8.943,22.677ZM58.64,35.841c-2.548-5.06-7.639-8.203-13.286-8.203-8.206,0-14.882,6.676-14.882,14.882s6.676,14.881,14.882,14.881c5.647,0,10.738-3.143,13.286-8.203l.319-.633-12.027-6.045,12.027-6.046-.319-.633ZM45.036,41.887v1.267l12.003,6.033c-2.399,4.211-6.813,6.798-11.685,6.798-7.424,0-13.464-6.04-13.464-13.464s6.04-13.465,13.464-13.465c4.872,0,9.286,2.587,11.685,6.798l-12.003,6.034Z"/>
  </g>
</svg>