<?xml version="1.0" encoding="UTF-8"?>
<svg xmlns="http://www.w3.org/2000/svg" version="1.1" viewBox="0 0 90.709 90.709">
  <!-- Generator: Adobe Illustrator 29.1.0, SVG Export Plug-In . SVG Version: 2.1.0 Build 142)  -->
  <g id="Grundfläche">
    <rect x="0" y="0" width="90.709" height="90.709" fill="#fff"/>
  </g>
  <g id="Flächige_Fülung">
    <circle cx="45.354" cy="45.354" r="34.016" fill="#fff"/>
  </g>
  <g id="Takt_Zeichen__x28_umgewandelt_x29_">
    <path d="M45.354,10.63c-19.147,0-34.724,15.577-34.724,34.724s15.577,34.725,34.724,34.725,34.725-15.577,34.725-34.725S64.501,10.63,45.354,10.63ZM69.718,68.031H20.99c-5.542-5.951-8.943-13.922-8.943-22.677,0-18.366,14.941-33.307,33.307-33.307s33.307,14.941,33.307,33.307c0,8.754-3.4,16.726-8.943,22.677ZM30.472,24.804h29.764v1.075l-9.011,12.745c-.595.842-.91,1.833-.91,2.864v18.041h-1.417v-18.041c0-1.326.405-2.6,1.17-3.682l8.191-11.584h-25.809l8.191,11.584c.766,1.083,1.17,2.355,1.17,3.682v18.041h-1.417v-18.041c0-1.032-.315-2.022-.91-2.864l-9.011-12.745v-1.075Z"/>
  </g>
</svg>