<?xml version="1.0" encoding="UTF-8"?>
<svg xmlns="http://www.w3.org/2000/svg" version="1.1" viewBox="0 0 90.709 90.709">
  <!-- Generator: Adobe Illustrator 29.1.0, SVG Export Plug-In . SVG Version: 2.1.0 Build 142)  -->
  <g id="Grundfläche">
    <rect x="0" y="0" width="90.709" height="90.709" fill="#fff"/>
  </g>
  <g id="Flächige_Fülung">
    <circle cx="45.354" cy="45.354" r="34.016" fill="#b4783c"/>
  </g>
  <g id="Takt_Zeichen__x28_umgewandelt_x29_">
    <path d="M30.472,19.134h29.764v1.075l-9.011,12.745c-.595.842-.91,1.833-.91,2.864v15.206h-1.417v-15.206c0-1.326.405-2.6,1.17-3.682l8.191-11.584h-25.809l8.191,11.584c.766,1.083,1.17,2.355,1.17,3.682v15.206h-1.417v-15.206c0-1.032-.315-2.022-.91-2.864l-9.011-12.745v-1.075ZM80.079,45.354c0,19.147-15.577,34.725-34.725,34.725S10.63,64.502,10.63,45.354,26.207,10.63,45.354,10.63s34.725,15.577,34.725,34.724ZM78.661,45.354c0-18.366-14.941-33.307-33.307-33.307S12.047,26.989,12.047,45.354c0,8.754,3.4,16.726,8.943,22.677h48.729c5.542-5.951,8.943-13.922,8.943-22.677Z"/>
  </g>
  <g id="Takt._Zeichen__x28_Typo_x29_">
    <g>
      <path d="M31.17,62.362v-8.275h1.835c3.118,0,4.545,1.139,4.545,3.981,0,2.986-1.751,4.294-4.677,4.294h-1.703ZM32.465,55.177v6.093h.408c2.147,0,3.31-.899,3.31-3.202,0-2.146-1.103-2.891-3.178-2.891h-.54Z"/>
      <path d="M39.654,55.358c-.444,0-.768-.3-.768-.768,0-.48.324-.78.768-.78s.78.3.78.78c0,.468-.336.768-.78.768ZM40.265,62.362h-1.223v-5.793h1.223v5.793Z"/>
      <path d="M46.083,59.759h-3.25c.072,1.187.672,1.703,1.679,1.703.839,0,1.307-.384,1.463-.516l.312.864c-.18.18-.684.695-1.979.695-1.619,0-2.662-.923-2.662-3.094,0-2.051,1.199-2.986,2.567-2.986,1.223,0,1.979.804,1.979,2.291,0,.444-.048.768-.108,1.044ZM42.821,58.896h2.243c.024-.132.024-.228.024-.336,0-.719-.372-1.151-.984-1.151-.708,0-1.223.516-1.283,1.487Z"/>
      <path d="M50.608,57.9c-.192-.144-.624-.479-1.247-.479-.564,0-.852.228-.852.516,0,.384.24.563.815.852l.396.192c.9.444,1.427.936,1.427,1.823,0,.972-.696,1.703-2.123,1.703-.995,0-1.523-.372-1.787-.611l.408-1.02c.24.24.684.6,1.355.6.636,0,.995-.228.995-.552,0-.468-.312-.624-.935-.959l-.384-.204c-.828-.42-1.283-.912-1.283-1.763,0-.936.828-1.571,1.967-1.571.935,0,1.403.372,1.607.54l-.36.936Z"/>
      <path d="M56.607,59.759h-3.25c.072,1.187.672,1.703,1.679,1.703.839,0,1.307-.384,1.463-.516l.312.864c-.18.18-.684.695-1.979.695-1.619,0-2.662-.923-2.662-3.094,0-2.051,1.199-2.986,2.567-2.986,1.223,0,1.979.804,1.979,2.291,0,.444-.048.768-.108,1.044ZM53.345,58.896h2.243c.024-.132.024-.228.024-.336,0-.719-.372-1.151-.984-1.151-.708,0-1.223.516-1.283,1.487Z"/>
      <path d="M59.369,60.731c0,.587.156.755.54.755.204,0,.348-.048.42-.072l.072.852c-.084.06-.396.204-.887.204-.852,0-1.355-.396-1.355-1.607v-6.968l1.211-.12v6.956Z"/>
    </g>
    <g>
      <path d="M76.868,77.946v.024c.887.168,1.727.815,1.727,1.955,0,1.332-.983,2.279-3.31,2.279h-1.955v-8.275h1.847c2.339,0,3.19.827,3.19,2.146,0,1.175-.731,1.631-1.499,1.871ZM75.177,74.971h-.552v2.543h.54c1.271,0,1.871-.504,1.871-1.367,0-.708-.528-1.176-1.859-1.176ZM75.356,78.557h-.732v2.591h.66c1.391,0,1.955-.456,1.955-1.319,0-.815-.684-1.271-1.883-1.271Z"/>
      <path d="M85.651,82.204h-.995l-1.055-2.986h-.024l-1.151,2.986h-1.02l-2.051-5.793h1.307l1.319,4.233h.024l1.115-2.794-.516-1.439h1.247l1.355,4.233h.024l1.295-4.233h1.188l-2.063,5.793Z"/>
    </g>
  </g>
</svg>