<?xml version="1.0" encoding="UTF-8"?>
<svg xmlns="http://www.w3.org/2000/svg" version="1.1" viewBox="0 0 90.709 90.709">
  <!-- Generator: Adobe Illustrator 29.1.0, SVG Export Plug-In . SVG Version: 2.1.0 Build 142)  -->
  <g id="Grundfläche">
    <rect x="0" width="90.709" height="90.709" fill="#fff"/>
  </g>
  <g id="Flächige_Fülung">
    <rect x="2.835" y="17.009" width="85.04" height="56.693" fill="#fff"/>
  </g>
  <g id="Takt_Zeichen__x28_umgewandelt_x29_">
    <path d="M87.165,17.008h1.417v57.401H2.126V17.008h1.417v48.188h83.622V17.008ZM38.976,42.52c0-8.206,6.676-14.882,14.882-14.882,5.647,0,10.738,3.143,13.286,8.203l.319.633-12.027,6.046,12.027,6.045-.319.633c-2.548,5.06-7.639,8.203-13.286,8.203-8.206,0-14.882-6.676-14.882-14.881ZM40.394,42.52c0,7.424,6.04,13.464,13.464,13.464,4.872,0,9.286-2.587,11.685-6.798l-12.003-6.033v-1.267l12.003-6.034c-2.399-4.211-6.813-6.798-11.685-6.798-7.424,0-13.464,6.041-13.464,13.465ZM29.196,36.454c.36.263.568.687.568,1.132v17.689c0,.782.634,1.417,1.417,1.417h0c.783,0,1.417-.634,1.417-1.417v-17.689c0-.446.208-.869.568-1.132,1.314-.961,2.266-2.043,2.266-3.856,0-3.508-1.853-5.669-4.252-5.669s-4.252,2.161-4.252,5.669c0,1.813.952,2.895,2.267,3.856Z"/>
  </g>
</svg>