<?xml version="1.0" encoding="UTF-8"?>
<svg xmlns="http://www.w3.org/2000/svg" version="1.1" viewBox="0 0 90.709 90.709">
  <!-- Generator: Adobe Illustrator 29.1.0, SVG Export Plug-In . SVG Version: 2.1.0 Build 142)  -->
  <g id="Grundfläche">
    <rect x="0" width="90.709" height="90.709" fill="#fff"/>
  </g>
  <g id="Flächige_Fülung">
    <rect x="2.835" y="17.009" width="85.04" height="56.693" fill="#fff"/>
  </g>
  <g id="Takt_Zeichen__x28_umgewandelt_x29_">
    <path d="M88.582,17.008v57.401H2.126V17.008h1.417v48.188h83.622V17.008h1.417ZM31.89,23.386h-3.543v-1.417h34.016v1.417h-3.543v30.473c0,1.954-1.59,3.543-3.543,3.543h-19.843c-1.954,0-3.543-1.589-3.543-3.543v-30.473ZM57.401,23.386h-24.094v30.473c0,1.172.954,2.126,2.126,2.126h19.843c1.172,0,2.126-.954,2.126-2.126v-30.473ZM51.024,19.134h-11.339v1.417h11.339v-1.417ZM46.063,28.347h-1.417v22.677h1.417v-22.677ZM53.15,51.022l-.056-22.677-1.417.004.056,22.677,1.417-.004ZM39.033,28.348l-1.417-.004-.056,22.677,1.417.004.056-22.677Z"/>
  </g>
</svg>