<?xml version="1.0" encoding="UTF-8"?>
<svg xmlns="http://www.w3.org/2000/svg" version="1.1" viewBox="0 0 90.709 90.709">
  <!-- Generator: Adobe Illustrator 29.1.0, SVG Export Plug-In . SVG Version: 2.1.0 Build 142)  -->
  <g id="Grundfläche">
    <rect x="0" y="0" width="90.709" height="90.709" fill="#fff"/>
  </g>
  <g id="Flächige_Fülung">
    <rect x="2.835" y="17.009" width="85.04" height="56.693" fill="#fff"/>
  </g>
  <g id="Takt_Zeichen__x28_umgewandelt_x29_">
    <circle cx="45.354" cy="9.921" r="4.252"/>
    <path d="M2.126,74.41h86.457V16.299H2.126v58.11ZM3.543,17.717h83.623v55.274H3.543V17.717ZM37.353,41.604c-.724.724-1.625,1.625-3.337,1.625v-1.418c1.125,0,1.659-.534,2.335-1.21.724-.724,1.625-1.625,3.337-1.625s2.613.901,3.337,1.625c.676.677,1.21,1.21,2.335,1.21s1.657-.533,2.333-1.209c.724-.725,1.625-1.626,3.335-1.626s2.61.901,3.333,1.626c.675.676,1.208,1.209,2.33,1.209v1.418c-1.709,0-2.609-.901-3.333-1.626-.675-.676-1.208-1.209-2.331-1.209s-1.658.533-2.333,1.21c-.724.724-1.625,1.625-3.335,1.625s-2.613-.901-3.337-1.625c-.676-.677-1.21-1.21-2.335-1.21s-1.659.533-2.335,1.21ZM37.353,35.935c-.724.724-1.625,1.625-3.337,1.625v-1.418c1.125,0,1.659-.534,2.335-1.21.724-.724,1.625-1.625,3.337-1.625s2.613.901,3.337,1.625c.676.677,1.21,1.21,2.335,1.21s1.657-.533,2.333-1.209c.724-.725,1.625-1.626,3.335-1.626s2.61.901,3.333,1.626c.675.676,1.208,1.209,2.33,1.209v1.418c-1.709,0-2.609-.901-3.333-1.626-.675-.676-1.208-1.209-2.331-1.209s-1.658.533-2.333,1.21c-.724.724-1.625,1.625-3.335,1.625s-2.613-.901-3.337-1.625c-.676-.677-1.21-1.21-2.335-1.21s-1.659.533-2.335,1.21ZM33.013,56.694l12.341,12.34,12.341-12.34-12.341-12.341-12.341,12.341ZM45.355,67.03l-10.336-10.336,10.336-10.337,10.336,10.337-10.336,10.336Z"/>
  </g>
  <g id="Takt._Zeichen__x28_Typo_x29_">
    <g>
      <path d="M13.635,22.555h-2.495v7.208h-1.295v-7.208h-2.507v-1.067h6.38l-.084,1.067Z"/>
      <path d="M16.061,26.477h.372v-.336c0-.888-.372-1.271-1.08-1.271-.696,0-1.175.348-1.403.54l-.408-.828c.288-.252.924-.756,2.051-.756,1.319,0,2.027.744,2.027,2.34v2.23c0,.575.048,1.115.084,1.367h-1.139c-.012-.168-.036-.384-.036-.636h-.024c-.204.336-.635.779-1.511.779-.948,0-1.595-.684-1.595-1.69,0-1.2,1.163-1.739,2.663-1.739ZM16.432,28.444v-1.176l-.444.024c-.948.048-1.415.275-1.415.827,0,.492.336.804.732.804.612,0,.936-.264,1.127-.479Z"/>
      <path d="M23.943,29.763h-1.115v-.648h-.024c-.204.24-.672.792-1.727.792-1.223,0-1.871-.768-1.871-2.314v-3.622h1.223v3.418c0,1.031.3,1.463,1.02,1.463.659,0,1.031-.287,1.271-.516v-4.365h1.223v5.793Z"/>
      <path d="M29.391,25.265c-.132-.107-.516-.396-1.115-.396-.984,0-1.715.552-1.715,1.931,0,1.512.659,2.051,1.583,2.051.624,0,.995-.228,1.199-.396l.348.888c-.228.204-.696.563-1.751.563-1.547,0-2.626-.863-2.626-3.095,0-2.086,1.475-2.986,2.878-2.986.899,0,1.343.324,1.559.492l-.36.947Z"/>
      <path d="M34.54,29.763v-3.431c0-.995-.312-1.451-1.055-1.451-.636,0-1.067.3-1.307.528v4.354h-1.223v-8.468l1.223-.12v3.371h.024c.252-.276.755-.721,1.667-.721,1.223,0,1.883.792,1.883,2.315v3.622h-1.211Z"/>
      <path d="M41.535,27.16h-3.25c.072,1.187.672,1.703,1.679,1.703.839,0,1.307-.384,1.463-.517l.312.864c-.18.18-.684.695-1.979.695-1.619,0-2.662-.923-2.662-3.095,0-2.051,1.199-2.986,2.567-2.986,1.223,0,1.979.805,1.979,2.291,0,.444-.048.768-.108,1.044ZM38.273,26.296h2.243c.024-.131.024-.228.024-.336,0-.719-.372-1.15-.984-1.15-.708,0-1.223.516-1.283,1.486Z"/>
      <path d="M46.671,29.763v-3.431c0-.995-.312-1.451-1.055-1.451-.636,0-1.067.3-1.307.528v4.354h-1.223v-5.793h1.127v.647h.024c.228-.276.768-.792,1.739-.792,1.235,0,1.907.792,1.907,2.315v3.622h-1.211Z"/>
    </g>
  </g>
</svg>