<?xml version="1.0" encoding="UTF-8"?>
<svg xmlns="http://www.w3.org/2000/svg" version="1.1" viewBox="0 0 90.709 90.709">
  <!-- Generator: Adobe Illustrator 29.1.0, SVG Export Plug-In . SVG Version: 2.1.0 Build 142)  -->
  <g id="Grundfläche">
    <rect x="0" width="90.709" height="90.709" fill="#fff"/>
  </g>
  <g id="Flächige_Fülung">
    <rect x="2.835" y="17.009" width="85.04" height="56.693" fill="#fff"/>
  </g>
  <g id="Takt_Zeichen__x28_umgewandelt_x29_">
    <circle cx="45.354" cy="9.921" r="4.252"/>
    <path d="M88.583,74.41H2.126V16.299h86.457v58.111ZM3.543,72.992h83.622V17.716H3.543v55.275ZM56.693,43.228c-1.122,0-1.656-.533-2.331-1.209-.723-.725-1.624-1.626-3.333-1.626s-2.612.901-3.335,1.625c-.676.677-1.209,1.21-2.333,1.21s-1.659-.533-2.335-1.21c-.724-.724-1.626-1.625-3.337-1.625s-2.613.901-3.337,1.625c-.676.677-1.21,1.21-2.335,1.21v1.418c1.711,0,2.613-.901,3.337-1.625.676-.677,1.21-1.21,2.335-1.21s1.659.533,2.335,1.21c.724.724,1.626,1.625,3.337,1.625s2.612-.901,3.335-1.625c.676-.677,1.209-1.21,2.333-1.21s1.655.533,2.33,1.209c.723.725,1.624,1.626,3.333,1.626v-1.418ZM56.693,37.558c-1.122,0-1.656-.533-2.331-1.209-.723-.724-1.624-1.625-3.333-1.625s-2.612.901-3.335,1.625c-.676.676-1.21,1.209-2.333,1.209s-1.659-.533-2.335-1.209c-.724-.724-1.626-1.625-3.337-1.625s-2.613.901-3.337,1.625c-.676.676-1.21,1.209-2.335,1.209v1.418c1.711,0,2.613-.901,3.337-1.625.676-.676,1.21-1.209,2.335-1.209s1.659.533,2.335,1.209c.724.724,1.626,1.625,3.337,1.625s2.612-.901,3.335-1.625c.676-.676,1.21-1.209,2.333-1.209s1.655.533,2.331,1.209c.723.724,1.624,1.625,3.333,1.625v-1.418ZM45.354,69.034l-10.923-10.924,10.923-10.923,10.924,10.923-10.924,10.924ZM36.435,58.11l8.919,8.92,8.919-8.92-8.919-8.919-8.919,8.919ZM45.354,26.929l-15.118-6.378v2.835l15.118,9.213,15.118-9.213v-2.835l-15.118,6.378Z"/>
  </g>
</svg>