<?xml version="1.0" encoding="UTF-8"?>
<svg xmlns="http://www.w3.org/2000/svg" version="1.1" viewBox="0 0 90.709 90.709">
  <!-- Generator: Adobe Illustrator 29.1.0, SVG Export Plug-In . SVG Version: 2.1.0 Build 142)  -->
  <g id="Grundfläche">
    <rect x="0" y="0" width="90.709" height="90.709" fill="#fff"/>
  </g>
  <g id="Flächige_Fülung">
    <rect x="2.835" y="25.513" width="85.04" height="56.693" fill="#fff"/>
  </g>
  <g id="Takt_Zeichen__x28_umgewandelt_x29_">
    <path d="M49.606,18.425c0,2.348-1.904,4.252-4.252,4.252-2.348,0-4.252-1.904-4.252-4.252s1.904-4.252,4.252-4.252c2.348,0,4.252,1.904,4.252,4.252ZM41.102,7.087c0,2.348,1.904,4.252,4.252,4.252,2.348,0,4.252-1.904,4.252-4.252s-1.904-4.252-4.252-4.252-4.252,1.904-4.252,4.252Z"/>
    <path d="M2.126,24.803v58.11h86.457V24.803H2.126ZM3.543,81.495v-47.479h83.622v47.479H3.543ZM37.353,48.691c-.724.724-1.626,1.625-3.337,1.625v-1.418c1.125,0,1.659-.533,2.335-1.21.724-.724,1.626-1.625,3.337-1.625s2.613.901,3.337,1.625c.676.677,1.211,1.21,2.335,1.21s1.657-.533,2.333-1.21c.724-.724,1.625-1.625,3.335-1.625s2.61.901,3.333,1.626c.675.676,1.208,1.209,2.33,1.209v1.418c-1.71,0-2.61-.901-3.333-1.626-.675-.676-1.208-1.209-2.33-1.209s-1.657.533-2.333,1.21c-.724.724-1.625,1.625-3.335,1.625s-2.613-.901-3.337-1.625c-.676-.677-1.211-1.21-2.335-1.21s-1.659.533-2.335,1.21ZM37.353,43.021c-.724.724-1.626,1.625-3.337,1.625v-1.418c1.125,0,1.659-.533,2.335-1.209.724-.724,1.626-1.625,3.337-1.625s2.613.901,3.337,1.625c.676.676,1.211,1.209,2.335,1.209s1.657-.533,2.333-1.209c.724-.724,1.625-1.625,3.335-1.625s2.61.901,3.333,1.625c.675.676,1.208,1.209,2.331,1.209v1.418c-1.709,0-2.61-.901-3.333-1.625-.675-.676-1.208-1.209-2.331-1.209s-1.657.533-2.333,1.209c-.724.724-1.625,1.625-3.335,1.625s-2.613-.901-3.337-1.625c-.676-.676-1.21-1.209-2.335-1.209s-1.659.533-2.335,1.209ZM33.014,65.198l12.341,12.34,12.341-12.34-12.341-12.341-12.341,12.341ZM45.355,75.534l-10.336-10.336,10.336-10.337,10.336,10.337-10.336,10.336Z"/>
  </g>
</svg>