<?xml version="1.0" encoding="UTF-8"?>
<svg xmlns="http://www.w3.org/2000/svg" version="1.1" viewBox="0 0 90.709 90.709">
  <!-- Generator: Adobe Illustrator 29.1.0, SVG Export Plug-In . SVG Version: 2.1.0 Build 142)  -->
  <g id="Grundfläche">
    <rect x="0" y="0" width="90.709" height="90.709" fill="#fff"/>
  </g>
  <g id="Flächige_Fülung">
    <rect x="2.835" y="17.009" width="85.04" height="56.693" fill="#fff"/>
  </g>
  <g id="Takt_Zeichen__x28_umgewandelt_x29_">
    <path d="M2.125,74.41h86.457V16.299H2.125v58.11ZM3.543,17.717h83.622v55.274H3.543V17.717ZM37.353,41.604c-.724.724-1.626,1.625-3.337,1.625v-1.418c1.125,0,1.659-.533,2.335-1.21.724-.724,1.626-1.625,3.337-1.625s2.613.901,3.337,1.625c.676.677,1.211,1.21,2.335,1.21s1.657-.533,2.333-1.21c.724-.724,1.625-1.625,3.335-1.625s2.61.901,3.333,1.626c.675.676,1.208,1.209,2.33,1.209v1.418c-1.71,0-2.61-.901-3.333-1.626-.675-.676-1.208-1.209-2.33-1.209s-1.657.533-2.333,1.21c-.724.724-1.625,1.625-3.335,1.625s-2.613-.901-3.337-1.625c-.676-.677-1.211-1.21-2.335-1.21s-1.659.533-2.335,1.21ZM37.353,35.935c-.724.724-1.626,1.625-3.337,1.625v-1.418c1.125,0,1.659-.533,2.335-1.21.724-.724,1.626-1.625,3.337-1.625s2.613.901,3.337,1.625c.676.677,1.211,1.21,2.335,1.21s1.657-.533,2.333-1.21c.724-.724,1.625-1.625,3.335-1.625s2.61.901,3.333,1.626c.675.676,1.208,1.209,2.33,1.209v1.418c-1.71,0-2.61-.901-3.333-1.626-.675-.676-1.208-1.209-2.33-1.209s-1.657.533-2.333,1.21c-.724.724-1.625,1.625-3.335,1.625s-2.613-.901-3.337-1.625c-.676-.677-1.211-1.21-2.335-1.21s-1.659.533-2.335,1.21ZM33.014,56.694l12.341,12.34,12.341-12.34-12.341-12.341-12.341,12.341ZM45.355,67.03l-10.336-10.336,10.336-10.337,10.336,10.337-10.336,10.336Z"/>
    <circle cx="59.528" cy="9.921" r="4.252"/>
    <circle cx="31.181" cy="9.921" r="4.252"/>
  </g>
  <g id="Takt._Zeichen__x28_Typo_x29_">
    <g>
      <path d="M13.085,26.923v.024c.887.168,1.727.815,1.727,1.955,0,1.331-.983,2.278-3.31,2.278h-1.955v-8.275h1.847c2.339,0,3.19.828,3.19,2.146,0,1.176-.731,1.632-1.499,1.871ZM11.394,23.949h-.552v2.542h.54c1.271,0,1.871-.504,1.871-1.367,0-.707-.528-1.175-1.859-1.175ZM11.574,27.535h-.732v2.591h.66c1.391,0,1.955-.456,1.955-1.32,0-.814-.684-1.271-1.883-1.271Z"/>
      <path d="M18.546,31.325c-1.439,0-2.554-.96-2.554-3.047,0-2.074,1.271-3.034,2.674-3.034,1.439,0,2.543.936,2.543,3.034,0,2.062-1.271,3.047-2.663,3.047ZM18.606,26.3c-.78,0-1.367.6-1.367,1.979,0,1.392.588,1.991,1.367,1.991.792,0,1.355-.612,1.355-1.991,0-1.391-.588-1.979-1.355-1.979Z"/>
      <path d="M24.846,31.325c-1.439,0-2.554-.96-2.554-3.047,0-2.074,1.271-3.034,2.674-3.034,1.439,0,2.543.936,2.543,3.034,0,2.062-1.271,3.047-2.663,3.047ZM24.906,26.3c-.78,0-1.367.6-1.367,1.979,0,1.392.588,1.991,1.367,1.991.792,0,1.355-.612,1.355-1.991,0-1.391-.588-1.979-1.355-1.979Z"/>
      <path d="M31.793,26.384h-1.415v2.698c0,.876.228,1.188.816,1.188.3,0,.54-.097.648-.144l.108.936c-.108.06-.444.251-1.067.251-1.211,0-1.727-.623-1.727-2.099v-2.83h-.792v-.84l.792-.144.144-1.619h1.079v1.606h1.547l-.132.996Z"/>
    </g>
  </g>
</svg>