<?xml version="1.0" encoding="UTF-8"?>
<svg xmlns="http://www.w3.org/2000/svg" version="1.1" viewBox="0 0 90.709 90.709">
  <!-- Generator: Adobe Illustrator 29.1.0, SVG Export Plug-In . SVG Version: 2.1.0 Build 142)  -->
  <g id="Grundfläche">
    <rect x="0" width="90.709" height="90.709" fill="#fff"/>
  </g>
  <g id="Flächige_Fülung">
    <path d="M45.355,22.678c-17.008,0-31.181-2.582-42.52-6.378v57.402h85.04V16.3c-11.339,3.794-25.512,6.378-42.52,6.378Z" fill="#fff"/>
  </g>
  <g id="Takt_Zeichen__x28_umgewandelt_x29_">
    <path d="M56.693,47.764c-1.71,0-2.61-.901-3.333-1.626-.675-.676-1.208-1.209-2.33-1.209s-1.657.533-2.333,1.21c-.724.724-1.625,1.625-3.335,1.625s-2.613-.901-3.337-1.625c-.676-.677-1.211-1.21-2.335-1.21s-1.659.533-2.335,1.21c-.724.724-1.626,1.625-3.337,1.625v-1.418c1.125,0,1.659-.533,2.335-1.21.724-.724,1.626-1.625,3.337-1.625s2.613.901,3.337,1.625c.676.677,1.211,1.21,2.335,1.21s1.657-.533,2.333-1.21c.724-.724,1.625-1.625,3.335-1.625s2.61.901,3.333,1.626c.675.676,1.208,1.209,2.33,1.209v1.418ZM56.693,41.811c-1.122,0-1.655-.533-2.33-1.209-.723-.725-1.624-1.626-3.333-1.626s-2.612.901-3.335,1.625c-.676.677-1.209,1.21-2.333,1.21s-1.659-.533-2.335-1.21c-.724-.724-1.626-1.625-3.337-1.625s-2.613.901-3.337,1.625c-.676.677-1.21,1.21-2.335,1.21v1.418c1.711,0,2.613-.901,3.337-1.625.676-.677,1.21-1.21,2.335-1.21s1.659.533,2.335,1.21c.724.724,1.626,1.625,3.337,1.625s2.612-.901,3.335-1.625c.676-.677,1.209-1.21,2.333-1.21s1.655.533,2.33,1.209c.723.725,1.624,1.626,3.333,1.626v-1.418ZM55.376,59.012l-10.022-10.021-10.022,10.021,10.022,10.022,10.022-10.022ZM45.354,50.995l8.018,8.018-8.018,8.019-8.018-8.019,8.018-8.018ZM87.165,80.079c0,3.908-3.179,7.086-7.087,7.086s-7.087-3.179-7.087-7.086c0-2.319,1.125-4.375,2.852-5.669H14.864c1.727,1.294,2.852,3.35,2.852,5.669,0,3.908-3.179,7.086-7.087,7.086s-7.087-3.179-7.087-7.086c0-2.319,1.125-4.375,2.852-5.669H2.126V15.315l.934.312c12.569,4.208,26.799,6.341,42.295,6.341s29.719-2.134,42.295-6.341l.934-.312v59.095s-4.27,0-4.27,0c1.727,1.294,2.852,3.35,2.852,5.669ZM10.639,74.41h-.019c-3.122.005-5.66,2.546-5.66,5.669s2.543,5.669,5.669,5.669,5.669-2.543,5.669-5.669-2.538-5.664-5.66-5.669ZM87.166,72.993V17.279c-12.489,4.053-26.551,6.107-41.811,6.107s-29.328-2.054-41.811-6.106v55.713h83.622ZM85.748,80.079c0-3.123-2.538-5.664-5.66-5.669h-.019c-3.122.005-5.66,2.546-5.66,5.669s2.543,5.669,5.669,5.669,5.669-2.543,5.669-5.669Z"/>
  </g>
  <g id="Takt._Zeichen__x28_Typo_x29_">
    <g>
      <path d="M14.042,33.392c-.252.216-1.019.768-2.519.768-2.183,0-3.802-1.151-3.802-4.317,0-2.963,2.027-4.246,4.054-4.246,1.391,0,2.087.576,2.303.744l-.444,1.02c-.192-.168-.78-.66-1.823-.66-1.439,0-2.71.899-2.71,3.143,0,2.255.936,3.214,2.591,3.214.42,0,.792-.071,1.104-.168v-2.11h-1.487v-1.067h2.734v3.682Z"/>
      <path d="M23.161,34.016h-1.104l-1.811-6.165h-.024l-1.823,6.165h-1.091l-2.243-8.275h1.391l1.463,6.213h.024l1.751-6.213h1.223l1.691,6.213h.024l1.499-6.213h1.307l-2.279,8.275Z"/>
      <path d="M32.727,27.288c-.216-.168-.719-.563-1.499-.563-.864,0-1.271.384-1.271.875,0,.588.264.899,1.115,1.428l.804.491c1.043.648,1.631,1.319,1.631,2.387,0,1.212-.912,2.255-2.747,2.255-1.319,0-1.979-.54-2.255-.768l.444-1.14c.264.264.899.768,1.787.768.995,0,1.451-.443,1.451-.947,0-.636-.312-.959-1.091-1.475l-.816-.54c-1.115-.743-1.619-1.308-1.619-2.435,0-1.115.959-2.027,2.507-2.027,1.175,0,1.739.444,1.979.624l-.42,1.067Z"/>
      <path d="M39.303,34.016l-1.871-3.215c-.192.024-.384.024-.588.024h-.492v3.19h-1.295v-8.275h1.847c2.291,0,3.334.852,3.334,2.435,0,1.079-.504,1.907-1.535,2.339l2.159,3.502h-1.559ZM36.904,26.808h-.552v2.962h.492c1.379,0,2.015-.552,2.015-1.559,0-.96-.612-1.403-1.955-1.403Z"/>
    </g>
  </g>
</svg>