<?xml version="1.0" encoding="UTF-8"?>
<svg xmlns="http://www.w3.org/2000/svg" version="1.1" viewBox="0 0 90.709 90.709">
  <!-- Generator: Adobe Illustrator 29.1.0, SVG Export Plug-In . SVG Version: 2.1.0 Build 142)  -->
  <g id="Grundfläche">
    <rect x="0" width="90.709" height="90.709" fill="#fff"/>
  </g>
  <g id="Flächige_Fülung">
    <path d="M49.606,22.678c-15.307,0-28.063-2.582-38.268-6.378v57.402h76.536V16.3c-10.205,3.794-22.961,6.378-38.268,6.378Z" fill="#fff"/>
  </g>
  <g id="Takt_Zeichen__x28_umgewandelt_x29_">
    <path d="M88.583,74.41V15.28s-.956.355-.956.355c-11.304,4.202-24.096,6.333-38.021,6.333s-26.723-2.131-38.021-6.333l-.956-.355v25.113H2.126v4.253h8.504v29.764h77.953ZM12.047,17.313c11.22,4.03,23.85,6.073,37.559,6.073s26.334-2.043,37.559-6.073v55.679s-75.118,0-75.118,0V17.313ZM3.543,43.228v-1.417h7.086v1.417H3.543ZM41.605,38.06c-.724.724-1.626,1.625-3.337,1.625v-1.418c1.125,0,1.659-.533,2.335-1.21.724-.724,1.626-1.625,3.337-1.625s2.613.901,3.337,1.625c.676.677,1.21,1.21,2.335,1.21s1.657-.533,2.333-1.21c.724-.724,1.625-1.625,3.336-1.625s2.61.901,3.333,1.626c.675.676,1.208,1.209,2.33,1.209v1.418c-1.71,0-2.61-.901-3.333-1.626-.675-.676-1.208-1.209-2.33-1.209s-1.657.533-2.333,1.21c-.724.724-1.625,1.625-3.335,1.625s-2.613-.901-3.337-1.625c-.676-.677-1.21-1.21-2.335-1.21s-1.659.533-2.335,1.21ZM41.605,32.391c-.724.724-1.626,1.625-3.337,1.625v-1.418c1.125,0,1.659-.533,2.335-1.21.724-.724,1.626-1.625,3.337-1.625s2.613.901,3.337,1.625c.676.677,1.21,1.21,2.335,1.21s1.657-.533,2.333-1.21c.724-.724,1.625-1.625,3.336-1.625s2.61.901,3.333,1.626c.675.676,1.208,1.209,2.33,1.209v1.418c-1.71,0-2.61-.901-3.333-1.626-.675-.676-1.208-1.209-2.33-1.209s-1.657.533-2.333,1.21c-.724.724-1.625,1.625-3.335,1.625s-2.613-.901-3.337-1.625c-.676-.677-1.21-1.21-2.335-1.21s-1.659.533-2.335,1.21ZM37.266,54.567l12.341,12.341,12.341-12.341-12.341-12.341-12.341,12.341ZM49.607,64.904l-10.336-10.337,10.336-10.337,10.336,10.337-10.336,10.337Z"/>
  </g>
</svg>