<?xml version="1.0" encoding="UTF-8"?>
<svg xmlns="http://www.w3.org/2000/svg" version="1.1" viewBox="0 0 90.709 90.709">
  <!-- Generator: Adobe Illustrator 29.1.0, SVG Export Plug-In . SVG Version: 2.1.0 Build 142)  -->
  <g id="Grundfläche">
    <rect x="0" width="90.709" height="90.709" fill="#fff"/>
  </g>
  <g id="Flächige_Fülung">
    <path d="M49.606,22.678c-15.307,0-28.063-2.582-38.268-6.378v57.402h76.536V16.3c-10.205,3.794-22.961,6.378-38.268,6.378Z" fill="#fff"/>
  </g>
  <g id="Takt_Zeichen__x28_umgewandelt_x29_">
    <path d="M87.627,15.636c-11.304,4.202-24.096,6.333-38.021,6.333s-26.723-2.131-38.021-6.333l-.956-.355v25.113H2.126v4.253h8.504v29.764h77.953V15.28s-.956.355-.956.355ZM3.543,43.228v-1.417h7.087v1.417H3.543ZM12.047,72.992V17.313c11.22,4.03,23.85,6.073,37.559,6.073s26.334-2.043,37.559-6.073v55.679s-75.118,0-75.118,0ZM58.615,45.138c.675.676,1.208,1.209,2.331,1.209v1.418c-1.71,0-2.61-.901-3.333-1.626-.675-.676-1.208-1.209-2.331-1.209s-1.657.533-2.333,1.209c-.724.725-1.625,1.626-3.335,1.626s-2.613-.901-3.337-1.625c-.676-.676-1.21-1.21-2.335-1.21s-1.659.534-2.335,1.21c-.724.724-1.625,1.625-3.337,1.625v-1.418c1.125,0,1.659-.533,2.335-1.21.724-.724,1.625-1.625,3.337-1.625s2.613.901,3.337,1.625c.676.677,1.21,1.21,2.335,1.21s1.658-.533,2.333-1.21c.724-.724,1.625-1.625,3.335-1.625s2.61.901,3.333,1.626ZM58.615,40.602c.675.676,1.208,1.209,2.331,1.209v1.418c-1.71,0-2.61-.901-3.333-1.626-.675-.676-1.208-1.209-2.331-1.209s-1.657.533-2.333,1.209c-.724.725-1.625,1.626-3.335,1.626s-2.613-.901-3.337-1.625c-.676-.676-1.21-1.21-2.335-1.21s-1.659.534-2.335,1.21c-.724.724-1.625,1.625-3.337,1.625v-1.418c1.125,0,1.659-.533,2.335-1.21.724-.724,1.625-1.625,3.337-1.625s2.613.901,3.337,1.625c.676.677,1.21,1.21,2.335,1.21s1.658-.533,2.333-1.21c.724-.724,1.625-1.625,3.335-1.625s2.61.901,3.333,1.626ZM39.585,59.013l10.021,10.022,10.022-10.022-10.022-10.021-10.021,10.021ZM49.606,67.031l-8.018-8.019,8.018-8.018,8.018,8.018-8.018,8.019Z"/>
  </g>
  <g id="Takt._Zeichen__x28_Typo_x29_">
    <g>
      <path d="M17.03,28.04c-.162-.125-.54-.423-1.125-.423-.648,0-.955.288-.955.657,0,.441.198.676.838,1.071l.603.369c.783.486,1.225.99,1.225,1.792,0,.909-.684,1.692-2.062,1.692-.99,0-1.485-.405-1.692-.576l.333-.855c.198.198.675.576,1.341.576.748,0,1.089-.333,1.089-.711,0-.478-.234-.721-.819-1.107l-.612-.405c-.837-.559-1.215-.981-1.215-1.827,0-.838.72-1.521,1.881-1.521.882,0,1.305.333,1.485.468l-.315.801Z"/>
      <path d="M20.719,29.49h-1.062v2.025c0,.657.171.892.612.892.226,0,.405-.072.486-.108l.081.702c-.081.045-.333.189-.801.189-.91,0-1.297-.469-1.297-1.576v-2.124h-.594v-.63l.594-.108.108-1.216h.81v1.207h1.162l-.1.747Z"/>
      <path d="M23.941,29.526c-.045-.027-.162-.072-.369-.072-.541,0-.846.288-.981.54v3.097h-.919v-4.348h.847v.621h.018c.162-.352.459-.703,1.099-.703.18,0,.315.037.378.055l-.072.811Z"/>
      <path d="M26.425,33.199c-1.08,0-1.918-.72-1.918-2.287,0-1.558.955-2.277,2.008-2.277,1.08,0,1.909.702,1.909,2.277,0,1.549-.955,2.287-1.999,2.287ZM25.678,28.013c-.288,0-.504-.207-.504-.513s.216-.522.504-.522.504.216.504.522-.216.513-.504.513ZM26.47,29.426c-.585,0-1.026.45-1.026,1.485,0,1.045.441,1.495,1.026,1.495.594,0,1.018-.459,1.018-1.495,0-1.044-.441-1.485-1.018-1.485ZM27.281,28.013c-.288,0-.514-.207-.514-.513s.226-.522.514-.522.504.216.504.522-.216.513-.504.513Z"/>
      <path d="M30.295,29.229h.018c.171-.207.567-.595,1.278-.595.513,0,.891.207,1.116.621.225-.252.657-.621,1.342-.621.972,0,1.467.585,1.467,1.737v2.719h-.909v-2.574c0-.766-.27-1.09-.819-1.09-.432,0-.72.226-.891.387.026.172.045.361.045.559v2.719h-.909v-2.574c0-.766-.217-1.09-.712-1.09-.486,0-.792.226-.954.396v3.268h-.918v-4.348h.846v.486Z"/>
      <path d="M40.249,33.09h-.837v-.486h-.019c-.152.181-.504.595-1.296.595-.918,0-1.404-.576-1.404-1.737v-2.719h.918v2.565c0,.774.225,1.099.766,1.099.495,0,.774-.217.954-.388v-3.276h.918v4.348Z"/>
      <path d="M44.182,33.09v-2.574c0-.748-.234-1.09-.792-1.09-.477,0-.801.226-.981.396v3.268h-.918v-4.348h.846v.486h.018c.171-.207.576-.595,1.305-.595.927,0,1.431.595,1.431,1.737v2.719h-.909Z"/>
      <path d="M49.898,29.373h-.595c.126.216.207.468.207.738,0,.963-.747,1.477-1.719,1.477-.135,0-.27-.009-.396-.027-.126.063-.279.189-.279.369,0,.171.117.288.396.288h.909c.927,0,1.467.378,1.467,1.161,0,.855-.801,1.62-2.359,1.62-1.08,0-1.656-.414-1.656-1.16,0-.622.468-.892.729-1.027v-.026c-.18-.145-.261-.352-.261-.604,0-.459.396-.711.522-.774v-.018c-.441-.225-.729-.648-.729-1.278,0-.999.756-1.477,1.692-1.477.234,0,.459.045.657.108h1.513l-.099.63ZM47.053,32.973c-.171.117-.351.315-.351.658,0,.459.315.656.918.656.964,0,1.414-.359,1.414-.783,0-.359-.198-.504-.667-.504h-.945c-.135,0-.261-.009-.369-.027ZM47.836,29.319c-.45,0-.855.225-.855.792s.405.783.837.783c.45,0,.847-.216.847-.783s-.396-.792-.829-.792Z"/>
      <path d="M53.056,29.742c-.145-.108-.468-.36-.937-.36-.423,0-.639.171-.639.387,0,.289.18.424.612.64l.297.144c.675.334,1.071.703,1.071,1.369,0,.729-.522,1.278-1.594,1.278-.747,0-1.144-.279-1.342-.459l.307-.766c.18.181.513.45,1.017.45.477,0,.748-.171.748-.414,0-.352-.234-.469-.702-.721l-.288-.152c-.622-.315-.964-.685-.964-1.324,0-.701.621-1.179,1.477-1.179.702,0,1.054.279,1.207.405l-.27.702Z"/>
      <path d="M56.701,29.526c-.045-.027-.162-.072-.369-.072-.54,0-.846.288-.981.54v3.097h-.918v-4.348h.847v.621h.018c.162-.352.459-.703,1.099-.703.18,0,.315.037.378.055l-.072.811Z"/>
      <path d="M60.607,31.137h-2.439c.054.891.504,1.278,1.26,1.278.63,0,.981-.288,1.098-.388l.234.648c-.135.135-.513.522-1.485.522-1.216,0-1.999-.693-1.999-2.323,0-1.539.9-2.241,1.927-2.241.918,0,1.485.603,1.485,1.72,0,.333-.036.576-.081.783ZM58.159,30.489h1.684c.018-.1.018-.171.018-.252,0-.54-.279-.864-.738-.864-.531,0-.918.387-.963,1.116Z"/>
      <path d="M63.954,29.49h-1.062v2.025c0,.657.171.892.612.892.226,0,.405-.072.486-.108l.081.702c-.081.045-.333.189-.801.189-.91,0-1.297-.469-1.297-1.576v-2.124h-.594v-.63l.594-.108.108-1.216h.81v1.207h1.162l-.1.747Z"/>
      <path d="M67.096,29.49h-1.062v2.025c0,.657.171.892.612.892.225,0,.405-.072.486-.108l.081.702c-.081.045-.333.189-.801.189-.909,0-1.297-.469-1.297-1.576v-2.124h-.594v-.63l.594-.108.108-1.216h.811v1.207h1.161l-.099.747Z"/>
      <path d="M71.569,33.09h-.837v-.486h-.018c-.153.181-.504.595-1.296.595-.918,0-1.404-.576-1.404-1.737v-2.719h.918v2.565c0,.774.226,1.099.766,1.099.495,0,.774-.217.954-.388v-3.276h.918v4.348Z"/>
      <path d="M75.502,33.09v-2.574c0-.748-.234-1.09-.792-1.09-.477,0-.801.226-.981.396v3.268h-.918v-4.348h.847v.486h.018c.171-.207.576-.595,1.306-.595.927,0,1.431.595,1.431,1.737v2.719h-.909Z"/>
      <path d="M81.217,29.373h-.595c.126.216.207.468.207.738,0,.963-.747,1.477-1.719,1.477-.135,0-.27-.009-.396-.027-.126.063-.279.189-.279.369,0,.171.117.288.396.288h.909c.927,0,1.467.378,1.467,1.161,0,.855-.801,1.62-2.359,1.62-1.08,0-1.656-.414-1.656-1.16,0-.622.468-.892.729-1.027v-.026c-.18-.145-.261-.352-.261-.604,0-.459.396-.711.522-.774v-.018c-.441-.225-.729-.648-.729-1.278,0-.999.756-1.477,1.692-1.477.234,0,.459.045.657.108h1.513l-.099.63ZM78.372,32.973c-.171.117-.351.315-.351.658,0,.459.315.656.918.656.964,0,1.414-.359,1.414-.783,0-.359-.198-.504-.667-.504h-.945c-.135,0-.261-.009-.369-.027ZM79.155,29.319c-.45,0-.855.225-.855.792s.405.783.837.783c.45,0,.847-.216.847-.783s-.396-.792-.829-.792Z"/>
    </g>
  </g>
</svg>