<?xml version="1.0" encoding="UTF-8"?>
<svg xmlns="http://www.w3.org/2000/svg" version="1.1" viewBox="0 0 90.709 90.709">
  <!-- Generator: Adobe Illustrator 29.1.0, SVG Export Plug-In . SVG Version: 2.1.0 Build 142)  -->
  <g id="Grundfläche">
    <rect x="0" width="90.709" height="90.709" fill="#fff"/>
  </g>
  <g id="Flächige_Fülung">
    <path d="M49.606,22.678c-15.307,0-28.063-2.582-38.268-6.378v57.402h76.536V16.3c-10.205,3.794-22.961,6.378-38.268,6.378Z" fill="#fff"/>
  </g>
  <g id="Takt_Zeichen__x28_umgewandelt_x29_">
    <path d="M31.89,39.728c0,10.901,6.789,17.674,17.716,17.674s17.716-6.772,17.716-17.674v-.709H31.89v.709ZM65.895,40.437c-.278,9.751-6.322,15.547-16.289,15.547s-16.011-5.796-16.289-15.547h32.578ZM88.583,74.41V15.28s-.956.355-.956.355c-11.304,4.202-24.096,6.333-38.021,6.333s-26.723-2.131-38.021-6.333l-.956-.355v25.113H2.126v4.253h8.504v29.764h77.953ZM12.047,17.313c11.22,4.03,23.85,6.073,37.559,6.073s26.334-2.043,37.559-6.073v55.679s-75.118,0-75.118,0V17.313ZM3.543,43.228v-1.417h7.087v1.417H3.543Z"/>
  </g>
</svg>