<?xml version="1.0" encoding="UTF-8"?>
<svg xmlns="http://www.w3.org/2000/svg" version="1.1" viewBox="0 0 90.709 90.709">
  <!-- Generator: Adobe Illustrator 29.1.0, SVG Export Plug-In . SVG Version: 2.1.0 Build 142)  -->
  <g id="Grundfläche">
    <rect x="0" width="90.709" height="90.709" fill="#fff"/>
  </g>
  <g id="Flächige_Fülung">
    <path d="M2.863,25.512h84.981c0,23.467-19.024,42.491-42.491,42.491S2.863,48.979,2.863,25.512Z" fill="#fff"/>
  </g>
  <g id="Takt_Zeichen__x28_umgewandelt_x29_">
    <path d="M45.354,68.711C21.534,68.711,2.155,49.332,2.155,25.512v-.709h86.399v.709c0,23.82-19.379,43.199-43.199,43.199ZM3.578,26.221c.379,22.713,18.974,41.072,41.776,41.072s41.397-18.359,41.776-41.072H3.578Z"/>
  </g>
  <g id="Takt._Zeichen__x28_Typo_x29_">
    <g>
      <path d="M36.836,45.354l-3.121-5.361c-.32.04-.64.04-.98.04h-.82v5.321h-2.16v-13.803h3.081c3.821,0,5.561,1.42,5.561,4.061,0,1.801-.84,3.181-2.561,3.9l3.601,5.842h-2.601ZM32.835,33.331h-.92v4.94h.82c2.301,0,3.361-.92,3.361-2.601,0-1.601-1.02-2.34-3.261-2.34Z"/>
      <path d="M45.095,39.872h.62v-.56c0-1.48-.62-2.121-1.801-2.121-1.16,0-1.96.58-2.34.9l-.68-1.381c.48-.42,1.54-1.26,3.421-1.26,2.2,0,3.381,1.24,3.381,3.9v3.721c0,.961.08,1.861.14,2.281h-1.9c-.02-.28-.06-.641-.06-1.061h-.04c-.34.561-1.06,1.301-2.521,1.301-1.58,0-2.66-1.141-2.66-2.821,0-2,1.94-2.9,4.441-2.9ZM45.716,43.153v-1.96l-.74.04c-1.58.08-2.361.46-2.361,1.381,0,.819.56,1.34,1.22,1.34,1.02,0,1.56-.44,1.88-.801Z"/>
      <path d="M55.176,37.352h-2.24v8.002h-2.021v-8.002h-1.32v-1.4l1.32-.24v-1.28c0-2.32,1.2-3.521,3.301-3.521.8,0,1.3.26,1.44.34l-.3,1.66c-.12-.06-.54-.239-1.02-.239-.94,0-1.4.46-1.4,1.74v1.28h2.46l-.22,1.66Z"/>
      <path d="M61.956,37.352h-2.361v4.501c0,1.46.38,1.98,1.36,1.98.5,0,.9-.16,1.08-.24l.18,1.561c-.18.1-.74.42-1.781.42-2.02,0-2.881-1.04-2.881-3.501v-4.721h-1.32v-1.4l1.32-.24.24-2.7h1.801v2.681h2.581l-.22,1.66Z"/>
    </g>
  </g>
</svg>