<?xml version="1.0" encoding="UTF-8"?>
<svg xmlns="http://www.w3.org/2000/svg" version="1.1" viewBox="0 0 90.709 90.709">
  <!-- Generator: Adobe Illustrator 29.1.0, SVG Export Plug-In . SVG Version: 2.1.0 Build 142)  -->
  <g id="Grundfläche">
    <rect x="0" width="90.709" height="90.709" fill="#fff"/>
  </g>
  <g id="Flächige_Fülung">
    <path d="M2.863,25.512h84.981c0,23.467-19.024,42.491-42.491,42.491S2.863,48.979,2.863,25.512Z" fill="#fff"/>
  </g>
  <g id="Takt_Zeichen__x28_umgewandelt_x29_">
    <path d="M88.554,25.512v-.709H2.155v.709c0,14.234,6.924,26.879,17.577,34.754-.198-.017-.396-.03-.598-.03-3.907,0-7.087,3.18-7.087,7.087s3.179,7.087,7.087,7.087,7.087-3.18,7.087-7.087c0-1.317-.368-2.547-.996-3.605,6.016,3.182,12.864,4.994,20.13,4.994s14.115-1.812,20.13-4.994c-.629,1.058-.996,2.288-.996,3.605,0,3.907,3.179,7.087,7.087,7.087s7.087-3.18,7.087-7.087-3.179-7.087-7.087-7.087c-.202,0-.4.014-.598.03,10.653-7.875,17.577-20.52,17.577-34.754ZM19.134,72.992c-3.126,0-5.669-2.543-5.669-5.669s2.543-5.669,5.669-5.669,5.669,2.543,5.669,5.669-2.543,5.669-5.669,5.669ZM77.244,67.323c0,3.126-2.543,5.669-5.669,5.669s-5.669-2.543-5.669-5.669,2.543-5.669,5.669-5.669,5.669,2.543,5.669,5.669ZM45.354,67.293C22.552,67.293,3.957,48.934,3.578,26.221h83.552c-.379,22.713-18.974,41.072-41.776,41.072Z"/>
  </g>
  <g id="Takt._Zeichen__x28_Typo_x29_">
    <g>
      <path d="M41.877,45.354h-2.161v-6.062h-6.261v6.062h-2.16v-13.803h2.16v5.941h6.261v-5.941h2.161v13.803Z"/>
      <path d="M57.497,45.354h-1.841l-3.021-10.282h-.04l-3.041,10.282h-1.82l-3.741-13.803h2.321l2.44,10.361h.04l2.921-10.361h2.04l2.821,10.361h.04l2.501-10.361h2.18l-3.801,13.803Z"/>
    </g>
  </g>
</svg>