<?xml version="1.0" encoding="UTF-8"?>
<svg xmlns="http://www.w3.org/2000/svg" version="1.1" viewBox="0 0 90.709 90.709">
  <!-- Generator: Adobe Illustrator 29.1.0, SVG Export Plug-In . SVG Version: 2.1.0 Build 142)  -->
  <g id="Grundfläche">
    <rect x="0" width="90.709" height="90.709" fill="#fff"/>
  </g>
  <g id="Flächige_Fülung">
    <path d="M2.863,25.512h84.981c0,23.467-19.024,42.491-42.491,42.491S2.863,48.979,2.863,25.512Z" fill="#fa1919"/>
  </g>
  <g id="Takt_Zeichen__x28_umgewandelt_x29_">
    <path d="M2.155,24.803v.709c0,23.82,19.379,43.199,43.199,43.199s43.199-19.379,43.199-43.199v-.709H2.155ZM74.824,26.221l-15.59,15.59H6.891c-2.045-4.807-3.221-10.068-3.313-15.59h71.247ZM7.53,43.229h51.705l13.665,13.665c-7.36,6.468-17,10.4-27.546,10.4-16.707,0-31.145-9.862-37.824-24.064ZM73.946,55.936l-12.708-12.708h21.94c-2.26,4.805-5.407,9.11-9.232,12.708ZM83.817,41.811h-22.579l15.59-15.59h10.302c-.092,5.522-1.269,10.783-3.313,15.59Z"/>
  </g>
</svg>