<?xml version="1.0" encoding="UTF-8"?>
<svg xmlns="http://www.w3.org/2000/svg" version="1.1" viewBox="0 0 90.709 90.709">
  <!-- Generator: Adobe Illustrator 29.1.0, SVG Export Plug-In . SVG Version: 2.1.0 Build 142)  -->
  <g id="Grundfläche">
    <rect x="0" width="90.709" height="90.709" fill="#fff"/>
    <rect x="0" width="90.709" height="90.709" fill="#fff"/>
  </g>
  <g id="Flächige_Fülung">
    <circle cx="45.356" cy="51.024" r="34.016" fill="#fff"/>
  </g>
  <g id="Takt_Zeichen__x28_umgewandelt_x29_">
    <path d="M81.773,31.742L45.354,3.73,8.936,31.742l-.864-1.123L45.354,1.941l37.283,28.679-.864,1.123ZM80.08,51.024c0-19.147-15.577-34.725-34.724-34.725S10.632,31.876,10.632,51.024s15.577,34.725,34.724,34.725,34.724-15.577,34.724-34.725ZM78.663,51.024c0,18.365-14.941,33.307-33.307,33.307S12.048,69.389,12.048,51.024,26.99,17.717,45.356,17.717s33.307,14.941,33.307,33.307ZM56.693,40.394c-1.122,0-1.655-.533-2.33-1.209-.724-.725-1.624-1.626-3.333-1.626s-2.611.901-3.335,1.625c-.676.677-1.21,1.21-2.333,1.21s-1.659-.534-2.335-1.21c-.724-.724-1.625-1.625-3.337-1.625s-2.613.901-3.337,1.625c-.676.677-1.21,1.21-2.335,1.21v1.418c1.711,0,2.613-.901,3.337-1.625.676-.676,1.21-1.21,2.335-1.21s1.659.533,2.335,1.21c.724.724,1.625,1.625,3.337,1.625s2.612-.901,3.335-1.626c.676-.676,1.209-1.209,2.333-1.209s1.656.533,2.331,1.209c.724.725,1.624,1.626,3.333,1.626v-1.418ZM56.693,34.724c-1.122,0-1.655-.533-2.33-1.209-.724-.724-1.624-1.625-3.333-1.625s-2.611.901-3.335,1.625c-.676.676-1.209,1.209-2.333,1.209s-1.659-.533-2.335-1.209c-.724-.724-1.625-1.625-3.337-1.625s-2.613.901-3.337,1.625c-.676.676-1.21,1.209-2.335,1.209v1.418c1.711,0,2.613-.901,3.337-1.625.676-.676,1.21-1.209,2.335-1.209s1.659.533,2.335,1.209c.724.724,1.626,1.625,3.337,1.625s2.612-.901,3.335-1.625c.676-.676,1.209-1.209,2.333-1.209s1.656.533,2.331,1.209c.724.724,1.624,1.625,3.333,1.625v-1.418ZM57.695,56.694l-12.341-12.341-12.341,12.341,12.341,12.34,12.341-12.34ZM45.355,46.357l10.336,10.337-10.336,10.336-10.336-10.336,10.336-10.337Z"/>
  </g>
</svg>