<?xml version="1.0" encoding="UTF-8"?>
<svg xmlns="http://www.w3.org/2000/svg" version="1.1" viewBox="0 0 90.709 90.709">
  <!-- Generator: Adobe Illustrator 29.1.0, SVG Export Plug-In . SVG Version: 2.1.0 Build 142)  -->
  <g id="Grundfläche">
    <rect x="0" width="90.709" height="90.709" fill="#fff"/>
  </g>
  <g id="Flächige_Fülung">
    <circle cx="45.355" cy="45.354" r="34.016" fill="#fff"/>
  </g>
  <g id="Takt_Zeichen__x28_umgewandelt_x29_">
    <path d="M50.315,62.849h1.417v8.727h-8.726v-1.418h6.307l-28.762-28.762v6.308h-1.417v-8.728h8.726v1.418h-6.307l28.762,28.762v-6.307ZM33.307,37.602h35.433v.709c0,10.901-6.789,17.674-17.716,17.674s-17.716-6.772-17.716-17.674v-.709ZM34.734,39.02c.278,9.751,6.322,15.547,16.289,15.547s16.011-5.796,16.289-15.547h-32.578ZM80.08,45.355c0,19.147-15.577,34.725-34.724,34.725S10.631,64.502,10.631,45.355,26.208,10.63,45.356,10.63s34.724,15.577,34.724,34.725ZM78.663,45.355c0-18.365-14.941-33.307-33.307-33.307S12.048,26.99,12.048,45.355s14.942,33.307,33.308,33.307,33.307-14.941,33.307-33.307Z"/>
  </g>
</svg>