<?xml version="1.0" encoding="UTF-8"?>
<svg xmlns="http://www.w3.org/2000/svg" version="1.1" viewBox="0 0 90.709 90.709">
  <!-- Generator: Adobe Illustrator 29.1.0, SVG Export Plug-In . SVG Version: 2.1.0 Build 142)  -->
  <g id="Grundfläche">
    <rect x="0" width="90.709" height="90.709" fill="#fff"/>
  </g>
  <g id="Flächige_Fülung">
    <rect x="19.297" y="24.966" width="52.114" height="52.114" transform="translate(49.363 -17.126) rotate(45)" fill="#fff"/>
  </g>
  <g id="Takt_Zeichen__x28_umgewandelt_x29_">
    <path d="M45.354,88.813L7.502,50.961,45.354,13.109l37.853,37.852-37.853,37.853ZM9.506,50.961l35.848,35.849,35.848-35.849L45.354,15.113,9.506,50.961ZM56.693,41.81c-1.122,0-1.656-.533-2.331-1.209-.723-.724-1.623-1.625-3.333-1.625s-2.611.901-3.335,1.625c-.676.676-1.21,1.209-2.333,1.209s-1.659-.533-2.335-1.209c-.724-.724-1.626-1.625-3.337-1.625s-2.613.901-3.337,1.625c-.676.676-1.21,1.209-2.335,1.209v1.418c1.711,0,2.613-.901,3.337-1.625.676-.676,1.21-1.209,2.335-1.209s1.659.533,2.335,1.209c.724.724,1.626,1.625,3.337,1.625s2.612-.901,3.335-1.625c.676-.676,1.21-1.209,2.333-1.209s1.656.533,2.331,1.209c.723.724,1.624,1.625,3.333,1.625v-1.418ZM56.693,36.142c-1.122,0-1.655-.533-2.33-1.209-.723-.725-1.624-1.626-3.333-1.626s-2.612.901-3.335,1.625c-.676.677-1.209,1.21-2.333,1.21s-1.659-.533-2.335-1.21c-.724-.724-1.626-1.625-3.337-1.625s-2.613.901-3.337,1.625c-.676.677-1.21,1.21-2.335,1.21v1.418c1.711,0,2.613-.901,3.337-1.625.676-.677,1.21-1.21,2.335-1.21s1.659.533,2.335,1.21c.724.724,1.626,1.625,3.337,1.625s2.612-.901,3.336-1.625c.676-.677,1.209-1.21,2.333-1.21s1.655.533,2.33,1.209c.723.725,1.624,1.626,3.333,1.626v-1.418ZM45.355,70.451l-12.341-12.341,12.341-12.341,12.341,12.341-12.341,12.341ZM35.018,58.11l10.336,10.337,10.336-10.337-10.336-10.337-10.336,10.337Z"/>
  </g>
  <g id="Takt._Zeichen__x28_Typo_x29_">
    <g>
      <path d="M6.792,4.314c-.18-.141-.6-.47-1.249-.47-.719,0-1.059.319-1.059.729,0,.489.22.75.929,1.189l.67.409c.869.54,1.359,1.1,1.359,1.989,0,1.01-.76,1.879-2.289,1.879-1.1,0-1.649-.449-1.879-.64l.37-.949c.22.22.75.64,1.489.64.829,0,1.209-.37,1.209-.79,0-.529-.26-.8-.909-1.229l-.68-.449c-.929-.619-1.349-1.09-1.349-2.029,0-.93.8-1.688,2.089-1.688.979,0,1.449.37,1.649.52l-.35.89Z"/>
      <path d="M10.893,5.924h-1.179v2.248c0,.729.19.99.68.99.25,0,.45-.08.54-.121l.09.78c-.09.05-.37.21-.89.21-1.009,0-1.439-.52-1.439-1.749v-2.358h-.66v-.7l.66-.12.12-1.349h.899v1.339h1.289l-.11.83Z"/>
      <path d="M14.473,5.963c-.05-.029-.18-.08-.41-.08-.6,0-.94.32-1.09.6v3.438h-1.019v-4.827h.939v.689h.02c.18-.39.51-.779,1.219-.779.2,0,.35.04.42.06l-.08.899Z"/>
      <path d="M17.233,10.041c-1.199,0-2.129-.8-2.129-2.539,0-1.729,1.06-2.528,2.229-2.528,1.199,0,2.119.78,2.119,2.528,0,1.72-1.059,2.539-2.219,2.539ZM16.403,4.284c-.32,0-.56-.229-.56-.569s.24-.58.56-.58.56.24.56.58-.24.569-.56.569ZM17.283,5.853c-.65,0-1.139.5-1.139,1.648,0,1.16.49,1.66,1.139,1.66.659,0,1.129-.51,1.129-1.66,0-1.159-.49-1.648-1.129-1.648ZM18.182,4.284c-.32,0-.57-.229-.57-.569s.25-.58.57-.58.56.24.56.58-.24.569-.56.569Z"/>
      <path d="M21.534,5.634h.02c.19-.23.63-.66,1.419-.66.57,0,.99.229,1.239.69.25-.28.729-.69,1.489-.69,1.079,0,1.629.649,1.629,1.929v3.019h-1.01v-2.858c0-.85-.3-1.209-.909-1.209-.48,0-.8.25-.99.43.03.189.05.399.05.619v3.019h-1.009v-2.858c0-.85-.24-1.209-.79-1.209-.54,0-.88.25-1.06.439v3.628h-1.019v-4.827h.939v.54Z"/>
      <path d="M32.592,9.921h-.929v-.54h-.02c-.17.2-.56.66-1.439.66-1.019,0-1.559-.64-1.559-1.929v-3.019h1.02v2.849c0,.859.25,1.22.849,1.22.55,0,.86-.24,1.06-.431v-3.638h1.019v4.827Z"/>
      <path d="M36.962,9.921v-2.858c0-.829-.26-1.209-.88-1.209-.53,0-.889.25-1.089.439v3.628h-1.019v-4.827h.939v.54h.02c.19-.23.64-.66,1.449-.66,1.029,0,1.589.66,1.589,1.929v3.019h-1.01Z"/>
      <path d="M43.312,5.793h-.66c.14.24.23.521.23.82,0,1.069-.829,1.639-1.909,1.639-.15,0-.3-.01-.44-.029-.14.069-.31.209-.31.409,0,.19.13.319.44.319h1.01c1.03,0,1.629.42,1.629,1.29,0,.949-.89,1.799-2.619,1.799-1.199,0-1.839-.46-1.839-1.289,0-.69.52-.989.81-1.14v-.03c-.2-.159-.29-.39-.29-.669,0-.51.44-.79.58-.859v-.021c-.49-.25-.81-.72-.81-1.419,0-1.109.84-1.64,1.879-1.64.26,0,.51.05.73.12h1.679l-.11.699ZM40.153,9.791c-.19.13-.39.35-.39.729,0,.51.35.729,1.02.729,1.069,0,1.569-.399,1.569-.869,0-.399-.22-.56-.74-.56h-1.049c-.15,0-.29-.01-.41-.03ZM41.023,5.733c-.5,0-.949.25-.949.88s.45.869.929.869c.5,0,.939-.24.939-.869s-.44-.88-.919-.88Z"/>
      <path d="M46.822,6.203c-.16-.12-.52-.399-1.039-.399-.47,0-.71.189-.71.43,0,.319.2.47.68.71l.33.159c.75.37,1.189.78,1.189,1.52,0,.81-.58,1.419-1.769,1.419-.829,0-1.269-.31-1.489-.51l.34-.85c.2.2.57.5,1.129.5.53,0,.829-.189.829-.46,0-.39-.26-.52-.78-.8l-.32-.17c-.689-.35-1.069-.76-1.069-1.469,0-.779.69-1.31,1.639-1.31.78,0,1.169.31,1.339.45l-.3.779Z"/>
      <path d="M50.872,5.963c-.05-.029-.18-.08-.41-.08-.6,0-.94.32-1.09.6v3.438h-1.019v-4.827h.939v.689h.02c.18-.39.51-.779,1.219-.779.2,0,.35.04.42.06l-.08.899Z"/>
      <path d="M55.212,7.752h-2.708c.06.99.56,1.42,1.399,1.42.7,0,1.089-.32,1.219-.43l.26.719c-.15.15-.57.58-1.649.58-1.349,0-2.219-.77-2.219-2.578,0-1.709,1-2.489,2.139-2.489,1.019,0,1.649.67,1.649,1.909,0,.37-.04.64-.09.869ZM52.493,7.033h1.869c.02-.11.02-.19.02-.28,0-.6-.31-.96-.82-.96-.59,0-1.019.43-1.069,1.24Z"/>
      <path d="M58.932,5.924h-1.179v2.248c0,.729.19.99.68.99.25,0,.45-.08.54-.121l.09.78c-.09.05-.37.21-.89.21-1.009,0-1.439-.52-1.439-1.749v-2.358h-.66v-.7l.66-.12.12-1.349h.9v1.339h1.289l-.11.83Z"/>
      <path d="M62.422,5.924h-1.179v2.248c0,.729.19.99.68.99.25,0,.45-.08.54-.121l.09.78c-.09.05-.37.21-.89.21-1.009,0-1.439-.52-1.439-1.749v-2.358h-.66v-.7l.66-.12.12-1.349h.899v1.339h1.289l-.11.83Z"/>
      <path d="M66.952,7.752h-2.708c.06.99.56,1.42,1.399,1.42.7,0,1.089-.32,1.219-.43l.26.719c-.15.15-.57.58-1.649.58-1.349,0-2.219-.77-2.219-2.578,0-1.709,1-2.489,2.139-2.489,1.019,0,1.649.67,1.649,1.909,0,.37-.04.64-.09.869ZM64.233,7.033h1.869c.02-.11.02-.19.02-.28,0-.6-.31-.96-.82-.96-.59,0-1.019.43-1.069,1.24Z"/>
      <path d="M70.762,5.963c-.05-.029-.18-.08-.41-.08-.6,0-.939.32-1.089.6v3.438h-1.019v-4.827h.939v.689h.02c.18-.39.51-.779,1.219-.779.2,0,.35.04.42.06l-.08.899Z"/>
    </g>
  </g>
</svg>