<?xml version="1.0" encoding="UTF-8"?>
<svg xmlns="http://www.w3.org/2000/svg" version="1.1" viewBox="0 0 90.709 90.709">
  <!-- Generator: Adobe Illustrator 29.1.0, SVG Export Plug-In . SVG Version: 2.1.0 Build 142)  -->
  <g id="Grundfläche">
    <rect x="0" width="90.709" height="90.709" fill="#fff"/>
  </g>
  <g id="Flächige_Fülung">
    <rect x="25.512" y="17.008" width="39.685" height="22.677" fill="#fff"/>
  </g>
  <g id="Takt_Zeichen__x28_umgewandelt_x29_">
    <path d="M65.905,40.456H24.804v-24.095h41.102v24.095ZM26.221,39.038h38.267v-21.259H26.221v21.259Z"/>
  </g>
  <g id="Takt._Zeichen__x28_Typo_x29_">
    <g>
      <path d="M14.439,68.031v-20.699h4.59c7.8,0,11.37,2.851,11.37,9.96,0,7.47-4.38,10.739-11.7,10.739h-4.26ZM17.679,50.063v15.239h1.02c5.37,0,8.28-2.25,8.28-8.01,0-5.37-2.76-7.229-7.95-7.229h-1.35Z"/>
      <path d="M54.609,68.031h-3.15v-13.709h-.06l-5.52,13.709h-2.49l-5.55-13.709h-.06v13.709h-3.12v-20.699h3.57l6.51,16.109h.06l6.54-16.109h3.27v20.699Z"/>
      <path d="M68.019,68.392c-5.43,0-9.21-3.689-9.21-10.71s3.9-10.709,9.33-10.709c5.4,0,9.149,3.689,9.149,10.709s-3.87,10.71-9.27,10.71ZM68.079,49.733c-3.63,0-5.82,2.67-5.82,7.949,0,5.19,2.19,7.95,5.82,7.95,3.57,0,5.79-2.76,5.79-7.95,0-5.279-2.22-7.949-5.79-7.949Z"/>
    </g>
    <g>
      <path d="M36.496,23.926c-.36-.28-1.2-.94-2.5-.94-1.44,0-2.12.641-2.12,1.461,0,.979.44,1.5,1.86,2.38l1.34.82c1.74,1.08,2.72,2.2,2.72,3.981,0,2.02-1.52,3.76-4.581,3.76-2.201,0-3.301-.899-3.761-1.279l.74-1.9c.44.439,1.5,1.279,2.981,1.279,1.66,0,2.42-.74,2.42-1.58,0-1.061-.52-1.6-1.82-2.46l-1.36-.9c-1.86-1.24-2.701-2.181-2.701-4.062,0-1.859,1.6-3.38,4.181-3.38,1.96,0,2.901.74,3.301,1.04l-.7,1.78Z"/>
      <path d="M40.375,35.149v-13.804h3.061c5.201,0,7.582,1.9,7.582,6.642,0,4.981-2.921,7.162-7.802,7.162h-2.841ZM42.535,23.165v10.163h.68c3.581,0,5.521-1.501,5.521-5.342,0-3.58-1.84-4.821-5.301-4.821h-.9Z"/>
      <path d="M59.996,23.926c-.36-.28-1.2-.94-2.5-.94-1.44,0-2.12.641-2.12,1.461,0,.979.44,1.5,1.86,2.38l1.34.82c1.74,1.08,2.72,2.2,2.72,3.981,0,2.02-1.52,3.76-4.581,3.76-2.2,0-3.301-.899-3.761-1.279l.74-1.9c.44.439,1.5,1.279,2.981,1.279,1.66,0,2.42-.74,2.42-1.58,0-1.061-.52-1.6-1.82-2.46l-1.36-.9c-1.86-1.24-2.701-2.181-2.701-4.062,0-1.859,1.6-3.38,4.181-3.38,1.96,0,2.901.74,3.301,1.04l-.7,1.78Z"/>
    </g>
  </g>
</svg>