<?xml version="1.0" encoding="UTF-8"?>
<svg xmlns="http://www.w3.org/2000/svg" version="1.1" viewBox="0 0 90.709 90.709">
  <!-- Generator: Adobe Illustrator 29.1.0, SVG Export Plug-In . SVG Version: 2.1.0 Build 142)  -->
  <g id="Grundfläche">
    <rect x="0" y="0" width="90.709" height="90.709" fill="#fff"/>
  </g>
  <g id="Takt_Zeichen__x28_umgewandelt_x29_">
    <path d="M78.869,70.365l1.002,1.002-11.845,11.84-11.344-11.339-11.336,11.339-11.34-11.339-11.335,11.339-11.834-11.84,1.002-1.002,10.832,10.838,11.335-11.339,11.34,11.339,11.336-11.339,11.344,11.339,10.843-10.838ZM27.638,13.465h58.11v46.772H27.638v-16.295L6.048,60.237h-1.088V13.465h1.088l21.59,16.294V13.465ZM27.638,42.166v-10.632L6.378,15.489v42.724l21.26-16.046ZM29.055,58.819h55.275V14.883H29.055v43.937Z"/>
  </g>
</svg>