<?xml version="1.0" encoding="UTF-8"?>
<svg xmlns="http://www.w3.org/2000/svg" version="1.1" viewBox="0 0 90.709 90.709">
  <!-- Generator: Adobe Illustrator 29.1.0, SVG Export Plug-In . SVG Version: 2.1.0 Build 142)  -->
  <g id="Grundfläche">
    <rect x="0" width="90.709" height="90.709" fill="#fff"/>
  </g>
  <g id="Takt_Zeichen__x28_umgewandelt_x29_">
    <rect x="22.677" y="36.142" width="45.354" height="1.418"/>
  </g>
  <g id="Takt._Zeichen__x28_Typo_x29_">
    <g>
      <path d="M35.534,44.671h-4.161v12.022h-2.16v-12.022h-4.181v-1.78h10.642l-.14,1.78Z"/>
      <path d="M51.055,56.694h-2.1v-9.142h-.04l-3.681,9.142h-1.66l-3.701-9.142h-.04v9.142h-2.08v-13.803h2.38l4.341,10.742h.04l4.361-10.742h2.18v13.803Z"/>
      <path d="M59.993,56.934c-3.621,0-6.141-2.46-6.141-7.142s2.601-7.142,6.221-7.142c3.601,0,6.101,2.461,6.101,7.142s-2.581,7.142-6.181,7.142ZM60.033,44.491c-2.42,0-3.881,1.78-3.881,5.301,0,3.461,1.46,5.301,3.881,5.301,2.381,0,3.861-1.84,3.861-5.301,0-3.521-1.48-5.301-3.861-5.301Z"/>
    </g>
  </g>
</svg>