<?xml version="1.0" encoding="UTF-8"?>
<svg xmlns="http://www.w3.org/2000/svg" version="1.1" viewBox="0 0 90.709 90.709">
  <!-- Generator: Adobe Illustrator 29.1.0, SVG Export Plug-In . SVG Version: 2.1.0 Build 142)  -->
  <g id="Grundfläche">
    <rect x="0" width="90.709" height="90.709" fill="#fff"/>
  </g>
  <g id="Takt._Zeichen__x28_Typo_x29_">
    <g>
      <path d="M27.576,56.694v-20.699h11.729l-.21,2.67h-8.28v6.84h7.65v2.67h-7.65v8.52h-3.24Z"/>
      <path d="M47.526,48.474h.93v-.84c0-2.22-.93-3.18-2.7-3.18-1.74,0-2.939.87-3.51,1.35l-1.02-2.069c.72-.63,2.31-1.89,5.129-1.89,3.3,0,5.07,1.859,5.07,5.85v5.579c0,1.44.12,2.79.21,3.42h-2.85c-.03-.42-.09-.96-.09-1.59h-.06c-.51.84-1.59,1.95-3.78,1.95-2.37,0-3.99-1.71-3.99-4.23,0-2.999,2.91-4.35,6.66-4.35ZM48.456,53.394v-2.939l-1.11.06c-2.37.12-3.54.69-3.54,2.07,0,1.229.84,2.01,1.83,2.01,1.53,0,2.34-.66,2.82-1.2Z"/>
      <path d="M61.716,49.164l4.65,7.529h-3.54l-2.76-5.01h-.06l-2.76,5.01h-3.3l4.649-7.319-4.379-7.17h3.45l2.52,4.68h.06l2.64-4.68h3.21l-4.38,6.96Z"/>
    </g>
  </g>
</svg>