<?xml version="1.0" encoding="UTF-8"?>
<svg xmlns="http://www.w3.org/2000/svg" version="1.1" viewBox="0 0 90.709 90.709">
  <!-- Generator: Adobe Illustrator 29.1.0, SVG Export Plug-In . SVG Version: 2.1.0 Build 142)  -->
  <g id="Grundfläche">
    <rect x="0" width="90.709" height="90.709" fill="#fff"/>
  </g>
  <g id="Takt_Zeichen__x28_umgewandelt_x29_">
    <rect x="8.504" y="33.307" width="73.701" height="1.418"/>
    <path d="M8.504,65.905v-1.418c5.861,0,10.63-4.768,10.63-10.629s-4.769-10.63-10.63-10.63v-1.418c6.643,0,12.047,5.405,12.047,12.048s-5.405,12.047-12.047,12.047Z"/>
    <path d="M82.205,65.905c-6.643,0-12.047-5.404-12.047-12.047s5.405-12.048,12.047-12.048v1.418c-5.861,0-10.63,4.769-10.63,10.63s4.769,10.629,10.63,10.629v1.418Z"/>
    <polygon points="27.397 60.669 17.212 47.797 18.323 46.918 27.397 58.386 36.371 47.047 45.348 58.386 54.322 47.047 63.303 58.386 72.25 47.09 73.361 47.971 63.303 60.669 54.323 49.33 45.348 60.669 36.371 49.33 27.397 60.669"/>
  </g>
</svg>