<?xml version="1.0" encoding="UTF-8"?>
<svg xmlns="http://www.w3.org/2000/svg" version="1.1" viewBox="0 0 90.709 90.709">
  <!-- Generator: Adobe Illustrator 29.1.0, SVG Export Plug-In . SVG Version: 2.1.0 Build 142)  -->
  <g id="Grundfläche">
    <rect x="0" y="0" width="90.709" height="90.709" fill="#fff"/>
  </g>
  <g id="Flächige_Fülung">
    <polygon points="89.291 45.354 70.866 76.535 19.843 76.535 1.417 45.354 19.843 14.173 70.866 14.173 89.291 45.354" fill="#fff"/>
  </g>
  <g id="Takt_Zeichen__x28_umgewandelt_x29_">
    <path d="M59.528,26.22h-28.346v-1.418h28.346v1.418ZM90.115,45.354l-18.844-31.89H19.439L.595,45.354l18.844,31.891h51.832l18.844-31.891ZM2.241,45.354L20.247,14.882h50.215l18.006,30.472-18.006,30.473H20.247L2.241,45.354Z"/>
  </g>
  <g id="Takt._Zeichen__x28_Typo_x29_">
    <path d="M55.09,59.528h-3.679l-6.039-20.557h-.08l-6.079,20.557h-3.639l-7.479-27.596h4.639l4.879,20.717h.08l5.839-20.717h4.079l5.639,20.717h.08l4.999-20.717h4.359l-7.599,27.596Z"/>
  </g>
</svg>