<?xml version="1.0" encoding="UTF-8"?>
<svg xmlns="http://www.w3.org/2000/svg" version="1.1" viewBox="0 0 90.709 90.709">
  <!-- Generator: Adobe Illustrator 29.1.0, SVG Export Plug-In . SVG Version: 2.1.0 Build 142)  -->
  <g id="Grundfläche">
    <rect x="0" width="90.709" height="90.709" fill="#fff"/>
  </g>
  <g id="Flächige_Fülung">
    <rect x="11.339" y="11.339" width="68.031" height="68.031" fill="#fff"/>
  </g>
  <g id="Takt_Zeichen__x28_umgewandelt_x29_">
    <path d="M59.528,26.221h-28.346v-1.418h28.346v1.418ZM80.079,10.63H10.63v69.449h69.449V10.63ZM12.048,12.048h66.614v66.613H12.048V12.048Z"/>
  </g>
  <g id="Takt._Zeichen__x28_Typo_x29_">
    <path d="M48.732,31.453c4.439,0,6.639,1.959,7.279,2.52l-1.56,3.319c-.72-.681-2.52-2.16-5.599-2.16-4.719,0-8.719,2.88-8.719,10.398,0,7.719,3.16,10.798,8.279,10.798,3.439,0,5.279-1.479,6.119-2.159l1.2,3.159c-.84.721-3.04,2.68-7.959,2.68-7.279,0-12.238-4.199-12.238-14.317s6.679-14.237,13.198-14.237Z"/>
  </g>
</svg>