<?xml version="1.0" encoding="UTF-8"?>
<svg xmlns="http://www.w3.org/2000/svg" version="1.1" viewBox="0 0 90.709 90.709">
  <!-- Generator: Adobe Illustrator 29.1.0, SVG Export Plug-In . SVG Version: 2.1.0 Build 142)  -->
  <g id="Grundfläche">
    <rect x="0" width="90.709" height="90.709" fill="#fff"/>
  </g>
  <g id="Flächige_Fülung">
    <rect x="11.339" y="11.339" width="68.031" height="68.031" fill="#fff"/>
  </g>
  <g id="Takt_Zeichen__x28_umgewandelt_x29_">
    <path d="M10.63,10.63v69.449h69.449V10.63H10.63ZM77.659,12.048L12.047,77.659V12.048h65.612ZM13.05,78.661L78.661,13.05v65.611H13.05Z"/>
  </g>
  <g id="Takt._Zeichen__x28_Typo_x29_">
    <g>
      <path d="M25.096,19.158h-4.161v12.022h-2.16v-12.022h-4.181v-1.78h10.642l-.14,1.78Z"/>
      <path d="M40.616,31.181h-2.1v-9.142h-.04l-3.681,9.142h-1.66l-3.701-9.142h-.04v9.142h-2.08v-13.803h2.38l4.341,10.742h.04l4.361-10.742h2.18v13.803Z"/>
      <path d="M49.555,31.421c-3.621,0-6.141-2.46-6.141-7.142s2.601-7.142,6.221-7.142c3.601,0,6.101,2.461,6.101,7.142s-2.581,7.142-6.181,7.142ZM49.595,18.979c-2.42,0-3.881,1.78-3.881,5.301,0,3.461,1.46,5.301,3.881,5.301,2.381,0,3.861-1.84,3.861-5.301,0-3.521-1.48-5.301-3.861-5.301Z"/>
    </g>
    <g>
      <path d="M33.576,73.701v-13.803h3.061c5.201,0,7.582,1.9,7.582,6.641,0,4.981-2.921,7.162-7.802,7.162h-2.841ZM35.737,61.719v10.162h.68c3.581,0,5.521-1.501,5.521-5.342,0-3.58-1.84-4.82-5.301-4.82h-.9Z"/>
      <path d="M60.359,73.701h-2.1v-9.143h-.04l-3.681,9.143h-1.66l-3.701-9.143h-.04v9.143h-2.08v-13.803h2.38l4.341,10.742h.04l4.361-10.742h2.18v13.803Z"/>
      <path d="M69.297,73.942c-3.621,0-6.141-2.461-6.141-7.142s2.601-7.142,6.221-7.142c3.601,0,6.101,2.46,6.101,7.142s-2.581,7.142-6.181,7.142ZM69.337,61.498c-2.42,0-3.881,1.781-3.881,5.302,0,3.46,1.46,5.301,3.881,5.301,2.381,0,3.861-1.841,3.861-5.301,0-3.521-1.48-5.302-3.861-5.302Z"/>
    </g>
  </g>
</svg>