<?xml version="1.0" encoding="UTF-8"?>
<svg xmlns="http://www.w3.org/2000/svg" version="1.1" viewBox="0 0 90.709 90.709">
  <!-- Generator: Adobe Illustrator 29.1.0, SVG Export Plug-In . SVG Version: 2.1.0 Build 142)  -->
  <g id="Grundfläche">
    <rect x="0" width="90.709" height="90.709" fill="#fff"/>
  </g>
  <g id="Flächige_Fülung">
    <circle cx="45.356" cy="45.354" r="34.016" fill="#fff"/>
  </g>
  <g id="Takt_Zeichen__x28_umgewandelt_x29_">
    <path d="M45.356,80.079c-19.147,0-34.724-15.577-34.724-34.725S26.209,10.63,45.356,10.63s34.725,15.577,34.725,34.725-15.577,34.725-34.725,34.725ZM45.356,12.048c-18.365,0-33.307,14.941-33.307,33.307s14.941,33.307,33.307,33.307,33.307-14.941,33.307-33.307S63.721,12.048,45.356,12.048Z"/>
  </g>
  <g id="Takt._Zeichen__x28_Typo_x29_">
    <g>
      <path d="M21.954,40.989h.06c.57-.69,1.89-1.979,4.26-1.979,1.71,0,2.97.689,3.72,2.069.75-.84,2.19-2.069,4.47-2.069,3.24,0,4.89,1.949,4.89,5.789v9.06h-3.03v-8.579c0-2.551-.9-3.63-2.73-3.63-1.44,0-2.4.75-2.97,1.29.09.569.15,1.199.15,1.859v9.06h-3.03v-8.579c0-2.551-.72-3.63-2.37-3.63-1.62,0-2.64.75-3.18,1.319v10.89h-3.06v-14.489h2.82v1.62Z"/>
      <path d="M52.644,43.209v.061c2.22.42,4.32,2.039,4.32,4.89,0,3.329-2.46,5.699-8.28,5.699h-4.89v-20.699h4.62c5.85,0,7.98,2.07,7.98,5.37,0,2.939-1.83,4.08-3.75,4.68ZM48.414,35.77h-1.38v6.359h1.35c3.18,0,4.68-1.26,4.68-3.42,0-1.77-1.32-2.939-4.65-2.939ZM48.864,44.739h-1.83v6.479h1.65c3.48,0,4.89-1.14,4.89-3.3,0-2.04-1.71-3.18-4.71-3.18Z"/>
      <path d="M70.434,37.029c-.54-.42-1.8-1.41-3.75-1.41-2.16,0-3.18.96-3.18,2.19,0,1.47.66,2.249,2.79,3.569l2.01,1.23c2.61,1.619,4.08,3.3,4.08,5.97,0,3.029-2.28,5.64-6.87,5.64-3.3,0-4.95-1.35-5.64-1.92l1.11-2.85c.66.66,2.25,1.92,4.47,1.92,2.49,0,3.63-1.11,3.63-2.37,0-1.59-.78-2.4-2.73-3.69l-2.04-1.35c-2.79-1.859-4.05-3.27-4.05-6.09,0-2.79,2.4-5.069,6.27-5.069,2.94,0,4.35,1.109,4.95,1.56l-1.05,2.67Z"/>
    </g>
  </g>
</svg>