<?xml version="1.0" encoding="UTF-8"?>
<svg xmlns="http://www.w3.org/2000/svg" version="1.1" viewBox="0 0 90.709 90.709">
  <!-- Generator: Adobe Illustrator 29.1.0, SVG Export Plug-In . SVG Version: 2.1.0 Build 142)  -->
  <g id="Grundfläche">
    <rect x="0" width="90.709" height="90.709" fill="#fff"/>
  </g>
  <g id="Takt_Zeichen__x28_umgewandelt_x29_">
    <path d="M47.066,44.645h40.808v1.418h-40.809l4.803,4.804-1.002,1.002-5.512-5.512-5.512,5.512-1.002-1.002,4.804-4.804H2.835v-1.418h40.808l-4.803-4.803,1.002-1.002,5.512,5.512,5.512-5.512,1.002,1.002-4.802,4.803ZM51.525,61.861l-6.171-6.17-6.17,6.17,1.002,1.002,4.459-4.459v9.628h1.417v-9.628l4.46,4.459,1.002-1.002ZM56.551,56.693l-5.528,11.339h11.339l-5.528-11.339h-.283Z"/>
  </g>
</svg>