<?xml version="1.0" encoding="UTF-8"?>
<svg xmlns="http://www.w3.org/2000/svg" version="1.1" viewBox="0 0 90.709 90.709">
  <!-- Generator: Adobe Illustrator 29.1.0, SVG Export Plug-In . SVG Version: 2.1.0 Build 142)  -->
  <g id="Grundfläche">
    <rect x="0" width="90.709" height="90.709" fill="#fff"/>
  </g>
  <g id="Flächige_Fülung">
    <rect x="11.339" y="11.339" width="68.031" height="68.031" fill="#fff"/>
  </g>
  <g id="Takt_Zeichen__x28_umgewandelt_x29_">
    <path d="M10.63,80.079h69.449V10.63H10.63v69.449ZM12.047,63.071h21.26v15.59H12.047v-15.59ZM44.645,46.063v15.59h-21.26v-15.59h21.26ZM55.984,29.055v15.59h-21.26v-15.59h21.26ZM55.984,63.071v15.59h-21.26v-15.59h21.26ZM46.063,61.653v-15.59h21.26v15.59h-21.26ZM68.74,46.063h9.921v15.59h-9.921v-15.59ZM57.401,44.645v-15.59h21.26v15.59h-21.26ZM46.063,27.638v-15.59h21.26v15.59h-21.26ZM44.645,27.638h-21.26v-15.59h21.26v15.59ZM33.307,29.055v15.59H12.047v-15.59h21.26ZM21.968,46.063v15.59h-9.921v-15.59h9.921ZM57.401,78.661v-15.59h21.26v15.59h-21.26ZM78.661,27.638h-9.921v-15.59h9.921v15.59ZM21.968,12.048v15.59h-9.921v-15.59h9.921Z"/>
  </g>
</svg>