<?xml version="1.0" encoding="UTF-8"?>
<svg xmlns="http://www.w3.org/2000/svg" version="1.1" viewBox="0 0 90.709 90.709">
  <!-- Generator: Adobe Illustrator 29.1.0, SVG Export Plug-In . SVG Version: 2.1.0 Build 142)  -->
  <g id="Grundfläche">
    <rect x="0" y="0" width="90.709" height="90.709" fill="#fff"/>
  </g>
  <g id="Takt_Zeichen__x28_umgewandelt_x29_">
    <path d="M80.464,69.43c-1.166-.272-2.268-.529-3.134-1.286-1.128-.984-1.396-1.977-1.679-3.026-.331-1.227-.706-2.616-2.478-3.798-1.221-.814-1.37-1.909-1.541-3.178-.19-1.404-.406-2.997-2.16-4.166-1.791-1.193-3.503-.543-5.013.031-1.362.519-2.538.967-3.723.176-1.201-.8-1.294-1.975-1.402-3.335-.12-1.51-.256-3.221-2.029-4.402-1.85-1.234-3.891-.074-5.691.95-1.861,1.058-3.158,1.7-4.204,1.002-1.265-.843-1.516-1.793-1.806-2.892-.318-1.204-.679-2.568-2.39-3.71-1.729-1.153-3.192-.873-4.483-.621-1.171.225-2.182.421-3.428-.41-1.185-.79-1.228-2.042-1.278-3.492-.055-1.608-.117-3.431-1.908-4.625-1.413-.942-1.982-1.579-2.584-2.254-.635-.711-1.291-1.446-2.854-2.489-1.753-1.169-3.303-.758-4.671-.397-1.235.327-2.3.61-3.522-.206-1.317-.878-1.676-1.689-2.091-2.63-.441-.998-.94-2.129-2.601-3.236-1.143-.762-2.622-1.263-4.188-1.792-2.662-.901-5.679-1.923-7.623-4.481l-1.128.857c1.155,1.52,2.591,2.545,4.107,3.314v55.076h80.788v-1.141l-.059-.136c-1.208-2.764-3.342-3.263-5.225-3.703ZM6.378,72.992V19.979c.932.384,1.871.701,2.772,1.006,1.475.5,2.869.972,3.857,1.63,1.317.878,1.676,1.689,2.091,2.63.441.998.94,2.129,2.601,3.236,1.753,1.169,3.303.758,4.671.397,1.235-.327,2.3-.609,3.522.206,1.413.942,1.981,1.579,2.583,2.254.635.711,1.291,1.446,2.855,2.489,1.185.79,1.228,2.043,1.278,3.493.055,1.608.117,3.431,1.908,4.624,1.729,1.152,3.192.871,4.483.622,1.17-.228,2.181-.423,3.428.409,1.265.843,1.516,1.793,1.806,2.892.318,1.204.679,2.568,2.39,3.71,1.851,1.233,3.891.074,5.691-.95,1.861-1.059,3.159-1.701,4.204-1.002,1.201.8,1.294,1.975,1.402,3.335.12,1.509.256,3.22,2.029,4.402,1.792,1.194,3.504.544,5.013-.031,1.362-.518,2.539-.967,3.723-.176,1.221.814,1.37,1.909,1.541,3.177.19,1.404.405,2.997,2.159,4.167,1.329.886,1.579,1.813,1.896,2.987.311,1.152.663,2.458,2.115,3.726,1.133.988,2.46,1.298,3.744,1.599,1.563.365,2.939.687,3.877,2.181H6.378Z"/>
  </g>
</svg>