<?xml version="1.0" encoding="UTF-8"?>
<svg xmlns="http://www.w3.org/2000/svg" version="1.1" viewBox="0 0 90.709 90.709">
  <!-- Generator: Adobe Illustrator 29.1.0, SVG Export Plug-In . SVG Version: 2.1.0 Build 142)  -->
  <g id="Grundfläche">
    <rect x="0" y="0" width="90.709" height="90.709" fill="#fff"/>
  </g>
  <g id="Takt_Zeichen__x28_umgewandelt_x29_">
    <path d="M81.647,16.299c-2.569,0-3.894,1.23-5.063,2.315-1.119,1.039-2.086,1.937-4.098,1.937s-2.978-.897-4.097-1.937c-1.169-1.085-2.493-2.315-5.061-2.315s-3.891,1.23-5.06,2.315c-1.119,1.039-2.085,1.937-4.096,1.937s-2.977-.897-4.095-1.937c-1.168-1.085-2.493-2.315-5.06-2.315s-3.892,1.23-5.06,2.315c-1.119,1.039-2.085,1.937-4.095,1.937s-2.977-.897-4.096-1.937c-1.168-1.085-2.493-2.315-5.06-2.315s-3.893,1.23-5.061,2.315c-1.119,1.039-2.086,1.937-4.097,1.937s-2.977-.897-4.096-1.937c-1.168-1.085-2.493-2.315-5.061-2.315-1.187,0-2.215.336-3.144,1.027l-.286.212v56.872s80.787,0,80.787,0l.005-56.222-.209-.208c-.727-.722-1.922-1.682-3.896-1.682ZM8.39,17.717c2.011,0,2.977.897,4.096,1.937,1.168,1.085,2.493,2.315,5.061,2.315s3.893-1.23,5.061-2.315c1.119-1.039,2.086-1.937,4.097-1.937s2.977.897,4.096,1.937c1.168,1.085,2.493,2.315,5.061,2.315s3.891-1.23,5.06-2.315c1.119-1.039,2.085-1.937,4.096-1.937s2.977.897,4.095,1.937c1.168,1.085,2.493,2.315,5.06,2.315s3.892-1.23,5.06-2.315c1.119-1.039,2.085-1.937,4.095-1.937s2.978.897,4.097,1.937c1.169,1.085,2.493,2.315,5.061,2.315s3.894-1.23,5.063-2.315c1.119-1.039,2.086-1.937,4.098-1.937,1.046,0,1.865.322,2.688,1.07v14.521H6.378v-15.04c.603-.375,1.25-.551,2.012-.551ZM6.378,72.992v-38.267h77.956l-.003,38.267H6.378Z"/>
  </g>
</svg>