<?xml version="1.0" encoding="UTF-8"?>
<svg xmlns="http://www.w3.org/2000/svg" version="1.1" viewBox="0 0 90.709 90.709">
  <!-- Generator: Adobe Illustrator 29.1.0, SVG Export Plug-In . SVG Version: 2.1.0 Build 142)  -->
  <g id="Grundfläche">
    <rect x="0" width="90.709" height="90.709" fill="#fff"/>
  </g>
  <g id="Flächige_Fülung">
    <circle cx="45.355" cy="45.354" r="34.016" fill="#fff"/>
  </g>
  <g id="Takt_Zeichen__x28_umgewandelt_x29_">
    <path d="M45.355,10.63c-19.147,0-34.724,15.577-34.724,34.725s15.577,34.725,34.724,34.725,34.725-15.577,34.725-34.725S64.503,10.63,45.355,10.63ZM45.355,78.661c-18.365,0-33.307-14.941-33.307-33.307S26.99,12.048,45.355,12.048s33.307,14.941,33.307,33.307-14.941,33.307-33.307,33.307ZM64.695,48.69l4.46,4.46H28.984c-.348-2.398-2.396-4.252-4.889-4.252-2.735,0-4.961,2.226-4.961,4.961s2.225,4.961,4.961,4.961c2.493,0,4.542-1.854,4.889-4.252h40.172l-4.46,4.459,1.002,1.002,6.171-6.17-6.171-6.171-1.002,1.002ZM24.094,57.402c-1.954,0-3.543-1.589-3.543-3.543s1.589-3.543,3.543-3.543,3.543,1.589,3.543,3.543-1.589,3.543-3.543,3.543ZM70.866,40.394v1.418c-3.543,0-5.35-2.41-6.944-4.536-1.531-2.04-2.976-3.968-5.811-3.968s-4.278,1.928-5.808,3.968c-1.594,2.126-3.4,4.536-6.942,4.536s-5.352-2.41-6.947-4.536c-1.531-2.04-2.977-3.968-5.813-3.968s-4.282,1.928-5.813,3.968c-1.595,2.126-3.402,4.536-6.947,4.536v-1.418c2.835,0,4.282-1.928,5.813-3.968,1.595-2.126,3.402-4.536,6.947-4.536s5.352,2.41,6.947,4.536c1.531,2.04,2.977,3.968,5.813,3.968s4.278-1.928,5.808-3.968c1.594-2.126,3.4-4.536,6.942-4.536s5.35,2.41,6.944,4.536c1.531,2.04,2.976,3.968,5.81,3.968Z"/>
  </g>
</svg>