<?xml version="1.0" encoding="UTF-8"?>
<svg xmlns="http://www.w3.org/2000/svg" version="1.1" viewBox="0 0 90.709 90.709">
  <!-- Generator: Adobe Illustrator 29.1.0, SVG Export Plug-In . SVG Version: 2.1.0 Build 142)  -->
  <g id="Grundfläche">
    <rect x="0" width="90.709" height="90.709" fill="#fff"/>
  </g>
  <g id="Flächige_Fülung">
    <polygon points="87.873 11.339 45.354 82.205 2.834 11.339 87.873 11.339" fill="#fff"/>
  </g>
  <g id="Takt_Zeichen__x28_umgewandelt_x29_">
    <path d="M59.026,28.848l4.46,4.459h-28.833c-.348-2.398-2.396-4.252-4.889-4.252-2.735,0-4.96,2.226-4.96,4.961s2.225,4.961,4.96,4.961c2.493,0,4.541-1.854,4.889-4.252h28.833l-4.46,4.459,1.002,1.002,6.171-6.17-6.171-6.17-1.002,1.002ZM29.764,37.559c-1.954,0-3.543-1.589-3.543-3.543s1.59-3.543,3.543-3.543,3.543,1.589,3.543,3.543-1.59,3.543-3.543,3.543ZM19.842,23.386v-1.418c2.92,0,4.372-1.29,5.909-2.655,1.589-1.412,3.391-3.014,6.85-3.014s5.261,1.602,6.851,3.014c1.537,1.366,2.988,2.655,5.909,2.655s4.369-1.289,5.905-2.655c1.588-1.412,3.389-3.014,6.846-3.014s5.259,1.602,6.848,3.014c1.536,1.366,2.987,2.655,5.906,2.655v1.418c-3.458,0-5.259-1.602-6.848-3.014-1.536-1.365-2.987-2.655-5.907-2.655s-4.369,1.289-5.904,2.655c-1.588,1.412-3.389,3.014-6.846,3.014s-5.261-1.602-6.85-3.014c-1.537-1.365-2.989-2.655-5.909-2.655s-4.372,1.289-5.909,2.655c-1.589,1.412-3.391,3.014-6.851,3.014ZM56.381,41.832c-3.747.926-7.457,1.396-11.027,1.396s-7.279-.47-11.027-1.396l-1.02-.021v15.591h24.094v-15.591h-.708l-.312.021ZM55.984,55.984h-21.26v-12.6c3.608.837,7.181,1.262,10.63,1.262s7.022-.425,10.63-1.262v12.6ZM87.873,10.63H2.834l-.608,1.073,43.127,71.879L88.481,11.703l-.608-1.073ZM45.354,80.828L4.086,12.048h82.536l-41.268,68.78Z" fill="#3264fa"/>
  </g>
</svg>