<?xml version="1.0" encoding="UTF-8"?>
<svg xmlns="http://www.w3.org/2000/svg" version="1.1" viewBox="0 0 90.709 90.709">
  <!-- Generator: Adobe Illustrator 29.1.0, SVG Export Plug-In . SVG Version: 2.1.0 Build 142)  -->
  <g id="Grundfläche">
    <rect x="0" width="90.709" height="90.709" fill="#fff"/>
  </g>
  <g id="Flächige_Fülung">
    <circle cx="45.355" cy="45.354" r="34.016" fill="#fff"/>
  </g>
  <g id="Takt_Zeichen__x28_umgewandelt_x29_">
    <path d="M45.355,10.63c-19.147,0-34.724,15.577-34.724,34.725s15.577,34.725,34.724,34.725,34.725-15.577,34.725-34.725S64.503,10.63,45.355,10.63ZM45.355,78.661c-18.365,0-33.307-14.941-33.307-33.307S26.99,12.048,45.355,12.048s33.307,14.941,33.307,33.307-14.941,33.307-33.307,33.307ZM27.638,27.746v28.747c0,2.138,1.062,4.121,2.84,5.308l14.876,9.917,14.876-9.917c1.779-1.186,2.84-3.17,2.84-5.308v-28.747l-17.717-2.953-17.717,2.953ZM61.653,56.493c0,1.662-.826,3.206-2.209,4.128l-14.09,9.394-14.09-9.394c-1.383-.922-2.209-2.466-2.209-4.128v-27.546l16.299-2.717,16.299,2.717v27.546Z" fill="#14a01e"/>
  </g>
</svg>