<?xml version="1.0" encoding="UTF-8"?>
<svg xmlns="http://www.w3.org/2000/svg" version="1.1" viewBox="0 0 90.709 90.709">
  <!-- Generator: Adobe Illustrator 29.1.0, SVG Export Plug-In . SVG Version: 2.1.0 Build 142)  -->
  <g id="Grundfläche">
    <rect x="0" width="90.709" height="90.709" fill="#fff"/>
  </g>
  <g id="Flächige_Fülung">
    <path d="M45.354,66.771c-17.008,0-31.181,2.518-42.52,6.221V17.008h85.04v55.984c-11.339-3.7-25.512-6.22-42.52-6.22Z" fill="#b4783c"/>
  </g>
  <g id="Takt_Zeichen__x28_umgewandelt_x29_">
    <path d="M58.819,41.811H17.008v-1.418h41.811v-13.464h1.417v24.931l13.603,2.721-.278,1.391-14.743-2.949v-11.211ZM85.748,80.093c0,3.9-3.168,7.073-7.061,7.073H12.022c-3.894,0-7.061-3.173-7.061-7.073s3.168-7.101,7.061-7.101h66.665c3.894,0,7.061,3.186,7.061,7.101ZM84.331,80.093c0-3.134-2.532-5.683-5.644-5.683H12.022c-3.112,0-5.644,2.549-5.644,5.683s2.532,5.655,5.644,5.655h66.665c3.112,0,5.644-2.537,5.644-5.655ZM88.583,16.299v57.67s-.929-.303-.929-.303c-12.578-4.104-26.809-6.186-42.3-6.186s-29.729,2.081-42.3,6.186l-.929.303V16.299h86.457ZM87.166,17.717H3.543v54.303c12.483-3.953,26.544-5.957,41.811-5.957s29.321,2.004,41.811,5.958V17.717Z"/>
  </g>
</svg>