<?xml version="1.0" encoding="UTF-8"?>
<svg xmlns="http://www.w3.org/2000/svg" version="1.1" viewBox="0 0 90.709 90.709">
  <!-- Generator: Adobe Illustrator 29.1.0, SVG Export Plug-In . SVG Version: 2.1.0 Build 142)  -->
  <g id="Grundfläche">
    <rect x="0" width="90.709" height="90.709" fill="#fff"/>
  </g>
  <g id="Flächige_Fülung">
    <path d="M87.845,59.499H2.863c0-23.467,19.024-42.491,42.491-42.491s42.491,19.024,42.491,42.491Z" fill="#fa8c00"/>
  </g>
  <g id="Takt_Zeichen__x28_umgewandelt_x29_">
    <path d="M58.404,41.811h12.462v1.418h-12.462l10.129,10.128-1.002,1.002-11.131-11.13H19.844v-1.418h36.556l11.131-11.131,1.002,1.002-10.129,10.129ZM88.554,59.499v.709H2.155v-.709c0-23.82,19.379-43.2,43.199-43.2s43.199,19.38,43.199,43.2ZM87.13,58.79c-.379-22.714-18.974-41.073-41.776-41.073S3.957,36.076,3.578,58.79h83.552ZM68.631,65.795c-2.073-2.073-5.2-2.676-7.896-1.521l-15.381,6.591,15.381,6.592c2.695,1.155,5.822.553,7.896-1.521h0c2.801-2.8,2.801-7.341,0-10.142h0ZM22.077,65.795c-2.801,2.801-2.801,7.341,0,10.142,2.073,2.074,5.2,2.676,7.896,1.521l15.381-6.592-15.381-6.591c-2.695-1.155-5.822-.553-7.896,1.521Z"/>
  </g>
  <g id="Takt._Zeichen__x28_Typo_x29_">
    <g>
      <path d="M24.796,30.122h-2.543l-.156,1.859c2.171.191,3.046,1.115,3.046,2.591,0,1.463-.971,2.423-2.662,2.423-1.283,0-1.859-.648-2.111-.888l.492-1.008c.24.276.792.84,1.583.84.936,0,1.439-.468,1.439-1.212,0-1.211-.875-1.738-2.998-1.774l.324-3.897h3.586v1.066Z"/>
      <path d="M27.186,36.995c-.456,0-.78-.301-.78-.792,0-.479.324-.792.78-.792s.792.312.792.792c0,.491-.336.792-.792.792Z"/>
      <path d="M31.493,36.995c-1.499,0-2.471-1.224-2.471-4.042,0-2.843,1.079-4.042,2.567-4.042,1.499,0,2.47,1.224,2.47,4.042,0,2.843-1.079,4.042-2.566,4.042ZM31.541,29.966c-.756,0-1.271.792-1.271,2.986,0,2.23.516,2.986,1.271,2.986s1.271-.756,1.271-2.986c0-2.194-.516-2.986-1.271-2.986Z"/>
      <path d="M37.493,36.995c-1.499,0-2.471-1.224-2.471-4.042,0-2.843,1.079-4.042,2.567-4.042,1.499,0,2.47,1.224,2.47,4.042,0,2.843-1.079,4.042-2.566,4.042ZM37.541,29.966c-.756,0-1.271.792-1.271,2.986,0,2.23.516,2.986,1.271,2.986s1.271-.756,1.271-2.986c0-2.194-.516-2.986-1.271-2.986Z"/>
      <path d="M43.493,36.995c-1.499,0-2.471-1.224-2.471-4.042,0-2.843,1.079-4.042,2.567-4.042,1.499,0,2.47,1.224,2.47,4.042,0,2.843-1.079,4.042-2.566,4.042ZM43.541,29.966c-.756,0-1.271.792-1.271,2.986,0,2.23.516,2.986,1.271,2.986s1.271-.756,1.271-2.986c0-2.194-.516-2.986-1.271-2.986Z"/>
    </g>
  </g>
</svg>