<?xml version="1.0" encoding="UTF-8"?>
<svg xmlns="http://www.w3.org/2000/svg" version="1.1" viewBox="0 0 90.709 90.709">
  <!-- Generator: Adobe Illustrator 29.1.0, SVG Export Plug-In . SVG Version: 2.1.0 Build 142)  -->
  <g id="Grundfläche">
    <rect x="0" width="90.709" height="90.709" fill="#fff"/>
  </g>
  <g id="Flächige_Fülung">
    <path d="M87.845,59.499H2.863c0-23.467,19.024-42.491,42.491-42.491s42.491,19.024,42.491,42.491Z" fill="#b4783c"/>
  </g>
  <g id="Takt_Zeichen__x28_umgewandelt_x29_">
    <path d="M45.354,16.299C21.534,16.299,2.155,35.679,2.155,59.499v.709h86.399v-.709c0-23.82-19.379-43.2-43.199-43.2ZM81.735,38.976h-15.829v-11.754l4.459,4.46,1.002-1.002-6.171-6.171-6.171,6.171,1.002,1.002,4.459-4.46v11.754h-18.425v-21.242c15.287.256,28.6,8.754,35.672,21.242ZM44.645,17.734v21.242H8.974c7.072-12.488,20.385-20.986,35.672-21.242ZM8.212,40.394h36.433v18.396H3.578c.11-6.619,1.777-12.863,4.634-18.396ZM46.063,58.79v-18.396h18.425v1.417h-7.086v15.591h15.591v-15.591h-7.087v-1.417h16.591c2.857,5.533,4.524,11.776,4.634,18.396h-41.067ZM71.575,43.229v12.755h-12.756v-12.755h12.756ZM45.354,70.866l19.844-5.669v11.338l-19.844-5.669ZM25.51,65.197l19.844,5.669-19.844,5.669v-11.338Z"/>
  </g>
  <g id="Takt._Zeichen__x28_Typo_x29_">
    <g>
      <path d="M7.44,5.755c1.331,0,1.991.588,2.183.756l-.468.995c-.216-.204-.756-.647-1.679-.647-1.415,0-2.615.863-2.615,3.118,0,2.314.948,3.238,2.483,3.238,1.031,0,1.583-.444,1.835-.647l.36.947c-.252.216-.912.803-2.387.803-2.183,0-3.67-1.259-3.67-4.293s2.003-4.27,3.958-4.27Z"/>
      <path d="M17.41,14.173h-1.295v-3.634h-3.754v3.634h-1.295V5.898h1.295v3.562h3.754v-3.562h1.295v8.275Z"/>
      <path d="M22.488,10.996h-3.286v-.983h3.286v.983Z"/>
      <path d="M28.187,7.446h-2.543l-.156,1.858c2.171.192,3.046,1.115,3.046,2.591,0,1.463-.971,2.422-2.662,2.422-1.283,0-1.859-.646-2.111-.887l.492-1.008c.24.276.792.84,1.583.84.936,0,1.439-.468,1.439-1.211,0-1.212-.875-1.739-2.998-1.775l.324-3.898h3.586v1.068Z"/>
      <path d="M32.832,10.192v.023c.851.229,1.559.744,1.559,1.932,0,1.295-.924,2.17-2.483,2.17-1.163,0-1.847-.623-2.075-.898l.504-.948c.216.252.671.792,1.523.792.84,0,1.295-.384,1.295-1.08,0-.923-.684-1.402-1.883-1.402h-.36l-.072-.96h.384c1.259,0,1.799-.624,1.799-1.476,0-.6-.372-1.066-1.08-1.066-.719,0-1.223.383-1.451.623l-.444-.815c.288-.3.996-.852,2.123-.852,1.223,0,2.039.72,2.039,1.991,0,1.079-.6,1.654-1.379,1.967Z"/>
    </g>
    <g>
      <path d="M75.055,77.947v.024c.887.168,1.727.814,1.727,1.954,0,1.331-.983,2.279-3.31,2.279h-1.955v-8.275h1.847c2.339,0,3.19.827,3.19,2.146,0,1.175-.731,1.631-1.499,1.871ZM73.364,74.972h-.552v2.543h.54c1.271,0,1.871-.504,1.871-1.367,0-.708-.528-1.176-1.859-1.176ZM73.544,78.558h-.732v2.591h.66c1.391,0,1.955-.456,1.955-1.319,0-.815-.684-1.271-1.883-1.271Z"/>
      <path d="M85.673,82.205h-1.104l-1.811-6.165h-.024l-1.823,6.165h-1.091l-2.243-8.275h1.391l1.463,6.212h.024l1.751-6.212h1.223l1.691,6.212h.024l1.499-6.212h1.307l-2.279,8.275Z"/>
    </g>
    <path d="M67.702,46.879l-3.106,6.98h-1.343l3.118-6.717v-.023h-3.514v-1.056h4.749l.096.815Z"/>
  </g>
</svg>