<?xml version="1.0" encoding="UTF-8"?>
<svg xmlns="http://www.w3.org/2000/svg" version="1.1" viewBox="0 0 90.709 90.709">
  <!-- Generator: Adobe Illustrator 29.1.0, SVG Export Plug-In . SVG Version: 2.1.0 Build 142)  -->
  <g id="Grundfläche">
    <rect x="0" width="90.709" height="90.709" fill="#fff"/>
  </g>
  <g id="Flächige_Fülung">
    <path d="M45.355,22.678c-17.008,0-31.181-2.582-42.52-6.378v57.402h85.04V16.3c-11.339,3.794-25.512,6.378-42.52,6.378Z" fill="#64dc32"/>
  </g>
  <g id="Takt_Zeichen__x28_umgewandelt_x29_">
    <path d="M84.314,74.411h4.269V15.316s-.934.312-.934.312c-12.579,4.208-26.809,6.341-42.295,6.341S15.629,19.837,3.06,15.629l-.934-.312v59.095h4.268c-1.727,1.293-2.851,3.35-2.851,5.668,0,3.907,3.179,7.087,7.087,7.087s7.087-3.18,7.087-7.087c0-2.318-1.124-4.375-2.851-5.668h60.977c-1.727,1.293-2.851,3.35-2.851,5.668,0,3.907,3.179,7.087,7.087,7.087s7.087-3.18,7.087-7.087c0-2.318-1.124-4.375-2.851-5.668ZM16.299,80.079c0,3.126-2.543,5.669-5.669,5.669s-5.669-2.543-5.669-5.669,2.533-5.658,5.65-5.668h.039c3.117.01,5.65,2.548,5.65,5.668ZM3.544,72.993V17.28c12.483,4.053,26.544,6.107,41.811,6.107s29.318-2.055,41.811-6.107v55.713s-83.622,0-83.622,0ZM80.078,85.748c-3.126,0-5.669-2.543-5.669-5.669s2.533-5.658,5.65-5.668h.039c3.117.01,5.65,2.548,5.65,5.668s-2.543,5.669-5.669,5.669Z"/>
  </g>
  <g id="Takt._Zeichen__x28_Typo_x29_">
    <g>
      <path d="M28.356,48.174v.04c1.48.28,2.881,1.36,2.881,3.261,0,2.221-1.64,3.801-5.521,3.801h-3.26v-13.803h3.081c3.901,0,5.321,1.381,5.321,3.581,0,1.96-1.22,2.72-2.5,3.12ZM25.536,43.213h-.92v4.241h.9c2.12,0,3.121-.841,3.121-2.28,0-1.181-.88-1.961-3.101-1.961ZM25.836,49.195h-1.22v4.321h1.1c2.321,0,3.261-.761,3.261-2.201,0-1.359-1.14-2.12-3.141-2.12Z"/>
      <path d="M41.496,55.276h-1.86v-1.08h-.04c-.34.4-1.12,1.32-2.881,1.32-2.04,0-3.121-1.28-3.121-3.861v-6.041h2.041v5.701c0,1.721.5,2.441,1.7,2.441,1.1,0,1.72-.48,2.121-.861v-7.281h2.04v9.662Z"/>
      <path d="M47.756,50.555h-.98v4.721h-2.16v-13.803h3.24c3.941,0,5.701,1.58,5.701,4.341,0,2.901-1.94,4.741-5.801,4.741ZM47.855,43.254h-1.08v5.501h.98c2.42,0,3.521-1.04,3.521-2.86,0-1.72-1.06-2.641-3.421-2.641Z"/>
      <path d="M59.235,55.516c-2.401,0-4.261-1.601-4.261-5.081,0-3.461,2.121-5.062,4.461-5.062,2.401,0,4.241,1.561,4.241,5.062,0,3.44-2.12,5.081-4.441,5.081ZM59.336,47.134c-1.3,0-2.281,1-2.281,3.301,0,2.32.98,3.321,2.281,3.321,1.32,0,2.26-1.021,2.26-3.321,0-2.32-.98-3.301-2.26-3.301Z"/>
      <path d="M67.975,52.555c0,.98.26,1.261.9,1.261.34,0,.58-.08.7-.12l.12,1.42c-.14.101-.66.34-1.48.34-1.42,0-2.26-.66-2.26-2.68v-11.623l2.02-.199v11.602Z"/>
    </g>
  </g>
</svg>