<?xml version="1.0" encoding="UTF-8"?>
<svg xmlns="http://www.w3.org/2000/svg" version="1.1" viewBox="0 0 90.709 90.709">
  <!-- Generator: Adobe Illustrator 29.1.0, SVG Export Plug-In . SVG Version: 2.1.0 Build 142)  -->
  <g id="Grundfläche">
    <rect x="0" width="90.709" height="90.709" fill="#fff"/>
  </g>
  <g id="Flächige_Fülung">
    <circle cx="45.355" cy="42.52" r="34.016" fill="#bebebe"/>
  </g>
  <g id="Takt_Zeichen__x28_umgewandelt_x29_">
    <path d="M45.355,7.795c-19.147,0-34.725,15.578-34.725,34.726s15.577,34.725,34.725,34.725,34.724-15.577,34.724-34.725S64.502,7.795,45.355,7.795ZM45.355,75.827c-18.366,0-33.307-14.941-33.307-33.307S26.99,9.213,45.355,9.213s33.307,14.941,33.307,33.308-14.941,33.307-33.307,33.307ZM42.52,36.85h5.669v22.677h-5.669v-22.677ZM49.606,26.929c0,2.349-1.904,4.252-4.252,4.252s-4.252-1.903-4.252-4.252,1.904-4.252,4.252-4.252,4.252,1.904,4.252,4.252Z"/>
  </g>
  <g id="Takt._Zeichen__x28_Typo_x29_">
    <g>
      <path d="M75.811,80.354l-3.922,6.428v.024h4.246l-.084,1.067h-5.853v-.768l3.994-6.429v-.024h-3.766v-1.055h5.385v.756Z"/>
      <path d="M78.093,80.534h-.995v-.936h3.286v.936h-.995v6.404h1.019v.936h-3.346v-.936h1.031v-6.404Z"/>
      <path d="M85.099,87.874h-1.02l-3.01-8.275h1.439l2.111,6.428h.024l2.147-6.428h1.319l-3.01,8.275Z"/>
    </g>
    <g>
      <path d="M5.102,86.854v.023h3.022v.996H3.614l-.084-.804c2.603-2.794,3.202-3.466,3.202-4.714,0-.875-.408-1.379-1.247-1.379-.876,0-1.403.516-1.619.744l-.468-.852c.276-.288.983-.936,2.255-.936,1.499,0,2.327.875,2.327,2.267,0,1.583-.948,2.71-2.878,4.653Z"/>
      <path d="M10.874,88.017c-.78,0-1.175-.155-1.331-.252l.216-1.056c.144.084.42.229,1.067.229,1.283,0,2.111-.744,2.207-2.435-.384.264-.9.468-1.583.468-1.331,0-2.183-.947-2.183-2.447,0-1.727,1.127-2.59,2.447-2.59,1.487,0,2.579,1.066,2.579,3.934,0,2.998-1.583,4.149-3.418,4.149ZM13.044,83.591c-.036-1.883-.636-2.614-1.451-2.614-.612,0-1.127.443-1.127,1.475,0,.924.396,1.512,1.295,1.512.576,0,.984-.156,1.283-.372Z"/>
      <path d="M18.673,86.878h1.679v.996h-4.582v-.996h1.691v-5.589l-1.619.576-.264-.96,2.195-.827h.899v6.8Z"/>
      <path d="M24.433,83.891v.024c.851.228,1.559.743,1.559,1.931,0,1.295-.924,2.171-2.483,2.171-1.163,0-1.847-.624-2.075-.899l.504-.947c.216.252.671.791,1.523.791.84,0,1.295-.383,1.295-1.079,0-.923-.684-1.403-1.883-1.403h-.36l-.072-.959h.384c1.259,0,1.799-.624,1.799-1.476,0-.6-.372-1.067-1.08-1.067-.719,0-1.223.384-1.451.624l-.444-.815c.288-.301.996-.852,2.123-.852,1.223,0,2.039.719,2.039,1.99,0,1.08-.6,1.655-1.379,1.967Z"/>
      <path d="M29.785,88.017c-1.499,0-2.471-1.224-2.471-4.042,0-2.842,1.079-4.041,2.567-4.041,1.499,0,2.471,1.223,2.471,4.041,0,2.843-1.08,4.042-2.567,4.042ZM29.833,80.989c-.756,0-1.271.792-1.271,2.986,0,2.231.516,2.986,1.271,2.986s1.271-.755,1.271-2.986c0-2.194-.516-2.986-1.271-2.986Z"/>
      <path d="M35.785,88.017c-1.499,0-2.471-1.224-2.471-4.042,0-2.842,1.079-4.041,2.567-4.041,1.499,0,2.471,1.223,2.471,4.041,0,2.843-1.08,4.042-2.567,4.042ZM35.833,80.989c-.756,0-1.271.792-1.271,2.986,0,2.231.516,2.986,1.271,2.986s1.271-.755,1.271-2.986c0-2.194-.516-2.986-1.271-2.986Z"/>
    </g>
  </g>
</svg>