<?xml version="1.0" encoding="UTF-8"?>
<svg xmlns="http://www.w3.org/2000/svg" version="1.1" viewBox="0 0 90.709 90.709">
  <!-- Generator: Adobe Illustrator 29.1.0, SVG Export Plug-In . SVG Version: 2.1.0 Build 142)  -->
  <g id="Grundfläche">
    <rect x="0" width="90.709" height="90.709" fill="#fff"/>
  </g>
  <g id="Flächige_Fülung">
    <circle cx="45.355" cy="45.354" r="34.016" fill="#bebebe"/>
  </g>
  <g id="Takt_Zeichen__x28_umgewandelt_x29_">
    <path d="M45.356,10.63c-19.147,0-34.725,15.577-34.725,34.725s15.577,34.725,34.725,34.725,34.724-15.577,34.724-34.725S64.503,10.63,45.356,10.63ZM45.356,78.661c-18.366,0-33.307-14.941-33.307-33.307S26.99,12.048,45.356,12.048s33.307,14.941,33.307,33.307-14.941,33.307-33.307,33.307ZM59.026,57.194l4.46,4.459h-28.833c-.348-2.398-2.396-4.252-4.889-4.252-2.735,0-4.961,2.226-4.961,4.961s2.225,4.961,4.961,4.961c2.493,0,4.541-1.854,4.889-4.252h28.833l-4.46,4.46,1.002,1.002,6.171-6.171-6.171-6.17-1.002,1.002ZM29.764,65.905c-1.954,0-3.543-1.589-3.543-3.543s1.589-3.543,3.543-3.543,3.543,1.589,3.543,3.543-1.589,3.543-3.543,3.543ZM36.167,46.038c.351,4.762,4.337,8.529,9.188,8.529s8.837-3.768,9.188-8.529c4.762-.351,8.529-4.338,8.529-9.188s-3.767-8.837-8.529-9.188c-.351-4.762-4.337-8.529-9.188-8.529s-8.837,3.768-9.188,8.529c-4.762.351-8.529,4.338-8.529,9.188s3.767,8.837,8.529,9.188ZM36.85,29.055h.709v-.709c0-4.298,3.497-7.795,7.795-7.795s7.795,3.497,7.795,7.795v.709h.709c4.298,0,7.795,3.497,7.795,7.795s-3.497,7.795-7.795,7.795h-.709v.709c0,4.298-3.497,7.795-7.795,7.795s-7.795-3.497-7.795-7.795v-.709h-.709c-4.298,0-7.795-3.497-7.795-7.795s3.497-7.795,7.795-7.795Z"/>
  </g>
</svg>