<?xml version="1.0" encoding="UTF-8"?>
<svg xmlns="http://www.w3.org/2000/svg" version="1.1" viewBox="0 0 90.709 90.709">
  <!-- Generator: Adobe Illustrator 29.1.0, SVG Export Plug-In . SVG Version: 2.1.0 Build 142)  -->
  <g id="Grundfläche">
    <rect x="0" y="0" width="90.709" height="90.709" fill="none"/>
  </g>
  <g id="Takt_Zeichen__x28_umgewandelt_x29_">
    <rect x="0" width="90.709" height="90.709" fill="#fff"/>
  </g>
  <g id="Takt._Zeichen__x28_Typo_x29_">
    <g>
      <path d="M45.552,79.37h-1.567v-5.618h-6.176v5.618h-1.566v-12.424h1.566v5.51h6.176v-5.51h1.567v12.424Z"/>
      <path d="M49.293,68.639c-.576,0-1.026-.396-1.026-1.026s.45-1.044,1.026-1.044,1.044.414,1.044,1.044-.468,1.026-1.044,1.026ZM50.013,79.37h-1.458v-8.643h1.458v8.643Z"/>
      <path d="M57.79,79.586c-3.205,0-5.402-2.215-5.402-6.428s2.305-6.428,5.51-6.428c3.187,0,5.384,2.215,5.384,6.428s-2.305,6.428-5.491,6.428ZM57.844,68.081c-2.341,0-3.781,1.746-3.781,5.077,0,3.277,1.44,5.078,3.781,5.078,2.323,0,3.763-1.801,3.763-5.078,0-3.331-1.44-5.077-3.763-5.077Z"/>
      <path d="M69.903,72.024c-.108-.054-.324-.162-.792-.162-1.152,0-1.747.702-1.999,1.224v6.284h-1.458v-8.643h1.35v1.278h.036c.27-.63.846-1.44,2.197-1.44.36,0,.576.054.792.126l-.126,1.333Z"/>
      <path d="M78.76,71.862h-1.314c.306.45.486.99.486,1.566,0,1.837-1.458,2.917-3.385,2.917-.252,0-.486-.018-.72-.054-.288.126-.72.378-.72.846,0,.36.27.612.918.612h1.764c1.819,0,2.863.756,2.863,2.287,0,1.638-1.566,3.151-4.573,3.151-2.053,0-3.241-.792-3.241-2.341,0-1.314.99-1.855,1.512-2.125v-.036c-.378-.288-.54-.738-.54-1.225,0-.9.792-1.332,1.026-1.44v-.036c-.882-.432-1.458-1.278-1.458-2.557,0-1.944,1.458-2.917,3.277-2.917.468,0,.9.072,1.296.216h2.989l-.18,1.134ZM73.143,79.028c-.45.27-.9.702-.9,1.531,0,.972.648,1.386,1.945,1.386,2.107,0,3.007-.81,3.007-1.692,0-.828-.432-1.152-1.405-1.152h-1.908c-.288,0-.522-.018-.738-.072ZM74.673,71.718c-.99,0-1.873.468-1.873,1.71s.882,1.711,1.837,1.711c.99,0,1.873-.468,1.873-1.711s-.882-1.71-1.837-1.71Z"/>
    </g>
  </g>
</svg>