<?xml version="1.0" encoding="UTF-8"?>
<svg xmlns="http://www.w3.org/2000/svg" version="1.1" viewBox="0 0 90.709 90.709">
  <!-- Generator: Adobe Illustrator 29.1.0, SVG Export Plug-In . SVG Version: 2.1.0 Build 142)  -->
  <g id="Grundfläche">
    <rect x="0" y="0" width="90.709" height="90.709" fill="none"/>
  </g>
  <g id="Takt_Zeichen__x28_umgewandelt_x29_">
    <rect width="90.709" height="90.709" fill="#fafa00"/>
  </g>
  <g id="Takt._Zeichen__x28_Typo_x29_">
    <g>
      <path d="M56.08,72.978v.036c1.476.27,2.611,1.296,2.611,2.989,0,1.945-1.44,3.367-4.861,3.367h-2.809v-12.424h2.647c3.385,0,4.663,1.242,4.663,3.169,0,1.765-1.044,2.485-2.25,2.863ZM53.667,68.242h-1.08v4.213h1.062c2.071,0,3.061-.828,3.061-2.287,0-1.134-.882-1.927-3.043-1.927ZM53.937,73.752h-1.35v4.321h1.242c2.287,0,3.187-.756,3.187-2.179,0-1.368-1.134-2.143-3.079-2.143Z"/>
      <path d="M67.096,75.355h-5.024c.108,1.999,1.062,2.935,2.629,2.935,1.368,0,2.034-.594,2.269-.81l.432,1.044c-.288.288-1.026,1.062-2.863,1.062-2.449,0-3.925-1.422-3.925-4.645,0-3.025,1.782-4.429,3.745-4.429,1.782,0,2.899,1.206,2.899,3.385,0,.576-.072,1.044-.162,1.458ZM62.073,74.221h3.781c.036-.216.036-.396.036-.576,0-1.207-.63-1.891-1.656-1.891-1.206,0-2.052.882-2.161,2.467Z"/>
      <path d="M74.961,71.664l-4.123,6.428v.036h4.393l-.108,1.242h-6.194v-.936l4.159-6.428v-.036h-3.943v-1.242h5.816v.936Z"/>
      <path d="M77.84,79.586c-.576,0-1.026-.396-1.026-1.026s.45-1.044,1.026-1.044,1.044.414,1.044,1.044-.468,1.026-1.044,1.026Z"/>
    </g>
  </g>
</svg>