<?xml version="1.0" encoding="UTF-8"?>
<svg xmlns="http://www.w3.org/2000/svg" version="1.1" viewBox="0 0 90.709 90.709">
  <!-- Generator: Adobe Illustrator 29.1.0, SVG Export Plug-In . SVG Version: 2.1.0 Build 142)  -->
  <g id="Grundfläche">
    <rect x="0" y="0" width="90.709" height="90.709" fill="none"/>
  </g>
  <g id="Takt_Zeichen__x28_umgewandelt_x29_">
    <rect width="90.709" height="90.709" fill="#14a01e"/>
  </g>
  <g id="Takt._Zeichen__x28_Typo_x29_">
    <g>
      <path d="M59.607,74.887h-1.08v4.483h-1.566v-12.424h2.737c3.547,0,5.114,1.351,5.114,3.745,0,2.557-1.638,4.195-5.204,4.195ZM59.697,68.242h-1.17v5.348h1.08c2.449,0,3.529-1.044,3.529-2.809,0-1.675-1.044-2.539-3.439-2.539Z"/>
      <path d="M69.921,79.586c-2.125,0-3.727-1.44-3.727-4.537,0-3.133,1.873-4.537,3.943-4.537,2.125,0,3.727,1.405,3.727,4.537,0,3.097-1.873,4.537-3.943,4.537ZM70.029,71.808c-1.35,0-2.323,1.026-2.323,3.241,0,2.197.972,3.241,2.323,3.241,1.386,0,2.323-1.044,2.323-3.241,0-2.215-.972-3.241-2.323-3.241Z"/>
      <path d="M77.534,77.245c0,.828.252,1.08.828,1.08.306,0,.522-.072.612-.108l.09,1.044c-.09.054-.504.27-1.188.27-1.134,0-1.8-.522-1.8-2.215v-10.677l1.458-.162v10.767Z"/>
    </g>
  </g>
</svg>