<?xml version="1.0" encoding="UTF-8"?>
<svg xmlns="http://www.w3.org/2000/svg" version="1.1" viewBox="0 0 90.709 90.709">
  <!-- Generator: Adobe Illustrator 29.1.0, SVG Export Plug-In . SVG Version: 2.1.0 Build 142)  -->
  <g id="Grundfläche">
    <rect x="0" y="0" width="90.709" height="90.709" fill="none"/>
  </g>
  <g id="Takt_Zeichen__x28_umgewandelt_x29_">
    <rect width="90.709" height="90.709" fill="#fa8c00"/>
  </g>
  <g id="Takt._Zeichen__x28_Typo_x29_">
    <g>
      <path d="M41.896,68.999c-.252-.198-1.044-.846-2.305-.846-1.404,0-2.089.648-2.089,1.476,0,.972.414,1.531,1.927,2.449l1.08.666c1.477.918,2.467,1.945,2.467,3.565,0,1.891-1.476,3.277-4.015,3.277-1.98,0-2.917-.774-3.331-1.098l.558-1.458c.378.36,1.369,1.135,2.719,1.135,1.675,0,2.449-.774,2.449-1.638,0-1.081-.558-1.603-1.927-2.503l-1.098-.72c-1.675-1.098-2.431-1.927-2.431-3.637,0-1.603,1.405-2.935,3.619-2.935,1.801,0,2.701.738,2.935.918l-.558,1.35Z"/>
      <path d="M48.393,79.586c-2.125,0-3.727-1.44-3.727-4.537,0-3.133,1.873-4.537,3.943-4.537,2.125,0,3.727,1.405,3.727,4.537,0,3.097-1.873,4.537-3.943,4.537ZM48.501,71.808c-1.35,0-2.323,1.026-2.323,3.241,0,2.197.972,3.241,2.323,3.241,1.386,0,2.323-1.044,2.323-3.241,0-2.215-.972-3.241-2.323-3.241Z"/>
      <path d="M60.003,79.37v-5.114c0-1.656-.504-2.449-1.729-2.449-1.17,0-1.873.576-2.269.936v6.626h-1.458v-8.643h1.35v.972h.036c.342-.378,1.188-1.188,2.683-1.188,1.837,0,2.845,1.152,2.845,3.511v5.348h-1.458Z"/>
      <path d="M68.337,72.528c-.306-.252-.954-.756-1.908-.756-.937,0-1.386.396-1.386.9,0,.684.396.99,1.314,1.458l.648.324c1.35.684,2.088,1.422,2.088,2.683,0,1.314-.972,2.449-3.079,2.449-1.44,0-2.197-.558-2.593-.918l.54-1.278c.378.378,1.008.9,2.052.9,1.098,0,1.656-.414,1.656-.972,0-.828-.54-1.134-1.512-1.656l-.63-.342c-1.242-.666-1.854-1.386-1.854-2.575,0-1.278,1.152-2.233,2.791-2.233,1.386,0,2.052.576,2.359.828l-.486,1.188Z"/>
      <path d="M75.249,71.97h-2.233v4.465c0,1.35.342,1.854,1.296,1.854.468,0,.828-.162,1.008-.252l.144,1.17c-.144.09-.63.378-1.549.378-1.692,0-2.359-.972-2.359-2.953v-4.663h-1.188v-1.026l1.188-.216.162-2.413h1.296v2.413h2.413l-.18,1.242Z"/>
      <path d="M77.84,79.586c-.576,0-1.026-.396-1.026-1.026s.45-1.044,1.026-1.044,1.044.414,1.044,1.044-.468,1.026-1.044,1.026Z"/>
    </g>
  </g>
</svg>