<?xml version="1.0" encoding="UTF-8"?>
<svg xmlns="http://www.w3.org/2000/svg" version="1.1" viewBox="0 0 90.709 90.709">
  <!-- Generator: Adobe Illustrator 29.1.0, SVG Export Plug-In . SVG Version: 2.1.0 Build 142)  -->
  <g id="Grundfläche">
    <rect x="0" y="0" width="90.709" height="90.709" fill="none"/>
  </g>
  <g id="Flächige_Fülung">
    <rect x="2.835" y="17.008" width="85.04" height="56.693" fill="#fff"/>
    <rect x="5.669" y="19.842" width="79.37" height="51.024" fill="#003296"/>
  </g>
  <g id="Takt_Zeichen__x28_umgewandelt_x29_">
    <path d="M88.583,74.409H2.126V16.3h86.457v58.11ZM3.544,72.992h83.622V17.717H3.544v55.276Z"/>
    <path d="M63.779,9.921c0,2.348-1.904,4.252-4.252,4.252-2.348,0-4.252-1.904-4.252-4.252s1.904-4.252,4.252-4.252c2.348,0,4.252,1.904,4.252,4.252ZM31.181,5.669c-2.348,0-4.252,1.904-4.252,4.252s1.904,4.252,4.252,4.252c2.348,0,4.252-1.904,4.252-4.252s-1.904-4.252-4.252-4.252Z"/>
  </g>
  <g id="Takt._Zeichen__x28_Typo_x29_">
    <g>
      <path d="M37.946,43.922v.04c1.48.28,2.881,1.36,2.881,3.261,0,2.221-1.64,3.801-5.521,3.801h-3.26v-13.803h3.081c3.901,0,5.321,1.38,5.321,3.581,0,1.96-1.22,2.72-2.5,3.121ZM35.126,38.961h-.92v4.241h.9c2.12,0,3.121-.84,3.121-2.28,0-1.18-.88-1.96-3.101-1.96ZM35.426,44.943h-1.22v4.32h1.1c2.321,0,3.261-.76,3.261-2.2,0-1.36-1.14-2.12-3.141-2.12Z" fill="#fff"/>
      <path d="M48.306,43.102c-.1-.06-.36-.16-.82-.16-1.2,0-1.881.641-2.181,1.2v6.882h-2.04v-9.662h1.88v1.38h.04c.36-.78,1.02-1.56,2.44-1.56.4,0,.7.08.84.12l-.16,1.8Z" fill="#fff"/>
      <path d="M56.466,43.922v.04c1.48.28,2.881,1.36,2.881,3.261,0,2.221-1.64,3.801-5.521,3.801h-3.26v-13.803h3.081c3.901,0,5.321,1.38,5.321,3.581,0,1.96-1.22,2.72-2.5,3.121ZM53.645,38.961h-.92v4.241h.9c2.12,0,3.121-.84,3.121-2.28,0-1.18-.88-1.96-3.101-1.96ZM53.945,44.943h-1.22v4.32h1.1c2.321,0,3.261-.76,3.261-2.2,0-1.36-1.14-2.12-3.141-2.12Z" fill="#fff"/>
    </g>
    <g>
      <path d="M62.953,60.823h-2.495v7.208h-1.295v-7.208h-2.507v-1.067h6.38l-.084,1.067Z" fill="#fff"/>
      <path d="M70.633,68.031h-1.295v-3.634h-3.754v3.634h-1.295v-8.275h1.295v3.562h3.754v-3.562h1.295v8.275Z" fill="#fff"/>
      <path d="M80.004,68.031h-1.104l-1.811-6.165h-.024l-1.823,6.165h-1.091l-2.243-8.275h1.391l1.463,6.213h.024l1.751-6.213h1.223l1.691,6.213h.024l1.499-6.213h1.307l-2.279,8.275Z" fill="#fff"/>
    </g>
  </g>
</svg>