<?xml version="1.0" encoding="UTF-8"?>
<svg xmlns="http://www.w3.org/2000/svg" version="1.1" viewBox="0 0 90.709 90.709">
  <!-- Generator: Adobe Illustrator 29.1.0, SVG Export Plug-In . SVG Version: 2.1.0 Build 142)  -->
  <g id="Grundfläche">
    <rect x="0" width="90.709" height="90.709" fill="none"/>
  </g>
  <g id="Flächige_Fülung">
    <rect x="2.835" y="17.008" width="85.04" height="56.693" fill="#fff"/>
    <rect x="5.669" y="19.842" width="79.37" height="51.024" fill="#003296"/>
  </g>
  <g id="Takt_Zeichen__x28_umgewandelt_x29_">
    <path d="M88.583,74.409H2.126V16.3h86.457v58.11ZM3.543,72.992h83.622V17.717H3.543v55.276Z"/>
    <path d="M63.779,9.921c0,2.348-1.904,4.252-4.252,4.252-2.348,0-4.252-1.904-4.252-4.252s1.904-4.252,4.252-4.252c2.348,0,4.252,1.904,4.252,4.252ZM31.181,5.669c-2.348,0-4.252,1.904-4.252,4.252s1.904,4.252,4.252,4.252c2.348,0,4.252-1.904,4.252-4.252s-1.904-4.252-4.252-4.252Z"/>
  </g>
  <g id="Takt._Zeichen__x28_Typo_x29_">
    <g>
      <path d="M44.528,51.024h-1.841l-3.021-10.282h-.04l-3.041,10.282h-1.82l-3.741-13.803h2.321l2.44,10.362h.04l2.921-10.362h2.04l2.821,10.362h.04l2.501-10.362h2.18l-3.801,13.803Z" fill="#fff"/>
      <path d="M53.546,46.302h-.98v4.721h-2.16v-13.803h3.24c3.941,0,5.701,1.581,5.701,4.341,0,2.901-1.94,4.741-5.801,4.741ZM53.646,39.001h-1.08v5.501h.98c2.42,0,3.521-1.04,3.521-2.861,0-1.72-1.06-2.64-3.421-2.64Z" fill="#fff"/>
    </g>
    <path d="M14.345,68.031l-.828-2.458h-2.771l-.828,2.458h-1.319l3.083-8.275h1.02l3.07,8.275h-1.427ZM12.15,61.435h-.024l-1.067,3.178h2.159l-1.067-3.178Z" fill="#fff"/>
    <g>
      <path d="M62.953,60.823h-2.495v7.208h-1.295v-7.208h-2.507v-1.067h6.38l-.084,1.067Z" fill="#fff"/>
      <path d="M70.633,68.031h-1.295v-3.634h-3.754v3.634h-1.295v-8.275h1.295v3.562h3.754v-3.562h1.295v8.275Z" fill="#fff"/>
      <path d="M80.004,68.031h-1.104l-1.811-6.165h-.024l-1.823,6.165h-1.091l-2.243-8.275h1.391l1.463,6.212h.024l1.751-6.212h1.223l1.691,6.212h.024l1.499-6.212h1.307l-2.279,8.275Z" fill="#fff"/>
    </g>
  </g>
</svg>