<?xml version="1.0" encoding="UTF-8"?>
<svg xmlns="http://www.w3.org/2000/svg" version="1.1" viewBox="0 0 90.709 90.709">
  <!-- Generator: Adobe Illustrator 29.1.0, SVG Export Plug-In . SVG Version: 2.1.0 Build 142)  -->
  <g id="Grundfläche">
    <rect x="0" y="0" width="90.709" height="90.709" fill="none"/>
  </g>
  <g id="Flächige_Fülung">
    <rect x="2.835" y="17.008" width="85.04" height="56.693" fill="#fff"/>
    <rect x="5.669" y="19.842" width="79.37" height="51.024" fill="#003296"/>
  </g>
  <g id="Takt_Zeichen__x28_umgewandelt_x29_">
    <path d="M88.583,74.409H2.126V16.3h86.457v58.11ZM3.543,72.992h83.622V17.717H3.543v55.276Z"/>
    <path d="M63.779,9.921c0,2.348-1.904,4.252-4.252,4.252-2.348,0-4.252-1.904-4.252-4.252s1.904-4.252,4.252-4.252c2.348,0,4.252,1.904,4.252,4.252ZM31.181,5.669c-2.348,0-4.252,1.904-4.252,4.252s1.904,4.252,4.252,4.252c2.348,0,4.252-1.904,4.252-4.252s-1.904-4.252-4.252-4.252Z"/>
  </g>
  <g id="Takt._Zeichen__x28_Typo_x29_">
    <g>
      <path d="M42.456,39.801c-.36-.28-1.2-.94-2.5-.94-1.44,0-2.12.64-2.12,1.46,0,.98.44,1.5,1.86,2.381l1.34.82c1.74,1.081,2.72,2.201,2.72,3.981,0,2.021-1.52,3.761-4.581,3.761-2.201,0-3.301-.9-3.761-1.28l.74-1.9c.44.44,1.5,1.28,2.981,1.28,1.66,0,2.42-.74,2.42-1.58,0-1.061-.52-1.601-1.82-2.461l-1.36-.9c-1.86-1.24-2.701-2.181-2.701-4.061,0-1.86,1.6-3.381,4.181-3.381,1.96,0,2.901.74,3.301,1.041l-.7,1.78Z" fill="#fff"/>
      <path d="M52.236,43.922v.04c1.48.28,2.881,1.36,2.881,3.261,0,2.221-1.64,3.801-5.521,3.801h-3.26v-13.803h3.081c3.901,0,5.321,1.38,5.321,3.581,0,1.96-1.22,2.72-2.5,3.12ZM49.415,38.961h-.92v4.241h.9c2.12,0,3.121-.84,3.121-2.28,0-1.181-.88-1.961-3.101-1.961ZM49.715,44.943h-1.22v4.321h1.1c2.321,0,3.261-.76,3.261-2.201,0-1.36-1.14-2.12-3.141-2.12Z" fill="#fff"/>
    </g>
    <g>
      <path d="M62.953,60.823h-2.495v7.208h-1.295v-7.208h-2.507v-1.067h6.38l-.084,1.067Z" fill="#fff"/>
      <path d="M70.633,68.031h-1.295v-3.634h-3.754v3.634h-1.295v-8.275h1.295v3.562h3.754v-3.562h1.295v8.275Z" fill="#fff"/>
      <path d="M80.004,68.031h-1.104l-1.811-6.164h-.024l-1.823,6.164h-1.091l-2.243-8.275h1.391l1.463,6.213h.024l1.751-6.213h1.223l1.691,6.213h.024l1.499-6.213h1.307l-2.279,8.275Z" fill="#fff"/>
    </g>
    <path d="M14.345,68.031l-.828-2.458h-2.771l-.827,2.458h-1.319l3.082-8.275h1.02l3.07,8.275h-1.427ZM12.15,61.435h-.024l-1.067,3.178h2.159l-1.067-3.178Z" fill="#fff"/>
  </g>
</svg>