<?xml version="1.0" encoding="UTF-8"?>
<svg xmlns="http://www.w3.org/2000/svg" version="1.1" viewBox="0 0 90.709 90.709">
  <!-- Generator: Adobe Illustrator 29.1.0, SVG Export Plug-In . SVG Version: 2.1.0 Build 142)  -->
  <g id="Grundfläche">
    <rect x="0" width="90.709" height="90.709" fill="none"/>
  </g>
  <g id="Flächige_Fülung">
    <polygon points="45.354 8.504 2.835 28.346 2.835 73.701 87.874 73.701 87.874 28.346 45.354 8.504" fill="#fff"/>
    <rect x="5.669" y="31.181" width="79.37" height="39.685" fill="#003296"/>
    <polygon points="9.538 28.347 81.171 28.347 45.354 11.632 9.538 28.347" fill="#003296"/>
  </g>
  <g id="Takt_Zeichen__x28_umgewandelt_x29_">
    <path d="M88.583,74.409H2.126V27.895L45.354,7.722l43.229,20.173v46.514ZM3.544,72.992h83.622V28.798L45.354,9.286,3.544,28.798v44.195Z"/>
  </g>
  <g id="Takt._Zeichen__x28_Typo_x29_">
    <g>
      <path d="M39.686,54.098c-3.621,0-6.141-2.461-6.141-7.142s2.601-7.142,6.221-7.142c3.601,0,6.101,2.46,6.101,7.142s-2.581,7.142-6.181,7.142ZM39.726,41.655c-2.42,0-3.881,1.781-3.881,5.301,0,3.461,1.46,5.301,3.881,5.301,2.381,0,3.861-1.84,3.861-5.301,0-3.521-1.48-5.301-3.861-5.301Z" fill="#fff"/>
      <path d="M53.606,53.858h-1.7l-5.021-13.803h2.401l3.521,10.722h.04l3.581-10.722h2.2l-5.021,13.803Z" fill="#fff"/>
    </g>
    <g>
      <path d="M62.953,60.822h-2.495v7.208h-1.295v-7.208h-2.507v-1.067h6.38l-.084,1.067Z" fill="#fff"/>
      <path d="M70.633,68.03h-1.295v-3.634h-3.754v3.634h-1.295v-8.275h1.295v3.562h3.754v-3.562h1.295v8.275Z" fill="#fff"/>
      <path d="M80.004,68.03h-1.104l-1.811-6.164h-.024l-1.823,6.164h-1.091l-2.243-8.275h1.391l1.463,6.213h.024l1.751-6.213h1.223l1.691,6.213h.024l1.499-6.213h1.307l-2.279,8.275Z" fill="#fff"/>
    </g>
  </g>
</svg>