<?xml version="1.0" encoding="UTF-8"?>
<svg xmlns="http://www.w3.org/2000/svg" version="1.1" viewBox="0 0 90.709 90.709">
  <!-- Generator: Adobe Illustrator 29.1.0, SVG Export Plug-In . SVG Version: 2.1.0 Build 142)  -->
  <g id="Grundfläche">
    <rect x="0" y="0" width="90.709" height="90.709" fill="none"/>
  </g>
  <g id="Flächige_Fülung">
    <rect x="2.835" y="17.008" width="85.04" height="56.693" fill="#fff"/>
    <rect x="5.669" y="19.843" width="79.37" height="43.937" fill="#003296"/>
  </g>
  <g id="Takt_Zeichen__x28_umgewandelt_x29_">
    <path d="M88.582,74.409H2.125V16.3h86.457v58.11ZM3.542,72.992h83.623V17.717H3.542v55.276Z"/>
    <path d="M63.779,9.921c0,2.348-1.904,4.252-4.252,4.252-2.348,0-4.252-1.904-4.252-4.252s1.904-4.252,4.252-4.252c2.348,0,4.252,1.904,4.252,4.252ZM31.181,5.669c-2.348,0-4.252,1.904-4.252,4.252s1.904,4.252,4.252,4.252c2.348,0,4.252-1.904,4.252-4.252s-1.904-4.252-4.252-4.252Z"/>
  </g>
  <g id="Takt._Zeichen__x28_Typo_x29_">
    <g>
      <path d="M62.952,53.738h-2.495v7.208h-1.295v-7.208h-2.507v-1.067h6.38l-.084,1.067Z" fill="#fff"/>
      <path d="M70.632,60.946h-1.295v-3.634h-3.754v3.634h-1.295v-8.275h1.295v3.562h3.754v-3.562h1.295v8.275Z" fill="#fff"/>
      <path d="M80.004,60.946h-1.104l-1.812-6.164h-.023l-1.823,6.164h-1.091l-2.243-8.275h1.391l1.463,6.213h.023l1.751-6.213h1.223l1.691,6.213h.023l1.5-6.213h1.307l-2.278,8.275Z" fill="#fff"/>
    </g>
    <g>
      <path d="M41.807,31.914h-4.161v12.022h-2.161v-12.022h-4.181v-1.781h10.643l-.14,1.781Z" fill="#fff"/>
      <path d="M56.168,43.936h-1.841l-3.021-10.282h-.04l-3.041,10.282h-1.82l-3.74-13.803h2.32l2.44,10.362h.04l2.921-10.362h2.04l2.82,10.362h.04l2.501-10.362h2.181l-3.801,13.803Z" fill="#fff"/>
    </g>
  </g>
</svg>