<?xml version="1.0" encoding="UTF-8"?>
<svg xmlns="http://www.w3.org/2000/svg" version="1.1" viewBox="0 0 90.709 90.709">
  <!-- Generator: Adobe Illustrator 29.1.0, SVG Export Plug-In . SVG Version: 2.1.0 Build 142)  -->
  <g id="Grundfläche">
    <rect x="0" width="90.709" height="90.709" fill="none"/>
  </g>
  <g id="Flächige_Fülung">
    <path d="M2.863,22.677h84.981c0,23.467-19.024,42.491-42.491,42.491S2.863,46.144,2.863,22.677Z" fill="#fff"/>
    <path d="M84.91,25.511c-1.458,20.549-18.642,36.822-39.556,36.822S7.256,46.06,5.798,25.511h79.112" fill="#003296"/>
  </g>
  <g id="Takt_Zeichen__x28_umgewandelt_x29_">
    <path d="M45.354,65.876C21.534,65.876,2.155,46.497,2.155,22.677v-.708h86.399v.708c0,23.82-19.379,43.199-43.199,43.199ZM3.578,23.385c.379,22.714,18.974,41.074,41.776,41.074s41.397-18.36,41.776-41.074H3.578Z"/>
  </g>
  <g id="Takt._Zeichen__x28_Typo_x29_">
    <g>
      <path d="M70.184,69.327h-2.495v7.208h-1.295v-7.208h-2.507v-1.067h6.38l-.084,1.067Z" fill="#003296"/>
      <path d="M77.863,76.535h-1.295v-3.634h-3.754v3.634h-1.295v-8.275h1.295v3.562h3.754v-3.562h1.295v8.275Z" fill="#003296"/>
      <path d="M87.235,76.535h-1.104l-1.811-6.165h-.024l-1.823,6.165h-1.091l-2.243-8.275h1.391l1.463,6.212h.024l1.751-6.212h1.223l1.691,6.212h.024l1.499-6.212h1.307l-2.279,8.275Z" fill="#003296"/>
    </g>
    <g>
      <path d="M35.738,45.355h-2.1v-9.142h-.04l-3.681,9.142h-1.66l-3.701-9.142h-.04v9.142h-2.08v-13.803h2.38l4.341,10.743h.04l4.361-10.743h2.18v13.803Z" fill="#fff"/>
      <path d="M45.156,36.933l-4.281,6.721v.04h4.581l-.16,1.661h-7.082v-1.24l4.361-6.722v-.04h-4.101v-1.66h6.681v1.24Z" fill="#fff"/>
      <path d="M55.896,45.355l-1.38-4.101h-4.621l-1.38,4.101h-2.2l5.141-13.803h1.7l5.121,13.803h-2.38ZM52.236,34.352h-.04l-1.78,5.302h3.601l-1.78-5.302Z" fill="#fff"/>
      <path d="M66.076,38.253v.04c1.48.28,2.881,1.36,2.881,3.261,0,2.22-1.64,3.801-5.521,3.801h-3.26v-13.803h3.081c3.901,0,5.321,1.38,5.321,3.581,0,1.961-1.22,2.721-2.5,3.121ZM63.255,33.292h-.92v4.24h.9c2.12,0,3.121-.84,3.121-2.28,0-1.18-.88-1.96-3.101-1.96ZM63.555,39.273h-1.22v4.321h1.1c2.321,0,3.261-.76,3.261-2.2,0-1.36-1.14-2.121-3.141-2.121Z" fill="#fff"/>
    </g>
  </g>
</svg>