<?xml version="1.0" encoding="UTF-8"?>
<svg xmlns="http://www.w3.org/2000/svg" version="1.1" viewBox="0 0 90.709 90.709">
  <!-- Generator: Adobe Illustrator 29.1.0, SVG Export Plug-In . SVG Version: 2.1.0 Build 142)  -->
  <g id="Grundfläche">
    <rect x="0" width="90.709" height="90.709" fill="none"/>
  </g>
  <g id="Flächige_Fülung">
    <path d="M49.606,22.678c-15.307,0-28.063-2.582-38.268-6.378v57.402h76.536V16.3c-10.205,3.794-22.961,6.378-38.268,6.378Z" fill="#fff"/>
    <rect x="14.173" y="28.347" width="70.867" height="42.521" fill="#003296"/>
  </g>
  <g id="Takt_Zeichen__x28_umgewandelt_x29_">
    <path d="M60.218,74.41h28.365V15.28s-.956.355-.956.355c-11.304,4.203-24.096,6.333-38.021,6.333s-26.723-2.131-38.021-6.333l-.956-.355v25.114H2.126v4.252h8.504v29.764h25.531c-1.728,1.293-2.854,3.35-2.854,5.67,0,3.908,3.179,7.086,7.087,7.086s7.087-3.179,7.087-7.086c0-2.32-1.125-4.376-2.854-5.67h7.125c-1.728,1.293-2.854,3.35-2.854,5.67,0,3.908,3.179,7.086,7.087,7.086s7.087-3.179,7.087-7.086c0-2.32-1.125-4.376-2.854-5.67ZM3.543,43.229v-1.418h7.086v1.418H3.543ZM46.063,80.08c0,3.126-2.543,5.669-5.669,5.669s-5.669-2.543-5.669-5.669,2.543-5.669,5.669-5.669,5.669,2.543,5.669,5.669ZM12.047,17.313c11.22,4.03,23.85,6.073,37.559,6.073s26.334-2.043,37.559-6.073v55.68s-75.118,0-75.118,0V17.313ZM55.985,85.749c-3.126,0-5.669-2.543-5.669-5.669s2.543-5.669,5.669-5.669,5.669,2.543,5.669,5.669-2.543,5.669-5.669,5.669Z"/>
  </g>
  <g id="Takt._Zeichen__x28_Typo_x29_">
    <g>
      <path d="M62.953,60.823h-2.495v7.208h-1.295v-7.208h-2.507v-1.067h6.38l-.084,1.067Z" fill="#fff"/>
      <path d="M70.633,68.031h-1.295v-3.634h-3.754v3.634h-1.295v-8.275h1.295v3.562h3.754v-3.562h1.295v8.275Z" fill="#fff"/>
      <path d="M80.004,68.031h-1.104l-1.811-6.165h-.024l-1.823,6.165h-1.091l-2.243-8.275h1.391l1.463,6.213h.024l1.751-6.213h1.223l1.691,6.213h.024l1.499-6.213h1.307l-2.279,8.275Z" fill="#fff"/>
    </g>
    <g>
      <path d="M62.953,60.823h-2.495v7.208h-1.295v-7.208h-2.507v-1.067h6.38l-.084,1.067Z" fill="#fff"/>
      <path d="M70.633,68.031h-1.295v-3.634h-3.754v3.634h-1.295v-8.275h1.295v3.562h3.754v-3.562h1.295v8.275Z" fill="#fff"/>
      <path d="M80.004,68.031h-1.104l-1.811-6.165h-.024l-1.823,6.165h-1.091l-2.243-8.275h1.391l1.463,6.213h.024l1.751-6.213h1.223l1.691,6.213h.024l1.499-6.213h1.307l-2.279,8.275Z" fill="#fff"/>
    </g>
    <g>
      <path d="M30.05,51.024v-13.803h7.822l-.14,1.78h-5.521v4.561h5.101v1.781h-5.101v5.681h-2.16Z" fill="#fff"/>
      <path d="M47.571,51.024h-1.86v-1.08h-.04c-.34.4-1.12,1.32-2.881,1.32-2.04,0-3.121-1.28-3.121-3.861v-6.041h2.041v5.701c0,1.721.5,2.44,1.7,2.44,1.1,0,1.72-.48,2.121-.86v-7.281h2.04v9.662ZM41.83,39.741c-.64,0-1.12-.46-1.12-1.141s.48-1.16,1.12-1.16,1.12.48,1.12,1.16-.48,1.141-1.12,1.141ZM45.391,39.741c-.64,0-1.14-.46-1.14-1.141s.5-1.16,1.14-1.16,1.12.48,1.12,1.16-.48,1.141-1.12,1.141Z" fill="#fff"/>
      <path d="M52.85,37.221v12.022h5.681l-.14,1.78h-7.702v-13.803h2.16Z" fill="#fff"/>
      <path d="M64.13,45.542h.62v-.56c0-1.48-.62-2.121-1.801-2.121-1.16,0-1.96.581-2.34.9l-.68-1.38c.48-.42,1.54-1.261,3.421-1.261,2.2,0,3.381,1.24,3.381,3.901v3.721c0,.96.08,1.86.14,2.28h-1.9c-.02-.28-.06-.64-.06-1.061h-.04c-.34.561-1.06,1.301-2.521,1.301-1.58,0-2.661-1.141-2.661-2.821,0-2,1.94-2.901,4.441-2.901ZM64.75,48.823v-1.961l-.74.04c-1.58.08-2.361.46-2.361,1.381,0,.82.56,1.34,1.22,1.34,1.02,0,1.56-.44,1.88-.8Z" fill="#fff"/>
    </g>
  </g>
</svg>