<?xml version="1.0" encoding="UTF-8"?>
<svg xmlns="http://www.w3.org/2000/svg" version="1.1" viewBox="0 0 90.709 90.709">
  <!-- Generator: Adobe Illustrator 29.1.0, SVG Export Plug-In . SVG Version: 2.1.0 Build 142)  -->
  <g id="Grundfläche">
    <rect x="0" width="90.709" height="90.709" fill="none"/>
  </g>
  <g id="Flächige_Fülung">
    <path d="M49.606,22.678c-15.307,0-28.063-2.582-38.268-6.378v57.402h76.536V16.3c-10.205,3.794-22.961,6.378-38.268,6.378Z" fill="#fff"/>
    <path d="M49.606,25.512c-12.811,0-24.709-1.757-35.433-5.228v50.583h70.867V20.284c-10.729,3.471-22.627,5.228-35.434,5.228Z" fill="#003296"/>
  </g>
  <g id="Takt_Zeichen__x28_umgewandelt_x29_">
    <path d="M53.839,74.41h34.744V15.28s-.956.355-.956.355c-11.304,4.203-24.096,6.333-38.021,6.333s-26.723-2.131-38.021-6.333l-.956-.355v25.114H2.126v4.252h8.504v29.764h34.744c-1.728,1.293-2.854,3.35-2.854,5.67,0,3.908,3.179,7.086,7.087,7.086s7.087-3.179,7.087-7.086c0-2.32-1.125-4.376-2.854-5.67ZM3.543,43.229v-1.418h7.086v1.418H3.543ZM12.047,17.313c11.22,4.03,23.85,6.073,37.559,6.073s26.334-2.043,37.559-6.073v55.68s-75.118,0-75.118,0V17.313ZM49.606,85.749c-3.126,0-5.669-2.543-5.669-5.669s2.543-5.669,5.669-5.669,5.669,2.543,5.669,5.669-2.543,5.669-5.669,5.669Z"/>
  </g>
  <g id="Takt._Zeichen__x28_Typo_x29_">
    <g>
      <path d="M62.953,60.823h-2.495v7.208h-1.295v-7.208h-2.507v-1.067h6.38l-.084,1.067Z" fill="#fff"/>
      <path d="M70.633,68.031h-1.295v-3.634h-3.754v3.634h-1.295v-8.275h1.295v3.562h3.754v-3.562h1.295v8.275Z" fill="#fff"/>
      <path d="M80.004,68.031h-1.104l-1.811-6.165h-.024l-1.823,6.165h-1.091l-2.243-8.275h1.391l1.463,6.213h.024l1.751-6.213h1.223l1.691,6.213h.024l1.499-6.213h1.307l-2.279,8.275Z" fill="#fff"/>
    </g>
    <g>
      <path d="M35.12,51.264c-2.501,0-4.121-2.041-4.121-6.742,0-4.741,1.8-6.742,4.281-6.742,2.5,0,4.121,2.041,4.121,6.742,0,4.741-1.8,6.742-4.281,6.742ZM35.2,39.541c-1.26,0-2.12,1.32-2.12,4.981,0,3.721.86,4.981,2.12,4.981s2.121-1.26,2.121-4.981c0-3.661-.86-4.981-2.121-4.981Z" fill="#fff"/>
      <path d="M41.26,53.884l-.36-.82c.88-.36,1.56-.84,1.62-2.041h-.1c-.72,0-1.28-.5-1.28-1.3,0-.78.6-1.2,1.24-1.2.88,0,1.54.72,1.54,2.081,0,2.08-1.44,2.96-2.66,3.28Z" fill="#fff"/>
      <path d="M50.18,51.264c-2.621,0-4.461-1.881-4.461-6.642,0-4.841,2.901-6.842,5.681-6.842,1.3,0,1.92.28,2.201.4l-.36,1.74c-.22-.1-.74-.34-1.781-.34-2,0-3.501,1.38-3.641,4.221.66-.44,1.56-.8,2.7-.8,2.16,0,3.581,1.44,3.581,3.881,0,2.681-1.4,4.381-3.921,4.381ZM47.82,45.282c.08,3.001,1.06,4.241,2.46,4.241,1.16,0,1.84-.82,1.84-2.501,0-1.521-.74-2.36-2.2-2.36-.9,0-1.58.28-2.1.62Z" fill="#fff"/>
      <path d="M65.44,43.022h-2.36v4.501c0,1.46.38,1.98,1.36,1.98.5,0,.9-.16,1.08-.24l.18,1.561c-.18.1-.74.42-1.781.42-2.02,0-2.881-1.04-2.881-3.5v-4.721h-1.32v-1.4l1.32-.24.24-2.701h1.8v2.681h2.581l-.22,1.66Z" fill="#fff"/>
    </g>
  </g>
</svg>