<?xml version="1.0" encoding="UTF-8"?>
<svg xmlns="http://www.w3.org/2000/svg" version="1.1" viewBox="0 0 90.709 90.709">
  <!-- Generator: Adobe Illustrator 29.1.0, SVG Export Plug-In . SVG Version: 2.1.0 Build 142)  -->
  <g id="Grundfläche">
    <rect x="0" width="90.709" height="90.709" fill="none"/>
  </g>
  <g id="Flächige_Fülung">
    <path d="M45.355,22.678c-17.008,0-31.181-2.582-42.52-6.378v57.402h85.04V16.3c-11.339,3.794-25.512,6.378-42.52,6.378Z" fill="#fff"/>
    <path d="M45.355,25.513c-14.369,0-27.698-1.797-39.685-5.347v50.702h79.37V20.165c-11.993,3.55-25.321,5.348-39.685,5.348Z" fill="#003296"/>
  </g>
  <g id="Takt_Zeichen__x28_umgewandelt_x29_">
    <path d="M84.313,74.41h4.27V15.315s-.934.312-.934.312c-12.575,4.208-26.805,6.341-42.295,6.341S15.628,19.835,3.059,15.628l-.934-.312v59.095h4.27c-1.727,1.294-2.852,3.35-2.852,5.669,0,3.908,3.179,7.086,7.087,7.086s7.087-3.179,7.087-7.086c0-2.319-1.125-4.375-2.852-5.669h26.256c-1.727,1.294-2.852,3.35-2.852,5.669,0,3.908,3.179,7.086,7.087,7.086s7.087-3.179,7.087-7.086c0-2.319-1.125-4.375-2.852-5.669h26.256c-1.727,1.294-2.852,3.35-2.852,5.669,0,3.908,3.179,7.086,7.087,7.086s7.087-3.179,7.087-7.086c0-2.319-1.125-4.375-2.852-5.669ZM16.299,80.079c0,3.126-2.543,5.669-5.669,5.669s-5.669-2.543-5.669-5.669,2.538-5.664,5.66-5.669h.019c3.122.005,5.66,2.546,5.66,5.669ZM51.023,80.079c0,3.126-2.543,5.669-5.669,5.669s-5.669-2.543-5.669-5.669,2.538-5.664,5.66-5.669h.019c3.122.005,5.66,2.546,5.66,5.669ZM3.544,72.993V17.279c12.483,4.052,26.544,6.106,41.811,6.106s29.322-2.054,41.811-6.107v55.714s-83.622,0-83.622,0ZM80.078,85.748c-3.126,0-5.669-2.543-5.669-5.669s2.538-5.664,5.66-5.669h.019c3.122.005,5.66,2.546,5.66,5.669s-2.543,5.669-5.669,5.669Z"/>
  </g>
  <g id="Takt._Zeichen__x28_Typo_x29_">
    <g>
      <path d="M62.953,60.823h-2.495v7.208h-1.295v-7.208h-2.507v-1.067h6.38l-.084,1.067Z" fill="#fff"/>
      <path d="M70.633,68.031h-1.295v-3.634h-3.754v3.634h-1.295v-8.275h1.295v3.562h3.754v-3.562h1.295v8.275Z" fill="#fff"/>
      <path d="M80.004,68.031h-1.104l-1.811-6.165h-.024l-1.823,6.165h-1.091l-2.243-8.275h1.391l1.463,6.213h.024l1.751-6.213h1.223l1.691,6.213h.024l1.499-6.213h1.307l-2.279,8.275Z" fill="#fff"/>
    </g>
    <g>
      <path d="M35.607,49.984c-.42.36-1.7,1.28-4.201,1.28-3.641,0-6.341-1.921-6.341-7.202,0-4.941,3.381-7.082,6.761-7.082,2.32,0,3.481.96,3.841,1.24l-.74,1.7c-.32-.28-1.3-1.1-3.041-1.1-2.4,0-4.521,1.5-4.521,5.241,0,3.761,1.561,5.361,4.321,5.361.7,0,1.32-.12,1.84-.28v-3.521h-2.48v-1.78h4.561v6.142Z" fill="#fff"/>
      <path d="M43.706,43.962l5.321,7.062h-2.68l-4.401-6.062h-1.12v6.062h-2.16v-13.803h2.16v5.941h1.16l4.261-5.941h2.42l-4.961,6.741Z" fill="#fff"/>
      <path d="M63.047,51.024h-1.841l-3.021-10.282h-.04l-3.041,10.282h-1.82l-3.741-13.803h2.321l2.44,10.362h.04l2.921-10.362h2.04l2.821,10.362h.04l2.501-10.362h2.18l-3.801,13.803Z" fill="#fff"/>
    </g>
  </g>
</svg>