<?xml version="1.0" encoding="UTF-8"?>
<svg xmlns="http://www.w3.org/2000/svg" version="1.1" viewBox="0 0 90.709 90.709">
  <!-- Generator: Adobe Illustrator 29.1.0, SVG Export Plug-In . SVG Version: 2.1.0 Build 142)  -->
  <g id="Grundfläche">
    <rect x="0" width="90.709" height="90.709" fill="none"/>
  </g>
  <g id="Flächige_Fülung">
    <path d="M2.863,22.677h84.981c0,23.467-19.024,42.491-42.491,42.491S2.863,46.144,2.863,22.677Z" fill="#fff"/>
    <path d="M84.91,25.511c-1.458,20.549-18.642,36.822-39.556,36.822S7.256,46.06,5.798,25.511h79.112" fill="#003296"/>
  </g>
  <g id="Takt_Zeichen__x28_umgewandelt_x29_">
    <path d="M45.354,65.876C21.534,65.876,2.155,46.497,2.155,22.677v-.708h86.399v.708c0,23.82-19.379,43.199-43.199,43.199ZM3.578,23.385c.379,22.714,18.974,41.074,41.776,41.074s41.397-18.36,41.776-41.074H3.578Z"/>
  </g>
  <g id="Takt._Zeichen__x28_Typo_x29_">
    <g>
      <path d="M70.183,69.327h-2.495v7.208h-1.295v-7.208h-2.507v-1.067h6.38l-.084,1.067Z" fill="#003296"/>
      <path d="M77.863,76.535h-1.295v-3.634h-3.754v3.634h-1.295v-8.275h1.295v3.562h3.754v-3.562h1.295v8.275Z" fill="#003296"/>
      <path d="M87.235,76.535h-1.104l-1.811-6.165h-.024l-1.823,6.165h-1.091l-2.243-8.275h1.391l1.463,6.212h.024l1.751-6.212h1.223l1.691,6.212h.024l1.499-6.212h1.307l-2.279,8.275Z" fill="#003296"/>
    </g>
    <g>
      <path d="M21.636,40.073l3.661,5.281h-2.48l-2.841-4.221h-.76v4.221h-2.04v-14.123l2.04-.2v8.422h.76l2.801-3.761h2.341l-3.481,4.381Z" fill="#fff"/>
      <path d="M28.975,42.634c0,.98.26,1.26.9,1.26.34,0,.58-.08.7-.12l.12,1.42c-.14.1-.66.34-1.48.34-1.42,0-2.26-.66-2.26-2.681v-11.622l2.02-.2v11.603Z" fill="#fff"/>
      <path d="M42.996,38.253v.04c1.48.28,2.881,1.36,2.881,3.261,0,2.22-1.64,3.801-5.521,3.801h-3.26v-13.803h3.081c3.901,0,5.321,1.38,5.321,3.581,0,1.961-1.22,2.721-2.5,3.121ZM40.175,33.292h-.92v4.24h.9c2.12,0,3.121-.84,3.121-2.28,0-1.18-.88-1.96-3.101-1.96ZM40.475,39.273h-1.22v4.321h1.1c2.321,0,3.261-.76,3.261-2.2,0-1.36-1.14-2.121-3.141-2.121Z" fill="#fff"/>
      <path d="M52.096,45.594c-2.401,0-4.261-1.6-4.261-5.081,0-3.46,2.121-5.061,4.461-5.061,2.401,0,4.241,1.561,4.241,5.061,0,3.441-2.12,5.081-4.441,5.081ZM52.196,37.213c-1.3,0-2.281,1-2.281,3.301,0,2.321.98,3.321,2.281,3.321,1.32,0,2.26-1.021,2.26-3.321,0-2.321-.98-3.301-2.26-3.301Z" fill="#fff"/>
      <path d="M62.595,45.594c-2.401,0-4.261-1.6-4.261-5.081,0-3.46,2.121-5.061,4.461-5.061,2.401,0,4.241,1.561,4.241,5.061,0,3.441-2.12,5.081-4.441,5.081ZM62.695,37.213c-1.3,0-2.281,1-2.281,3.301,0,2.321.98,3.321,2.281,3.321,1.32,0,2.26-1.021,2.26-3.321,0-2.321-.98-3.301-2.26-3.301Z" fill="#fff"/>
      <path d="M74.175,37.353h-2.36v4.501c0,1.46.38,1.98,1.36,1.98.5,0,.9-.16,1.08-.24l.18,1.561c-.18.1-.74.42-1.781.42-2.02,0-2.881-1.04-2.881-3.501v-4.721h-1.32v-1.4l1.32-.24.24-2.7h1.8v2.681h2.581l-.22,1.66Z" fill="#fff"/>
    </g>
  </g>
</svg>