<?xml version="1.0" encoding="UTF-8"?>
<svg xmlns="http://www.w3.org/2000/svg" version="1.1" viewBox="0 0 136.063 90.709">
  <!-- Generator: Adobe Illustrator 29.1.0, SVG Export Plug-In . SVG Version: 2.1.0 Build 142)  -->
  <g id="Grundfläche">
    <rect x="0" y="0" width="136.063" height="90.709" fill="none"/>
  </g>
  <g id="Takt_Zeichen__x28_umgewandelt_x29_">
    <path d="M132.066,73.045c-4.364-1.799-8.112-4.179-11.492-6.947.406-.651.65-1.414.65-2.238,0-2.349-1.904-4.252-4.252-4.252-.915,0-1.757.295-2.45.786-2.366-2.525-4.594-5.226-6.793-8.018l1.367-8.072-1.397-.237-1.152,6.799c-.758-.976-1.516-1.957-2.278-2.947-2.013-2.615-4.039-5.243-6.16-7.804,1.328-1.59,1.343-3.946-.075-5.54h0c-1.423-1.6-3.776-1.854-5.511-.706-2.763-2.817-5.76-5.437-9.126-7.724l-1.908-8.019-1.379.328,1.562,6.567c-3.375-2.097-7.123-3.855-11.358-5.158.196-2.104-1.18-4.073-3.295-4.541-2.109-.468-4.182.732-4.898,2.712-2.998-.434-6.207-.67-9.664-.67-.359,0-.71.012-1.066.018l-5.652-5.974-1.03.974,4.783,5.055c-4.849.217-9.397.969-13.617,2.238-1-1.894-3.27-2.785-5.307-1.978-2.046.809-3.091,3.026-2.508,5.099-3.155,1.612-6.066,3.58-8.726,5.88l-8.368.516.087,1.415,6.609-.407c-3.233,3.099-6.052,6.736-8.423,10.891-.416-.136-.852-.228-1.313-.228-2.349,0-4.252,1.904-4.252,4.252,0,1.5.781,2.812,1.953,3.569-.757,1.934-1.441,3.946-2.041,6.045l1.363.389c.551-1.929,1.207-3.902,1.975-5.882.323.078.655.131,1.002.131,2.349,0,4.252-1.904,4.252-4.252,0-1.392-.679-2.617-1.713-3.393,2.196-3.886,4.949-7.615,8.411-10.895l.437,7.081,1.415-.087-.506-8.211c2.448-2.125,5.222-4.031,8.366-5.629.792,1.206,2.133,1.923,3.546,1.923.521,0,1.05-.096,1.563-.299,1.901-.753,2.956-2.723,2.627-4.662,3.848-1.123,8.121-1.849,12.875-2.076l-4.795,4.537.974,1.03,5.948-5.628c.378-.006.746-.023,1.13-.023,3.358,0,6.477.23,9.393.653-.02,1.967,1.335,3.748,3.333,4.19.309.069.618.101.921.101,1.65,0,3.154-.972,3.846-2.471,4.09,1.272,7.719,2.979,10.992,5.014l-6.611,1.573.328,1.379,7.922-1.885c3.274,2.22,6.192,4.766,8.887,7.501-1.202,1.585-1.16,3.848.213,5.391.84.944,2.006,1.425,3.177,1.425.754,0,1.51-.199,2.183-.602,2.102,2.537,4.111,5.142,6.105,7.733.713.926,1.43,1.855,2.151,2.782l-6.586-1.115-.237,1.397,8.121,1.376c2.205,2.795,4.484,5.553,6.935,8.156-.505.699-.81,1.551-.81,2.48,0,2.349,1.904,4.252,4.252,4.252,1.021,0,1.945-.375,2.678-.974,3.499,2.876,7.386,5.366,11.877,7.217l.54-1.311Z" fill="#14a01e"/>
  </g>
</svg>