<?xml version="1.0" encoding="UTF-8"?>
<svg xmlns="http://www.w3.org/2000/svg" version="1.1" viewBox="0 0 136.063 90.709">
  <!-- Generator: Adobe Illustrator 29.1.0, SVG Export Plug-In . SVG Version: 2.1.0 Build 142)  -->
  <g id="Grundfläche">
    <rect x="0" y="0" width="136.063" height="90.709" fill="none"/>
  </g>
  <g id="Takt_Zeichen__x28_umgewandelt_x29_">
    <path d="M123.16,34.054l-1.018-5.612-.139.025h0s-.558.101-.558.101l-.697.126,1.018,5.61c-3.824.749-6.935,1.882-9.558,3.269l-2.791-4.983-.618.346-.495.277h0s-.124.069-.124.069l2.793,4.986c-3.154,1.871-5.58,4.12-7.742,6.48l-4.257-3.821-.095.105h0l-.379.422-.473.527,4.258,3.822c-.743.846-1.463,1.701-2.18,2.553-1.402,1.667-2.786,3.311-4.316,4.844l-3.967-4.121-.51.491-.408.393h0s-.102.098-.102.098l3.967,4.121c-2.197,2.032-4.739,3.82-8.051,5.137l-1.977-5.376-.665.245-.532.196h0s-.133.049-.133.049l1.976,5.374c-2.64.893-5.748,1.503-9.499,1.735l-.279-5.711-.708.035-.566.028h0s-.142.007-.142.007l.279,5.71c-.68.024-1.372.041-2.092.041-2.723,0-5.221-.288-7.558-.776l1.281-5.569-.691-.159-.552-.127h0s-.138-.032-.138-.032l-1.282,5.574c-3.295-.827-6.251-2.072-9.003-3.546l2.765-4.999-.124-.069-.992-.549-.124-.069-2.766,5.002c-2.886-1.65-5.567-3.523-8.205-5.39l3.3-4.671-.116-.082h0l-.463-.327-.579-.409-3.3,4.671c-2.767-1.955-5.514-3.852-8.421-5.386l2.578-5.108-.127-.064h0s-.506-.255-.506-.255l-.633-.319-2.578,5.108c-2.994-1.441-6.184-2.456-9.754-2.739l.293-5.724-.708-.036-.566-.029h0s-.142-.007-.142-.007l-.293,5.725c-3.021-.07-6.317.386-9.996,1.551l-1.818-5.419-.134.045h0s-.538.18-.538.18l-.672.225,1.818,5.418c-2.816.998-5.851,2.4-9.152,4.283l.351.615.281.492h0s.07.123.07.123c20.109-11.476,29.603-4.757,40.596,3.023,7.81,5.527,15.885,11.243,28.596,11.243,17.204,0,23.105-7.016,28.811-13.8,6.015-7.151,12.235-14.546,32.04-14.546v-1.417c-3.814,0-7.14.266-10.069.747Z" fill="#3264fa"/>
  </g>
</svg>