<?xml version="1.0" encoding="UTF-8"?>
<svg xmlns="http://www.w3.org/2000/svg" version="1.1" viewBox="0 0 90.709 90.709">
  <!-- Generator: Adobe Illustrator 29.1.0, SVG Export Plug-In . SVG Version: 2.1.0 Build 142)  -->
  <g id="Grundfläche">
    <rect x="0" width="90.709" height="90.709" fill="none"/>
  </g>
  <g id="Takt_Zeichen__x28_umgewandelt_x29_">
    <path d="M45.355,85.841l-1.904-1.904.802-.802,1.102,1.103,1.103-1.103.802.802-1.904,1.904ZM42.785,81.668l-2.934-2.934-.802.802,2.934,2.934.802-.802ZM38.384,77.267l-2.934-2.934-.802.802,2.934,2.934.802-.802ZM33.982,72.865l-2.934-2.934-.802.802,2.934,2.934.802-.802ZM29.581,68.464l-2.934-2.934-.802.802,2.934,2.934.802-.802ZM25.179,64.062l-2.934-2.934-.802.802,2.934,2.934.802-.802ZM20.778,59.661l-2.934-2.934-.802.802,2.934,2.934.802-.802ZM16.377,55.26l-2.934-2.934-.802.802,2.934,2.934.802-.802ZM11.975,50.858l-2.934-2.934-.802.802,2.934,2.934.802-.802ZM11.975,39.85l-.802-.802-2.934,2.934.802.802,2.934-2.934ZM16.377,35.449l-.802-.802-2.934,2.934.802.802,2.934-2.934ZM20.778,31.048l-.802-.802-2.934,2.934.802.802,2.934-2.934ZM25.179,26.646l-.802-.802-2.934,2.934.802.802,2.934-2.934ZM29.581,22.245l-.802-.802-2.934,2.934.802.802,2.934-2.934ZM33.982,17.843l-.802-.802-2.934,2.934.802.802,2.934-2.934ZM38.384,13.442l-.802-.802-2.934,2.934.802.802,2.934-2.934ZM42.785,9.041l-.802-.802-2.934,2.934.802.802,2.934-2.934ZM47.259,6.772l-1.904-1.904-1.904,1.904.802.802,1.102-1.103,1.103,1.103.802-.802ZM82.47,41.983l-2.934-2.934-.802.802,2.934,2.934.802-.802ZM78.069,37.582l-2.934-2.934-.802.802,2.934,2.934.802-.802ZM73.667,33.18l-2.934-2.934-.802.802,2.934,2.934.802-.802ZM69.266,28.779l-2.934-2.934-.802.802,2.934,2.934.802-.802ZM64.864,24.377l-2.934-2.934-.802.802,2.934,2.934.802-.802ZM60.463,19.976l-2.934-2.934-.802.802,2.934,2.934.802-.802ZM56.062,15.575l-2.934-2.934-.802.802,2.934,2.934.802-.802ZM51.66,11.173l-2.934-2.934-.802.802,2.934,2.934.802-.802ZM85.841,45.354l-1.904-1.904-.802.802,1.102,1.102-1.102,1.103.802.802,1.904-1.904ZM51.66,79.535l-.802-.802-2.934,2.934.802.802,2.934-2.934ZM56.062,75.134l-.802-.802-2.934,2.934.802.802,2.934-2.934ZM60.463,70.733l-.802-.802-2.934,2.934.802.802,2.934-2.934ZM64.864,66.331l-.802-.802-2.934,2.934.802.802,2.934-2.934ZM69.266,61.93l-.802-.802-2.934,2.934.802.802,2.934-2.934ZM73.667,57.528l-.802-.802-2.934,2.934.802.802,2.934-2.934ZM78.069,53.127l-.802-.802-2.934,2.934.802.802,2.934-2.934ZM82.47,48.726l-.802-.802-2.934,2.934.802.802,2.934-2.934Z" fill="#bebebe"/>
    <rect x="28.347" y="21.969" width="34.016" height="1.417"/>
    <polygon points="6.772 47.259 4.868 45.354 6.772 43.45 7.574 44.252 6.471 45.354 7.574 46.457 6.772 47.259" fill="#bebebe"/>
  </g>
</svg>