<?xml version="1.0" encoding="UTF-8"?>
<svg xmlns="http://www.w3.org/2000/svg" version="1.1" viewBox="0 0 90.709 90.709">
  <!-- Generator: Adobe Illustrator 29.1.0, SVG Export Plug-In . SVG Version: 2.1.0 Build 142)  -->
  <g id="Grundfläche">
    <rect x="0" y="0" width="90.709" height="90.709" fill="none"/>
  </g>
  <g id="Takt_Zeichen__x28_umgewandelt_x29_">
    <path d="M45.356,82.913c-4.607,0-6.877-3.027-9.073-5.953-2.077-2.77-4.039-5.385-7.937-5.385-4.723,0-6.604,2.821-8.594,5.807-1.389,2.084-2.826,4.239-5.262,5.457l-.634-1.268c2.099-1.05,3.371-2.957,4.716-4.975,2.11-3.165,4.292-6.438,9.774-6.438,4.606,0,6.876,3.026,9.071,5.952,2.078,2.77,4.04,5.386,7.939,5.386s5.862-2.616,7.939-5.386c2.195-2.927,4.465-5.952,9.071-5.952,5.481,0,7.664,3.273,9.774,6.438,1.346,2.019,2.617,3.925,4.716,4.975l-.634,1.268c-2.436-1.218-3.873-3.373-5.262-5.457-1.991-2.986-3.872-5.807-8.594-5.807-3.897,0-5.86,2.616-7.937,5.385-2.196,2.927-4.466,5.953-9.073,5.953ZM54.43,68.456c2.077-2.77,4.039-5.385,7.937-5.385,4.723,0,6.604,2.821,8.594,5.807,1.389,2.084,2.826,4.239,5.262,5.457l.634-1.268c-2.099-1.05-3.371-2.957-4.716-4.975-2.11-3.165-4.292-6.438-9.774-6.438-4.606,0-6.876,3.026-9.071,5.952-2.078,2.77-4.041,5.386-7.939,5.386s-5.861-2.616-7.939-5.386c-2.195-2.926-4.465-5.952-9.071-5.952-5.482,0-7.664,3.273-9.774,6.438-1.346,2.019-2.617,3.925-4.716,4.975l.634,1.268c2.436-1.218,3.873-3.373,5.262-5.457,1.991-2.986,3.871-5.807,8.594-5.807,3.897,0,5.86,2.616,7.937,5.385,2.196,2.927,4.466,5.953,9.073,5.953s6.878-3.027,9.073-5.953ZM61.517,26.357c1.74,1.74,4.053,2.698,6.514,2.698s4.774-.958,6.514-2.698c3.592-3.592,3.592-9.437,0-13.028-1.74-1.74-4.053-2.698-6.514-2.698s-4.774.958-6.514,2.698c0,0-16.163,16.445-16.163,16.445,0,0-16.163-16.445-16.163-16.445-1.74-1.74-4.053-2.698-6.514-2.698s-4.774.958-6.514,2.698c-3.592,3.592-3.592,9.437,0,13.028,1.74,1.74,4.053,2.698,6.514,2.698s4.774-.958,6.514-2.698c2.301-2.301,3.12-5.525,2.473-8.49l12.696,12.918-21.258,21.63v-9.895h-1.417v12.047h12.047v-1.417h-9.365l20.987-21.354,20.987,21.354h-9.365v1.417h12.047v-12.047h-1.417v9.895l-21.258-21.63,12.697-12.918c-.647,2.966.172,6.19,2.473,8.491Z"/>
  </g>
</svg>