<?xml version="1.0" encoding="UTF-8"?>
<svg xmlns="http://www.w3.org/2000/svg" version="1.1" viewBox="0 0 90.709 90.709">
  <!-- Generator: Adobe Illustrator 29.1.0, SVG Export Plug-In . SVG Version: 2.1.0 Build 142)  -->
  <g id="Grundfläche">
    <rect x="0" y="0" width="90.709" height="90.709" fill="none"/>
  </g>
  <g id="Flächige_Fülung">
    <polygon points="2.835 79.37 45.354 8.504 87.874 79.37 2.835 79.37" fill="#fff"/>
  </g>
  <g id="Takt_Zeichen__x28_umgewandelt_x29_">
    <path d="M87.874,80.079H2.835l-.608-1.073L45.354,7.127l43.127,71.879-.608,1.073ZM4.086,78.661h82.536L45.354,9.881,4.086,78.661Z" fill="#fa1919"/>
  </g>
  <g id="Takt._Zeichen__x28_Typo_x29_">
    <path d="M50.469,53.834v.08c2.96.56,5.759,2.719,5.759,6.519,0,4.439-3.279,7.599-11.038,7.599h-6.519v-27.595h6.159c7.799,0,10.638,2.76,10.638,7.159,0,3.919-2.44,5.439-4.999,6.239ZM44.83,43.916h-1.84v8.479h1.8c4.239,0,6.239-1.68,6.239-4.559,0-2.36-1.76-3.919-6.199-3.919ZM45.43,55.874h-2.44v8.639h2.2c4.639,0,6.519-1.52,6.519-4.399,0-2.719-2.28-4.239-6.279-4.239Z" fill="#fa1919"/>
  </g>
</svg>