<?xml version="1.0" encoding="UTF-8"?>
<svg xmlns="http://www.w3.org/2000/svg" version="1.1" viewBox="0 0 90.709 90.709">
  <!-- Generator: Adobe Illustrator 29.1.0, SVG Export Plug-In . SVG Version: 2.1.0 Build 142)  -->
  <g id="Grundfläche">
    <rect x="0" y="0" width="90.709" height="90.709" fill="none"/>
  </g>
  <g id="Takt_Zeichen__x28_umgewandelt_x29_">
    <path d="M69.449,34.724c5.861,0,10.63-4.769,10.63-10.63,0-5.861-4.769-10.63-10.63-10.63-3.531,0-6.657,1.738-8.591,4.396l-15.504,21.702-15.504-21.702c-1.934-2.658-5.06-4.396-8.591-4.396-5.861,0-10.63,4.769-10.63,10.63s4.769,10.63,10.63,10.63,10.63-4.769,10.63-10.63c0-.35-.019-.695-.052-1.036l12.647,17.724-24.641,34.533v-15.788h-1.417v17.716h16.3v-1.417h-13.506l24.135-33.824,24.135,33.824h-13.506v1.417h16.3v-17.716h-1.417v15.788l-24.641-34.533,12.647-17.724c-.033.341-.052.686-.052,1.036,0,5.861,4.769,10.63,10.63,10.63Z"/>
  </g>
</svg>