<?xml version="1.0" encoding="UTF-8"?>
<svg xmlns="http://www.w3.org/2000/svg" version="1.1" viewBox="0 0 90.709 90.709">
  <!-- Generator: Adobe Illustrator 29.1.0, SVG Export Plug-In . SVG Version: 2.1.0 Build 142)  -->
  <g id="Grundfläche">
    <rect x="0" width="90.709" height="90.709" fill="none"/>
  </g>
  <g id="Takt_Zeichen__x28_umgewandelt_x29_">
    <path d="M51.642,77.244h-1.237L25.035,14.882h-10.862v-1.417h11.815l25.035,61.538,25.035-61.538h11.815v1.417h-10.862l-25.37,62.362ZM22.252,74.409h-1.385l-2.442-8.546-2.442,8.546h-1.385l-2.295-10.201-3.192,7.366h-1.354l-1.709-10.765c-2.15-1.391-3.327-3.457-3.911-6.83l1.396-.242c.539,3.112,1.561,4.86,3.527,6.033l.285.17,1.411,8.889,3.109-7.175h1.316l2.191,9.737,2.377-8.319h.676v.749-.749h.676l2.377,8.319,2.191-9.737h1.316l3.109,7.175,1.412-8.889.285-.169c1.966-1.173,2.988-2.921,3.527-6.033l1.396.242c-.584,3.374-1.761,5.439-3.911,6.83l-1.71,10.765h-1.354l-3.192-7.366-2.295,10.201Z"/>
  </g>
</svg>