<?xml version="1.0" encoding="UTF-8"?>
<svg xmlns="http://www.w3.org/2000/svg" version="1.1" viewBox="0 0 90.709 90.709">
  <!-- Generator: Adobe Illustrator 29.1.0, SVG Export Plug-In . SVG Version: 2.1.0 Build 142)  -->
  <g id="Grundfläche">
    <rect x="0" width="90.709" height="90.709" fill="none"/>
  </g>
  <g id="Takt_Zeichen__x28_umgewandelt_x29_">
    <polygon points="87.266 79.735 45.354 9.882 3.442 79.735 2.227 79.006 45.354 7.127 88.482 79.006 87.266 79.735"/>
  </g>
  <g id="Takt._Zeichen__x28_Typo_x29_">
    <g>
      <path d="M25.905,74.649h-.98v4.721h-2.16v-13.803h3.24c3.941,0,5.701,1.58,5.701,4.341,0,2.9-1.94,4.741-5.801,4.741ZM26.005,67.347h-1.08v5.501h.98c2.42,0,3.521-1.04,3.521-2.861,0-1.72-1.06-2.64-3.421-2.64Z"/>
      <path d="M40.346,68.148c-.36-.28-1.2-.94-2.5-.94-1.44,0-2.12.64-2.12,1.46,0,.98.44,1.5,1.86,2.381l1.34.82c1.74,1.08,2.72,2.201,2.72,3.981,0,2.021-1.52,3.761-4.581,3.761-2.2,0-3.301-.9-3.761-1.28l.74-1.9c.44.44,1.5,1.28,2.981,1.28,1.66,0,2.42-.74,2.42-1.58,0-1.06-.52-1.6-1.82-2.46l-1.36-.9c-1.86-1.24-2.701-2.181-2.701-4.061,0-1.86,1.6-3.381,4.181-3.381,1.96,0,2.901.74,3.301,1.04l-.7,1.78Z"/>
      <path d="M54.727,79.37h-1.92l-6.381-9.742h-.04v9.742h-2.16v-13.803h1.94l6.362,9.682h.04v-9.682h2.161v13.803Z"/>
      <path d="M63.365,79.37h-1.7l-5.021-13.803h2.401l3.521,10.722h.04l3.581-10.722h2.2l-5.021,13.803Z"/>
    </g>
  </g>
</svg>