<?xml version="1.0" encoding="UTF-8"?>
<svg xmlns="http://www.w3.org/2000/svg" version="1.1" viewBox="0 0 90.709 90.709">
  <!-- Generator: Adobe Illustrator 29.1.0, SVG Export Plug-In . SVG Version: 2.1.0 Build 142)  -->
  <g id="Grundfläche">
    <rect x="0" width="90.709" height="90.709" fill="none"/>
  </g>
  <g id="Takt_Zeichen__x28_umgewandelt_x29_">
    <path d="M45.357,54.567c-6.204,0-9.9-4.677-13.475-9.2-3.173-4.015-6.17-7.808-10.621-7.808-5.923,0-8.1,4.116-10.405,8.475-1.861,3.52-3.786,7.159-7.798,8.497l-.448-1.345c3.473-1.157,5.183-4.391,6.993-7.814,2.4-4.538,4.881-9.23,11.658-9.23,5.137,0,8.49,4.243,11.733,8.346,3.365,4.258,6.845,8.661,12.363,8.661s8.998-4.403,12.363-8.662c3.243-4.103,6.596-8.346,11.733-8.346,6.777,0,9.258,4.692,11.658,9.23,1.81,3.423,3.52,6.657,6.993,7.814l-.448,1.345c-4.012-1.337-5.937-4.977-7.798-8.497-2.305-4.358-4.482-8.475-10.405-8.475-4.451,0-7.448,3.792-10.621,7.808-3.575,4.523-7.271,9.2-13.475,9.2Z"/>
  </g>
</svg>