<?xml version="1.0" encoding="UTF-8"?>
<svg xmlns="http://www.w3.org/2000/svg" version="1.1" viewBox="0 0 90.709 90.709">
  <!-- Generator: Adobe Illustrator 29.1.0, SVG Export Plug-In . SVG Version: 2.1.0 Build 142)  -->
  <g id="Grundfläche">
    <rect x="0" width="90.709" height="90.709" fill="none"/>
  </g>
  <g id="Takt_Zeichen__x28_umgewandelt_x29_">
    <path d="M45.354,85.748c-3.517,0-6.378-2.861-6.378-6.378,0-3.277,2.485-5.985,5.669-6.339v-2.874h-2.126c-3.218,0-6.243-1.253-8.519-3.528s-3.529-5.301-3.529-8.519V8.504c0-1.954,1.59-3.543,3.543-3.543h22.677c1.954,0,3.543,1.59,3.543,3.543v49.607c0,3.218-1.253,6.243-3.529,8.519-2.275,2.275-5.301,3.528-8.518,3.528h-2.126v2.874c3.185.354,5.669,3.062,5.669,6.339,0,3.517-2.861,6.378-6.378,6.378ZM45.354,74.409c-2.735,0-4.961,2.225-4.961,4.961s2.225,4.961,4.961,4.961,4.961-2.225,4.961-4.961-2.225-4.961-4.961-4.961ZM34.016,6.378c-1.172,0-2.126.954-2.126,2.126v49.607c0,2.839,1.106,5.509,3.113,7.517,2.008,2.008,4.677,3.113,7.516,3.113h5.669c2.839,0,5.509-1.105,7.516-3.113s3.114-4.677,3.114-7.517V8.504c0-1.172-.954-2.126-2.126-2.126h-22.677Z"/>
  </g>
</svg>