<?xml version="1.0" encoding="UTF-8"?>
<svg xmlns="http://www.w3.org/2000/svg" version="1.1" viewBox="0 0 90.709 90.709">
  <!-- Generator: Adobe Illustrator 29.1.0, SVG Export Plug-In . SVG Version: 2.1.0 Build 142)  -->
  <g id="Grundfläche">
    <rect x="0" width="90.709" height="90.709" fill="none"/>
  </g>
  <g id="Takt_Zeichen__x28_umgewandelt_x29_">
    <path d="M45.354,55.984c-10.928,0-17.717-6.789-17.717-17.717v-.709h35.433v.709c0,10.928-6.789,17.717-17.717,17.717ZM29.065,38.976c.277,9.779,6.322,15.591,16.289,15.591s16.012-5.812,16.289-15.591H29.065ZM76.796,51.732c-1.901,0-2.848-1.341-3.61-2.418-.803-1.137-1.354-1.834-2.484-1.834-.963,0-1.459.677-2.189,1.781-.677,1.023-1.444,2.183-2.926,2.459l-.26-1.393c.891-.167,1.407-.946,2.003-1.848.749-1.132,1.598-2.416,3.371-2.416,1.922,0,2.875,1.349,3.642,2.433.797,1.128,1.342,1.819,2.453,1.819s1.656-.691,2.453-1.819c.766-1.084,1.72-2.433,3.642-2.433,1.773,0,2.622,1.284,3.371,2.416.597.903,1.112,1.682,2.003,1.848l-.26,1.393c-1.482-.277-2.249-1.436-2.926-2.459-.73-1.104-1.226-1.781-2.189-1.781-1.131,0-1.681.697-2.484,1.834-.762,1.077-1.709,2.418-3.61,2.418ZM14.173,51.732c-1.901,0-2.848-1.341-3.61-2.418-.803-1.137-1.354-1.834-2.484-1.834-.963,0-1.459.677-2.189,1.78-.677,1.023-1.444,2.183-2.926,2.46l-.26-1.393c.891-.167,1.407-.946,2.004-1.848.749-1.132,1.598-2.416,3.371-2.416,1.922,0,2.875,1.349,3.642,2.433.797,1.128,1.342,1.819,2.453,1.819s1.656-.691,2.453-1.819c.766-1.084,1.72-2.433,3.642-2.433,1.773,0,2.622,1.284,3.371,2.416.597.903,1.112,1.682,2.003,1.848l-.26,1.393c-1.482-.277-2.249-1.436-2.926-2.459-.73-1.104-1.226-1.781-2.189-1.781-1.131,0-1.681.697-2.484,1.834-.762,1.077-1.709,2.418-3.61,2.418ZM76.796,44.646c-1.901,0-2.848-1.341-3.61-2.418-.803-1.137-1.354-1.833-2.484-1.833-.963,0-1.459.677-2.189,1.78-.677,1.023-1.443,2.183-2.925,2.459l-.26-1.393c.891-.167,1.407-.946,2.003-1.848.749-1.133,1.598-2.416,3.371-2.416,1.922,0,2.875,1.349,3.642,2.433.797,1.128,1.342,1.819,2.453,1.819s1.656-.691,2.453-1.819c.766-1.084,1.72-2.433,3.642-2.433,1.773,0,2.622,1.283,3.371,2.416.597.902,1.112,1.682,2.003,1.848l-.26,1.393c-1.482-.277-2.249-1.436-2.925-2.459-.73-1.104-1.227-1.78-2.189-1.78-1.131,0-1.681.697-2.484,1.833-.762,1.077-1.709,2.418-3.61,2.418ZM14.173,44.646c-1.901,0-2.848-1.341-3.61-2.418-.803-1.137-1.354-1.833-2.484-1.833-.963,0-1.459.677-2.189,1.78-.677,1.023-1.444,2.183-2.926,2.459l-.26-1.393c.891-.167,1.407-.946,2.004-1.848.749-1.132,1.598-2.416,3.371-2.416,1.922,0,2.875,1.349,3.642,2.433.797,1.128,1.342,1.819,2.453,1.819s1.656-.691,2.453-1.819c.766-1.084,1.72-2.433,3.642-2.433,1.773,0,2.622,1.283,3.371,2.416.597.902,1.112,1.682,2.003,1.848l-.26,1.393c-1.482-.277-2.249-1.436-2.925-2.459-.73-1.104-1.227-1.78-2.189-1.78-1.131,0-1.681.697-2.484,1.833-.762,1.077-1.709,2.418-3.61,2.418Z"/>
  </g>
</svg>