<?xml version="1.0" encoding="UTF-8"?>
<svg xmlns="http://www.w3.org/2000/svg" version="1.1" viewBox="0 0 90.709 90.709">
  <!-- Generator: Adobe Illustrator 29.1.0, SVG Export Plug-In . SVG Version: 2.1.0 Build 142)  -->
  <g id="Grundfläche">
    <rect x="0" y="0" width="90.709" height="90.709" fill="none"/>
  </g>
  <g id="Takt_Zeichen__x28_umgewandelt_x29_">
    <path d="M79.871,14.674l-1.002-1.002-10.081,10.081c-5.831-6.321-14.176-10.289-23.433-10.289s-17.602,3.968-23.433,10.289l-10.081-10.081-1.002,1.002,10.145,10.145c-4.686,5.553-7.518,12.718-7.518,20.535,0,17.584,14.306,31.89,31.89,31.89s31.89-14.306,31.89-31.89c0-7.817-2.832-14.982-7.518-20.535l10.145-10.145ZM45.354,75.827c-16.802,0-30.472-13.67-30.472-30.472s13.67-30.472,30.472-30.472,30.472,13.67,30.472,30.472-13.67,30.472-30.472,30.472ZM65.197,45.354c0,10.959-8.884,19.842-19.842,19.842s-19.842-8.884-19.842-19.842,8.884-19.842,19.842-19.842,19.842,8.884,19.842,19.842Z"/>
  </g>
</svg>