<?xml version="1.0" encoding="UTF-8"?>
<svg xmlns="http://www.w3.org/2000/svg" version="1.1" viewBox="0 0 90.709 90.709">
  <!-- Generator: Adobe Illustrator 29.1.0, SVG Export Plug-In . SVG Version: 2.1.0 Build 142)  -->
  <g id="Grundfläche">
    <rect x="0" width="90.709" height="90.709" fill="none"/>
  </g>
  <g id="Takt_Zeichen__x28_umgewandelt_x29_">
    <path d="M79.354,80.079h-34v-1.417h25.049l-6.295-21.066-41.638,13.827-2.163,7.239h25.049v1.417H11.354v-1.417h7.472L38.401,13.159c.445-1.489,1.841-2.529,3.395-2.529h7.116c1.554,0,2.95,1.04,3.395,2.529l19.575,65.502h7.472v1.417ZM30.94,43.075l-7.976,26.689,40.737-13.527-6.536-21.87-26.226,8.709ZM41.796,12.048c-.932,0-1.77.624-2.037,1.517l-8.323,27.853,25.324-8.409-5.811-19.444c-.267-.893-1.105-1.517-2.037-1.517h-7.116Z"/>
  </g>
</svg>