<?xml version="1.0" encoding="UTF-8"?>
<svg xmlns="http://www.w3.org/2000/svg" version="1.1" viewBox="0 0 90.709 90.709">
  <!-- Generator: Adobe Illustrator 29.1.0, SVG Export Plug-In . SVG Version: 2.1.0 Build 142)  -->
  <g id="Grundfläche">
    <rect x="0" y="0" width="90.709" height="90.709" fill="none"/>
  </g>
  <g id="Takt_Zeichen__x28_umgewandelt_x29_">
    <path d="M46.356,42.519l13.171-13.171,7.139,7.139,8.175-9.992c3.126-3.82,2.851-9.333-.64-12.824-3.491-3.491-9.004-3.765-12.824-.64l-9.991,8.175,7.139,7.139-13.171,13.171-21.675-21.675,5.168-5.168-1.002-1.002-5.168,5.168-5.429-5.428-1.002,1.002,5.429,5.428H5.168l-.142.567,17.084,17.084.567-.142v-16.507l21.675,21.675-30.68,30.68,1.002,1.002,30.68-30.68,30.68,30.68,1.002-1.002-30.68-30.68Z"/>
  </g>
</svg>