<?xml version="1.0" encoding="UTF-8"?>
<svg xmlns="http://www.w3.org/2000/svg" version="1.1" viewBox="0 0 90.709 90.709">
  <!-- Generator: Adobe Illustrator 29.1.0, SVG Export Plug-In . SVG Version: 2.1.0 Build 142)  -->
  <g id="Grundfläche">
    <rect x="0" width="90.709" height="90.709" fill="none"/>
  </g>
  <g id="Takt_Zeichen__x28_umgewandelt_x29_">
    <path d="M65.764,42.894l19.499-8.357-.447-1.042-19.052,8.165v-8.211H24.945v7.813c-1.039-1.494-2.238-2.144-3.854-2.144-2.152,0-3.395,1.417-4.597,2.786-1.301,1.483-2.53,2.883-4.939,2.883-2.566,0-4.442-2.024-5.949-3.65-1.046-1.128-1.872-2.019-2.771-2.019v1.134c.404,0,1.22.88,1.939,1.656,1.57,1.694,3.719,4.013,6.781,4.013,2.923,0,4.447-1.737,5.792-3.269,1.13-1.288,2.106-2.4,3.745-2.4,1.403,0,2.598.58,3.854,3.343v3.336c-1.039-1.494-2.238-2.144-3.854-2.144-2.152,0-3.395,1.417-4.597,2.786-1.301,1.483-2.53,2.883-4.939,2.883-2.566,0-4.442-2.024-5.949-3.65-1.046-1.128-1.872-2.019-2.771-2.019v1.134c.404,0,1.22.88,1.939,1.656,1.57,1.694,3.719,4.013,6.781,4.013,2.923,0,4.447-1.737,5.792-3.269,1.13-1.288,2.106-2.4,3.745-2.4,1.403,0,2.598.58,3.854,3.343v7.995h40.819v-8.211l19.052,8.165.447-1.042-19.499-8.357v-4.922ZM64.63,56.126H26.079v-21.543h38.552v21.543Z"/>
  </g>
</svg>