<?xml version="1.0" encoding="UTF-8"?>
<svg xmlns="http://www.w3.org/2000/svg" version="1.1" viewBox="0 0 90.709 90.709">
  <!-- Generator: Adobe Illustrator 29.1.0, SVG Export Plug-In . SVG Version: 2.1.0 Build 142)  -->
  <g id="Grundfläche">
    <rect x="0" y="0" width="90.709" height="90.709" fill="none"/>
  </g>
  <g id="Takt_Zeichen__x28_umgewandelt_x29_">
    <path d="M46.063,85.039h-1.417v-25.512h1.417v25.512ZM17.359,65.812l-.703-1.23,14.614-8.351c3.528-2.016,7.54-3.081,11.603-3.081h29.117l-4.459-4.459,1.002-1.002,6.096,6.096-6.244,6.244-1.002-1.002,4.459-4.459h-28.969c-3.817,0-7.586,1.001-10.899,2.894l-14.614,8.351ZM68.533,43.021l-1.002-1.002,4.459-4.459h-29.117c-4.063,0-8.075-1.065-11.603-3.081l-14.614-8.351.703-1.23,14.614,8.351c3.314,1.894,7.083,2.894,10.899,2.894h28.969l-4.459-4.459,1.002-1.002,6.244,6.244-6.096,6.096ZM46.063,31.181h-1.417V5.669h1.417v25.512Z"/>
  </g>
</svg>