<?xml version="1.0" encoding="UTF-8"?>
<svg xmlns="http://www.w3.org/2000/svg" version="1.1" viewBox="0 0 90.709 90.709">
  <!-- Generator: Adobe Illustrator 29.1.0, SVG Export Plug-In . SVG Version: 2.1.0 Build 142)  -->
  <g id="Grundfläche">
    <rect x="0" y="0" width="90.709" height="90.709" fill="none"/>
  </g>
  <g id="Takt_Zeichen__x28_umgewandelt_x29_">
    <path d="M37.353,74.409H5.669v-1.417h30.678l19.843-56.693h18.045l5.669,19.842h7.969v1.418h-9.038s-5.669-19.843-5.669-19.843h-15.971l-19.843,56.693ZM45.354,37.559c-2.802,0-4.232-1.635-5.494-3.077-1.217-1.391-2.268-2.593-4.427-2.593s-3.208,1.201-4.425,2.592c-1.261,1.442-2.691,3.077-5.492,3.077s-4.233-1.635-5.495-3.077c-1.218-1.391-2.269-2.593-4.429-2.593s-3.211,1.201-4.429,2.593c-1.262,1.442-2.693,3.077-5.495,3.077v-1.417c2.159,0,3.211-1.201,4.429-2.593,1.262-1.442,2.693-3.077,5.495-3.077s4.233,1.635,5.495,3.077c1.218,1.391,2.269,2.593,4.429,2.593s3.208-1.201,4.425-2.592c1.261-1.442,2.691-3.077,5.492-3.077s4.232,1.635,5.493,3.077c1.217,1.391,2.268,2.593,4.427,2.593v1.417ZM45.354,29.055c-2.802,0-4.232-1.635-5.494-3.077-1.217-1.391-2.268-2.593-4.427-2.593s-3.208,1.201-4.425,2.592c-1.261,1.442-2.691,3.077-5.492,3.077s-4.233-1.635-5.495-3.077c-1.218-1.391-2.269-2.593-4.429-2.593s-3.211,1.201-4.429,2.593c-1.262,1.442-2.693,3.077-5.495,3.077v-1.417c2.159,0,3.211-1.201,4.429-2.593,1.262-1.442,2.693-3.077,5.495-3.077s4.233,1.635,5.495,3.077c1.218,1.391,2.269,2.593,4.429,2.593s3.208-1.201,4.425-2.592c1.261-1.442,2.691-3.077,5.492-3.077s4.232,1.635,5.493,3.077c1.217,1.391,2.268,2.593,4.427,2.593v1.417Z"/>
  </g>
</svg>