<?xml version="1.0" encoding="UTF-8"?>
<svg xmlns="http://www.w3.org/2000/svg" version="1.1" viewBox="0 0 90.709 90.709">
  <!-- Generator: Adobe Illustrator 29.1.0, SVG Export Plug-In . SVG Version: 2.1.0 Build 142)  -->
  <g id="Grundfläche">
    <rect x="0" width="90.709" height="90.709" fill="none"/>
  </g>
  <g id="Takt_Zeichen__x28_umgewandelt_x29_">
    <polygon points="78.804 51.449 70.512 40.393 20.197 40.393 11.905 51.449 10.771 50.598 19.488 38.976 71.22 38.976 79.938 50.598 78.804 51.449"/>
    <polygon points="71.22 26.22 19.488 26.22 10.771 14.598 11.905 13.748 20.197 24.803 70.512 24.803 78.804 13.748 79.938 14.598 71.22 26.22"/>
    <polygon points="28.346 56.693 28.346 76.535 34.016 76.535 34.016 62.362 42.52 62.362 42.52 76.535 48.189 76.535 48.189 62.362 56.693 62.362 56.693 76.535 62.362 76.535 62.362 56.693 28.346 56.693"/>
  </g>
</svg>