<?xml version="1.0" encoding="UTF-8"?>
<svg xmlns="http://www.w3.org/2000/svg" version="1.1" viewBox="0 0 90.709 90.709">
  <!-- Generator: Adobe Illustrator 29.1.0, SVG Export Plug-In . SVG Version: 2.1.0 Build 142)  -->
  <g id="Grundfläche">
    <rect x="0" width="90.709" height="90.709" fill="none"/>
  </g>
  <g id="Takt_Zeichen__x28_umgewandelt_x29_">
    <path d="M56.693,80.078c-19.147,0-34.725-15.577-34.725-34.724S37.546,10.63,56.693,10.63c12.826,0,24.56,7.032,30.624,18.351l.335.625-29.438,15.748,29.438,15.748-.335.625c-6.064,11.319-17.798,18.351-30.624,18.351ZM56.693,12.047c-18.366,0-33.308,14.941-33.308,33.307s14.942,33.307,33.308,33.307c12.065,0,23.125-6.489,29.033-16.981l-29.349-15.701v-1.25l29.349-15.701c-5.909-10.493-16.968-16.981-29.033-16.981Z"/>
    <path d="M11.339,11.339c4.967,0,8.504,4.45,8.504,11.339,0,3.35-1.856,6.034-4.366,7.736-.795.539-1.304,1.406-1.304,2.367v43.756c0,1.565-1.269,2.834-2.834,2.834h-.001"/>
    <path d="M11.339,11.339c-4.967,0-8.504,4.45-8.504,11.339,0,3.35,1.856,6.034,4.366,7.736.795.539,1.304,1.406,1.304,2.367v43.756c0,1.565,1.269,2.834,2.834,2.834h.001"/>
  </g>
</svg>