<?xml version="1.0" encoding="UTF-8"?>
<svg xmlns="http://www.w3.org/2000/svg" version="1.1" viewBox="0 0 90.709 90.709">
  <!-- Generator: Adobe Illustrator 29.1.0, SVG Export Plug-In . SVG Version: 2.1.0 Build 142)  -->
  <g id="Grundfläche">
    <rect x="0" width="90.709" height="90.709" fill="none"/>
  </g>
  <g id="Takt_Zeichen__x28_umgewandelt_x29_">
    <path d="M68.704,80.563c-1.391-4.171-2.798-9.815-2.798-12.532,0-2.805.739-11.436,1.454-19.783.75-8.761,1.459-17.037,1.459-19.902,0-11.933-6.403-17.561-20.108-17.703l5.855-4.333.002-1.35h-18.428v1.35s5.857,4.333,5.857,4.333c-13.705.142-20.108,5.77-20.108,17.703,0,2.865.709,11.141,1.459,19.902.715,8.347,1.454,16.978,1.454,19.783,0,2.716-1.408,8.36-2.798,12.532-.519,1.556-.433,2.878.248,3.823.448.622,1.377,1.362,3.259,1.362h39.685c1.882,0,2.811-.741,3.259-1.362.681-.945.767-2.267.248-3.823ZM52.093,6.377l-5.747,4.253h-1.983l-5.747-4.253h13.478ZM67.306,83.557c-.461.64-1.402.774-2.109.774H25.512c-.708,0-1.648-.134-2.109-.774-.398-.552-.417-1.456-.053-2.545,1.383-4.148,2.871-9.979,2.871-12.98,0-2.865-.709-11.141-1.459-19.903-.715-8.347-1.454-16.977-1.454-19.781,0-11.272,5.925-16.3,19.212-16.3h5.669c13.287,0,19.212,5.027,19.212,16.3,0,2.804-.739,11.435-1.454,19.781-.75,8.762-1.459,17.038-1.459,19.903,0,3.001,1.488,8.832,2.871,12.98.363,1.09.344,1.994-.053,2.545Z"/>
  </g>
</svg>