<?xml version="1.0" encoding="UTF-8"?>
<svg xmlns="http://www.w3.org/2000/svg" version="1.1" viewBox="0 0 90.709 90.709">
  <!-- Generator: Adobe Illustrator 29.1.0, SVG Export Plug-In . SVG Version: 2.1.0 Build 142)  -->
  <g id="Grundfläche">
    <rect x="0" width="90.709" height="90.709" fill="none"/>
  </g>
  <g id="Flächige_Fülung">
    <path d="M19.843,68.032h68.032V17.008c-8.504,3.466-22.678,5.669-34.016,5.669s-25.512-2.325-34.016-5.669h0s0,51.024,0,51.024Z" fill="#fff"/>
  </g>
  <g id="Takt_Zeichen__x28_umgewandelt_x29_">
    <path d="M12.047,17.008h-1.417v23.386H2.126v4.252h8.504v29.764h77.244v-1.417H12.047V17.008ZM3.543,43.229v-1.418h7.087v1.418H3.543ZM87.607,16.351c-8.115,3.307-21.993,5.617-33.749,5.617-11.28,0-25.477-2.364-33.756-5.621l-.259-.049c-3.517,0-6.378,2.861-6.378,6.378,0,3.277,2.485,5.985,5.669,6.339v39.724h69.449V15.953l-.976.398ZM19.134,27.587c-2.401-.345-4.252-2.416-4.252-4.91s1.852-4.565,4.252-4.91v9.82ZM87.166,67.323H20.551V18.035c8.627,3.169,22.115,5.351,33.307,5.351,11.462,0,24.939-2.176,33.308-5.339v49.276Z"/>
  </g>
</svg>