<?xml version="1.0" encoding="UTF-8"?>
<svg xmlns="http://www.w3.org/2000/svg" version="1.1" viewBox="0 0 90.709 90.709">
  <!-- Generator: Adobe Illustrator 29.1.0, SVG Export Plug-In . SVG Version: 2.1.0 Build 142)  -->
  <g id="Grundfläche">
    <rect x="0" width="90.709" height="90.709" fill="none"/>
  </g>
  <g id="Flächige_Fülung">
    <rect x="17.008" y="22.677" width="70.866" height="45.354" fill="#fff"/>
  </g>
  <g id="Takt_Zeichen__x28_umgewandelt_x29_">
    <path d="M12.047,17.008h-1.417v23.386H2.126v4.252h8.504v29.764h77.244v-1.417H12.047V17.008ZM3.543,43.229v-1.418h7.087v1.418H3.543ZM88.582,22.677c0-3.517-2.861-6.378-6.378-6.378-3.277,0-5.982,2.485-6.336,5.669H29.014c-.354-3.184-3.059-5.669-6.336-5.669-3.517,0-6.378,2.861-6.378,6.378v46.063h72.283V22.677ZM82.204,17.716c2.493,0,4.542,1.854,4.889,4.252h-9.779c.347-2.398,2.396-4.252,4.889-4.252ZM22.677,17.716c2.493,0,4.542,1.854,4.889,4.252h-9.779c.347-2.398,2.396-4.252,4.889-4.252ZM17.717,67.323V23.385h69.449v43.938s-69.449,0-69.449,0Z"/>
  </g>
</svg>