<?xml version="1.0" encoding="UTF-8"?>
<svg xmlns="http://www.w3.org/2000/svg" version="1.1" viewBox="0 0 90.709 90.709">
  <!-- Generator: Adobe Illustrator 29.1.0, SVG Export Plug-In . SVG Version: 2.1.0 Build 142)  -->
  <g id="Grundfläche">
    <rect x="0" width="90.709" height="90.709" fill="none"/>
  </g>
  <g id="Flächige_Fülung">
    <path d="M45.354,22.678c-17.008,0-31.181-2.582-42.52-6.378v57.402h85.04V16.3c-11.339,3.794-25.512,6.378-42.52,6.378Z" fill="#fff"/>
  </g>
  <g id="Takt_Zeichen__x28_umgewandelt_x29_">
    <g>
      <path d="M65.74,79.808c-1.522-1.933-3.247-4.123-7.07-4.123-2.903,0-4.585,1.804-6.212,3.549-1.752,1.879-3.564,3.822-7.103,3.822s-5.351-1.943-7.103-3.822c-1.627-1.745-3.309-3.549-6.212-3.549-3.823,0-5.548,2.19-7.07,4.123-1.105,1.403-2.149,2.729-3.919,3.279l.421,1.354c2.19-.681,3.421-2.245,4.612-3.756,1.514-1.922,2.822-3.583,5.957-3.583,2.287,0,3.626,1.436,5.176,3.098,1.867,2.003,3.984,4.272,8.14,4.272s6.272-2.27,8.14-4.272c1.55-1.662,2.889-3.098,5.176-3.098,3.135,0,4.442,1.661,5.957,3.583,1.19,1.511,2.421,3.075,4.612,3.756l.421-1.354c-1.77-.55-2.814-1.876-3.919-3.279Z"/>
      <path d="M84.313,74.41h4.27V15.315s-.934.312-.934.312c-12.575,4.208-26.805,6.341-42.295,6.341S15.628,19.835,3.06,15.628l-.934-.312v59.095h4.269c-1.727,1.294-2.852,3.35-2.852,5.669,0,3.908,3.179,7.086,7.087,7.086s7.087-3.179,7.087-7.086c0-2.319-1.125-4.375-2.852-5.669h60.98c-1.727,1.294-2.852,3.35-2.852,5.669,0,3.908,3.179,7.086,7.087,7.086s7.087-3.179,7.087-7.086c0-2.319-1.125-4.375-2.852-5.669ZM16.299,80.079c0,3.126-2.543,5.669-5.669,5.669s-5.669-2.543-5.669-5.669,2.538-5.664,5.66-5.669h.019c3.122.005,5.66,2.546,5.66,5.669ZM3.543,72.993V17.279c12.483,4.052,26.544,6.106,41.811,6.106s29.322-2.054,41.811-6.107v55.714s-83.622,0-83.622,0ZM80.078,85.748c-3.126,0-5.669-2.543-5.669-5.669s2.538-5.664,5.66-5.669h.019c3.122.005,5.66,2.546,5.66,5.669s-2.543,5.669-5.669,5.669Z"/>
    </g>
  </g>
</svg>