<?xml version="1.0" encoding="UTF-8"?>
<svg xmlns="http://www.w3.org/2000/svg" version="1.1" viewBox="0 0 90.709 90.709">
  <!-- Generator: Adobe Illustrator 29.1.0, SVG Export Plug-In . SVG Version: 2.1.0 Build 142)  -->
  <g id="Grundfläche">
    <rect x="0" width="90.709" height="90.709" fill="none"/>
  </g>
  <g id="Flächige_Fülung">
    <path d="M45.354,22.678c-17.008,0-31.181-2.582-42.52-6.378v57.402h85.04V16.3c-11.339,3.794-25.512,6.378-42.52,6.378Z" fill="#fff"/>
  </g>
  <g id="Takt_Zeichen__x28_umgewandelt_x29_">
    <path d="M82.903,74.41h5.681V15.315s-.934.312-.934.312c-12.575,4.208-26.805,6.341-42.295,6.341S15.628,19.835,3.06,15.628l-.934-.312v59.095h5.68c-1.723,1.296-2.846,3.357-2.846,5.682,0,3.9,3.168,7.073,7.061,7.073h66.665c3.894,0,7.061-3.173,7.061-7.073,0-2.325-1.122-4.386-2.846-5.682ZM3.543,72.993V17.279c12.483,4.052,26.544,6.106,41.811,6.106s29.322-2.054,41.811-6.107v55.714s-83.622,0-83.622,0ZM78.687,85.748H12.022c-3.112,0-5.644-2.538-5.644-5.656s2.527-5.677,5.634-5.682h66.684c3.108.005,5.634,2.552,5.634,5.682s-2.532,5.656-5.644,5.656Z"/>
  </g>
</svg>