<?xml version="1.0" encoding="UTF-8"?>
<svg xmlns="http://www.w3.org/2000/svg" version="1.1" viewBox="0 0 90.709 90.709">
  <!-- Generator: Adobe Illustrator 29.1.0, SVG Export Plug-In . SVG Version: 2.1.0 Build 142)  -->
  <g id="Grundfläche">
    <rect x="0" width="90.709" height="90.709" fill="none"/>
  </g>
  <g id="Flächige_Fülung">
    <path d="M65.197,17.008c-5.67,4.252-12.756,5.67-19.843,5.67s-14.173-1.418-19.843-5.67v56.693h39.685V17.008Z" fill="#fff"/>
  </g>
  <g id="Takt_Zeichen__x28_umgewandelt_x29_">
    <path d="M65.197,16.3h-.236l-.189.142c-4.891,3.668-11.424,5.528-19.417,5.528s-14.527-1.86-19.417-5.528l-1.134.567v57.401h8.524c-1.729,1.293-2.854,3.35-2.854,5.67,0,3.908,3.179,7.086,7.087,7.086s7.087-3.179,7.087-7.086c0-2.32-1.126-4.377-2.854-5.67h7.127c-1.729,1.293-2.854,3.35-2.854,5.67,0,3.908,3.179,7.086,7.087,7.086s7.087-3.179,7.087-7.086c0-2.32-1.126-4.377-2.854-5.67h8.523V29.016c3.184-.354,5.669-3.062,5.669-6.339,0-3.517-2.861-6.377-6.378-6.377ZM43.228,80.08c0,3.126-2.543,5.669-5.669,5.669s-5.669-2.543-5.669-5.669,2.543-5.669,5.669-5.669,5.669,2.543,5.669,5.669ZM58.82,80.08c0,3.126-2.543,5.669-5.669,5.669s-5.669-2.543-5.669-5.669,2.543-5.669,5.669-5.669,5.669,2.543,5.669,5.669ZM64.489,72.992H26.221V18.377c4.995,3.325,11.423,5.009,19.134,5.009s14.139-1.684,19.134-5.01v54.616ZM65.906,27.587v-9.82c2.401.345,4.252,2.415,4.252,4.91s-1.851,4.565-4.252,4.91Z"/>
  </g>
</svg>