<?xml version="1.0" encoding="UTF-8"?>
<svg xmlns="http://www.w3.org/2000/svg" version="1.1" viewBox="0 0 90.709 90.709">
  <!-- Generator: Adobe Illustrator 29.1.0, SVG Export Plug-In . SVG Version: 2.1.0 Build 142)  -->
  <g id="Grundfläche">
    <rect x="0" y="0" width="90.709" height="90.709" fill="none"/>
  </g>
  <g id="Takt_Zeichen__x28_umgewandelt_x29_">
    <path d="M36.065,41.716l-6.302,3.638,6.302,3.638-.708,1.228-6.302-3.638v7.276h-1.417v-7.276l-6.302,3.638-.708-1.228,6.302-3.638-6.302-3.638.708-1.228,6.302,3.638v-7.277h1.417v7.276l6.302-3.638.708,1.228ZM69.373,40.488l-6.302,3.638v-7.277h-1.417v7.276l-6.302-3.638-.708,1.228,6.302,3.638-6.302,3.638.708,1.228,6.302-3.638v7.276h1.417v-7.276l6.302,3.638.708-1.228-6.302-3.638,6.302-3.638-.708-1.228ZM52.366,40.488l-6.302,3.638v-7.277h-1.417v7.276l-6.302-3.638-.708,1.228,6.302,3.638-6.302,3.638.708,1.228,6.302-3.638v7.276h1.417v-7.276l6.302,3.638.708-1.228-6.302-3.638,6.302-3.638-.708-1.228Z"/>
  </g>
</svg>