<?xml version="1.0" encoding="UTF-8"?>
<svg xmlns="http://www.w3.org/2000/svg" version="1.1" viewBox="0 0 90.709 90.709">
  <!-- Generator: Adobe Illustrator 29.1.0, SVG Export Plug-In . SVG Version: 2.1.0 Build 142)  -->
  <g id="Grundfläche">
    <rect x="0" width="90.709" height="90.709" fill="none"/>
  </g>
  <g id="Flächige_Fülung">
    <circle cx="45.009" cy="45.354" r="19.842" fill="#fff"/>
  </g>
  <g id="Takt_Zeichen__x28_umgewandelt_x29_">
    <path d="M63.895,27.816l-1.002-1.002,10.022-10.022,1.002,1.002-10.022,10.022ZM85.04,44.646h-14.174v1.417h14.174v-1.417ZM73.917,72.915l-10.022-10.022-1.002,1.002,10.022,10.022,1.002-1.002ZM46.063,70.866h-1.417v14.174h1.417v-14.174ZM27.816,63.895l-1.002-1.002-10.022,10.022,1.002,1.002,10.022-10.022ZM19.843,44.646H5.669v1.417h14.174v-1.417ZM27.816,26.814l-10.022-10.022-1.002,1.002,10.022,10.022,1.002-1.002ZM46.063,5.669h-1.417v14.173h1.417V5.669ZM65.56,45.354c0-11.332-9.219-20.551-20.551-20.551s-20.551,9.219-20.551,20.551,9.219,20.551,20.551,20.551,20.551-9.219,20.551-20.551ZM64.143,45.354c0,10.55-8.583,19.134-19.134,19.134s-19.134-8.583-19.134-19.134,8.583-19.134,19.134-19.134,19.134,8.583,19.134,19.134Z"/>
  </g>
</svg>