<?xml version="1.0" encoding="UTF-8"?>
<svg xmlns="http://www.w3.org/2000/svg" version="1.1" viewBox="0 0 90.709 90.709">
  <!-- Generator: Adobe Illustrator 29.1.0, SVG Export Plug-In . SVG Version: 2.1.0 Build 142)  -->
  <g id="Grundfläche">
    <rect x="0" width="90.709" height="90.709" fill="none"/>
  </g>
  <g id="Takt_Zeichen__x28_umgewandelt_x29_">
    <path d="M45.354,61.228c-5.627,0-10.205-4.578-10.205-10.205,0-7.176,6.309-10.205,11.875-12.877,5.555-2.667,10.802-5.186,10.802-11.218,0-7.637-6.264-11.055-12.473-11.055-5.969,0-10.107,2.474-12.652,7.564l-3.042-1.521c3.133-6.267,8.414-9.444,15.694-9.444,9.347,0,15.874,5.945,15.874,14.457,0,8.172-6.764,11.419-12.731,14.284-5.337,2.562-9.946,4.775-9.946,9.811,0,3.751,3.052,6.803,6.803,6.803,3.317,0,5.896-1.696,6.9-4.536l3.207,1.134c-1.483,4.196-5.356,6.803-10.107,6.803ZM45.354,68.598c-1.25,0-2.268,1.017-2.268,2.268s1.017,2.268,2.268,2.268,2.268-1.017,2.268-2.268-1.017-2.268-2.268-2.268Z" fill="#fa1919"/>
  </g>
</svg>