<?xml version="1.0" encoding="UTF-8"?>
<svg xmlns="http://www.w3.org/2000/svg" version="1.1" viewBox="0 0 90.709 90.709">
  <!-- Generator: Adobe Illustrator 29.1.0, SVG Export Plug-In . SVG Version: 2.1.0 Build 142)  -->
  <g id="Grundfläche">
    <rect x="0" width="90.709" height="90.709" fill="none"/>
  </g>
  <g id="Flächige_Fülung">
    <rect x="11.339" y="11.339" width="68.031" height="68.031" fill="#fa1919"/>
    <circle cx="45.354" cy="45.354" r="14.173" fill="#fff"/>
  </g>
  <g id="Takt_Zeichen__x28_umgewandelt_x29_">
    <path d="M80.078,80.078H10.63V10.63h69.448v69.448ZM12.047,78.661h66.614V12.047H12.047v66.614ZM45.354,60.236c-8.206,0-14.882-6.676-14.882-14.882s6.676-14.882,14.882-14.882,14.882,6.676,14.882,14.882-6.676,14.882-14.882,14.882ZM45.354,31.889c-7.424,0-13.465,6.041-13.465,13.465s6.041,13.465,13.465,13.465,13.465-6.041,13.465-13.465-6.041-13.465-13.465-13.465Z"/>
  </g>
  <g id="Takt._Zeichen__x28_Typo_x29_">
    <path d="M49.536,48.35h-1.5v3.24h-1.96v-3.24h-5.161l-.14-1.541,5.561-8.222h1.7v8.062h1.5v1.701ZM46.075,41.688h-.04l-3.181,4.961h3.221v-4.961Z"/>
  </g>
</svg>