<?xml version="1.0" encoding="UTF-8"?>
<svg xmlns="http://www.w3.org/2000/svg" version="1.1" viewBox="0 0 90.709 90.709">
  <!-- Generator: Adobe Illustrator 29.1.0, SVG Export Plug-In . SVG Version: 2.1.0 Build 142)  -->
  <g id="Grundfläche">
    <rect x="0" width="90.709" height="90.709" fill="none"/>
  </g>
  <g id="Flächige_Fülung">
    <path d="M70.866,25.512c-.484,0-.959.033-1.433.073-3.483-9.945-12.945-17.08-24.079-17.08-13.239,0-24.121,10.085-25.387,22.991-.955-.203-1.944-.314-2.96-.314-7.828,0-14.173,6.346-14.173,14.174s6.346,14.173,14.173,14.173c0,0,53.805,0,53.858,0,9.393,0,17.008-7.615,17.008-17.008s-7.615-17.008-17.008-17.008Z" fill="#fff"/>
  </g>
  <g id="Takt_Zeichen__x28_umgewandelt_x29_">
    <path d="M30.396,70.093l-6.301,3.638,6.301,3.638-.709,1.228-6.302-3.638v7.277h-1.417v-7.276l-6.301,3.638-.709-1.228,6.302-3.638-6.302-3.638.709-1.228,6.301,3.638v-7.276h1.417v7.277l6.302-3.638.709,1.228ZM75.042,68.866l-6.301,3.638v-7.276h-1.417v7.277l-6.302-3.638-.709,1.228,6.302,3.638-6.302,3.638.709,1.228,6.302-3.638v7.277h1.417v-7.276l6.301,3.638.709-1.228-6.301-3.638,6.301-3.638-.709-1.228ZM52.365,68.866l-6.302,3.638v-7.277h-1.417v7.277l-6.302-3.638-.709,1.228,6.302,3.638-6.302,3.638.709,1.228,6.302-3.638v7.276h1.417v-7.276l6.302,3.638.709-1.228-6.302-3.638,6.302-3.638-.709-1.228ZM88.582,42.52c0-9.769-7.947-17.717-17.716-17.717-.319,0-.635.014-.949.034-3.817-10.217-13.619-17.042-24.562-17.042-13.295,0-24.342,9.775-26.006,22.864-.779-.125-1.563-.187-2.34-.187-8.206,0-14.882,6.676-14.882,14.882s6.676,14.882,14.882,14.882h53.858c9.769,0,17.716-7.947,17.716-17.716ZM19.82,32.189l.775.165.077-.789c1.25-12.743,11.861-22.353,24.682-22.353,10.524,0,19.932,6.674,23.41,16.606l.181.518.547-.046c.454-.038.91-.07,1.374-.07,8.987,0,16.299,7.312,16.299,16.3s-7.312,16.299-16.299,16.299H17.008c-7.425,0-13.465-6.041-13.465-13.465s6.041-13.465,13.465-13.465c.933,0,1.879.101,2.812.299Z"/>
  </g>
</svg>