<?xml version="1.0" encoding="UTF-8"?>
<svg xmlns="http://www.w3.org/2000/svg" version="1.1" viewBox="0 0 90.709 90.709">
  <!-- Generator: Adobe Illustrator 29.1.0, SVG Export Plug-In . SVG Version: 2.1.0 Build 142)  -->
  <g id="Grundfläche">
    <rect x="0" width="90.709" height="90.709" fill="none"/>
  </g>
  <g id="Flächige_Fülung">
    <path d="M42.52,52.739V15.591c0-3.914-3.173-7.087-7.087-7.087s-7.087,3.173-7.087,7.087v37.149c-5.044,2.582-8.504,7.819-8.504,13.875,0,8.61,6.98,15.591,15.591,15.591s15.591-6.98,15.591-15.591c0-6.056-3.46-11.293-8.504-13.875Z" fill="#fff"/>
  </g>
  <g id="Takt_Zeichen__x28_umgewandelt_x29_">
    <path d="M73.701,48.897h-22.677v-1.417h22.677v1.417ZM73.701,36.142h-22.677v1.417h22.677v-1.417ZM73.701,24.803h-22.677v1.417h22.677v-1.417ZM73.701,13.465h-22.677v1.417h22.677v-1.417ZM51.732,66.614c0-5.995-3.247-11.436-8.504-14.302V15.591c0-4.298-3.497-7.795-7.795-7.795s-7.795,3.497-7.795,7.795v36.722c-5.257,2.866-8.504,8.307-8.504,14.302,0,8.988,7.312,16.299,16.299,16.299s16.299-7.312,16.299-16.299ZM41.811,15.591v37.582l.386.197c5.008,2.563,8.118,7.638,8.118,13.244,0,8.206-6.676,14.882-14.882,14.882s-14.882-6.676-14.882-14.882c0-5.606,3.111-10.681,8.118-13.244l.386-.197V15.591c0-3.517,2.861-6.378,6.378-6.378s6.378,2.861,6.378,6.378Z"/>
  </g>
</svg>