<?xml version="1.0" encoding="UTF-8"?>
<svg xmlns="http://www.w3.org/2000/svg" version="1.1" viewBox="0 0 90.709 90.709">
  <!-- Generator: Adobe Illustrator 29.1.0, SVG Export Plug-In . SVG Version: 2.1.0 Build 142)  -->
  <g id="Grundfläche">
    <rect x="0" width="90.709" height="90.709" fill="none"/>
  </g>
  <g id="Flächige_Fülung">
    <rect x="45.354" y="11.339" width="34.016" height="34.016" transform="translate(124.724 56.693) rotate(180)" fill="#fa1919"/>
    <polygon points="45.354 11.339 11.339 11.339 11.339 79.37 79.37 79.37 79.37 45.354 45.354 45.354 45.354 11.339" fill="#14a01e"/>
    <circle cx="45.354" cy="45.354" r="14.173" fill="#fff"/>
  </g>
  <g id="Takt_Zeichen__x28_umgewandelt_x29_">
    <path d="M80.078,80.078H10.63V10.63h69.448v69.448ZM12.047,78.661h66.614v-32.599h-18.442c-.371,7.878-6.896,14.173-14.865,14.173-8.206,0-14.882-6.676-14.882-14.882,0-7.969,6.295-14.495,14.173-14.865V12.047H12.047v66.614ZM45.354,31.889c-7.424,0-13.465,6.041-13.465,13.465s6.041,13.465,13.465,13.465,13.465-6.041,13.465-13.465-6.041-13.465-13.465-13.465ZM60.22,44.646h18.442V12.047h-32.599v18.442c7.644.36,13.797,6.513,14.157,14.157Z"/>
  </g>
  <g id="Takt._Zeichen__x28_Typo_x29_">
    <path d="M46.756,49.93h2.801v1.66h-7.642v-1.66h2.82v-9.322l-2.7.96-.44-1.6,3.661-1.38h1.5v11.342Z"/>
  </g>
</svg>