<?xml version="1.0" encoding="UTF-8"?>
<svg xmlns="http://www.w3.org/2000/svg" version="1.1" viewBox="0 0 90.709 90.709">
  <!-- Generator: Adobe Illustrator 29.1.0, SVG Export Plug-In . SVG Version: 2.1.0 Build 142)  -->
  <g id="Grundfläche">
    <rect x="0" width="90.709" height="90.709" fill="none"/>
  </g>
  <g id="Takt_Zeichen__x28_umgewandelt_x29_">
    <path d="M54.592,8.318l1.368.371-2.889,10.661-1.368-.371,2.889-10.661ZM34.749,82.019l1.368.371,3.336-12.312-1.368-.371-3.336,12.312ZM51.732,45.355c0,3.517-2.861,6.378-6.378,6.378-.31,0-.612-.03-.911-.073l-2.766,10.21-1.368-.371,2.763-10.196c-2.391-.921-4.096-3.236-4.096-5.948,0-3.517,2.861-6.378,6.378-6.378.31,0,.612.03.911.073l3.214-11.862,1.368.371-3.21,11.848c2.391.921,4.095,3.237,4.095,5.949ZM50.315,45.355c0-2.736-2.225-4.961-4.961-4.961s-4.961,2.226-4.961,4.961,2.225,4.961,4.961,4.961,4.961-2.226,4.961-4.961ZM24.814,18.979l1.368.371,2.889-10.661-1.368-.371-2.889,10.661ZM7.86,82.019l1.368.371,3.336-12.312-1.368-.371-3.336,12.312ZM24.843,45.355c0,3.517-2.861,6.378-6.378,6.378-.31,0-.612-.03-.91-.073l-2.767,10.21-1.368-.371,2.763-10.196c-2.391-.921-4.096-3.236-4.096-5.948,0-3.517,2.861-6.378,6.378-6.378.31,0,.613.03.911.073l3.214-11.862,1.368.371-3.21,11.848c2.391.921,4.096,3.237,4.096,5.949ZM23.426,45.355c0-2.736-2.225-4.961-4.961-4.961s-4.961,2.226-4.961,4.961,2.225,4.961,4.961,4.961,4.961-2.226,4.961-4.961ZM81.521,8.318l-2.889,10.661,1.368.371,2.889-10.661-1.368-.371ZM61.678,82.019l1.368.371,3.336-12.312-1.368-.371-3.336,12.312ZM78.662,45.355c0,3.517-2.861,6.378-6.378,6.378-.31,0-.612-.03-.911-.073l-2.767,10.21-1.368-.371,2.763-10.196c-2.391-.921-4.096-3.236-4.096-5.948,0-3.517,2.861-6.378,6.378-6.378.31,0,.612.03.911.073l3.214-11.862,1.368.371-3.21,11.847c2.391.921,4.096,3.237,4.096,5.949ZM77.244,45.355c0-2.736-2.225-4.961-4.961-4.961s-4.961,2.226-4.961,4.961,2.225,4.961,4.961,4.961,4.961-2.226,4.961-4.961Z"/>
  </g>
</svg>