<?xml version="1.0" encoding="UTF-8"?>
<svg xmlns="http://www.w3.org/2000/svg" version="1.1" viewBox="0 0 90.709 90.709">
  <!-- Generator: Adobe Illustrator 29.1.0, SVG Export Plug-In . SVG Version: 2.1.0 Build 142)  -->
  <g id="Grundfläche">
    <rect x="0" y="0" width="90.709" height="90.709" fill="none"/>
  </g>
  <g id="Flächige_Fülung">
    <polygon points="2.835 79.37 45.354 8.504 87.874 79.37 2.835 79.37" fill="#fff"/>
  </g>
  <g id="Takt_Zeichen__x28_umgewandelt_x29_">
    <path d="M87.874,80.078H2.835l-.608-1.073L45.354,7.127l43.127,71.878-.608,1.073ZM4.086,78.661h82.536L45.354,9.882,4.086,78.661Z" fill="#fa1919"/>
  </g>
  <g id="Takt._Zeichen__x28_Typo_x29_">
    <g>
      <path d="M45.517,66.471c-.63.54-2.55,1.92-6.3,1.92-5.46,0-9.51-2.88-9.51-10.8,0-7.41,5.07-10.62,10.14-10.62,3.48,0,5.22,1.44,5.76,1.86l-1.11,2.55c-.48-.42-1.95-1.65-4.56-1.65-3.6,0-6.779,2.25-6.779,7.86,0,5.64,2.34,8.04,6.479,8.04,1.05,0,1.98-.18,2.76-.42v-5.28h-3.72v-2.67h6.84v9.21Z" fill="#fa1919"/>
      <path d="M59.377,51.202c-.54-.42-1.8-1.41-3.75-1.41-2.16,0-3.18.96-3.18,2.19,0,1.47.66,2.25,2.79,3.57l2.01,1.23c2.61,1.62,4.08,3.3,4.08,5.97,0,3.03-2.279,5.64-6.869,5.64-3.3,0-4.95-1.351-5.64-1.92l1.11-2.851c.66.66,2.25,1.92,4.47,1.92,2.49,0,3.63-1.109,3.63-2.37,0-1.59-.78-2.4-2.729-3.69l-2.04-1.35c-2.79-1.86-4.05-3.27-4.05-6.09,0-2.79,2.4-5.07,6.27-5.07,2.94,0,4.35,1.11,4.95,1.56l-1.05,2.67Z" fill="#fa1919"/>
    </g>
  </g>
</svg>