<?xml version="1.0" encoding="UTF-8"?>
<svg xmlns="http://www.w3.org/2000/svg" version="1.1" viewBox="0 0 90.709 90.709">
  <!-- Generator: Adobe Illustrator 29.1.0, SVG Export Plug-In . SVG Version: 2.1.0 Build 142)  -->
  <g id="Grundfläche">
    <rect x="0" width="90.709" height="90.709" fill="none"/>
  </g>
  <g id="Flächige_Fülung">
    <polygon points="2.835 79.37 45.354 8.504 87.874 79.37 2.835 79.37" fill="#fff"/>
  </g>
  <g id="Takt_Zeichen__x28_umgewandelt_x29_">
    <path d="M87.874,80.078H2.835l-.608-1.073L45.354,7.127l43.127,71.878-.608,1.073ZM4.086,78.661h82.536L45.354,9.882,4.086,78.661Z" fill="#fa1919"/>
  </g>
  <g id="Takt._Zeichen__x28_Typo_x29_">
    <path d="M45.324,65.556c-5.43,0-9.21-3.69-9.21-10.709s3.9-10.709,9.33-10.709c5.399,0,9.149,3.689,9.149,10.709s-3.87,10.709-9.27,10.709ZM45.384,46.897c-3.63,0-5.82,2.67-5.82,7.95,0,5.189,2.19,7.95,5.82,7.95,3.57,0,5.79-2.76,5.79-7.95,0-5.28-2.22-7.95-5.79-7.95ZM42.354,42.968c-.99,0-1.709-.6-1.709-1.62s.72-1.65,1.709-1.65c1.02,0,1.71.63,1.71,1.65s-.69,1.62-1.71,1.62ZM48.354,42.968c-1.02,0-1.71-.6-1.71-1.62s.69-1.65,1.71-1.65c.99,0,1.71.63,1.71,1.65s-.72,1.62-1.71,1.62Z" fill="#fa1919"/>
  </g>
</svg>