<?xml version="1.0" encoding="UTF-8"?>
<svg xmlns="http://www.w3.org/2000/svg" version="1.1" viewBox="0 0 90.709 90.709">
  <!-- Generator: Adobe Illustrator 29.1.0, SVG Export Plug-In . SVG Version: 2.1.0 Build 142)  -->
  <g id="Grundfläche">
    <rect x="0" width="90.709" height="90.709" fill="none"/>
  </g>
  <g id="Flächige_Fülung">
    <path d="M70.866,34.016c-.484,0-.959.033-1.433.072-3.482-9.945-12.945-17.08-24.079-17.08-13.239,0-24.121,10.085-25.387,22.991-.955-.203-1.944-.314-2.96-.314-7.828,0-14.174,6.346-14.174,14.174s6.346,14.173,14.174,14.173c0,0,53.805,0,53.858,0,9.393,0,17.008-7.615,17.008-17.008s-7.615-17.008-17.008-17.008Z" fill="#fff"/>
  </g>
  <g id="Takt_Zeichen__x28_umgewandelt_x29_">
    <path d="M70.866,68.74H17.008c-8.206,0-14.882-6.676-14.882-14.882s6.676-14.882,14.882-14.882c.777,0,1.561.062,2.341.187,1.663-13.089,12.71-22.864,26.006-22.864,10.944,0,20.745,6.825,24.562,17.042.314-.021.63-.034.95-.034,9.769,0,17.717,7.947,17.717,17.716s-7.948,17.716-17.717,17.716ZM17.008,40.393c-7.425,0-13.465,6.041-13.465,13.465s6.04,13.465,13.465,13.465h53.858c8.988,0,16.299-7.312,16.299-16.299s-7.312-16.299-16.299-16.299c-.464,0-.92.032-1.374.07l-.547.046-.181-.518c-3.478-9.933-12.886-16.606-23.41-16.606-12.821,0-23.432,9.609-24.681,22.353l-.077.789-.775-.165c-.933-.199-1.879-.299-2.812-.299Z"/>
  </g>
</svg>