<?xml version="1.0" encoding="UTF-8"?>
<svg xmlns="http://www.w3.org/2000/svg" version="1.1" viewBox="0 0 90.709 90.709">
  <!-- Generator: Adobe Illustrator 29.1.0, SVG Export Plug-In . SVG Version: 2.1.0 Build 142)  -->
  <g id="Grundfläche">
    <rect x="0" width="90.709" height="90.709" fill="none"/>
  </g>
  <g id="Flächige_Fülung">
    <polygon points="87.873 11.339 59.528 79.37 87.873 79.37 87.873 11.339" fill="#fff"/>
    <polygon points="59.528 11.339 31.182 79.37 59.528 79.37 59.528 11.339" fill="#fff"/>
    <polygon points="31.182 11.339 2.836 79.37 31.182 79.37 31.182 11.339" fill="#fff"/>
  </g>
  <g id="Takt_Zeichen__x28_umgewandelt_x29_">
    <path d="M87.219,11.066l-26.983,64.76V11.339l-1.363-.272-26.983,64.76V11.339l-1.363-.272L1.773,80.078h86.809V11.339l-1.363-.272ZM3.899,78.661L30.473,14.882v63.779H3.899ZM32.245,78.661L58.819,14.882v63.779h-26.574ZM87.165,78.661h-26.574l26.574-63.779v63.779Z" fill="#fa1919"/>
  </g>
</svg>