<?xml version="1.0" encoding="UTF-8"?>
<svg xmlns="http://www.w3.org/2000/svg" version="1.1" viewBox="0 0 90.709 90.709">
  <!-- Generator: Adobe Illustrator 29.1.0, SVG Export Plug-In . SVG Version: 2.1.0 Build 142)  -->
  <g id="Grundfläche">
    <rect x="0" width="90.709" height="90.709" fill="none"/>
  </g>
  <g id="Flächige_Fülung">
    <rect x="11.339" y="11.339" width="34.015" height="68.031" fill="#14a01e"/>
    <rect x="45.354" y="11.339" width="34.016" height="68.031" fill="#fa1919"/>
    <circle cx="45.354" cy="45.354" r="14.173" fill="#fff"/>
  </g>
  <g id="Takt_Zeichen__x28_umgewandelt_x29_">
    <path d="M80.078,80.078H10.63V10.63h69.448v69.448ZM46.063,78.661h32.599V12.047h-32.599v18.442c7.878.371,14.173,6.896,14.173,14.865s-6.295,14.495-14.173,14.865v18.442ZM12.047,78.661h32.599v-18.442c-7.878-.371-14.173-6.896-14.173-14.865s6.295-14.495,14.173-14.865V12.047H12.047v66.614ZM45.354,31.889c-7.424,0-13.465,6.041-13.465,13.465s6.041,13.465,13.465,13.465,13.465-6.041,13.465-13.465-6.041-13.465-13.465-13.465Z"/>
  </g>
  <g id="Takt._Zeichen__x28_Typo_x29_">
    <path d="M44.135,49.89v.04h5.041v1.66h-7.521l-.14-1.34c4.341-4.661,5.341-5.781,5.341-7.862,0-1.46-.68-2.3-2.081-2.3-1.46,0-2.34.86-2.7,1.24l-.78-1.42c.46-.48,1.64-1.561,3.761-1.561,2.5,0,3.881,1.46,3.881,3.781,0,2.641-1.581,4.521-4.801,7.762Z"/>
  </g>
</svg>