<?xml version="1.0" encoding="UTF-8"?>
<svg xmlns="http://www.w3.org/2000/svg" version="1.1" viewBox="0 0 90.709 90.709">
  <!-- Generator: Adobe Illustrator 29.1.0, SVG Export Plug-In . SVG Version: 2.1.0 Build 142)  -->
  <g id="Grundfläche">
    <rect x="0" y="0" width="90.709" height="90.709" fill="none"/>
  </g>
  <g id="Takt_Zeichen__x28_umgewandelt_x29_">
    <polygon points="6.094 79.937 5.244 78.803 16.299 70.511 16.299 20.197 5.244 11.906 6.094 10.772 17.716 19.488 17.716 71.22 6.094 79.937" fill="#fa1919"/>
    <path d="M62.942,68.741h-1.288v-8.501c-13.293.089-24.371,2.699-35.825,8.427l-.634-1.268c11.864-5.933,23.326-8.579,37.167-8.579h.709v7.773l20.973-21.239-20.973-21.239v7.773h-.709c-13.839,0-25.302-2.646-37.167-8.579l.634-1.268c11.456,5.728,22.533,8.337,35.825,8.427v-8.501h1.288l23.094,23.386-23.094,23.386Z" fill="#3264fa"/>
  </g>
</svg>