<?xml version="1.0" encoding="UTF-8"?>
<svg xmlns="http://www.w3.org/2000/svg" version="1.1" viewBox="0 0 90.709 90.709">
  <!-- Generator: Adobe Illustrator 29.1.0, SVG Export Plug-In . SVG Version: 2.1.0 Build 142)  -->
  <g id="Grundfläche">
    <rect x="0" y="0" width="90.709" height="90.709" fill="none"/>
  </g>
  <g id="Flächige_Fülung">
    <path d="M2.835,45.354c0,17.008,17.008,34.016,42.52,34.016s42.52-17.008,42.52-34.016S70.866,11.339,45.354,11.339,2.835,28.346,2.835,45.354Z" fill="#fff"/>
  </g>
  <g id="Takt_Zeichen__x28_umgewandelt_x29_">
    <path d="M68.032,26.22c-2.27,0-3.385-1.673-4.37-3.15-.901-1.352-1.68-2.52-3.191-2.52s-2.29,1.167-3.191,2.52c-.985,1.477-2.101,3.15-4.37,3.15s-3.384-1.673-4.368-3.15c-.901-1.352-1.678-2.519-3.188-2.519s-2.287,1.167-3.188,2.519c-.984,1.477-2.099,3.15-4.368,3.15s-3.385-1.673-4.37-3.15c-.901-1.352-1.68-2.52-3.191-2.52s-2.29,1.167-3.191,2.52c-.985,1.477-2.101,3.15-4.37,3.15v-1.417c1.511,0,2.289-1.167,3.191-2.52.985-1.477,2.101-3.15,4.37-3.15s3.385,1.673,4.37,3.15c.901,1.352,1.68,2.52,3.191,2.52s2.287-1.167,3.188-2.519c.984-1.477,2.099-3.15,4.368-3.15s3.384,1.673,4.368,3.15c.901,1.352,1.678,2.519,3.188,2.519s2.289-1.167,3.191-2.52c.985-1.477,2.101-3.15,4.37-3.15s3.385,1.673,4.37,3.15c.901,1.352,1.68,2.52,3.191,2.52v1.417ZM68.032,67.323c-1.511,0-2.29-1.167-3.191-2.52-.985-1.477-2.101-3.15-4.37-3.15s-3.385,1.673-4.37,3.15c-.901,1.352-1.68,2.52-3.191,2.52s-2.287-1.167-3.188-2.519c-.984-1.477-2.099-3.15-4.368-3.15s-3.384,1.673-4.368,3.15c-.901,1.352-1.678,2.519-3.188,2.519s-2.289-1.167-3.191-2.52c-.985-1.477-2.101-3.15-4.37-3.15s-3.385,1.673-4.37,3.15c-.901,1.352-1.68,2.52-3.191,2.52v1.417c2.269,0,3.385-1.673,4.37-3.15.901-1.352,1.68-2.52,3.191-2.52s2.289,1.167,3.191,2.52c.985,1.477,2.101,3.15,4.37,3.15s3.384-1.673,4.368-3.15c.901-1.352,1.678-2.519,3.188-2.519s2.287,1.167,3.188,2.519c.984,1.477,2.099,3.15,4.368,3.15s3.385-1.673,4.37-3.15c.901-1.352,1.68-2.52,3.191-2.52s2.289,1.167,3.191,2.52c.985,1.477,2.101,3.15,4.37,3.15v-1.417ZM27.993,45.747c.901-1.352,1.678-2.519,3.188-2.519v-1.417c-2.268,0-3.384,1.673-4.368,3.15-.901,1.352-1.678,2.519-3.188,2.519s-2.29-1.167-3.191-2.52c-.985-1.477-2.101-3.15-4.37-3.15s-3.385,1.673-4.37,3.15c-.901,1.352-1.68,2.52-3.191,2.52v1.417c2.269,0,3.385-1.673,4.37-3.15.901-1.352,1.68-2.52,3.191-2.52s2.289,1.167,3.191,2.52c.985,1.477,2.101,3.15,4.37,3.15s3.384-1.673,4.368-3.15ZM82.205,47.481c-1.511,0-2.289-1.167-3.191-2.52-.985-1.477-2.101-3.15-4.37-3.15s-3.385,1.673-4.37,3.15c-.901,1.352-1.68,2.52-3.191,2.52s-2.287-1.167-3.188-2.519c-.984-1.477-2.099-3.15-4.368-3.15v1.417c1.51,0,2.287,1.167,3.188,2.519.984,1.477,2.099,3.15,4.367,3.15s3.385-1.673,4.37-3.15c.901-1.352,1.68-2.52,3.191-2.52s2.29,1.167,3.191,2.52c.985,1.477,2.101,3.15,4.37,3.15v-1.417ZM57.366,34.238l-1.346-.444-4.993,15.131-4.942-15.129-.274-.488h-1.028l-5.102,15.617-4.993-15.131-1.346.444,5.773,17.494h1.14l5.099-15.609,5.099,15.609h1.14l5.773-17.494ZM88.583,45.354c0-16.7-16.527-34.724-43.229-34.724S2.126,28.655,2.126,45.354s16.527,34.724,43.228,34.724,43.229-18.024,43.229-34.724ZM87.165,45.354c0,16.018-15.985,33.307-41.811,33.307S3.543,61.372,3.543,45.354,19.529,12.047,45.354,12.047s41.811,17.289,41.811,33.307Z" fill="#3264fa"/>
  </g>
</svg>