<?xml version="1.0" encoding="UTF-8"?>
<svg xmlns="http://www.w3.org/2000/svg" version="1.1" viewBox="0 0 90.709 90.709">
  <!-- Generator: Adobe Illustrator 29.1.0, SVG Export Plug-In . SVG Version: 2.1.0 Build 142)  -->
  <g id="Grundfläche">
    <rect x="0" width="90.709" height="90.709" fill="none"/>
  </g>
  <g id="Takt_Zeichen__x28_umgewandelt_x29_">
    <path d="M46.063,65.197h-1.417V25.512h1.417v39.685ZM45.354,86.161L17.464,24.803H5.669v1.417h10.882l28.158,61.947h1.29l28.158-61.947h10.882v-1.417h-11.795l-27.89,61.358ZM81.532,9.177c.967.967,2.237,1.451,3.507,1.451s2.541-.484,3.508-1.451c1.934-1.935,1.934-5.082,0-7.015-.937-.937-2.183-1.453-3.508-1.453s-2.571.516-3.507,1.453c-.002.002-6.835,6.974-6.835,6.974l-7.427-6.987c-.935-.927-2.173-1.44-3.491-1.44-1.325,0-2.571.516-3.508,1.453-1.934,1.934-1.934,5.081,0,7.015.967.967,2.237,1.451,3.508,1.451s2.541-.483,3.507-1.451c.937-.937,1.453-2.183,1.453-3.508,0-.073-.018-.141-.021-.213l4.986,4.692-9.014,9.198,1.013.992,9.034-9.219,9.816,9.239.972-1.032-9.795-9.219,4.349-4.438c0,1.325.516,2.571,1.453,3.507Z"/>
  </g>
</svg>