<?xml version="1.0" encoding="UTF-8"?>
<svg xmlns="http://www.w3.org/2000/svg" version="1.1" viewBox="0 0 90.709 90.709">
  <!-- Generator: Adobe Illustrator 29.1.0, SVG Export Plug-In . SVG Version: 2.1.0 Build 142)  -->
  <g id="Grundfläche">
    <rect x="0" y="0" width="90.709" height="90.709" fill="none"/>
  </g>
  <g id="Takt_Zeichen__x28_umgewandelt_x29_">
    <polygon points="22.252 79.937 10.629 71.22 10.629 19.488 22.252 10.772 23.102 11.906 12.047 20.197 12.047 70.511 23.102 78.803 22.252 79.937" fill="#fa1919"/>
    <path d="M60.107,68.741h-1.288v-8.501c-13.294.089-24.371,2.699-35.825,8.427l-.634-1.268c11.863-5.933,23.326-8.579,37.167-8.579h.709v7.773l20.973-21.239-20.973-21.239v7.773h-.709c-13.839,0-25.302-2.646-37.167-8.579l.634-1.268c11.456,5.728,22.533,8.337,35.825,8.427v-8.501h1.288l23.094,23.386-23.094,23.386Z" fill="#3264fa"/>
  </g>
</svg>