<?xml version="1.0" encoding="UTF-8"?>
<svg xmlns="http://www.w3.org/2000/svg" version="1.1" viewBox="0 0 90.709 90.709">
  <!-- Generator: Adobe Illustrator 29.1.0, SVG Export Plug-In . SVG Version: 2.1.0 Build 142)  -->
  <g id="Grundfläche">
    <rect x="0" y="0" width="90.709" height="90.709" fill="none"/>
  </g>
  <g id="Flächige_Fülung">
    <polygon points="2.835 79.37 45.354 8.504 87.874 79.37 2.835 79.37" fill="#fff"/>
  </g>
  <g id="Takt_Zeichen__x28_umgewandelt_x29_">
    <path d="M45.354,63.071c-3.878,0-5.333-2.826-6.741-5.559-1.531-2.972-2.977-5.779-7.432-5.779-2.492,0-4.259,1.815-4.977,5.112l-1.385-.302c.861-3.958,3.18-6.227,6.361-6.227,5.32,0,7.111,3.479,8.692,6.547,1.324,2.571,2.467,4.791,5.481,4.791s4.157-2.22,5.481-4.791c1.581-3.069,3.372-6.547,8.692-6.547,3.182,0,5.5,2.27,6.362,6.227l-1.385.302c-.717-3.296-2.485-5.112-4.977-5.112-4.456,0-5.901,2.807-7.432,5.779-1.407,2.733-2.863,5.559-6.741,5.559ZM54.095,65.007c1.484-2.56,2.765-4.771,5.433-4.771,1.227,0,4.961,0,4.961,7.795h1.417c0-7.614-3.468-9.212-6.378-9.212h0c-3.484,0-5.098,2.784-6.659,5.477-1.748,3.015-3.398,5.862-7.515,5.862s-5.767-2.847-7.515-5.862c-1.561-2.692-3.174-5.477-6.659-5.477-2.91,0-6.377,1.598-6.377,9.212h1.417c0-7.795,3.733-7.795,4.96-7.795,2.667,0,3.949,2.211,5.433,4.771,1.785,3.079,3.807,6.568,8.741,6.568s6.956-3.489,8.741-6.568ZM88.482,79.005L45.354,7.127,2.227,79.005l.608,1.073h85.039l.608-1.073ZM45.354,9.882l41.268,68.78H4.086L45.354,9.882Z" fill="#3264fa"/>
  </g>
</svg>