<?xml version="1.0" encoding="UTF-8"?>
<svg xmlns="http://www.w3.org/2000/svg" version="1.1" viewBox="0 0 90.709 90.709">
  <!-- Generator: Adobe Illustrator 29.1.0, SVG Export Plug-In . SVG Version: 2.1.0 Build 142)  -->
  <g id="Grundfläche">
    <rect x="0" y="0" width="90.709" height="90.709" fill="none"/>
  </g>
  <g id="Flächige_Fülung">
    <polygon points="2.835 79.37 45.354 8.504 87.874 79.37 2.835 79.37" fill="#fff"/>
  </g>
  <g id="Takt_Zeichen__x28_umgewandelt_x29_">
    <path d="M46.173,25.838l-11.049,21.337,18.787-2.382.734.998-12.258,26.806,8.443-2.412.389,1.362-10.574,3.021-3.049-9.147,1.345-.448,2.266,6.798,11.62-25.411-18.863,2.391-.719-1.029,11.669-22.535,1.259.651ZM88.482,79.005l-.608,1.073H2.835l-.608-1.073L45.354,7.127l43.127,71.878ZM86.622,78.661L45.354,9.882,4.086,78.661h82.536Z" fill="#fa1919"/>
  </g>
</svg>