<?xml version="1.0" encoding="UTF-8"?>
<svg xmlns="http://www.w3.org/2000/svg" version="1.1" viewBox="0 0 90.709 90.709">
  <!-- Generator: Adobe Illustrator 29.1.0, SVG Export Plug-In . SVG Version: 2.1.0 Build 142)  -->
  <g id="Grundfläche">
    <rect x="0" width="90.709" height="90.709" fill="none"/>
  </g>
  <g id="Flächige_Fülung">
    <rect x="2.834" y="17.008" width="85.04" height="56.693" fill="#fa1919"/>
  </g>
  <g id="Takt_Zeichen__x28_umgewandelt_x29_">
    <path d="M57.696,52.441l-12.341-12.341-12.341,12.341,12.341,12.341,12.341-12.341ZM45.355,42.105l10.336,10.336-10.336,10.336-10.336-10.336,10.336-10.336ZM34.146,37.547l-.26-1.394c.891-.167,1.406-.945,2.003-1.848.749-1.133,1.598-2.416,3.372-2.416,1.922,0,2.875,1.349,3.641,2.433.797,1.128,1.342,1.819,2.453,1.819s1.655-.691,2.452-1.819c.767-1.083,1.72-2.433,3.642-2.433,1.773,0,2.622,1.283,3.371,2.416.597.902,1.112,1.682,2.003,1.848l-.26,1.394c-1.482-.277-2.249-1.437-2.926-2.46-.73-1.104-1.227-1.78-2.189-1.78-1.131,0-1.681.697-2.484,1.834-.762,1.077-1.709,2.418-3.61,2.418s-2.849-1.341-3.61-2.418c-.804-1.137-1.354-1.833-2.484-1.833-.963,0-1.459.677-2.189,1.781-.677,1.023-1.443,2.183-2.925,2.459ZM34.146,30.461l-.26-1.394c.891-.167,1.406-.946,2.003-1.848.749-1.132,1.598-2.416,3.372-2.416,1.922,0,2.875,1.349,3.641,2.433.797,1.128,1.343,1.819,2.453,1.819s1.655-.691,2.452-1.819c.767-1.084,1.72-2.433,3.642-2.433,1.773,0,2.622,1.283,3.371,2.416.597.902,1.112,1.682,2.003,1.848l-.26,1.394c-1.482-.277-2.249-1.437-2.926-2.46-.73-1.104-1.227-1.781-2.189-1.781-1.131,0-1.681.697-2.484,1.834-.762,1.078-1.709,2.418-3.61,2.418s-2.849-1.341-3.61-2.418c-.804-1.137-1.354-1.834-2.484-1.834-.963,0-1.459.677-2.189,1.781-.676,1.023-1.443,2.183-2.925,2.46ZM2.126,16.299v58.11h86.457V16.299H2.126ZM87.165,72.992H3.543V17.716h83.623v55.276Z"/>
    <path d="M59.528,14.173c2.348,0,4.252-1.904,4.252-4.252s-1.904-4.252-4.252-4.252-4.252,1.904-4.252,4.252,1.904,4.252,4.252,4.252Z"/>
    <circle cx="31.181" cy="9.921" r="4.252"/>
  </g>
</svg>