<?xml version="1.0" encoding="UTF-8"?>
<svg xmlns="http://www.w3.org/2000/svg" version="1.1" viewBox="0 0 90.709 90.709">
  <!-- Generator: Adobe Illustrator 29.1.0, SVG Export Plug-In . SVG Version: 2.1.0 Build 142)  -->
  <g id="Grundfläche">
    <rect x="0" width="90.709" height="90.709" fill="none"/>
  </g>
  <g id="Flächige_Fülung">
    <rect x="2.834" y="17.008" width="85.04" height="56.693" fill="#fa1919"/>
  </g>
  <g id="Takt_Zeichen__x28_umgewandelt_x29_">
    <path d="M2.125,74.409h86.457V16.299H2.125v58.11ZM5.175,72.992l30.351-20.234-9.098,9.103,1.002,1.002,14.1-14.108,4.589-3.06,17.158,17.168,1.002-1.002-16.958-16.968,10.767-7.178c1.158,1.618,3.048,2.677,5.185,2.677,3.517,0,6.378-2.861,6.378-6.377,0-1.235-.359-2.385-.969-3.363l18.481-12.32v54.66H5.175ZM57.392,36.477l-10.759,7.172,10.3-10.305c-.023.221-.036.445-.036.672,0,.872.177,1.704.495,2.461ZM85.533,17.716l-17.726,11.818c-1.157-1.169-2.76-1.896-4.532-1.896-1.758,0-3.353.715-4.508,1.87l-13.413,13.416-13.413-13.416c-1.155-1.155-2.75-1.87-4.508-1.87-3.517,0-6.378,2.861-6.378,6.378s2.861,6.377,6.378,6.377,6.378-2.861,6.378-6.377c0-.227-.013-.451-.036-.672l10.577,10.583-3.724,3.726L3.543,72.376V17.716h81.99Z"/>
    <circle cx="59.528" cy="9.921" r="4.252"/>
    <path d="M31.181,14.173c2.348,0,4.252-1.904,4.252-4.252s-1.904-4.252-4.252-4.252-4.252,1.904-4.252,4.252,1.904,4.252,4.252,4.252Z"/>
  </g>
</svg>