<?xml version="1.0" encoding="UTF-8"?>
<svg xmlns="http://www.w3.org/2000/svg" version="1.1" viewBox="0 0 90.709 90.709">
  <!-- Generator: Adobe Illustrator 29.1.0, SVG Export Plug-In . SVG Version: 2.1.0 Build 142)  -->
  <g id="Grundfläche">
    <rect x="0" width="90.709" height="90.709" fill="none"/>
  </g>
  <g id="Flächige_Fülung">
    <rect x="2.835" y="17.008" width="85.04" height="56.693" fill="#fa1919"/>
  </g>
  <g id="Takt_Zeichen__x28_umgewandelt_x29_">
    <path d="M2.126,74.409h86.457V16.299H2.126v58.11ZM3.543,46.063h55.691l26.93,26.93H3.543v-26.93ZM61.238,46.063h25.927v25.927l-25.927-25.927ZM87.166,44.646h-25.927l25.927-25.927v25.927ZM86.163,17.716l-26.929,26.929H3.543v-26.929h82.62Z"/>
    <rect x="43.228" y="2.835" width="4.252" height="11.339"/>
  </g>
  <g id="Takt._Zeichen__x28_Typo_x29_">
    <g>
      <path d="M8.129,31.181v-8.275h4.689l-.084,1.067h-3.31v2.734h3.058v1.067h-3.058v3.406h-1.295Z"/>
      <path d="M14.273,31.181v-8.275h1.835c3.118,0,4.545,1.139,4.545,3.981,0,2.986-1.751,4.294-4.677,4.294h-1.703ZM15.568,23.997v6.093h.408c2.147,0,3.31-.899,3.31-3.202,0-2.146-1.103-2.891-3.178-2.891h-.54Z"/>
    </g>
  </g>
</svg>