<?xml version="1.0" encoding="UTF-8"?>
<svg xmlns="http://www.w3.org/2000/svg" version="1.1" viewBox="0 0 90.709 90.709">
  <!-- Generator: Adobe Illustrator 29.1.0, SVG Export Plug-In . SVG Version: 2.1.0 Build 142)  -->
  <g id="Grundfläche">
    <rect x="0" width="90.709" height="90.709" fill="none"/>
  </g>
  <g id="Flächige_Fülung">
    <path d="M45.355,22.678c-17.008,0-31.181-2.582-42.52-6.378v57.402h85.04V16.3c-11.339,3.794-25.512,6.378-42.52,6.378Z" fill="#fa1919"/>
  </g>
  <g id="Takt_Zeichen__x28_umgewandelt_x29_">
    <path d="M70.866,47.481v1.417h-17.717v-7.501l-27.137,27.136-1.002-1.002,28.139-28.139v-8.211h1.417v16.3h16.299ZM87.165,80.079c0,3.908-3.179,7.086-7.087,7.086s-7.087-3.179-7.087-7.086c0-2.319,1.125-4.375,2.852-5.669h-26.256c1.727,1.294,2.852,3.35,2.852,5.669,0,3.908-3.179,7.086-7.087,7.086s-7.087-3.179-7.087-7.086c0-2.319,1.125-4.375,2.852-5.669H14.864c1.727,1.294,2.852,3.35,2.852,5.669,0,3.908-3.179,7.086-7.087,7.086s-7.087-3.179-7.087-7.086c0-2.319,1.125-4.375,2.852-5.669H2.126V15.315s.933.312.933.312c12.569,4.208,26.799,6.341,42.295,6.341s29.719-2.134,42.295-6.341l.934-.312v59.095s-4.27,0-4.27,0c1.727,1.294,2.852,3.35,2.852,5.669ZM10.639,74.41h-.019c-3.122.005-5.66,2.546-5.66,5.669s2.543,5.669,5.669,5.669,5.669-2.543,5.669-5.669-2.538-5.664-5.66-5.669ZM45.364,74.41h-.019c-3.122.005-5.66,2.546-5.66,5.669s2.543,5.669,5.669,5.669,5.669-2.543,5.669-5.669-2.538-5.664-5.66-5.669ZM87.166,72.993V17.279c-12.489,4.053-26.551,6.107-41.811,6.107s-29.328-2.054-41.811-6.106v55.713h83.622ZM85.748,80.079c0-3.123-2.538-5.664-5.66-5.669h-.019c-3.122.005-5.66,2.546-5.66,5.669s2.543,5.669,5.669,5.669,5.669-2.543,5.669-5.669Z"/>
  </g>
</svg>