<?xml version="1.0" encoding="UTF-8"?>
<svg xmlns="http://www.w3.org/2000/svg" version="1.1" viewBox="0 0 90.709 90.709">
  <!-- Generator: Adobe Illustrator 29.1.0, SVG Export Plug-In . SVG Version: 2.1.0 Build 142)  -->
  <g id="Grundfläche">
    <rect x="0" y="0" width="90.709" height="90.709" fill="none"/>
  </g>
  <g id="Flächige_Fülung">
    <path d="M45.355,22.678c-17.008,0-31.181-2.582-42.52-6.378v57.402h85.04V16.3c-11.339,3.794-25.512,6.378-42.52,6.378Z" fill="#fa1919"/>
  </g>
  <g id="Takt_Zeichen__x28_umgewandelt_x29_">
    <path d="M64.488,30.472h-12.756v11.754l-25.304,25.304,1.002,1.002,25.304-25.304h11.754v-12.756ZM63.071,41.811h-9.921v-9.922h9.921v9.922ZM84.313,74.41h4.27V15.316s-.934.312-.934.312c-12.575,4.208-26.805,6.341-42.295,6.341S15.629,19.836,3.06,15.628l-.934-.312v59.095h4.268c-1.727,1.294-2.852,3.349-2.852,5.668,0,3.908,3.179,7.086,7.087,7.086s7.087-3.179,7.087-7.086c0-2.319-1.125-4.375-2.852-5.668h60.979c-1.727,1.294-2.852,3.349-2.852,5.668,0,3.908,3.179,7.086,7.087,7.086s7.087-3.179,7.087-7.086c0-2.319-1.125-4.375-2.852-5.668ZM16.299,80.079c0,3.126-2.543,5.669-5.669,5.669s-5.669-2.543-5.669-5.669,2.533-5.658,5.65-5.668h.039c3.117.011,5.65,2.549,5.65,5.668ZM3.544,72.993V17.28c12.483,4.052,26.544,6.106,41.811,6.106s29.322-2.054,41.811-6.107v55.714s-83.622,0-83.622,0ZM80.078,85.748c-3.126,0-5.669-2.543-5.669-5.669s2.533-5.658,5.65-5.668h.039c3.117.011,5.65,2.549,5.65,5.668s-2.543,5.669-5.669,5.669Z"/>
  </g>
  <g id="Takt._Zeichen__x28_Typo_x29_">
    <g>
      <path d="M10.924,34.436h1.679v.995h-4.582v-.995h1.691v-5.589l-1.619.576-.264-.959,2.195-.828h.899v6.801Z"/>
      <path d="M17.212,31.294v.036c.732.42,1.271,1.02,1.271,2.099,0,1.151-.912,2.146-2.471,2.146-1.487,0-2.339-.887-2.339-2.074,0-1.14.684-1.655,1.295-1.967v-.036c-.684-.432-1.091-1.044-1.091-1.931,0-1.187.971-2.075,2.279-2.075,1.271,0,2.146.743,2.146,1.979,0,.996-.551,1.499-1.091,1.823ZM15.785,31.905c-.456.252-.947.684-.947,1.403,0,.731.479,1.248,1.211,1.248.695,0,1.211-.456,1.211-1.175,0-.708-.54-1.127-1.403-1.451-.024,0-.048-.012-.072-.024ZM16.384,30.946c.408-.252.792-.672.792-1.403,0-.624-.432-1.031-1.08-1.031-.576,0-1.031.372-1.031.995,0,.731.54,1.115,1.319,1.439Z"/>
      <path d="M20.49,37.11h-1.056l3.658-10.674h1.043l-3.646,10.674Z"/>
      <path d="M28.324,34.436h1.679v.995h-4.582v-.995h1.691v-5.589l-1.619.576-.264-.959,2.195-.828h.899v6.801Z"/>
      <path d="M32.753,34.412v.024h3.022v.995h-4.51l-.084-.804c2.603-2.794,3.203-3.466,3.203-4.713,0-.876-.408-1.38-1.248-1.38-.875,0-1.403.516-1.619.744l-.468-.852c.276-.288.983-.936,2.255-.936,1.499,0,2.327.875,2.327,2.267,0,1.583-.947,2.71-2.878,4.653Z"/>
    </g>
  </g>
</svg>