<?xml version="1.0" encoding="UTF-8"?>
<svg xmlns="http://www.w3.org/2000/svg" version="1.1" viewBox="0 0 90.709 90.709">
  <!-- Generator: Adobe Illustrator 29.1.0, SVG Export Plug-In . SVG Version: 2.1.0 Build 142)  -->
  <g id="Grundfläche">
    <rect x="0" y="0" width="90.709" height="90.709" fill="none"/>
  </g>
  <g id="Flächige_Fülung">
    <path d="M45.355,22.678c-17.008,0-31.181-2.582-42.52-6.378v57.402h85.04V16.3c-11.339,3.794-25.512,6.378-42.52,6.378Z" fill="#fa1919"/>
  </g>
  <g id="Takt_Zeichen__x28_umgewandelt_x29_">
    <path d="M82.913,30.472h-12.756v11.754l-25.304,25.304,1.002,1.002,25.304-25.304h11.754v-12.756ZM81.496,41.811h-9.921v-9.922h9.921v9.922ZM84.313,74.41h4.27V15.316s-.934.312-.934.312c-12.575,4.208-26.805,6.341-42.295,6.341S15.629,19.836,3.06,15.628l-.934-.312v59.095h4.268c-1.727,1.294-2.852,3.349-2.852,5.668,0,3.908,3.179,7.086,7.087,7.086s7.087-3.179,7.087-7.086c0-2.319-1.125-4.375-2.852-5.668h60.979c-1.727,1.294-2.852,3.349-2.852,5.668,0,3.908,3.179,7.086,7.087,7.086s7.087-3.179,7.087-7.086c0-2.319-1.125-4.375-2.852-5.668ZM16.299,80.079c0,3.126-2.543,5.669-5.669,5.669s-5.669-2.543-5.669-5.669,2.533-5.658,5.65-5.668h.039c3.117.011,5.65,2.549,5.65,5.668ZM3.544,72.993V17.28c12.483,4.052,26.544,6.106,41.811,6.106s29.322-2.054,41.811-6.107v55.714s-83.622,0-83.622,0ZM80.078,85.748c-3.126,0-5.669-2.543-5.669-5.669s2.533-5.658,5.65-5.668h.039c3.117.011,5.65,2.549,5.65,5.668s-2.543,5.669-5.669,5.669Z"/>
  </g>
  <g id="Takt._Zeichen__x28_Typo_x29_">
    <g>
      <path d="M8.13,35.431v-8.275h1.835c3.118,0,4.545,1.14,4.545,3.981,0,2.986-1.751,4.294-4.677,4.294h-1.703ZM9.425,28.247v6.093h.408c2.146,0,3.31-.9,3.31-3.203,0-2.146-1.104-2.89-3.178-2.89h-.54Z"/>
      <path d="M17.513,27.156v7.208h3.406l-.084,1.067h-4.617v-8.275h1.295Z"/>
      <path d="M26.979,35.431l-.828-2.459h-2.771l-.828,2.459h-1.319l3.083-8.275h1.02l3.07,8.275h-1.427ZM24.784,28.835h-.024l-1.067,3.179h2.159l-1.067-3.179Z"/>
      <path d="M32.572,31.198l3.19,4.233h-1.607l-2.639-3.634h-.672v3.634h-1.295v-8.275h1.295v3.562h.696l2.555-3.562h1.451l-2.975,4.042Z"/>
      <path d="M42.172,34.436h1.679v.995h-4.582v-.995h1.691v-5.589l-1.619.576-.264-.959,2.195-.828h.899v6.801Z"/>
      <path d="M48.46,31.294v.036c.731.42,1.271,1.02,1.271,2.099,0,1.151-.911,2.146-2.47,2.146-1.487,0-2.339-.887-2.339-2.074,0-1.14.684-1.655,1.295-1.967v-.036c-.684-.432-1.092-1.044-1.092-1.931,0-1.187.972-2.075,2.279-2.075,1.271,0,2.147.743,2.147,1.979,0,.996-.552,1.499-1.091,1.823ZM47.033,31.905c-.456.252-.948.684-.948,1.403,0,.731.48,1.248,1.211,1.248.696,0,1.211-.456,1.211-1.175,0-.708-.54-1.127-1.403-1.451-.024,0-.048-.012-.072-.024ZM47.632,30.946c.408-.252.792-.672.792-1.403,0-.624-.432-1.031-1.08-1.031-.576,0-1.031.372-1.031.995,0,.731.54,1.115,1.319,1.439Z"/>
      <path d="M51.737,37.11h-1.055l3.658-10.674h1.043l-3.646,10.674Z"/>
      <path d="M59.572,34.436h1.679v.995h-4.582v-.995h1.691v-5.589l-1.619.576-.264-.959,2.195-.828h.899v6.801Z"/>
      <path d="M64.001,34.412v.024h3.022v.995h-4.51l-.084-.804c2.603-2.794,3.203-3.466,3.203-4.713,0-.876-.408-1.38-1.248-1.38-.875,0-1.403.516-1.619.744l-.468-.852c.276-.288.983-.936,2.255-.936,1.499,0,2.327.875,2.327,2.267,0,1.583-.947,2.71-2.878,4.653Z"/>
    </g>
  </g>
</svg>