<?xml version="1.0" encoding="UTF-8"?>
<svg xmlns="http://www.w3.org/2000/svg" version="1.1" viewBox="0 0 90.709 90.709">
  <!-- Generator: Adobe Illustrator 29.1.0, SVG Export Plug-In . SVG Version: 2.1.0 Build 142)  -->
  <g id="Grundfläche">
    <rect x="0" y="0" width="90.709" height="90.709" fill="none"/>
  </g>
  <g id="Flächige_Fülung">
    <path d="M45.355,22.678c-17.008,0-31.181-2.582-42.52-6.378v57.402h85.04V16.3c-11.339,3.794-25.512,6.378-42.52,6.378Z" fill="#fa1919"/>
  </g>
  <g id="Takt_Zeichen__x28_umgewandelt_x29_">
    <path d="M82.478,33.253l-.545-1.309-16.878,7.032H27.638v5.619c-1.694-.235-2.643-1.313-3.719-2.542-1.262-1.442-2.692-3.077-5.494-3.077s-4.232,1.634-5.494,3.077c-1.217,1.391-2.268,2.593-4.427,2.593v1.417c2.802,0,4.232-1.634,5.494-3.077,1.217-1.391,2.269-2.593,4.427-2.593s3.21,1.202,4.427,2.593c1.149,1.313,2.449,2.771,4.785,3.024v4.254c-1.694-.235-2.643-1.313-3.719-2.542-1.262-1.442-2.692-3.077-5.494-3.077s-4.232,1.634-5.494,3.077c-1.217,1.391-2.268,2.593-4.427,2.593v1.417c2.802,0,4.232-1.634,5.494-3.077,1.217-1.391,2.269-2.593,4.427-2.593s3.21,1.202,4.427,2.593c1.149,1.313,2.449,2.771,4.785,3.024v2.887h37.417l16.878,7.033.545-1.309-16.572-6.905v-13.228l16.572-6.905ZM64.489,53.15H29.055v-12.756h35.433v12.756ZM84.313,74.41h4.27V15.316s-.934.312-.934.312c-12.575,4.208-26.805,6.341-42.295,6.341S15.629,19.836,3.06,15.628l-.934-.312v59.095h4.268c-1.727,1.294-2.852,3.349-2.852,5.668,0,3.908,3.179,7.086,7.087,7.086s7.087-3.179,7.087-7.086c0-2.319-1.125-4.375-2.852-5.668h60.979c-1.727,1.294-2.852,3.349-2.852,5.668,0,3.908,3.179,7.086,7.087,7.086s7.087-3.179,7.087-7.086c0-2.319-1.125-4.375-2.852-5.668ZM16.299,80.079c0,3.126-2.543,5.669-5.669,5.669s-5.669-2.543-5.669-5.669,2.533-5.658,5.65-5.668h.039c3.117.011,5.65,2.549,5.65,5.668ZM3.544,72.993V17.28c12.483,4.052,26.544,6.106,41.811,6.106s29.322-2.054,41.811-6.107v55.714s-83.622,0-83.622,0ZM80.078,85.748c-3.126,0-5.669-2.543-5.669-5.669s2.533-5.658,5.65-5.668h.039c3.117.011,5.65,2.549,5.65,5.668s-2.543,5.669-5.669,5.669Z"/>
  </g>
</svg>