<?xml version="1.0" encoding="UTF-8"?>
<svg xmlns="http://www.w3.org/2000/svg" version="1.1" viewBox="0 0 90.709 90.709">
  <!-- Generator: Adobe Illustrator 29.1.0, SVG Export Plug-In . SVG Version: 2.1.0 Build 142)  -->
  <g id="Grundfläche">
    <rect x="0" y="0" width="90.709" height="90.709" fill="none"/>
  </g>
  <g id="Flächige_Fülung">
    <path d="M45.355,22.678c-17.008,0-31.181-2.582-42.52-6.378v57.402h85.04V16.3c-11.339,3.794-25.512,6.378-42.52,6.378Z" fill="#fa1919"/>
  </g>
  <g id="Takt_Zeichen__x28_umgewandelt_x29_">
    <path d="M70.157,30.472v11.754l-25.304,25.304,1.002,1.002,25.304-25.304h11.754v-12.756h-12.756ZM81.496,41.811h-9.922v-9.922h9.922v9.922Z"/>
    <path d="M84.313,74.41h4.27V15.316s-.934.312-.934.312c-12.575,4.208-26.805,6.341-42.294,6.341S15.629,19.836,3.06,15.628l-.934-.312v59.095h4.268c-1.727,1.294-2.852,3.349-2.852,5.668,0,3.908,3.179,7.086,7.086,7.086s7.086-3.179,7.086-7.086c0-2.319-1.125-4.375-2.851-5.668h60.979c-1.727,1.294-2.852,3.349-2.852,5.668,0,3.908,3.179,7.086,7.086,7.086s7.086-3.179,7.086-7.086c0-2.319-1.125-4.375-2.851-5.668ZM16.299,80.079c0,3.126-2.543,5.669-5.669,5.669s-5.669-2.543-5.669-5.669,2.533-5.658,5.65-5.668h.039c3.117.011,5.65,2.549,5.65,5.668ZM3.544,72.993V17.28c12.483,4.052,26.544,6.106,41.811,6.106s29.322-2.054,41.811-6.107v55.714s-83.622,0-83.622,0ZM80.078,85.748c-3.126,0-5.669-2.543-5.669-5.669s2.533-5.658,5.65-5.668h.039c3.117.011,5.65,2.549,5.65,5.668s-2.543,5.669-5.669,5.669Z"/>
  </g>
  <g id="Takt._Zeichen__x28_Typo_x29_">
    <g>
      <path d="M8.13,35.433v-8.275h1.835c3.118,0,4.545,1.139,4.545,3.982,0,2.986-1.751,4.293-4.677,4.293h-1.703ZM9.425,28.249v6.093h.408c2.147,0,3.31-.899,3.31-3.202,0-2.147-1.104-2.891-3.178-2.891h-.54Z"/>
      <path d="M17.513,27.158v7.208h3.406l-.084,1.067h-4.618v-8.275h1.295Z"/>
      <path d="M26.979,35.433l-.828-2.458h-2.771l-.828,2.458h-1.319l3.083-8.275h1.02l3.07,8.275h-1.427ZM24.784,28.837h-.024l-1.067,3.178h2.159l-1.067-3.178Z"/>
      <path d="M32.572,31.199l3.19,4.234h-1.607l-2.639-3.634h-.671v3.634h-1.295v-8.275h1.295v3.562h.695l2.555-3.562h1.451l-2.975,4.042Z"/>
      <path d="M42.172,34.438h1.679v.996h-4.581v-.996h1.69v-5.589l-1.619.576-.264-.959,2.195-.827h.899v6.8Z"/>
      <path d="M46.601,34.414v.024h3.022v.996h-4.51l-.084-.803c2.603-2.795,3.202-3.467,3.202-4.714,0-.875-.408-1.379-1.247-1.379-.875,0-1.403.516-1.619.743l-.468-.852c.276-.288.983-.936,2.255-.936,1.499,0,2.327.876,2.327,2.267,0,1.583-.948,2.71-2.878,4.653Z"/>
      <path d="M51.738,37.113h-1.056l3.658-10.674h1.043l-3.646,10.674Z"/>
      <path d="M57.773,35.577c-.779,0-1.175-.156-1.331-.252l.216-1.056c.144.084.42.228,1.067.228,1.283,0,2.111-.744,2.207-2.435-.384.264-.899.468-1.583.468-1.332,0-2.183-.948-2.183-2.447,0-1.727,1.127-2.591,2.447-2.591,1.487,0,2.579,1.067,2.579,3.934,0,2.999-1.583,4.15-3.418,4.15ZM59.944,31.152c-.036-1.883-.636-2.614-1.451-2.614-.611,0-1.127.443-1.127,1.475,0,.924.396,1.512,1.295,1.512.576,0,.983-.156,1.283-.372Z"/>
    </g>
  </g>
</svg>