<?xml version="1.0" encoding="UTF-8"?>
<svg xmlns="http://www.w3.org/2000/svg" version="1.1" viewBox="0 0 90.709 90.709">
  <!-- Generator: Adobe Illustrator 29.1.0, SVG Export Plug-In . SVG Version: 2.1.0 Build 142)  -->
  <g id="Grundfläche">
    <rect x="0" width="90.709" height="90.709" fill="none"/>
  </g>
  <g id="Flächige_Fülung">
    <rect x="2.834" y="17.008" width="85.04" height="56.693" fill="#fafa00"/>
  </g>
  <g id="Takt_Zeichen__x28_umgewandelt_x29_">
    <path d="M2.126,74.409h86.457V16.299H2.126v58.11ZM3.543,72.992V25.512h83.622v47.48H3.543Z"/>
  </g>
  <g id="Takt._Zeichen__x28_Typo_x29_">
    <g>
      <path d="M37.629,32.994h-6.24v18.029h-3.24v-18.029h-6.27v-2.67h15.959l-.21,2.67Z"/>
      <path d="M52.479,32.994h-8.279v6.24h7.62v2.7h-7.62v6.419h9.179l-.21,2.67h-12.209v-20.699h11.729l-.21,2.67Z"/>
      <path d="M60.399,30.324v18.029h8.52l-.21,2.67h-11.55v-20.699h3.24Z"/>
    </g>
    <g>
      <path d="M20.451,57.989h-3.31v2.494h3.046v1.08h-3.046v2.567h3.67l-.084,1.067h-4.881v-8.275h4.689l-.084,1.067Z"/>
      <path d="M24.389,65.197h-.996l-2.086-5.793h1.295l1.343,4.209h.024l1.332-4.209h1.175l-2.087,5.793Z"/>
      <path d="M29.777,61.911h.372v-.336c0-.888-.372-1.271-1.08-1.271-.696,0-1.175.348-1.403.54l-.408-.828c.288-.252.923-.755,2.051-.755,1.319,0,2.027.744,2.027,2.339v2.231c0,.575.048,1.115.084,1.367h-1.139c-.012-.168-.036-.384-.036-.636h-.024c-.204.336-.636.779-1.511.779-.947,0-1.595-.684-1.595-1.691,0-1.2,1.164-1.739,2.663-1.739ZM30.149,63.878v-1.176l-.444.024c-.948.048-1.416.275-1.416.827,0,.492.336.804.732.804.611,0,.936-.264,1.127-.479Z"/>
      <path d="M35.645,62.03l2.194,3.167h-1.487l-1.703-2.531h-.456v2.531h-1.223v-8.468l1.223-.12v5.049h.456l1.679-2.255h1.403l-2.086,2.626Z"/>
      <path d="M43.528,65.197h-1.116v-.648h-.024c-.204.24-.671.792-1.727.792-1.223,0-1.871-.768-1.871-2.314v-3.622h1.224v3.418c0,1.031.3,1.463,1.02,1.463.659,0,1.031-.288,1.271-.516v-4.365h1.224v5.793Z"/>
      <path d="M45.798,58.193c-.444,0-.768-.3-.768-.768,0-.48.324-.78.768-.78s.78.3.78.78c0,.468-.336.768-.78.768ZM46.409,65.197h-1.223v-5.793h1.223v5.793Z"/>
      <path d="M52.228,62.594h-3.25c.072,1.187.672,1.703,1.679,1.703.839,0,1.307-.384,1.463-.516l.312.864c-.18.18-.684.695-1.979.695-1.619,0-2.663-.923-2.663-3.094,0-2.051,1.199-2.986,2.566-2.986,1.223,0,1.979.804,1.979,2.291,0,.444-.048.768-.108,1.044ZM48.966,61.731h2.243c.024-.132.024-.228.024-.336,0-.719-.372-1.151-.983-1.151-.708,0-1.223.516-1.283,1.487Z"/>
      <path d="M56.8,60.447c-.06-.036-.216-.096-.492-.096-.719,0-1.127.384-1.307.72v4.126h-1.223v-5.793h1.127v.827h.024c.216-.468.611-.935,1.463-.935.24,0,.42.048.504.072l-.096,1.08Z"/>
      <path d="M62.631,65.197h-1.115v-.648h-.024c-.204.24-.672.792-1.727.792-1.224,0-1.871-.768-1.871-2.314v-3.622h1.223v3.418c0,1.031.3,1.463,1.02,1.463.66,0,1.031-.288,1.271-.516v-4.365h1.223v5.793Z"/>
      <path d="M67.876,65.197v-3.431c0-.995-.312-1.451-1.056-1.451-.636,0-1.067.3-1.307.528v4.354h-1.223v-5.793h1.127v.647h.024c.228-.276.768-.792,1.739-.792,1.235,0,1.907.792,1.907,2.315v3.622h-1.211Z"/>
      <path d="M75.495,60.243h-.792c.168.288.276.624.276.984,0,1.283-.996,1.967-2.291,1.967-.18,0-.359-.012-.527-.036-.168.084-.372.252-.372.492,0,.228.156.384.528.384h1.211c1.235,0,1.955.503,1.955,1.547,0,1.139-1.067,2.159-3.142,2.159-1.439,0-2.207-.552-2.207-1.547,0-.827.624-1.188.971-1.367v-.036c-.24-.191-.348-.468-.348-.804,0-.611.528-.947.695-1.031v-.024c-.587-.3-.971-.864-.971-1.703,0-1.332,1.007-1.967,2.255-1.967.312,0,.611.06.875.144h2.015l-.132.839ZM71.705,65.041c-.228.156-.468.42-.468.875,0,.612.42.875,1.224.875,1.283,0,1.883-.479,1.883-1.043,0-.48-.264-.672-.888-.672h-1.259c-.18,0-.348-.012-.492-.036ZM72.748,60.172c-.6,0-1.139.3-1.139,1.056s.54,1.043,1.115,1.043c.6,0,1.127-.288,1.127-1.043s-.528-1.056-1.104-1.056Z"/>
    </g>
  </g>
</svg>