<?xml version="1.0" encoding="UTF-8"?>
<svg xmlns="http://www.w3.org/2000/svg" version="1.1" viewBox="0 0 90.709 90.709">
  <!-- Generator: Adobe Illustrator 29.1.0, SVG Export Plug-In . SVG Version: 2.1.0 Build 142)  -->
  <g id="Grundfläche">
    <rect x="0" width="90.709" height="90.709" fill="none"/>
  </g>
  <g id="Flächige_Fülung">
    <rect x="2.834" y="17.008" width="85.04" height="56.693" fill="#fff"/>
  </g>
  <g id="Takt_Zeichen__x28_umgewandelt_x29_">
    <circle cx="45.354" cy="9.921" r="4.252"/>
    <path d="M2.125,16.299v58.11h86.457V16.299H2.125ZM3.543,27.496h41.102v17.15H3.543v-17.15ZM31.184,17.716c2.347.002,4.249,1.904,4.249,4.252s-1.904,4.252-4.252,4.252-4.252-1.904-4.252-4.252,1.902-4.25,4.249-4.252h.006ZM45.358,17.716c2.347.002,4.249,1.904,4.249,4.252s-1.904,4.252-4.252,4.252-4.252-1.904-4.252-4.252,1.902-4.25,4.249-4.252h.006ZM59.531,17.716c2.347.002,4.249,1.904,4.249,4.252s-1.904,4.252-4.252,4.252-4.252-1.904-4.252-4.252,1.902-4.25,4.249-4.252h.006ZM46.063,27.496h41.102v17.15h-41.102v-17.15ZM3.543,46.063h41.102v26.93H3.543v-26.93ZM46.063,72.992v-26.93h41.102v26.93h-41.102Z"/>
  </g>
</svg>