<?xml version="1.0" encoding="UTF-8"?>
<svg xmlns="http://www.w3.org/2000/svg" version="1.1" viewBox="0 0 90.709 130.394">
  <!-- Generator: Adobe Illustrator 29.1.0, SVG Export Plug-In . SVG Version: 2.1.0 Build 142)  -->
  <g id="Grundfläche">
    <rect x="0" width="90.709" height="90.709" fill="none"/>
  </g>
  <g id="Flächige_Fülung">
    <rect x="2.834" y="2.835" width="85.04" height="56.693" fill="#fafa00"/>
  </g>
  <g id="Takt_Zeichen__x28_umgewandelt_x29_">
    <path d="M26.43,77.166l3.305,2.597-.875,1.114-3.305-2.597.875-1.114ZM30.512,82.175l3.305,2.597.875-1.114-3.305-2.597-.875,1.114ZM35.471,86.071l3.306,2.597.875-1.114-3.306-2.597-.875,1.114ZM5.721,62.696l3.306,2.598.875-1.114-3.306-2.598-.875,1.114ZM10.679,66.592l3.306,2.597.875-1.114-3.306-2.597-.875,1.114ZM40.429,89.967l3.306,2.597.875-1.114-3.306-2.597-.875,1.114ZM20.596,74.384l3.305,2.597.875-1.114-3.305-2.597-.875,1.114ZM15.638,70.488l3.305,2.597.875-1.114-3.305-2.597-.875,1.114ZM45.387,93.863l3.305,2.597.875-1.114-3.305-2.597-.875,1.114ZM65.22,109.446l3.306,2.597.875-1.114-3.306-2.597-.875,1.114ZM70.179,113.341l3.306,2.597.875-1.114-3.306-2.597-.875,1.114ZM50.346,97.758l3.305,2.597.875-1.114-3.305-2.597-.875,1.114ZM55.304,101.654l3.305,2.597.875-1.114-3.305-2.597-.875,1.114ZM60.262,105.55l3.305,2.597.875-1.114-3.305-2.597-.875,1.114ZM4.883,60.236l.061.048-.875,1.114-1.479-1.162h-.464V2.126h86.457v58.11H4.883ZM3.543,58.819h83.622V11.339H3.543v47.48ZM88.719,116.378l-1.002-1.002-5.512,5.512-5.512-5.512-1.002,1.002,5.512,5.512-5.512,5.512,1.002,1.002,5.512-5.512,5.512,5.512,1.002-1.002-5.512-5.512,5.512-5.512Z"/>
  </g>
  <g id="Takt._Zeichen__x28_Typo_x29_">
    <g>
      <path d="M10.648,28.575c1.955,0,2.771.719,2.771,1.907,0,1.295-.924,1.907-1.787,2.123v.024c.744.168,1.427.684,1.427,1.691,0,1.727-1.439,2.531-3.562,2.531h-1.919l1.307-8.275h1.763ZM9.437,33.168l-.42,2.65h.636c1.283,0,2.075-.444,2.075-1.523,0-.72-.563-1.127-1.643-1.127h-.647ZM10,29.594l-.408,2.579h.528c1.223,0,2.003-.588,2.003-1.595,0-.624-.504-.984-1.631-.984h-.492Z"/>
      <path d="M16.037,34.271h-.54c-.012.12-.012.252-.012.372,0,.972.372,1.343,1.151,1.343.731,0,1.175-.372,1.343-.528l.288.864c-.192.18-.708.671-1.847.671-1.319,0-2.135-.72-2.135-2.362,0-2.411,1.451-3.718,2.962-3.718.899,0,1.463.492,1.463,1.355,0,1.308-.983,2.003-2.674,2.003ZM15.617,33.432h.276c1.295,0,1.703-.348,1.703-.996,0-.384-.216-.587-.552-.587-.611,0-1.175.587-1.427,1.583Z"/>
      <path d="M23.824,31.777l-2.999,4.065v.024h2.542l-.228.983h-4.078l.12-.72,3.083-4.066v-.024h-2.351l.168-.983h3.85l-.108.72Z"/>
      <path d="M26.285,34.271h-.54c-.012.12-.012.252-.012.372,0,.972.372,1.343,1.151,1.343.731,0,1.175-.372,1.343-.528l.288.864c-.192.18-.708.671-1.847.671-1.319,0-2.135-.72-2.135-2.362,0-2.411,1.451-3.718,2.962-3.718.899,0,1.463.492,1.463,1.355,0,1.308-.983,2.003-2.674,2.003ZM25.865,33.432h.276c1.295,0,1.703-.348,1.703-.996,0-.384-.216-.587-.552-.587-.611,0-1.175.587-1.427,1.583Z"/>
      <path d="M30.869,36.85h-1.199l.924-5.793h1.199l-.924,5.793ZM31.505,29.798c-.444,0-.768-.276-.768-.744,0-.479.324-.756.768-.756s.768.276.768.756c0,.468-.324.744-.768.744Z"/>
      <path d="M36.963,32.257c-.108-.084-.444-.324-1.055-.324-1.091,0-2.027.815-2.027,2.626,0,.983.419,1.415,1.187,1.415.648,0,1.02-.275,1.211-.419l.276.875c-.216.18-.671.563-1.703.563-1.331,0-2.183-.768-2.183-2.398,0-2.566,1.667-3.682,3.286-3.682.828,0,1.223.288,1.343.372l-.336.972Z"/>
      <path d="M42.819,33.78l-.492,3.07h-1.199l.492-3.07c.072-.372.096-.696.096-.948,0-.6-.216-.899-.768-.899-.636,0-1.127.432-1.379.66l-.671,4.258h-1.199l1.343-8.468,1.223-.12-.563,3.502h.024c.288-.3.875-.852,1.775-.852.923,0,1.439.576,1.439,1.679,0,.348-.048.731-.12,1.188Z"/>
      <path d="M49.059,33.78l-.492,3.07h-1.199l.492-3.07c.072-.408.108-.708.108-.936,0-.636-.228-.912-.744-.912-.636,0-1.151.408-1.416.647l-.671,4.27h-1.199l.923-5.793h1.104l-.132.779h.024c.252-.288.852-.923,1.895-.923.911,0,1.439.54,1.439,1.667,0,.312-.036.684-.132,1.2Z"/>
      <path d="M54.711,36.85h-1.116l.132-.78h-.024c-.228.288-.72.923-1.823.923-.923,0-1.451-.552-1.451-1.679,0-.36.084-.864.144-1.224l.479-3.034h1.199l-.492,3.034c-.06.348-.108.731-.108.983,0,.612.24.899.744.899.612,0,1.091-.407,1.355-.636l.671-4.281h1.2l-.912,5.793Z"/>
      <path d="M61.491,33.78l-.492,3.07h-1.199l.492-3.07c.072-.408.108-.708.108-.936,0-.636-.228-.912-.744-.912-.635,0-1.151.408-1.415.647l-.672,4.27h-1.199l.924-5.793h1.103l-.132.779h.024c.252-.288.852-.923,1.895-.923.912,0,1.439.54,1.439,1.667,0,.312-.036.684-.132,1.2Z"/>
      <path d="M67.179,36.754c-.252,1.571-.996,2.639-2.975,2.639-1.127,0-1.739-.528-2.002-.792l.467-.972c.192.228.708.744,1.595.744,1.08,0,1.547-.516,1.715-1.535l.12-.755h-.024c-.168.228-.624.887-1.619.887-.936,0-1.703-.671-1.703-2.375,0-2.351,1.547-3.682,3.083-3.682.755,0,1.139.312,1.295.456l.335-.312h.612l-.899,5.697ZM64.876,35.951c.744,0,1.164-.492,1.355-.708l.479-3.082c-.108-.084-.372-.252-.839-.252-1.02,0-1.907.888-1.907,2.723,0,.911.36,1.319.912,1.319Z"/>
    </g>
  </g>
</svg>