<?xml version="1.0" encoding="UTF-8"?>
<svg xmlns="http://www.w3.org/2000/svg" version="1.1" viewBox="0 0 90.709 90.709">
  <!-- Generator: Adobe Illustrator 29.1.0, SVG Export Plug-In . SVG Version: 2.1.0 Build 142)  -->
  <g id="Grundfläche">
    <rect x="0" width="90.709" height="90.709" fill="none"/>
  </g>
  <g id="Flächige_Fülung">
    <circle cx="45.356" cy="45.354" r="34.016" fill="#fafa00"/>
  </g>
  <g id="Takt_Zeichen__x28_umgewandelt_x29_">
    <path d="M68.74,63.071H21.968v-28.346h.995l.133.056c4.783,2.028,13.143,4.196,22.259,4.196s17.475-2.168,22.259-4.196l.133-.056h.995v28.346ZM23.386,61.654h43.937v-25.224c-5.014,1.977-13.154,3.964-21.969,3.964s-16.955-1.987-21.969-3.964v25.224ZM45.356,80.078c-19.147,0-34.724-15.577-34.724-34.724S26.209,10.63,45.356,10.63s34.725,15.577,34.725,34.724-15.577,34.724-34.725,34.724ZM45.356,12.047c-18.365,0-33.307,14.941-33.307,33.307s14.941,33.307,33.307,33.307,33.307-14.941,33.307-33.307S63.721,12.047,45.356,12.047Z"/>
  </g>
  <g id="Takt._Zeichen__x28_Typo_x29_">
    <path d="M52.007,34.016h-2.1v-9.142h-.04l-3.681,9.142h-1.66l-3.701-9.142h-.04v9.142h-2.08v-13.803h2.38l4.341,10.743h.04l4.361-10.743h2.18v13.803Z"/>
  </g>
</svg>