<?xml version="1.0" encoding="UTF-8"?>
<svg xmlns="http://www.w3.org/2000/svg" version="1.1" viewBox="0 0 90.709 90.709">
  <!-- Generator: Adobe Illustrator 29.1.0, SVG Export Plug-In . SVG Version: 2.1.0 Build 142)  -->
  <g id="Grundfläche">
    <rect x="0" width="90.709" height="90.709" fill="none"/>
  </g>
  <g id="Flächige_Fülung">
    <circle cx="45.356" cy="45.354" r="34.016" fill="#fafa00"/>
  </g>
  <g id="Takt_Zeichen__x28_umgewandelt_x29_">
    <path d="M45.356,10.63c-19.147,0-34.725,15.577-34.725,34.724s15.577,34.724,34.725,34.724,34.724-15.577,34.724-34.724S64.503,10.63,45.356,10.63ZM45.356,78.661c-18.366,0-33.308-14.941-33.308-33.307S26.99,12.047,45.356,12.047s33.307,14.941,33.307,33.307-14.941,33.307-33.307,33.307ZM70.866,36.85v17.008l-25.512-8.504,25.512-8.504ZM19.842,36.85l25.511,8.504-25.511,8.504v-17.008Z"/>
  </g>
</svg>