<?xml version="1.0" encoding="UTF-8"?>
<svg xmlns="http://www.w3.org/2000/svg" version="1.1" viewBox="0 0 90.709 90.709">
  <!-- Generator: Adobe Illustrator 29.1.0, SVG Export Plug-In . SVG Version: 2.1.0 Build 142)  -->
  <g id="Grundfläche">
    <rect x="0" y="0" width="90.709" height="90.709" fill="none"/>
  </g>
  <g id="Flächige_Fülung">
    <rect x="19.297" y="19.297" width="52.114" height="52.114" transform="translate(45.354 -18.786) rotate(45)" fill="#fafa00"/>
  </g>
  <g id="Takt_Zeichen__x28_umgewandelt_x29_">
    <path d="M45.354,7.502L7.502,45.354l37.853,37.853,37.852-37.853L45.354,7.502ZM9.506,45.354l22.677-22.677h26.342l22.677,22.677-35.848,35.848L9.506,45.354Z"/>
  </g>
  <g id="Takt._Zeichen__x28_Typo_x29_">
    <g>
      <path d="M34.067,46.699c0,3.981-1.76,5.981-5.281,5.981s-5.161-1.8-5.161-5.981v-8.062h2.16v8.122c0,2.86,1.04,4.081,3.101,4.081,2.12,0,3.101-1.16,3.101-4.081v-8.122h2.08v8.062Z"/>
      <path d="M45.107,40.418h-5.521v4.161h5.081v1.8h-5.081v4.281h6.121l-.14,1.78h-8.142v-13.803h7.822l-.14,1.78Z"/>
      <path d="M56.227,52.441l-1.38-4.101h-4.621l-1.38,4.101h-2.2l5.141-13.803h1.7l5.121,13.803h-2.38ZM52.566,41.439h-.04l-1.78,5.301h3.601l-1.78-5.301Z"/>
      <path d="M62.665,38.638v12.022h5.681l-.14,1.78h-7.701v-13.803h2.16Z"/>
    </g>
  </g>
</svg>