<?xml version="1.0" encoding="UTF-8"?>
<svg xmlns="http://www.w3.org/2000/svg" version="1.1" viewBox="0 0 90.709 90.709">
  <!-- Generator: Adobe Illustrator 29.1.0, SVG Export Plug-In . SVG Version: 2.1.0 Build 142)  -->
  <g id="Grundfläche">
    <rect x="0" y="0" width="90.709" height="90.709" fill="none"/>
  </g>
  <g id="Flächige_Fülung">
    <rect x="19.297" y="19.297" width="52.114" height="52.114" transform="translate(45.354 -18.786) rotate(45)" fill="#fafa00"/>
  </g>
  <g id="Takt_Zeichen__x28_umgewandelt_x29_">
    <path d="M36.445,3.448l-3.847,2.221,3.847,2.221-.708,1.228-3.847-2.221v4.442h-1.417v-4.442l-3.847,2.221-.708-1.228,3.847-2.221-3.847-2.221.708-1.228,3.847,2.221V0h1.417v4.442l3.847-2.221.708,1.228ZM64.792,3.448l-.708-1.228-3.847,2.221V0h-1.417v4.442l-3.847-2.221-.708,1.228,3.847,2.221-3.847,2.221.708,1.228,3.847-2.221v4.442h1.417v-4.442l3.847,2.221.708-1.228-3.847-2.221,3.847-2.221Z"/>
    <path d="M45.354,7.502L7.502,45.354l37.853,37.853,37.853-37.853L45.354,7.502ZM9.506,45.354l22.677-22.677h26.342l22.677,22.677-35.848,35.848L9.506,45.354Z"/>
  </g>
  <g id="Takt._Zeichen__x28_Typo_x29_">
    <g>
      <path d="M30.312,38.638v12.022h5.681l-.14,1.78h-7.702v-13.803h2.16Z"/>
      <path d="M48.593,52.441h-1.92l-6.381-9.742h-.04v9.742h-2.16v-13.803h1.94l6.361,9.682h.04v-9.682h2.16v13.803Z"/>
      <path d="M60.073,52.441l-1.38-4.101h-4.621l-1.38,4.101h-2.2l5.141-13.803h1.7l5.121,13.803h-2.38ZM56.412,41.439h-.04l-1.78,5.301h3.601l-1.78-5.301Z"/>
    </g>
  </g>
</svg>