<?xml version="1.0" encoding="UTF-8"?>
<svg xmlns="http://www.w3.org/2000/svg" version="1.1" viewBox="0 0 90.709 90.709">
  <!-- Generator: Adobe Illustrator 29.1.0, SVG Export Plug-In . SVG Version: 2.1.0 Build 142)  -->
  <g id="Grundfläche">
    <rect x="0" y="0" width="90.709" height="90.709" fill="none"/>
  </g>
  <g id="Flächige_Fülung">
    <rect x="19.297" y="19.297" width="52.114" height="52.114" transform="translate(45.354 -18.786) rotate(45)" fill="#003296"/>
  </g>
  <g id="Takt_Zeichen__x28_umgewandelt_x29_">
    <path d="M45.354,7.502L7.501,45.354l37.853,37.853,37.853-37.853L45.354,7.502ZM57.816,21.968h-24.924l12.462-12.462,12.462,12.462ZM9.506,45.354l21.969-21.969h27.758l21.969,21.969-35.848,35.848L9.506,45.354Z"/>
  </g>
  <g id="Takt._Zeichen__x28_Typo_x29_">
    <g>
      <path d="M34.777,40.418h-4.161v12.022h-2.16v-12.022h-4.181v-1.78h10.642l-.14,1.78Z" fill="#fff"/>
      <path d="M47.577,52.441h-2.16v-6.062h-6.262v6.062h-2.16v-13.803h2.16v5.941h6.262v-5.941h2.16v13.803Z" fill="#fff"/>
      <path d="M63.197,52.441h-1.84l-3.021-10.282h-.04l-3.041,10.282h-1.82l-3.741-13.803h2.321l2.44,10.362h.04l2.92-10.362h2.041l2.821,10.362h.04l2.5-10.362h2.18l-3.801,13.803Z" fill="#fff"/>
    </g>
    <g>
      <path d="M61.267,77.742c-.192-.144-.624-.479-1.248-.479-.564,0-.852.228-.852.516,0,.384.24.563.815.852l.396.192c.899.444,1.427.936,1.427,1.823,0,.972-.695,1.703-2.123,1.703-.996,0-1.523-.372-1.787-.611l.407-1.02c.24.24.684.6,1.355.6.636,0,.995-.228.995-.552,0-.468-.312-.624-.936-.959l-.384-.204c-.827-.42-1.283-.912-1.283-1.763,0-.936.828-1.571,1.967-1.571.935,0,1.403.372,1.607.54l-.359.936Z"/>
      <path d="M66.019,77.406h-1.416v2.699c0,.875.229,1.188.816,1.188.3,0,.54-.096.648-.144l.107.936c-.107.06-.443.252-1.067.252-1.211,0-1.727-.624-1.727-2.099v-2.831h-.792v-.839l.792-.144.144-1.619h1.079v1.607h1.547l-.132.995Z"/>
      <path d="M69.703,82.204h-.995l-2.087-5.793h1.295l1.344,4.209h.023l1.332-4.209h1.175l-2.087,5.793Z"/>
      <path d="M78.642,82.348c-2.171,0-3.682-1.475-3.682-4.281s1.559-4.282,3.729-4.282c2.159,0,3.658,1.476,3.658,4.282s-1.547,4.281-3.706,4.281ZM78.666,74.888c-1.451,0-2.327,1.067-2.327,3.179,0,2.075.875,3.178,2.327,3.178,1.427,0,2.315-1.103,2.315-3.178,0-2.111-.888-3.179-2.315-3.179Z"/>
      <path d="M87.57,77.947v.024c.888.168,1.727.815,1.727,1.955,0,1.332-.984,2.279-3.31,2.279h-1.955v-8.275h1.847c2.339,0,3.19.827,3.19,2.146,0,1.175-.731,1.631-1.499,1.871ZM85.879,74.972h-.552v2.543h.54c1.271,0,1.871-.504,1.871-1.367,0-.708-.528-1.176-1.859-1.176ZM86.059,78.558h-.732v2.591h.66c1.391,0,1.955-.456,1.955-1.319,0-.815-.684-1.271-1.883-1.271Z"/>
    </g>
  </g>
</svg>