<?xml version="1.0" encoding="UTF-8"?>
<svg xmlns="http://www.w3.org/2000/svg" version="1.1" viewBox="0 0 90.709 90.709">
  <!-- Generator: Adobe Illustrator 29.1.0, SVG Export Plug-In . SVG Version: 2.1.0 Build 142)  -->
  <g id="Grundfläche">
    <rect x="0" y="0" width="90.709" height="90.709" fill="none"/>
  </g>
  <g id="Flächige_Fülung">
    <rect x="19.297" y="24.966" width="52.114" height="52.114" transform="translate(49.363 -17.126) rotate(45)" fill="#fff"/>
  </g>
  <g id="Takt_Zeichen__x28_umgewandelt_x29_">
    <path d="M49.606,7.086c0,2.348-1.904,4.252-4.252,4.252-2.348,0-4.252-1.904-4.252-4.252s1.904-4.252,4.252-4.252c2.348,0,4.252,1.904,4.252,4.252ZM59.528,2.834c-2.348,0-4.252,1.904-4.252,4.252s1.904,4.252,4.252,4.252c2.348,0,4.252-1.904,4.252-4.252,0-2.348-1.904-4.252-4.252-4.252ZM31.181,2.834c-2.348,0-4.252,1.904-4.252,4.252s1.904,4.252,4.252,4.252c2.348,0,4.252-1.904,4.252-4.252,0-2.348-1.904-4.252-4.252-4.252Z"/>
    <path d="M45.354,13.171L7.501,51.023l37.853,37.853,37.853-37.853L45.354,13.171ZM80.494,50.315h-34.431v-21.969h12.462l21.969,21.969ZM44.645,28.346v21.969H10.214l21.969-21.969h12.462ZM10.215,51.732h33.429l-16.715,16.714-16.714-16.714ZM44.645,52.734v33.428l-16.714-16.714,16.714-16.714ZM46.063,86.163v-33.429l16.714,16.715-16.714,16.714ZM47.066,51.732h33.428l-16.715,16.715-16.713-16.715Z"/>
  </g>
  <g id="Takt._Zeichen__x28_Typo_x29_">
    <g>
      <path d="M66.377,87.873v-8.275h1.835c3.118,0,4.545,1.14,4.545,3.982,0,2.986-1.751,4.293-4.677,4.293h-1.703ZM67.672,80.69v6.093h.408c2.147,0,3.31-.9,3.31-3.203,0-2.147-1.103-2.89-3.178-2.89h-.54Z"/>
      <path d="M78.71,87.873l-1.871-3.214c-.192.024-.384.024-.588.024h-.492v3.19h-1.295v-8.275h1.847c2.291,0,3.334.852,3.334,2.435,0,1.08-.504,1.907-1.535,2.339l2.159,3.502h-1.559ZM76.312,80.665h-.552v2.963h.492c1.379,0,2.015-.552,2.015-1.56,0-.959-.612-1.403-1.955-1.403Z"/>
      <path d="M84.591,83.64l3.19,4.233h-1.607l-2.639-3.634h-.672v3.634h-1.295v-8.275h1.295v3.562h.696l2.554-3.562h1.451l-2.974,4.042Z"/>
    </g>
  </g>
</svg>