<?xml version="1.0" encoding="UTF-8"?>
<svg xmlns="http://www.w3.org/2000/svg" version="1.1" viewBox="0 0 90.709 90.709">
  <!-- Generator: Adobe Illustrator 29.1.0, SVG Export Plug-In . SVG Version: 2.1.0 Build 142)  -->
  <g id="Grundfläche">
    <rect x="0" width="90.709" height="90.709" fill="none"/>
  </g>
  <g id="Flächige_Fülung">
    <rect x="19.297" y="19.297" width="52.114" height="52.114" transform="translate(45.354 -18.786) rotate(45)" fill="#fafa00"/>
  </g>
  <g id="Takt_Zeichen__x28_umgewandelt_x29_">
    <polygon points="35.737 2.221 31.89 4.442 31.89 0 30.472 0 30.472 4.442 26.626 2.221 25.917 3.448 29.764 5.669 25.917 7.89 26.626 9.118 30.472 6.897 30.472 11.339 31.89 11.339 31.89 6.897 35.737 9.118 36.445 7.89 32.598 5.669 36.445 3.448 35.737 2.221"/>
    <polygon points="64.083 2.221 60.236 4.442 60.236 0 58.819 0 58.819 4.442 54.972 2.221 54.263 3.448 58.11 5.669 54.263 7.89 54.972 9.118 58.819 6.897 58.819 11.339 60.236 11.339 60.236 6.897 64.083 9.118 64.792 7.89 60.945 5.669 64.792 3.448 64.083 2.221"/>
    <path d="M45.354,7.502L7.502,45.354l37.853,37.853,37.853-37.853L45.354,7.502ZM9.506,45.354l22.677-22.677h26.342l22.677,22.677-35.848,35.848L9.506,45.354Z"/>
  </g>
  <g id="Takt._Zeichen__x28_Typo_x29_">
    <g>
      <path d="M76.645,82.205h-1.259v-5.481h-.024l-2.207,5.481h-.996l-2.219-5.481h-.024v5.481h-1.247v-8.275h1.427l2.603,6.44h.024l2.615-6.44h1.307v8.275Z"/>
      <path d="M84.65,81.581c-.252.216-1.02.768-2.519.768-2.183,0-3.802-1.151-3.802-4.317,0-2.962,2.027-4.246,4.054-4.246,1.391,0,2.087.576,2.303.744l-.444,1.02c-.192-.168-.78-.66-1.823-.66-1.439,0-2.71.899-2.71,3.143,0,2.255.936,3.214,2.591,3.214.42,0,.792-.072,1.103-.168v-2.11h-1.487v-1.067h2.735v3.682Z"/>
    </g>
    <g>
      <path d="M25.125,38.638v12.023h5.681l-.14,1.78h-7.701v-13.803h2.16Z"/>
      <path d="M37.186,44.439h-2.36v4.501c0,1.46.38,1.98,1.36,1.98.5,0,.9-.16,1.08-.24l.18,1.561c-.18.1-.74.42-1.78.42-2.021,0-2.881-1.04-2.881-3.501v-4.721h-1.32v-1.4l1.32-.24.24-2.7h1.8v2.681h2.581l-.22,1.66Z"/>
      <path d="M44.346,44.519c-.1-.06-.36-.16-.82-.16-1.2,0-1.88.64-2.18,1.2v6.882h-2.041v-9.662h1.88v1.38h.04c.36-.78,1.02-1.56,2.44-1.56.4,0,.7.08.84.12l-.16,1.801Z"/>
      <path d="M56.467,51.401c-.42.36-1.701,1.28-4.201,1.28-3.641,0-6.341-1.92-6.341-7.202,0-4.941,3.381-7.081,6.762-7.081,2.32,0,3.48.96,3.841,1.24l-.74,1.7c-.32-.28-1.3-1.101-3.041-1.101-2.4,0-4.521,1.5-4.521,5.241,0,3.761,1.561,5.361,4.321,5.361.7,0,1.32-.12,1.84-.28v-3.521h-2.48v-1.78h4.561v6.141Z"/>
      <path d="M67.527,52.441l-1.38-4.101h-4.621l-1.38,4.101h-2.201l5.141-13.803h1.701l5.121,13.803h-2.38ZM63.866,41.438h-.04l-1.78,5.302h3.601l-1.78-5.302Z"/>
    </g>
  </g>
</svg>