<?xml version="1.0" encoding="UTF-8"?>
<svg xmlns="http://www.w3.org/2000/svg" version="1.1" viewBox="0 0 90.709 90.709">
  <!-- Generator: Adobe Illustrator 29.1.0, SVG Export Plug-In . SVG Version: 2.1.0 Build 142)  -->
  <g id="Grundfläche">
    <rect x="0" y="0" width="90.709" height="90.709" fill="none"/>
  </g>
  <g id="Flächige_Fülung">
    <rect x="2.835" y="17.008" width="85.04" height="56.693" fill="#fff"/>
    <rect x="5.669" y="19.842" width="79.37" height="51.024" fill="#003296"/>
  </g>
  <g id="Takt_Zeichen__x28_umgewandelt_x29_">
    <path d="M88.583,74.409H2.126V16.3h86.457v58.11ZM3.543,72.992h83.622V17.717H3.543v55.276Z"/>
    <path d="M63.779,9.921c0,2.348-1.904,4.252-4.252,4.252-2.348,0-4.252-1.904-4.252-4.252s1.904-4.252,4.252-4.252c2.348,0,4.252,1.904,4.252,4.252ZM31.181,5.669c-2.348,0-4.252,1.904-4.252,4.252s1.904,4.252,4.252,4.252c2.348,0,4.252-1.904,4.252-4.252s-1.904-4.252-4.252-4.252Z"/>
  </g>
  <g id="Takt._Zeichen__x28_Typo_x29_">
    <g>
      <path d="M42.626,51.264c-3.621,0-6.141-2.46-6.141-7.142s2.601-7.142,6.221-7.142c3.601,0,6.101,2.461,6.101,7.142s-2.581,7.142-6.181,7.142ZM42.666,38.822c-2.42,0-3.881,1.78-3.881,5.301,0,3.461,1.46,5.301,3.881,5.301,2.381,0,3.861-1.84,3.861-5.301,0-3.521-1.48-5.301-3.861-5.301ZM40.646,36.2c-.66,0-1.14-.399-1.14-1.08s.48-1.1,1.14-1.1c.68,0,1.14.42,1.14,1.1s-.46,1.08-1.14,1.08ZM44.647,36.2c-.68,0-1.14-.399-1.14-1.08s.46-1.1,1.14-1.1c.66,0,1.14.42,1.14,1.1s-.48,1.08-1.14,1.08Z" fill="#fff"/>
      <path d="M53.265,48.303c0,.98.26,1.26.9,1.26.34,0,.58-.08.7-.12l.12,1.42c-.14.1-.66.34-1.48.34-1.42,0-2.26-.66-2.26-2.68v-11.623l2.02-.2v11.603Z" fill="#fff"/>
    </g>
    <path d="M14.345,68.031l-.828-2.458h-2.771l-.827,2.458h-1.319l3.082-8.275h1.02l3.07,8.275h-1.427ZM12.15,61.435h-.024l-1.067,3.178h2.159l-1.067-3.178Z" fill="#fff"/>
    <g>
      <path d="M62.953,60.823h-2.495v7.208h-1.295v-7.208h-2.507v-1.067h6.38l-.084,1.067Z" fill="#fff"/>
      <path d="M70.633,68.031h-1.295v-3.634h-3.754v3.634h-1.295v-8.275h1.295v3.562h3.754v-3.562h1.295v8.275Z" fill="#fff"/>
      <path d="M80.004,68.031h-1.104l-1.811-6.164h-.024l-1.823,6.164h-1.091l-2.243-8.275h1.391l1.463,6.213h.024l1.751-6.213h1.223l1.691,6.213h.024l1.499-6.213h1.307l-2.279,8.275Z" fill="#fff"/>
    </g>
  </g>
</svg>