<?xml version="1.0" encoding="UTF-8"?>
<svg xmlns="http://www.w3.org/2000/svg" version="1.1" viewBox="0 0 90.709 90.709">
  <!-- Generator: Adobe Illustrator 29.1.0, SVG Export Plug-In . SVG Version: 2.1.0 Build 142)  -->
  <g id="Grundfläche">
    <rect x="0" width="90.709" height="90.709" fill="none"/>
  </g>
  <g id="Flächige_Fülung">
    <path d="M45.355,22.678c-17.008,0-31.181-2.582-42.52-6.378v57.402h85.04V16.3c-11.339,3.794-25.512,6.378-42.52,6.378Z" fill="#fff"/>
    <path d="M45.355,25.513c-14.369,0-27.698-1.797-39.685-5.347v50.702h79.37V20.165c-11.993,3.55-25.321,5.348-39.685,5.348Z" fill="#003296"/>
  </g>
  <g id="Takt_Zeichen__x28_umgewandelt_x29_">
    <path d="M82.903,74.411h5.68V15.316s-.934.312-.934.312c-12.575,4.208-26.805,6.341-42.295,6.341S15.629,19.836,3.06,15.628l-.934-.312v59.095h5.679c-1.723,1.295-2.845,3.356-2.845,5.682,0,3.9,3.168,7.073,7.061,7.073h66.665c3.894,0,7.061-3.173,7.061-7.073,0-2.325-1.122-4.386-2.845-5.682ZM3.544,72.994V17.28c12.483,4.052,26.544,6.106,41.811,6.106s29.322-2.054,41.811-6.107v55.714s-83.622,0-83.622,0ZM78.687,85.748H12.022c-3.112,0-5.644-2.538-5.644-5.656s2.522-5.671,5.625-5.682h66.703c3.103.01,5.625,2.555,5.625,5.682s-2.532,5.656-5.644,5.656Z"/>
  </g>
  <g id="Takt._Zeichen__x28_Typo_x29_">
    <g>
      <path d="M62.953,60.823h-2.495v7.208h-1.295v-7.208h-2.507v-1.067h6.38l-.084,1.067Z" fill="#fff"/>
      <path d="M70.633,68.031h-1.295v-3.634h-3.754v3.634h-1.295v-8.275h1.295v3.562h3.754v-3.562h1.295v8.275Z" fill="#fff"/>
      <path d="M80.004,68.031h-1.104l-1.811-6.165h-.024l-1.823,6.165h-1.091l-2.243-8.275h1.391l1.463,6.212h.024l1.751-6.212h1.223l1.691,6.212h.024l1.499-6.212h1.307l-2.278,8.275Z" fill="#fff"/>
    </g>
    <g>
      <path d="M24.366,43.922v.04c1.48.28,2.88,1.36,2.88,3.261,0,2.22-1.64,3.801-5.521,3.801h-3.261v-13.803h3.081c3.901,0,5.321,1.381,5.321,3.581,0,1.96-1.22,2.721-2.5,3.121ZM21.545,38.961h-.92v4.241h.9c2.121,0,3.121-.84,3.121-2.28,0-1.181-.88-1.96-3.101-1.96ZM21.846,44.942h-1.22v4.321h1.1c2.32,0,3.261-.76,3.261-2.201,0-1.36-1.14-2.121-3.141-2.121Z" fill="#fff"/>
      <path d="M33.545,45.543h.62v-.561c0-1.48-.62-2.12-1.8-2.12-1.16,0-1.96.58-2.34.9l-.68-1.381c.48-.42,1.54-1.26,3.42-1.26,2.201,0,3.381,1.24,3.381,3.9v3.721c0,.96.08,1.86.14,2.281h-1.9c-.02-.28-.06-.64-.06-1.06h-.04c-.34.56-1.06,1.3-2.521,1.3-1.581,0-2.661-1.14-2.661-2.82,0-2,1.94-2.9,4.441-2.9ZM34.165,48.823v-1.96l-.74.04c-1.58.08-2.36.46-2.36,1.38,0,.82.56,1.34,1.22,1.34,1.02,0,1.561-.44,1.88-.8Z" fill="#fff"/>
      <path d="M46.846,42.762h-1.32c.28.48.46,1.041.46,1.64,0,2.141-1.66,3.281-3.821,3.281-.3,0-.6-.02-.88-.06-.28.14-.62.42-.62.82,0,.38.26.64.88.64h2.021c2.061,0,3.261.84,3.261,2.581,0,1.9-1.78,3.601-5.241,3.601-2.4,0-3.681-.92-3.681-2.58,0-1.381,1.04-1.98,1.621-2.281v-.06c-.4-.32-.581-.78-.581-1.34,0-1.02.88-1.581,1.161-1.72v-.04c-.98-.5-1.621-1.44-1.621-2.841,0-2.22,1.681-3.28,3.761-3.28.521,0,1.021.1,1.46.24h3.361l-.22,1.4ZM40.525,50.763c-.38.26-.78.7-.78,1.46,0,1.02.7,1.46,2.041,1.46,2.141,0,3.141-.8,3.141-1.74,0-.8-.44-1.12-1.48-1.12h-2.1c-.3,0-.58-.021-.82-.061ZM42.265,42.642c-1,0-1.9.5-1.9,1.76s.9,1.74,1.86,1.74c1,0,1.88-.479,1.88-1.74s-.88-1.76-1.84-1.76Z" fill="#fff"/>
      <path d="M56.886,42.762h-1.32c.28.48.46,1.041.46,1.64,0,2.141-1.66,3.281-3.821,3.281-.3,0-.6-.02-.88-.06-.28.14-.62.42-.62.82,0,.38.26.64.88.64h2.021c2.061,0,3.261.84,3.261,2.581,0,1.9-1.78,3.601-5.241,3.601-2.4,0-3.681-.92-3.681-2.58,0-1.381,1.04-1.98,1.621-2.281v-.06c-.4-.32-.581-.78-.581-1.34,0-1.02.88-1.581,1.161-1.72v-.04c-.98-.5-1.621-1.44-1.621-2.841,0-2.22,1.681-3.28,3.761-3.28.521,0,1.021.1,1.46.24h3.361l-.22,1.4ZM50.565,50.763c-.38.26-.78.7-.78,1.46,0,1.02.7,1.46,2.041,1.46,2.141,0,3.141-.8,3.141-1.74,0-.8-.44-1.12-1.48-1.12h-2.1c-.3,0-.58-.021-.82-.061ZM52.305,42.642c-1,0-1.9.5-1.9,1.76s.9,1.74,1.86,1.74c1,0,1.88-.479,1.88-1.74s-.88-1.76-1.84-1.76Z" fill="#fff"/>
      <path d="M65.846,46.683h-5.421c.12,1.98,1.12,2.84,2.801,2.84,1.4,0,2.18-.64,2.44-.86l.52,1.44c-.3.3-1.14,1.16-3.301,1.16-2.7,0-4.441-1.54-4.441-5.161,0-3.42,2-4.98,4.281-4.98,2.04,0,3.3,1.34,3.3,3.82,0,.74-.08,1.28-.18,1.741ZM60.405,45.242h3.741c.04-.22.04-.38.04-.56,0-1.2-.62-1.92-1.64-1.92-1.18,0-2.041.86-2.141,2.48Z" fill="#fff"/>
      <path d="M73.466,43.102c-.1-.061-.36-.16-.82-.16-1.2,0-1.88.64-2.181,1.2v6.881h-2.04v-9.662h1.88v1.38h.04c.36-.78,1.02-1.561,2.44-1.561.4,0,.7.08.84.12l-.16,1.801Z" fill="#fff"/>
    </g>
  </g>
</svg>