<?xml version="1.0" encoding="UTF-8"?>
<svg xmlns="http://www.w3.org/2000/svg" version="1.1" viewBox="0 0 90.709 90.709">
  <!-- Generator: Adobe Illustrator 29.1.0, SVG Export Plug-In . SVG Version: 2.1.0 Build 142)  -->
  <g id="Grundfläche">
    <rect x="0" width="90.709" height="90.709" fill="none"/>
  </g>
  <g id="Flächige_Fülung">
    <path d="M2.863,22.677h84.981c0,23.467-19.024,42.491-42.491,42.491S2.863,46.144,2.863,22.677Z" fill="#fff"/>
    <path d="M84.91,25.511c-1.458,20.549-18.642,36.822-39.556,36.822S7.256,46.06,5.798,25.511h79.112" fill="#003296"/>
  </g>
  <g id="Takt_Zeichen__x28_umgewandelt_x29_">
    <path d="M45.354,65.876C21.534,65.876,2.155,46.497,2.155,22.677v-.708h86.399v.708c0,23.82-19.379,43.199-43.199,43.199ZM3.578,23.385c.379,22.714,18.974,41.074,41.776,41.074s41.397-18.36,41.776-41.074H3.578Z"/>
  </g>
  <g id="Takt._Zeichen__x28_Typo_x29_">
    <g>
      <path d="M70.184,69.327h-2.495v7.208h-1.295v-7.208h-2.507v-1.067h6.38l-.084,1.067Z" fill="#003296"/>
      <path d="M77.863,76.535h-1.295v-3.634h-3.754v3.634h-1.295v-8.275h1.295v3.562h3.754v-3.562h1.295v8.275Z" fill="#003296"/>
      <path d="M87.235,76.535h-1.104l-1.811-6.165h-.024l-1.823,6.165h-1.091l-2.243-8.275h1.391l1.463,6.212h.024l1.751-6.212h1.223l1.691,6.212h.024l1.499-6.212h1.307l-2.279,8.275Z" fill="#003296"/>
    </g>
  </g>
</svg>