<?xml version="1.0" encoding="UTF-8"?>
<svg xmlns="http://www.w3.org/2000/svg" version="1.1" viewBox="0 0 90.709 90.709">
  <!-- Generator: Adobe Illustrator 29.1.0, SVG Export Plug-In . SVG Version: 2.1.0 Build 142)  -->
  <g id="Grundfläche">
    <rect x="0" y="1.417" width="90.709" height="90.709" fill="none"/>
  </g>
  <g id="Flächige_Fülung">
    <path d="M45.355,22.678c-17.008,0-31.181-2.582-42.52-6.378v57.402h85.04V16.3c-11.339,3.794-25.512,6.378-42.52,6.378Z" fill="#fff"/>
    <path d="M45.355,25.513c-14.369,0-27.698-1.797-39.685-5.347v50.702h79.37V20.165c-11.993,3.55-25.321,5.348-39.685,5.348Z" fill="#003296"/>
  </g>
  <g id="Takt_Zeichen__x28_umgewandelt_x29_">
    <path d="M84.313,74.41h4.27V15.315s-.934.312-.934.312c-12.575,4.208-26.805,6.341-42.295,6.341S15.628,19.835,3.059,15.628l-.934-.312v59.095h4.27c-1.727,1.294-2.852,3.35-2.852,5.669,0,3.908,3.179,7.086,7.087,7.086s7.087-3.179,7.087-7.086c0-2.319-1.125-4.375-2.852-5.669h60.98c-1.727,1.294-2.852,3.35-2.852,5.669,0,3.908,3.179,7.086,7.087,7.086s7.087-3.179,7.087-7.086c0-2.319-1.125-4.375-2.852-5.669ZM16.299,80.079c0,3.126-2.543,5.669-5.669,5.669s-5.669-2.543-5.669-5.669,2.538-5.664,5.66-5.669h.019c3.122.005,5.66,2.546,5.66,5.669ZM3.543,72.993V17.279c12.483,4.052,26.544,6.106,41.811,6.106s29.322-2.054,41.811-6.107v55.714s-83.622,0-83.622,0ZM80.078,85.748c-3.126,0-5.669-2.543-5.669-5.669s2.538-5.664,5.66-5.669h.019c3.122.005,5.66,2.546,5.66,5.669s-2.543,5.669-5.669,5.669Z"/>
  </g>
  <g id="Takt._Zeichen__x28_Typo_x29_">
    <g>
      <path d="M62.953,60.823h-2.495v7.208h-1.295v-7.208h-2.507v-1.067h6.38l-.084,1.067Z" fill="#fff"/>
      <path d="M70.633,68.031h-1.295v-3.634h-3.754v3.634h-1.295v-8.275h1.295v3.562h3.754v-3.562h1.295v8.275Z" fill="#fff"/>
      <path d="M80.004,68.031h-1.104l-1.811-6.165h-.024l-1.823,6.165h-1.091l-2.243-8.275h1.391l1.463,6.212h.024l1.751-6.212h1.223l1.691,6.212h.024l1.499-6.212h1.307l-2.278,8.275Z" fill="#fff"/>
    </g>
    <g>
      <path d="M17.032,38.6v10.821h5.114l-.126,1.603h-6.932v-12.423h1.944Z" fill="#fff"/>
      <path d="M28.571,44.668l4.79,6.356h-2.413l-3.961-5.456h-1.008v5.456h-1.944v-12.423h1.944v5.347h1.044l3.835-5.347h2.178l-4.465,6.067Z" fill="#fff"/>
      <path d="M45.979,51.024h-1.656l-2.719-9.254h-.036l-2.737,9.254h-1.639l-3.367-12.423h2.089l2.197,9.326h.036l2.629-9.326h1.836l2.539,9.326h.036l2.25-9.326h1.962l-3.421,12.423Z" fill="#fff"/>
      <path d="M56.704,38.6v10.821h5.113l-.126,1.603h-6.932v-12.423h1.945Z" fill="#fff"/>
      <path d="M67.397,46.27l3.295,4.753h-2.233l-2.557-3.799h-.684v3.799h-1.836v-12.711l1.836-.181v7.581h.684l2.521-3.385h2.106l-3.133,3.943Z" fill="#fff"/>
      <path d="M76.721,43.893c-.09-.054-.324-.144-.738-.144-1.081,0-1.692.576-1.963,1.08v6.194h-1.836v-8.697h1.692v1.242h.036c.324-.702.918-1.404,2.197-1.404.36,0,.63.072.756.108l-.144,1.62Z" fill="#fff"/>
    </g>
  </g>
</svg>