<?xml version="1.0" encoding="UTF-8"?>
<svg xmlns="http://www.w3.org/2000/svg" version="1.1" viewBox="0 0 90.709 90.709">
  <!-- Generator: Adobe Illustrator 29.1.0, SVG Export Plug-In . SVG Version: 2.1.0 Build 142)  -->
  <g id="Grundfläche">
    <rect x="0" width="90.709" height="90.709" fill="none"/>
  </g>
  <g id="Flächige_Fülung">
    <path d="M45.355,22.678c-17.008,0-31.181-2.582-42.52-6.378v57.402h85.04V16.3c-11.339,3.794-25.512,6.378-42.52,6.378Z" fill="#fff"/>
    <path d="M45.355,25.513c-14.369,0-27.698-1.797-39.685-5.347v50.702h79.37V20.165c-11.993,3.55-25.321,5.348-39.685,5.348Z" fill="#003296"/>
  </g>
  <g id="Takt_Zeichen__x28_umgewandelt_x29_">
    <path d="M84.313,74.41h4.27V15.315s-.934.312-.934.312c-12.575,4.208-26.805,6.341-42.295,6.341S15.628,19.835,3.059,15.628l-.934-.312v59.095h4.27c-1.727,1.293-2.852,3.35-2.852,5.669,0,3.908,3.179,7.086,7.087,7.086,3.668,0,6.694-2.802,7.051-6.378h20.623c.357,3.576,3.382,6.378,7.051,6.378s6.694-2.802,7.051-6.378h20.623c.357,3.576,3.382,6.378,7.051,6.378,3.907,0,7.087-3.179,7.087-7.086,0-2.319-1.125-4.375-2.852-5.669ZM3.543,72.993V17.28c12.483,4.052,26.544,6.106,41.811,6.106s29.322-2.054,41.811-6.107v55.714s-83.622,0-83.622,0ZM49.588,74.41h26.256c-1.549,1.16-2.606,2.935-2.81,4.96h-20.637c-.204-2.026-1.261-3.801-2.81-4.96ZM14.864,74.41h26.256c-1.549,1.16-2.606,2.935-2.81,4.96h-20.637c-.204-2.026-1.261-3.801-2.81-4.96ZM10.63,85.748c-3.126,0-5.669-2.543-5.669-5.669s2.538-5.664,5.66-5.669h.019c3.122.005,5.66,2.546,5.66,5.669s-2.543,5.669-5.669,5.669ZM45.354,85.748c-3.126,0-5.669-2.543-5.669-5.669s2.538-5.664,5.66-5.669h.019c3.122.005,5.66,2.546,5.66,5.669s-2.543,5.669-5.669,5.669ZM80.078,85.748c-3.126,0-5.669-2.543-5.669-5.669s2.538-5.664,5.66-5.669h.019c3.122.005,5.66,2.546,5.66,5.669s-2.543,5.669-5.669,5.669Z"/>
  </g>
  <g id="Takt._Zeichen__x28_Typo_x29_">
    <g>
      <path d="M62.953,60.823h-2.495v7.208h-1.295v-7.208h-2.507v-1.067h6.381l-.084,1.067Z" fill="#fff"/>
      <path d="M70.633,68.031h-1.295v-3.634h-3.754v3.634h-1.295v-8.275h1.295v3.562h3.754v-3.562h1.295v8.275Z" fill="#fff"/>
      <path d="M80.004,68.031h-1.104l-1.811-6.165h-.024l-1.823,6.165h-1.091l-2.243-8.275h1.392l1.463,6.213h.024l1.751-6.213h1.223l1.691,6.213h.024l1.5-6.213h1.307l-2.278,8.275Z" fill="#fff"/>
    </g>
    <g>
      <path d="M21.085,40.202h-3.745v10.821h-1.945v-10.821h-3.763v-1.603h9.579l-.126,1.603Z" fill="#fff"/>
      <path d="M27.384,47.116h-4.88c.108,1.782,1.009,2.557,2.521,2.557,1.26,0,1.962-.576,2.197-.774l.468,1.297c-.27.27-1.026,1.044-2.971,1.044-2.431,0-3.997-1.386-3.997-4.646,0-3.079,1.8-4.483,3.853-4.483,1.836,0,2.971,1.207,2.971,3.439,0,.666-.072,1.152-.162,1.566ZM22.487,45.82h3.367c.036-.198.036-.342.036-.504,0-1.08-.558-1.729-1.477-1.729-1.062,0-1.836.774-1.926,2.233Z" fill="#fff"/>
      <path d="M31.523,48.575c0,.882.234,1.134.81,1.134.306,0,.522-.072.63-.108l.108,1.278c-.126.09-.594.306-1.333.306-1.278,0-2.034-.594-2.034-2.413v-10.461l1.818-.18v10.443Z" fill="#fff"/>
      <path d="M40.83,47.116h-4.879c.108,1.782,1.008,2.557,2.521,2.557,1.261,0,1.963-.576,2.197-.774l.468,1.297c-.27.27-1.026,1.044-2.971,1.044-2.431,0-3.998-1.386-3.998-4.646,0-3.079,1.801-4.483,3.853-4.483,1.837,0,2.971,1.207,2.971,3.439,0,.666-.072,1.152-.162,1.566ZM35.932,45.82h3.367c.036-.198.036-.342.036-.504,0-1.08-.558-1.729-1.477-1.729-1.062,0-1.836.774-1.926,2.233Z" fill="#fff"/>
      <path d="M44.969,48.575c0,.882.234,1.134.81,1.134.306,0,.522-.072.63-.108l.108,1.278c-.126.09-.594.306-1.333.306-1.278,0-2.035-.594-2.035-2.413v-10.461l1.819-.18v10.443Z" fill="#fff"/>
      <path d="M51.503,46.09h.558v-.504c0-1.333-.558-1.909-1.62-1.909-1.044,0-1.765.522-2.107.81l-.612-1.242c.432-.378,1.386-1.134,3.079-1.134,1.981,0,3.043,1.116,3.043,3.511v3.349c0,.864.072,1.675.126,2.053h-1.71c-.018-.252-.054-.576-.054-.954h-.036c-.306.504-.955,1.17-2.269,1.17-1.423,0-2.395-1.026-2.395-2.539,0-1.8,1.747-2.611,3.997-2.611ZM52.061,49.043v-1.765l-.666.036c-1.422.072-2.125.414-2.125,1.242,0,.738.504,1.206,1.098,1.206.918,0,1.404-.396,1.692-.72Z" fill="#fff"/>
      <path d="M59.999,42.129c.738,0,1.26.18,1.584.36v-4.178l1.818-.18v12.892h-1.674v-.973h-.036c-.216.324-.829,1.188-2.485,1.188-1.926,0-3.349-1.53-3.349-4.447,0-3.223,2.035-4.663,4.141-4.663ZM61.583,48.863v-4.807c-.288-.198-.72-.378-1.386-.378-1.477,0-2.449.9-2.449,3.007,0,2.161.9,2.971,2.053,2.971.972,0,1.512-.469,1.782-.792Z" fill="#fff"/>
      <path d="M72.131,47.116h-4.879c.107,1.782,1.008,2.557,2.521,2.557,1.26,0,1.962-.576,2.196-.774l.469,1.297c-.271.27-1.026,1.044-2.971,1.044-2.431,0-3.997-1.386-3.997-4.646,0-3.079,1.8-4.483,3.853-4.483,1.836,0,2.971,1.207,2.971,3.439,0,.666-.072,1.152-.162,1.566ZM67.234,45.82h3.367c.036-.198.036-.342.036-.504,0-1.08-.558-1.729-1.477-1.729-1.062,0-1.836.774-1.927,2.233Z" fill="#fff"/>
      <path d="M78.989,43.894c-.09-.054-.324-.145-.738-.145-1.081,0-1.692.576-1.962,1.081v6.194h-1.837v-8.696h1.692v1.242h.036c.324-.702.918-1.404,2.197-1.404.36,0,.63.072.756.107l-.144,1.621Z" fill="#fff"/>
    </g>
  </g>
</svg>