<?xml version="1.0" encoding="UTF-8"?>
<svg xmlns="http://www.w3.org/2000/svg" version="1.1" viewBox="0 0 90.709 90.709">
  <!-- Generator: Adobe Illustrator 29.1.0, SVG Export Plug-In . SVG Version: 2.1.0 Build 142)  -->
  <g id="Grundfläche">
    <rect x="0" y="0" width="90.709" height="90.709" fill="none"/>
  </g>
  <g id="Flächige_Fülung">
    <rect x="2.834" y="17.008" width="85.04" height="56.693" fill="#fff"/>
  </g>
  <g id="Takt_Zeichen__x28_umgewandelt_x29_">
    <path d="M2.126,16.3v58.11h86.457V16.3H2.126ZM3.78,65.197L45.355,18.079l41.574,47.118H3.78ZM87.165,63.323L46.925,17.717h40.24v45.606ZM43.784,17.717L3.543,63.323V17.717h40.241ZM45.354,44.646c-7.91,0-11.705,1.823-13.464,3.905v-6.031h-1.417v15.59h1.417v-3.543h26.929v3.543h1.417v-15.59h-1.417v6.031c-1.759-2.082-5.555-3.905-13.465-3.905ZM58.819,53.15h-26.929v-.708c0-4.113,4.782-6.378,13.464-6.378s13.465,2.265,13.465,6.378v.708Z"/>
    <path d="M54.567,2.835h4.252v11.339h-4.252V2.835ZM31.89,14.173h4.252V2.835h-4.252v11.339Z"/>
  </g>
  <g id="Takt._Zeichen__x28_Typo_x29_">
    <g>
      <path d="M10.622,24.453h-2.543l-.156,1.859c2.171.192,3.046,1.116,3.046,2.59,0,1.463-.971,2.423-2.662,2.423-1.283,0-1.859-.647-2.111-.888l.492-1.007c.24.275.792.839,1.583.839.936,0,1.439-.468,1.439-1.211,0-1.211-.875-1.739-2.998-1.775l.324-3.897h3.586v1.067Z"/>
      <path d="M13.012,31.325c-.456,0-.78-.3-.78-.792,0-.48.324-.792.78-.792s.792.312.792.792c0,.492-.336.792-.792.792Z"/>
      <path d="M17.319,31.325c-1.499,0-2.471-1.223-2.471-4.042,0-2.842,1.079-4.042,2.567-4.042,1.499,0,2.47,1.223,2.47,4.042,0,2.843-1.079,4.042-2.566,4.042ZM17.367,24.297c-.756,0-1.271.792-1.271,2.986,0,2.231.516,2.987,1.271,2.987s1.271-.755,1.271-2.987c0-2.194-.516-2.986-1.271-2.986Z"/>
      <path d="M23.319,31.325c-1.499,0-2.471-1.223-2.471-4.042,0-2.842,1.079-4.042,2.567-4.042,1.499,0,2.47,1.223,2.47,4.042,0,2.843-1.079,4.042-2.566,4.042ZM23.367,24.297c-.756,0-1.271.792-1.271,2.986,0,2.231.516,2.987,1.271,2.987s1.271-.755,1.271-2.987c0-2.194-.516-2.986-1.271-2.986Z"/>
      <path d="M29.319,31.325c-1.499,0-2.471-1.223-2.471-4.042,0-2.842,1.079-4.042,2.567-4.042,1.499,0,2.47,1.223,2.47,4.042,0,2.843-1.079,4.042-2.566,4.042ZM29.367,24.297c-.756,0-1.271.792-1.271,2.986,0,2.231.516,2.987,1.271,2.987s1.271-.755,1.271-2.987c0-2.194-.516-2.986-1.271-2.986Z"/>
    </g>
  </g>
</svg>