<?xml version="1.0" encoding="UTF-8"?>
<svg xmlns="http://www.w3.org/2000/svg" version="1.1" viewBox="0 0 90.709 90.709">
  <!-- Generator: Adobe Illustrator 29.1.0, SVG Export Plug-In . SVG Version: 2.1.0 Build 142)  -->
  <g id="Grundfläche">
    <rect x="0" y="0" width="90.709" height="90.709" fill="none"/>
  </g>
  <g id="Flächige_Fülung">
    <rect x="2.834" y="17.008" width="85.04" height="56.693" fill="#fff"/>
  </g>
  <g id="Takt_Zeichen__x28_umgewandelt_x29_">
    <path d="M2.126,16.3v58.11h86.457V16.3H2.126ZM46.063,72.993v-9.922h10.63v-1.417h-10.63v-10.63h-1.417v10.63h-10.63v1.417h10.63v9.922H3.543v-26.93h24.803v-1.417H3.543v-26.929h41.102v21.969h1.417v-21.969h41.102v26.929h-24.803v1.417h24.803v26.93h-41.102ZM59.956,36.343c1.934,1.934,1.934,5.082,0,7.016-.967.967-2.238,1.45-3.508,1.45s-2.541-.483-3.507-1.45c-.924-.924-1.394-2.127-1.435-3.34l-5.054,5.541,9.121,10.843-1.084.912-9-10.699-9.777,10.721-1.047-.955,9.904-10.86-4.457-5.299c-.086,1.143-.543,2.264-1.415,3.136h0c-.967.967-2.237,1.451-3.508,1.451s-2.541-.484-3.508-1.451c-1.934-1.934-1.934-5.082,0-7.016,1.934-1.933,5.082-1.934,7.015,0,.015.015,6.836,8.122,6.836,8.122l7.388-8.097c.008-.008.013-.017.021-.025,1.934-1.934,5.081-1.934,7.015,0Z"/>
    <path d="M35.433,9.921c0,2.348-1.904,4.252-4.252,4.252-2.348,0-4.252-1.904-4.252-4.252,0-2.348,1.904-4.252,4.252-4.252,2.348,0,4.252,1.904,4.252,4.252ZM59.528,5.669c-2.348,0-4.252,1.904-4.252,4.252,0,2.348,1.904,4.252,4.252,4.252,2.348,0,4.252-1.904,4.252-4.252s-1.904-4.252-4.252-4.252ZM45.354,5.669c-2.348,0-4.252,1.904-4.252,4.252,0,2.348,1.904,4.252,4.252,4.252,2.348,0,4.252-1.904,4.252-4.252s-1.904-4.252-4.252-4.252Z"/>
  </g>
  <g id="Takt._Zeichen__x28_Typo_x29_">
    <g>
      <path d="M16.105,31.181h-1.259v-5.481h-.024l-2.207,5.481h-.996l-2.219-5.481h-.024v5.481h-1.247v-8.275h1.427l2.603,6.44h.024l2.615-6.44h1.307v8.275Z"/>
      <path d="M23.702,23.973h-2.495v7.208h-1.295v-7.208h-2.507v-1.067h6.38l-.084,1.067Z"/>
      <path d="M25.037,31.181v-8.275h4.689l-.084,1.067h-3.31v2.734h3.058v1.067h-3.058v3.406h-1.295Z"/>
    </g>
  </g>
</svg>