<?xml version="1.0" encoding="UTF-8"?>
<svg xmlns="http://www.w3.org/2000/svg" version="1.1" viewBox="0 0 90.709 90.709">
  <!-- Generator: Adobe Illustrator 29.1.0, SVG Export Plug-In . SVG Version: 2.1.0 Build 142)  -->
  <g id="Grundfläche">
    <rect x="0" y="0" width="90.709" height="90.709" fill="none"/>
  </g>
  <g id="Flächige_Fülung">
    <rect x="2.834" y="17.008" width="85.04" height="56.693" fill="#fff"/>
  </g>
  <g id="Takt_Zeichen__x28_umgewandelt_x29_">
    <path d="M2.126,16.3v58.11h86.457V16.3H2.126ZM87.165,44.646h-16.006l-25.097-25.097v-1.833h41.103v26.929ZM64.488,48.189c0,10.311-8.205,18.721-18.425,19.098v-7.051h10.63v-1.417h-10.63v-12.756h18.3c.078.699.125,1.407.125,2.126ZM26.345,46.063h18.3v12.756h-10.63v1.417h10.63v7.051c-10.221-.377-18.426-8.787-18.426-19.098,0-.72.048-1.428.125-2.126ZM46.063,21.554l8.093,8.092c-2.469-1.177-5.203-1.873-8.093-1.972v-6.12ZM44.646,27.674c-2.889.099-5.623.795-8.092,1.972l8.092-8.092v6.12ZM44.646,29.091v15.555h-18.083c1.625-8.635,9.064-15.223,18.083-15.555ZM25.131,44.646h-3.577l5.257-5.258c-.785,1.646-1.357,3.407-1.68,5.258ZM46.063,44.646v-15.555c9.02.333,16.458,6.92,18.083,15.555h-18.083ZM63.897,39.387l5.259,5.259h-3.578c-.324-1.851-.896-3.612-1.681-5.259ZM44.646,17.717v1.833l-25.096,25.097H3.543v-26.929h41.103ZM3.543,46.063h14.59l-10.129,10.129,1.002,1.002,11.131-11.131h4.777c-.072.699-.111,1.408-.111,2.126,0,11.093,8.84,20.137,19.843,20.515v4.289H3.543v-26.93ZM46.063,72.993v-4.289c11.002-.378,19.842-9.422,19.842-20.515,0-.718-.038-1.427-.111-2.126h4.778l11.131,11.131,1.002-1.002-10.129-10.129h14.589v26.93h-41.103Z"/>
    <rect x="43.229" y="2.835" width="4.252" height="11.339"/>
  </g>
  <g id="Takt._Zeichen__x28_Typo_x29_">
    <g>
      <path d="M12.039,24.453h-2.542l-.156,1.859c2.17.192,3.046,1.115,3.046,2.591,0,1.463-.971,2.422-2.662,2.422-1.284,0-1.859-.647-2.111-.887l.492-1.008c.24.276.792.84,1.583.84.936,0,1.439-.468,1.439-1.211,0-1.211-.875-1.739-2.998-1.775l.324-3.898h3.586v1.067Z"/>
      <path d="M16.036,31.325c-1.499,0-2.471-1.223-2.471-4.042,0-2.843,1.08-4.042,2.567-4.042,1.499,0,2.471,1.224,2.471,4.042,0,2.842-1.08,4.042-2.567,4.042ZM16.084,24.298c-.755,0-1.271.792-1.271,2.986,0,2.23.516,2.986,1.271,2.986s1.271-.756,1.271-2.986c0-2.195-.516-2.986-1.271-2.986Z"/>
    </g>
  </g>
</svg>