<?xml version="1.0" encoding="UTF-8"?>
<svg xmlns="http://www.w3.org/2000/svg" version="1.1" viewBox="0 0 90.709 90.709">
  <!-- Generator: Adobe Illustrator 29.1.0, SVG Export Plug-In . SVG Version: 2.1.0 Build 142)  -->
  <g id="Grundfläche">
    <rect x="0" y="0" width="90.709" height="90.709" fill="none"/>
  </g>
  <g id="Flächige_Fülung">
    <path d="M45.355,22.678c-17.008,0-31.181-2.582-42.52-6.378v57.402h85.04V16.3c-11.339,3.794-25.512,6.378-42.52,6.378Z" fill="#fff"/>
  </g>
  <g id="Takt_Zeichen__x28_umgewandelt_x29_">
    <path d="M45.354,38.977c-8.206,0-14.882,6.676-14.882,14.881s6.676,14.882,14.882,14.882,14.882-6.676,14.882-14.882-6.676-14.881-14.882-14.881ZM46.063,40.43c3.178.167,6.061,1.434,8.283,3.435l-8.283,8.283v-11.718ZM44.645,52.147l-8.283-8.283c2.222-2.001,5.105-3.269,8.283-3.435v11.718ZM43.644,53.15h-11.718c.167-3.178,1.434-6.062,3.435-8.283l8.283,8.283ZM43.644,54.567l-8.283,8.283c-2.001-2.222-3.268-5.105-3.435-8.283h11.718ZM44.645,55.569v11.718c-3.178-.167-6.061-1.434-8.283-3.435l8.283-8.283ZM46.063,55.569l8.283,8.283c-2.222,2.001-5.105,3.269-8.283,3.435v-11.718ZM47.065,54.567h11.718c-.167,3.177-1.434,6.061-3.435,8.283l-8.283-8.283ZM47.065,53.15l8.283-8.283c2.001,2.222,3.269,5.105,3.435,8.283h-11.718ZM84.314,74.411h4.27V15.316s-.934.312-.934.312c-12.575,4.208-26.805,6.341-42.295,6.341S15.629,19.836,3.06,15.628l-.934-.312v59.095h4.268c-1.727,1.293-2.852,3.349-2.852,5.668,0,3.908,3.179,7.086,7.087,7.086s7.087-3.179,7.087-7.086c0-2.319-1.125-4.375-2.852-5.668h60.979c-1.727,1.293-2.852,3.349-2.852,5.668,0,3.908,3.179,7.086,7.087,7.086s7.087-3.179,7.087-7.086c0-2.319-1.125-4.375-2.852-5.668ZM87.166,71.744L46.847,23.361c14.682-.131,28.241-2.163,40.319-6.082v54.464ZM43.862,23.361L3.544,71.742V17.28c12.072,3.918,25.631,5.95,40.318,6.081ZM16.299,80.079c0,3.126-2.543,5.669-5.669,5.669s-5.669-2.543-5.669-5.669,2.533-5.658,5.65-5.668h.039c3.117.01,5.65,2.549,5.65,5.668ZM4.346,72.994L45.354,23.784l41.008,49.209H4.346ZM80.079,85.748c-3.126,0-5.669-2.543-5.669-5.669s2.533-5.658,5.65-5.668h.039c3.117.01,5.65,2.549,5.65,5.668s-2.543,5.669-5.669,5.669Z"/>
  </g>
  <g id="Takt._Zeichen__x28_Typo_x29_">
    <g>
      <path d="M12.591,33.489h-.899v1.943h-1.175v-1.943h-3.094l-.084-.923,3.334-4.929h1.02v4.833h.899v1.02ZM10.516,29.496h-.024l-1.907,2.974h1.931v-2.974Z"/>
      <path d="M16.037,35.576c-1.499,0-2.471-1.223-2.471-4.042,0-2.842,1.079-4.042,2.567-4.042,1.499,0,2.471,1.223,2.471,4.042,0,2.843-1.08,4.042-2.567,4.042ZM16.084,28.548c-.756,0-1.271.792-1.271,2.986,0,2.231.516,2.987,1.271,2.987s1.271-.755,1.271-2.987c0-2.194-.516-2.986-1.271-2.986Z"/>
    </g>
  </g>
</svg>