<?xml version="1.0" encoding="UTF-8"?>
<svg xmlns="http://www.w3.org/2000/svg" version="1.1" viewBox="0 0 90.709 90.709">
  <!-- Generator: Adobe Illustrator 29.1.0, SVG Export Plug-In . SVG Version: 2.1.0 Build 142)  -->
  <g id="Grundfläche">
    <rect x="0" y="0" width="90.709" height="90.709" fill="none"/>
  </g>
  <g id="Flächige_Fülung">
    <path d="M49.606,22.678c-15.307,0-28.063-2.582-38.268-6.378v57.402h76.536V16.3c-10.205,3.794-22.961,6.378-38.268,6.378Z" fill="#fff"/>
  </g>
  <g id="Takt_Zeichen__x28_umgewandelt_x29_">
    <path d="M53.839,74.41h34.744V15.28s-.956.355-.956.355c-11.304,4.203-24.096,6.333-38.021,6.333s-26.723-2.131-38.021-6.333l-.956-.355v25.114H2.126v4.252h8.504v29.764h34.744c-1.728,1.293-2.854,3.35-2.854,5.67,0,3.908,3.179,7.086,7.087,7.086s7.087-3.179,7.087-7.086c0-2.32-1.125-4.376-2.854-5.67ZM87.166,71.576L51.004,23.36c13.162-.135,25.322-2.155,36.162-6.047v54.263ZM86.457,72.993H12.756L49.606,23.859l36.851,49.134ZM48.209,23.36L12.047,71.575V17.313c10.835,3.892,22.995,5.911,36.161,6.046ZM3.543,43.229v-1.418h7.086v1.418H3.543ZM49.606,85.749c-3.126,0-5.669-2.543-5.669-5.669s2.543-5.669,5.669-5.669,5.669,2.543,5.669,5.669-2.543,5.669-5.669,5.669Z"/>
  </g>
</svg>