<?xml version="1.0" encoding="UTF-8"?>
<svg xmlns="http://www.w3.org/2000/svg" version="1.1" viewBox="0 0 90.709 90.709">
  <!-- Generator: Adobe Illustrator 29.1.0, SVG Export Plug-In . SVG Version: 2.1.0 Build 142)  -->
  <g id="Grundfläche">
    <rect x="0" width="90.709" height="90.709" fill="none"/>
  </g>
  <g id="Flächige_Fülung">
    <path d="M45.355,22.678c-17.008,0-31.181-2.582-42.52-6.378v57.402h85.04V16.3c-11.339,3.794-25.512,6.378-42.52,6.378Z" fill="#fff"/>
  </g>
  <g id="Takt_Zeichen__x28_umgewandelt_x29_">
    <path d="M84.313,74.411h4.27V15.316s-.934.312-.934.312c-12.575,4.208-26.805,6.341-42.294,6.341S15.629,19.836,3.06,15.628l-.934-.312v59.095h4.268c-1.727,1.293-2.852,3.349-2.852,5.668,0,3.908,3.179,7.086,7.086,7.086s7.086-3.179,7.086-7.086c0-2.319-1.125-4.375-2.851-5.668h60.979c-1.727,1.293-2.852,3.349-2.852,5.668,0,3.908,3.179,7.086,7.086,7.086s7.086-3.179,7.086-7.086c0-2.319-1.125-4.375-2.851-5.668ZM5.191,65.198L45.354,23.696l40.164,41.502H5.191ZM87.166,64.863L47,23.358c14.622-.144,28.13-2.173,40.166-6.079v47.583ZM43.709,23.358L3.544,64.862V17.28c12.03,3.905,25.537,5.935,40.165,6.078ZM16.299,80.079c0,3.126-2.543,5.669-5.669,5.669s-5.669-2.543-5.669-5.669,2.533-5.658,5.65-5.668h.039c3.117.01,5.65,2.549,5.65,5.668ZM80.078,85.748c-3.126,0-5.669-2.543-5.669-5.669s2.533-5.658,5.65-5.668h.039c3.117.01,5.65,2.549,5.65,5.668s-2.543,5.669-5.669,5.669Z"/>
  </g>
  <g id="Takt._Zeichen__x28_Typo_x29_">
    <g>
      <path d="M11.466,30.661c-.21.18-.85.64-2.099.64-1.819,0-3.168-.959-3.168-3.598,0-2.469,1.689-3.538,3.378-3.538,1.159,0,1.739.479,1.919.62l-.37.85c-.16-.14-.65-.55-1.519-.55-1.199,0-2.259.75-2.259,2.619,0,1.879.779,2.679,2.159,2.679.35,0,.66-.061.919-.14v-1.759h-1.239v-.89h2.279v3.068Z"/>
      <path d="M17.416,31.181h-.83l-.879-2.489h-.02l-.959,2.489h-.85l-1.709-4.828h1.089l1.1,3.528h.02l.93-2.329-.43-1.2h1.04l1.129,3.528h.02l1.08-3.528h.989l-1.719,4.828Z"/>
      <path d="M21.218,24.285v6.007h2.838l-.07.889h-3.848v-6.896h1.08Z"/>
      <path d="M26.817,31.3c-1.2,0-2.129-.799-2.129-2.538,0-1.729,1.06-2.529,2.229-2.529,1.199,0,2.119.78,2.119,2.529,0,1.719-1.059,2.538-2.219,2.538ZM26.867,27.113c-.65,0-1.14.5-1.14,1.649,0,1.159.49,1.659,1.14,1.659.659,0,1.129-.51,1.129-1.659,0-1.16-.489-1.649-1.129-1.649Z"/>
      <path d="M34.166,27.053h-.66c.14.239.23.52.23.819,0,1.069-.83,1.639-1.909,1.639-.15,0-.3-.01-.44-.029-.14.069-.31.209-.31.409,0,.19.13.32.44.32h1.009c1.03,0,1.629.419,1.629,1.289,0,.949-.89,1.799-2.619,1.799-1.199,0-1.839-.459-1.839-1.289,0-.689.52-.989.81-1.14v-.03c-.2-.16-.29-.39-.29-.669,0-.51.44-.79.58-.859v-.021c-.49-.25-.81-.72-.81-1.419,0-1.109.839-1.639,1.879-1.639.26,0,.51.05.729.12h1.679l-.109.7ZM31.008,31.051c-.19.13-.39.35-.39.729,0,.51.35.73,1.02.73,1.069,0,1.569-.4,1.569-.87,0-.399-.22-.56-.739-.56h-1.05c-.149,0-.29-.01-.41-.03ZM31.877,26.993c-.5,0-.949.25-.949.88s.449.869.929.869c.5,0,.939-.239.939-.869s-.44-.88-.919-.88Z"/>
    </g>
  </g>
</svg>