<?xml version="1.0" encoding="UTF-8"?>
<svg xmlns="http://www.w3.org/2000/svg" version="1.1" viewBox="0 0 90.709 90.709">
  <!-- Generator: Adobe Illustrator 29.1.0, SVG Export Plug-In . SVG Version: 2.1.0 Build 142)  -->
  <g id="Grundfläche">
    <rect x="0" width="90.709" height="90.709" fill="none"/>
  </g>
  <g id="Flächige_Fülung">
    <path d="M49.606,22.678c-15.307,0-28.063-2.582-38.268-6.378v57.402h76.536V16.3c-10.205,3.794-22.961,6.378-38.268,6.378Z" fill="#fff"/>
  </g>
  <g id="Takt_Zeichen__x28_umgewandelt_x29_">
    <path d="M88.583,74.41V15.28s-.956.355-.956.355c-11.304,4.203-24.096,6.333-38.021,6.333s-26.723-2.131-38.021-6.333l-.956-.355v25.114H2.126v4.252h8.504v29.764h77.953ZM12.047,48.898h21.295c.365,8.42,7.134,15.189,15.554,15.554v8.541H12.047v-24.095ZM50.315,48.898h14.137c-.362,7.639-6.498,13.775-14.137,14.137v-14.137ZM50.315,47.481v-14.138c7.64.362,13.775,6.499,14.137,14.138h-14.137ZM48.897,47.481h-14.137c.362-7.64,6.498-13.775,14.137-14.138v14.138ZM48.897,48.898v14.137c-7.639-.362-13.775-6.499-14.137-14.137h14.137ZM50.315,72.993v-8.541c8.421-.365,15.19-7.134,15.555-15.554h21.296v24.095h-36.851ZM87.166,47.481h-21.296c-.365-8.421-7.134-15.19-15.555-15.555v-8.553c13.428-.07,25.821-2.1,36.851-6.06v30.168ZM48.897,23.372v8.553c-8.421.365-15.19,7.134-15.554,15.555H12.047v-30.167c11.024,3.96,23.417,5.989,36.85,6.059ZM3.543,43.229v-1.418h7.086v1.418H3.543Z"/>
  </g>
</svg>