<?xml version="1.0" encoding="UTF-8"?>
<svg xmlns="http://www.w3.org/2000/svg" version="1.1" viewBox="0 0 90.709 90.709">
  <!-- Generator: Adobe Illustrator 29.1.0, SVG Export Plug-In . SVG Version: 2.1.0 Build 142)  -->
  <g id="Grundfläche">
    <rect x="0" y="0" width="90.709" height="90.709" fill="none"/>
  </g>
  <g id="Flächige_Fülung">
    <path d="M45.355,22.678c-17.008,0-31.181-2.582-42.52-6.378v57.402h85.04V16.3c-11.339,3.794-25.512,6.378-42.52,6.378Z" fill="#fff"/>
  </g>
  <g id="Takt_Zeichen__x28_umgewandelt_x29_">
    <path d="M63.071,57.827v.283h-1.417v-.283c0-4.984-2.528-7.512-7.512-7.512h-2.409v2.126h-1.417v-2.126h-19.134v-1.417h19.134v-4.252h-3.543v-1.417h8.504v1.417h-3.543v4.252h2.409c5.758,0,8.929,3.171,8.929,8.929ZM87.165,80.079c0,3.908-3.179,7.086-7.087,7.086s-7.087-3.179-7.087-7.086c0-2.319,1.125-4.375,2.852-5.668H14.864c1.727,1.293,2.852,3.349,2.852,5.668,0,3.908-3.179,7.086-7.087,7.086s-7.087-3.179-7.087-7.086c0-2.319,1.125-4.375,2.852-5.668H2.126V15.316l.934.312c12.569,4.208,26.799,6.341,42.295,6.341s29.719-2.134,42.295-6.341l.934-.312v59.095s-4.27,0-4.27,0c1.727,1.293,2.852,3.349,2.852,5.668ZM85.518,65.198L45.354,23.696,5.191,65.198h80.327ZM87.166,17.28c-12.036,3.905-25.543,5.935-40.166,6.079l40.166,41.504V17.28ZM3.544,17.28v47.582L43.709,23.358c-14.628-.144-28.135-2.173-40.165-6.078ZM10.649,74.411h-.039c-3.117.01-5.65,2.549-5.65,5.668s2.543,5.669,5.669,5.669,5.669-2.543,5.669-5.669-2.533-5.658-5.65-5.668ZM85.748,80.079c0-3.12-2.533-5.658-5.65-5.668h-.039c-3.117.01-5.65,2.549-5.65,5.668s2.543,5.669,5.669,5.669,5.669-2.543,5.669-5.669Z"/>
  </g>
  <g id="Takt._Zeichen__x28_Typo_x29_">
    <g>
      <path d="M8.778,29.05v.02c.74.14,1.439.68,1.439,1.629,0,1.109-.82,1.898-2.759,1.898h-1.629v-6.896h1.539c1.949,0,2.658.69,2.658,1.789,0,.979-.61,1.359-1.249,1.559ZM7.369,26.571h-.46v2.119h.45c1.059,0,1.559-.419,1.559-1.139,0-.59-.44-.979-1.549-.979ZM7.519,29.56h-.61v2.159h.55c1.159,0,1.629-.379,1.629-1.099,0-.68-.57-1.06-1.569-1.06Z"/>
      <path d="M13.868,28.6h-1.179v2.249c0,.729.19.99.68.99.25,0,.45-.08.54-.12l.09.78c-.09.05-.37.21-.89.21-1.009,0-1.439-.52-1.439-1.749v-2.359h-.66v-.7l.66-.12.12-1.349h.899v1.339h1.289l-.11.83Z"/>
      <path d="M16.189,25.702v6.007h2.838l-.07.889h-3.848v-6.896h1.079Z"/>
      <path d="M22.598,29.07l2.658,3.528h-1.339l-2.199-3.028h-.56v3.028h-1.079v-6.896h1.079v2.968h.58l2.129-2.968h1.209l-2.479,3.368Z"/>
      <path d="M32.266,32.598h-.92l-1.509-5.137h-.02l-1.519,5.137h-.909l-1.869-6.896h1.159l1.219,5.177h.02l1.459-5.177h1.019l1.409,5.177h.02l1.25-5.177h1.089l-1.899,6.896Z"/>
    </g>
  </g>
</svg>