<?xml version="1.0" encoding="UTF-8"?>
<svg xmlns="http://www.w3.org/2000/svg" version="1.1" viewBox="0 0 90.709 90.709">
  <!-- Generator: Adobe Illustrator 29.1.0, SVG Export Plug-In . SVG Version: 2.1.0 Build 142)  -->
  <g id="Grundfläche">
    <rect x="0" y="0" width="90.709" height="90.709" fill="none"/>
  </g>
  <g id="Flächige_Fülung">
    <path d="M45.355,22.678c-17.008,0-31.181-2.582-42.52-6.378v57.402h85.04V16.3c-11.339,3.794-25.512,6.378-42.52,6.378Z" fill="#fff"/>
  </g>
  <g id="Takt_Zeichen__x28_umgewandelt_x29_">
    <path d="M84.313,74.41h4.27V15.315s-.934.312-.934.312c-12.575,4.208-26.805,6.341-42.295,6.341S15.628,19.835,3.059,15.628l-.934-.312v59.095h4.27c-1.727,1.293-2.852,3.35-2.852,5.669,0,3.908,3.179,7.086,7.087,7.086s7.087-3.179,7.087-7.086c0-2.319-1.125-4.375-2.852-5.669h60.98c-1.727,1.293-2.852,3.35-2.852,5.669,0,3.908,3.179,7.086,7.087,7.086s7.087-3.179,7.087-7.086c0-2.319-1.125-4.375-2.852-5.669ZM87.165,44.646h-26.965c-.362-7.639-6.498-13.775-14.137-14.137v-7.135c14.985-.063,28.809-2.105,41.103-6.095v27.367ZM46.063,31.926c3.178.167,6.061,1.434,8.283,3.435l-8.283,8.283v-11.718ZM44.646,43.644l-8.283-8.283c2.222-2.001,5.105-3.269,8.283-3.435v11.718ZM35.361,36.363l8.283,8.283h-11.719c.167-3.178,1.434-6.062,3.436-8.283ZM43.644,46.063l-8.283,8.283c-2.001-2.222-3.269-5.106-3.435-8.283h11.719ZM44.646,47.065v11.718c-3.178-.167-6.061-1.434-8.283-3.435l8.283-8.283ZM46.063,47.065l8.283,8.283c-2.222,2.001-5.105,3.269-8.283,3.435v-11.718ZM55.348,54.346l-8.283-8.283h11.719c-.167,3.177-1.434,6.061-3.435,8.283ZM47.065,44.646l8.283-8.283c2.001,2.222,3.269,5.105,3.435,8.283h-11.719ZM44.646,23.374v7.135c-7.64.362-13.775,6.498-14.137,14.137H3.543v-27.366c12.288,3.989,26.111,6.031,41.102,6.094ZM16.299,80.079c0,3.126-2.543,5.669-5.669,5.669s-5.669-2.543-5.669-5.669,2.538-5.664,5.66-5.669h.019c3.122.005,5.66,2.546,5.66,5.669ZM3.543,72.993v-26.93h26.965c.362,7.64,6.498,13.775,14.137,14.137v12.793H3.543ZM46.063,72.993v-12.793c7.64-.362,13.775-6.498,14.137-14.137h26.965v26.93s-41.103,0-41.103,0ZM80.078,85.748c-3.126,0-5.669-2.543-5.669-5.669s2.538-5.664,5.66-5.669h.019c3.122.005,5.66,2.546,5.66,5.669s-2.543,5.669-5.669,5.669Z"/>
  </g>
  <g id="Takt._Zeichen__x28_Typo_x29_">
    <path d="M9.353,34.413v.024h3.022v.995h-4.51l-.084-.804c2.603-2.794,3.203-3.466,3.203-4.713,0-.876-.408-1.38-1.248-1.38-.875,0-1.403.516-1.619.744l-.468-.852c.276-.288.983-.936,2.255-.936,1.499,0,2.327.875,2.327,2.267,0,1.583-.948,2.71-2.879,4.653Z"/>
  </g>
</svg>