<?xml version="1.0" encoding="UTF-8"?>
<svg xmlns="http://www.w3.org/2000/svg" version="1.1" viewBox="0 0 90.709 90.709">
  <!-- Generator: Adobe Illustrator 29.1.0, SVG Export Plug-In . SVG Version: 2.1.0 Build 142)  -->
  <g id="Grundfläche">
    <rect x="0" width="90.709" height="90.709" fill="none"/>
  </g>
  <g id="Flächige_Fülung">
    <path d="M87.845,59.499H2.863c0-23.467,19.024-42.491,42.491-42.491s42.491,19.024,42.491,42.491Z" fill="#fff"/>
  </g>
  <g id="Takt_Zeichen__x28_umgewandelt_x29_">
    <path d="M45.354,16.3C21.534,16.3,2.155,35.679,2.155,59.499v.708h86.399v-.708c0-23.82-19.379-43.199-43.199-43.199ZM81.735,38.977h-35.672v-21.243c15.287.257,28.6,8.755,35.672,21.243ZM44.646,17.734v21.243H8.973c7.072-12.488,20.385-20.986,35.672-21.243ZM8.213,40.394h36.433v9.921h-10.63v1.417h10.63v7.058H3.578c.11-6.62,1.777-12.863,4.635-18.396ZM46.063,58.79v-7.058h10.63v-1.417h-10.63v-9.921h36.433c2.858,5.533,4.524,11.777,4.635,18.396h-41.067ZM45.354,70.866l19.844-5.669v11.339l-19.844-5.669ZM25.51,65.197l19.844,5.669-19.844,5.669v-11.339Z"/>
  </g>
  <g id="Takt._Zeichen__x28_Typo_x29_">
    <g>
      <path d="M4.405,9.669h-.995v-.936h3.286v.936h-.996v6.404h1.02v.936h-3.346v-.936h1.031v-6.404Z"/>
      <path d="M13.823,9.8h-2.495v7.208h-1.295v-7.208h-2.506v-1.067h6.38l-.084,1.067Z"/>
      <path d="M21.502,17.008h-1.295v-3.634h-3.754v3.634h-1.295v-8.275h1.295v3.562h3.754v-3.562h1.295v8.275Z"/>
    </g>
  </g>
</svg>