<?xml version="1.0" encoding="UTF-8"?>
<svg xmlns="http://www.w3.org/2000/svg" version="1.1" viewBox="0 0 90.709 90.709">
  <!-- Generator: Adobe Illustrator 29.1.0, SVG Export Plug-In . SVG Version: 2.1.0 Build 142)  -->
  <g id="Grundfläche">
    <rect x="0" width="90.709" height="90.709" fill="none"/>
  </g>
  <g id="Flächige_Fülung">
    <path d="M45.355,22.678c-17.008,0-31.181-2.582-42.52-6.378v57.402h85.04V16.3c-11.339,3.794-25.512,6.378-42.52,6.378Z" fill="#fff"/>
  </g>
  <g id="Takt_Zeichen__x28_umgewandelt_x29_">
    <path d="M84.313,74.41h4.27V15.315s-.934.312-.934.312c-12.575,4.208-26.805,6.341-42.295,6.341S15.628,19.835,3.059,15.628l-.934-.312v59.095h4.27c-1.727,1.293-2.852,3.35-2.852,5.669,0,3.908,3.179,7.086,7.087,7.086s7.087-3.179,7.087-7.086c0-2.319-1.125-4.375-2.852-5.669h60.98c-1.727,1.293-2.852,3.35-2.852,5.669,0,3.908,3.179,7.086,7.087,7.086s7.087-3.179,7.087-7.086c0-2.319-1.125-4.375-2.852-5.669ZM87.165,44.646h-41.102v-21.272c14.985-.063,28.809-2.105,41.102-6.095v27.367ZM44.646,23.374v21.272H3.543v-27.366c12.288,3.989,26.111,6.031,41.102,6.094ZM16.299,80.079c0,3.126-2.543,5.669-5.669,5.669s-5.669-2.543-5.669-5.669,2.538-5.664,5.66-5.669h.019c3.122.005,5.66,2.546,5.66,5.669ZM3.543,72.993v-26.93h41.102v26.93H3.543ZM46.063,72.993v-26.93h41.102v26.93s-41.102,0-41.102,0ZM80.078,85.748c-3.126,0-5.669-2.543-5.669-5.669s2.538-5.664,5.66-5.669h.019c3.122.005,5.66,2.546,5.66,5.669s-2.543,5.669-5.669,5.669Z"/>
  </g>
  <g id="Takt._Zeichen__x28_Typo_x29_">
    <g>
      <path d="M14.426,35.432h-1.151l-3.826-5.841h-.024v5.841h-1.295v-8.275h1.163l3.814,5.805h.024v-5.805h1.295v8.275Z"/>
      <path d="M21.315,35.432l-.828-2.459h-2.771l-.827,2.459h-1.319l3.082-8.275h1.02l3.07,8.275h-1.427ZM19.12,28.836h-.024l-1.067,3.179h2.159l-1.067-3.179Z"/>
      <path d="M30.77,35.432h-1.104l-1.811-6.165h-.024l-1.823,6.165h-1.091l-2.243-8.275h1.391l1.463,6.213h.024l1.751-6.213h1.223l1.691,6.213h.024l1.499-6.213h1.307l-2.279,8.275Z"/>
    </g>
  </g>
</svg>