<?xml version="1.0" encoding="UTF-8"?>
<svg xmlns="http://www.w3.org/2000/svg" version="1.1" viewBox="0 0 90.709 90.709">
  <!-- Generator: Adobe Illustrator 29.1.0, SVG Export Plug-In . SVG Version: 2.1.0 Build 142)  -->
  <g id="Grundfläche">
    <rect x="0" y="0" width="90.709" height="90.709" fill="none"/>
  </g>
  <g id="Flächige_Fülung">
    <circle cx="45.356" cy="51.024" r="34.016" fill="#fff"/>
  </g>
  <g id="Takt_Zeichen__x28_umgewandelt_x29_">
    <polygon points="8.071 30.619 8.935 31.743 45.354 3.729 81.773 31.743 82.637 30.62 45.354 1.941 8.071 30.619"/>
    <path d="M45.355,16.3c-19.147,0-34.724,15.577-34.724,34.724s15.577,34.724,34.724,34.724,34.725-15.577,34.725-34.724-15.577-34.724-34.725-34.724ZM78.645,50.315h-32.582V17.734c17.803.375,32.207,14.778,32.582,32.581ZM44.645,17.734v32.581H12.067c.375-17.802,14.777-32.205,32.579-32.581ZM12.067,51.732h32.579v15.591h-10.63v1.417h10.63v15.573c-17.801-.375-32.204-14.779-32.579-32.581ZM46.063,84.313v-15.573h10.63v-1.417h-10.63v-15.591h32.582c-.375,17.803-14.779,32.206-32.582,32.581Z"/>
  </g>
  <g id="Takt._Zeichen__x28_Typo_x29_">
    <g>
      <path d="M7.788,7.446h-2.543l-.156,1.859c2.171.192,3.046,1.115,3.046,2.591,0,1.463-.971,2.422-2.662,2.422-1.283,0-1.859-.647-2.111-.887l.492-1.008c.24.276.792.84,1.583.84.936,0,1.439-.468,1.439-1.211,0-1.211-.875-1.739-2.998-1.775l.324-3.898h3.586v1.067Z"/>
      <path d="M11.785,14.318c-1.499,0-2.471-1.223-2.471-4.042,0-2.843,1.079-4.042,2.567-4.042,1.499,0,2.471,1.224,2.471,4.042,0,2.842-1.08,4.042-2.567,4.042ZM11.833,7.29c-.756,0-1.271.792-1.271,2.986,0,2.23.516,2.986,1.271,2.986s1.271-.756,1.271-2.986c0-2.195-.516-2.986-1.271-2.986Z"/>
    </g>
  </g>
</svg>