<?xml version="1.0" encoding="UTF-8"?>
<svg xmlns="http://www.w3.org/2000/svg" version="1.1" viewBox="0 0 90.709 90.709">
  <!-- Generator: Adobe Illustrator 29.1.0, SVG Export Plug-In . SVG Version: 2.1.0 Build 142)  -->
  <g id="Grundfläche">
    <rect x="0" y="0" width="90.709" height="90.709" fill="none"/>
  </g>
  <g id="Flächige_Fülung">
    <circle cx="45.356" cy="45.354" r="34.016" fill="#fff"/>
  </g>
  <g id="Takt_Zeichen__x28_umgewandelt_x29_">
    <path d="M45.355,10.63c-19.147,0-34.724,15.577-34.724,34.724s15.577,34.725,34.724,34.725,34.725-15.577,34.725-34.725S64.503,10.63,45.355,10.63ZM45.355,78.662c-18.365,0-33.307-14.942-33.307-33.308S26.99,12.047,45.355,12.047s33.307,14.941,33.307,33.307-14.941,33.308-33.307,33.308ZM59.035,43.735l-7.515-7.389-.994,1.011,7.414,7.29H17.008v1.417h40.933l-7.414,7.29.994,1.011,7.515-7.39c.719,2.734,3.205,4.758,6.161,4.758,3.517,0,6.378-2.861,6.378-6.378s-2.861-6.377-6.378-6.377c-2.956,0-5.442,2.024-6.161,4.758ZM70.157,45.354c0,2.735-2.225,4.961-4.96,4.961s-4.96-2.226-4.96-4.961,2.225-4.96,4.96-4.96,4.96,2.225,4.96,4.96Z"/>
  </g>
</svg>