<?xml version="1.0" encoding="UTF-8"?>
<svg xmlns="http://www.w3.org/2000/svg" version="1.1" viewBox="0 0 90.709 90.709">
  <!-- Generator: Adobe Illustrator 29.1.0, SVG Export Plug-In . SVG Version: 2.1.0 Build 142)  -->
  <g id="Grundfläche">
    <rect x="0" y="0" width="90.709" height="90.709" fill="none"/>
  </g>
  <g id="Flächige_Fülung">
    <circle cx="45.356" cy="45.354" r="34.016" fill="#fff"/>
  </g>
  <g id="Takt_Zeichen__x28_umgewandelt_x29_">
    <path d="M33.338,53.65l1.354.417,2.322-7.546,8.34,8.339,8.34-8.339,2.322,7.546,1.354-.417-2.542-8.263,9.954-9.954-19.427-19.427-19.427,19.427,9.954,9.954-2.542,8.263ZM45.354,52.856l-7.868-7.868,7.868-25.571,7.868,25.571-7.868,7.868ZM54.356,43.854l-7.485-24.328,15.906,15.907-8.421,8.421ZM27.931,35.433l15.907-15.907-7.485,24.328-8.421-8.421ZM45.356,10.63c-19.147,0-34.724,15.577-34.724,34.724s15.577,34.725,34.724,34.725,34.725-15.577,34.725-34.725S64.503,10.63,45.356,10.63ZM45.356,78.662c-18.365,0-33.307-14.942-33.307-33.308S26.99,12.047,45.356,12.047s33.307,14.941,33.307,33.307-14.941,33.308-33.307,33.308ZM62.863,56.192l6.171,6.17-6.171,6.17-1.002-1.002,4.46-4.46H26.221v4.961h-1.417v-11.338h1.417v4.96h40.1l-4.459-4.459,1.002-1.002Z"/>
  </g>
</svg>