<?xml version="1.0" encoding="UTF-8"?>
<svg xmlns="http://www.w3.org/2000/svg" version="1.1" viewBox="0 0 90.709 90.709">
  <!-- Generator: Adobe Illustrator 29.1.0, SVG Export Plug-In . SVG Version: 2.1.0 Build 142)  -->
  <g id="Grundfläche">
    <rect x="0" y="0" width="90.709" height="90.709" fill="none"/>
  </g>
  <g id="Flächige_Fülung">
    <circle cx="45.356" cy="51.024" r="34.016" fill="#fff"/>
  </g>
  <g id="Takt_Zeichen__x28_umgewandelt_x29_">
    <path d="M45.354,1.941l37.283,28.679-.864,1.123L45.354,3.729,8.936,31.743l-.864-1.123L45.354,1.941ZM80.08,51.024c0,19.147-15.577,34.724-34.725,34.724S10.631,70.171,10.631,51.024,26.209,16.3,45.356,16.3s34.725,15.577,34.725,34.724ZM22.442,75.162l21.876-57.419c-17.886.552-32.269,15.264-32.269,33.281,0,9.494,3.999,18.065,10.393,24.138ZM45.356,84.331c8.326,0,15.941-3.078,21.787-8.146l-21.787-57.187-21.787,57.187c5.845,5.068,13.461,8.146,21.787,8.146ZM78.663,51.024c0-18.018-14.383-32.729-32.269-33.281l21.876,57.419c6.394-6.073,10.393-14.645,10.393-24.138Z"/>
  </g>
  <g id="Takt._Zeichen__x28_Typo_x29_">
    <g>
      <path d="M7.787,7.446h-2.542l-.156,1.859c2.17.192,3.046,1.116,3.046,2.59,0,1.463-.971,2.423-2.662,2.423-1.284,0-1.859-.647-2.111-.888l.492-1.007c.24.275.792.839,1.583.839.936,0,1.439-.468,1.439-1.211,0-1.211-.875-1.739-2.998-1.775l.324-3.897h3.586v1.067Z"/>
      <path d="M11.785,14.318c-1.499,0-2.471-1.223-2.471-4.042,0-2.842,1.08-4.042,2.567-4.042,1.499,0,2.471,1.223,2.471,4.042,0,2.843-1.08,4.042-2.567,4.042ZM11.832,7.29c-.755,0-1.271.792-1.271,2.986,0,2.231.516,2.987,1.271,2.987s1.271-.755,1.271-2.987c0-2.194-.516-2.986-1.271-2.986Z"/>
      <path d="M17.785,14.318c-1.499,0-2.471-1.223-2.471-4.042,0-2.842,1.08-4.042,2.567-4.042,1.499,0,2.471,1.223,2.471,4.042,0,2.843-1.08,4.042-2.567,4.042ZM17.832,7.29c-.755,0-1.271.792-1.271,2.986,0,2.231.516,2.987,1.271,2.987s1.271-.755,1.271-2.987c0-2.194-.516-2.986-1.271-2.986Z"/>
    </g>
  </g>
</svg>