<?xml version="1.0" encoding="UTF-8"?>
<svg xmlns="http://www.w3.org/2000/svg" version="1.1" viewBox="0 0 90.709 90.709">
  <!-- Generator: Adobe Illustrator 29.1.0, SVG Export Plug-In . SVG Version: 2.1.0 Build 142)  -->
  <g id="Grundfläche">
    <rect x="0" y="0" width="90.709" height="90.709" fill="none"/>
  </g>
  <g id="Flächige_Fülung">
    <polygon points="45.354 11.338 5.669 27.921 5.669 73.701 85.04 73.701 85.04 27.921 45.354 11.338" fill="#fff"/>
  </g>
  <g id="Takt_Zeichen__x28_umgewandelt_x29_">
    <path d="M4.96,27.45v46.959h80.788V27.45L45.354,10.57,4.96,27.45ZM82.522,27.638H8.185l37.169-15.531,37.169,15.531ZM64.488,39.684v10.631h-18.425v-21.261h38.267v21.261h-18.425v-10.631h-1.417ZM24.803,39.684v10.631H6.377v-21.261h38.268v21.261h-18.425v-10.631h-1.417ZM6.377,51.732h18.426v10.629h1.417v-10.629h18.425v21.26H6.377v-21.26ZM46.063,72.992v-21.26h18.425v10.629h1.417v-10.629h18.425v21.26h-38.267Z"/>
  </g>
</svg>