<?xml version="1.0" encoding="UTF-8"?>
<svg xmlns="http://www.w3.org/2000/svg" version="1.1" viewBox="0 0 90.709 90.709">
  <!-- Generator: Adobe Illustrator 29.1.0, SVG Export Plug-In . SVG Version: 2.1.0 Build 142)  -->
  <g id="Grundfläche">
    <rect x="0" width="90.709" height="90.709" fill="none"/>
  </g>
  <g id="Flächige_Fülung">
    <rect x="2.834" y="17.008" width="85.04" height="56.693" fill="#fff"/>
  </g>
  <g id="Takt_Zeichen__x28_umgewandelt_x29_">
    <circle cx="45.354" cy="9.921" r="4.252"/>
    <path d="M2.125,74.41h86.457V16.3H2.125v58.11ZM87.165,17.717v47.48H3.543V17.717h83.622ZM45.354,51.732c5.647,0,10.738-3.143,13.286-8.203l.319-.633-12.027-6.045,12.027-6.046-.319-.633c-2.548-5.06-7.639-8.203-13.286-8.203-8.206,0-14.882,6.676-14.882,14.882s6.676,14.881,14.882,14.881ZM45.354,23.386c4.872,0,9.286,2.587,11.685,6.798l-12.003,6.034v1.267l12.003,6.033c-2.399,4.211-6.813,6.798-11.685,6.798-7.424,0-13.464-6.04-13.464-13.464s6.04-13.465,13.464-13.465Z"/>
  </g>
  <g id="Takt._Zeichen__x28_Typo_x29_">
    <g>
      <path d="M54.216,59.623v-8.275h1.835c3.118,0,4.545,1.14,4.545,3.982,0,2.986-1.751,4.293-4.677,4.293h-1.703ZM55.511,52.44v6.093h.408c2.147,0,3.31-.9,3.31-3.203,0-2.147-1.103-2.89-3.178-2.89h-.54Z"/>
      <path d="M63.599,51.348v7.208h3.406l-.084,1.067h-4.617v-8.275h1.295Z"/>
      <path d="M72.514,59.623l-1.871-3.214c-.192.024-.384.024-.588.024h-.492v3.19h-1.295v-8.275h1.847c2.291,0,3.334.852,3.334,2.435,0,1.08-.504,1.907-1.535,2.339l2.159,3.502h-1.559ZM70.115,52.415h-.552v2.963h.492c1.379,0,2.015-.552,2.015-1.56,0-.959-.612-1.403-1.955-1.403Z"/>
      <path d="M81.237,59c-.252.216-1.02.768-2.519.768-2.183,0-3.802-1.151-3.802-4.317,0-2.962,2.027-4.246,4.054-4.246,1.391,0,2.087.575,2.303.743l-.444,1.02c-.192-.168-.78-.659-1.823-.659-1.439,0-2.71.899-2.71,3.142,0,2.254.936,3.214,2.591,3.214.42,0,.792-.072,1.103-.168v-2.111h-1.487v-1.067h2.735v3.682Z"/>
    </g>
  </g>
</svg>