<?xml version="1.0" encoding="UTF-8"?>
<svg xmlns="http://www.w3.org/2000/svg" version="1.1" viewBox="0 0 90.709 90.709">
  <!-- Generator: Adobe Illustrator 29.1.0, SVG Export Plug-In . SVG Version: 2.1.0 Build 142)  -->
  <g id="Grundfläche">
    <rect x="0" width="90.709" height="90.709" fill="none"/>
  </g>
  <g id="Flächige_Fülung">
    <rect x="2.835" y="17.009" width="85.04" height="56.693" fill="#fff"/>
  </g>
  <g id="Takt_Zeichen__x28_umgewandelt_x29_">
    <path d="M87.165,17.008h1.417v57.401H2.126V17.008h1.417v48.188h83.622V17.008ZM40.394,41.487v18.041h1.417v-18.041c0-1.326-.405-2.6-1.17-3.682l-8.191-11.584h25.809l-8.191,11.584c-.766,1.083-1.17,2.356-1.17,3.682v18.041h1.417v-18.041c0-1.031.315-2.021.91-2.864l9.011-12.745v-1.075h-29.764v1.075l9.011,12.745c.595.842.91,1.833.91,2.864Z"/>
  </g>
</svg>