<?xml version="1.0" encoding="UTF-8"?>
<svg xmlns="http://www.w3.org/2000/svg" version="1.1" viewBox="0 0 90.709 90.709">
  <!-- Generator: Adobe Illustrator 29.1.0, SVG Export Plug-In . SVG Version: 2.1.0 Build 142)  -->
  <g id="Grundfläche">
    <rect x="0" y="0" width="90.709" height="90.709" fill="none"/>
  </g>
  <g id="Flächige_Fülung">
    <circle cx="45.354" cy="45.354" r="34.016" fill="#fafa00"/>
  </g>
  <g id="Takt_Zeichen__x28_umgewandelt_x29_">
    <path d="M45.354,10.63c-19.147,0-34.724,15.577-34.724,34.724s15.577,34.725,34.724,34.725,34.725-15.577,34.725-34.725S64.501,10.63,45.354,10.63ZM69.718,68.031H20.99c-5.542-5.951-8.943-13.922-8.943-22.677,0-18.366,14.941-33.307,33.307-33.307s33.307,14.941,33.307,33.307c0,8.754-3.4,16.726-8.943,22.677ZM70.866,34.725v1.417c-4.298,0-7.795,3.497-7.795,7.795s3.497,7.795,7.795,7.795v1.417c-4.841,0-8.813-3.755-9.177-8.504H29.019c-.364,4.749-4.336,8.504-9.177,8.504v-1.417c4.298,0,7.795-3.497,7.795-7.795s-3.497-7.795-7.795-7.795v-1.417c4.841,0,8.813,3.755,9.177,8.504h32.67c.364-4.749,4.336-8.504,9.177-8.504Z"/>
  </g>
</svg>