<?xml version="1.0" encoding="UTF-8"?>
<svg xmlns="http://www.w3.org/2000/svg" version="1.1" viewBox="0 0 90.709 90.709">
  <!-- Generator: Adobe Illustrator 29.1.0, SVG Export Plug-In . SVG Version: 2.1.0 Build 142)  -->
  <g id="Grundfläche">
    <rect x="0" width="90.709" height="90.709" fill="none"/>
  </g>
  <g id="Flächige_Fülung">
    <rect x="2.835" y="17.009" width="85.04" height="56.693" fill="#fff"/>
  </g>
  <g id="Takt_Zeichen__x28_umgewandelt_x29_">
    <path d="M87.165,17.008h1.417v57.401H2.126V17.008h1.417v48.188h83.622V17.008ZM22.552,40.087c1.896-2.758,3.686-5.362,7.211-5.362s5.315,2.604,7.211,5.362c2.02,2.938,4.109,5.976,8.379,5.976s6.36-3.038,8.38-5.976c1.896-2.758,3.687-5.362,7.212-5.362s5.316,2.604,7.212,5.362c2.02,2.938,4.109,5.976,8.38,5.976v-1.417c-3.525,0-5.316-2.604-7.212-5.362-2.02-2.938-4.109-5.976-8.38-5.976s-6.36,3.038-8.38,5.976c-1.896,2.758-3.687,5.362-7.212,5.362s-5.315-2.604-7.211-5.362c-2.02-2.938-4.109-5.976-8.379-5.976s-6.359,3.038-8.379,5.976c-1.896,2.758-3.686,5.362-7.21,5.362v1.417c4.27,0,6.359-3.038,8.378-5.976Z"/>
  </g>
</svg>