<?xml version="1.0" encoding="UTF-8"?>
<svg xmlns="http://www.w3.org/2000/svg" version="1.1" viewBox="0 0 90.709 90.709">
  <!-- Generator: Adobe Illustrator 29.1.0, SVG Export Plug-In . SVG Version: 2.1.0 Build 142)  -->
  <g id="Grundfläche">
    <rect x="0" y="0" width="90.709" height="90.709" fill="none"/>
  </g>
  <g id="Flächige_Fülung">
    <rect x="2.834" y="17.008" width="85.04" height="56.693" fill="#fa8c00"/>
  </g>
  <g id="Takt_Zeichen__x28_umgewandelt_x29_">
    <path d="M63.779,9.921c0,2.348-1.904,4.252-4.252,4.252-2.348,0-4.252-1.904-4.252-4.252s1.904-4.252,4.252-4.252c2.348,0,4.252,1.904,4.252,4.252ZM31.181,5.669c-2.348,0-4.252,1.904-4.252,4.252s1.904,4.252,4.252,4.252c2.348,0,4.252-1.904,4.252-4.252s-1.904-4.252-4.252-4.252Z"/>
    <path d="M2.126,74.41h86.457V16.3H2.126v58.11ZM3.543,17.717h83.622v55.276H3.543V17.717ZM67.558,24.804h8.978v1.417h-8.03l-16.827,40.665h-1.31l-16.827-40.665h-8.03v-1.417h8.978l16.534,39.957,16.534-39.957ZM33.064,51.024c0,1.954-1.59,3.543-3.543,3.543-1.787,0-3.254-1.334-3.494-3.056l-3.764,3.764,8.21,8.21v-3.958h1.417v6.378h-6.378v-1.417h3.958l-8.211-8.211-8.211,8.211h3.959v1.417h-6.378v-6.378h1.417v3.958l8.211-8.21-3.764-3.764c-.24,1.721-1.707,3.056-3.494,3.056-1.954,0-3.543-1.589-3.543-3.543s1.59-3.543,3.543-3.543c.977,0,1.863.397,2.505,1.039l5.756,5.754,5.756-5.754c.642-.642,1.527-1.039,2.504-1.039,1.954,0,3.543,1.589,3.543,3.543Z"/>
  </g>
</svg>