<?xml version="1.0" encoding="UTF-8"?>
<svg xmlns="http://www.w3.org/2000/svg" version="1.1" viewBox="0 0 90.709 90.709">
  <!-- Generator: Adobe Illustrator 29.1.0, SVG Export Plug-In . SVG Version: 2.1.0 Build 142)  -->
  <g id="Grundfläche">
    <rect x="0" y="0" width="90.709" height="90.709" fill="none"/>
  </g>
  <g id="Flächige_Fülung">
    <rect x="2.834" y="17.008" width="85.04" height="56.693" fill="#fa8c00"/>
  </g>
  <g id="Takt_Zeichen__x28_umgewandelt_x29_">
    <path d="M63.779,9.921c0,2.348-1.904,4.252-4.252,4.252-2.348,0-4.252-1.904-4.252-4.252s1.904-4.252,4.252-4.252c2.348,0,4.252,1.904,4.252,4.252ZM31.181,5.669c-2.348,0-4.252,1.904-4.252,4.252s1.904,4.252,4.252,4.252c2.348,0,4.252-1.904,4.252-4.252s-1.904-4.252-4.252-4.252Z"/>
    <path d="M10.63,66.22v1.103h6.377s6.378,0,6.378,0v-1.103l-4.885-5.984h24.019v-1.417H8.503v1.417h7.011l-4.885,5.984ZM17.008,65.906h-4.292l4.292-5.258,4.292,5.258h-4.292ZM2.126,16.3v58.11h86.457V16.3H2.126ZM87.165,72.993H3.543V17.717h83.623v55.276ZM33.542,26.221h-8.03v-1.417h8.978l16.534,39.957,16.534-39.957h8.978v1.417h-8.03l-16.827,40.665h-1.31l-16.827-40.665Z"/>
  </g>
</svg>