<?xml version="1.0" encoding="UTF-8"?>
<svg xmlns="http://www.w3.org/2000/svg" version="1.1" viewBox="0 0 90.709 90.709">
  <!-- Generator: Adobe Illustrator 29.1.0, SVG Export Plug-In . SVG Version: 2.1.0 Build 142)  -->
  <g id="Grundfläche">
    <rect x="0" y="0" width="90.709" height="90.709" fill="none"/>
  </g>
  <g id="Flächige_Fülung">
    <rect x="2.835" y="17.009" width="85.04" height="56.693" fill="#fff"/>
  </g>
  <g id="Takt_Zeichen__x28_umgewandelt_x29_">
    <path d="M2.126,16.299v58.11h86.457V16.299H2.126ZM87.165,72.992H3.543V17.717h83.622v55.274ZM37.353,37.352c-.724.724-1.626,1.625-3.337,1.625v-1.418c1.125,0,1.659-.533,2.335-1.21.724-.724,1.626-1.625,3.337-1.625s2.613.901,3.337,1.625c.676.677,1.21,1.21,2.335,1.21s1.657-.533,2.333-1.21c.724-.724,1.625-1.625,3.335-1.625s2.61.901,3.333,1.626c.675.676,1.208,1.209,2.33,1.209v1.418c-1.71,0-2.61-.901-3.333-1.626-.675-.676-1.208-1.209-2.33-1.209s-1.657.533-2.333,1.21c-.724.724-1.625,1.625-3.336,1.625s-2.613-.901-3.337-1.625c-.676-.677-1.21-1.21-2.335-1.21s-1.659.533-2.335,1.21ZM37.353,31.683c-.724.724-1.626,1.625-3.337,1.625v-1.418c1.125,0,1.659-.533,2.335-1.21.724-.724,1.626-1.625,3.337-1.625s2.613.901,3.337,1.625c.676.677,1.21,1.21,2.335,1.21s1.657-.533,2.333-1.21c.724-.724,1.625-1.625,3.335-1.625s2.61.901,3.333,1.626c.675.676,1.208,1.209,2.33,1.209v1.418c-1.71,0-2.61-.901-3.333-1.626-.675-.676-1.208-1.209-2.33-1.209s-1.657.533-2.333,1.21c-.724.724-1.625,1.625-3.336,1.625s-2.613-.901-3.337-1.625c-.676-.677-1.21-1.21-2.335-1.21s-1.659.533-2.335,1.21ZM57.695,53.859l-12.341-12.341-12.341,12.341,12.341,12.34,12.341-12.34ZM45.355,43.522l10.336,10.337-10.336,10.336-10.336-10.336,10.336-10.337Z"/>
    <rect x="43.228" y="2.835" width="4.252" height="11.339"/>
  </g>
</svg>