<?xml version="1.0" encoding="UTF-8"?>
<svg xmlns="http://www.w3.org/2000/svg" version="1.1" viewBox="0 0 90.709 90.709">
  <!-- Generator: Adobe Illustrator 29.1.0, SVG Export Plug-In . SVG Version: 2.1.0 Build 142)  -->
  <g id="Grundfläche">
    <rect x="0" width="90.709" height="90.709" fill="none"/>
  </g>
  <g id="Flächige_Fülung">
    <rect x="2.835" y="17.009" width="85.04" height="56.693" fill="#fff"/>
  </g>
  <g id="Takt_Zeichen__x28_umgewandelt_x29_">
    <path d="M88.583,74.41H2.126V16.299h86.457v58.111ZM3.543,72.992h83.622V17.716H3.543v55.275ZM56.693,43.228c-1.122,0-1.655-.533-2.33-1.209-.723-.725-1.624-1.626-3.333-1.626s-2.612.901-3.335,1.625c-.676.677-1.209,1.21-2.333,1.21s-1.659-.533-2.335-1.21c-.724-.724-1.626-1.625-3.337-1.625s-2.613.901-3.337,1.625c-.676.677-1.21,1.21-2.335,1.21v1.418c1.711,0,2.613-.901,3.337-1.625.676-.677,1.21-1.21,2.335-1.21s1.659.533,2.335,1.21c.724.724,1.626,1.625,3.337,1.625s2.612-.901,3.335-1.625c.676-.677,1.209-1.21,2.333-1.21s1.655.533,2.33,1.209c.723.725,1.624,1.626,3.333,1.626v-1.418ZM56.693,37.558c-1.122,0-1.656-.533-2.331-1.209-.723-.724-1.624-1.625-3.333-1.625s-2.612.901-3.335,1.625c-.676.676-1.21,1.209-2.333,1.209s-1.659-.533-2.335-1.209c-.724-.724-1.626-1.625-3.337-1.625s-2.613.901-3.337,1.625c-.676.676-1.21,1.209-2.335,1.209v1.418c1.711,0,2.613-.901,3.337-1.625.676-.676,1.21-1.209,2.335-1.209s1.659.533,2.335,1.209c.724.724,1.626,1.625,3.337,1.625s2.612-.901,3.335-1.625c.676-.676,1.21-1.209,2.333-1.209s1.656.533,2.331,1.209c.723.724,1.624,1.625,3.333,1.625v-1.418ZM45.354,69.034l-10.923-10.924,10.923-10.923,10.924,10.923-10.924,10.924ZM36.435,58.11l8.919,8.92,8.919-8.92-8.919-8.919-8.919,8.919Z"/>
    <circle cx="45.354" cy="9.921" r="4.252"/>
  </g>
  <g id="Takt._Zeichen__x28_Typo_x29_">
    <g>
      <path d="M43.714,29.907c-2.171,0-3.682-1.476-3.682-4.282s1.559-4.281,3.73-4.281c2.159,0,3.658,1.476,3.658,4.281s-1.547,4.282-3.706,4.282ZM43.738,22.447c-1.451,0-2.327,1.067-2.327,3.178,0,2.075.875,3.179,2.327,3.179,1.427,0,2.315-1.104,2.315-3.179,0-2.11-.887-3.178-2.315-3.178ZM42.527,20.876c-.396,0-.684-.24-.684-.647s.288-.66.684-.66c.408,0,.684.252.684.66s-.276.647-.684.647ZM44.925,20.876c-.408,0-.684-.24-.684-.647s.276-.66.684-.66c.396,0,.684.252.684.66s-.288.647-.684.647Z"/>
      <path d="M50.099,28.132c0,.588.156.756.54.756.204,0,.348-.049.42-.072l.072.852c-.084.061-.396.204-.887.204-.852,0-1.355-.396-1.355-1.607v-6.968l1.211-.12v6.956Z"/>
    </g>
  </g>
</svg>