<?xml version="1.0" encoding="UTF-8"?>
<svg xmlns="http://www.w3.org/2000/svg" version="1.1" viewBox="0 0 90.709 90.709">
  <!-- Generator: Adobe Illustrator 29.1.0, SVG Export Plug-In . SVG Version: 2.1.0 Build 142)  -->
  <g id="Grundfläche">
    <rect x="0" y="0" width="90.709" height="90.709" fill="none"/>
  </g>
  <g id="Flächige_Fülung">
    <rect x="2.835" y="17.009" width="85.04" height="56.693" fill="#fff"/>
  </g>
  <g id="Takt_Zeichen__x28_umgewandelt_x29_">
    <path d="M88.583,74.409H2.126V16.299h86.457v58.11ZM3.543,72.991h83.622V17.717H3.543v55.274ZM56.693,37.559c-1.122,0-1.655-.533-2.33-1.209-.723-.725-1.624-1.626-3.333-1.626s-2.612.901-3.335,1.625c-.676.677-1.209,1.21-2.333,1.21s-1.659-.533-2.335-1.21c-.724-.724-1.626-1.625-3.337-1.625s-2.613.901-3.337,1.625c-.676.677-1.21,1.21-2.335,1.21v1.418c1.711,0,2.613-.901,3.337-1.625.676-.677,1.21-1.21,2.335-1.21s1.659.533,2.335,1.21c.724.724,1.626,1.625,3.337,1.625s2.612-.901,3.336-1.625c.676-.677,1.209-1.21,2.333-1.21s1.655.533,2.33,1.209c.723.725,1.624,1.626,3.333,1.626v-1.418ZM56.693,31.89c-1.122,0-1.655-.533-2.33-1.209-.723-.725-1.624-1.626-3.333-1.626s-2.612.901-3.335,1.625c-.676.677-1.209,1.21-2.333,1.21s-1.659-.533-2.335-1.21c-.724-.724-1.626-1.625-3.337-1.625s-2.613.901-3.337,1.625c-.676.677-1.21,1.21-2.335,1.21v1.418c1.711,0,2.613-.901,3.337-1.625.676-.677,1.21-1.21,2.335-1.21s1.659.533,2.335,1.21c.724.724,1.626,1.625,3.337,1.625s2.612-.901,3.336-1.625c.676-.677,1.209-1.21,2.333-1.21s1.655.533,2.33,1.209c.723.725,1.624,1.626,3.333,1.626v-1.418ZM45.355,66.198l-12.341-12.34,12.341-12.341,12.341,12.341-12.341,12.34ZM35.018,53.859l10.336,10.336,10.336-10.336-10.336-10.337-10.336,10.337Z"/>
    <circle cx="45.354" cy="9.921" r="4.252"/>
  </g>
</svg>