<?xml version="1.0" encoding="UTF-8"?>
<svg xmlns="http://www.w3.org/2000/svg" version="1.1" viewBox="0 0 90.709 90.709">
  <!-- Generator: Adobe Illustrator 29.1.0, SVG Export Plug-In . SVG Version: 2.1.0 Build 142)  -->
  <g id="Grundfläche">
    <rect x="0" y="0" width="90.709" height="90.709" fill="none"/>
  </g>
  <g id="Flächige_Fülung">
    <rect x="2.835" y="17.009" width="85.04" height="56.693" fill="#fff"/>
  </g>
  <g id="Takt_Zeichen__x28_umgewandelt_x29_">
    <circle cx="45.354" cy="9.921" r="4.252"/>
    <path d="M2.126,16.299v58.11h86.457V16.299H2.126ZM87.165,72.992H3.543V17.717h83.623v55.274ZM54.362,47.972c.675.676,1.208,1.209,2.331,1.209v1.418c-1.71,0-2.61-.901-3.333-1.626-.675-.676-1.208-1.209-2.33-1.209s-1.658.533-2.333,1.21c-.724.724-1.625,1.625-3.335,1.625s-2.613-.901-3.337-1.625c-.676-.676-1.21-1.21-2.335-1.21s-1.659.533-2.335,1.21c-.724.724-1.625,1.625-3.337,1.625v-1.418c1.125,0,1.659-.534,2.335-1.21.724-.724,1.625-1.625,3.337-1.625s2.613.901,3.337,1.625c.676.677,1.21,1.21,2.335,1.21s1.658-.533,2.333-1.21c.724-.724,1.625-1.625,3.335-1.625s2.609.901,3.333,1.626ZM54.362,43.437c.675.676,1.208,1.209,2.331,1.209v1.418c-1.71,0-2.61-.901-3.333-1.626-.675-.676-1.208-1.209-2.33-1.209s-1.658.533-2.333,1.21c-.724.724-1.625,1.625-3.335,1.625s-2.613-.901-3.337-1.625c-.676-.676-1.21-1.21-2.335-1.21s-1.659.533-2.335,1.21c-.724.724-1.625,1.625-3.337,1.625v-1.418c1.125,0,1.659-.534,2.335-1.21.724-.724,1.625-1.625,3.337-1.625s2.613.901,3.337,1.625c.676.677,1.21,1.21,2.335,1.21s1.658-.533,2.333-1.21c.724-.724,1.625-1.625,3.335-1.625s2.609.901,3.333,1.626ZM35.332,61.847l10.022,10.022,10.021-10.022-10.021-10.021-10.022,10.021ZM45.354,69.866l-8.018-8.019,8.018-8.018,8.018,8.018-8.018,8.019ZM33.55,23.103c0-1.954,1.589-3.544,3.543-3.544.977,0,1.863.397,2.504,1.039l5.756,5.754,5.756-5.754c.642-.642,1.527-1.039,2.504-1.039,1.954,0,3.543,1.59,3.543,3.544s-1.589,3.544-3.543,3.544c-1.787,0-3.254-1.335-3.494-3.058l-3.765,3.765,8.211,8.211v-3.958h1.417v6.378h-6.378v-1.418h3.958l-8.21-8.211-8.21,8.211h3.958v1.418h-6.378v-6.378h1.417v3.958l8.211-8.211-3.764-3.764c-.24,1.722-1.707,3.057-3.494,3.057-1.954,0-3.543-1.59-3.543-3.544Z"/>
  </g>
</svg>