<?xml version="1.0" encoding="UTF-8"?>
<svg xmlns="http://www.w3.org/2000/svg" version="1.1" viewBox="0 0 90.709 90.709">
  <!-- Generator: Adobe Illustrator 29.1.0, SVG Export Plug-In . SVG Version: 2.1.0 Build 142)  -->
  <g id="Grundfläche">
    <rect x="0" width="90.709" height="90.709" fill="none"/>
  </g>
  <g id="Flächige_Fülung">
    <rect x="2.835" y="17.009" width="85.04" height="56.693" fill="#fff"/>
  </g>
  <g id="Takt_Zeichen__x28_umgewandelt_x29_">
    <path d="M88.583,74.41H2.126V16.299h86.457v58.111ZM3.543,72.992h83.622V17.716H3.543v55.275ZM56.693,43.228c-1.122,0-1.655-.533-2.33-1.209-.723-.725-1.624-1.626-3.333-1.626s-2.612.901-3.335,1.625c-.676.677-1.209,1.21-2.333,1.21s-1.659-.533-2.335-1.21c-.724-.724-1.626-1.625-3.337-1.625s-2.613.901-3.337,1.625c-.676.677-1.21,1.21-2.335,1.21v1.418c1.711,0,2.613-.901,3.337-1.625.676-.677,1.21-1.21,2.335-1.21s1.659.533,2.335,1.21c.724.724,1.626,1.625,3.337,1.625s2.612-.901,3.335-1.625c.676-.677,1.209-1.21,2.333-1.21s1.655.533,2.33,1.209c.723.725,1.624,1.626,3.333,1.626v-1.418ZM56.693,37.558c-1.122,0-1.656-.533-2.331-1.209-.723-.724-1.624-1.625-3.333-1.625s-2.612.901-3.335,1.625c-.676.676-1.21,1.209-2.333,1.209s-1.659-.533-2.335-1.209c-.724-.724-1.626-1.625-3.337-1.625s-2.613.901-3.337,1.625c-.676.676-1.21,1.209-2.335,1.209v1.418c1.711,0,2.613-.901,3.337-1.625.676-.676,1.21-1.209,2.335-1.209s1.659.533,2.335,1.209c.724.724,1.626,1.625,3.337,1.625s2.612-.901,3.335-1.625c.676-.676,1.21-1.209,2.333-1.209s1.656.533,2.331,1.209c.723.724,1.624,1.625,3.333,1.625v-1.418ZM45.354,69.034l-10.923-10.924,10.923-10.923,10.924,10.923-10.924,10.924ZM36.435,58.11l8.919,8.92,8.919-8.92-8.919-8.919-8.919,8.919Z"/>
    <circle cx="45.354" cy="9.921" r="4.252"/>
  </g>
  <g id="Takt._Zeichen__x28_Typo_x29_">
    <g>
      <path d="M11.044,22.737c-.18-.14-.6-.47-1.249-.47-.72,0-1.06.32-1.06.729,0,.49.22.75.93,1.189l.669.41c.87.539,1.359,1.1,1.359,1.988,0,1.01-.76,1.879-2.289,1.879-1.1,0-1.649-.449-1.879-.639l.37-.95c.22.22.75.64,1.489.64.829,0,1.209-.369,1.209-.789,0-.53-.26-.8-.909-1.229l-.68-.45c-.93-.619-1.35-1.089-1.35-2.028,0-.93.8-1.689,2.089-1.689.979,0,1.449.37,1.649.521l-.35.889Z"/>
      <path d="M15.145,24.346h-1.179v2.249c0,.729.19.989.68.989.25,0,.45-.08.54-.12l.09.78c-.09.049-.37.209-.89.209-1.009,0-1.439-.52-1.439-1.749v-2.358h-.66v-.699l.66-.12.12-1.35h.899v1.339h1.289l-.11.83Z"/>
      <path d="M18.725,24.386c-.05-.03-.18-.08-.41-.08-.6,0-.94.319-1.09.6v3.438h-1.019v-4.828h.939v.69h.02c.18-.39.51-.78,1.219-.78.2,0,.35.041.419.061l-.08.899Z"/>
      <path d="M21.485,28.464c-1.2,0-2.129-.799-2.129-2.538,0-1.729,1.06-2.528,2.229-2.528,1.2,0,2.119.779,2.119,2.528,0,1.719-1.06,2.538-2.219,2.538ZM20.656,22.708c-.32,0-.56-.23-.56-.57s.24-.58.56-.58.56.24.56.58-.24.57-.56.57ZM21.535,24.276c-.649,0-1.139.5-1.139,1.649,0,1.159.49,1.659,1.139,1.659.66,0,1.129-.51,1.129-1.659,0-1.159-.49-1.649-1.129-1.649ZM22.434,22.708c-.32,0-.569-.23-.569-.57s.25-.58.569-.58.56.24.56.58-.24.57-.56.57Z"/>
      <path d="M25.786,24.056h.02c.19-.229.63-.659,1.419-.659.569,0,.989.229,1.239.689.25-.28.729-.689,1.489-.689,1.079,0,1.629.649,1.629,1.929v3.019h-1.009v-2.858c0-.85-.3-1.21-.91-1.21-.479,0-.799.25-.989.43.03.19.05.4.05.62v3.019h-1.009v-2.858c0-.85-.24-1.21-.79-1.21-.54,0-.88.25-1.06.44v3.628h-1.02v-4.828h.939v.54Z"/>
      <path d="M36.844,28.344h-.929v-.54h-.02c-.17.2-.56.659-1.439.659-1.019,0-1.559-.639-1.559-1.929v-3.019h1.02v2.849c0,.86.25,1.22.85,1.22.55,0,.859-.24,1.06-.43v-3.639h1.019v4.828Z"/>
      <path d="M41.214,28.344v-2.858c0-.83-.26-1.21-.879-1.21-.53,0-.89.25-1.089.44v3.628h-1.02v-4.828h.939v.54h.02c.19-.229.64-.659,1.449-.659,1.029,0,1.589.659,1.589,1.929v3.019h-1.01Z"/>
      <path d="M47.564,24.216h-.66c.14.239.229.52.229.819,0,1.069-.829,1.639-1.909,1.639-.15,0-.3-.01-.44-.029-.14.07-.31.21-.31.41,0,.189.13.319.439.319h1.01c1.029,0,1.629.42,1.629,1.289,0,.95-.89,1.8-2.619,1.8-1.199,0-1.839-.46-1.839-1.29,0-.689.52-.989.81-1.14v-.029c-.2-.16-.29-.39-.29-.67,0-.51.44-.789.58-.859v-.02c-.49-.25-.81-.721-.81-1.42,0-1.109.839-1.639,1.879-1.639.26,0,.51.05.729.119h1.679l-.11.7ZM44.406,28.215c-.19.13-.39.35-.39.729,0,.51.35.729,1.02.729,1.069,0,1.569-.399,1.569-.87,0-.399-.22-.559-.74-.559h-1.049c-.15,0-.29-.011-.41-.03ZM45.275,24.157c-.5,0-.949.25-.949.879s.45.869.929.869c.5,0,.939-.239.939-.869s-.439-.879-.919-.879Z"/>
      <path d="M51.075,24.626c-.16-.119-.52-.399-1.04-.399-.47,0-.709.19-.709.43,0,.32.2.47.68.71l.33.16c.75.369,1.189.779,1.189,1.519,0,.81-.58,1.419-1.769,1.419-.83,0-1.27-.31-1.489-.51l.34-.849c.2.2.57.499,1.129.499.53,0,.83-.189.83-.459,0-.391-.26-.52-.78-.8l-.32-.17c-.689-.35-1.069-.76-1.069-1.47,0-.779.69-1.309,1.639-1.309.78,0,1.169.31,1.339.449l-.3.779Z"/>
      <path d="M55.124,24.386c-.05-.03-.18-.08-.41-.08-.6,0-.94.319-1.09.6v3.438h-1.019v-4.828h.939v.69h.02c.18-.39.51-.78,1.219-.78.2,0,.35.041.419.061l-.08.899Z"/>
      <path d="M59.464,26.175h-2.708c.06.989.56,1.419,1.399,1.419.7,0,1.089-.319,1.22-.43l.26.72c-.15.149-.57.579-1.649.579-1.349,0-2.219-.77-2.219-2.578,0-1.709,1-2.488,2.139-2.488,1.019,0,1.649.67,1.649,1.908,0,.37-.04.641-.09.87ZM56.745,25.456h1.869c.02-.109.02-.189.02-.279,0-.6-.31-.96-.82-.96-.589,0-1.019.43-1.069,1.239Z"/>
      <path d="M63.184,24.346h-1.18v2.249c0,.729.19.989.68.989.25,0,.45-.08.54-.12l.09.78c-.09.049-.37.209-.89.209-1.009,0-1.439-.52-1.439-1.749v-2.358h-.66v-.699l.66-.12.12-1.35h.899v1.339h1.29l-.11.83Z"/>
      <path d="M66.674,24.346h-1.179v2.249c0,.729.19.989.68.989.25,0,.45-.08.54-.12l.09.78c-.09.049-.37.209-.89.209-1.009,0-1.439-.52-1.439-1.749v-2.358h-.66v-.699l.66-.12.12-1.35h.899v1.339h1.289l-.11.83Z"/>
      <path d="M71.643,28.344h-.93v-.54h-.02c-.17.2-.56.659-1.439.659-1.02,0-1.559-.639-1.559-1.929v-3.019h1.02v2.849c0,.86.25,1.22.849,1.22.55,0,.86-.24,1.06-.43v-3.639h1.02v4.828Z"/>
      <path d="M76.014,28.344v-2.858c0-.83-.26-1.21-.879-1.21-.53,0-.89.25-1.09.44v3.628h-1.019v-4.828h.939v.54h.02c.19-.229.64-.659,1.449-.659,1.029,0,1.589.659,1.589,1.929v3.019h-1.009Z"/>
      <path d="M82.363,24.216h-.66c.14.239.23.52.23.819,0,1.069-.83,1.639-1.909,1.639-.15,0-.3-.01-.439-.029-.14.07-.31.21-.31.41,0,.189.13.319.44.319h1.009c1.03,0,1.629.42,1.629,1.289,0,.95-.89,1.8-2.619,1.8-1.199,0-1.839-.46-1.839-1.29,0-.689.52-.989.81-1.14v-.029c-.2-.16-.29-.39-.29-.67,0-.51.44-.789.58-.859v-.02c-.49-.25-.81-.721-.81-1.42,0-1.109.84-1.639,1.879-1.639.26,0,.51.05.73.119h1.679l-.11.7ZM79.205,28.215c-.19.13-.39.35-.39.729,0,.51.35.729,1.02.729,1.069,0,1.569-.399,1.569-.87,0-.399-.22-.559-.74-.559h-1.049c-.15,0-.29-.011-.41-.03ZM80.075,24.157c-.5,0-.95.25-.95.879s.45.869.93.869c.5,0,.939-.239.939-.869s-.44-.879-.919-.879Z"/>
    </g>
  </g>
</svg>