<?xml version="1.0" encoding="UTF-8"?>
<svg xmlns="http://www.w3.org/2000/svg" version="1.1" viewBox="0 0 90.709 90.709">
  <!-- Generator: Adobe Illustrator 29.1.0, SVG Export Plug-In . SVG Version: 2.1.0 Build 142)  -->
  <g id="Grundfläche">
    <rect x="0" y="0" width="90.709" height="90.709" fill="none"/>
  </g>
  <g id="Flächige_Fülung">
    <rect x="2.835" y="17.009" width="85.04" height="56.693" fill="#fff"/>
  </g>
  <g id="Takt_Zeichen__x28_umgewandelt_x29_">
    <path d="M2.126,74.41h86.457V16.299H2.126v58.11ZM3.543,17.717h83.622v55.274H3.543V17.717ZM30.472,42.563c0,9.18,5.703,14.882,14.882,14.882s14.882-5.702,14.882-14.882v-.709h-29.764v.709ZM58.807,43.272c-.276,8.004-5.26,12.755-13.453,12.755s-13.177-4.751-13.453-12.755h26.905ZM26.015,50.523c.675.676,1.208,1.209,2.331,1.209v1.418c-1.709,0-2.61-.901-3.333-1.625-.675-.676-1.208-1.209-2.331-1.209s-1.657.533-2.333,1.209c-.724.724-1.625,1.625-3.335,1.625s-2.613-.901-3.337-1.625c-.676-.676-1.21-1.209-2.335-1.209s-1.659.533-2.335,1.209c-.724.724-1.626,1.625-3.337,1.625v-1.418c1.125,0,1.659-.533,2.335-1.209.724-.724,1.626-1.625,3.337-1.625s2.613.901,3.337,1.625c.676.676,1.21,1.209,2.335,1.209s1.657-.533,2.333-1.209c.724-.724,1.625-1.625,3.335-1.625s2.61.901,3.333,1.625ZM26.015,44.854c.675.676,1.208,1.209,2.33,1.209v1.418c-1.71,0-2.61-.901-3.333-1.626-.675-.676-1.208-1.209-2.33-1.209s-1.657.533-2.333,1.21c-.724.724-1.625,1.625-3.336,1.625s-2.613-.901-3.337-1.625c-.676-.677-1.21-1.21-2.335-1.21s-1.659.533-2.335,1.21c-.724.724-1.626,1.625-3.337,1.625v-1.418c1.125,0,1.659-.533,2.335-1.21.724-.724,1.626-1.625,3.337-1.625s2.613.901,3.337,1.625c.676.677,1.21,1.21,2.335,1.21s1.657-.533,2.333-1.21c.724-.724,1.625-1.625,3.335-1.625s2.61.901,3.333,1.626ZM82.709,50.523c.675.676,1.208,1.209,2.331,1.209v1.418c-1.709,0-2.61-.901-3.333-1.625-.675-.676-1.208-1.209-2.331-1.209s-1.657.533-2.333,1.209c-.724.724-1.625,1.625-3.335,1.625s-2.613-.901-3.337-1.625c-.676-.676-1.21-1.209-2.335-1.209s-1.659.533-2.335,1.209c-.724.724-1.626,1.625-3.337,1.625v-1.418c1.125,0,1.659-.533,2.335-1.209.724-.724,1.626-1.625,3.337-1.625s2.613.901,3.337,1.625c.676.676,1.21,1.209,2.335,1.209s1.657-.533,2.333-1.209c.724-.724,1.625-1.625,3.335-1.625s2.61.901,3.333,1.625ZM82.709,44.854c.675.676,1.208,1.209,2.33,1.209v1.418c-1.71,0-2.61-.901-3.333-1.626-.675-.676-1.208-1.209-2.33-1.209s-1.657.533-2.333,1.21c-.724.724-1.625,1.625-3.335,1.625s-2.613-.901-3.337-1.625c-.676-.677-1.21-1.21-2.335-1.21s-1.659.533-2.335,1.21c-.724.724-1.626,1.625-3.337,1.625v-1.418c1.125,0,1.659-.533,2.335-1.21.724-.724,1.626-1.625,3.337-1.625s2.613.901,3.337,1.625c.676.677,1.21,1.21,2.335,1.21s1.657-.533,2.333-1.21c.724-.724,1.625-1.625,3.336-1.625s2.61.901,3.333,1.626Z"/>
    <circle cx="45.354" cy="9.921" r="4.252"/>
  </g>
  <g id="Takt._Zeichen__x28_Typo_x29_">
    <g>
      <path d="M15.41,31.181h-1.104l-1.811-6.164h-.024l-1.823,6.164h-1.091l-2.243-8.275h1.391l1.463,6.213h.024l1.751-6.213h1.223l1.691,6.213h.024l1.499-6.213h1.307l-2.279,8.275Z"/>
      <path d="M23.187,31.181l-1.871-3.214c-.192.024-.384.024-.588.024h-.492v3.189h-1.295v-8.275h1.847c2.291,0,3.334.852,3.334,2.435,0,1.079-.504,1.907-1.535,2.339l2.159,3.502h-1.559ZM20.788,23.973h-.552v2.963h.492c1.379,0,2.015-.552,2.015-1.56,0-.959-.612-1.403-1.955-1.403Z"/>
      <path d="M31.046,23.661l-3.922,6.429v.023h4.246l-.084,1.067h-5.853v-.768l3.994-6.428v-.024h-3.766v-1.056h5.385v.756Z"/>
    </g>
  </g>
</svg>