<?xml version="1.0" encoding="UTF-8"?>
<svg xmlns="http://www.w3.org/2000/svg" version="1.1" viewBox="0 0 90.709 90.709">
  <!-- Generator: Adobe Illustrator 29.1.0, SVG Export Plug-In . SVG Version: 2.1.0 Build 142)  -->
  <g id="Grundfläche">
    <rect x="0" width="90.709" height="90.709" fill="none"/>
  </g>
  <g id="Flächige_Fülung">
    <path d="M49.606,22.678c-15.307,0-28.063-2.582-38.268-6.378v57.402h76.536V16.3c-10.205,3.794-22.961,6.378-38.268,6.378Z" fill="#fff"/>
  </g>
  <g id="Takt_Zeichen__x28_umgewandelt_x29_">
    <path d="M87.627,15.636c-11.304,4.202-24.096,6.333-38.021,6.333s-26.723-2.131-38.021-6.333l-.956-.355v25.113H2.126v4.253h8.504v29.764h77.953V15.28s-.956.355-.956.355ZM3.543,43.228v-1.417h7.086v1.417H3.543ZM12.047,72.992V17.313c11.22,4.03,23.85,6.073,37.559,6.073s26.334-2.043,37.559-6.073v55.679s-75.118,0-75.118,0ZM58.614,45.138c.675.676,1.208,1.209,2.33,1.209v1.418c-1.71,0-2.61-.901-3.333-1.626-.675-.676-1.208-1.209-2.33-1.209s-1.657.533-2.333,1.21c-.724.724-1.625,1.625-3.335,1.625s-2.613-.901-3.337-1.625c-.676-.677-1.211-1.21-2.335-1.21s-1.659.533-2.335,1.21c-.724.724-1.626,1.625-3.337,1.625v-1.418c1.125,0,1.659-.533,2.335-1.21.724-.724,1.626-1.625,3.337-1.625s2.613.901,3.337,1.625c.676.677,1.211,1.21,2.335,1.21s1.657-.533,2.333-1.21c.724-.724,1.625-1.625,3.335-1.625s2.61.901,3.333,1.626ZM58.614,40.602c.675.676,1.208,1.209,2.33,1.209v1.418c-1.71,0-2.61-.901-3.333-1.626-.675-.676-1.208-1.209-2.33-1.209s-1.657.533-2.333,1.21c-.724.724-1.625,1.625-3.335,1.625s-2.613-.901-3.337-1.625c-.676-.677-1.211-1.21-2.335-1.21s-1.659.533-2.335,1.21c-.724.724-1.626,1.625-3.337,1.625v-1.418c1.125,0,1.659-.533,2.335-1.21.724-.724,1.626-1.625,3.337-1.625s2.613.901,3.337,1.625c.676.677,1.211,1.21,2.335,1.21s1.657-.533,2.333-1.21c.724-.724,1.625-1.625,3.335-1.625s2.61.901,3.333,1.626ZM39.584,59.013l10.022,10.022,10.022-10.022-10.022-10.021-10.022,10.021ZM49.606,67.031l-8.018-8.019,8.018-8.018,8.018,8.018-8.018,8.019Z"/>
  </g>
  <g id="Takt._Zeichen__x28_Typo_x29_">
    <g>
      <path d="M20.721,25.389h-2.495v7.208h-1.295v-7.208h-2.507v-1.067h6.38l-.084,1.067Z"/>
      <path d="M23.147,29.311h.372v-.336c0-.887-.372-1.271-1.08-1.271-.696,0-1.175.349-1.403.54l-.408-.827c.288-.252.924-.756,2.051-.756,1.319,0,2.027.744,2.027,2.339v2.23c0,.576.048,1.115.084,1.367h-1.139c-.012-.168-.036-.384-.036-.636h-.024c-.204.336-.635.779-1.511.779-.948,0-1.595-.684-1.595-1.69,0-1.199,1.163-1.739,2.663-1.739ZM23.519,31.278v-1.175l-.444.023c-.948.048-1.415.276-1.415.828,0,.491.336.804.732.804.612,0,.936-.264,1.127-.48Z"/>
      <path d="M31.03,32.597h-1.115v-.647h-.024c-.204.24-.672.791-1.727.791-1.223,0-1.871-.768-1.871-2.314v-3.621h1.223v3.418c0,1.031.3,1.463,1.02,1.463.659,0,1.031-.288,1.271-.516v-4.365h1.223v5.792Z"/>
      <path d="M36.478,28.1c-.132-.108-.516-.396-1.115-.396-.984,0-1.715.553-1.715,1.932,0,1.511.659,2.051,1.583,2.051.624,0,.995-.229,1.199-.396l.348.889c-.228.203-.696.562-1.751.562-1.547,0-2.626-.863-2.626-3.094,0-2.087,1.475-2.986,2.878-2.986.899,0,1.343.324,1.559.492l-.36.947Z"/>
      <path d="M41.626,32.597v-3.43c0-.995-.312-1.451-1.055-1.451-.636,0-1.067.3-1.307.527v4.354h-1.223v-8.467l1.223-.12v3.37h.024c.252-.276.755-.72,1.667-.72,1.223,0,1.883.791,1.883,2.314v3.622h-1.211Z"/>
      <path d="M48.622,29.995h-3.25c.072,1.188.672,1.703,1.679,1.703.839,0,1.307-.384,1.463-.516l.312.863c-.18.18-.684.695-1.979.695-1.619,0-2.662-.923-2.662-3.094,0-2.051,1.199-2.986,2.567-2.986,1.223,0,1.979.804,1.979,2.291,0,.443-.048.768-.108,1.043ZM45.359,29.132h2.243c.024-.132.024-.229.024-.336,0-.72-.372-1.151-.984-1.151-.708,0-1.223.516-1.283,1.487Z"/>
      <path d="M53.758,32.597v-3.43c0-.995-.312-1.451-1.055-1.451-.636,0-1.067.3-1.307.527v4.354h-1.223v-5.792h1.127v.646h.024c.228-.275.768-.791,1.739-.791,1.235,0,1.907.791,1.907,2.314v3.622h-1.211Z"/>
    </g>
  </g>
</svg>