<?xml version="1.0" encoding="UTF-8"?>
<svg xmlns="http://www.w3.org/2000/svg" version="1.1" viewBox="0 0 90.709 90.709">
  <!-- Generator: Adobe Illustrator 29.1.0, SVG Export Plug-In . SVG Version: 2.1.0 Build 142)  -->
  <g id="Grundfläche">
    <rect x="0" width="90.709" height="90.709" fill="none"/>
  </g>
  <g id="Flächige_Fülung">
    <path d="M45.355,22.678c-17.008,0-31.181-2.582-42.52-6.378v57.402h85.04V16.3c-11.339,3.794-25.512,6.378-42.52,6.378Z" fill="#fff"/>
  </g>
  <g id="Takt_Zeichen__x28_umgewandelt_x29_">
    <path d="M56.693,47.764c-1.71,0-2.61-.901-3.333-1.626-.675-.676-1.208-1.209-2.33-1.209s-1.657.533-2.333,1.21c-.724.724-1.625,1.625-3.336,1.625s-2.613-.901-3.337-1.625c-.676-.677-1.21-1.21-2.335-1.21s-1.659.533-2.335,1.21c-.724.724-1.626,1.625-3.337,1.625v-1.418c1.125,0,1.659-.533,2.335-1.21.724-.724,1.626-1.625,3.337-1.625s2.613.901,3.337,1.625c.676.677,1.21,1.21,2.335,1.21s1.657-.533,2.333-1.21c.724-.724,1.625-1.625,3.335-1.625s2.61.901,3.333,1.626c.675.676,1.208,1.209,2.33,1.209v1.418ZM56.693,41.811c-1.122,0-1.655-.533-2.33-1.209-.723-.725-1.624-1.626-3.333-1.626s-2.612.901-3.335,1.625c-.676.677-1.209,1.21-2.333,1.21s-1.659-.533-2.335-1.21c-.724-.724-1.626-1.625-3.337-1.625s-2.613.901-3.337,1.625c-.676.677-1.211,1.21-2.335,1.21v1.418c1.712,0,2.613-.901,3.337-1.625.676-.677,1.211-1.21,2.335-1.21s1.659.533,2.335,1.21c.724.724,1.626,1.625,3.337,1.625s2.612-.901,3.336-1.625c.676-.677,1.209-1.21,2.333-1.21s1.655.533,2.33,1.209c.723.725,1.624,1.626,3.333,1.626v-1.418ZM55.376,59.012l-10.022-10.021-10.022,10.021,10.022,10.022,10.022-10.022ZM45.354,50.995l8.018,8.018-8.018,8.019-8.018-8.019,8.018-8.018ZM87.165,80.079c0,3.908-3.179,7.086-7.087,7.086s-7.087-3.179-7.087-7.086c0-2.319,1.125-4.375,2.852-5.669H14.864c1.727,1.294,2.852,3.35,2.852,5.669,0,3.908-3.179,7.086-7.087,7.086s-7.087-3.179-7.087-7.086c0-2.319,1.125-4.375,2.852-5.669H2.126V15.315l.934.312c12.569,4.208,26.799,6.341,42.295,6.341s29.719-2.134,42.295-6.341l.934-.312v59.095s-4.27,0-4.27,0c1.727,1.294,2.852,3.35,2.852,5.669ZM10.639,74.41h-.019c-3.122.005-5.66,2.546-5.66,5.669s2.543,5.669,5.669,5.669,5.669-2.543,5.669-5.669-2.538-5.664-5.66-5.669ZM87.166,72.993V17.279c-12.489,4.053-26.551,6.107-41.811,6.107s-29.328-2.054-41.811-6.106v55.713h83.622ZM85.748,80.079c0-3.123-2.538-5.664-5.66-5.669h-.019c-3.122.005-5.66,2.546-5.66,5.669s2.543,5.669,5.669,5.669,5.669-2.543,5.669-5.669Z"/>
  </g>
  <g id="Takt._Zeichen__x28_Typo_x29_">
    <g>
      <path d="M14.042,33.392c-.252.216-1.019.768-2.519.768-2.183,0-3.802-1.151-3.802-4.317,0-2.963,2.027-4.246,4.054-4.246,1.391,0,2.087.576,2.303.744l-.444,1.02c-.192-.168-.78-.66-1.823-.66-1.439,0-2.71.899-2.71,3.143,0,2.255.936,3.214,2.591,3.214.42,0,.792-.071,1.104-.168v-2.11h-1.487v-1.067h2.734v3.682Z"/>
      <path d="M23.162,34.016h-1.104l-1.811-6.165h-.024l-1.823,6.165h-1.091l-2.243-8.275h1.391l1.463,6.213h.024l1.751-6.213h1.223l1.691,6.213h.024l1.499-6.213h1.307l-2.279,8.275Z"/>
      <path d="M34.202,26.808h-2.495v7.208h-1.295v-7.208h-2.507v-1.067h6.38l-.084,1.067Z"/>
      <path d="M36.628,30.73h.372v-.336c0-.888-.372-1.271-1.08-1.271-.696,0-1.175.348-1.403.54l-.408-.828c.288-.252.924-.756,2.051-.756,1.319,0,2.027.744,2.027,2.34v2.23c0,.575.048,1.115.084,1.367h-1.139c-.012-.168-.036-.384-.036-.636h-.024c-.204.336-.635.779-1.511.779-.948,0-1.595-.684-1.595-1.69,0-1.2,1.163-1.739,2.663-1.739ZM37,32.697v-1.176l-.444.024c-.948.048-1.415.275-1.415.827,0,.492.336.804.732.804.612,0,.936-.264,1.127-.479Z"/>
      <path d="M44.511,34.016h-1.115v-.648h-.024c-.204.24-.672.792-1.727.792-1.223,0-1.871-.768-1.871-2.314v-3.622h1.223v3.418c0,1.031.3,1.463,1.02,1.463.659,0,1.031-.287,1.271-.516v-4.365h1.223v5.793Z"/>
      <path d="M49.959,29.518c-.132-.107-.516-.396-1.115-.396-.984,0-1.715.552-1.715,1.931,0,1.512.659,2.051,1.583,2.051.624,0,.995-.228,1.199-.396l.348.888c-.228.204-.696.563-1.751.563-1.547,0-2.626-.863-2.626-3.095,0-2.086,1.475-2.986,2.878-2.986.899,0,1.343.324,1.559.492l-.36.947Z"/>
      <path d="M55.107,34.016v-3.431c0-.995-.312-1.451-1.055-1.451-.636,0-1.067.3-1.307.528v4.354h-1.223v-8.468l1.223-.12v3.371h.024c.252-.276.755-.721,1.667-.721,1.223,0,1.883.792,1.883,2.315v3.622h-1.211Z"/>
      <path d="M62.103,31.414h-3.25c.072,1.187.672,1.703,1.679,1.703.839,0,1.307-.384,1.463-.517l.312.864c-.18.18-.684.695-1.979.695-1.619,0-2.662-.923-2.662-3.095,0-2.051,1.199-2.986,2.567-2.986,1.223,0,1.979.805,1.979,2.291,0,.444-.048.768-.108,1.044ZM58.841,30.549h2.243c.024-.131.024-.228.024-.336,0-.719-.372-1.15-.984-1.15-.708,0-1.223.516-1.283,1.486Z"/>
      <path d="M67.239,34.016v-3.431c0-.995-.312-1.451-1.055-1.451-.636,0-1.067.3-1.307.528v4.354h-1.223v-5.793h1.127v.647h.024c.228-.276.768-.792,1.739-.792,1.235,0,1.907.792,1.907,2.315v3.622h-1.211Z"/>
    </g>
  </g>
</svg>