<?xml version="1.0" encoding="UTF-8"?>
<svg xmlns="http://www.w3.org/2000/svg" version="1.1" viewBox="0 0 90.709 90.709">
  <!-- Generator: Adobe Illustrator 29.1.0, SVG Export Plug-In . SVG Version: 2.1.0 Build 142)  -->
  <g id="Grundfläche">
    <rect x="0" width="90.709" height="90.709" fill="none"/>
  </g>
  <g id="Flächige_Fülung">
    <path d="M2.863,25.512h84.981c0,23.467-19.024,42.491-42.491,42.491S2.863,48.979,2.863,25.512Z" fill="#fff"/>
  </g>
  <g id="Takt_Zeichen__x28_umgewandelt_x29_">
    <path d="M45.354,68.711C21.534,68.711,2.155,49.332,2.155,25.512v-.709h86.399v.709c0,23.82-19.379,43.199-43.199,43.199ZM3.578,26.221c.379,22.713,18.974,41.072,41.776,41.072s41.397-18.359,41.776-41.072H3.578Z"/>
  </g>
  <g id="Takt._Zeichen__x28_Typo_x29_">
    <g>
      <path d="M35.738,45.354h-2.1v-9.143h-.04l-3.681,9.143h-1.66l-3.701-9.143h-.04v9.143h-2.08v-13.803h2.38l4.341,10.742h.04l4.361-10.742h2.18v13.803Z"/>
      <path d="M45.156,36.932l-4.281,6.721v.041h4.581l-.16,1.66h-7.082v-1.24l4.361-6.722v-.04h-4.101v-1.66h6.681v1.24Z"/>
      <path d="M55.896,45.354l-1.38-4.102h-4.621l-1.38,4.102h-2.2l5.141-13.803h1.7l5.121,13.803h-2.38ZM52.235,34.351h-.04l-1.78,5.302h3.601l-1.78-5.302Z"/>
      <path d="M66.076,38.252v.04c1.48.28,2.881,1.36,2.881,3.261,0,2.221-1.64,3.801-5.521,3.801h-3.26v-13.803h3.081c3.901,0,5.321,1.38,5.321,3.58,0,1.961-1.22,2.721-2.5,3.121ZM63.255,33.291h-.92v4.24h.9c2.12,0,3.121-.84,3.121-2.28,0-1.181-.88-1.96-3.101-1.96ZM63.555,39.272h-1.22v4.321h1.1c2.321,0,3.261-.76,3.261-2.2,0-1.36-1.14-2.121-3.141-2.121Z"/>
    </g>
  </g>
</svg>