<?xml version="1.0" encoding="UTF-8"?>
<svg xmlns="http://www.w3.org/2000/svg" version="1.1" viewBox="0 0 90.709 90.709">
  <!-- Generator: Adobe Illustrator 29.1.0, SVG Export Plug-In . SVG Version: 2.1.0 Build 142)  -->
  <g id="Grundfläche">
    <rect x="0" width="90.709" height="90.709" fill="none"/>
  </g>
  <g id="Flächige_Fülung">
    <path d="M2.863,25.512h84.981c0,23.467-19.024,42.491-42.491,42.491S2.863,48.979,2.863,25.512Z" fill="#fff"/>
  </g>
  <g id="Takt_Zeichen__x28_umgewandelt_x29_">
    <path d="M45.354,68.711C21.534,68.711,2.155,49.332,2.155,25.512v-.709h86.399v.709c0,23.82-19.379,43.199-43.199,43.199ZM3.578,26.221c.379,22.713,18.974,41.072,41.776,41.072s41.397-18.359,41.776-41.072H3.578Z"/>
  </g>
  <g id="Takt._Zeichen__x28_Typo_x29_">
    <g>
      <path d="M29.766,45.354l-3.121-5.361c-.32.04-.64.04-.98.04h-.82v5.321h-2.16v-13.803h3.081c3.821,0,5.561,1.42,5.561,4.061,0,1.801-.84,3.181-2.561,3.9l3.601,5.842h-2.601ZM25.766,33.331h-.92v4.94h.82c2.301,0,3.361-.92,3.361-2.601,0-1.601-1.02-2.34-3.261-2.34Z"/>
      <path d="M43.347,33.331h-4.161v12.022h-2.16v-12.022h-4.181v-1.78h10.642l-.14,1.78Z"/>
      <path d="M51.466,38.252v.04c1.48.28,2.881,1.36,2.881,3.261,0,2.221-1.64,3.801-5.521,3.801h-3.26v-13.803h3.081c3.901,0,5.321,1.38,5.321,3.58,0,1.961-1.22,2.721-2.5,3.121ZM48.645,33.291h-.92v4.24h.9c2.12,0,3.121-.84,3.121-2.28,0-1.181-.88-1.96-3.101-1.96ZM48.946,39.272h-1.22v4.321h1.1c2.321,0,3.261-.76,3.261-2.2,0-1.36-1.14-2.121-3.141-2.121Z"/>
      <path d="M66.166,43.694h2.801v1.66h-7.642v-1.66h2.821v-9.322l-2.7.96-.44-1.601,3.661-1.38h1.5v11.343Z"/>
    </g>
  </g>
</svg>