<?xml version="1.0" encoding="UTF-8"?>
<svg xmlns="http://www.w3.org/2000/svg" version="1.1" viewBox="0 0 90.709 90.709">
  <!-- Generator: Adobe Illustrator 29.1.0, SVG Export Plug-In . SVG Version: 2.1.0 Build 142)  -->
  <g id="Grundfläche">
    <rect x="0" width="90.709" height="90.709" fill="none"/>
  </g>
  <g id="Flächige_Fülung">
    <path d="M2.863,25.512h84.981c0,23.467-19.024,42.491-42.491,42.491S2.863,48.979,2.863,25.512Z" fill="#fff"/>
  </g>
  <g id="Takt_Zeichen__x28_umgewandelt_x29_">
    <path d="M45.354,68.711C21.534,68.711,2.155,49.332,2.155,25.512v-.709h86.399v.709c0,23.82-19.379,43.199-43.199,43.199ZM3.578,26.221c.379,22.713,18.974,41.072,41.776,41.072s41.397-18.359,41.776-41.072H3.578Z"/>
  </g>
  <g id="Takt._Zeichen__x28_Typo_x29_">
    <g>
      <path d="M38.478,45.354h-2.1v-9.143h-.04l-3.681,9.143h-1.66l-3.701-9.143h-.04v9.143h-2.08v-13.803h2.38l4.341,10.742h.04l4.361-10.742h2.18v13.803Z"/>
      <path d="M47.896,36.932l-4.281,6.721v.041h4.581l-.16,1.66h-7.082v-1.24l4.361-6.722v-.04h-4.101v-1.66h6.681v1.24Z"/>
      <path d="M53.775,40.633h-.98v4.721h-2.16v-13.803h3.24c3.941,0,5.701,1.58,5.701,4.341,0,2.9-1.94,4.741-5.801,4.741ZM53.875,33.331h-1.08v5.501h.98c2.42,0,3.521-1.04,3.521-2.861,0-1.72-1.06-2.64-3.421-2.64Z"/>
      <path d="M66.535,37.352h-2.361v4.501c0,1.46.38,1.98,1.36,1.98.5,0,.9-.16,1.08-.24l.18,1.561c-.18.1-.74.42-1.781.42-2.02,0-2.881-1.04-2.881-3.501v-4.721h-1.32v-1.4l1.32-.24.24-2.7h1.801v2.681h2.581l-.22,1.66Z"/>
    </g>
  </g>
</svg>