<?xml version="1.0" encoding="UTF-8"?>
<svg xmlns="http://www.w3.org/2000/svg" version="1.1" viewBox="0 0 90.709 90.709">
  <!-- Generator: Adobe Illustrator 29.1.0, SVG Export Plug-In . SVG Version: 2.1.0 Build 142)  -->
  <g id="Grundfläche">
    <rect x="0" width="90.709" height="90.709" fill="none"/>
  </g>
  <g id="Flächige_Fülung">
    <path d="M2.863,25.512h84.981c0,23.467-19.024,42.491-42.491,42.491S2.863,48.979,2.863,25.512Z" fill="#fff"/>
  </g>
  <g id="Takt_Zeichen__x28_umgewandelt_x29_">
    <path d="M45.354,68.711C21.534,68.711,2.155,49.332,2.155,25.512v-.709h86.399v.709c0,23.82-19.379,43.199-43.199,43.199ZM3.578,26.221c.379,22.713,18.974,41.072,41.776,41.072s41.397-18.359,41.776-41.072H3.578Z"/>
  </g>
  <g id="Takt._Zeichen__x28_Typo_x29_">
    <g>
      <path d="M20.432,35.818c-.306-.237-1.02-.799-2.125-.799-1.224,0-1.802.544-1.802,1.241,0,.833.374,1.275,1.581,2.022l1.139.697c1.479.918,2.312,1.87,2.312,3.383,0,1.717-1.292,3.195-3.893,3.195-1.87,0-2.805-.765-3.196-1.088l.629-1.614c.374.373,1.275,1.088,2.533,1.088,1.411,0,2.057-.629,2.057-1.344,0-.9-.442-1.359-1.547-2.09l-1.156-.766c-1.581-1.054-2.295-1.853-2.295-3.45,0-1.581,1.36-2.873,3.552-2.873,1.666,0,2.465.629,2.805.884l-.595,1.513Z"/>
      <path d="M28.796,38.98c-.187-.153-.731-.562-1.581-.562-1.394,0-2.431.782-2.431,2.737,0,2.142.935,2.907,2.244,2.907.884,0,1.411-.323,1.7-.562l.493,1.258c-.323.289-.986.799-2.482.799-2.193,0-3.723-1.224-3.723-4.386,0-2.957,2.091-4.232,4.08-4.232,1.275,0,1.904.459,2.21.697l-.51,1.343Z"/>
      <path d="M36.089,45.354v-4.861c0-1.411-.442-2.057-1.496-2.057-.901,0-1.513.425-1.853.748v6.17h-1.734v-12l1.734-.17v4.775h.034c.357-.391,1.071-1.02,2.363-1.02,1.734,0,2.669,1.122,2.669,3.281v5.133h-1.717Z"/>
      <path d="M41.818,43.042c0,.833.221,1.071.765,1.071.289,0,.493-.068.595-.103l.102,1.207c-.119.085-.561.289-1.258.289-1.207,0-1.921-.562-1.921-2.278v-9.875l1.717-.17v9.858Z"/>
      <path d="M47.989,40.696h.527v-.476c0-1.258-.527-1.803-1.53-1.803-.986,0-1.666.493-1.989.766l-.578-1.173c.408-.357,1.309-1.071,2.906-1.071,1.87,0,2.873,1.054,2.873,3.314v3.162c0,.816.068,1.581.119,1.938h-1.615c-.017-.238-.051-.544-.051-.9h-.034c-.289.476-.901,1.104-2.142,1.104-1.343,0-2.261-.969-2.261-2.396,0-1.7,1.649-2.465,3.774-2.465ZM48.516,43.485v-1.666l-.629.033c-1.343.068-2.006.392-2.006,1.174,0,.696.476,1.139,1.037,1.139.867,0,1.326-.374,1.598-.68Z"/>
      <path d="M59.158,45.354h-1.581v-.918h-.034c-.289.34-.952,1.122-2.448,1.122-1.734,0-2.652-1.088-2.652-3.28v-5.134h1.734v4.845c0,1.462.425,2.074,1.445,2.074.935,0,1.462-.408,1.802-.731v-6.188h1.734v8.21Z"/>
      <path d="M66.876,38.98c-.187-.153-.731-.562-1.581-.562-1.394,0-2.431.782-2.431,2.737,0,2.142.935,2.907,2.244,2.907.884,0,1.411-.323,1.7-.562l.493,1.258c-.323.289-.986.799-2.482.799-2.193,0-3.723-1.224-3.723-4.386,0-2.957,2.091-4.232,4.08-4.232,1.275,0,1.904.459,2.21.697l-.51,1.343Z"/>
      <path d="M74.169,45.354v-4.861c0-1.411-.442-2.057-1.496-2.057-.901,0-1.513.425-1.853.748v6.17h-1.734v-12l1.734-.17v4.775h.034c.357-.391,1.071-1.02,2.363-1.02,1.734,0,2.669,1.122,2.669,3.281v5.133h-1.717Z"/>
    </g>
  </g>
</svg>