<?xml version="1.0" encoding="UTF-8"?>
<svg xmlns="http://www.w3.org/2000/svg" version="1.1" viewBox="0 0 90.709 90.709">
  <!-- Generator: Adobe Illustrator 29.1.0, SVG Export Plug-In . SVG Version: 2.1.0 Build 142)  -->
  <g id="Grundfläche">
    <rect x="0" width="90.709" height="90.709" fill="none"/>
  </g>
  <g id="Flächige_Fülung">
    <circle cx="45.355" cy="45.354" r="34.016" fill="#fff"/>
  </g>
  <g id="Takt_Zeichen__x28_umgewandelt_x29_">
    <path d="M45.354,61.653c-14.425,0-23.385-8.961-23.385-23.386v-.709h46.771v.709c0,14.425-8.961,23.386-23.386,23.386ZM23.393,38.977c.278,13.329,8.443,21.259,21.961,21.259s21.683-7.93,21.961-21.259H23.393ZM45.356,80.079c-19.147,0-34.724-15.577-34.724-34.725S26.209,10.63,45.356,10.63s34.724,15.577,34.724,34.725-15.577,34.725-34.724,34.725ZM45.356,12.048c-18.366,0-33.307,14.941-33.307,33.307s14.941,33.307,33.307,33.307,33.307-14.941,33.307-33.307S63.721,12.048,45.356,12.048Z"/>
  </g>
</svg>