<?xml version="1.0" encoding="UTF-8"?>
<svg xmlns="http://www.w3.org/2000/svg" version="1.1" viewBox="0 0 90.709 90.709">
  <!-- Generator: Adobe Illustrator 29.1.0, SVG Export Plug-In . SVG Version: 2.1.0 Build 142)  -->
  <g id="Grundfläche">
    <rect x="0" width="90.709" height="90.709" fill="none"/>
  </g>
  <g id="Flächige_Fülung">
    <rect x="19.297" y="24.966" width="52.114" height="52.114" transform="translate(49.363 -17.126) rotate(45)" fill="#fff"/>
  </g>
  <g id="Takt_Zeichen__x28_umgewandelt_x29_">
    <path d="M45.354,88.813L7.502,50.961,45.354,13.109l37.853,37.852-37.853,37.853ZM9.506,50.961l35.848,35.849,35.848-35.849L45.354,15.113,9.506,50.961ZM56.693,41.81c-1.122,0-1.656-.533-2.331-1.209-.723-.724-1.623-1.625-3.333-1.625s-2.611.901-3.335,1.625c-.676.676-1.21,1.209-2.333,1.209s-1.659-.533-2.335-1.209c-.724-.724-1.626-1.625-3.337-1.625s-2.613.901-3.337,1.625c-.676.676-1.21,1.209-2.335,1.209v1.418c1.711,0,2.613-.901,3.337-1.625.676-.676,1.21-1.209,2.335-1.209s1.659.533,2.335,1.209c.724.724,1.626,1.625,3.337,1.625s2.612-.901,3.335-1.625c.676-.676,1.21-1.209,2.333-1.209s1.656.533,2.331,1.209c.723.724,1.624,1.625,3.333,1.625v-1.418ZM56.693,36.142c-1.122,0-1.655-.533-2.33-1.209-.723-.725-1.624-1.626-3.333-1.626s-2.612.901-3.335,1.625c-.676.677-1.209,1.21-2.333,1.21s-1.659-.533-2.335-1.21c-.724-.724-1.626-1.625-3.337-1.625s-2.613.901-3.337,1.625c-.676.677-1.21,1.21-2.335,1.21v1.418c1.711,0,2.613-.901,3.337-1.625.676-.677,1.21-1.21,2.335-1.21s1.659.533,2.335,1.21c.724.724,1.626,1.625,3.337,1.625s2.612-.901,3.336-1.625c.676-.677,1.209-1.21,2.333-1.21s1.655.533,2.33,1.209c.723.725,1.624,1.626,3.333,1.626v-1.418ZM45.355,70.451l-12.341-12.341,12.341-12.341,12.341,12.341-12.341,12.341ZM35.018,58.11l10.336,10.337,10.336-10.337-10.336-10.337-10.336,10.337Z"/>
  </g>
  <g id="Takt._Zeichen__x28_Typo_x29_">
    <g>
      <path d="M9.383,4.131h-2.495v7.208h-1.295v-7.208h-2.507v-1.067h6.38l-.084,1.067Z"/>
      <path d="M11.809,8.053h.372v-.336c0-.888-.372-1.271-1.08-1.271-.696,0-1.175.348-1.403.54l-.408-.828c.288-.252.924-.755,2.051-.755,1.319,0,2.027.743,2.027,2.338v2.231c0,.575.048,1.115.084,1.367h-1.139c-.012-.168-.036-.384-.036-.636h-.024c-.204.336-.635.779-1.511.779-.948,0-1.595-.684-1.595-1.691,0-1.199,1.163-1.738,2.663-1.738ZM12.181,10.019v-1.176l-.444.024c-.948.048-1.415.275-1.415.827,0,.492.336.804.732.804.612,0,.936-.264,1.127-.479Z"/>
      <path d="M19.692,11.339h-1.115v-.647h-.024c-.204.239-.672.791-1.727.791-1.223,0-1.871-.768-1.871-2.314v-3.622h1.223v3.418c0,1.031.3,1.464,1.02,1.464.659,0,1.031-.289,1.271-.517v-4.365h1.223v5.793Z"/>
      <path d="M25.14,6.841c-.132-.107-.516-.396-1.115-.396-.984,0-1.715.552-1.715,1.931,0,1.512.659,2.052,1.583,2.052.624,0,.995-.229,1.199-.396l.348.888c-.228.204-.696.563-1.751.563-1.547,0-2.626-.863-2.626-3.094,0-2.088,1.475-2.986,2.878-2.986.899,0,1.343.323,1.559.491l-.36.947Z"/>
      <path d="M30.288,11.339v-3.431c0-.995-.312-1.451-1.055-1.451-.636,0-1.067.3-1.307.528v4.354h-1.223V2.871l1.223-.119v3.369h.024c.252-.275.755-.719,1.667-.719,1.223,0,1.883.791,1.883,2.314v3.622h-1.211Z"/>
      <path d="M37.284,8.736h-3.25c.072,1.188.672,1.703,1.679,1.703.839,0,1.307-.384,1.463-.516l.312.863c-.18.18-.684.695-1.979.695-1.619,0-2.662-.924-2.662-3.094,0-2.051,1.199-2.986,2.567-2.986,1.223,0,1.979.803,1.979,2.29,0,.444-.048.768-.108,1.044ZM34.022,7.873h2.243c.024-.133.024-.229.024-.336,0-.72-.372-1.152-.984-1.152-.708,0-1.223.517-1.283,1.488Z"/>
      <path d="M41.856,6.59c-.06-.037-.216-.097-.492-.097-.72,0-1.127.384-1.307.72v4.126h-1.223v-5.793h1.127v.827h.024c.216-.468.612-.936,1.463-.936.24,0,.42.049.504.072l-.096,1.08Z"/>
    </g>
  </g>
</svg>