<?xml version="1.0" encoding="UTF-8"?>
<svg xmlns="http://www.w3.org/2000/svg" version="1.1" viewBox="0 0 90.709 90.709">
  <!-- Generator: Adobe Illustrator 29.1.0, SVG Export Plug-In . SVG Version: 2.1.0 Build 142)  -->
  <g id="Grundfläche">
    <rect x="0" width="90.709" height="90.709" fill="none"/>
  </g>
  <g id="Flächige_Fülung">
    <rect x="19.297" y="19.297" width="52.114" height="52.114" transform="translate(45.354 -18.786) rotate(45)" fill="#fff"/>
  </g>
  <g id="Takt_Zeichen__x28_umgewandelt_x29_">
    <path d="M45.354,7.439L7.502,45.292l37.853,37.853,37.852-37.853L45.354,7.439ZM57.879,21.968h-25.048l12.524-12.524,12.524,12.524ZM9.506,45.292l21.906-21.906h27.884l21.906,21.906-35.848,35.849L9.506,45.292ZM37.353,37.352c-.724.724-1.626,1.625-3.337,1.625v-1.418c1.125,0,1.659-.533,2.335-1.209.724-.724,1.626-1.625,3.337-1.625s2.613.901,3.337,1.625c.676.676,1.21,1.209,2.335,1.209s1.657-.533,2.333-1.209c.724-.724,1.625-1.625,3.335-1.625s2.61.901,3.333,1.625c.675.676,1.208,1.209,2.331,1.209v1.418c-1.709,0-2.61-.901-3.333-1.625-.675-.676-1.208-1.209-2.331-1.209s-1.657.533-2.333,1.209c-.724.724-1.625,1.625-3.335,1.625s-2.613-.901-3.337-1.625c-.676-.676-1.21-1.209-2.335-1.209s-1.659.533-2.335,1.209ZM37.353,31.683c-.724.724-1.626,1.625-3.337,1.625v-1.418c1.125,0,1.659-.533,2.335-1.21.724-.724,1.626-1.625,3.337-1.625s2.613.901,3.337,1.625c.676.677,1.21,1.21,2.335,1.21s1.657-.533,2.333-1.21c.724-.724,1.625-1.625,3.335-1.625s2.61.901,3.333,1.626c.675.676,1.208,1.209,2.33,1.209v1.418c-1.71,0-2.61-.901-3.333-1.626-.675-.676-1.208-1.209-2.33-1.209s-1.657.533-2.333,1.21c-.724.724-1.625,1.625-3.336,1.625s-2.613-.901-3.337-1.625c-.676-.677-1.21-1.21-2.335-1.21s-1.659.533-2.335,1.21ZM45.355,41.518l-12.341,12.341,12.341,12.341,12.341-12.341-12.341-12.341ZM35.018,53.858l10.336-10.337,10.336,10.337-10.336,10.337-10.336-10.337Z"/>
  </g>
</svg>