<?xml version="1.0" encoding="UTF-8"?>
<svg xmlns="http://www.w3.org/2000/svg" version="1.1" viewBox="0 0 90.709 90.709">
  <!-- Generator: Adobe Illustrator 29.1.0, SVG Export Plug-In . SVG Version: 2.1.0 Build 142)  -->
  <g id="Grundfläche">
    <rect x="0" width="90.709" height="90.709" fill="none"/>
  </g>
  <g id="Takt_Zeichen__x28_umgewandelt_x29_">
    <path d="M8.504,77.244v-1.418c5.861,0,10.63-4.769,10.63-10.63s-4.769-10.629-10.63-10.629v-1.418c6.643,0,12.047,5.404,12.047,12.047s-5.405,12.048-12.047,12.048Z"/>
    <path d="M82.205,77.244c-6.643,0-12.047-5.405-12.047-12.048s5.405-12.047,12.047-12.047v1.418c-5.861,0-10.63,4.768-10.63,10.629s4.769,10.63,10.63,10.63v1.418Z"/>
    <polygon points="27.397 72.008 17.212 59.136 18.323 58.257 27.397 69.725 36.371 58.386 45.348 69.725 54.322 58.386 63.303 69.725 72.25 58.428 73.361 59.309 63.303 72.008 54.323 60.669 45.348 72.008 36.371 60.669 27.397 72.008"/>
    <rect x="8.504" y="19.134" width="73.701" height="1.418"/>
  </g>
  <g id="Takt._Zeichen__x28_Typo_x29_">
    <g>
      <path d="M14.439,48.191v-20.699h4.59c7.8,0,11.37,2.85,11.37,9.959,0,7.471-4.38,10.74-11.7,10.74h-4.26ZM17.679,30.221v15.239h1.02c5.37,0,8.28-2.25,8.28-8.01,0-5.369-2.76-7.229-7.95-7.229h-1.35Z"/>
      <path d="M54.609,48.191h-3.15v-13.71h-.06l-5.52,13.71h-2.49l-5.55-13.71h-.06v13.71h-3.12v-20.699h3.57l6.51,16.109h.06l6.54-16.109h3.27v20.699Z"/>
      <path d="M68.019,48.55c-5.43,0-9.21-3.689-9.21-10.709s3.9-10.71,9.33-10.71c5.4,0,9.149,3.69,9.149,10.71s-3.87,10.709-9.27,10.709ZM68.079,29.891c-3.63,0-5.82,2.67-5.82,7.95,0,5.189,2.19,7.949,5.82,7.949,3.57,0,5.79-2.76,5.79-7.949,0-5.28-2.22-7.95-5.79-7.95Z"/>
    </g>
  </g>
</svg>