<?xml version="1.0" encoding="UTF-8"?>
<svg xmlns="http://www.w3.org/2000/svg" version="1.1" viewBox="0 0 90.709 90.709">
  <!-- Generator: Adobe Illustrator 29.1.0, SVG Export Plug-In . SVG Version: 2.1.0 Build 142)  -->
  <g id="Grundfläche">
    <rect x="0" y="0" width="90.709" height="90.709" fill="none"/>
  </g>
  <g id="Takt_Zeichen__x28_umgewandelt_x29_">
    <path d="M88.583,45.354c0,11.389-5.617,20.336-14.658,23.35l-.448-1.344c8.255-2.753,13.44-10.881,13.667-21.297h-16.277v-1.418h16.277c-.227-10.417-5.411-18.544-13.667-21.296l.448-1.344c9.041,3.013,14.658,11.96,14.658,23.349ZM17.232,23.349l-.448-1.344c-9.041,3.013-14.658,11.96-14.658,23.349s5.617,20.336,14.658,23.35l.448-1.344c-8.255-2.753-13.44-10.881-13.667-21.297h16.277v-1.418H3.565c.227-10.417,5.411-18.544,13.667-21.296Z"/>
  </g>
  <g id="Takt._Zeichen__x28_Typo_x29_">
    <g>
      <path d="M23.857,42.68h-.747v-.703h2.467v.703h-.747v4.807h.765v.702h-2.512v-.702h.774v-4.807Z" fill="#787878"/>
      <path d="M29.266,48.189v-2.574c0-.747-.234-1.09-.792-1.09-.477,0-.801.226-.981.396v3.268h-.918v-4.349h.846v.486h.018c.171-.207.576-.594,1.305-.594.927,0,1.431.594,1.431,1.737v2.719h-.909Z" fill="#787878"/>
      <path d="M33.55,44.589h-1.008v3.601h-.909v-3.601h-.594v-.631l.594-.107v-.576c0-1.045.54-1.585,1.485-1.585.36,0,.585.117.648.153l-.135.747c-.054-.026-.243-.108-.459-.108-.423,0-.63.207-.63.783v.576h1.107l-.099.748Z" fill="#787878"/>
      <path d="M36.043,48.298c-1.08,0-1.918-.721-1.918-2.287,0-1.557.954-2.277,2.008-2.277,1.081,0,1.909.702,1.909,2.277,0,1.549-.954,2.287-1.999,2.287ZM36.088,44.525c-.585,0-1.026.45-1.026,1.485,0,1.045.441,1.494,1.026,1.494.594,0,1.017-.459,1.017-1.494,0-1.044-.441-1.485-1.017-1.485Z" fill="#787878"/>
      <path d="M41.335,44.624c-.045-.026-.162-.071-.369-.071-.54,0-.846.288-.981.54v3.097h-.918v-4.349h.846v.622h.018c.162-.352.459-.702,1.098-.702.18,0,.315.035.378.054l-.072.81Z" fill="#787878"/>
      <path d="M43.035,44.327h.018c.171-.207.567-.594,1.279-.594.513,0,.891.207,1.116.621.225-.252.657-.621,1.342-.621.972,0,1.467.585,1.467,1.737v2.719h-.909v-2.574c0-.766-.27-1.09-.819-1.09-.432,0-.72.226-.891.388.027.171.045.359.045.558v2.719h-.909v-2.574c0-.766-.216-1.09-.711-1.09-.486,0-.792.226-.954.396v3.268h-.918v-4.349h.846v.486Z" fill="#787878"/>
      <path d="M51.208,45.722h.279v-.252c0-.666-.279-.954-.81-.954-.522,0-.882.261-1.053.405l-.306-.621c.216-.189.693-.567,1.54-.567.99,0,1.521.559,1.521,1.756v1.674c0,.433.036.838.063,1.026h-.855c-.009-.126-.027-.288-.027-.477h-.018c-.153.252-.477.585-1.135.585-.711,0-1.197-.514-1.197-1.27,0-.9.873-1.306,1.999-1.306ZM51.487,47.199v-.882l-.333.018c-.711.036-1.062.207-1.062.621,0,.369.252.604.549.604.459,0,.702-.198.846-.36Z" fill="#787878"/>
      <path d="M55.789,44.589h-1.062v2.025c0,.657.171.891.612.891.225,0,.405-.071.486-.107l.081.702c-.081.045-.333.189-.801.189-.909,0-1.296-.469-1.296-1.575v-2.125h-.594v-.631l.594-.107.108-1.216h.81v1.206h1.161l-.099.748Z" fill="#787878"/>
      <path d="M57.201,42.932c-.333,0-.576-.226-.576-.576,0-.36.243-.586.576-.586s.585.226.585.586c0,.351-.252.576-.585.576ZM57.66,48.189h-.918v-4.349h.918v4.349Z" fill="#787878"/>
      <path d="M60.604,48.298c-1.08,0-1.918-.721-1.918-2.287,0-1.557.954-2.277,2.008-2.277,1.081,0,1.909.702,1.909,2.277,0,1.549-.954,2.287-1.999,2.287ZM60.648,44.525c-.585,0-1.026.45-1.026,1.485,0,1.045.441,1.494,1.026,1.494.594,0,1.017-.459,1.017-1.494,0-1.044-.441-1.485-1.017-1.485Z" fill="#787878"/>
      <path d="M66.319,48.189v-2.574c0-.747-.234-1.09-.792-1.09-.477,0-.801.226-.981.396v3.268h-.918v-4.349h.846v.486h.018c.171-.207.576-.594,1.305-.594.927,0,1.431.594,1.431,1.737v2.719h-.909Z" fill="#787878"/>
    </g>
  </g>
</svg>