<?xml version="1.0" encoding="UTF-8"?>
<svg xmlns="http://www.w3.org/2000/svg" version="1.1" viewBox="0 0 90.709 90.709">
  <!-- Generator: Adobe Illustrator 29.1.0, SVG Export Plug-In . SVG Version: 2.1.0 Build 142)  -->
  <g id="Grundfläche">
    <rect x="0" y="0" width="90.709" height="90.709" fill="none"/>
  </g>
  <g id="Takt_Zeichen__x28_umgewandelt_x29_">
    <path d="M82.205,19.134H8.504c-1.954,0-3.543,1.59-3.543,3.544v45.354c0,1.953,1.59,3.543,3.543,3.543h73.701c1.954,0,3.543-1.59,3.543-3.543V22.678c0-1.954-1.59-3.544-3.543-3.544ZM84.331,68.032c0,1.172-.954,2.125-2.126,2.125H8.504c-1.172,0-2.126-.953-2.126-2.125V22.678c0-1.173.954-2.126,2.126-2.126h73.701c1.172,0,2.126.953,2.126,2.126v45.354Z"/>
  </g>
</svg>