<?xml version="1.0" encoding="UTF-8"?>
<svg xmlns="http://www.w3.org/2000/svg" version="1.1" viewBox="0 0 90.709 90.709">
  <!-- Generator: Adobe Illustrator 29.1.0, SVG Export Plug-In . SVG Version: 2.1.0 Build 142)  -->
  <g id="Grundfläche">
    <rect x="0" width="90.709" height="90.709" fill="none"/>
  </g>
  <g id="Takt_Zeichen__x28_umgewandelt_x29_">
    <polygon points="22.672 71.868 10.837 60.028 11.84 59.027 22.672 69.864 34.007 58.526 45.347 69.864 56.683 58.526 68.027 69.864 78.869 59.027 79.871 60.028 68.027 71.868 56.683 60.529 45.347 71.868 34.007 60.529 22.672 71.868"/>
  </g>
  <g id="Takt._Zeichen__x28_Typo_x29_">
    <g>
      <path d="M27.576,48.191v-20.699h11.729l-.21,2.67h-8.279v6.84h7.649v2.67h-7.649v8.52h-3.24Z"/>
      <path d="M47.526,39.971h.93v-.84c0-2.22-.93-3.181-2.7-3.181-1.74,0-2.94.87-3.51,1.351l-1.02-2.07c.72-.63,2.31-1.89,5.13-1.89,3.3,0,5.07,1.859,5.07,5.85v5.58c0,1.439.12,2.79.21,3.42h-2.85c-.03-.42-.09-.96-.09-1.59h-.06c-.51.84-1.59,1.949-3.78,1.949-2.37,0-3.99-1.709-3.99-4.229,0-3,2.91-4.35,6.66-4.35ZM48.456,44.891v-2.94l-1.11.061c-2.37.119-3.54.689-3.54,2.069,0,1.23.84,2.011,1.83,2.011,1.53,0,2.34-.66,2.82-1.2Z"/>
      <path d="M61.716,40.66l4.65,7.53h-3.54l-2.76-5.01h-.06l-2.76,5.01h-3.3l4.649-7.32-4.379-7.17h3.45l2.52,4.681h.06l2.64-4.681h3.21l-4.38,6.96Z"/>
    </g>
  </g>
</svg>