<?xml version="1.0" encoding="UTF-8"?>
<svg xmlns="http://www.w3.org/2000/svg" version="1.1" viewBox="0 0 90.709 90.709">
  <!-- Generator: Adobe Illustrator 29.1.0, SVG Export Plug-In . SVG Version: 2.1.0 Build 142)  -->
  <g id="Grundfläche">
    <rect x="0" width="90.709" height="90.709" fill="none"/>
  </g>
  <g id="Takt_Zeichen__x28_umgewandelt_x29_">
    <rect x="22.677" y="36.142" width="45.354" height="1.418"/>
  </g>
  <g id="Takt._Zeichen__x28_Typo_x29_">
    <g>
      <path d="M24.745,56.694v-13.803h3.061c5.201,0,7.582,1.9,7.582,6.642,0,4.98-2.921,7.161-7.802,7.161h-2.841ZM26.906,44.711v10.162h.68c3.581,0,5.521-1.5,5.521-5.341,0-3.581-1.84-4.821-5.301-4.821h-.9Z"/>
      <path d="M51.528,56.694h-2.1v-9.142h-.04l-3.681,9.142h-1.66l-3.701-9.142h-.04v9.142h-2.08v-13.803h2.38l4.341,10.742h.04l4.361-10.742h2.18v13.803Z"/>
      <path d="M60.466,56.934c-3.621,0-6.141-2.46-6.141-7.142s2.601-7.142,6.221-7.142c3.601,0,6.101,2.461,6.101,7.142s-2.581,7.142-6.181,7.142ZM60.506,44.491c-2.42,0-3.881,1.78-3.881,5.301,0,3.461,1.46,5.301,3.881,5.301,2.381,0,3.861-1.84,3.861-5.301,0-3.521-1.48-5.301-3.861-5.301Z"/>
    </g>
  </g>
</svg>