<?xml version="1.0" encoding="UTF-8"?>
<svg xmlns="http://www.w3.org/2000/svg" version="1.1" viewBox="0 0 90.709 90.709">
  <!-- Generator: Adobe Illustrator 29.1.0, SVG Export Plug-In . SVG Version: 2.1.0 Build 142)  -->
  <g id="Grundfläche">
    <rect x="0" y="0" width="90.709" height="90.709" fill="none"/>
  </g>
  <g id="Flächige_Fülung">
    <circle cx="45.356" cy="51.024" r="34.016" fill="#fff"/>
  </g>
  <g id="Takt_Zeichen__x28_umgewandelt_x29_">
    <path d="M8.936,31.743l-.864-1.123L45.354,1.94l37.282,28.68-.864,1.123L45.354,3.729,8.936,31.743ZM80.08,51.024c0-19.147-15.577-34.726-34.724-34.726S10.631,31.877,10.631,51.024s15.577,34.725,34.724,34.725,34.724-15.577,34.724-34.725ZM78.663,51.024c0,18.365-14.941,33.307-33.307,33.307S12.048,69.389,12.048,51.024,26.99,17.716,45.355,17.716s33.307,14.941,33.307,33.308Z"/>
  </g>
  <g id="Takt._Zeichen__x28_Typo_x29_">
    <g>
      <path d="M40.584,48.878v.061c2.22.42,4.32,2.04,4.32,4.89,0,3.33-2.459,5.7-8.279,5.7h-4.89v-20.699h4.62c5.85,0,7.979,2.07,7.979,5.369,0,2.94-1.83,4.08-3.75,4.68ZM36.354,41.438h-1.38v6.36h1.35c3.18,0,4.68-1.261,4.68-3.42,0-1.771-1.32-2.94-4.65-2.94ZM36.804,50.408h-1.83v6.479h1.65c3.479,0,4.89-1.14,4.89-3.299,0-2.041-1.71-3.181-4.71-3.181Z"/>
      <path d="M58.374,42.698c-.54-.42-1.8-1.409-3.75-1.409-2.16,0-3.18.96-3.18,2.189,0,1.47.66,2.25,2.79,3.57l2.01,1.229c2.61,1.62,4.08,3.3,4.08,5.97,0,3.03-2.28,5.64-6.87,5.64-3.3,0-4.95-1.35-5.64-1.92l1.11-2.85c.66.66,2.25,1.92,4.47,1.92,2.49,0,3.63-1.109,3.63-2.37,0-1.59-.78-2.399-2.729-3.689l-2.04-1.351c-2.79-1.859-4.05-3.27-4.05-6.089,0-2.79,2.4-5.07,6.27-5.07,2.94,0,4.35,1.11,4.95,1.56l-1.05,2.67Z"/>
    </g>
  </g>
</svg>