<?xml version="1.0" encoding="UTF-8"?>
<svg xmlns="http://www.w3.org/2000/svg" version="1.1" viewBox="0 0 90.709 90.709">
  <!-- Generator: Adobe Illustrator 29.1.0, SVG Export Plug-In . SVG Version: 2.1.0 Build 142)  -->
  <g id="Grundfläche">
    <rect x="0" width="90.709" height="90.709" fill="none"/>
  </g>
  <g id="Flächige_Fülung">
    <rect x="11.339" y="11.339" width="68.031" height="68.031" fill="#fff"/>
  </g>
  <g id="Takt_Zeichen__x28_umgewandelt_x29_">
    <path d="M80.079,80.079H10.63V10.63h69.449v69.449ZM12.048,78.661h66.614V12.048H12.048v66.613Z"/>
  </g>
  <g id="Takt._Zeichen__x28_Typo_x29_">
    <g>
      <path d="M26.814,53.859l-2.07-6.149h-6.93l-2.07,6.149h-3.3l7.71-20.699h2.55l7.68,20.699h-3.57ZM21.324,37.36h-.06l-2.67,7.949h5.4l-2.67-7.949Z"/>
      <path d="M37.044,46.779h-1.47v7.079h-3.24v-20.699h4.86c5.91,0,8.55,2.37,8.55,6.51,0,4.351-2.91,7.11-8.699,7.11ZM37.194,35.829h-1.62v8.25h1.47c3.63,0,5.28-1.56,5.28-4.29,0-2.58-1.59-3.96-5.13-3.96Z"/>
      <path d="M59.154,53.859l-4.68-8.04c-.48.061-.96.061-1.47.061h-1.23v7.979h-3.24v-20.699h4.62c5.73,0,8.34,2.13,8.34,6.09,0,2.7-1.26,4.771-3.84,5.851l5.4,8.759h-3.9ZM53.154,35.829h-1.38v7.41h1.23c3.45,0,5.04-1.38,5.04-3.899,0-2.4-1.53-3.511-4.89-3.511Z"/>
      <path d="M78.624,35.829h-6.24v18.029h-3.24v-18.029h-6.27v-2.67h15.959l-.21,2.67Z"/>
    </g>
  </g>
</svg>