<?xml version="1.0" encoding="UTF-8"?>
<svg xmlns="http://www.w3.org/2000/svg" version="1.1" viewBox="0 0 90.709 90.709">
  <!-- Generator: Adobe Illustrator 29.1.0, SVG Export Plug-In . SVG Version: 2.1.0 Build 142)  -->
  <g id="Grundfläche">
    <rect x="0" width="90.709" height="90.709" fill="none"/>
  </g>
  <g id="Flächige_Fülung">
    <rect x="11.339" y="11.339" width="68.031" height="68.031" fill="#fff"/>
  </g>
  <g id="Takt_Zeichen__x28_umgewandelt_x29_">
    <path d="M22.677,65.905v-1.418c3.517,0,6.378-2.86,6.378-6.377s-2.861-6.378-6.378-6.378v-1.418c4.298,0,7.795,3.497,7.795,7.796s-3.497,7.795-7.795,7.795ZM68.031,64.487c-3.517,0-6.378-2.86-6.378-6.377s2.861-6.378,6.378-6.378v-1.418c-4.298,0-7.795,3.497-7.795,7.796s3.497,7.795,7.795,7.795v-1.418ZM39.685,55.136l5.669,8.504,5.669-8.504,5.67,8.505,5.909-8.88-1.18-.785-4.729,7.108-5.669-8.503-5.669,8.504-5.669-8.504-5.669,8.503-4.729-7.108-1.18.785,5.909,8.88,5.67-8.505ZM80.079,10.63H10.63v69.449h69.449V10.63ZM12.048,12.048h66.614v66.613H12.048V12.048Z"/>
  </g>
  <g id="Takt._Zeichen__x28_Typo_x29_">
    <g>
      <path d="M24.745,42.52v-13.803h3.061c5.201,0,7.582,1.9,7.582,6.641,0,4.981-2.921,7.162-7.802,7.162h-2.841ZM26.906,30.537v10.162h.68c3.581,0,5.521-1.501,5.521-5.342,0-3.58-1.84-4.82-5.301-4.82h-.9Z"/>
      <path d="M51.528,42.52h-2.1v-9.143h-.04l-3.681,9.143h-1.66l-3.701-9.143h-.04v9.143h-2.08v-13.803h2.38l4.341,10.742h.04l4.361-10.742h2.18v13.803Z"/>
      <path d="M60.466,42.76c-3.621,0-6.141-2.461-6.141-7.142s2.601-7.142,6.221-7.142c3.601,0,6.101,2.46,6.101,7.142s-2.581,7.142-6.181,7.142ZM60.506,30.317c-2.42,0-3.881,1.781-3.881,5.302,0,3.46,1.46,5.301,3.881,5.301,2.381,0,3.861-1.841,3.861-5.301,0-3.521-1.48-5.302-3.861-5.302Z"/>
    </g>
  </g>
</svg>