<?xml version="1.0" encoding="UTF-8"?>
<svg xmlns="http://www.w3.org/2000/svg" version="1.1" viewBox="0 0 90.709 90.709">
  <!-- Generator: Adobe Illustrator 29.1.0, SVG Export Plug-In . SVG Version: 2.1.0 Build 142)  -->
  <g id="Grundfläche">
    <rect x="0" width="90.709" height="90.709" fill="none"/>
  </g>
  <g id="Flächige_Fülung">
    <rect x="11.339" y="11.339" width="68.031" height="68.031" fill="#fff"/>
  </g>
  <g id="Takt_Zeichen__x28_umgewandelt_x29_">
    <path d="M59.528,26.221h-28.347v-1.418h28.347v1.418ZM80.079,10.63H10.631v69.449h69.449V10.63ZM12.048,12.048h66.615v66.613H12.048V12.048Z"/>
  </g>
  <g id="Takt._Zeichen__x28_Typo_x29_">
    <g>
      <path d="M19.728,73.701h-1.02l-3.01-8.275h1.439l2.111,6.428h.024l2.147-6.428h1.319l-3.01,8.275Z"/>
      <path d="M25.381,73.845c-1.439,0-2.554-.96-2.554-3.046,0-2.075,1.271-3.035,2.674-3.035,1.439,0,2.542.936,2.542,3.035,0,2.062-1.271,3.046-2.663,3.046ZM25.441,68.819c-.779,0-1.367.6-1.367,1.979,0,1.391.588,1.99,1.367,1.99.792,0,1.355-.611,1.355-1.99,0-1.392-.588-1.979-1.355-1.979Z"/>
      <path d="M29.99,66.361h-.995v-.936h3.286v.936h-.996v6.404h1.02v.936h-3.346v-.936h1.031v-6.404Z"/>
      <path d="M35.785,70.871h-.588v2.83h-1.295v-8.275h1.943c2.363,0,3.418.947,3.418,2.603,0,1.739-1.163,2.843-3.478,2.843ZM35.845,66.493h-.648v3.298h.588c1.451,0,2.111-.623,2.111-1.715,0-1.031-.636-1.583-2.051-1.583Z"/>
    </g>
    <path d="M48.732,31.453c4.439,0,6.639,1.959,7.279,2.52l-1.56,3.319c-.72-.681-2.52-2.16-5.599-2.16-4.719,0-8.718,2.88-8.718,10.398,0,7.719,3.16,10.798,8.279,10.798,3.439,0,5.279-1.479,6.119-2.159l1.2,3.159c-.84.721-3.04,2.68-7.958,2.68-7.279,0-12.238-4.199-12.238-14.317s6.679-14.237,13.198-14.237Z"/>
  </g>
</svg>