<?xml version="1.0" encoding="UTF-8"?>
<svg xmlns="http://www.w3.org/2000/svg" version="1.1" viewBox="0 0 90.709 90.709">
  <!-- Generator: Adobe Illustrator 29.1.0, SVG Export Plug-In . SVG Version: 2.1.0 Build 142)  -->
  <g id="Grundfläche">
    <rect x="0" width="90.709" height="90.709" fill="none"/>
  </g>
  <g id="Takt_Zeichen__x28_umgewandelt_x29_">
    <polygon points="87.874 44.646 47.065 44.646 57.194 34.517 56.192 33.515 45.061 44.646 2.835 44.646 2.835 46.064 43.643 46.064 30.68 59.027 31.682 60.029 45.647 46.064 87.874 46.064 87.874 44.646"/>
  </g>
  <g id="Takt._Zeichen__x28_Typo_x29_">
    <path d="M66.409,32.785v.06c1.22.701,2.121,1.701,2.121,3.501,0,1.921-1.521,3.581-4.121,3.581-2.48,0-3.901-1.48-3.901-3.461,0-1.9,1.14-2.76,2.161-3.28v-.06c-1.14-.721-1.82-1.741-1.82-3.221,0-1.98,1.62-3.461,3.801-3.461,2.12,0,3.581,1.24,3.581,3.301,0,1.66-.92,2.5-1.82,3.04ZM64.029,33.806c-.76.42-1.581,1.141-1.581,2.34,0,1.221.8,2.081,2.021,2.081,1.16,0,2.021-.761,2.021-1.96,0-1.181-.9-1.881-2.34-2.421-.04,0-.08-.021-.12-.04ZM65.029,32.205c.68-.42,1.32-1.12,1.32-2.341,0-1.04-.72-1.72-1.8-1.72-.96,0-1.72.62-1.72,1.66,0,1.22.9,1.86,2.2,2.4Z"/>
  </g>
</svg>