<?xml version="1.0" encoding="UTF-8"?>
<svg xmlns="http://www.w3.org/2000/svg" version="1.1" viewBox="0 0 90.709 90.709">
  <!-- Generator: Adobe Illustrator 29.1.0, SVG Export Plug-In . SVG Version: 2.1.0 Build 142)  -->
  <g id="Grundfläche">
    <rect x="0" width="90.709" height="90.709" fill="none"/>
  </g>
  <g id="Flächige_Fülung">
    <rect x="11.339" y="11.339" width="68.031" height="68.031" fill="#fff"/>
  </g>
  <g id="Takt_Zeichen__x28_umgewandelt_x29_">
    <path d="M10.63,80.079h69.449V10.63H10.63v69.449ZM12.047,12.048h66.614v66.613H12.047V12.048ZM42.521,38.976h19.841v1.418h-19.841v-1.418ZM42.521,64.488h19.841v1.418h-19.841v-1.418ZM48.189,51.732h-19.841v10.63l-14.173-11.339,14.173-11.339v10.629h19.841v1.418ZM62.362,28.346l14.173,11.339-14.173,11.339v-22.678ZM62.362,53.858l14.173,11.339-14.173,11.339v-22.678ZM28.348,36.851l-14.173-11.339,14.173-11.339v10.629h19.841v1.418h-19.841v10.63Z"/>
  </g>
</svg>