<?xml version="1.0" encoding="UTF-8"?>
<svg xmlns="http://www.w3.org/2000/svg" version="1.1" viewBox="0 0 90.709 90.709">
  <!-- Generator: Adobe Illustrator 29.1.0, SVG Export Plug-In . SVG Version: 2.1.0 Build 142)  -->
  <g id="Grundfläche">
    <rect x="0" width="90.709" height="90.709" fill="none"/>
  </g>
  <g id="Flächige_Fülung">
    <circle cx="45.356" cy="45.354" r="34.016" fill="#fff"/>
  </g>
  <g id="Takt_Zeichen__x28_umgewandelt_x29_">
    <path d="M45.356,10.63c-19.147,0-34.724,15.577-34.724,34.725s15.577,34.725,34.724,34.725,34.725-15.577,34.725-34.725S64.503,10.63,45.356,10.63ZM78.645,44.645h-19.117v-10.63l-13.287,10.63h-.176v-19.134h10.629l-10.629-13.287v-.159c17.802.375,32.205,14.778,32.58,32.58ZM44.647,12.065v.159l-10.631,13.287h10.631v19.134h-.179l-13.287-10.63v10.63H12.067c.375-17.802,14.778-32.205,32.58-32.58ZM12.067,46.063h19.114v10.63l13.287-10.63h.178v19.134h-10.631l10.631,13.287v.159c-17.802-.375-32.205-14.778-32.58-32.58ZM46.064,78.643v-.159l10.629-13.287h-10.629v-19.134h.176l13.287,10.63v-10.63h19.117c-.375,17.801-14.778,32.205-32.58,32.58Z"/>
  </g>
</svg>