<?xml version="1.0" encoding="UTF-8"?>
<svg xmlns="http://www.w3.org/2000/svg" version="1.1" viewBox="0 0 90.709 90.709">
  <!-- Generator: Adobe Illustrator 29.1.0, SVG Export Plug-In . SVG Version: 2.1.0 Build 142)  -->
  <g id="Grundfläche">
    <rect x="0" width="90.709" height="90.709" fill="none"/>
  </g>
  <g id="Takt_Zeichen__x28_umgewandelt_x29_">
    <path d="M87.874,46.063h-13.465v13.465h-1.417v-13.465H17.716v13.465h-1.417v-13.465H2.835v-1.418h13.464v-13.464h1.417v13.464h55.276v-13.464h1.417v13.464h13.465v1.418ZM26.459,29.055c1.38,0,2.299,2.754,3.109,5.185,1.009,3.025,2.053,6.154,4.454,6.154s3.443-3.129,4.452-6.154c.81-2.431,1.728-5.185,3.107-5.185s2.298,2.754,3.108,5.185c1.009,3.025,2.052,6.154,4.453,6.154s3.443-3.129,4.452-6.154c.81-2.431,1.728-5.185,3.106-5.185s2.296,2.754,3.106,5.185c1.008,3.025,2.051,6.154,4.451,6.154s3.442-3.128,4.45-6.152l-1.345-.448c-.81,2.43-1.727,5.183-3.105,5.183s-2.296-2.754-3.106-5.185c-1.008-3.025-2.051-6.154-4.451-6.154s-3.443,3.129-4.451,6.154c-.81,2.431-1.728,5.185-3.107,5.185s-2.298-2.755-3.108-5.185c-1.009-3.025-2.052-6.154-4.453-6.154s-3.443,3.129-4.452,6.154c-.81,2.431-1.728,5.185-3.107,5.185s-2.299-2.754-3.109-5.185c-1.009-3.025-2.053-6.154-4.454-6.154s-3.445,3.128-4.455,6.154l1.345.446c.811-2.429,1.729-5.183,3.109-5.183Z"/>
  </g>
</svg>