<?xml version="1.0" encoding="UTF-8"?>
<svg xmlns="http://www.w3.org/2000/svg" version="1.1" viewBox="0 0 90.709 90.709">
  <!-- Generator: Adobe Illustrator 29.1.0, SVG Export Plug-In . SVG Version: 2.1.0 Build 142)  -->
  <g id="Grundfläche">
    <rect x="0" width="90.709" height="90.709" fill="none"/>
  </g>
  <g id="Flächige_Fülung">
    <rect x="11.339" y="11.339" width="68.031" height="68.031" fill="#fff"/>
  </g>
  <g id="Takt_Zeichen__x28_umgewandelt_x29_">
    <path d="M10.63,80.079h69.449V10.63H10.63v69.449ZM12.047,12.048h66.614v66.613H12.047V12.048ZM59.06,51.136l-1.096.898c-3.112-3.795-7.708-5.971-12.61-5.971s-9.498,2.176-12.61,5.971l-1.096-.898c3.382-4.124,8.378-6.49,13.706-6.49s10.324,2.366,13.706,6.49ZM45.354,33.306c7.934,0,15.332,3.147,20.831,8.861l-1.021.982c-5.23-5.434-12.265-8.426-19.81-8.426s-14.58,2.992-19.81,8.426l-1.021-.982c5.499-5.714,12.897-8.861,20.831-8.861ZM45.354,21.969c10.481,0,20.416,3.997,27.974,11.255l-.981,1.021c-7.293-7.002-16.879-10.858-26.993-10.858s-19.7,3.856-26.992,10.858l-.981-1.021c7.558-7.258,17.493-11.255,27.974-11.255ZM51.024,62.362c0,3.131-2.538,5.669-5.669,5.669s-5.669-2.538-5.669-5.669,2.538-5.669,5.669-5.669,5.669,2.539,5.669,5.669Z"/>
  </g>
</svg>