<?xml version="1.0" encoding="UTF-8"?>
<svg xmlns="http://www.w3.org/2000/svg" version="1.1" viewBox="0 0 90.709 90.709">
  <!-- Generator: Adobe Illustrator 29.1.0, SVG Export Plug-In . SVG Version: 2.1.0 Build 142)  -->
  <g id="Grundfläche">
    <rect x="0" width="90.709" height="90.709" fill="none"/>
  </g>
  <g id="Flächige_Fülung">
    <path d="M79.185,36.198c.11-.713.185-1.438.185-2.182,0-7.828-6.346-14.174-14.174-14.174-.688,0-1.359.066-2.02.16-4.152-5.273-10.589-8.664-17.822-8.664-10.15,0-18.74,6.668-21.634,15.863-1.998-1.077-4.284-1.69-6.713-1.69-7.828,0-14.174,6.346-14.174,14.173,0,4.749,2.343,8.94,5.927,11.513-.164.863-.258,1.75-.258,2.661,0,7.828,6.346,14.173,14.174,14.173.095,0,.187-.012.282-.014,1.308,6.476,7.029,11.353,13.891,11.353,3.98,0,7.572-1.646,10.146-4.288,2.1.928,4.418,1.453,6.862,1.453,6.358,0,11.891-3.495,14.81-8.662.721.094,1.451.158,2.198.158,9.393,0,17.008-7.615,17.008-17.008,0-6.369-3.506-11.912-8.689-14.826Z" fill="#fff"/>
  </g>
  <g id="Takt_Zeichen__x28_umgewandelt_x29_">
    <path d="M79.954,35.825c.084-.648.125-1.243.125-1.809,0-8.206-6.676-14.883-14.882-14.883-.537,0-1.091.037-1.717.114-4.469-5.482-11.051-8.618-18.125-8.618-9.987,0-18.744,6.224-22.047,15.572-1.963-.917-4.124-1.399-6.3-1.399-8.206,0-14.882,6.677-14.882,14.883,0,4.624,2.183,9.01,5.863,11.821-.128.795-.193,1.584-.193,2.352,0,8.111,6.523,14.729,14.599,14.88,1.613,6.607,7.599,11.342,14.456,11.342,3.878,0,7.519-1.474,10.307-4.158,2.141.878,4.392,1.323,6.7,1.323,6.214,0,11.99-3.288,15.188-8.612.663.073,1.251.108,1.82.108,9.769,0,17.717-7.948,17.717-17.717,0-6.225-3.293-12.004-8.628-15.199ZM70.866,67.323c-.638,0-1.307-.048-2.107-.152l-.473-.062-.235.416c-2.893,5.121-8.331,8.302-14.193,8.302-2.271,0-4.483-.468-6.575-1.393l-.45-.198-.344.353c-2.56,2.627-5.983,4.073-9.639,4.073-6.384,0-11.934-4.535-13.197-10.785l-.117-.58-.86.026c-7.425,0-13.465-6.04-13.465-13.465,0-.821.083-1.671.246-2.527l.084-.444-.368-.265c-3.527-2.53-5.632-6.619-5.632-10.937,0-7.425,6.04-13.465,13.465-13.465,2.223,0,4.428.555,6.377,1.605l.755.406.257-.817c2.892-9.191,11.315-15.367,20.958-15.367,6.772,0,13.065,3.06,17.265,8.394l.253.321.404-.059c.729-.104,1.339-.152,1.92-.152,7.425,0,13.465,6.04,13.465,13.465,0,.629-.058,1.307-.177,2.073l-.075.485.428.241c5.136,2.888,8.327,8.332,8.327,14.208,0,8.987-7.312,16.299-16.299,16.299Z"/>
  </g>
</svg>