<?xml version="1.0" encoding="UTF-8"?>
<svg xmlns="http://www.w3.org/2000/svg" version="1.1" viewBox="0 0 90.709 90.709">
  <!-- Generator: Adobe Illustrator 29.1.0, SVG Export Plug-In . SVG Version: 2.1.0 Build 142)  -->
  <g id="Grundfläche">
    <rect x="0" y="0" width="90.709" height="90.709" fill="none"/>
  </g>
  <g id="Takt_Zeichen__x28_umgewandelt_x29_">
    <path d="M68.567,33.307h-6.539l15.021-15.812-1.027-.977-15.949,16.788h-6.549l15.021-15.812-1.027-.977-15.949,16.788h-6.549l15.021-15.812-1.027-.977-15.949,16.788H6.378v-16.3h-1.417v57.402h80.788V16.583h-1.296l-15.884,16.725ZM84.331,18.768v14.539h-13.809l13.809-14.539ZM58.726,34.725l-36.353,38.267h-6.549l36.353-38.267h6.549ZM50.222,34.725L13.869,72.992h-6.549l36.353-38.267h6.549ZM41.718,34.725L6.378,71.926v-37.2h35.34ZM24.328,72.992l36.353-38.267h6.539l-36.344,38.267h-6.549ZM32.831,72.992l36.344-38.267h15.155v38.267h-51.5Z"/>
  </g>
</svg>