<?xml version="1.0" encoding="UTF-8"?>
<svg xmlns="http://www.w3.org/2000/svg" version="1.1" viewBox="0 0 90.709 90.709">
  <!-- Generator: Adobe Illustrator 29.1.0, SVG Export Plug-In . SVG Version: 2.1.0 Build 142)  -->
  <g id="Grundfläche">
    <rect x="0" width="90.709" height="90.709" fill="none"/>
  </g>
  <g id="Takt_Zeichen__x28_umgewandelt_x29_">
    <polygon points="28.85 74.41 5.67 74.41 5.67 72.992 27.844 72.992 47.687 16.298 65.732 16.298 71.401 36.141 87.875 36.141 87.875 37.559 70.332 37.559 64.663 17.716 48.692 17.716 28.85 74.41"/>
    <rect x="5.669" y="27.637" width="82.205" height="1.418" fill="#fa1919"/>
  </g>
  <g id="Takt._Zeichen__x28_Typo_x29_">
    <g>
      <path d="M10.622,15.949h-2.543l-.156,1.859c2.171.191,3.046,1.115,3.046,2.591,0,1.463-.971,2.422-2.662,2.422-1.283,0-1.859-.647-2.111-.887l.492-1.008c.24.275.792.84,1.583.84.936,0,1.439-.468,1.439-1.212,0-1.211-.875-1.739-2.998-1.774l.324-3.898h3.586v1.067Z" fill="#fa1919"/>
      <path d="M14.619,22.821c-1.499,0-2.471-1.223-2.471-4.041,0-2.843,1.079-4.042,2.567-4.042,1.499,0,2.471,1.224,2.471,4.042,0,2.842-1.08,4.041-2.567,4.041ZM14.667,15.794c-.756,0-1.271.791-1.271,2.986,0,2.23.516,2.986,1.271,2.986s1.271-.756,1.271-2.986c0-2.195-.516-2.986-1.271-2.986Z" fill="#fa1919"/>
      <path d="M22.335,18.719c-.9,0-1.751-.636-1.751-1.99,0-1.344.852-1.979,1.751-1.979.911,0,1.763.636,1.763,1.979,0,1.354-.852,1.99-1.763,1.99ZM22.455,22.677h-1.163l5.373-7.796h1.163l-5.373,7.796ZM22.335,15.553c-.468,0-.756.396-.756,1.176s.288,1.175.756,1.175c.48,0,.768-.396.768-1.175s-.288-1.176-.768-1.176ZM26.785,22.821c-.899,0-1.763-.636-1.763-1.979,0-1.355.864-1.991,1.763-1.991s1.751.636,1.751,1.991c0,1.343-.852,1.979-1.751,1.979ZM26.785,19.655c-.468,0-.768.396-.768,1.188,0,.768.3,1.176.768,1.176s.756-.408.756-1.176c0-.792-.288-1.188-.756-1.188Z" fill="#fa1919"/>
    </g>
  </g>
</svg>