<?xml version="1.0" encoding="UTF-8"?>
<svg xmlns="http://www.w3.org/2000/svg" version="1.1" viewBox="0 0 90.709 90.709">
  <!-- Generator: Adobe Illustrator 29.1.0, SVG Export Plug-In . SVG Version: 2.1.0 Build 142)  -->
  <g id="Grundfläche">
    <rect x="0" width="90.709" height="90.709" fill="none"/>
  </g>
  <g id="Takt_Zeichen__x28_umgewandelt_x29_">
    <polygon points="28.849 74.41 5.669 74.41 5.669 72.992 27.844 72.992 47.686 16.298 65.731 16.298 71.401 36.141 87.874 36.141 87.874 37.559 70.332 37.559 64.662 17.716 48.692 17.716 28.849 74.41"/>
    <path d="M26.218,10.2l.351,1.373c-2.73.696-5.431,1.551-8.028,2.539l-.504-1.324c2.647-1.008,5.4-1.878,8.181-2.588ZM31.809,8.992l.248,1.395c2.758-.489,5.571-.83,8.36-1.013l-.092-1.414c-2.842.186-5.707.532-8.516,1.032ZM5.276,19.253l.786,1.18c2.208-1.473,4.67-2.857,7.318-4.118l-.609-1.279c-2.709,1.289-5.23,2.708-7.495,4.218ZM46.033,9.216c2.829.018,5.667.15,8.434.395l.125-1.412c-2.805-.247-5.681-.382-8.549-.4l-.009,1.418ZM60.058,10.257c2.754.396,5.547.917,8.301,1.545l.315-1.381c-2.791-.638-5.622-1.164-8.414-1.566l-.202,1.402ZM89.016,17.397l-9.367-10.583-2.023,6.054c-1.149-.363-2.295-.713-3.424-1.033l-.386,1.363c1.108.314,2.233.658,3.361,1.014l-2.008,6.008,13.847-2.823Z" fill="#fa1919"/>
  </g>
</svg>