<?xml version="1.0" encoding="UTF-8"?>
<svg xmlns="http://www.w3.org/2000/svg" version="1.1" viewBox="0 0 90.709 90.709">
  <!-- Generator: Adobe Illustrator 29.1.0, SVG Export Plug-In . SVG Version: 2.1.0 Build 142)  -->
  <g id="Grundfläche">
    <rect x="0" width="90.709" height="90.709" fill="none"/>
  </g>
  <g id="Takt_Zeichen__x28_umgewandelt_x29_">
    <polygon points="28.849 74.41 5.669 74.41 5.669 72.992 27.844 72.992 47.686 16.298 65.731 16.298 71.401 36.141 87.874 36.141 87.874 37.559 70.332 37.559 64.662 17.716 48.692 17.716 28.849 74.41"/>
    <path d="M75.168,20.221l2.003-5.994c-10.652-3.356-21.083-5.013-31.818-5.013-20.273,0-34.232,7.846-39.292,11.219l-.786-1.18c5.168-3.444,19.418-11.457,40.079-11.457,10.889,0,21.468,1.681,32.267,5.087l2.028-6.068,9.367,10.583-13.847,2.823Z" fill="#fa1919"/>
  </g>
</svg>