<?xml version="1.0" encoding="UTF-8"?>
<svg xmlns="http://www.w3.org/2000/svg" version="1.1" viewBox="0 0 90.709 90.709">
  <!-- Generator: Adobe Illustrator 29.1.0, SVG Export Plug-In . SVG Version: 2.1.0 Build 142)  -->
  <g id="Grundfläche">
    <rect x="0" width="90.709" height="90.709" fill="none"/>
  </g>
  <g id="Takt_Zeichen__x28_umgewandelt_x29_">
    <polygon points="28.849 74.41 5.669 74.41 5.669 72.992 27.844 72.992 47.686 16.298 65.731 16.298 71.401 36.141 87.874 36.141 87.874 37.559 70.332 37.559 64.663 17.716 48.692 17.716 28.849 74.41"/>
    <path d="M86.728,31.473l-9.824-10.159-3.888,13.587,6.033-1.508c.426,4.018-1.281,6.304-3.08,8.703-2.19,2.919-4.454,5.938-2.955,11.935l1.375-.344c-1.335-5.342.632-7.964,2.714-10.741,1.927-2.569,3.909-5.217,3.337-9.9l6.289-1.572Z" fill="#fa1919"/>
  </g>
</svg>