<?xml version="1.0" encoding="UTF-8"?>
<svg xmlns="http://www.w3.org/2000/svg" version="1.1" viewBox="0 0 90.709 90.709">
  <!-- Generator: Adobe Illustrator 29.1.0, SVG Export Plug-In . SVG Version: 2.1.0 Build 142)  -->
  <g id="Grundfläche">
    <rect x="0" width="90.709" height="90.709" fill="none"/>
  </g>
  <g id="Takt_Zeichen__x28_umgewandelt_x29_">
    <polygon points="28.849 74.41 5.669 74.41 5.669 72.992 27.844 72.992 47.687 16.298 65.731 16.298 71.401 36.141 87.874 36.141 87.874 37.559 70.332 37.559 64.663 17.716 48.692 17.716 28.849 74.41"/>
    <path d="M85.256,23.114l-14.13.237,3.235,5.391c-5.123,2.632-9.446,2.904-12.3.714-4.057-3.112-4.732-10.678-1.852-20.758l-1.363-.389c-3.048,10.669-2.191,18.786,2.352,22.271,1.536,1.178,3.403,1.763,5.528,1.763,2.477,0,5.307-.807,8.364-2.387l3.309,5.514,6.858-12.357Z" fill="#fa1919"/>
  </g>
</svg>