<?xml version="1.0" encoding="UTF-8"?>
<svg xmlns="http://www.w3.org/2000/svg" version="1.1" viewBox="0 0 90.709 90.709">
  <!-- Generator: Adobe Illustrator 29.1.0, SVG Export Plug-In . SVG Version: 2.1.0 Build 142)  -->
  <g id="Grundfläche">
    <rect x="0" width="90.709" height="90.709" fill="none"/>
  </g>
  <g id="Takt_Zeichen__x28_umgewandelt_x29_">
    <polygon points="28.85 74.41 5.67 74.41 5.67 72.992 27.844 72.992 47.687 16.298 65.732 16.298 71.401 36.141 87.874 36.141 87.874 37.559 70.332 37.559 64.663 17.716 48.692 17.716 28.85 74.41"/>
    <path d="M78.927,26.813l-1.002-1.002-18.541,18.541-13.029-13.028,18.541-18.541-1.002-1.002-18.541,18.541L26.813,11.781l-1.002,1.002,18.541,18.541-13.028,13.029L12.782,25.811l-1.002,1.002,18.541,18.541-18.541,18.541,1.002,1.002,18.541-18.541,13.028,13.028-18.541,18.542,1.002,1.002,18.541-18.541,18.541,18.541,1.002-1.002-18.541-18.542,13.029-13.028,18.541,18.541,1.002-1.002-18.541-18.541,18.541-18.541ZM45.353,58.383l-13.028-13.029,13.028-13.028,13.029,13.028-13.029,13.029Z" fill="#fa1919"/>
  </g>
</svg>