<?xml version="1.0" encoding="UTF-8"?>
<svg xmlns="http://www.w3.org/2000/svg" version="1.1" viewBox="0 0 90.709 90.709">
  <!-- Generator: Adobe Illustrator 29.1.0, SVG Export Plug-In . SVG Version: 2.1.0 Build 142)  -->
  <g id="Grundfläche">
    <rect x="0" width="90.709" height="90.709" fill="none"/>
  </g>
  <g id="Flächige_Fülung">
    <polygon points="87.874 11.339 45.354 82.205 2.835 11.339 87.874 11.339" fill="#fff"/>
  </g>
  <g id="Takt_Zeichen__x28_umgewandelt_x29_">
    <path d="M56.192,37.352l4.459,4.459h-23.164c-.348-2.398-2.396-4.252-4.889-4.252-2.735,0-4.96,2.226-4.96,4.961s2.225,4.961,4.96,4.961c2.493,0,4.541-1.854,4.889-4.252h23.164l-4.459,4.459,1.002,1.002,6.171-6.17-6.171-6.17-1.002,1.002ZM32.598,46.063c-1.954,0-3.543-1.589-3.543-3.543s1.59-3.543,3.543-3.543,3.543,1.589,3.543,3.543-1.59,3.543-3.543,3.543ZM19.843,29.056v-1.418c2.835,0,4.281-1.928,5.812-3.968,1.595-2.126,3.402-4.536,6.947-4.536s5.352,2.41,6.946,4.535c1.531,2.041,2.977,3.969,5.813,3.969s4.278-1.927,5.808-3.968c1.594-2.126,3.4-4.536,6.942-4.536s5.35,2.41,6.944,4.536c1.53,2.04,2.976,3.968,5.81,3.968v1.418c-3.543,0-5.35-2.41-6.944-4.536-1.53-2.04-2.976-3.968-5.811-3.968s-4.278,1.928-5.809,3.968c-1.594,2.126-3.4,4.536-6.942,4.536s-5.352-2.41-6.947-4.536c-1.531-2.04-2.977-3.968-5.812-3.968s-4.282,1.928-5.813,3.969c-1.595,2.125-3.402,4.535-6.946,4.535ZM2.835,10.63l-.608,1.073,43.127,71.879L88.482,11.703l-.608-1.073H2.835ZM45.354,80.828L4.086,12.048h82.536l-41.268,68.78Z" fill="#3264fa"/>
  </g>
</svg>