<?xml version="1.0" encoding="UTF-8"?>
<svg xmlns="http://www.w3.org/2000/svg" version="1.1" viewBox="0 0 90.709 90.709">
  <!-- Generator: Adobe Illustrator 29.1.0, SVG Export Plug-In . SVG Version: 2.1.0 Build 142)  -->
  <g id="Grundfläche">
    <rect x="0" width="90.709" height="90.709" fill="none"/>
  </g>
  <g id="Flächige_Fülung">
    <circle cx="45.356" cy="45.354" r="34.016" fill="#fff"/>
  </g>
  <g id="Takt_Zeichen__x28_umgewandelt_x29_">
    <path d="M45.356,10.63c-19.147,0-34.725,15.577-34.725,34.725s15.577,34.725,34.725,34.725,34.724-15.577,34.724-34.725S64.503,10.63,45.356,10.63ZM45.356,12.048c11.823,0,22.22,6.198,28.132,15.509l-17.088,17.088H12.066c.38-18.038,15.161-32.598,33.289-32.598ZM58.404,44.646l15.838-15.839c2.695,4.687,4.281,10.084,4.402,15.839h-20.24ZM78.644,46.064c-.121,5.754-1.707,11.152-4.402,15.838l-15.839-15.838h20.24ZM45.356,78.661c-18.128,0-32.909-14.56-33.289-32.598h44.334l17.088,17.087c-5.912,9.312-16.309,15.511-28.132,15.511ZM60.028,56.192l6.171,6.171-6.171,6.17-1.002-1.002,4.46-4.459H29.055v4.96h-1.417v-11.339h1.417v4.961h34.431l-4.46-4.46,1.002-1.002Z"/>
  </g>
</svg>