<?xml version="1.0" encoding="UTF-8"?>
<svg xmlns="http://www.w3.org/2000/svg" version="1.1" viewBox="0 0 90.709 90.709">
  <!-- Generator: Adobe Illustrator 29.1.0, SVG Export Plug-In . SVG Version: 2.1.0 Build 142)  -->
  <g id="Grundfläche">
    <rect x="0" width="90.709" height="90.709" fill="none"/>
  </g>
  <g id="Flächige_Fülung">
    <circle cx="45.355" cy="45.354" r="34.016" fill="#fff"/>
  </g>
  <g id="Takt_Zeichen__x28_umgewandelt_x29_">
    <path d="M45.355,10.63c-19.147,0-34.724,15.577-34.724,34.725s15.577,34.725,34.724,34.725,34.725-15.577,34.725-34.725S64.503,10.63,45.355,10.63ZM45.355,78.661c-18.365,0-33.307-14.941-33.307-33.307S26.99,12.048,45.355,12.048s33.307,14.941,33.307,33.307-14.941,33.307-33.307,33.307ZM30.098,65.906h21.635V19.843l-1.358-.284-20.277,46.347ZM50.315,64.488h-18.05l18.05-41.257v41.257Z" fill="#fa1919"/>
  </g>
</svg>