<?xml version="1.0" encoding="UTF-8"?>
<svg xmlns="http://www.w3.org/2000/svg" version="1.1" viewBox="0 0 90.709 90.709">
  <!-- Generator: Adobe Illustrator 29.1.0, SVG Export Plug-In . SVG Version: 2.1.0 Build 142)  -->
  <g id="Grundfläche">
    <rect x="0" width="90.709" height="90.709" fill="none"/>
  </g>
  <g id="Flächige_Fülung">
    <polygon points="2.835 79.37 45.354 8.504 87.874 79.37 2.835 79.37" fill="#fff"/>
  </g>
  <g id="Takt_Zeichen__x28_umgewandelt_x29_">
    <path d="M26.222,52.441c0,10.551,8.583,19.135,19.134,19.135s19.134-8.584,19.134-19.135-8.583-19.134-19.134-19.134-19.134,8.584-19.134,19.134ZM45.355,34.725c9.769,0,17.717,7.947,17.717,17.716s-7.948,17.717-17.717,17.717-17.716-7.947-17.716-17.717,7.948-17.716,17.716-17.716ZM50.315,38.268l-1.356-.288-11.781,26.509h13.138v-26.221ZM48.898,63.071h-9.539l9.539-21.463v21.463ZM45.354,7.127L2.227,79.006l.608,1.073h85.039l.608-1.073L45.354,7.127ZM4.086,78.661L45.354,9.881l41.268,68.78H4.086ZM2.551,56.835c0-.938.763-1.701,1.701-1.701s1.701.763,1.701,1.701-.763,1.7-1.701,1.7-1.701-.763-1.701-1.7ZM5.386,51.024h-2.268v-22.677h2.268v22.677Z" fill="#fa1919"/>
  </g>
</svg>