<?xml version="1.0" encoding="UTF-8"?>
<svg xmlns="http://www.w3.org/2000/svg" version="1.1" viewBox="0 0 90.709 90.709">
  <!-- Generator: Adobe Illustrator 29.1.0, SVG Export Plug-In . SVG Version: 2.1.0 Build 142)  -->
  <g id="Grundfläche">
    <rect x="0" width="90.709" height="90.709" fill="none"/>
  </g>
  <g id="Flächige_Fülung">
    <path d="M45.355,22.678c-17.008,0-31.181-2.582-42.52-6.378v57.402h85.04V16.3c-11.339,3.794-25.512,6.378-42.52,6.378Z" fill="#fa8c00"/>
  </g>
  <g id="Takt_Zeichen__x28_umgewandelt_x29_">
    <path d="M45.354,40.393c-8.206,0-14.882,6.677-14.882,14.883s6.676,14.882,14.882,14.882,14.882-6.676,14.882-14.882-6.676-14.883-14.882-14.883ZM46.063,41.847c3.178.167,6.061,1.434,8.283,3.435l-8.283,8.283v-11.718ZM44.646,53.565l-8.283-8.283c2.222-2.001,5.105-3.269,8.283-3.435v11.718ZM43.644,54.567h-11.718c.167-3.178,1.434-6.062,3.435-8.283l8.283,8.283ZM43.643,55.985l-8.282,8.282c-2.001-2.222-3.268-5.104-3.435-8.282h11.717ZM44.646,56.986v11.718c-3.178-.167-6.061-1.434-8.283-3.435l8.283-8.283ZM46.063,56.986l8.283,8.283c-2.222,2-5.105,3.268-8.283,3.435v-11.718ZM47.066,55.985h11.717c-.167,3.177-1.434,6.061-3.435,8.282l-8.282-8.282ZM47.065,54.567l8.283-8.283c2.001,2.222,3.269,5.105,3.435,8.283h-11.718ZM84.314,74.411h4.269V15.316s-.934.312-.934.312c-12.579,4.208-26.809,6.341-42.295,6.341S15.629,19.837,3.06,15.629l-.934-.312v59.095h4.267c-1.727,1.293-2.851,3.35-2.851,5.668,0,3.907,3.179,7.087,7.087,7.087s7.087-3.18,7.087-7.087c0-2.318-1.124-4.375-2.851-5.668h26.253c-1.727,1.293-2.851,3.35-2.851,5.668,0,3.907,3.179,7.087,7.087,7.087s7.087-3.18,7.087-7.087c0-2.318-1.124-4.375-2.851-5.668h26.253c-1.727,1.293-2.851,3.35-2.851,5.668,0,3.907,3.179,7.087,7.087,7.087s7.087-3.18,7.087-7.087c0-2.318-1.124-4.375-2.851-5.668ZM16.299,80.079c0,3.126-2.543,5.669-5.669,5.669s-5.669-2.543-5.669-5.669,2.533-5.658,5.65-5.668h.039c3.117.01,5.65,2.548,5.65,5.668ZM51.023,80.079c0,3.126-2.543,5.669-5.669,5.669s-5.669-2.543-5.669-5.669,2.533-5.658,5.65-5.668h.039c3.117.01,5.65,2.548,5.65,5.668ZM3.544,72.993V17.28c12.483,4.053,26.544,6.107,41.811,6.107s29.319-2.055,41.811-6.107v55.713s-83.622,0-83.622,0ZM80.078,85.748c-3.126,0-5.669-2.543-5.669-5.669s2.533-5.658,5.65-5.668h.039c3.117.01,5.65,2.548,5.65,5.668s-2.543,5.669-5.669,5.669Z"/>
  </g>
  <g id="Takt._Zeichen__x28_Typo_x29_">
    <g>
      <path d="M11.152,31.2l3.19,4.233h-1.607l-2.639-3.634h-.672v3.634h-1.295v-8.275h1.295v3.562h.696l2.554-3.562h1.451l-2.974,4.042Z"/>
      <path d="M15.869,28.428c-.444,0-.768-.299-.768-.768,0-.479.324-.779.768-.779s.78.3.78.779c0,.469-.336.768-.78.768ZM16.481,35.433h-1.223v-5.793h1.223v5.793Z"/>
      <path d="M20.416,35.553c-.492,0-.839-.108-1.055-.217v2.495h-1.223v-8.191h1.127v.647h.024c.168-.24.647-.791,1.679-.791,1.331,0,2.195.936,2.195,2.902,0,2.146-1.163,3.154-2.747,3.154ZM19.361,31.044v3.238c.204.132.492.252.9.252,1.055,0,1.655-.576,1.655-2.063,0-1.367-.54-1.919-1.379-1.919-.612,0-.984.288-1.176.492Z"/>
      <path d="M26.824,35.553c-.492,0-.839-.108-1.055-.217v2.495h-1.223v-8.191h1.127v.647h.024c.168-.24.647-.791,1.679-.791,1.331,0,2.195.936,2.195,2.902,0,2.146-1.163,3.154-2.747,3.154ZM25.769,31.044v3.238c.204.132.492.252.9.252,1.055,0,1.655-.576,1.655-2.063,0-1.367-.54-1.919-1.379-1.919-.612,0-.984.288-1.176.492Z"/>
      <path d="M35.115,32.831h-3.25c.072,1.188.672,1.703,1.679,1.703.839,0,1.307-.384,1.463-.516l.312.863c-.18.18-.684.695-1.979.695-1.619,0-2.662-.924-2.662-3.094,0-2.051,1.199-2.986,2.567-2.986,1.223,0,1.979.803,1.979,2.29,0,.444-.048.768-.108,1.044ZM31.853,31.967h2.243c.024-.133.024-.229.024-.336,0-.72-.372-1.152-.984-1.152-.708,0-1.223.517-1.283,1.488Z"/>
      <path d="M39.688,30.684c-.06-.037-.216-.097-.492-.097-.72,0-1.127.384-1.307.72v4.126h-1.223v-5.793h1.127v.827h.024c.216-.468.612-.936,1.463-.936.24,0,.42.049.504.072l-.096,1.08Z"/>
      <path d="M40.242,37.148l-.216-.491c.528-.217.936-.504.972-1.224h-.06c-.432,0-.768-.3-.768-.78,0-.467.36-.719.744-.719.528,0,.923.432.923,1.247,0,1.247-.864,1.774-1.595,1.967Z"/>
      <path d="M9.353,45.753v.023h3.022v.996h-4.51l-.084-.804c2.603-2.795,3.202-3.466,3.202-4.714,0-.875-.408-1.379-1.247-1.379-.876,0-1.403.516-1.619.743l-.468-.852c.276-.288.983-.936,2.255-.936,1.499,0,2.327.876,2.327,2.267,0,1.584-.948,2.711-2.878,4.654Z"/>
      <path d="M16.288,46.916c-1.571,0-2.674-1.128-2.674-3.981,0-2.902,1.739-4.103,3.406-4.103.78,0,1.151.168,1.319.24l-.216,1.044c-.132-.061-.444-.205-1.067-.205-1.199,0-2.099.828-2.183,2.531.396-.264.935-.479,1.619-.479,1.295,0,2.147.863,2.147,2.326,0,1.607-.84,2.627-2.351,2.627ZM14.873,43.33c.048,1.799.635,2.542,1.475,2.542.696,0,1.104-.491,1.104-1.499,0-.911-.444-1.415-1.319-1.415-.54,0-.948.168-1.259.372Z"/>
      <path d="M25.444,41.974h-1.415v2.698c0,.876.228,1.188.816,1.188.3,0,.54-.096.648-.144l.108.936c-.108.06-.444.251-1.067.251-1.211,0-1.727-.623-1.727-2.098v-2.831h-.792v-.84l.792-.144.144-1.619h1.079v1.607h1.547l-.132.995Z"/>
    </g>
  </g>
</svg>