<?xml version="1.0" encoding="UTF-8"?>
<svg xmlns="http://www.w3.org/2000/svg" version="1.1" viewBox="0 0 90.709 90.709">
  <!-- Generator: Adobe Illustrator 29.1.0, SVG Export Plug-In . SVG Version: 2.1.0 Build 142)  -->
  <g id="Grundfläche">
    <rect x="0" width="90.709" height="90.709" fill="none"/>
  </g>
  <g id="Flächige_Fülung">
    <path d="M87.845,59.499H2.863c0-23.467,19.024-42.491,42.491-42.491s42.491,19.024,42.491,42.491Z" fill="#fa1919"/>
  </g>
  <g id="Takt_Zeichen__x28_umgewandelt_x29_">
    <path d="M45.354,16.299C21.534,16.299,2.155,35.679,2.155,59.499v.709h86.399v-.709c0-23.82-19.379-43.2-43.199-43.2ZM45.354,17.717c8.981,0,17.302,2.857,24.122,7.697L3.597,58.34c.616-22.505,19.106-40.624,41.757-40.624ZM5.867,58.79L70.756,26.359c9.775,7.51,16.154,19.231,16.375,32.431H5.867ZM68.631,65.795c2.801,2.801,2.801,7.341,0,10.142h0c-2.073,2.074-5.2,2.676-7.896,1.521l-15.381-6.592,15.381-6.591c2.695-1.155,5.822-.553,7.896,1.521h0ZM29.973,64.275l15.381,6.591-15.381,6.592c-2.695,1.155-5.822.553-7.896-1.521-2.801-2.8-2.801-7.341,0-10.142,2.073-2.073,5.2-2.676,7.896-1.521Z"/>
  </g>
  <g id="Takt._Zeichen__x28_Typo_x29_">
    <g>
      <path d="M7.44,5.755c1.331,0,1.991.588,2.183.756l-.468.996c-.216-.205-.756-.648-1.679-.648-1.415,0-2.615.863-2.615,3.118,0,2.315.948,3.238,2.483,3.238,1.031,0,1.583-.443,1.835-.647l.36.947c-.252.216-.912.804-2.387.804-2.183,0-3.67-1.259-3.67-4.294s2.003-4.27,3.958-4.27Z"/>
      <path d="M14.843,11.572h-3.25c.072,1.187.672,1.703,1.679,1.703.839,0,1.307-.384,1.463-.517l.312.864c-.18.18-.684.695-1.979.695-1.619,0-2.663-.923-2.663-3.095,0-2.051,1.199-2.986,2.566-2.986,1.223,0,1.979.805,1.979,2.291,0,.444-.048.768-.108,1.044ZM11.581,10.708h2.243c.024-.131.024-.228.024-.336,0-.719-.372-1.15-.984-1.15-.708,0-1.223.516-1.283,1.486Z"/>
      <path d="M19.368,9.713c-.192-.144-.624-.479-1.247-.479-.564,0-.852.228-.852.516,0,.384.24.563.815.852l.396.191c.9.444,1.427.936,1.427,1.823,0,.972-.696,1.703-2.123,1.703-.995,0-1.523-.372-1.787-.611l.408-1.02c.24.239.684.6,1.355.6.636,0,.995-.228.995-.552,0-.468-.312-.623-.935-.959l-.384-.204c-.828-.42-1.283-.912-1.283-1.763,0-.936.828-1.572,1.967-1.572.935,0,1.403.372,1.607.54l-.36.936Z"/>
      <path d="M24.18,9.713c-.192-.144-.624-.479-1.247-.479-.564,0-.852.228-.852.516,0,.384.24.563.815.852l.396.191c.9.444,1.427.936,1.427,1.823,0,.972-.696,1.703-2.123,1.703-.995,0-1.523-.372-1.787-.611l.408-1.02c.24.239.684.6,1.355.6.636,0,.995-.228.995-.552,0-.468-.312-.623-.935-.959l-.384-.204c-.828-.42-1.283-.912-1.283-1.763,0-.936.828-1.572,1.967-1.572.935,0,1.403.372,1.607.54l-.36.936Z"/>
      <path d="M29.603,14.174v-3.431c0-.995-.312-1.451-1.055-1.451-.636,0-1.067.3-1.307.528v4.354h-1.223v-5.793h1.127v.647h.024c.228-.276.768-.792,1.739-.792,1.235,0,1.907.792,1.907,2.315v3.622h-1.211Z"/>
      <path d="M34.752,10.888h.372v-.336c0-.888-.372-1.271-1.08-1.271-.696,0-1.175.348-1.403.54l-.408-.828c.288-.252.923-.756,2.051-.756,1.319,0,2.027.744,2.027,2.34v2.23c0,.575.048,1.115.084,1.367h-1.139c-.012-.168-.036-.384-.036-.636h-.024c-.204.336-.635.779-1.511.779-.948,0-1.595-.684-1.595-1.69,0-1.2,1.163-1.739,2.663-1.739ZM35.124,12.855v-1.176l-.444.024c-.948.048-1.415.275-1.415.827,0,.492.336.804.732.804.612,0,.936-.264,1.127-.479Z"/>
      <path d="M43.571,13.178h1.679v.996h-4.582v-.996h1.691v-5.589l-1.619.576-.264-.96,2.195-.827h.899v6.8Z"/>
      <path d="M51.238,7.194l-3.106,6.98h-1.343l3.118-6.717v-.023h-3.514v-1.056h4.749l.096.815Z"/>
      <path d="M54,13.155v.023h3.022v.996h-4.51l-.084-.804c2.603-2.794,3.202-3.466,3.202-4.714,0-.875-.408-1.379-1.247-1.379-.876,0-1.403.516-1.619.744l-.468-.852c.276-.288.983-.936,2.255-.936,1.499,0,2.327.875,2.327,2.267,0,1.583-.948,2.71-2.878,4.653Z"/>
    </g>
  </g>
</svg>